<?xml version="1.0" encoding="utf-8"?>
<!-- Generator: Adobe Illustrator 24.0.3, SVG Export Plug-In . SVG Version: 6.00 Build 0)  -->
<svg version="1.1" id="Layer_1" xmlns="http://www.w3.org/2000/svg" xmlns:xlink="http://www.w3.org/1999/xlink" x="0px" y="0px"
	 viewBox="0 0 288 288" style="enable-background:new 0 0 288 288;" xml:space="preserve">
<style type="text/css">
	.st0{fill:#9CBE30;}
</style>
<path class="st0" d="M149.8,156.3c-0.6,0.6-24.3,32.2-80.2,23.7c-45-7.2-61.4-32.3-64.5-32.8c3.7-4.9,37.7-32.2,77.2-31.6
	c38.9,1.2,67.4,23.1,67.4,23.1h24.9c-20-6.1-44.3-17-55.3-41.3c-9.7-22.5-7.9-35.8-12.2-54.7c0,0,45-3.6,79.6,18.8
	c31.6,20.7,49.2,75.3,49.8,77.2h19.4l-4.3-97.2l24.3,0.6c-4.3,25.5,1.2,207.8,0,207.8c-2.4,0.6-23.1,1.8-24.9-3
	c0,0,4.9-89.3,5.5-91.1h-18.8c0,1.2-1.8,51.6-40.1,78.4S104.1,253,104.1,253c6.7-10.3,0-21.3,19.4-51c12.8-19.7,30.7-35.6,51.7-46.2
	C173.5,156.3,150.4,156.3,149.8,156.3z M46,143.6c4.2,0.6,18.8,19.4,45,21.9c28.6,3,38.3-11.5,38.9-11.5c0-1.8-23.1-26.7-48.6-26.7
	C63.6,127.7,45.9,143.6,46,143.6L46,143.6z M212.4,159.9c-6.7,0-34,2.4-52.3,24.9c-18.8,23.7-18.2,42.5-22.5,46.8
	c3.6,1.2,41.9,4.9,58.3-20C206.2,196.3,211.9,178.4,212.4,159.9L212.4,159.9z M186.9,81.6c-21.3-23.1-42.5-19.4-46.2-18.8
	c1.8,0.6,3.6,40.7,26.1,62c15.2,14,46.2,9.1,46.2,9.1S207.5,104.1,186.9,81.6L186.9,81.6z"/>
</svg>
