<?xml version="1.0" encoding="utf-8"?>
<!-- Generator: Adobe Illustrator 24.1.0, SVG Export Plug-In . SVG Version: 6.00 Build 0)  -->
<svg version="1.1" id="Layer_1" xmlns="http://www.w3.org/2000/svg" xmlns:xlink="http://www.w3.org/1999/xlink" x="0px" y="0px"
	 viewBox="0 0 288 288" style="enable-background:new 0 0 288 288;" xml:space="preserve">
<style type="text/css">
	.st0{fill:#FF3008;}
</style>
<path class="st0" d="M276.8,100.9c-12.7-23.9-37.6-38.8-64.7-38.7H7.1c-3.9,0-7,3.2-7,7.1c0,1.9,0.7,3.6,2.1,5l44.7,44.9
	c3.9,4,9.3,6.2,14.9,6.2h144.5c10.3-0.1,18.7,8.2,18.8,18.4c0.1,10.3-8.2,18.7-18.4,18.8l0,0h-99.6c-3.9,0-7,3.2-7,7.1
	c0,1.9,0.7,3.6,2.1,5l44.7,44.9c3.9,4,9.3,6.2,14.9,6.2h45.1C265.3,225.8,309.6,163.1,276.8,100.9"/>
</svg>
