<svg id="Layer_1" data-name="Layer 1" xmlns="http://www.w3.org/2000/svg" viewBox="0 0 186.4 82"><defs><style>.cls-1{fill:#007ee5;}</style></defs><title>dropbox</title><g id="_Group_" data-name="&lt;Group&gt;"><path id="_Compound_Path_" data-name="&lt;Compound Path&gt;" class="cls-1" d="M62,30h6.64c5.68,0,9.28,3.67,9.28,9.39s-3.58,9.39-9.28,9.39H62V30Zm6.49,15.35C72,45.36,74,43.07,74,39.42s-2-6-5.54-6h-2.6v11.9Z"/><path id="_Path_" data-name="&lt;Path&gt;" class="cls-1" d="M88,38.87A3.72,3.72,0,0,0,86,38.41a2.48,2.48,0,0,0-2.6,1.93v8.47H79.67V35.13h3.8v1.34a3.53,3.53,0,0,1,3.06-1.65,3.73,3.73,0,0,1,1.43.24Z"/><path id="_Compound_Path_2" data-name="&lt;Compound Path&gt;" class="cls-1" d="M95.53,49.12c-4,0-6.71-2.93-6.71-7.13s2.73-7.17,6.71-7.17,6.69,2.93,6.69,7.17S99.51,49.12,95.53,49.12Zm0-11.07c-1.91,0-2.93,1.65-2.93,3.94s1,3.92,2.93,3.92,2.93-1.65,2.93-3.92S97.42,38,95.53,38Z"/><path id="_Compound_Path_3" data-name="&lt;Compound Path&gt;" class="cls-1" d="M107.65,53.87h-3.8V35.13h3.8v1.14a4.71,4.71,0,0,1,3.43-1.43c4,0,6.23,3.3,6.23,7.17s-2.26,7.13-6.23,7.13a4.71,4.71,0,0,1-3.43-1.43v6.16Zm0-9.64a2.87,2.87,0,0,0,2.57,1.6c2.05,0,3.28-1.65,3.28-3.83s-1.23-3.85-3.28-3.85a2.89,2.89,0,0,0-2.57,1.6Z"/><path id="_Compound_Path_4" data-name="&lt;Compound Path&gt;" class="cls-1" d="M122.77,48.81h-3.83V28.92h3.83v7.35a4.71,4.71,0,0,1,3.43-1.43c4,0,6.22,3.25,6.22,7.17s-2.24,7.13-6.22,7.13a4.71,4.71,0,0,1-3.43-1.43Zm0-4.58a2.79,2.79,0,0,0,2.57,1.6c2.05,0,3.28-1.65,3.28-3.83s-1.23-3.85-3.28-3.85a2.89,2.89,0,0,0-2.57,1.6Z"/><path id="_Compound_Path_5" data-name="&lt;Compound Path&gt;" class="cls-1" d="M140.48,49.16c-4,0-6.71-2.93-6.71-7.13s2.73-7.17,6.71-7.17,6.69,2.93,6.69,7.17S144.44,49.16,140.48,49.16Zm0-11.07c-1.91,0-2.93,1.65-2.93,3.94s1,3.92,2.93,3.92,2.93-1.65,2.93-3.92S142.37,38.08,140.48,38.08Z"/><path id="_Path_2" data-name="&lt;Path&gt;" class="cls-1" d="M155.7,41.75l5,7.08h-4.2l-2.93-4.29-3,4.29h-4l4.93-7-4.64-6.69h4.2L153.74,39l2.68-3.89h4Z"/></g><g id="_Group_2" data-name="&lt;Group&gt;"><polygon id="_Path_3" data-name="&lt;Path&gt;" class="cls-1" points="33.45 23.58 23.56 29.94 30.4 35.46 40.34 29.32 33.45 23.58"/><polygon id="_Path_4" data-name="&lt;Path&gt;" class="cls-1" points="23.56 40.85 33.45 47.34 40.34 41.6 30.4 35.46 23.56 40.85"/><polygon id="_Path_5" data-name="&lt;Path&gt;" class="cls-1" points="40.34 41.6 47.23 47.34 57.08 40.93 50.26 35.46 40.34 41.6"/><polygon id="_Path_6" data-name="&lt;Path&gt;" class="cls-1" points="57.08 30 47.23 23.58 40.34 29.32 50.26 35.46 57.08 30"/><polygon id="_Path_7" data-name="&lt;Path&gt;" class="cls-1" points="40.36 42.83 33.45 48.57 30.48 46.65 30.48 48.81 40.36 54.73 50.22 48.81 50.22 46.65 47.27 48.57 40.36 42.83"/></g></svg>