<?xml version="1.0" encoding="utf-8"?>
<!-- Generator: Adobe Illustrator 24.0.3, SVG Export Plug-In . SVG Version: 6.00 Build 0)  -->
<svg version="1.1" id="Layer_1" xmlns:rdf="http://www.w3.org/1999/02/22-rdf-syntax-ns#" xmlns:svg="http://www.w3.org/2000/svg"
	 xmlns="http://www.w3.org/2000/svg" xmlns:xlink="http://www.w3.org/1999/xlink" x="0px" y="0px" viewBox="0 0 300 300"
	 style="enable-background:new 0 0 300 300;" xml:space="preserve">
<style type="text/css">
	.st0{fill:#E53238;}
	.st1{fill:#0064D2;}
	.st2{fill:#F5AF02;}
	.st3{fill:#86B817;}
</style>
<path id="e" class="st0" d="M38.9,116.1c-21.1,0-38.8,9-38.8,36c0,21.4,11.8,34.9,39.3,34.9c32.3,0,34.4-21.3,34.4-21.3H58.1
	c0,0-3.4,11.5-19.7,11.5c-13.3,0-22.9-9-22.9-21.6h59.9v-7.9C75.4,135.4,67.5,116.1,38.9,116.1L38.9,116.1z M38.3,126.2
	c12.7,0,21.3,7.8,21.3,19.4H15.9C15.9,133.3,27.2,126.2,38.3,126.2z"/>
<path id="b" class="st1" d="M75.4,89.9v83.6c0,4.7-0.3,11.4-0.3,11.4H90c0,0,0.5-4.8,0.5-9.2c0,0,7.4,11.5,27.5,11.5
	c21.1,0,35.5-14.7,35.5-35.7c0-19.6-13.2-35.3-35.5-35.3c-20.9,0-27.3,11.3-27.3,11.3V89.9L75.4,89.9z M114.2,126.7
	c14.4,0,23.5,10.7,23.5,24.9c0,15.3-10.5,25.4-23.4,25.4c-15.3,0-23.6-12-23.6-25.2C90.7,139.4,98.1,126.7,114.2,126.7z"/>
<path id="a" class="st2" d="M190.6,116.1c-31.8,0-33.9,17.4-33.9,20.2h15.8c0,0,0.8-10.2,16.9-10.2c10.5,0,18.6,4.8,18.6,14v3.3
	h-18.6c-24.6,0-37.7,7.2-37.7,21.8c0,14.4,12,22.2,28.3,22.2c22.2,0,29.3-12.3,29.3-12.3c0,4.9,0.4,9.7,0.4,9.7H224
	c0,0-0.5-6-0.5-9.8v-32.9C223.4,120.7,206,116.1,190.6,116.1L190.6,116.1z M208.1,153.3v4.4c0,5.7-3.5,19.9-24.2,19.9
	c-11.3,0-16.2-5.7-16.2-12.2C167.7,153.4,184.1,153.3,208.1,153.3L208.1,153.3z"/>
<path id="y" class="st3" d="M214.9,118.9h17.8l25.6,51.2l25.5-51.2h16.1l-46.5,91.2h-16.9l13.4-25.4L214.9,118.9z"/>
</svg>
