<svg id="8a26781b-55c6-4893-9413-d472fcc93ee0" data-name="Layer 1" xmlns="http://www.w3.org/2000/svg" xmlns:xlink="http://www.w3.org/1999/xlink" viewBox="0 0 186.4 82"><defs><symbol id="369f7c80-dc78-4e41-afd9-7fc7c54fd2d0" data-name="ebay" viewBox="0 0 212.12 85.73"><g id="9010fd5f-7681-48fd-b635-7bdb3d209e77" data-name="eBay"><path d="M52.08,54.18a10.8,10.8,0,0,1-.2,1.18,16.33,16.33,0,0,1-6.32,8.83,22.93,22.93,0,0,1-9.56,4,44,44,0,0,1-20.12-.81A21.11,21.11,0,0,1,5.19,60.69a20.52,20.52,0,0,1-4.3-8.81,34.69,34.69,0,0,1,0-15.83C2.86,27.87,8,22.66,16,20.21a38.61,38.61,0,0,1,11.23-1.53A34.53,34.53,0,0,1,37.41,20c8.14,2.46,13.36,7.75,15.38,16.08a19.63,19.63,0,0,1,.61,5.05c0,1.42,0,2.84,0,4.26,0,1.07-.06,1.11-1.17,1.13H12.63c-2,0-2.1.11-1.8,2.14,1,6.74,4.83,11.06,11.34,12.91a18.45,18.45,0,0,0,12.21-.66A12.19,12.19,0,0,0,41,54.85a1.19,1.19,0,0,1,1.22-.79c3,0,6,0,8.94,0A9.43,9.43,0,0,1,52.08,54.18ZM42.33,39.57a9.49,9.49,0,0,0,.05-1.15,13,13,0,0,0-6.62-10.77,16.29,16.29,0,0,0-7.41-2.09,18.15,18.15,0,0,0-11.51,3A12.81,12.81,0,0,0,11,38a2,2,0,0,0,.19,1.58Z" fill="#e43238"/><path d="M53.15,38.92c0-1-.07-1.91-.07-2.87q0-17.3,0-34.59C53.08,0,53.08,0,54.55,0h7.77c.38,0,.76.05,1.26.09,0,8.86,0,17.64,0,26.62a3.67,3.67,0,0,0,.69-.46,18.85,18.85,0,0,1,10.24-6.3A31,31,0,0,1,91,19.86c8.61,2.42,14,8.12,16.39,16.71a29.61,29.61,0,0,1,.69,11,24.09,24.09,0,0,1-4.87,12.3,22.31,22.31,0,0,1-12.78,8.3,30.06,30.06,0,0,1-16.68-.54,20.31,20.31,0,0,1-9.53-6.15,4.42,4.42,0,0,0-.59-.46c-.49,2.13-.05,4.22-.62,6.18a81.8,81.8,0,0,1-10,.06,2.94,2.94,0,0,1-.1-.57C53,60.32,53.12,40.8,53.15,38.92ZM97.38,43.8a19.46,19.46,0,0,0-.92-6.4,15.75,15.75,0,0,0-10-10.6,17.62,17.62,0,0,0-6.91-.95C73.64,26.14,69,28.7,66.12,34a20.22,20.22,0,0,0-.35,19.22A15,15,0,0,0,74.5,61a17.28,17.28,0,0,0,7.75.93,15.93,15.93,0,0,0,11.32-6.23A18.66,18.66,0,0,0,97.38,43.8Z" fill="#3366af"/><path d="M158.06,67.74h-9.75c-.42-2.15-.16-4.31-.36-6.56-.19.1-.33.13-.4.22a20.63,20.63,0,0,1-10.64,6.87,32.79,32.79,0,0,1-9,1.32,29.84,29.84,0,0,1-9.45-1.16,16.59,16.59,0,0,1-8.6-5.59,14.11,14.11,0,0,1-2.76-10.63,13.49,13.49,0,0,1,.5-2.77,12.6,12.6,0,0,1,5.57-6.87,25.2,25.2,0,0,1,8.32-3.11,61.57,61.57,0,0,1,12.9-1.09c3.76,0,7.52,0,11.28,0h1.3a19.07,19.07,0,0,0,0-3.64,8.89,8.89,0,0,0-5.85-7.38,19.18,19.18,0,0,0-13.74-.4A8.45,8.45,0,0,0,122,31.61c-.21.48-.35,1-.55,1.54h-11a4,4,0,0,1,.25-2.2,13.24,13.24,0,0,1,5.42-7.52,23.76,23.76,0,0,1,9.94-3.82,48.3,48.3,0,0,1,15.15-.19,23.65,23.65,0,0,1,8.44,2.76,15,15,0,0,1,7.7,11.49,34.07,34.07,0,0,1,.29,4.77c0,6.46,0,12.91,0,19.37,0,3,.2,6,.31,8.93C158.07,67,158.06,67.35,158.06,67.74Zm-11.2-22.45a6.53,6.53,0,0,0-.68-.06c-4.32.08-8.65.08-13,.26a62.2,62.2,0,0,0-6.74.78,13.83,13.83,0,0,0-5.18,1.81,6,6,0,0,0-2.92,3.65,7.82,7.82,0,0,0,2,7.77,9.75,9.75,0,0,0,5.53,2.75,22.61,22.61,0,0,0,11.84-.93C144.65,58.79,147.74,52.39,146.86,45.29Z" fill="#f2ae1c"/><path d="M167.39,85.64c.26-.52.43-.87.61-1.22,2.78-5.27,5.55-10.55,8.35-15.81a1.64,1.64,0,0,0,0-1.76Q166.79,49,157.28,31.09l-4.81-9c-.16-.3-.3-.62-.51-1h12.51l18.16,36.38c1.42-2.5,2.51-4.94,3.72-7.31s2.4-4.83,3.61-7.24l3.65-7.33,3.6-7.24L200.84,21h11.28c-.14.35-.24.64-.38.91l-22.38,43.9q-4.81,9.43-9.58,18.88a1.52,1.52,0,0,1-1.6,1c-3.19-.06-6.39,0-9.58,0C168.26,85.7,167.92,85.67,167.39,85.64Z" fill="#84b840"/></g></symbol></defs><title>ebay</title><use width="212.12" height="85.73" transform="translate(50 23) scale(0.41 0.42)" xlink:href="#369f7c80-dc78-4e41-afd9-7fc7c54fd2d0"/></svg>