<?xml version="1.0" encoding="utf-8"?>
<!-- Generator: Adobe Illustrator 24.0.3, SVG Export Plug-In . SVG Version: 6.00 Build 0)  -->
<svg version="1.1" id="Layer_1" xmlns="http://www.w3.org/2000/svg" xmlns:xlink="http://www.w3.org/1999/xlink" x="0px" y="0px"
	 viewBox="0 0 300 300" style="enable-background:new 0 0 300 300;" xml:space="preserve">
<style type="text/css">
	.st0{fill:#F27224;}
</style>
<path class="st0" d="M32.2,130.2V90c0-1.5,0.1-2.4,2.7-2.4H69c6,0,9.2,5.1,11.6,14.6l1.9,7.6h5.8c1-21.6,1.9-31,1.9-31
	S75.7,80.5,67,80.5H23.4L0,79.8V86l7.9,1.5c5.5,1,6.8,2.2,7.3,7.3c0,0,0.4,14.9,0.4,39.5c0,24.6-0.4,39.3-0.4,39.3
	c0,4.5-1.8,6.1-7.3,7.2L0,182.2v6.3l23.4-0.7h39c8.8,0,29.2,0.7,29.2,0.7c0.4-5.4,3.4-29.6,3.9-32.3H90l-5.8,13.3
	c-4.6,10.4-11.3,11.2-18.8,11.2H43.2c-7.4,0-11-3-11-9.4v-34c0,0,16.2,0,21.9,0.4c4.2,0.3,6.7,1.5,8,7.3l1.8,7.7h6.4l-0.4-19.5
	l0.9-19.7h-6.4l-2.1,8.6c-1.3,5.7-2.2,6.7-8,7.3c-6.6,0.7-22,0.6-22,0.6L32.2,130.2L32.2,130.2L32.2,130.2L32.2,130.2z M120.5,94.2
	c-2.1,9.2-4.2,16.4-11.5,21.1c-4.5,3-8.9,4-10.7,4.2v5.7h13.3v45.7c0,12.8,8.5,19.1,19.8,19.1c8.8,0,17.9-3.7,21-11.5l-3.1-4
	c-1.5,2.5-6.3,6.3-12.2,6.3c-6.6,0-10.1-4.5-10.1-15.8v-40.4l22,1.6l1.2-10.1l-23.2,0.9V94.3L120.5,94.2L120.5,94.2z M167.6,164.5
	l-5.7,0.1c0.3,3.3,0.4,7.4,0.4,11.3c0,4-0.1,7.7-0.4,9.5c0,0,11.3,4.2,22.8,4.2c15.5,0,27.9-7.4,27.9-22c0-25-37.5-21.3-37.5-38.1
	c0-7,6.3-9.7,13.1-9.7c5.4,0,9.8,1.9,10.7,4.8l3.7,11.2l5.5-0.3c0.4-6,0.7-12.8,1.6-18.3c-4.8-2.1-14.7-3.3-21-3.3
	c-14.6,0-26.4,6.4-26.4,20.7c0,24.9,36.6,19.8,36.6,38.1c0,6.6-4,11.2-13.1,11.2c-8.3,0-12.5-4.3-14.1-8.6L167.6,164.5L167.6,164.5z
	 M257.3,181.7c-8.6,24.1-19.2,30.3-28.7,30.3c-4,0-5.9-1.8-6.5-4.6l-2.2-11.6l-6.2,0.3c-1.2,6.8-2.4,14.4-4,20.7
	c3.7,2.8,10,4.3,14.9,4.3c10.3,0,25.9-1.3,40.1-35.2l23.9-56.5c1.9-4.6,2.7-5.1,8.3-7.3l3.1-1.2v-5.2l-14.1,0.7l-15.2-0.7v5.2
	l3.9,1.2c3.9,1.2,5.7,2.7,5.7,5.4c0,1.3-0.4,2.7-1.2,4.8c-2.2,5.7-16.1,39.3-19.8,46.4l3.7-1.3c-6.5-16.2-16.5-43.3-18-47.9
	c-0.3-0.9-0.4-1.6-0.4-2.4c0-2.4,1.6-4.3,5.2-5.1l4.9-1v-5.2l-20.4,0.7l-16.2-0.7v5.2l2.7,0.9c3.7,1.2,4.6,2.2,6.8,7.4
	c12.3,28.2,18.1,43.7,26,63.9L257.3,181.7L257.3,181.7z"/>
</svg>
