<svg id="eventbrite" data-name="eventbrite" xmlns="http://www.w3.org/2000/svg" xmlns:xlink="http://www.w3.org/1999/xlink" viewBox="0 0 186.4 82"><title>eventbrite</title><polygon points="92.27 54.51 92.27 41.09 89.45 41.09 89.45 36.64 92.27 36.64 92.27 30.38 97.06 29.28 97.06 36.64 100.66 36.64 100.66 41.09 97.06 41.09 97.06 54.51 92.27 54.51 92.27 54.51" style="fill:#e25539"/><polygon points="41.34 54.51 34.16 36.64 39.2 36.64 43.75 48.76 48.34 36.64 53.37 36.64 46.19 54.51 41.34 54.51 41.34 54.51" style="fill:#e25539"/><path d="M106.73,45.85a5,5,0,1,0,0-.42v.42Zm-4.51,8.66V28.11l4.62-1.06V38a7.6,7.6,0,0,1,5-1.66,9.35,9.35,0,1,1,0,18.69,7.6,7.6,0,0,1-5-1.66v1.17Z" style="fill:#e25539"/><path d="M134.19,54.51V36.64h4.63V54.51Zm-.78-24.14a3.09,3.09,0,1,1,3.11,3.11,3.06,3.06,0,0,1-3.11-3.11Z" style="fill:#e25539"/><path d="M132.61,36.69a8.5,8.5,0,0,0-5.17,1.54V36.64h-4.62V54.51h4.62V45.74c0-2.75.66-4.32,5.17-4.48V36.69Z" style="fill:#e25539"/><polygon points="143.2 54.51 143.2 41.18 140.38 41.18 140.38 36.64 143.2 36.64 143.2 30.39 147.99 30.39 147.99 36.64 151.58 36.64 151.58 41.18 147.99 41.18 147.99 54.51 143.2 54.51 143.2 54.51" style="fill:#e25539"/><path d="M60,40.73a5.08,5.08,0,0,1,5.28,2l-9.13,2.11A5.07,5.07,0,0,1,60,40.73Zm5.33,7.76a5.06,5.06,0,0,1-8.35,0l9.16-2.12,1.49-.34,2.85-.66a9.11,9.11,0,0,0-.24-1.85,9.34,9.34,0,1,0-.58,5.92l-4.33-1Z" style="fill:#e25539"/><path d="M159.79,40.73a5.07,5.07,0,0,1,5.27,2l-9.13,2.11a5.07,5.07,0,0,1,3.86-4.13Zm5.32,7.76a5.05,5.05,0,0,1-8.34,0l9.15-2.12,1.49-.34,2.85-.66a9.09,9.09,0,0,0-.23-1.85,9.34,9.34,0,1,0-.58,5.92l-4.34-1Z" style="fill:#e25539"/><path d="M25.25,40.73a5.06,5.06,0,0,1,5.28,2L21.4,44.86a5.07,5.07,0,0,1,3.85-4.13Zm5.33,7.75a5,5,0,0,1-8.35,0l9.16-2.11,1.49-.34,2.85-.66a9.12,9.12,0,0,0-.24-1.86,9.34,9.34,0,1,0-.58,5.92l-4.33-1Z" style="fill:#e25539"/><path d="M84.05,54.51V45c0-3.46-1.84-4.21-3.69-4.21s-3.68.71-3.68,4.13v9.63H72.06V36.64h4.62V38a7,7,0,0,1,4.7-1.66c3.91,0,7.29,2.3,7.29,7.9v10.3Z" style="fill:#e25539"/></svg>