<svg id="d366f1f8-9edb-46a2-b164-08ec06dca424" data-name="Layer 1" xmlns="http://www.w3.org/2000/svg" xmlns:xlink="http://www.w3.org/1999/xlink" width="186.4" height="82" viewBox="0 0 186.4 82"><defs><symbol id="5c294db5-8d25-48ab-9657-745bdc9c966f" data-name="expedia" viewBox="0 0 288.38 80.14"><circle cx="32.8" cy="32.92" r="32.78" fill="#fdc30e"/><path d="M.74,39.42l.8-.23c12.67-3.1,25.49-5.63,38.08-9.53.15.6.24,1.11.4,1.6a12.17,12.17,0,0,1,.34,5.12c-.41,4.37-.77,8.75-1.15,13.13-.07.85-.15,1.71-.23,2.57,1.46-.09,1.82-.36,2.2-1.6q3.53-11.31,7-22.62a1.22,1.22,0,0,1,1-.92c3.44-1,6.9-1.89,10.31-2.94A29.2,29.2,0,0,0,63,22.42c.24-.11.45-.25.68-.39,3.24,8.07,3,20.8-5,31a32.77,32.77,0,0,1-58-13.61Z" fill="#16365e"/><path d="M62.53,19c-5.13.33-9.78,2.38-14.63,3.57a1.12,1.12,0,0,1-1.17-.23C40.8,17.19,34.82,12.09,28.93,6.9A2.26,2.26,0,0,0,26,6.58c.15.22.3.43.45.64,3.41,4.56,6.88,9.08,10.2,13.71a17,17,0,0,1,1.65,4c0,.09-.31.41-.52.47-2.83.83-5.69,1.57-8.51,2.46C25.52,29.1,21.76,30.41,18,31.71Q9.58,34.6,1.19,37.53l-.79.25a31.74,31.74,0,0,1,2-17.06A31.9,31.9,0,0,1,20.46,2.47,32.65,32.65,0,0,1,62.53,19Z" fill="#16365e"/><path d="M100.47,41.93H84.86c0,.3,0,.54,0,.77,0,4.06,0,8.12,0,12.18,0,.68.21.83.86.83,5.5,0,11,0,16.51,0h.91a16,16,0,0,1-1.51,5.07c-.87,1.8-.87,1.8-2.87,1.8-5.62,0-11.25-.06-16.87,0A4.71,4.71,0,0,1,77,57.74q0-17.34,0-34.68a4.61,4.61,0,0,1,4.87-4.87H103a14.1,14.1,0,0,1-1.13,4.32c-1.1,2.61-1.12,2.6-3.94,2.6-4.11,0-8.22,0-12.33,0-.64,0-.82.19-.81.82,0,2.74,0,5.48,0,8.22,0,.23,0,.47,0,.78h.89c4.64,0,9.28,0,13.91,0,.61,0,.83.12.82.79C100.44,37.73,100.47,39.77,100.47,41.93Z" fill="#16365e"/><path d="M221.91,64.18V61.76c-.34.14-.57.24-.8.35a17,17,0,0,1-7,1.84,12.88,12.88,0,0,1-11.57-5.79c-3.93-5.77-3.68-14.86,2-20.15a15,15,0,0,1,12.11-4c1.42.13,2.83.43,4.35.67V33.9c0-4.28,0-8.55,0-12.83a1.1,1.1,0,0,1,.55-1,16.28,16.28,0,0,1,6.89-2.53c0,.25,0,.5,0,.75q0,21.27,0,42.53a1.07,1.07,0,0,1-.56,1A16.9,16.9,0,0,1,221.91,64.18Zm-1-15.74q0-3.1,0-6.2c0-1.86,0-1.86-1.8-2.41-4.44-1.38-8.76.41-10.55,4.46a12.58,12.58,0,0,0-.48,9A6.41,6.41,0,0,0,214.43,58a12.59,12.59,0,0,0,5.94-1.44.86.86,0,0,0,.58-.92C220.93,53.24,220.94,50.84,220.94,48.44Z" fill="#16365e"/><path d="M145.4,63.57c0,.37,0,.65,0,.94,0,4,0,8,0,12a1.26,1.26,0,0,1-.66,1.22,17.49,17.49,0,0,1-6.33,2.43,3.59,3.59,0,0,1-.53,0v-.78q0-21.78,0-43.55c0-.7.2-.92.89-.88.89.05,1.78,0,2.67,0a30.5,30.5,0,0,0,7.1-.78c5.56-.95,10.58.21,14.45,4.61A14.65,14.65,0,0,1,166.46,49a14.24,14.24,0,0,1-12.13,14.59,23.18,23.18,0,0,1-8.38,0C145.81,63.58,145.67,63.58,145.4,63.57Zm0-14.42h0c0,2.72,0,5.43,0,8.15,0,.54.16.79.7.84,1.4.13,2.81.41,4.21.4a8.35,8.35,0,0,0,7.76-5.46,12.66,12.66,0,0,0,.59-6.37,8.1,8.1,0,0,0-6.24-7,13.23,13.23,0,0,0-6.33.41.77.77,0,0,0-.66.9C145.44,43.71,145.42,46.43,145.42,49.14Z" fill="#16365e"/><path d="M268,60.9c-.17,0-.2,0-.21,0-2.57,2.8-5.84,3.34-9.42,3a13.38,13.38,0,0,1-9.27-4.65,14.23,14.23,0,0,1-3.22-8.16,15.94,15.94,0,0,1,2.3-10.27,14,14,0,0,1,12.73-6.87,17.06,17.06,0,0,1,6.32,1.54c.15.06.31.1.46.15s.1-.09.1-.13c0-1.22-.06-1.15,1.23-1.15,1.54,0,3.08,0,4.61,0,.56,0,.76.18.76.75q0,12.9,0,25.81a.93.93,0,0,1-.26.67,16.07,16.07,0,0,1-6.1,2.63Zm-1.14-12.22c0-2.35,0-4.71,0-7.06,0-.25-.12-.65-.28-.71a17.12,17.12,0,0,0-4.12-1.37,7.7,7.7,0,0,0-8.22,5.3,13.44,13.44,0,0,0-.57,7.36A7,7,0,0,0,259.84,58a10.52,10.52,0,0,0,6.46-1.48.91.91,0,0,0,.57-.95C266.85,53.29,266.86,51,266.86,48.68Z" fill="#16365e"/><path d="M195.94,54.49c0,2.12,0,4.13,0,6.14a.64.64,0,0,1-.36.44,32.44,32.44,0,0,1-10.93,2.87c-7.77.3-14.09-4.55-15.35-12.09-.87-5.21.22-9.91,4-13.75,3.46-3.52,7.83-4.66,12.61-4.15a11.71,11.71,0,0,1,10,6.84,12.85,12.85,0,0,1,1.2,5.44c0,1.43-.13,2.86-.21,4.37H176.67a7.11,7.11,0,0,0,3.64,6.34,11.3,11.3,0,0,0,7.93.67A29.37,29.37,0,0,0,195,55Zm-6-8.2A5.94,5.94,0,0,0,187,40.71,6.55,6.55,0,0,0,180,41a7.29,7.29,0,0,0-3.23,5.3Z" fill="#16365e"/><path d="M120.7,43.25l3.94-4.79c.85-1,1.7-2.09,2.57-3.11a1.1,1.1,0,0,1,.7-.39c2.21,0,4.42,0,6.63,0a1.79,1.79,0,0,1,.35.12l-10.56,12.7L136.48,62.7h-1c-2.48,0-5,0-7.43,0a1.24,1.24,0,0,1-1.09-.52c-2.25-2.78-4.52-5.55-6.79-8.32-.11-.13-.22-.25-.41-.45l-1.88,2.26c-1.81,2.21-3.62,4.43-5.44,6.63a.92.92,0,0,1-.56.37c-2.3,0-4.59,0-7.1,0L116.1,48.78,104.9,35c.42,0,.68,0,.93,0,2.43,0,4.85,0,7.28,0a1.56,1.56,0,0,1,1.39.68c1.87,2.35,3.76,4.68,5.65,7C120.3,42.81,120.46,43,120.7,43.25Z" fill="#16365e"/><path d="M234.1,62.7v-.94q0-12.94,0-25.88c0-.94,0-.94.94-.94,1.92,0,3.84,0,5.77,0,.57,0,.81.12.8.75q0,13.16,0,26.31c0,.31.11.71-.45.71Z" fill="#16365e"/><path d="M237.86,29.24a4.48,4.48,0,1,1,4.51-4.39A4.51,4.51,0,0,1,237.86,29.24Z" fill="#16365e"/><path d="M277.74,34.28a5.32,5.32,0,0,1,10.65,0,5.32,5.32,0,1,1-10.65,0Zm.72,0A4.6,4.6,0,1,0,283,29.7,4.65,4.65,0,0,0,278.45,34.31Z" fill="#16365e"/><path d="M282.14,37.15H281V31.29a9.16,9.16,0,0,1,3.8.23,1.85,1.85,0,0,1,.87,1.1,1.35,1.35,0,0,1-.62,1.56c-.18.12-.38.21-.62.34l1.23,2.58c-1.28.17-1.28.17-1.78-.89a7.29,7.29,0,0,1-.39-.85c-.2-.62-.58-.84-1.3-.58Zm0-3.24c.75-.08,1.56.28,2.08-.45a1.05,1.05,0,0,0,0-1c-.52-.69-1.31-.46-2.07-.48Z" fill="#16365e"/><path d="M58.57,60.12a3.46,3.46,0,0,1,6.91,0,3.46,3.46,0,1,1-6.91,0Zm.47,0a3,3,0,1,0,3-3A3,3,0,0,0,59,60.14Z" fill="#16365e"/><path d="M61.43,62h-.77v-3.8a6,6,0,0,1,2.46.15,1.2,1.2,0,0,1,.57.71.88.88,0,0,1-.4,1c-.11.08-.24.13-.4.22l.81,1.7h-.88l-.67-1.53h-.71Zm0-2.1s1.55,0,1.52-.66-1.52-.52-1.52-.52Z" fill="#16365e"/></symbol></defs><title>expedia</title><use width="288.38" height="80.14" transform="translate(34 25) scale(0.41 0.4)" xlink:href="#5c294db5-8d25-48ab-9657-745bdc9c966f"/></svg>