<svg id="Layer_1" data-name="Layer 1" xmlns="http://www.w3.org/2000/svg" viewBox="0 0 186.4 82"><title>expediagroup</title><path d="M20.47,38.72a3.5,3.5,0,0,0-3.61-3.28,3.69,3.69,0,0,0-3.61,3.75c0,2.27,1.57,3.89,4.25,3.89h5.09a6.72,6.72,0,0,1-5.7,3.07,6.91,6.91,0,1,1,6.91-6.9,7.56,7.56,0,0,1-.34,2.15H15.77v-.75l2.71-.09c1.37-.05,2-.75,2-1.84" fill="#231f20"/><polygon points="29.53 36.62 32.16 32.76 35.79 32.76 31.32 39 36.16 45.73 32.3 45.73 29.42 41.54 26.51 45.73 22.87 45.73 27.63 39.16 23.01 32.76 26.87 32.76 29.53 36.62" fill="#231f20"/><path d="M43.62,43.33a3.86,3.86,0,0,0,3.67-4.08,3.69,3.69,0,1,0-7.33,0,3.87,3.87,0,0,0,3.66,4.08m-3.47-8a4.77,4.77,0,0,1,4.4-2.9c3.13,0,6,2.65,6,6.85s-2.85,6.85-6,6.85a4.78,4.78,0,0,1-4.4-2.91c0-.11-.14-.08-.14,0v7.86H36.66V32.76H40v2.52c0,.11.09.14.14,0" fill="#231f20"/><path d="M62.08,38.72a3.5,3.5,0,0,0-3.61-3.28,3.69,3.69,0,0,0-3.61,3.75c0,2.27,1.57,3.89,4.25,3.89H64.2a6.72,6.72,0,0,1-5.7,3.07,6.91,6.91,0,1,1,6.9-6.9,7.55,7.55,0,0,1-.33,2.15H57.38v-.75l2.71-.09c1.37-.05,2-.75,2-1.84" fill="#231f20"/><path d="M73.4,35.16a3.86,3.86,0,0,0-3.66,4.09,3.68,3.68,0,1,0,7.32,0,3.88,3.88,0,0,0-3.66-4.09m3.47,8a4.77,4.77,0,0,1-4.39,2.91c-3.13,0-6-2.66-6-6.85s2.86-6.85,6-6.85a4.76,4.76,0,0,1,4.39,2.9c0,.12.14.09.14,0V27.14h3.35v18.6H77V43.22c0-.11-.09-.14-.14,0" fill="#231f20"/><path d="M86.12,45.73H82.77v-13h3.35ZM82.49,29a2,2,0,1,1,2,2,2,2,0,0,1-2-2" fill="#231f20"/><path d="M94.71,35.16a3.86,3.86,0,0,0-3.66,4.09,3.68,3.68,0,1,0,7.32,0,3.88,3.88,0,0,0-3.66-4.09m3.47,8a4.77,4.77,0,0,1-4.39,2.91c-3.14,0-6-2.66-6-6.85s2.85-6.85,6-6.85a4.76,4.76,0,0,1,4.39,2.9c0,.12.14.09.14,0V32.76h3.35v13H98.32V43.22c0-.11-.09-.14-.14,0" fill="#231f20"/><path d="M114.81,35.16a3.79,3.79,0,0,0-3.6,4,3.63,3.63,0,1,0,7.21,0,3.81,3.81,0,0,0-3.61-4m3.55,8c0-.12-.08-.14-.13,0A4.73,4.73,0,0,1,113.89,46c-3.1,0-5.93-2.63-5.93-6.8s2.83-6.79,5.93-6.79a4.72,4.72,0,0,1,4.34,2.9c0,.12.13.09.13,0V32.76h3.36V45c0,3.61-2.49,6.4-6.79,6.4a8.8,8.8,0,0,1-6.05-2.26l2-2.18a5.93,5.93,0,0,0,4,1.62c2.46,0,3.49-1.73,3.49-3.89Z" fill="#231f20"/><path d="M127.48,32.76v2.82c0,.06.06.09.08,0,.45-2.32,1.46-3.18,3.19-3.18h.31v3.52h-1.51c-1.37,0-2.07,1.06-2.07,2.57v7.25h-3.36v-13Z" fill="#231f20"/><path d="M138.16,35.39a3.86,3.86,0,1,0,3.67,3.86,3.74,3.74,0,0,0-3.67-3.86m0-3a6.91,6.91,0,1,1-6.93,6.91,6.91,6.91,0,0,1,6.93-6.91" fill="#231f20"/><path d="M152,46.15c-3.27,0-5.37-2-5.37-4.89v-8.5H150V41a2.06,2.06,0,1,0,4.11,0V32.76h3.35v8.5c0,2.91-2.26,4.89-5.45,4.89" fill="#231f20"/><path d="M166.77,43.33a3.85,3.85,0,0,0,3.66-4.08,3.69,3.69,0,1,0-7.33,0,3.88,3.88,0,0,0,3.67,4.08m-3.47-8a4.76,4.76,0,0,1,4.39-2.9c3.13,0,6,2.65,6,6.85s-2.85,6.85-6,6.85a4.77,4.77,0,0,1-4.39-2.91c-.06-.11-.14-.08-.14,0v7.86H159.8V32.76h3.36v2.52c0,.11.08.14.14,0" fill="#231f20"/><path d="M177.45,33.11h-.59v1.63h-.38V33.11h-.59V32.8h1.56Zm1.48,1.07.53-1.38H180v1.94h-.35V33.22h0l-.58,1.52h-.27l-.58-1.52h0v1.52h-.35V32.8h.55Z" fill="#231f20"/></svg>