<svg id="Layer_1" data-name="Layer 1" xmlns="http://www.w3.org/2000/svg" xmlns:xlink="http://www.w3.org/1999/xlink" viewBox="0 0 186.4 82"><defs><symbol id="groupon" data-name="groupon" viewBox="0 0 326 51.11"><path d="M50.5,25.77a24.67,24.67,0,0,1-4.23,14.32,25.5,25.5,0,0,1-21,11A24.32,24.32,0,0,1,7,43.35,25.62,25.62,0,0,1,0,25.07,24.66,24.66,0,0,1,7.49,7.27,24.85,24.85,0,0,1,25.4,0,25.15,25.15,0,0,1,49.1,17H35.35a13.44,13.44,0,0,0-10.11-4.78A12.91,12.91,0,0,0,12.36,25.12h0A13.51,13.51,0,0,0,25.24,39a12.53,12.53,0,0,0,11.08-6.64h-14V22.51H50.36C50.43,23.62,50.5,24.73,50.5,25.77Z" style="fill:#53a346"/><path d="M53.54,50.21V1H69.89c5.19,0,9.15.34,12.53,2.7a15.82,15.82,0,0,1,6.65,13.77c0,8-4.16,13.91-11.16,15.86L90,50.21H75L65.59,34.34V50.21ZM67.87,23.67c6,0,8.95-1.52,8.95-6,0-4-2.56-5.8-7.9-5.8H65.59V23.62Z" style="fill:#53a346"/><path d="M98.36,7.27a25.42,25.42,0,0,1,35.47.07,24.9,24.9,0,0,1,7.62,17.91,25.56,25.56,0,0,1-7.16,18.14,25.08,25.08,0,0,1-18.13,7.68A24.43,24.43,0,0,1,97.8,43.31a25.62,25.62,0,0,1-6.94-18.24A24.62,24.62,0,0,1,98.36,7.27Zm17.9,31.66c7.08,0,12.82-5.68,12.82-13.72a12.88,12.88,0,0,0-25.76,0,13.47,13.47,0,0,0,12.91,13.7Z" style="fill:#53a346"/><path d="M156.75,1V31.3c0,5.53,1.79,8.38,5.81,8.38s6.24-2.78,6.24-8.38V1h12V31.78c0,12-7.35,19.18-18.36,19.18s-17.92-6.82-17.92-19.18V1Z" style="fill:#53a346"/><path d="M184.32,50.21V1h16.35c5.19,0,9.14.34,12.53,2.7a15.87,15.87,0,0,1,6.57,13.84A16.53,16.53,0,0,1,212,32.12c-3.12,1.79-7,2.22-12.13,2.22h-3.45V50.21Zm14.32-26.54c6,0,9-1.52,9-6,0-4-2.57-5.8-7.89-5.8h-3.21V23.62Z" style="fill:#53a346"/><path d="M228.85,7.27a25.43,25.43,0,0,1,35.52,0A24.91,24.91,0,0,1,272,25.18a25.56,25.56,0,0,1-7.16,18.13A25,25,0,0,1,246.7,51a24.36,24.36,0,0,1-18.35-7.75,25.62,25.62,0,0,1-7-18.28A24.63,24.63,0,0,1,228.85,7.27Zm17.9,31.66c7.07,0,12.82-5.68,12.82-13.72a12.88,12.88,0,1,0-25.76,0,13.46,13.46,0,0,0,12.91,13.7Z" style="fill:#53a346"/><path d="M274.36,50.21V1h10.87l18.08,27.36V1h12.05V50.21h-10.6L286.41,22.78V50.21Z" style="fill:#53a346"/><path d="M324.92,6.36a3.67,3.67,0,0,1-5.19,0l0,0a3.57,3.57,0,0,1-1.07-2.62,3.6,3.6,0,0,1,1.07-2.59,3.68,3.68,0,0,1,5.21,0A3.57,3.57,0,0,1,326,3.74,3.62,3.62,0,0,1,324.92,6.36ZM320,1.51a3.07,3.07,0,0,0-.94,2.23A3.1,3.1,0,0,0,320,6a3.16,3.16,0,0,0,4.48,0h0a3.11,3.11,0,0,0,.88-2.26,3.06,3.06,0,0,0-.93-2.23,3.18,3.18,0,0,0-4.49,0v0Zm2.16.19a3,3,0,0,1,1.11.15,1,1,0,0,1,.63,1,.89.89,0,0,1-.4.8,1.38,1.38,0,0,1-.59.2,1,1,0,0,1,.7.39,1.12,1.12,0,0,1,.22.63v.59a.81.81,0,0,0,0,.22h-.67V5.16a1,1,0,0,0-.37-.93A1.78,1.78,0,0,0,322,4.1h-.55V5.7h-.72v-4Zm.77.65a1.8,1.8,0,0,0-.86-.15h-.61V3.67h.65a2,2,0,0,0,.68-.09.62.62,0,0,0,.41-.62.64.64,0,0,0-.23-.61Z" style="fill:#53a346"/></symbol></defs><title>groupon</title><use width="326" height="51.11" transform="translate(26 30) scale(0.41 0.43)" xlink:href="#groupon"/></svg>