<svg id="Layer_1" data-name="Layer 1" xmlns="http://www.w3.org/2000/svg" xmlns:xlink="http://www.w3.org/1999/xlink" viewBox="0 0 186.4 82"><defs><symbol id="handy" data-name="handy" viewBox="0 0 208.97 148.6"><path d="M146.75,43.05l-15.44,3.28V90.86l15.38-3.27c12.86-2.73,21.45-13,21.45-26.79S159.55,40.33,146.75,43.05Zm11.48,19.86c0,8.92-5.35,14-11.9,15.4l-5.53,1.18V53.67l5.53-1.17C152.88,51.11,158.23,54,158.23,62.91ZM95.28,54l-9.43,2v44.53l9.43-2V70.25l18.41,24.36,9.42-2V48.08l-9.42,2V78.35ZM40.83,87.8c0,13.75,8.59,20.47,21.39,17.75l15.45-3.28V57.73L62.28,61C49.42,63.74,40.83,74,40.83,87.8ZM62.64,70.29l5.53-1.18V94.93L62.64,96.1c-6.55,1.39-11.89-1.49-11.9-10.41S56.09,71.68,62.64,70.29ZM199.48,59c0,5.91-3.15,9.53-8.08,10.58s-8.08-1.24-8.08-7.14V35.28l-9.49,2V64.85c0,11.64,7.82,16.12,17.57,14.05a23.41,23.41,0,0,0,8.08-3.37v10h0a13.06,13.06,0,0,1-10.32,13L0,138.68v9.92l191.85-40.78A21.69,21.69,0,0,0,209,86.29V29.82l-9.49,2ZM9.49,89.64c0-5.91,3.15-9.53,8.08-10.58s8.08,1.23,8.08,7.14v27.12l9.49-2V83.74c0-11.63-7.81-16.11-17.57-14a23.49,23.49,0,0,0-8.08,3.37v-10a13.09,13.09,0,0,1,10.33-13L209,9.92V0L17.12,40.78A21.69,21.69,0,0,0,0,62.31v56.46l9.49-2Z" style="fill:#38c3e3"/></symbol></defs><title>handy</title><use width="208.97" height="148.6" transform="translate(50 10) scale(0.41 0.42)" xlink:href="#handy"/></svg>