<?xml version="1.0" encoding="utf-8"?>
<!-- Generator: Adobe Illustrator 24.0.3, SVG Export Plug-In . SVG Version: 6.00 Build 0)  -->
<svg version="1.1" id="Layer_1" xmlns="http://www.w3.org/2000/svg" xmlns:xlink="http://www.w3.org/1999/xlink" x="0px" y="0px"
	 viewBox="0 0 300 300" style="enable-background:new 0 0 300 300;" xml:space="preserve">
<style type="text/css">
	.st0{fill:#38C3E3;}
</style>
<symbol  id="handy" viewBox="-104.5 -74.3 209 148.6">
	<path class="st0" d="M42.3-31.2L26.8-28v44.5l15.4-3.3c12.9-2.7,21.4-13,21.4-26.8S55.1-34,42.3-31.2z M53.7-11.4
		c0,8.9-5.4,14-11.9,15.4l-5.5,1.2v-25.8l5.5-1.2C48.4-23.2,53.7-20.3,53.7-11.4z M-9.2-20.3l-9.4,2v44.5l9.4-2V-4L9.2,20.3l9.4-2
		v-44.5l-9.4,2V4.1L-9.2-20.3z M-63.7,13.5c0,13.8,8.6,20.5,21.4,17.8l15.4-3.3v-44.5l-15.4,3.3C-55.1-10.6-63.7-0.3-63.7,13.5z
		 M-41.9-4l5.5-1.2v25.8l-5.5,1.2c-6.5,1.4-11.9-1.5-11.9-10.4S-48.4-2.6-41.9-4z M95-15.3c0,5.9-3.1,9.5-8.1,10.6s-8.1-1.2-8.1-7.1
		V-39l-9.5,2v27.6c0,11.6,7.8,16.1,17.6,14.1C89.8,4,92.5,2.9,95,1.2v10l0,0c0.1,6.2-4.2,11.7-10.3,13l-189.2,40.1v9.9L87.4,33.5
		c10.1-2.2,17.3-11.2,17.1-21.5v-56.5l-9.5,2L95-15.3z M-95,15.3c0-5.9,3.1-9.5,8.1-10.6s8.1,1.2,8.1,7.1V39l9.5-2V9.4
		c0-11.6-7.8-16.1-17.6-14C-89.8-4-92.6-2.8-95-1.2v-10c-0.1-6.2,4.2-11.7,10.3-13l189.2-40.2v-9.9L-87.4-33.5
		c-10.1,2.2-17.3,11.2-17.1,21.5v56.5l9.5-2V15.3z"/>
</symbol>
<title>handy</title>
<g>
	<defs>
		<rect id="SVGID_1_" x="4.5" y="44.5" width="290.3" height="211.5"/>
	</defs>
	<clipPath id="SVGID_2_">
		<use xlink:href="#SVGID_1_"  style="overflow:visible;"/>
	</clipPath>
	<g style="clip-path:url(#SVGID_2_);">
		
			<use xlink:href="#handy"  width="209" height="148.6" x="-104.5" y="-74.3" transform="matrix(1.3893 0 0 1.4232 149.4469 150.206)" style="overflow:visible;"/>
	</g>
</g>
</svg>
