<?xml version="1.0" encoding="utf-8"?>
<!-- Generator: Adobe Illustrator 24.0.3, SVG Export Plug-In . SVG Version: 6.00 Build 0)  -->
<svg version="1.1" id="Layer_1" xmlns="http://www.w3.org/2000/svg" xmlns:xlink="http://www.w3.org/1999/xlink" x="0px" y="0px"
	 viewBox="0 0 300 300" style="enable-background:new 0 0 300 300;" xml:space="preserve">
<style type="text/css">
	.st0{fill:#142A4F;}
	.st1{fill:#FBED21;}
</style>
<symbol  id="iac" viewBox="-111.9 -39.2 223.8 78.3">
	<g id="IAC-3_1_">
		<path class="st0" d="M-32.3,14.2c-0.3-0.1-0.7-0.1-1-0.1c-7.7,0-15.4,0-23.1,0c-1,0-1,0-1.4,0.9c-2.5,6.7-4.9,13.3-7.3,20
			c-0.1,0.2-0.1,0.5-0.2,0.9c0.4,0,0.8,0.1,1.1,0.1h7.5c0.4,0,0.7,0,1.1,0v1.9h-21V36c0.3,0,0.7-0.1,1-0.1h6.9c1.1,0,1.1,0,1.4-1
			l7.3-20l19.5-53.4c0.1-0.2,0.2-0.4,0.3-0.6h1.5L-18.8,12c-2.4,0.1-4.7,0-7,0h-6.8L-32.3,14.2L-32.3,14.2z M-56.7,11.8
			c1.1,0.3,22.9,0.3,23.7,0c0-0.2-0.1-0.4-0.1-0.6C-36.9,0.6-40.7-10-44.6-20.6c-5.8-15.9,0,0-0.1,0s-0.1,0-0.2,0L-56.7,11.8z"/>
		<path class="st0" d="M4.6,11.9c-0.4,0-0.7,0.1-1,0.1h-9.5c-1,0-1,0-1.2-1C-9.4,1.4-8.5-8.6-4.8-17.7C-2.4-23.8,1.6-29.1,6.8-33
			c4.3-3.3,9.5-5.3,14.9-5.8c4.1-0.4,8.3,0.1,12.2,1.4c2.3,0.8,4.6,1.3,7,1.6c1.3,0.2,2.6-0.1,3.7-0.8c0.8-0.5,1.3-1.3,1.7-2.1h1.9
			c0.1,0.2,0.1,0.5,0.1,0.7c0,7.3,0,14.7,0,22c0,0.2,0,0.4-0.1,0.6c-0.6,0.2-1.3,0.3-1.9,0.1c-0.1-0.8-0.1-1.6-0.2-2.4
			c-1.2-12.8-12.3-19.4-21.7-19.2c-2,0-4,0.3-5.9,0.8c-4.3,1.2-7.9,4.3-9.7,8.4C7-24,5.9-20,5.3-16C3.9-7,3.7,2.1,4.6,11.2
			C4.6,11.4,4.6,11.6,4.6,11.9z"/>
		<path class="st0" d="M-111.9-35.2v-2h31v1.9c-3.2,0.2-6.3,0-9.6,0.1c-0.1,1.8,0,3.5,0,5.3s0,3.5,0,5.2v36.5
			c-3.9,0.3-7.8,0.3-11.7,0.1c0-0.4-0.1-0.8-0.1-1.2c0-9.3,0-18.6,0-27.9v-17.8c-1.1-0.1-2.1-0.1-3.2-0.1c-1.1,0-2.2,0-3.2,0
			L-111.9-35.2z"/>
		<path class="st0" d="M111.9-33.6c-0.1,0.2-0.2,0.5-0.4,0.7c-3.3,5.5-6.7,11-10,16.4c-0.4,0.6-1,1.1-1.7,1.3
			c-3.9,1.2-7.9,2.5-11.8,3.7c-0.7,0.2-1.3,0.7-1.5,1.4C80.9,5.1,75.3,20.2,69.7,35.3c-0.2,0.6-0.5,1.1-0.9,1.6
			c0-0.2-0.1-0.4-0.1-0.6c0-10.8,0-21.5,0-32.3c0-0.6,0.3-1.1,0.7-1.5c6.9-5.9,13.8-11.9,20.7-17.8L111-33l0.8-0.6L111.9-33.6z"/>
		<path class="st0" d="M-32.3,14.2c0.4,0,0.8-0.1,1.2-0.1H-19c1,0,1,0,1.4,1c2.6,6.5,5.1,12.9,7.6,19.4l0.2,0.5c0.4,1,0.4,1,1.4,1
			h5.8v1.9C-3.3,38-33,38-34,37.8v-1.9h9.8c-0.1-0.3-0.1-0.6-0.2-0.9c-2.5-6.8-5-13.5-7.5-20.2C-32,14.5-32.2,14.3-32.3,14.2
			L-32.3,14.2z"/>
		<path class="st0" d="M-6.3,14.1H4.8c0.2,0.8,0.3,1.6,0.4,2.4c0.6,4,1.7,8,3.4,11.7c1.4,3.3,3.9,6,7.1,7.6c2.2,1,4.6,1.6,7,1.7
			c4.4,0.4,8.8-0.4,12.8-2.2c6.6-3.2,10.5-8.6,12.1-15.7c0.3-1.6,0.5-3.2,0.6-4.8c0-0.3,0.1-0.5,0.1-0.9h1.9v25.2h-2
			c-1.3-2.4-4.1-3.6-6.8-2.9c-1,0.2-2,0.6-3,0.9c-2.3,0.6-4.6,1.3-6.9,1.9c-0.5,0.1-1.1,0.2-1.6,0.2c-2.9,0-5.8,0-8.7,0
			c-1.8,0-3.5-0.3-5.2-0.8c-6-1.9-11.3-5.5-15.2-10.5c-3.1-3.8-5.4-8.1-6.9-12.8C-6.1,14.8-6.2,14.5-6.3,14.1z"/>
		<path class="st0" d="M-102.3,14.1h11.8c0,2.4,0,4.8,0,7.2v14.5c1,0.1,2.1,0.2,3.2,0.1c1.1,0,2.2,0,3.2,0h3.2v1.9c0,0,0,0.1,0,0.1
			c0,0,0,0.1-0.1,0.1c-0.2,0-0.4,0.1-0.6,0.1h-29.9c-0.1,0-0.3-0.1-0.4-0.1V36c3.2-0.2,6.3,0,9.6-0.1c0-0.5,0.1-0.9,0.1-1.3
			L-102.3,14.1L-102.3,14.1z"/>
		<path class="st1" d="M101.1-15.5L69.2,37.1h-0.1c0.4-1.2,0.9-2.4,1.3-3.6l3.4-9.3c1-2.7,2-5.3,3-7.9c1.1-3,2.2-6,3.4-9l3.4-9.2
			c1.1-2.8,2.1-5.6,3.1-8.5c0.1-0.5,0.5-0.8,1-1c3.5-1.1,6.9-2.2,10.4-3.2c0.8-0.2,1.5-0.5,2.3-0.8
			C100.5-15.4,100.7-15.4,101.1-15.5z"/>
		<path class="st1" d="M-59,12c-0.3,0.7-0.5,1.3-0.7,1.9c0,0.1-0.2,0.2-0.3,0.2c-0.1,0-0.3,0-0.5,0h-41.1c-0.7,0-0.7,0-0.7-0.7
			c0-1.5,0-1.5,1.4-1.5h10h31.1L-59,12z"/>
		<path class="st1" d="M-32.8,12h13.9h11.2H4.2c0.4,0,0.6,0.1,0.6,0.5c0,0.4,0.1,0.8,0.2,1.2C5,14,4.9,14.1,4.6,14.1h-21.8
			c-4.8,0-9.6,0-14.4,0c-0.5,0-0.7-0.2-0.8-0.6S-32.6,12.5-32.8,12z"/>
	</g>
</symbol>
<title>IAC</title>
<use xlink:href="#iac"  width="223.8" height="78.3" x="-111.9" y="-39.2" transform="matrix(1.3056 0 0 1.3056 149.6852 150.0126)" style="overflow:visible;"/>
</svg>
