<svg id="322c6aef-ed30-4b6a-89a0-1c31b6cc9c08" data-name="Layer 1" xmlns="http://www.w3.org/2000/svg" xmlns:xlink="http://www.w3.org/1999/xlink" viewBox="0 0 186.4 82"><defs><symbol id="325afe1e-ca70-4ab9-9740-53c26eab083a" data-name="iac" viewBox="0 0 223.83 78.33"><g id="84b79d84-adb2-48a8-9cc1-cc92ffd84f97" data-name="IAC"><path d="M79.58,53.31a8.53,8.53,0,0,0-1-.11H55.51c-1,0-1,0-1.38.93l-7.33,20c-.09.25-.14.5-.25.89.43,0,.78.07,1.13.07h7.49c.36,0,.72,0,1.13.05V77H35.24v-1.9c.34,0,.69-.06,1-.06h6.89c1.09,0,1.09,0,1.45-1l7.26-20L71.3.63c.07-.19.15-.37.26-.63h1.49L93.14,51.11c-2.45.08-4.73,0-7,0H79.32l.25,2.17ZM55.26,50.92c1.08.3,22.91.29,23.75,0a4.8,4.8,0,0,0-.13-.56L67.32,18.51s-.05,0-.08,0l-.2,0Z" fill="#142a4f"/><path d="M116.48,51.06c-.39,0-.69.08-1,.08H106c-1,0-1,0-1.25-1a47.35,47.35,0,0,1,2.39-28.68A35.79,35.79,0,0,1,118.75,6.14,30,30,0,0,1,133.64.29,29.34,29.34,0,0,1,145.81,1.7a35.6,35.6,0,0,0,7,1.62,5.34,5.34,0,0,0,3.68-.78A4.73,4.73,0,0,0,158.18.41h1.9a4.52,4.52,0,0,1,.12.74q0,11,0,22c0,.2,0,.4-.06.63a3.05,3.05,0,0,1-1.93.07c-.07-.81-.15-1.61-.22-2.4C156.76,8.61,145.63,2,136.27,2.21a24.26,24.26,0,0,0-5.91.76,14.94,14.94,0,0,0-9.68,8.42,42,42,0,0,0-3.5,11.79,110.08,110.08,0,0,0-.7,27.15C116.5,50.53,116.48,50.73,116.48,51.06Z" fill="#142a4f"/><path d="M0,3.93v-2H31.05V3.87c-3.16.15-6.32,0-9.62.11-.06,1.81,0,3.55,0,5.29s0,3.44,0,5.16V19.7q0,2.58,0,5.16V50.93A87.87,87.87,0,0,1,9.71,51c0-.39-.07-.81-.07-1.24q0-14,0-27.95,0-8.25,0-16.51V4a23.45,23.45,0,0,0-3.19-.09c-1.08,0-2.16,0-3.24,0Z" fill="#142a4f"/><path d="M223.83,5.58c-.12.23-.24.46-.37.68-3.33,5.48-6.66,11-10,16.45A2.77,2.77,0,0,1,211.8,24c-3.93,1.21-7.85,2.48-11.78,3.69a2.1,2.1,0,0,0-1.51,1.42q-8.41,22.68-16.87,45.35a6.4,6.4,0,0,1-.84,1.63,4.43,4.43,0,0,1-.09-.65q0-16.15,0-32.3a1.74,1.74,0,0,1,.72-1.45q10.38-8.88,20.74-17.8l20.74-17.8.78-.64Z" fill="#142a4f"/><path d="M79.57,53.32a10.93,10.93,0,0,1,1.2-.13H92.92c1,0,1,0,1.44,1L102,73.62l.18.47c.38,1,.38,1,1.38,1h5.84v1.85c-.78.23-30.47.26-31.47,0V75.05h9.75a8.89,8.89,0,0,0-.21-.9Q83.74,64,80,53.92a2.73,2.73,0,0,0-.43-.61Z" fill="#142a4f"/><path d="M105.64,53.25h11.11c.14.84.28,1.62.41,2.41a43.05,43.05,0,0,0,3.44,11.71,15.35,15.35,0,0,0,7.13,7.6,18.46,18.46,0,0,0,7,1.72,25.49,25.49,0,0,0,12.82-2.24c6.65-3.2,10.53-8.57,12.07-15.69.34-1.57.41-3.21.61-4.81,0-.27,0-.53.08-.89h1.93V78.24h-2a5.87,5.87,0,0,0-6.8-2.88c-1,.23-2,.58-3,.86-2.3.65-4.61,1.3-6.92,1.92a6.43,6.43,0,0,1-1.6.17c-2.9,0-5.81,0-8.71,0A16.27,16.27,0,0,1,128,77.5,31.34,31.34,0,0,1,112.77,67a39.62,39.62,0,0,1-6.88-12.76C105.8,54,105.75,53.69,105.64,53.25Z" fill="#142a4f"/><path d="M9.64,53.27H21.39c0,2.44,0,4.83,0,7.21s0,4.79,0,7.19v7.27a15.92,15.92,0,0,0,3.17.12c1.08,0,2.16,0,3.24,0H31v1.86l0,0s0,.06-.08.06a4.7,4.7,0,0,1-.6.06H.35A1.51,1.51,0,0,1,0,77V75.11c3.16-.15,6.32,0,9.56-.11,0-.5.07-.93.07-1.35q0-9.56,0-19.13Z" fill="#142a4f"/><path d="M213,23.67,181.07,76.3l-.09,0c.44-1.21.88-2.41,1.33-3.62Q184,68,185.75,63.38c1-2.65,2-5.29,3-7.93q1.68-4.51,3.35-9l3.42-9.17c1-2.82,2.1-5.64,3.13-8.46a1.36,1.36,0,0,1,1-1c3.46-1.06,6.9-2.16,10.34-3.25l2.3-.75C212.44,23.78,212.63,23.75,213,23.67Z" fill="#fbed21"/><path d="M52.92,51.12c-.26.72-.48,1.33-.72,1.94a.48.48,0,0,1-.32.2,2,2,0,0,1-.45,0H10.29c-.67,0-.67,0-.67-.66,0-1.45,0-1.45,1.45-1.45h10l31.07,0Z" fill="#fbed21"/><path d="M79.14,51.14H93l11.19,0,11.9,0c.37,0,.56.08.57.49a7.2,7.2,0,0,0,.17,1.25c.06.29-.06.37-.3.38H94.74c-4.79,0-9.59,0-14.38,0-.49,0-.69-.16-.78-.62S79.31,51.69,79.14,51.14Z" fill="#fbed21"/></g></symbol></defs><title>IAC</title><use width="223.83" height="78.33" transform="translate(47 25) scale(0.41 0.41)" xlink:href="#325afe1e-ca70-4ab9-9740-53c26eab083a"/></svg>