<?xml version="1.0" encoding="utf-8"?>
<!-- Generator: Adobe Illustrator 24.0.3, SVG Export Plug-In . SVG Version: 6.00 Build 0)  -->
<svg version="1.1" id="Layer_1" xmlns="http://www.w3.org/2000/svg" xmlns:xlink="http://www.w3.org/1999/xlink" x="0px" y="0px"
	 viewBox="0 0 288 288" style="enable-background:new 0 0 288 288;" xml:space="preserve">
<style type="text/css">
	.st0{fill-rule:evenodd;clip-rule:evenodd;fill:#2164F3;}
</style>
<path class="st0" d="M139.1,254.7V153.3c2.9,0.3,5.7,0.4,8.5,0.4c13.3,0,26.3-3.5,37.8-10.3v111.4c0,9.6-2.2,16.5-6.5,21.2
	c-4.3,4.7-10.5,7.3-16.8,7c-6.3,0.2-12.3-2.5-16.5-7.2c-4.3-4.7-6.4-11.7-6.4-21.1"/>
<path class="st0" d="M139.4,11.6c28.7-10.3,61.3-9.8,85.9,11.4c4.6,4.3,9.8,9.6,11.8,16c2.5,8-8.7-0.8-10.2-1.9
	c-7.7-5.3-16.1-9.5-24.9-12.7c-48.3-14.9-93.9,12-122.3,53.8C67.8,96.6,60.1,116,53.8,137.4c-0.5,2.6-1.4,5.1-2.5,7.4
	c-1.2,2.3-0.5-6.4-0.5-6.6c1-8.7,2.7-17.4,5-25.9C68.8,66.8,97.7,28.9,139.4,11.6"/>
<path class="st0" d="M176.7,124.5c-17.2,8.7-38.2,1.9-47-15.3s-1.9-38.2,15.3-47c17.2-8.7,38.2-1.9,47,15.3
	c8.8,17.1,2,38.1-15.1,46.9C176.9,124.4,176.8,124.4,176.7,124.5"/>
</svg>
