<?xml version="1.0" encoding="utf-8"?>
<!-- Generator: Adobe Illustrator 24.0.3, SVG Export Plug-In . SVG Version: 6.00 Build 0)  -->
<svg version="1.1" id="Layer_1" xmlns="http://www.w3.org/2000/svg" xmlns:xlink="http://www.w3.org/1999/xlink" x="0px" y="0px"
	 viewBox="0 0 300 300" style="enable-background:new 0 0 300 300;" xml:space="preserve">
<style type="text/css">
	.st0{fill:#3F60AB;}
</style>
<symbol  id="intuit" viewBox="-132.6 -38.4 265.2 76.8">
	<g id="intuit-3_1_">
		<path class="st0" d="M35.3,32.2l-2,1.3c-5.9,3.8-12.2,5.8-19.2,4.5S2.8,32.5,1.5,25.4c-0.3-1.8-0.5-3.7-0.5-5.5
			c0-10.5,0-21.1,0-31.6c0-3,0.6-3.6,3.6-3.7c1.7,0,3.4,0,5.2,0c3,0,3.7,0.7,3.7,3.7c0,10.2,0,20.4,0,30.6c0,5.3,2.4,8.1,7.6,8.6
			c1.4,0.2,2.9,0,4.2-0.5c2.7-1,5.2-2.3,7.8-3.6c1.5-0.7,2-2,2-3.7c-0.1-10.5,0-21.1,0-31.7c0-2.8,0.6-3.4,3.4-3.5c2,0,4-0.1,6,0
			c2.3,0.1,3.1,0.9,3.1,3.2c0,15.3,0,30.6,0,45.9c0,2.8-0.7,3.4-3.4,3.4c-1.6,0-3.2-0.1-4.7,0c-2.2,0.1-3.6-0.5-3.7-3
			C35.6,33.4,35.5,32.8,35.3,32.2z"/>
		<path class="st0" d="M-93.6-10.4c0.8-0.5,1.3-0.7,1.8-1.1c4.3-3.1,9.3-4.9,14.6-5.1c9.2-0.4,16.9,3.3,17.7,14.5
			c0.8,9.7,0.4,19.5,0.5,29.2c0,2.4,0,4.7,0,7.1s-0.8,2.9-3,2.9c-2,0-4,0-6,0c-2.8,0-3.4-0.7-3.4-3.4c0-10,0-20,0-29.9
			c0-1.2-0.2-2.4-0.4-3.6C-72.8-4.6-76-6-80.2-5.8c-4.1,0.2-8.1,1.7-11.4,4.2c-1.2,0.7-1.8,2-1.7,3.4c0.1,10.6,0,21.2,0,31.9
			c0,3-0.4,3.4-3.5,3.4h-5.3c-3,0-3.6-0.7-3.6-3.7c0-14.2,0-28.4,0-42.7c0-1,0-2,0-3c-0.1-2.1,1-3,3-3.1s3.7,0,5.6,0
			c1.9,0,3.3,0.6,3.2,3C-93.9-11.8-93.8-11.1-93.6-10.4z"/>
		<path class="st0" d="M-30-15.5c6,0,11.9,0,17.9,0c2.7,0,3.2,0.5,3.2,3.3c0,1.5,0,3,0,4.5c0,2.6-0.7,3.3-3.3,3.4
			c-3.1,0.1-6.2,0.2-9.3,0C-23.5-4.4-24-3.6-24-1.7c0.1,11.7,0,23.4,0,35.1c0,3.3-0.4,3.7-3.7,3.7H-33c-2.8,0-3.4-0.6-3.4-3.4
			c0-11.8-0.1-23.5,0-35.3c0-2.2-0.6-2.8-2.8-2.7c-2.9,0.2-5.9,0.1-8.8,0c-2.7,0-3.2-0.6-3.2-3.1c0-1.7,0-3.4,0-5.2
			c0-2.5,0.4-2.9,2.9-2.9C-42.2-15.5-36.1-15.5-30-15.5z"/>
		<path class="st0" d="M105.7-15.5c6,0,11.9,0,17.9,0c2.8,0,3.2,0.4,3.2,3.2c0,1.5,0,3,0,4.5c0,2.6-0.6,3.4-3.3,3.4
			c-3.1,0.1-6.2,0.1-9.2,0c-2-0.1-2.6,0.6-2.6,2.6c0.1,11.8,0,23.5,0,35.3c0,3.2-0.3,3.6-3.6,3.6c-1.9,0-3.7,0-5.6,0
			c-2.6,0-3.3-0.8-3.3-3.3c0-9,0-17.9,0-26.9c0-2.9-0.1-5.9,0-8.8c0.1-1.7-0.4-2.4-2.3-2.3c-2.9,0.1-5.9,0-8.8,0
			c-3.2,0-3.6-0.4-3.6-3.5c0-1.5,0-3,0-4.5c0-2.8,0.3-3.1,3.1-3.1C93.7-15.5,99.7-15.5,105.7-15.5z"/>
		<path class="st0" d="M74.3,10.9c0,7.7,0,15.3,0,23c0,2.7-0.4,3.2-3.1,3.2c-2,0-4,0-6,0c-2.7,0-3.4-0.8-3.4-3.5
			c0-8.8,0-17.6,0-26.4c0-6.4,0-12.8,0-19.1c0-2.8,0.7-3.5,3.4-3.5c2.1,0,4.2,0,6.2,0c2.4,0,2.9,0.5,2.9,2.9
			C74.3-4.7,74.3,3.1,74.3,10.9z"/>
		<path class="st0" d="M-132.6,10.7c0-7.6,0-15.2,0-22.8c0-2.9,0.4-3.3,3.2-3.3c2.2,0,4.3,0,6.5,0c1.4-0.2,2.7,0.8,2.9,2.2
			c0,0.2,0,0.5,0,0.7c0,15.4,0,30.9,0,46.3c0,2.6-0.8,3.3-3.4,3.3c-2,0-4,0-6,0c-2.7-0.1-3.2-0.5-3.2-3.2
			C-132.6,26.1-132.6,18.4-132.6,10.7z"/>
		<path class="st0" d="M-30.3-23.2c-4,0.1-7.4-3.1-7.5-7.1c0-0.1,0-0.2,0-0.3c-0.1-4.2,3.2-7.6,7.4-7.7c4.2-0.1,7.6,3.2,7.7,7.4
			c0,0.2,0,0.3,0,0.5c0,4-3.2,7.3-7.2,7.3C-30-23.2-30.1-23.2-30.3-23.2z"/>
		<path class="st0" d="M105.6-23.2c-4.2,0.1-7.6-3.2-7.7-7.4c0-0.1,0-0.1,0-0.2c0.2-4.1,3.5-7.4,7.6-7.6c4.2,0,7.6,3.5,7.5,7.7
			c0,0,0,0,0,0.1c0.1,4-3,7.3-7,7.4C106-23.2,105.8-23.2,105.6-23.2z"/>
		<path class="st0" d="M128.7,37.7c-2.2,0-3.9-1.7-3.9-3.9s1.7-3.9,3.9-3.9c2.2,0,3.9,1.7,3.9,3.9c0,0,0,0,0,0
			C132.6,35.9,130.9,37.7,128.7,37.7z M128.7,30.4c-1.9-0.1-3.5,1.3-3.6,3.2c-0.1,1.9,1.3,3.5,3.2,3.6c0.1,0,0.2,0,0.4,0
			c1.9-0.1,3.3-1.7,3.2-3.6C131.8,31.9,130.4,30.5,128.7,30.4z"/>
		<path class="st0" d="M130,33.9c0.5,0.2,0.5,0.6,0.5,1c0,0.2,0,0.4,0,0.6c0,0.1,0.1,0.2,0.1,0.3l0,0.1c0,0-0.1,0-0.1,0h-0.8
			c-0.1,0-0.1,0-0.1-0.1c0,0,0,0,0,0c0-0.3,0-0.6-0.1-0.8c0-0.1,0-0.2,0-0.2c-0.1-0.4-0.1-0.5-0.5-0.5s-0.7,0-1.1,0v1.7h-0.9v-4.3
			h2.1c0.2,0,0.3,0,0.5,0c0.7,0.1,1.1,0.8,0.9,1.4c0,0.2-0.1,0.3-0.2,0.4C130.3,33.6,130.2,33.8,130,33.9z M128,33.5
			c0.4,0,0.9,0,1.3,0c0.2,0,0.4-0.2,0.4-0.5c0,0,0,0,0,0c0-0.3-0.1-0.6-0.4-0.6c-0.4,0-0.9,0-1.3,0V33.5z"/>
	</g>
</symbol>
<title>intuit</title>
<g>
	<defs>
		<rect id="SVGID_1_" x="3.5" y="109.2" width="291.3" height="82.2"/>
	</defs>
	<clipPath id="SVGID_2_">
		<use xlink:href="#SVGID_1_"  style="overflow:visible;"/>
	</clipPath>
	<g style="clip-path:url(#SVGID_2_);">
		
			<use xlink:href="#intuit"  width="265.2" height="76.8" x="-132.6" y="-38.4" transform="matrix(1.0982 0 0 1.0715 149.1736 150.2096)" style="overflow:visible;"/>
	</g>
</g>
</svg>
