<svg id="4d2bf2d8-6878-4c12-ac86-fe3ec76763f0" data-name="Layer 1" xmlns="http://www.w3.org/2000/svg" viewBox="0 0 186.4 82"><title>linkedin</title><path d="M152.36,50.21a.53.53,0,0,0,.53-.56c0-.4-.24-.59-.73-.59h-.78v2.09h.29v-.91H152l.57.9h.31l-.61-.93ZM152,50h-.34v-.71h.44c.23,0,.48,0,.48.34S152.33,50,152,50Z" fill="#231f20"/><path d="M152,48.13a2,2,0,1,0,2,2A1.94,1.94,0,0,0,152,48.13Zm0,3.69a1.72,1.72,0,1,1,1.66-1.72A1.67,1.67,0,0,1,152,51.82Z" fill="#231f20"/><polygon points="32 30.44 36.57 30.44 36.57 47.29 45.02 47.29 45.02 51.56 32 51.56 32 30.44" fill="#231f20"/><path d="M47,37.24h4.39V51.56H47Zm2.2-7.12a2.58,2.58,0,1,1-2.55,2.58,2.56,2.56,0,0,1,2.55-2.58" fill="#231f20"/><polygon points="69.78 30.44 74.17 30.44 74.17 43.06 79.14 37.23 84.52 37.23 78.76 43.86 84.4 51.56 78.88 51.56 74.22 44.48 74.17 44.48 74.17 51.56 69.78 51.56 69.78 30.44" fill="#231f20"/><path d="M53.86,37.24h4.21v2h.06a4.6,4.6,0,0,1,4.16-2.31c4.45,0,5.27,3,5.27,6.82v7.85H63.16v-7c0-1.66,0-3.79-2.28-3.79s-2.63,1.81-2.63,3.68v7.08H53.86Z" fill="#231f20"/><path d="M93.76,42.74A2.65,2.65,0,0,0,91.06,40,2.94,2.94,0,0,0,88,42.74Zm3.72,6.34a7.69,7.69,0,0,1-6,2.85c-4.39,0-7.9-3-7.9-7.56s3.51-7.56,7.9-7.56c4.1,0,6.67,3,6.67,7.56v1.39H88a3.29,3.29,0,0,0,3.31,2.79A3.73,3.73,0,0,0,94.4,46.8Z" fill="#231f20"/><path d="M107.29,40.7a3.35,3.35,0,0,0-3.51,3.65,3.51,3.51,0,1,0,7,0,3.35,3.35,0,0,0-3.51-3.65m7.55,10.85h-4v-1.9h-.06a5.5,5.5,0,0,1-4.36,2.25c-4.22,0-7-3.08-7-7.44,0-4,2.46-7.68,6.5-7.68a5.27,5.27,0,0,1,4.51,1.9h.06V30.44h4.39Z" fill="#231f20"/><path d="M146.65,26H121.42a2.17,2.17,0,0,0-2.18,2.16V53.84A2.18,2.18,0,0,0,121.42,56h25.23a2.18,2.18,0,0,0,2.19-2.16V28.16A2.18,2.18,0,0,0,146.65,26Z" fill="#027bb6"/><path d="M123.62,37.25H128V51.56h-4.4Zm2.2-7.12a2.58,2.58,0,1,1-2.55,2.58,2.56,2.56,0,0,1,2.55-2.58" fill="#fff"/><path d="M130.77,37.25H135v2H135a4.6,4.6,0,0,1,4.16-2.31c4.45,0,5.27,3,5.27,6.82v7.85h-4.39v-7c0-1.66,0-3.8-2.28-3.8s-2.63,1.81-2.63,3.68v7.08h-4.39Z" fill="#fff"/></svg>