<?xml version="1.0" encoding="utf-8"?>
<!-- Generator: Adobe Illustrator 24.0.3, SVG Export Plug-In . SVG Version: 6.00 Build 0)  -->
<svg version="1.1" id="Layer_1" xmlns="http://www.w3.org/2000/svg" xmlns:xlink="http://www.w3.org/1999/xlink" x="0px" y="0px"
	 viewBox="0 0 288 288" style="enable-background:new 0 0 288 288;" xml:space="preserve">
<style type="text/css">
	.st0{fill:#0A66C2;}
	.st1{fill:#FFFFFF;}
</style>
<path class="st0" d="M265.1,0H22.9C11.3,0,1.9,9.2,1.9,20.8v246.4c0.1,11.5,9.4,20.8,21,20.8h242.2c11.5,0.1,20.9-9.2,21-20.8V20.8
	C286,9.2,276.6-0.1,265.1,0z"/>
<path class="st1" d="M44,108h42.2v137.4H44V108z M65.1,39.7c13.7-0.2,24.9,10.8,25,24.5S79.4,89,65.7,89.1s-24.9-10.8-25-24.5
	c0-0.1,0-0.2,0-0.3C40.6,50.8,51.5,39.7,65.1,39.7"/>
<path class="st1" d="M112.6,108h40.4v18.8h0.6c5.6-10.8,19.4-22.2,39.9-22.2c42.7,0,50.6,28.5,50.6,65.5v75.4h-42.1v-66.9
	c0-15.9-0.3-36.4-21.9-36.4c-21.9,0-25.3,17.4-25.3,35.3v68h-42.1V108z"/>
</svg>
