<?xml version="1.0" encoding="utf-8"?>
<!-- Generator: Adobe Illustrator 24.0.3, SVG Export Plug-In . SVG Version: 6.00 Build 0)  -->
<svg version="1.1" id="Layer_1" xmlns="http://www.w3.org/2000/svg" xmlns:xlink="http://www.w3.org/1999/xlink" x="0px" y="0px"
	 viewBox="0 0 300 300" style="enable-background:new 0 0 300 300;" xml:space="preserve">
<style type="text/css">
	.st0{fill:#EC196F;}
</style>
<symbol  id="lyft" viewBox="-88.6 -64.5 177.1 129">
	<path class="st0" d="M-35.7,64.4c-1.2-0.1-2.3-0.2-3.5-0.4c-5-0.7-9.8-2.3-14.2-4.7c-1.2-0.7-2.4-1.4-3.6-2c-0.4-0.2-0.6-0.6-0.6-1
		c0-6.9,0-13.7,0-20.6c0-0.2,0-0.4,0.1-0.7l1.5,0.8c4.4,2.5,9.2,4.3,14.2,5.3c5.7,1,10.8-0.5,14.8-4.9c1.8-2,4.1-6.6,4.3-8.9
		c-0.3,0.1-0.6,0.2-0.8,0.4c-3.1,1.8-6.5,2.9-10.1,3.3c-5.9,0.5-11.2-0.8-15.8-4.8c-4.5-4-7.3-9.5-7.8-15.4c-0.2-1.7-0.3-3.3-0.3-5
		c0-13.8,0-27.6,0-41.5c0-1.1,0-1.1,1-1.1H-32c1.1,0,1.1,0,1.1,1.1c0,11.3,0,22.6,0,33.8c0,1.5,0.1,2.9,0.3,4.4
		c0.3,2,2.1,3.5,4.2,3.2c0.5-0.1,1-0.3,1.5-0.5c0.6-0.4,1.1-0.9,1.3-1.6c0.3-1.1,0.5-2.2,0.5-3.3c0.1-6.9,0-13.9,0-20.8
		c0-5.1,0-10.1,0-15.2c0-1,0-1,1-1c8.3,0,16.6,0,24.8,0c0.6,0,0.9,0.1,0.9,0.8c0,20.6,0,41.1-0.1,61.7c0,6.4-1.4,12.7-4.2,18.4
		c-1.8,3.6-4.2,6.8-7.1,9.5c-5,5.1-11.4,8.6-18.4,10c-1.7,0.3-3.4,0.4-5.1,0.7c-0.2,0-0.4,0.1-0.6,0.1L-35.7,64.4z"/>
	<path class="st0" d="M-88.6-62.6h25.7c0.9,0,1,0,1,1v58.1c0,4.7-0.1,9.3,0,14c0,4.7,1.3,9.2,3.7,13.3c1.1,1.9,2.6,3.6,4.2,5
		l1.1,0.9c-1.1,0.6-2,1.1-3,1.6c-3.1,1.5-6.4,2.4-9.8,2.7c-5.1,0.4-10.2-1.3-14.1-4.5c-5.2-4.3-7.8-9.9-8.5-16.5
		c-0.1-0.7-0.2-1.4-0.3-2.2V-62.6z"/>
	<path class="st0" d="M7.8,0c0-10-0.1-20.1,0-30.1c0-7,1.9-13.9,5.5-20c3.6-6.2,9.6-10.8,16.5-12.6c7.9-2.3,16.3-2.4,24.3-0.4
		c11.4,3,18.6,10.3,21.8,21.6c0.3,1.2,0.6,2.4,0.8,3.6c0.2,1-0.1,1.1,1.3,1.1c2.3,0,4.5,0,6.8,0c0.6,0,0.9,0.2,0.9,0.9
		c0,8.6,0,17.2,0,25.8c0,0.6-0.2,0.8-0.8,0.8c-2.5,0-5,0-7.6,0c-0.9,0-1,0-0.9,0.9c0.1,2.1,0.4,4.2,0.8,6.3c1,4.6,3.5,6.7,8.2,7.1
		c0.8,0.1,1.6,0.1,2.4,0.1c0.6,0,0.7,0.2,0.7,0.7c0,0.7,0,1.4,0,2.2c0,7.8,0,15.5,0,23.2c0,1.1,0,1.1-1.1,1.1
		C81,32.7,74.7,31.2,69,28.2C60.4,23.6,54.6,16.6,52.3,7c-1-4.2-1.5-8.5-1.5-12.8c0-8.9,0-17.8,0-26.6c0.1-1.6-0.9-3.2-2.4-3.8
		c-4.1-2.1-11.2-1.5-13.8,5.1c-0.7,1.9-1.1,3.9-1.1,5.9c0,1,0,2,0,3c0,0.9,0,0.9,0.9,0.9h10c1.9,0,1.7-0.2,1.7,1.7
		c0,7.7,0,15.3,0,23c0,1,0,1-1,1H34.5c-0.9,0-0.9,0-0.9,0.9c0,2.7,0,5.4-0.1,8c-0.3,6.8-3.7,11.8-9.7,15.1c-3.9,2-8.2,3.1-12.6,3.3
		c-0.9,0.1-1.8,0.1-2.6,0.1c-0.6,0-0.8-0.2-0.8-0.8c0-3.7,0-7.3,0-10.9v-20L7.8,0z"/>
</symbol>
<title>lyft</title>
<g>
	<defs>
		<rect id="SVGID_1_" x="2.6" y="42.6" width="295" height="214.7"/>
	</defs>
	<clipPath id="SVGID_2_">
		<use xlink:href="#SVGID_1_"  style="overflow:visible;"/>
	</clipPath>
	<g style="clip-path:url(#SVGID_2_);">
		
			<use xlink:href="#lyft"  width="177.1" height="129" x="-88.6" y="-64.5" transform="matrix(1.6652 0 0 1.6652 150.1149 149.053)" style="overflow:visible;"/>
	</g>
</g>
</svg>
