<svg id="Layer_1" data-name="Layer 1" xmlns="http://www.w3.org/2000/svg" xmlns:xlink="http://www.w3.org/1999/xlink" viewBox="0 0 186.4 82"><defs><symbol id="matchgroup" data-name="matchgroup" viewBox="0 0 359.68 73.12"><path d="M328,30.6a15.95,15.95,0,0,1,15-10.1,16.92,16.92,0,0,1,6.78,1.34,15.71,15.71,0,0,1,5.29,3.71,16.25,16.25,0,0,1,3.41,5.63,20.54,20.54,0,0,1,1.2,7.12,19.62,19.62,0,0,1-1.23,7A17.09,17.09,0,0,1,355,50.91a15.66,15.66,0,0,1-5.29,3.71A16.55,16.55,0,0,1,343,56a16.8,16.8,0,0,1-4.68-.66,15.78,15.78,0,0,1-4.24-1.92,16.39,16.39,0,0,1-3.55-3.13A14.49,14.49,0,0,1,328,45.94h-.22V72.39H326.1V21.51h1.66V30.6H328m30.09,7.7A18.68,18.68,0,0,0,357,32.05a16.12,16.12,0,0,0-3-5.23,14.76,14.76,0,0,0-4.75-3.6A14.35,14.35,0,0,0,343,21.88a14.13,14.13,0,0,0-6.13,1.31,15.11,15.11,0,0,0-4.82,3.52,16.44,16.44,0,0,0-3.19,5.2,17.82,17.82,0,0,0,0,12.65,16.5,16.5,0,0,0,3.19,5.19,15.3,15.3,0,0,0,4.82,3.53A14.28,14.28,0,0,0,343,54.59a14.34,14.34,0,0,0,11-4.84,15.73,15.73,0,0,0,3-5.19A18.74,18.74,0,0,0,358.08,38.3Z" style="fill:#158bcc"/><path d="M314.13,50.33A13,13,0,0,1,311,53.42a13.83,13.83,0,0,1-8,2.55,12.35,12.35,0,0,1-5.82-1.24,10,10,0,0,1-3.7-3.27,13.24,13.24,0,0,1-2-4.58,22.94,22.94,0,0,1-.59-5.16V21.51h1.6V41.57A23.52,23.52,0,0,0,293,46a11.81,11.81,0,0,0,1.63,4.18,10.17,10.17,0,0,0,3.2,3.16,9.54,9.54,0,0,0,5.2,1.28,12.29,12.29,0,0,0,5.2-1.13,12.13,12.13,0,0,0,4.21-3.24,16.08,16.08,0,0,0,2.84-5.12,20.83,20.83,0,0,0,1.05-6.87V21.51H318v25c0,.53,0,1.19,0,2s0,1.56.07,2.36.06,1.56.11,2.29.09,1.33.14,1.82h-1.6c0-.49-.08-1.09-.11-1.82s0-1.51-.07-2.36,0-1.67-.07-2.47,0-1.52,0-2.15h-.14a15.72,15.72,0,0,1-2.15,4.18" style="fill:#158bcc"/><path d="M285,38.16a19.61,19.61,0,0,1-1.27,7.19,16.52,16.52,0,0,1-3.6,5.64,16.25,16.25,0,0,1-5.56,3.67A18.74,18.74,0,0,1,267.53,56a18.48,18.48,0,0,1-7-1.31A16.31,16.31,0,0,1,255,51a16.52,16.52,0,0,1-3.6-5.64,19.82,19.82,0,0,1-1.27-7.19A19.58,19.58,0,0,1,251.35,31a16.08,16.08,0,0,1,3.6-5.56,16.69,16.69,0,0,1,5.53-3.64,18.48,18.48,0,0,1,7-1.3,18.74,18.74,0,0,1,7.08,1.3,16.62,16.62,0,0,1,5.56,3.64,16.08,16.08,0,0,1,3.6,5.56A19.37,19.37,0,0,1,285,38.16m-1.6,0a18.23,18.23,0,0,0-1.09-6.33,15.09,15.09,0,0,0-3.16-5.19,14.8,14.8,0,0,0-5-3.49,16.6,16.6,0,0,0-6.65-1.27,16.35,16.35,0,0,0-6.62,1.27,14.88,14.88,0,0,0-5,3.49,15.25,15.25,0,0,0-3.16,5.19,18.23,18.23,0,0,0-1.09,6.33,18.42,18.42,0,0,0,1.09,6.4,15.25,15.25,0,0,0,3.16,5.19,15.42,15.42,0,0,0,5,3.53,16,16,0,0,0,6.62,1.31,16.27,16.27,0,0,0,6.65-1.31,15.34,15.34,0,0,0,5-3.53,15.09,15.09,0,0,0,3.16-5.19A18.42,18.42,0,0,0,283.44,38.16Z" style="fill:#158bcc"/><path d="M241.84,22.79a11.6,11.6,0,0,1,6.91-2.29h.65a3.21,3.21,0,0,1,.65.07V22a2.11,2.11,0,0,0-.54-.07h-.4a10.07,10.07,0,0,0-5.45,1.41A11.84,11.84,0,0,0,240,27a17.1,17.1,0,0,0-2.14,5.09,23.19,23.19,0,0,0-.69,5.56V55h-1.6V30c0-.54,0-1.19,0-2s0-1.56-.07-2.36-.06-1.56-.11-2.29-.1-1.33-.15-1.82h1.6c.05.49.09,1.09.11,1.82s0,1.52.07,2.36,0,1.67.08,2.47,0,1.52,0,2.15h.15q1.45-5.23,4.65-7.52" style="fill:#158bcc"/><path d="M225.1,45.94h-.22a14.7,14.7,0,0,1-2.54,4.32,16.68,16.68,0,0,1-3.56,3.13,15.84,15.84,0,0,1-4.25,1.92,16.87,16.87,0,0,1-4.69.66,16.61,16.61,0,0,1-6.73-1.35,15.71,15.71,0,0,1-5.3-3.71,16.76,16.76,0,0,1-3.45-5.59,19.41,19.41,0,0,1-1.24-7,19.69,19.69,0,0,1,1.24-7,17.13,17.13,0,0,1,3.45-5.67,15.64,15.64,0,0,1,5.3-3.74,16.78,16.78,0,0,1,6.73-1.34,16,16,0,0,1,15,10.1h.22V21.51h1.6V53.06a33.79,33.79,0,0,1-.84,7.63,18,18,0,0,1-2.76,6.4A13.77,13.77,0,0,1,218,71.48a16.84,16.84,0,0,1-7.81,1.64,20.68,20.68,0,0,1-8.43-1.64,17.84,17.84,0,0,1-6.32-4.61l1.09-1.09a16.59,16.59,0,0,0,6.28,4.54,19.5,19.5,0,0,0,7.38,1.42,15,15,0,0,0,7.27-1.6,12.44,12.44,0,0,0,4.58-4.22,17.59,17.59,0,0,0,2.36-6,35,35,0,0,0,.69-7v-7M194.72,38.3a18.74,18.74,0,0,0,1.05,6.26,16.14,16.14,0,0,0,3,5.23,14.18,14.18,0,0,0,4.76,3.56,14.68,14.68,0,0,0,6.29,1.31A14.36,14.36,0,0,0,216,53.35a15,15,0,0,0,4.83-3.56,17,17,0,0,0,3.2-5.23,17.82,17.82,0,0,0,0-12.65,16.46,16.46,0,0,0-3.2-5.2A15.16,15.16,0,0,0,216,23.19a14.21,14.21,0,0,0-6.14-1.31,14.4,14.4,0,0,0-6.29,1.34,14.69,14.69,0,0,0-4.76,3.6,16.14,16.14,0,0,0-3,5.23A18.68,18.68,0,0,0,194.72,38.3Z" style="fill:#158bcc"/><path d="M162.12,25.73a10.58,10.58,0,0,1,4.22-4.36A12.57,12.57,0,0,1,173,19.55a13.38,13.38,0,0,1,5.74,1.13,11.54,11.54,0,0,1,4,3,12.08,12.08,0,0,1,2.36,4.44,18.79,18.79,0,0,1,.77,5.45V55h-6.83V35.86a23.33,23.33,0,0,0-.33-4,9.74,9.74,0,0,0-1.2-3.35,6.59,6.59,0,0,0-2.36-2.33,7.67,7.67,0,0,0-3.89-.88,8.39,8.39,0,0,0-6.69,3.1A12.42,12.42,0,0,0,162,36.66V55h-6.83V0H162V25.73h.15" style="fill:#158bcc"/><path d="M145.24,29.22a8.36,8.36,0,0,0-3.27-2.8,10.05,10.05,0,0,0-4.66-1.13,10.65,10.65,0,0,0-4.76,1A10.87,10.87,0,0,0,129,29a12,12,0,0,0-2.22,4,15.07,15.07,0,0,0,0,9.45,12,12,0,0,0,2.22,4,10.56,10.56,0,0,0,3.56,2.72,11.71,11.71,0,0,0,9.56,0,9.65,9.65,0,0,0,3.52-2.76l4.58,4.15a14.91,14.91,0,0,1-5.45,4,18.55,18.55,0,0,1-7.41,1.41,20.29,20.29,0,0,1-7.38-1.3,17.52,17.52,0,0,1-5.85-3.68,16.74,16.74,0,0,1-3.89-5.7,18.94,18.94,0,0,1-1.42-7.49,19.25,19.25,0,0,1,1.38-7.41,16.84,16.84,0,0,1,3.86-5.74,17,17,0,0,1,5.85-3.71,20.06,20.06,0,0,1,7.3-1.31A19.17,19.17,0,0,1,144.47,21a13.26,13.26,0,0,1,5.71,4.21l-4.94,4" style="fill:#158bcc"/><path d="M116.5,26.09h-9.15V44c0,2.08.38,3.56,1.16,4.46a4.67,4.67,0,0,0,3.71,1.34,11.6,11.6,0,0,0,2-.2,7.9,7.9,0,0,0,2-.6l.22,5.6a16.61,16.61,0,0,1-2.72.69,18.41,18.41,0,0,1-3.09.25q-4.87,0-7.45-2.69t-2.58-8.07V26.09H94V20.5h6.62V10.61h6.76V20.5h9.15v5.59" style="fill:#158bcc"/><path d="M83.66,32.64c0-2.57-.78-4.48-2.33-5.71a9.6,9.6,0,0,0-6.18-1.85,13.57,13.57,0,0,0-5.48,1.12,14,14,0,0,0-4.33,2.87l-3.63-4.36a18.31,18.31,0,0,1,6.21-3.78,22.26,22.26,0,0,1,7.89-1.38,17.65,17.65,0,0,1,6.43,1.06,12.1,12.1,0,0,1,4.47,2.87,11.76,11.76,0,0,1,2.62,4.29,15.8,15.8,0,0,1,.87,5.3v15c0,1.16,0,2.38.11,3.67a19,19,0,0,0,.4,3.16H84.53A21.43,21.43,0,0,1,84,50h-.22A13.18,13.18,0,0,1,79,54.29a14.24,14.24,0,0,1-6.79,1.53,18,18,0,0,1-4.26-.54,12.33,12.33,0,0,1-4-1.79,10,10,0,0,1-3-3.27,9.68,9.68,0,0,1-1.2-5A8.86,8.86,0,0,1,61.78,39a13.47,13.47,0,0,1,5.52-3.48A31.58,31.58,0,0,1,75,33.94q4.29-.36,8.65-.36v-.94M82,38.52c-1.7,0-3.46.08-5.27.22a24.94,24.94,0,0,0-4.94.87,9.46,9.46,0,0,0-3.68,2,4.48,4.48,0,0,0-1.45,3.49,4.86,4.86,0,0,0,.62,2.55,5.2,5.2,0,0,0,1.63,1.67,6.51,6.51,0,0,0,2.26.91,12.5,12.5,0,0,0,2.54.25c3.2,0,5.66-.95,7.38-2.87a10.4,10.4,0,0,0,2.58-7.23V38.52Z" style="fill:#158bcc"/><path d="M11.16,21.48A11.85,11.85,0,0,1,18,19.55a12.52,12.52,0,0,1,6.29,1.6,10.76,10.76,0,0,1,4.4,5.31,12.25,12.25,0,0,1,4.87-5.13,13.62,13.62,0,0,1,6.83-1.78,13.42,13.42,0,0,1,5.74,1.13,11.64,11.64,0,0,1,4,3,12.38,12.38,0,0,1,2.36,4.44,18.79,18.79,0,0,1,.76,5.45V55H46.37V35.83a21.49,21.49,0,0,0-.36-4,10.23,10.23,0,0,0-1.24-3.34,6.61,6.61,0,0,0-2.32-2.32,7.05,7.05,0,0,0-3.71-.88,7.83,7.83,0,0,0-4,1A8.41,8.41,0,0,0,32,28.82a10.73,10.73,0,0,0-1.53,3.52,16.83,16.83,0,0,0-.47,4V55H23.19V34.45a17.56,17.56,0,0,0-.37-3.7,7.53,7.53,0,0,0-1.23-2.88A6.23,6.23,0,0,0,19.33,26a7.59,7.59,0,0,0-3.41-.69,7.78,7.78,0,0,0-6.29,3.09,12.71,12.71,0,0,0-2.51,8.25V55H.29v-27c0-.92,0-2.11-.07-3.56S.1,21.61,0,20.5H6.47c.1.87.17,1.85.22,2.94s.07,2,.07,2.73H7a11.58,11.58,0,0,1,4.18-4.69" style="fill:#158bcc"/></symbol></defs><title>matchgroup</title><use width="359.68" height="73.12" transform="translate(19 26) scale(0.41 0.41)" xlink:href="#matchgroup"/></svg>