<?xml version="1.0" encoding="utf-8"?>
<!-- Generator: Adobe Illustrator 24.0.3, SVG Export Plug-In . SVG Version: 6.00 Build 0)  -->
<svg version="1.1" id="Layer_1" xmlns="http://www.w3.org/2000/svg" xmlns:xlink="http://www.w3.org/1999/xlink" x="0px" y="0px"
	 viewBox="0 0 300 300" style="enable-background:new 0 0 300 300;" xml:space="preserve">
<style type="text/css">
	.st0{fill:#158BCC;}
</style>
<symbol  id="matchgroup" viewBox="-179.8 -36.6 359.7 73.1">
	<path class="st0" d="M148.2-6c2.4-6.1,8.4-10.2,15-10.1c2.3,0,4.6,0.4,6.8,1.3c2,0.9,3.8,2.1,5.3,3.7c1.5,1.6,2.7,3.5,3.4,5.6
		c0.8,2.3,1.2,4.7,1.2,7.1c0,2.4-0.4,4.8-1.2,7c-0.8,2.1-1.9,4-3.5,5.6c-1.5,1.6-3.3,2.9-5.3,3.7c-2.1,0.9-4.4,1.4-6.7,1.4
		c-1.6,0-3.2-0.2-4.7-0.7c-1.5-0.4-2.9-1.1-4.2-1.9c-1.3-0.9-2.5-1.9-3.5-3.1c-1.1-1.3-1.9-2.8-2.5-4.4h-0.2v26.5h-1.7v-50.9h1.7V-6
		H148.2 M178.2,1.7c0-2.1-0.4-4.2-1.1-6.2c-0.7-1.9-1.7-3.7-3-5.2c-1.3-1.5-2.9-2.7-4.8-3.6c-2-0.9-4.1-1.4-6.2-1.3
		c-2.1,0-4.2,0.4-6.1,1.3c-1.8,0.8-3.5,2-4.8,3.5c-1.4,1.5-2.5,3.3-3.2,5.2c-1.5,4.1-1.5,8.6,0,12.6c0.7,1.9,1.8,3.7,3.2,5.2
		c1.4,1.5,3,2.7,4.8,3.5c1.9,0.9,4,1.3,6.1,1.3c4.2,0.1,8.2-1.7,11-4.8c1.3-1.5,2.3-3.3,3-5.2C177.9,6,178.2,3.9,178.2,1.7
		L178.2,1.7z"/>
	<path class="st0" d="M134.3,13.8c-0.9,1.2-1.9,2.2-3.1,3.1c-2.3,1.7-5.1,2.5-8,2.5c-2,0.1-4-0.4-5.8-1.2c-1.5-0.8-2.8-1.9-3.7-3.3
		c-1-1.4-1.6-2.9-2-4.6c-0.4-1.7-0.6-3.4-0.6-5.2v-20.2h1.6V5c0,1.5,0.2,3,0.5,4.4c0.3,1.5,0.8,2.9,1.6,4.2c0.8,1.3,1.9,2.4,3.2,3.2
		c1.6,0.9,3.4,1.4,5.2,1.3c1.8,0,3.6-0.4,5.2-1.1c1.6-0.8,3.1-1.9,4.2-3.2c1.3-1.5,2.2-3.3,2.8-5.1c0.7-2.2,1.1-4.5,1-6.9v-16.7h1.7
		v25c0,0.5,0,1.2,0,2s0,1.6,0.1,2.4s0.1,1.6,0.1,2.3c0,0.7,0.1,1.3,0.1,1.8h-1.6c0-0.5-0.1-1.1-0.1-1.8c0-0.7,0-1.5-0.1-2.4
		s0-1.7-0.1-2.5s0-1.5,0-2.2h-0.1C136,11.1,135.3,12.5,134.3,13.8"/>
	<path class="st0" d="M105.2,1.6c0,2.5-0.4,4.9-1.3,7.2c-0.8,2.1-2,4-3.6,5.6c-1.6,1.6-3.5,2.8-5.6,3.7c-2.2,0.9-4.6,1.4-7,1.3
		c-2.4,0-4.8-0.4-7-1.3c-2.1-0.8-4-2.1-5.5-3.7c-1.6-1.6-2.8-3.5-3.6-5.6c-0.9-2.3-1.3-4.7-1.3-7.2c0-2.4,0.4-4.9,1.2-7.2
		c0.8-2.1,2-4,3.6-5.6c1.6-1.6,3.5-2.8,5.5-3.6c2.2-0.9,4.6-1.3,7-1.3c2.4,0,4.8,0.4,7.1,1.3c2.1,0.8,4,2.1,5.6,3.6
		c1.6,1.6,2.8,3.5,3.6,5.6C104.8-3.3,105.2-0.9,105.2,1.6 M103.6,1.6c0-2.2-0.4-4.3-1.1-6.3c-0.7-1.9-1.8-3.7-3.2-5.2
		c-1.4-1.5-3.1-2.7-5-3.5c-2.1-0.9-4.4-1.3-6.6-1.3c-2.3,0-4.5,0.4-6.6,1.3c-1.9,0.8-3.6,2-5,3.5c-1.4,1.5-2.5,3.3-3.2,5.2
		c-0.7,2-1.1,4.2-1.1,6.3c0,2.2,0.4,4.3,1.1,6.4c0.7,1.9,1.8,3.7,3.2,5.2c1.4,1.5,3.1,2.7,5,3.5c2.1,0.9,4.3,1.3,6.6,1.3
		c2.3,0,4.5-0.4,6.6-1.3c1.9-0.8,3.6-2,5-3.5c1.4-1.5,2.5-3.3,3.2-5.2C103.2,5.9,103.6,3.8,103.6,1.6L103.6,1.6z"/>
	<path class="st0" d="M62-13.8c2-1.5,4.4-2.3,6.9-2.3h0.6c0.2,0,0.4,0,0.6,0.1v1.4c-0.2,0-0.4-0.1-0.5-0.1h-0.4
		c-1.9-0.1-3.8,0.4-5.5,1.4c-1.5,0.9-2.7,2.2-3.7,3.7c-1,1.6-1.7,3.3-2.1,5.1c-0.5,1.8-0.7,3.7-0.7,5.6v17.3h-1.6v-25
		c0-0.5,0-1.2,0-2s0-1.6-0.1-2.4s-0.1-1.6-0.1-2.3s-0.1-1.3-0.1-1.8H57c0.1,0.5,0.1,1.1,0.1,1.8s0,1.5,0.1,2.4s0,1.7,0.1,2.5
		s0,1.5,0,2.1h0.1C58.4-9.7,59.9-12.2,62-13.8"/>
	<path class="st0" d="M45.3,9.4H45c-0.6,1.6-1.5,3-2.5,4.3c-1,1.2-2.2,2.3-3.6,3.1c-1.3,0.8-2.7,1.5-4.2,1.9
		c-1.5,0.4-3.1,0.7-4.7,0.7c-2.3,0-4.6-0.4-6.7-1.3c-2-0.9-3.8-2.1-5.3-3.7c-1.5-1.6-2.7-3.5-3.4-5.6c-0.8-2.2-1.3-4.6-1.2-7
		c0-2.4,0.4-4.8,1.2-7c0.8-2.1,1.9-4,3.4-5.7c1.5-1.6,3.3-2.9,5.3-3.7c2.1-0.9,4.4-1.4,6.7-1.3c6.6-0.1,12.6,4,15,10.1h0.2v-9.2h1.6
		v31.5c0,2.6-0.3,5.1-0.8,7.6c-0.5,2.3-1.4,4.5-2.8,6.4c-1.3,1.9-3,3.4-5.1,4.4c-2.4,1.2-5.1,1.7-7.8,1.6c-2.9,0-5.8-0.5-8.4-1.6
		c-2.4-1.1-4.6-2.6-6.3-4.6l1.1-1.1c1.7,2,3.9,3.5,6.3,4.5c2.3,0.9,4.9,1.4,7.4,1.4c2.5,0.1,5-0.5,7.3-1.6c1.9-1,3.4-2.4,4.6-4.2
		c1.1-1.8,1.9-3.9,2.4-6c0.5-2.3,0.7-4.6,0.7-7L45.3,9.4 M14.9,1.7c0,2.1,0.3,4.2,1.1,6.3c0.7,1.9,1.7,3.7,3,5.2
		c1.3,1.5,2.9,2.7,4.8,3.6c2,0.9,4.1,1.3,6.3,1.3c2.1,0,4.2-0.4,6.2-1.3c1.8-0.8,3.5-2.1,4.8-3.6c1.4-1.5,2.5-3.3,3.2-5.2
		c1.5-4.1,1.5-8.6,0-12.6c-0.7-1.9-1.8-3.7-3.2-5.2c-1.4-1.5-3-2.7-4.8-3.5c-1.9-0.9-4-1.3-6.1-1.3c-2.2,0-4.3,0.4-6.3,1.3
		c-1.8,0.9-3.4,2.1-4.8,3.6c-1.3,1.5-2.3,3.3-3,5.2C15.3-2.5,14.9-0.4,14.9,1.7z"/>
	<path class="st0" d="M-17.7-10.8c1-1.8,2.4-3.3,4.2-4.4c2-1.2,4.3-1.8,6.7-1.8c2-0.1,3.9,0.3,5.7,1.1c1.5,0.7,2.9,1.7,4,3
		c1.1,1.3,1.9,2.8,2.4,4.4C5.8-6.7,6-4.8,6-3v21.4h-6.8V-0.7c0-1.3-0.1-2.7-0.3-4C-1.3-5.9-1.7-7-2.3-8.1c-0.6-1-1.4-1.8-2.4-2.3
		c-1.2-0.6-2.5-0.9-3.9-0.9c-2.6-0.1-5.1,1.1-6.7,3.1c-1.8,2.4-2.7,5.3-2.6,8.3v18.3h-6.8v-55h6.8v25.7H-17.7"/>
	<path class="st0" d="M-34.6-7.3c-0.8-1.2-2-2.2-3.3-2.8c-1.4-0.7-3-1.1-4.7-1.1c-1.6,0-3.3,0.3-4.8,1c-1.4,0.6-2.6,1.6-3.6,2.7
		c-1,1.2-1.7,2.5-2.2,4c-1,3.1-1,6.4,0,9.5c0.5,1.5,1.2,2.8,2.2,4c1,1.2,2.2,2.1,3.6,2.7c3,1.4,6.5,1.4,9.6,0
		c1.4-0.6,2.6-1.6,3.5-2.8l4.6,4.2c-1.5,1.7-3.4,3.1-5.4,4c-2.3,1-4.9,1.5-7.4,1.4c-2.5,0-5-0.4-7.4-1.3c-2.2-0.8-4.2-2.1-5.8-3.7
		c-1.7-1.6-3-3.6-3.9-5.7c-1-2.4-1.5-4.9-1.4-7.5c0-2.5,0.4-5.1,1.4-7.4c0.9-2.2,2.2-4.1,3.9-5.7c1.7-1.6,3.7-2.9,5.9-3.7
		c2.3-0.9,4.8-1.3,7.3-1.3c2.5,0,5,0.4,7.3,1.4c2.3,0.9,4.2,2.3,5.7,4.2L-34.6-7.3"/>
	<path class="st0" d="M-63.3-10.5h-9.1V7.4c0,2.1,0.4,3.6,1.2,4.5c1,1,2.3,1.5,3.7,1.3c0.7,0,1.3-0.1,2-0.2c0.7-0.1,1.4-0.3,2-0.6
		l0.2,5.6c-0.9,0.3-1.8,0.5-2.7,0.7c-1,0.2-2.1,0.3-3.1,0.2c-3.2,0-5.7-0.9-7.4-2.7s-2.6-4.5-2.6-8.1v-18.7h-6.6v-5.6h6.6V-26h6.8
		v9.9h9.1L-63.3-10.5"/>
	<path class="st0" d="M-96.2-3.9c0-2.6-0.8-4.5-2.3-5.7c-1.8-1.3-4-2-6.2-1.9c-1.9,0-3.8,0.4-5.5,1.1c-1.6,0.7-3.1,1.7-4.3,2.9
		l-3.6-4.4c1.8-1.7,3.9-2.9,6.2-3.8c2.5-0.9,5.2-1.4,7.9-1.4c2.2,0,4.4,0.3,6.4,1.1c1.7,0.6,3.2,1.6,4.5,2.9
		c1.2,1.2,2.1,2.7,2.6,4.3c0.6,1.7,0.9,3.5,0.9,5.3v15c0,1.2,0,2.4,0.1,3.7c0,1.1,0.2,2.1,0.4,3.2h-6.2c-0.4-1.6-0.5-3.3-0.5-4.9
		h-0.2c-1.2,1.8-2.9,3.3-4.8,4.3c-2.1,1.1-4.4,1.6-6.8,1.5c-1.4,0-2.9-0.2-4.3-0.5c-1.4-0.4-2.8-1-4-1.8c-1.2-0.9-2.3-2-3-3.3
		c-0.8-1.5-1.3-3.3-1.2-5c-0.1-2.3,0.6-4.5,2-6.2c1.5-1.6,3.4-2.8,5.5-3.5c2.5-0.8,5.1-1.4,7.7-1.6C-102-2.9-99.1-3-96.2-3
		L-96.2-3.9 M-97.8,2c-1.7,0-3.5,0.1-5.3,0.2c-1.7,0.1-3.3,0.4-4.9,0.9c-1.4,0.4-2.6,1.1-3.7,2c-1,0.9-1.5,2.2-1.4,3.5
		c0,0.9,0.2,1.8,0.6,2.5c0.4,0.7,1,1.2,1.6,1.7c0.7,0.4,1.5,0.8,2.3,0.9c0.8,0.2,1.7,0.3,2.5,0.2c3.2,0,5.7-1,7.4-2.9
		c1.8-2,2.7-4.6,2.6-7.2V2H-97.8z"/>
	<path class="st0" d="M-168.7-15.1c2-1.3,4.4-2,6.8-1.9c2.2,0,4.4,0.5,6.3,1.6c2,1.2,3.6,3.1,4.4,5.3c1.1-2.2,2.8-3.9,4.9-5.1
		c2.1-1.2,4.4-1.8,6.8-1.8c2-0.1,3.9,0.3,5.7,1.1c1.5,0.7,2.9,1.7,4,3c1.1,1.3,1.9,2.8,2.4,4.4c0.5,1.8,0.8,3.6,0.8,5.4v21.4h-6.9
		V-0.7c0-1.3-0.1-2.7-0.4-4c-0.2-1.2-0.6-2.3-1.2-3.3c-0.6-1-1.4-1.8-2.3-2.3c-1.1-0.6-2.4-0.9-3.7-0.9c-1.4,0-2.8,0.3-4,1
		c-1.1,0.6-2,1.5-2.7,2.5c-0.7,1.1-1.2,2.3-1.5,3.5c-0.3,1.3-0.5,2.7-0.5,4v18.7h-6.8V-2.1c0-1.2-0.1-2.5-0.4-3.7
		c-0.2-1-0.6-2-1.2-2.9c-0.6-0.8-1.4-1.4-2.3-1.9c-1.1-0.5-2.2-0.7-3.4-0.7c-2.5,0-4.8,1.1-6.3,3.1c-1.8,2.4-2.7,5.3-2.5,8.3v18.3
		h-6.8v-27c0-0.9,0-2.1-0.1-3.6c-0.1-1.4-0.1-2.8-0.2-3.9h6.5c0.1,0.9,0.2,1.9,0.2,2.9s0.1,2,0.1,2.7h0.2
		C-171.9-12.3-170.5-13.9-168.7-15.1"/>
</symbol>
<title>matchgroup</title>
<g>
	<defs>
		<rect id="SVGID_1_" x="4.3" y="120.5" width="290.5" height="59.1"/>
	</defs>
	<clipPath id="SVGID_2_">
		<use xlink:href="#SVGID_1_"  style="overflow:visible;"/>
	</clipPath>
	<g style="clip-path:url(#SVGID_2_);">
		
			<use xlink:href="#matchgroup"  width="359.7" height="73.1" x="-179.8" y="-36.6" transform="matrix(0.8077 0 0 0.8077 149.5348 149.9931)" style="overflow:visible;"/>
	</g>
</g>
</svg>
