<svg id="f6472b9b-1099-4a5e-a641-21ef839673be" data-name="Layer 1" xmlns="http://www.w3.org/2000/svg" xmlns:xlink="http://www.w3.org/1999/xlink" width="186.4" height="82" viewBox="0 0 186.4 82"><defs><symbol id="ec1df781-cdf3-4499-94ba-7b44eef420a4" data-name="pandora" viewBox="0 0 275.1 55.45"><path d="M151.55,3.3a3.22,3.22,0,0,1,3-3.27c1.23,0,2.46,0,3.69,0q0,21.73,0,43.47c0,.4,0,.8-.09,1.2-2.2,0-4.39,0-6.59,0q0-1.43,0-2.87A18.47,18.47,0,0,1,142,45.68a17.95,17.95,0,0,1-19.8-18.09,17.55,17.55,0,0,1,3.52-10.66,17.91,17.91,0,0,1,12.91-7.18,18.28,18.28,0,0,1,12.89,3.9c0-3.45,0-6.9,0-10.35M137.68,16.93a11.26,11.26,0,0,0-8.17,9.53,11.14,11.14,0,1,0,8.17-9.53Z" fill="#00a0ee"/><path d="M267.45.13A6.51,6.51,0,0,1,272,.85a6.23,6.23,0,0,1,3.09,5.54A6.18,6.18,0,0,1,273,11,6.32,6.32,0,1,1,267.45.13m0,.86a5.51,5.51,0,0,0-4,6.52,5.47,5.47,0,0,0,10.46.79A5.49,5.49,0,0,0,267.43,1Z" fill="#00a0ee"/><path d="M266.39,2.67a22.25,22.25,0,0,1,3.69.13,2.24,2.24,0,0,1,1.17,3.32,3.12,3.12,0,0,1-1.45,1q1,1.37,1.89,2.77H270.5c-.63-.89-1.16-1.85-1.81-2.72a4.17,4.17,0,0,0-1.31-.1c0,.94,0,1.87,0,2.81l-1,0c0-2.42,0-4.84,0-7.26m1,.85q0,1.35,0,2.7c1-.11,2.38.39,3.06-.65a1.36,1.36,0,0,0-1-2C268.73,3.49,268.06,3.52,267.39,3.52Z" fill="#00a0ee"/><path d="M6.64,13.67A18.16,18.16,0,0,1,19.18,9.73,18.07,18.07,0,0,1,31.81,39.31,17.87,17.87,0,0,1,19.5,45.7,18.12,18.12,0,0,1,6.64,41.78q0,5.19,0,10.37a3.24,3.24,0,0,1-2.8,3.26c-1.28.06-2.56,0-3.84,0Q0,33.11,0,10.79c2.2,0,4.41,0,6.61,0,0,1,0,1.93,0,2.89m8.73,3.1a11.28,11.28,0,0,0-6.8,4.39,11.18,11.18,0,0,0,4.1,16.6,10.92,10.92,0,0,0,8.34.61,11.18,11.18,0,0,0,3.65-19.28A11.11,11.11,0,0,0,15.37,16.76Z" fill="#00a0ee"/><path d="M45.24,15.12A17.82,17.82,0,0,1,57.16,9.71a18.19,18.19,0,0,1,12.26,3.9,19.85,19.85,0,0,1,.07-2.85c2.2,0,4.4,0,6.61,0,0,11.3,0,22.59,0,33.89-2.17,0-4.35,0-6.53,0a14.83,14.83,0,0,1-.18-2.88A18,18,0,0,1,40.13,28.7a18.07,18.07,0,0,1,5.11-13.58m10.9,1.68a11.18,11.18,0,0,0-4.37,19.82,11.07,11.07,0,0,0,9.87,1.84,11.19,11.19,0,0,0,3.53-19.71A11.09,11.09,0,0,0,56.14,16.8Z" fill="#00a0ee"/><path d="M97.39,9.8a18,18,0,0,1,20,18.33c0,5.52,0,11,0,16.55h-7.19c0-5.7,0-11.39,0-17.09a10.83,10.83,0,0,0-6.26-9.65,10.67,10.67,0,0,0-9,0,10.85,10.85,0,0,0-6,7.31,22.9,22.9,0,0,0-.29,5.14c0,4.77,0,9.53,0,14.3H81.47c-.09-5.61,0-11.21,0-16.82a18,18,0,0,1,16-18.06Z" fill="#00a0ee"/><path d="M177.88,9.93a18.06,18.06,0,0,1,10,34.47,18.05,18.05,0,1,1-10-34.47m.57,7.3a10.8,10.8,0,0,0-2,20.29,10.75,10.75,0,0,0,8.18.35,10.91,10.91,0,0,0,6.7-7.29,11.9,11.9,0,0,0,.3-4.1,10.76,10.76,0,0,0-13.18-9.25Z" fill="#00a0ee"/><path d="M207.57,15.57c3.69-4,9.32-5.77,14.67-5.82,0,2.42,0,4.84,0,7.26a12.34,12.34,0,0,0-8.6,2.93,10,10,0,0,0-2.9,7.37c0,5.79,0,11.58,0,17.37-2.4,0-4.8,0-7.2,0-.08-5.79,0-11.59,0-17.39A17.2,17.2,0,0,1,207.57,15.57Z" fill="#00a0ee"/><path d="M226.88,16.72a17.92,17.92,0,0,1,11.93-6.89,18.18,18.18,0,0,1,13.68,3.81c0-1,0-1.91,0-2.87h6.69q0,17,0,33.9H252.5c0-1,0-1.91,0-2.87A18.1,18.1,0,0,1,240,45.73,17.76,17.76,0,0,1,230.07,42a18.13,18.13,0,0,1-3.19-25.24m12.32.07a11.19,11.19,0,0,0-5,19.34,11.08,11.08,0,0,0,10,2.46,11.27,11.27,0,0,0,6.73-4.79,11.18,11.18,0,0,0-4.06-15.91A11,11,0,0,0,239.2,16.79Z" fill="#00a0ee"/></symbol></defs><title>pandora</title><use width="275.1" height="55.44" transform="translate(37 30) scale(0.41 0.41)" xlink:href="#ec1df781-cdf3-4499-94ba-7b44eef420a4"/></svg>