<svg id="15b33a3e-1860-48ba-a3ec-8e348ae4532e" data-name="Layer 1" xmlns="http://www.w3.org/2000/svg" xmlns:xlink="http://www.w3.org/1999/xlink" viewBox="0 0 186.4 82"><defs><symbol id="ab75e794-5a6a-45cd-8f69-1c296b308001" data-name="paypal" viewBox="0 0 290.65 70.8"><path d="M290.65,14.78c-.41,2.42-.84,4.84-1.23,7.26q-2.61,16.5-5.19,33c-.29,1.83-1,2.39-2.82,2.4s-3.69,0-5.54,0c-1.41,0-1.85-.51-1.63-1.91q2-12.66,4-25.31,1.19-7.54,2.38-15.09c.26-1.65.43-1.81,2.1-1.81,2.05,0,4.1,0,6.15,0a1.65,1.65,0,0,1,1.79,1.05Z" fill="#2298d5"/><path d="M217.22,13.22c3.55.12,7.11.1,10.64.4a11.12,11.12,0,0,1,7.6,3.62,10,10,0,0,1,2.36,6.94,21.93,21.93,0,0,1-2.58,10.55c-2.69,4.88-7,7.21-12.43,7.71-2.61.24-5.25.18-7.88.24a2.53,2.53,0,0,0-2.88,2.52c-.56,3.58-1.12,7.15-1.67,10.73a1.55,1.55,0,0,1-1.63,1.51c-2.63,0-5.26,0-7.9,0-1.12,0-1.55-.61-1.36-1.78q1.72-10.93,3.45-21.86,1.4-8.91,2.78-17.82c.34-2.2.84-2.64,3.09-2.65h8.41Zm0,20.7v0c.58,0,1.16,0,1.74,0,4.52-.14,6.92-2.53,7.07-7,.08-2.39-1.1-4.1-3.44-4.49A38.89,38.89,0,0,0,217,22a1.41,1.41,0,0,0-1.45,1.33Q214.75,28.2,214,33c-.1.63.17.88.78.88C215.57,33.91,216.39,33.92,217.21,33.92Z" fill="#2298d5"/><path d="M262.42,30.94c.1-.53.21-1.05.29-1.58a1.3,1.3,0,0,1,1.45-1.25c2.46,0,4.92,0,7.39,0,1,0,1.46.55,1.3,1.6q-1.4,8.91-2.82,17.82c-.42,2.63-.83,5.27-1.28,7.89a2.07,2.07,0,0,1-2.37,2q-3.13,0-6.26,0c-1.32,0-1.73-.56-1.52-1.9.07-.45.12-.91.19-1.49a40.08,40.08,0,0,1-3.53,2.34,14.52,14.52,0,0,1-13.15.53c-4.14-1.86-6-5.49-6.41-9.82a17.88,17.88,0,0,1,5.15-14.71,16.43,16.43,0,0,1,14.09-5,19.85,19.85,0,0,1,2.52.44A7.2,7.2,0,0,1,262.19,31Zm-1.28,10.69a5.8,5.8,0,0,0-5.08-6.19A8.67,8.67,0,0,0,245.93,43c-.4,3.42,1.1,6,4,6.87A8.71,8.71,0,0,0,261.15,41.63Z" fill="#2298d5"/><path d="M85.79,55.57c.28-1.28.62-2.55.82-3.84Q89.29,34.89,91.93,18c.15-1,.29-2,.46-2.93a2,2,0,0,1,2-1.84c6.73.06,13.46.1,20.19.33a11.82,11.82,0,0,1,4.28,1.28,8.62,8.62,0,0,1,5.28,7.06,19.85,19.85,0,0,1-3.73,14.82c-2.63,3.52-6.41,5.18-10.66,5.62-2.74.28-5.53.21-8.29.27-1.76,0-2.51.61-2.79,2.32Q97.84,50,97.05,55.07c-.27,1.76-.92,2.34-2.73,2.34-2,0-4,0-6.05,0a2.87,2.87,0,0,1-2.47-.84ZM100.38,34c2.49-.14,4.78-.16,7-.43a4.87,4.87,0,0,0,4.15-2.95,13.3,13.3,0,0,0,.9-4.15,3.64,3.64,0,0,0-3.28-4.13,39.54,39.54,0,0,0-5.4-.36c-1.13,0-1.59.42-1.78,1.55-.13.74-.23,1.48-.34,2.22Z" fill="#263a82"/><path d="M164.17,67.67a1.77,1.77,0,0,1,0-2.46c2.37-3.26,4.66-6.58,7-9.84a1.8,1.8,0,0,0,.29-1.86q-4-11.46-7.85-22.95a6.83,6.83,0,0,1-.3-1c-.16-.9.27-1.53,1.17-1.55,2.6,0,5.2,0,7.79,0,1.22,0,1.73.9,2,2,1.29,4.38,2.61,8.76,3.92,13.14.11.38.25.76.44,1.35.33-.45.55-.73.75-1,3.21-4.72,6.42-9.43,9.6-14.17A2.67,2.67,0,0,1,191.58,28c2.19,0,4.38,0,6.56,0a2.67,2.67,0,0,1,1.78.63c.54.62,0,1.32-.4,1.93q-8.3,12-16.58,23.92c-2.72,3.93-5.44,7.87-8.19,11.78a11.78,11.78,0,0,1-1.34,1.38Z" fill="#263a82"/><path d="M149,30.9l.29-1.68A1.28,1.28,0,0,1,150.62,28c2.46,0,4.92,0,7.38,0,1.14,0,1.56.53,1.39,1.74-.32,2.26-.69,4.52-1.05,6.78q-1.5,9.4-3,18.8a2.14,2.14,0,0,1-2.43,2.08c-2,0-4,0-6,0-1.58,0-1.93-.41-1.75-2,.05-.43.12-.87.2-1.49-.35.26-.56.41-.75.57a14.92,14.92,0,0,1-15.08,2.75c-4.11-1.4-6.24-4.65-7.05-8.74-1.67-8.39,3.3-18.26,12.77-20.72a17.74,17.74,0,0,1,9.31.14A6.81,6.81,0,0,1,148.71,31Zm-10,19.22a8.59,8.59,0,0,0,8.6-6.91c.8-3.73-1-7-4.41-7.73a8.67,8.67,0,0,0-10.56,7.16C131.82,47.1,134.39,50.12,138.9,50.12Z" fill="#263a82"/><path d="M15.11,63.74q-.39,2.4-.77,4.8c-.24,1.5.41,2.26,1.92,2.26h11A2.64,2.64,0,0,0,30,68.52c.39-2.26.74-4.53,1.1-6.79q.65-4.07,1.31-8.14a2.5,2.5,0,0,1,1.34-2,4.69,4.69,0,0,1,1.93-.43A33.72,33.72,0,0,0,45.37,50a17.49,17.49,0,0,0,9.73-6.56,24.82,24.82,0,0,0,4.53-15.7,11,11,0,0,0-5.54-9.67L53.91,18s-1.61,7.05-3.49,10.39a20.39,20.39,0,0,1-12.95,9.82,34.23,34.23,0,0,1-9,1.14c-2.09,0-4.19,0-6.28,0a3.41,3.41,0,0,0-3.74,3.23q-1.38,8.91-2.78,17.82c-.13.82-.28,1.64-.43,2.52Z" fill="#2298d5"/><path d="M1.88,62.93h.06c2.07,0,4.15,0,6.22,0C6.06,62.9,4,62.9,1.88,62.93Z"/><path d="M37.55,38.24A20.39,20.39,0,0,0,50.5,28.42a28.33,28.33,0,0,0,3.7-14.81A12.21,12.21,0,0,0,48.06,3,21.06,21.06,0,0,0,39.21.35L38.55.27A49.45,49.45,0,0,0,33.3,0H12.56a3.66,3.66,0,0,0-1.07.17h0A3.31,3.31,0,0,0,9.16,2.86Q8.93,4.28,8.71,5.7l-2,12.76L4.79,30.52,3,42,1.16,53.47Q.59,57,0,60.58a1.92,1.92,0,0,0,2,2.38c2.09,0,4.19,0,6.28,0h6.88c.15-.88.3-1.63.42-2.45.93-5.94,1.87-12,2.79-17.91a3.44,3.44,0,0,1,3.69-3.21h.23c.78,0,1.56,0,2.33,0l3.84,0A34.23,34.23,0,0,0,37.55,38.24Z" fill="#263a82"/><path d="M18.71,41.54c0-.18,2.84-16.94,3.85-23.24A2.78,2.78,0,0,1,25.31,16H42.79C47,16,50.83,16.38,54,18,50.65,38.86,36.08,39.92,22.43,39.45,20.39,39.39,19.2,40.18,18.71,41.54Z" fill="#232c66"/></symbol></defs><title>paypal</title><use width="290.65" height="70.8" transform="translate(33 27) scale(0.41 0.41)" xlink:href="#ab75e794-5a6a-45cd-8f69-1c296b308001"/></svg>