<?xml version="1.0" encoding="utf-8"?>
<!-- Generator: Adobe Illustrator 24.0.3, SVG Export Plug-In . SVG Version: 6.00 Build 0)  -->
<svg version="1.1" id="Layer_1" xmlns="http://www.w3.org/2000/svg" xmlns:xlink="http://www.w3.org/1999/xlink" x="0px" y="0px"
	 viewBox="0 0 288 288" style="enable-background:new 0 0 288 288;" xml:space="preserve">
<style type="text/css">
	.st0{fill:#2298D5;}
	.st1{fill:#263A82;}
	.st2{fill:#232C66;}
</style>
<path class="st0" d="M84.9,257.1c-1,6.4-2.1,12.8-3.1,19.1c-0.9,5.9,1.7,9,7.7,9c14.7,0,29.5,0,44.2,0c5.5,0.3,10.4-3.6,11.2-9.1
	c1.6-9,3-18.1,4.4-27.1c1.7-10.8,3.5-21.6,5.2-32.5c0.3-3.4,2.3-6.5,5.4-8c2.4-1.1,5.1-1.7,7.7-1.7c13.2,0,26.2-0.7,38.9-4.4
	c15.9-4.6,29.4-12.7,39.1-26.2c13.5-18.7,19-39.9,18.2-62.7c-0.5-16.4-7.6-30.1-22.3-38.6l-0.8-0.5c0,0-6.5,28.2-14,41.4
	c-11.6,20.5-29.5,33-52.1,39.2c-11.8,3.1-24,4.6-36.3,4.6c-8.4,0-16.9,0.2-25.3,0s-13.7,4.3-15,12.9c-3.7,23.6-7.4,47.4-11.2,71.1
	c-0.5,3.3-1.1,6.5-1.8,10L84.9,257.1z"/>
<path d="M31.6,253.9h0.3c8.3-0.1,16.7-0.1,25-0.1C48.4,253.7,40,253.8,31.6,253.9z"/>
<path class="st1" d="M175,155.4c22.6-6.2,40.5-18.8,52.1-39.2c10.3-18,15.5-38.4,14.9-59.1c-0.5-18.4-9-32.5-24.7-42.2
	c-10.9-6.7-23.1-9.3-35.6-10.8l-2.7-0.3c-7-0.7-14.1-1.1-21.1-1.1H74.5c-1.5,0-2.9,0.2-4.3,0.7l0,0c-4.9,1.5-8.6,5.7-9.3,10.7
	c-0.6,3.8-1.2,7.5-1.8,11.3c-2.7,17-5.4,34-8.1,50.9c-2.6,16-5.2,32.1-7.6,48.1c-2.4,15.3-4.9,30.5-7.3,45.8l-7.3,45.8l-4.5,28.5
	c-1,6.5,3.4,9.5,8.1,9.5c8.4-0.1,16.9-0.1,25.3-0.1h25.7h2c0.6-3.5,1.2-6.5,1.7-9.9c3.7-23.6,7.5-47.8,11.2-71.5
	c1.3-8.4,6.7-12.8,14.8-12.8h0.9c3.1,0,6.2,0.1,9.4,0.1c5.2,0,10.3,0,15.5,0C151,160,163.2,158.5,175,155.4z"/>
<path class="st2" d="M99.3,168.5c0-0.7,11.4-67.6,15.5-92.7c0.9-5.4,5.6-9.4,11-9.4h70.3c16.8,0.2,32.4,1.7,45,8.3
	c-13.3,83.1-71.9,87.3-126.9,85.5C106,159.9,101.3,163.1,99.3,168.5z"/>
</svg>
