<?xml version="1.0" encoding="utf-8"?>
<!-- Generator: Adobe Illustrator 24.0.3, SVG Export Plug-In . SVG Version: 6.00 Build 0)  -->
<svg version="1.1" id="Layer_1" xmlns="http://www.w3.org/2000/svg" xmlns:xlink="http://www.w3.org/1999/xlink" x="0px" y="0px"
	 viewBox="0 0 300 300" style="enable-background:new 0 0 300 300;" xml:space="preserve">
<style type="text/css">
	.st0{fill:#FFFFFF;}
	.st1{fill:#E60019;}
</style>
<title>pinterest</title>
<g id="art">
	<circle class="st0" cx="146.1" cy="149.5" r="144.6"/>
	<path class="st1" d="M146.1,4.8C66.2,5,1.5,69.9,1.7,149.8c0.1,59.4,36.5,112.6,91.7,134.4c-1.9-13.8-1.7-27.8,0.5-41.6
		c2.6-11.3,16.9-71.9,16.9-71.9c-2.9-6.7-4.4-14-4.3-21.4c0-20.2,11.7-35.1,26.2-35.1c12.4,0,18.3,9.2,18.3,20.3
		c0,12.4-7.8,31-12,48.2c-2.9,11.3,3.9,22.7,15.2,25.6c2,0.5,4.2,0.7,6.3,0.6c25.7,0,45.5-27.2,45.5-66.2
		c0-34.7-24.9-58.8-60.5-58.8c-41.2,0-65.4,30.8-65.4,62.7c0,11.8,3.8,23.4,10.7,33c1,1.1,1.4,2.7,1,4.2c-1.1,4.6-3.6,14.4-4.1,16.4
		c-0.5,2-2.1,3.2-4.9,1.9c-18.3-8.5-29.4-34.8-29.4-56.1c0-45.8,33.1-87.5,95.6-87.5c50.1,0,89.2,35.7,89.2,83.6
		c0,49.9-31.4,90-75,90c-14.6,0-28.4-7.6-33.1-16.7l-9.2,34.4c-4.2,13.4-10.3,26.2-18,38c76.4,23.7,157.5-19,181.2-95.4
		c23.7-76.4-19-157.5-95.4-181.2C175,7,160.6,4.8,146.1,4.8z"/>
</g>
</svg>
