<?xml version="1.0" encoding="utf-8"?>
<!-- Generator: Adobe Illustrator 24.0.3, SVG Export Plug-In . SVG Version: 6.00 Build 0)  -->
<svg version="1.1" id="Layer_1" xmlns="http://www.w3.org/2000/svg" xmlns:xlink="http://www.w3.org/1999/xlink" x="0px" y="0px"
	 viewBox="0 0 288 288" style="enable-background:new 0 0 288 288;" xml:space="preserve">
<style type="text/css">
	.st0{fill:#231F20;}
</style>
<path class="st0" d="M276.8,127.4c-10.9-16.9-33.5-21.8-50.5-10.9c-2.9,1.9-5.6,4.2-7.9,6.9l-13-9.8c3.2-1.3,10.1-4.3,10.5-6.2
	c0.3-1.1-3.2-1.8-8.5-2.2l24.4-22.3c0.2-0.2,0.2-0.4,0.1-0.6l-6.2-11.8c-0.1-0.2-0.4-0.3-0.6-0.2c0,0,0,0,0,0h-0.1l-25.4,23.3
	c-7.6,0-21.1,1-25-1.4c-6.2-3.9-6.9-9.6-9.1-11.7c-2.2-2.1-4.8-2.3-5.5-4.1c0-0.1,0-0.2,0.1-0.2c0,0,0,0,0,0l0,0
	c1.2-0.3,7.9-2.2,9.4-6.8c1.5-4.7-1.6-11-2.1-11.9c0-0.1,0-0.2,0-0.2l7-6.2c0.1-0.1,0.1-0.2,0-0.2c0,0,0,0,0,0c0,0-0.1,0-0.1,0
	L163.8,52l-0.3-0.1c-0.8-1-4.9-5.5-13.1-2.1c-9.9,4.1-8.1,12.6-8.1,12.6c1.3,8.8,4.4,10.6,9.4,13.5c0.1,0,0.2,0.2,0,0.3
	c-3.2,2.7-35.6,29.3-65.6,39.7c-0.3,0.1-0.5,0.4-0.3,0.7c0,0,0,0,0,0c0.1,0.2,0.2,0.3,0.3,0.3c8.7,3.8,34.7,1.8,42.3-2.7
	c0.1-0.1,0.2,0,0.3,0.1c0,0,0,0,0,0c0,0,0,0.1,0,0.1c-0.8,3.2-5.4,21.9,1.8,27.8l0.4,0.3l-9.6,6.8c-1.1,0.8-1.4,2.3-0.6,3.4
	c0.5,0.7,1.3,1.1,2.2,1l5-0.5c3.2-0.3,6.2-1.7,8.5-4l1.6-1.6l14,10.4l-1.6,14.8c-20.1-1.1-37.2,14.3-38.3,34.4
	c-1.1,20.1,14.3,37.2,34.4,38.3s37.2-14.3,38.3-34.4c0.4-6.7-1.1-13.4-4.3-19.3l3.6-2.3c3.6,3.3,9.1,3,12.4-0.6
	c2.1-2.2,2.8-5.4,2-8.3l14.8-4.3c1.2-0.4,2-1.6,1.7-2.8l-0.1-0.5c-0.3-1.1-1.3-1.9-2.4-1.8h-12.6l-0.2-0.1l-3.8-8.6l7.4-44.2l12.1,9
	c-10.8,16.9-5.9,39.4,11.1,50.2c16.9,10.8,39.4,5.9,50.2-11.1C284.4,154.6,284.4,139.3,276.8,127.4L276.8,127.4z M176.5,100
	l17.1-0.3l2.2,4.2c-3.9,0.1-8.1,0.5-12.1,1c-2.9,0.3-6.4-3.4-7.5-4.5c-0.1,0-0.2-0.1-0.2-0.3c0-0.1,0.1-0.2,0.3-0.2
	C176.4,99.9,176.4,99.9,176.5,100L176.5,100L176.5,100z M150.9,127.1c1.5-2.4,9.8-16.3,10.8-21c0-0.1,0.1-0.2,0.2-0.2
	c0,0,0.1,0,0.1,0c5.5,6.4,17.2,10.2,18.1,10.5h0.2l15-4.6l3.4,2.5L183,128.6c-1.7-1.5-3.8-2.4-6.1-2.7c-9.1-1.2-23.2,0.9-25.8,1.3
	C151.1,127.3,150.9,127.3,150.9,127.1c0,0,0-0.2,0.1-0.2L150.9,127.1z M189.5,173.9c-1,0.1-2,0.4-2.9,0.8l-10.7-8.2
	c0-0.1,0-0.2,0-0.2l5.5-11.2c0.1-0.1,0.2-0.1,0.3,0c0,0,0,0,0,0c0,0,0.1,0,0.1,0l8.8,13.8L189.5,173.9z M166.7,161.6l-7.3-5.5
	l14.1-12.9L166.7,161.6z M166.7,142.7l-11.4,10.5l-11.5-8.5C151.5,144.7,159.2,144,166.7,142.7L166.7,142.7z M157.3,160.8l7.5,5.6
	l-0.8,2.5c-0.6,1.8,0.3,3.7,2,4.3l15.7,5.7l0.5,0.3c-0.7,1.8-0.8,3.7-0.2,5.6l-3.5,2.3c-5.4-7.5-13.5-12.6-22.6-14.3L157.3,160.8z
	 M155,180.4c6.9,1.4,13,5.3,17.2,10.9L152.1,204L155,180.4z M164.6,233.1c-13.4,8.6-31.3,4.7-39.9-8.7s-4.7-31.3,8.7-39.9
	c4.9-3.2,10.7-4.8,16.6-4.6l-3.6,28.8c-0.1,1.3,0.8,2.5,2.2,2.7c0.5,0,1-0.1,1.5-0.3l24.5-15.6C181.4,208.7,177.1,225,164.6,233.1
	L164.6,233.1z M185.5,138.5v-0.1c0.2-2.1-0.1-4.1-0.7-6.1l13.3-12.2l-5.7,33.8L185.5,138.5z M262.2,171.2
	c-13.3,8.8-31.1,5.1-39.9-8.2c-6.3-9.5-6.4-21.7-0.3-31.3l22.9,17.1c0.8,0.6,1.9,0.6,2.8,0.1c0.3-0.2,0.5-0.4,0.7-0.6
	c0.8-1.1,0.6-2.6-0.5-3.4L225,127.8c1.8-2.1,3.9-3.8,6.2-5.3c12.7-9.6,30.8-7.1,40.4,5.6c9.6,12.7,7.1,30.8-5.6,40.4
	c-0.9,0.7-1.9,1.3-2.9,1.9c-0.3,0.2-0.7,0.5-1.1,0.7L262.2,171.2z"/>
<path class="st0" d="M188.8,87.3l8.5,0.5c0.4,0,0.8-0.1,1.1-0.4l20.9-19.6c0.1-0.2,0.1-0.4,0-0.5c-0.1-0.1-0.1-0.1-0.2-0.1l-8.2-0.5
	c-0.6,0-1.2,0.2-1.6,0.6l-20.6,19.3c-0.2,0.1-0.2,0.4,0,0.6C188.5,87.3,188.7,87.3,188.8,87.3L188.8,87.3z"/>
<polygon class="st0" points="78.1,210.2 64.8,218.3 52.1,208 56.1,223.9 43.1,232.5 59,234.2 63.6,249.9 69.4,235.1 85.3,236.1 
	73,225.3 "/>
<polygon class="st0" points="93.7,153.1 80.4,161.2 67.7,150.9 71.7,166.7 58.7,175.4 74.5,177.1 79.2,192.8 85,178 100.8,179 
	88.6,168.2 "/>
<polygon class="st0" points="31.4,183.7 36.6,168.7 23.2,176.8 10.6,166.4 14.6,182.3 1.6,191 17.4,192.7 22.1,208.4 27.8,193.6 
	43.7,194.6 "/>
</svg>
