<svg id="1b201192-1587-45ac-b720-0afd2423c273" data-name="Layer 1" xmlns="http://www.w3.org/2000/svg" xmlns:xlink="http://www.w3.org/1999/xlink" viewBox="0 0 186.4 82"><defs><clipPath id="99b26a42-7626-4285-bf37-f9028f6be669"><rect id="3bc79b8b-af2b-46be-9939-698f43001a5d" data-name="SVGID" width="388.49" height="47.97" fill="none"/></clipPath><symbol id="8da199b7-1bb1-4186-a940-9ca9ca184308" data-name="quickenloans" viewBox="0 0 388.49 47.97"><g clip-path="url(#99b26a42-7626-4285-bf37-f9028f6be669)"><path d="M17.66,32.17c-6.23,0-4.6-7.2-3.74-11.65S16,9.05,22,9.05c3,0,4.08,1.81,4.26,4.45a38,38,0,0,1-.81,8.08c-.82,4.21-2.12,10.59-7.77,10.59M.49,20.81C-1.62,31.64,3.05,41.28,14.67,41.28a20.46,20.46,0,0,0,5.25-.64C20.15,46,23,48,28.4,48l4.89-.29,1.78-9.12a13,13,0,0,1-3.3.46c-1.46,0-3.5-.29-3.45-2,5.91-3.39,9.33-10.16,10.48-16.12C41.1,9.05,36.15,0,23.79,0A21,21,0,0,0,8.22,6.19,27.51,27.51,0,0,0,.49,20.81" fill="#b5121b"/></g><path d="M55.63,40.68l.94-4.86h-.12c-2,3.85-6.22,5.46-10.06,5.46-2.45,0-4.73-.56-6.21-2.27-1.69-2.11-1.42-4.73-.87-7.54l4-20.6H54.87l-3.5,18c-.37,1.93-.83,4,1.79,4a3.93,3.93,0,0,0,3.12-1.7A7.48,7.48,0,0,0,57.47,28L60.8,10.88H72.36L66.57,40.68Z" fill="#b5121b"/><path d="M81.31,40.68H69.74l5.8-29.81H87.09L81.31,40.68ZM87.67,7.91H76.12L77.65,0H89.21L87.67,7.91Z" fill="#b5121b"/><path d="M115.37,29.46c-2.55,7.72-8.84,11.82-16.43,11.82-4.32,0-7.62-1-10.17-4.09s-3.06-7.08-2.23-11.34c1.75-9,9.21-15.58,18.37-15.58,7.36,0,12.35,4.31,11.78,11.78l-10.39.88v-.3c0-2,0-4.37-2.59-4.37-3.68,0-4.62,4.85-5.13,7.47-.55,2.8-1.38,7.36,2.42,7.36,2.51,0,3.89-2.28,4.6-4.44l9.77.82Z" fill="#b5121b"/><polygon points="141.48 21.13 147.72 40.68 135.64 40.68 132.35 28.73 128.71 32.47 127.11 40.68 115.56 40.68 123.34 0.61 134.9 0.61 130.69 22.24 133.85 18.91 142.42 10.88 152.47 10.88 141.48 21.13 141.48 21.13" fill="#b5121b"/><path d="M161.11,22.22c.41-2.73,2.1-5.11,5.14-5.11,3.27,0,3.78,2.21,3.21,5.11ZM168.7,30a5,5,0,0,1-5.25,3.63c-3.51,0-4.22-2.34-3.42-5.56h20l.31-1.58c1.9-9.78-2.92-16.2-12.85-16.2a19.89,19.89,0,0,0-12.75,4.61,20.64,20.64,0,0,0-6.57,11.24c-.82,4.27.07,8.37,2.73,11.23s6.88,3.92,11.26,3.92c7.07,0,14.14-3.33,17.36-10.59L168.7,30Z" fill="#b5121b"/><path d="M197,10.88l-.8,4.15h.12c2.07-3.39,5.8-4.76,9.43-4.76,2.8,0,5.85.8,7.15,3.13s.73,5.85.13,8.94l-3.56,18.34H197.94l3.51-18c.35-1.82.84-4.32-1.66-4.32-3.22,0-4,2.74-4.5,5.15l-3.34,17.21H180.37l5.8-29.81Z" fill="#b5121b"/><polygon points="248.38 40.85 220.19 40.85 228.01 0.61 240.42 0.61 234.51 30.99 250.29 30.99 248.38 40.85 248.38 40.85" fill="#b5121b"/><path d="M269.81,17.67c4,0,3,5.2,2.49,8.06-1.55,8-3.61,8.58-5.72,8.58s-3.94-.58-2.39-8.58c.56-2.85,1.62-8.06,5.62-8.06m1.43-7.33a19.57,19.57,0,0,0-19.54,15.8c-1.76,9.07,4.35,15.29,13.49,15.29s17.67-6.22,19.43-15.29c1.86-9.57-4-15.8-13.39-15.8" fill="#b5121b"/><path d="M305,27.4c-.63,3.29-1.42,7-5.81,7-1.82,0-2.89-.82-2.52-2.75.71-3.63,5.57-4.52,8.45-4.81l-.12.58Zm9.59,13.46a16.33,16.33,0,0,1,.34-6.57l2-10.47c.83-4.27,2.05-8.13-1.34-10.89-2.52-2.11-6.95-2.58-10.47-2.58-6.74,0-14.22,1.93-17.42,9.38l10.48,1c.84-2.52,2.93-3.34,5.22-3.34,2.82,0,3.32,1.06,2.8,3.75l0,.23A55.54,55.54,0,0,0,294,23.23c-4.42,1.29-8.72,4.44-9.64,9.18-1.14,5.94,3.13,9,8.7,9a13.4,13.4,0,0,0,10.72-4.76,19.84,19.84,0,0,0-.4,4.19Z" fill="#b5121b"/><path d="M334.55,11.06l-.83,4.26h.11c2.06-3.4,5.77-4.82,9.4-4.82,2.82,0,5.88.83,7.21,3.08,1.4,2.47.74,5.88.14,9L347,41H335.37l3.53-18.16c.35-1.82.84-4.33-1.67-4.33-3.2,0-4,2.75-4.5,5.2L329.37,41H317.75l5.82-30Z" fill="#b5121b"/><path d="M359.34,31.14c.08,2.87,3.24,3.21,5.76,3.21,1.17,0,4.47-.12,4.81-1.87.3-1.52-3.63-1.81-4.66-1.94-6.1-.87-13.3-2.1-11.75-10.05a11.67,11.67,0,0,1,6.16-7.84,20.19,20.19,0,0,1,10-2.28c5.63,0,11.13,2.16,12,7.77l-9.18,1.7c-.48-2.05-2.65-2.64-4.7-2.64-.94,0-3.8.29-4.05,1.58-.18.94.73,1.35,1.46,1.52a42.53,42.53,0,0,0,4.9.7c2.63.35,5.6.76,7.71,2.22a7.12,7.12,0,0,1,2.74,7.6c-1.61,8.27-10.79,10.61-17.53,10.61s-12.41-2.17-13.29-9.1l9.56-1.22Z" fill="#b5121b"/><path d="M382.68,11.31a2.91,2.91,0,1,1,2.91,2.85,2.87,2.87,0,0,1-2.91-2.85m.56,0a2.36,2.36,0,1,0,2.35-2.25,2.3,2.3,0,0,0-2.35,2.25m3.81,1.6h-.55l-.93-1.46H385v1.46h-.48V9.74h1.42a1.6,1.6,0,0,1,.79.15.78.78,0,0,1,.36.68c0,.63-.45.85-1,.87l1,1.46ZM385.53,11c.45,0,1.08.08,1.08-.48,0-.41-.36-.46-.77-.46H385V11Z" fill="#b5121b"/></symbol></defs><title>quickenloans</title><use width="388.49" height="47.97" transform="translate(13.2 31.12) scale(0.41)" xlink:href="#8da199b7-1bb1-4186-a940-9ca9ca184308"/></svg>