<?xml version="1.0" encoding="utf-8"?>
<!-- Generator: Adobe Illustrator 24.0.3, SVG Export Plug-In . SVG Version: 6.00 Build 0)  -->
<svg version="1.1" id="Layer_1" xmlns="http://www.w3.org/2000/svg" xmlns:xlink="http://www.w3.org/1999/xlink" x="0px" y="0px"
	 viewBox="0 0 300 300" style="enable-background:new 0 0 300 300;" xml:space="preserve">
<style type="text/css">
	.st0{fill:#B5121B;}
</style>
<title>quickenloans</title>
<g>
	<g>
		<g>
			<g>
				<path class="st0" d="M14.6,156.2c4.3,0,5.3-4.9,6-8.1c0.4-2,0.6-4.1,0.6-6.2c-0.1-2-1-3.4-3.3-3.4c-4.6,0-5.5,5.4-6.2,8.8
					C11,150.6,9.8,156.2,14.6,156.2 M1.4,147.4c0.8-4.3,2.8-8.2,5.9-11.2c3.1-3.2,7.5-4.9,11.9-4.7c9.5,0,13.3,6.9,11.5,16
					c-0.9,4.6-3.5,9.8-8,12.4c0,1.3,1.5,1.6,2.6,1.6c0.9,0,1.7-0.1,2.5-0.4l-1.4,7l-3.7,0.2c-4.1,0-6.3-1.5-6.5-5.6
					c-1.3,0.3-2.7,0.5-4,0.5C3.4,163.1-0.2,155.7,1.4,147.4"/>
			</g>
		</g>
		<path class="st0" d="M52.1,162.7l4.4-22.9h-8.9L45.1,153c-0.1,0.9-0.4,1.7-0.9,2.4c-0.6,0.8-1.4,1.3-2.4,1.3c-2,0-1.7-1.6-1.4-3.1
			l2.7-13.8h-8.9l-3.1,15.8c-0.4,2.2-0.6,4.2,0.7,5.8c1.1,1.3,2.9,1.7,4.8,1.7c2.9,0,6.2-1.2,7.7-4.2h0.1l-0.7,3.7H52.1z"/>
		<path class="st0" d="M67.8,139.8H59l-4.4,22.9h8.9L67.8,139.8z M69.4,131.5h-8.9l-1.2,6.1h8.9L69.4,131.5z"/>
		<path class="st0" d="M82,153.5c-0.5,1.7-1.6,3.4-3.5,3.4c-2.9,0-2.3-3.5-1.9-5.6c0.4-2,1.1-5.7,3.9-5.7c2,0,2,1.8,2,3.4v0.2l8-0.7
			c0.4-5.7-3.4-9-9-9c-7,0-12.8,5-14.1,11.9c-0.6,3.3-0.2,6.3,1.7,8.7c2,2.4,4.5,3.1,7.8,3.1c5.8,0,10.6-3.1,12.6-9.1
			C89.5,154.1,82,153.5,82,153.5z"/>
		<polygon class="st0" points="109.5,147.7 117.9,139.8 110.2,139.8 103.7,146 101.2,148.5 104.5,132 95.6,132 89.6,162.7 
			98.5,162.7 99.7,156.4 102.5,153.5 105,162.7 114.3,162.7 109.5,147.7 		"/>
		<path class="st0" d="M131,148.5c0.4-2.2,0-3.9-2.5-3.9c-2.3,0-3.6,1.8-3.9,3.9H131z M138.7,155c-2.5,5.6-7.9,8.1-13.3,8.1
			c-3.4,0-6.6-0.8-8.6-3c-2-2.2-2.7-5.3-2.1-8.6c0.7-3.3,2.5-6.4,5-8.6c2.7-2.3,6.2-3.5,9.8-3.5c7.6,0,11.3,4.9,9.9,12.4l-0.2,1.2
			h-15.3c-0.6,2.5-0.1,4.3,2.6,4.3c1.8,0.2,3.5-1,4-2.8L138.7,155z"/>
		<path class="st0" d="M143.8,139.8l-4.4,22.9h8.9l2.6-13.2c0.4-1.8,1-3.9,3.5-3.9c1.9,0,1.5,1.9,1.3,3.3l-2.7,13.8h8.9l2.7-14.1
			c0.5-2.4,0.9-5.1-0.1-6.9c-1-1.8-3.3-2.4-5.5-2.4c-2.8,0-5.6,1.1-7.2,3.7h-0.1l0.6-3.2L143.8,139.8z"/>
		<polygon class="st0" points="191.5,162.8 193,155.2 180.9,155.2 185.4,132 175.9,132 169.9,162.8 191.5,162.8 		"/>
		<path class="st0" d="M207.9,145c-3.1,0-3.9,3.9-4.3,6.1c-1.2,6.1,0.2,6.6,1.8,6.6s3.2-0.5,4.4-6.6C210.2,149,211,145,207.9,145
			 M209,139.4c7.2,0,11.7,4.8,10.3,12.1c-1.3,7-7.9,11.7-14.9,11.7c-7,0-11.7-4.8-10.3-11.7C195.4,144.4,201.7,139.3,209,139.4"/>
		<path class="st0" d="M234.9,152.5l0.1-0.5c-2.2,0.2-5.9,0.9-6.5,3.7c-0.3,1.5,0.5,2.1,1.9,2.1C233.8,157.9,234.4,155,234.9,152.5
			L234.9,152.5z M233.7,162.8c0-1.1,0.1-2.2,0.3-3.2c-2,2.4-5.1,3.8-8.2,3.7c-4.3,0-7.5-2.4-6.7-6.9c0.7-3.6,4-6.1,7.4-7
			c3-0.8,6.2-1.3,9.3-1.4l0-0.2c0.4-2.1,0-2.9-2.1-2.9c-1.8,0-3.4,0.6-4,2.6l-8-0.8c2.5-5.7,8.2-7.2,13.4-7.2c2.7,0,6.1,0.4,8,2
			c2.6,2.1,1.7,5.1,1,8.4l-1.5,8c-0.4,1.6-0.5,3.4-0.3,5L233.7,162.8z"/>
		<path class="st0" d="M249.1,140l-4.5,23h8.9l2.6-13.3c0.4-1.9,1-4,3.5-4c1.9,0,1.5,1.9,1.3,3.3l-2.7,13.9h8.9l2.7-14.1
			c0.5-2.4,1-5-0.1-6.9c-1-1.7-3.4-2.4-5.5-2.4c-2.8,0-5.6,1.1-7.2,3.7h-0.1l0.6-3.3L249.1,140z"/>
		<path class="st0" d="M276.6,155.4l-7.3,0.9c0.7,5.3,5,7,10.2,7c5.2,0,12.2-1.8,13.4-8.1c0.6-2.2-0.3-4.5-2.1-5.8
			c-1.6-1.1-3.9-1.4-5.9-1.7c-1.3-0.1-2.5-0.3-3.8-0.5c-0.6-0.1-1.3-0.4-1.1-1.2c0.2-1,2.4-1.2,3.1-1.2c1.6,0,3.2,0.5,3.6,2l7-1.3
			c-0.7-4.3-4.9-6-9.2-6c-2.7-0.1-5.3,0.5-7.7,1.7c-2.4,1.2-4.1,3.4-4.7,6c-1.2,6.1,4.3,7,9,7.7c0.8,0.1,3.8,0.3,3.6,1.5
			c-0.3,1.3-2.8,1.4-3.7,1.4C279.1,157.8,276.6,157.6,276.6,155.4L276.6,155.4z"/>
		<path class="st0" d="M294.5,140.2C294.5,140.2,294.5,140.2,294.5,140.2c0,1.2,1,2.2,2.2,2.2c0,0,0,0,0,0c1.2,0,2.2-1,2.2-2.3
			c0-1.2-1-2.2-2.3-2.2C295.4,137.9,294.4,138.9,294.5,140.2 M294.9,140.2C294.9,140.2,294.9,140.2,294.9,140.2c0-1,0.8-1.8,1.8-1.7
			c0,0,0,0,0.1,0c1,0,1.8,0.9,1.7,1.9s-0.9,1.8-1.9,1.7C295.6,142,294.9,141.2,294.9,140.2 M297.9,141.4l-0.8-1.1
			c0.4,0,0.8-0.2,0.8-0.7c0-0.2-0.1-0.4-0.3-0.5c-0.2-0.1-0.4-0.1-0.6-0.1h-1.1v2.4h0.4v-1.1h0.4l0.7,1.1H297.9L297.9,141.4z
			 M296.2,140v-0.8h0.6c0.3,0,0.6,0,0.6,0.4c0,0.4-0.5,0.4-0.8,0.4L296.2,140z"/>
	</g>
</g>
</svg>
