<?xml version="1.0" encoding="utf-8"?>
<!-- Generator: Adobe Illustrator 24.0.3, SVG Export Plug-In . SVG Version: 6.00 Build 0)  -->
<svg version="1.1" id="Layer_1" xmlns="http://www.w3.org/2000/svg" xmlns:xlink="http://www.w3.org/1999/xlink" x="0px" y="0px"
	 viewBox="0 0 300 300" style="enable-background:new 0 0 300 300;" xml:space="preserve">
<style type="text/css">
	.st0{clip-path:url(#SVGID_2_);}
	.st1{fill:#E91D25;}
</style>
<title>rackspace</title>
<g>
	<defs>
		<rect id="SVGID_1_" x="1.3" y="121.9" width="294.5" height="59"/>
	</defs>
	<clipPath id="SVGID_2_">
		<use xlink:href="#SVGID_1_"  style="overflow:visible;"/>
	</clipPath>
	<g class="st0">
		<path class="st1" d="M101.4,169.4l3.7-19.3l7.5,19.3H124l-7.8-19.4l14.2-16.6h-11.6l-13.7,16.4l5.3-27.9H99.8l-9,47.5H101.4z
			 M16.1,141.3l1.6-8H8.3l-7,36.6h10.6l2.9-15.1c1.7-8.9,6.8-12.5,14.1-11.3l2.1-10.9C24.6,132,18.6,135.5,16.1,141.3L16.1,141.3z
			 M178.8,147.2c0-1.7-0.4-5.8-4.3-5.8s-7.3,4.5-8.6,11.4c-0.5,2.3-1.7,9.4,3.2,9.4C174.7,162.1,178.8,154.2,178.8,147.2z
			 M189.8,146.3c0,8.7-4.1,17.7-11.7,21.7c-2.4,1.3-5,2-7.7,2.1c-2.9,0.3-5.7-1.1-7.1-3.6l-2.7,14.4h-10.6l9-47.5h9.4l-1.1,5.8
			c2.4-3.8,6.5-6.2,11-6.4C185.3,132.7,189.8,138.1,189.8,146.3L189.8,146.3z M51,144.7c0.2-2-1.2-3.7-3.2-3.9c-0.2,0-0.4,0-0.6,0
			c-5,0-9.3,8.6-9.3,14.6c0,3.7,1.4,6.2,3.8,6.2c3.9,0,7.2-4.1,8.4-10C50.6,149.3,50.9,147.1,51,144.7L51,144.7z M60.8,149.3
			L57,169.4H46.7l1.3-6.9c-1.4,4.7-5.8,7.9-10.7,7.7c-7.1,0-10.3-6.3-10.3-12.5c0-7,2.6-13.8,7.5-18.9c3.9-3.9,9.2-6.1,14.7-6
			c3.6-0.3,7.1,1,9.5,3.7C61.7,140,61.5,145.4,60.8,149.3z M214.4,144.7c0.2-2-1.3-3.7-3.2-3.9c-0.2,0-0.3,0-0.5,0
			c-5,0-9.3,8.6-9.3,14.6c0,3.7,1.4,6.2,3.8,6.2c3.9,0,7.2-4.1,8.4-10C214,149.3,214.3,147.1,214.4,144.7L214.4,144.7z M224.2,149.3
			l-3.8,20.1h-10.3l1.3-6.9c-1.4,4.7-5.8,7.9-10.7,7.7c-7.1,0-10.3-6.3-10.3-12.5c-0.1-7,2.6-13.8,7.5-18.9c3.9-3.9,9.3-6.1,14.8-6
			c3.6-0.3,7.1,1.1,9.5,3.7c3,3.6,2.7,9,2.1,12.9H224.2z M249.3,132.9c-13.3,0-23.4,9.7-23.4,22.6c0,8.9,5.9,14.7,15.1,14.7
			c3.5,0.1,7-0.6,10.3-1.9l1.7-8.9c-2.7,1.5-5.8,2.3-8.9,2.3c-3.7,0.2-6.8-2.6-7-6.3c0-0.3,0-0.7,0-1c-0.3-6.9,5-12.7,11.9-12.9
			c0.1,0,0.1,0,0.2,0c2-0.1,4.1,0.4,5.9,1.4l1.7-8.6C254.3,133.2,251.9,132.8,249.3,132.9L249.3,132.9z M265.9,147.8
			c6.2,0,9.7-0.6,11.3-2.1c1.5-1.5,1.1-5.2-3-5.2C270.1,140.8,266.6,143.8,265.9,147.8L265.9,147.8z M272.8,161.9
			c4.4,0,8.7-1.2,12.5-3.5l-1.7,8.9c-4.2,1.9-8.7,2.9-13.3,2.9c-9.9,0-15.5-5.5-15.5-15.1c0-5.6,2-11,5.6-15.2
			c3.8-4.5,9.4-7.1,15.3-7c7.5,0,12.5,4.3,12.5,10.8c0.1,2.7-0.9,5.4-2.9,7.3c-3.6,3.5-12.3,5.4-20.4,3.9
			C264.3,159.3,267.7,161.9,272.8,161.9L272.8,161.9z M292.1,163.1h-1.2l-0.4,1.9h1.1c0.6,0,1.1-0.4,1.2-1c0.1-0.4-0.1-0.8-0.5-0.9
			C292.2,163.1,292.2,163.1,292.1,163.1L292.1,163.1z M293.4,164.1c-0.2,0.7-0.7,1.3-1.4,1.5l0.7,2.1H292l-0.7-2.1h-1l-0.4,2.1h-0.7
			l1-5.3h1.7c0.8,0,1.4,0.6,1.4,1.4C293.5,163.9,293.5,164,293.4,164.1L293.4,164.1z M295.1,165c-0.2,2.2-2,3.8-4.2,3.9
			c-1.8,0-3.4-1.4-3.4-3.3c0-0.2,0-0.4,0-0.6c0.2-2.1,2-3.8,4.1-3.9c1.9-0.1,3.5,1.3,3.6,3.2C295.2,164.5,295.2,164.8,295.1,165
			L295.1,165z M295.8,165L295.8,165c0.2-2.3-1.5-4.2-3.7-4.4c-0.1,0-0.2,0-0.4,0c-2.5,0.1-4.5,2-4.8,4.4c-0.2,2.3,1.5,4.3,3.7,4.5
			c0.1,0,0.3,0,0.4,0C293.5,169.4,295.5,167.5,295.8,165L295.8,165z M85.9,132.8c-13.3,0-23.4,9.7-23.4,22.6
			c0,8.9,5.9,14.7,15.1,14.7c3.5,0.1,7-0.6,10.3-1.9l1.6-8.8c-2.7,1.5-5.8,2.3-8.9,2.3c-3.7,0.2-6.8-2.6-7-6.3c0-0.4,0-0.7,0-1.1
			c-0.3-6.9,5-12.6,11.9-12.9c0.1,0,0.1,0,0.2,0c2-0.1,4.1,0.4,5.9,1.4l1.6-8.6C90.9,133.2,88.4,132.7,85.9,132.8L85.9,132.8z
			 M151.5,157.4c0.1,3.1-1.1,6-3.3,8.2c-3.7,3.1-8.4,4.7-13.2,4.4c-3.6,0-7.2-0.8-10.4-2.5l1.5-8.2c3.1,1.7,6.5,2.6,9.9,2.8
			c2.6,0,4.4-1.2,4.4-3.2c0-1.9-1.3-3-4.4-4.6c-5-2.3-7.5-5.5-7.5-9.3c0-7.4,6.3-12.3,15.8-12.3c3.5-0.2,7,0.6,10.1,2.3l-1.5,8.1
			c-2.7-1.7-5.8-2.6-9-2.6c-2.8,0-4.6,1.1-4.6,3.1c0,1.4,1.4,2.6,4.3,4.1c3.8,1.9,8.1,4.7,8.1,9.8L151.5,157.4z"/>
	</g>
</g>
</svg>
