<svg id="Layer_1" data-name="Layer 1" xmlns="http://www.w3.org/2000/svg" viewBox="0 0 186.4 82"><defs><style>.cls-1{fill:#bf0000;}</style></defs><title>Rakuten</title><polygon id="shape" class="cls-1" points="128.94 55.41 57.66 55.73 63.37 61.39 128.94 55.41"/><path id="n" class="cls-1" d="M140.37,51.73l-.05-11.37a3.64,3.64,0,1,1,7.25,0l.05,11.37,4.41,0L152,40.31c0-4.69-3.24-8.44-7.93-8.42a7,7,0,0,0-3.76,1.22v-.78l-4.41,0L136,51.68l4.41,0Z"/><path id="e" class="cls-1" d="M125.71,31.9c-5.11,0-8.72,4.51-8.69,10.2,0,6,4.59,10.14,9.21,10.12,2.35,0,5.26-.8,7.73-4.37L130,45.6c-3,4.42-8,2.24-8.61-2.24l12.65-.06C135.19,36.48,130.69,31.88,125.71,31.9Zm3.88,7.66-7.89,0C122.6,35.11,128.71,34.8,129.59,39.56Z"/><path id="t" class="cls-1" d="M115.62,47.22a2.64,2.64,0,0,1-1.49.51,2.16,2.16,0,0,1-2.07-2.34l0-8.31,3.77,0,0-4.62-3.76,0,0-4.84-4.41,0,0,4.84h-2.34l0,4.62h2.34l0,8.31a6.61,6.61,0,0,0,6.57,6.87,9.32,9.32,0,0,0,4.26-1.23Z"/><path id="u" class="cls-1" d="M99.35,32.51l.05,11.37a3.64,3.64,0,1,1-7.25,0L92.1,32.55H87.69l0,11.38c0,4.69,3.24,8.44,7.93,8.42a7,7,0,0,0,3.76-1.23v.71h4.41l-.09-19.34Z"/><polygon id="k" class="cls-1" points="79.49 41.7 86.98 32.57 80.87 32.59 75.57 39.37 75.51 26.22 71.03 26.24 71.15 52.04 75.62 52.02 75.59 44.06 82.16 51.99 88.28 51.97 79.49 41.7"/><path id="a" class="cls-1" d="M64.17,32.67v.85A7.16,7.16,0,0,0,60,32.19c-5,0-8.79,4.59-8.77,10.2s3.82,10.15,8.86,10.13a7,7,0,0,0,4.12-1.37V52l4.41,0-.09-19.33ZM60,47.9c-2.49,0-4.28-2.4-4.29-5.46S57.5,37,60,37s4.21,2.4,4.22,5.46S62.53,47.89,60,47.9Z"/><path id="R" class="cls-1" d="M38.67,52.19l0-7.54h3.2l5.65,7.44,5.76,0-6.87-9a8.2,8.2,0,0,0,3.45-6.83,8.32,8.32,0,0,0-8.35-8.28l-7.53,0,.11,24.17,4.62,0Zm-.09-19.62h3a3.77,3.77,0,1,1,0,7.53h-3Z"/></svg>