<svg id="Layer_1" data-name="Layer 1" xmlns="http://www.w3.org/2000/svg" viewBox="0 0 186.4 82"><title>reddit</title><circle cx="152.61" cy="32.63" r="3.33" style="fill:#ff4500"/><path d="M105.28,46.77a2.34,2.34,0,0,0,2.49-2.4,7.73,7.73,0,0,0-.16-1.34c-1-4.31-4.5-7.49-8.67-7.49C94,35.54,90,40,90,45.53s4,10,8.94,10a8.9,8.9,0,0,0,6.92-2.89,1.93,1.93,0,0,0-.32-2.88,2,2,0,0,0-2.48.25,6.15,6.15,0,0,1-4.12,1.78c-2.51,0-4.61-2.15-5.09-5Zm-6.34-7.49a5.37,5.37,0,0,1,4.91,4.17H94A5.37,5.37,0,0,1,98.94,39.28Z" style="fill:#222"/><path d="M90.21,37.48a1.88,1.88,0,0,0-1.57-1.85,7.24,7.24,0,0,0-6.75,2.45v-.25a1.88,1.88,0,0,0-3.75,0V53.15a1.92,1.92,0,0,0,1.76,1.94,1.87,1.87,0,0,0,2-1.87v-7.9c0-3.5,2.63-6.37,6.24-6h.37A1.87,1.87,0,0,0,90.21,37.48Z" style="fill:#222"/><path d="M154.48,39.49a1.87,1.87,0,0,0-3.74,0V53.22a1.87,1.87,0,1,0,3.74,0Z" style="fill:#222"/><path d="M126.61,29.09a1.87,1.87,0,0,0-1.87-1.87h0a1.87,1.87,0,0,0-1.87,1.87v8.36a6.54,6.54,0,0,0-4.79-1.91c-4.94,0-8.94,4.47-8.94,10s4,10,8.94,10a6.59,6.59,0,0,0,4.82-1.94,1.87,1.87,0,0,0,3.71-.35Zm-8.53,22.68c-2.87,0-5.2-2.8-5.2-6.24s2.33-6.25,5.2-6.25,5.2,2.8,5.2,6.25S121,51.77,118.08,51.77Z" style="fill:#222"/><path d="M146.16,29.09a1.87,1.87,0,0,0-1.87-1.87h0a1.87,1.87,0,0,0-1.87,1.87v8.36a6.53,6.53,0,0,0-4.78-1.91c-4.94,0-8.95,4.47-8.95,10s4,10,8.95,10a6.58,6.58,0,0,0,4.81-1.94,1.87,1.87,0,0,0,3.71-.35Zm-8.52,22.68c-2.88,0-5.2-2.8-5.2-6.24s2.32-6.25,5.2-6.25,5.2,2.8,5.2,6.25S140.51,51.77,137.64,51.77Z" style="fill:#222"/><path d="M164,53.22V39.28h1.66a1.7,1.7,0,0,0,1.72-1.55A1.66,1.66,0,0,0,165.72,36H164V33.32a1.93,1.93,0,0,0-1.75-1.94,1.88,1.88,0,0,0-2,1.87V36H158.7A1.71,1.71,0,0,0,157,37.51a1.67,1.67,0,0,0,1.67,1.77h1.6V53.22a1.87,1.87,0,0,0,1.87,1.87h0A1.87,1.87,0,0,0,164,53.22Z" style="fill:#222"/><circle cx="41.45" cy="40.79" r="26.21" style="fill:#ff4500"/><path d="M58.92,40.79A3.82,3.82,0,0,0,52.45,38,18.8,18.8,0,0,0,42.22,34.8L44,26.61l5.68,1.21a2.73,2.73,0,1,0,.28-1.34l-6.35-1.35a.66.66,0,0,0-.51.1.67.67,0,0,0-.3.43L40.83,34.8A18.69,18.69,0,0,0,30.46,38a3.82,3.82,0,1,0-4.21,6.24,7.33,7.33,0,0,0-.09,1.15c0,5.88,6.84,10.65,15.29,10.65s15.28-4.77,15.28-10.65a7.33,7.33,0,0,0-.09-1.15A3.82,3.82,0,0,0,58.92,40.79ZM32.71,43.52a2.73,2.73,0,1,1,2.74,2.73A2.74,2.74,0,0,1,32.71,43.52Zm15.23,7.22c-1.87,1.86-5.44,2-6.49,2s-4.62-.14-6.48-2a.73.73,0,0,1,0-1,.72.72,0,0,1,1,0c1.18,1.18,3.69,1.6,5.48,1.6s4.31-.42,5.49-1.6a.71.71,0,0,1,1,0A.72.72,0,0,1,47.94,50.74Zm-.48-4.49a2.73,2.73,0,1,1,2.73-2.73A2.73,2.73,0,0,1,47.46,46.25Z" style="fill:#fff"/></svg>