<?xml version="1.0" encoding="utf-8"?>
<!-- Generator: Adobe Illustrator 24.0.3, SVG Export Plug-In . SVG Version: 6.00 Build 0)  -->
<svg version="1.1" id="Layer_1" xmlns="http://www.w3.org/2000/svg" xmlns:xlink="http://www.w3.org/1999/xlink" x="0px" y="0px"
	 viewBox="0 0 288 288" style="enable-background:new 0 0 288 288;" xml:space="preserve">
<style type="text/css">
	.st0{fill:#FF4500;}
	.st1{fill:#FFFFFF;}
</style>
<circle class="st0" cx="144" cy="144.2" r="138.8"/>
<path class="st1" d="M236.5,144.2c0-11.2-9-20.2-20.2-20.2c-5.3,0-10.3,2-14.1,5.7c-13.8-10-32.9-16.4-54.1-17.2l9.2-43.4l30.1,6.4
	c0.4,8,7.3,14.1,15.2,13.7c8-0.4,14.1-7.3,13.7-15.2s-7.3-14.1-15.2-13.7c-5.3,0.3-10,3.4-12.3,8.2l-33.5-7.2
	c-1.9-0.4-3.8,0.9-4.2,2.8l-10.3,48.4c-21.6,0.6-40.9,7.1-54.9,17.2c-8.1-7.7-20.9-7.4-28.6,0.6c-7.7,8.1-7.4,20.9,0.6,28.6
	c1.6,1.6,3.5,2.8,5.6,3.8c-0.3,2-0.5,4.1-0.5,6.1c0,31.1,36.2,56.4,81,56.4s81-25.2,81-56.4c0-2-0.2-4.1-0.5-6.1
	C231.7,159.5,236.5,152.2,236.5,144.2z M97.7,158.7c0-8,6.5-14.5,14.4-14.5c8,0,14.5,6.5,14.5,14.4s-6.5,14.5-14.4,14.5
	C104.2,173.1,97.8,166.7,97.7,158.7L97.7,158.7z M178.4,196.8c-9.9,9.9-28.8,10.6-34.3,10.6s-24.5-0.8-34.3-10.6
	c-1.5-1.5-1.5-3.8,0-5.3s3.8-1.5,5.3,0c6.2,6.2,19.5,8.5,29,8.5c9.5,0,22.8-2.2,29-8.5c1.5-1.5,3.8-1.5,5.3,0
	C179.8,193,179.8,195.4,178.4,196.8z M175.8,173.1c-8,0-14.5-6.5-14.5-14.5c0-8,6.5-14.5,14.5-14.5c8,0,14.5,6.5,14.5,14.5
	c0,0,0,0,0,0C190.3,166.6,183.8,173.1,175.8,173.1C175.8,173.1,175.8,173.1,175.8,173.1L175.8,173.1z"/>
</svg>
