<svg id="c98f024c-9dba-4043-afa5-d7ad6a33ad32" data-name="Layer 1" xmlns="http://www.w3.org/2000/svg" xmlns:xlink="http://www.w3.org/1999/xlink" viewBox="0 0 186.4 82"><defs><symbol id="9584c071-f477-4d15-8134-6e67a1d422c2" data-name="spotify" viewBox="0 0 343.6 103.06"><path d="M51.53,0a51.53,51.53,0,1,0,51.53,51.53A51.53,51.53,0,0,0,51.53,0ZM75.16,74.32a3.21,3.21,0,0,1-4.42,1.07c-12.1-7.4-27.33-9.07-45.27-5A3.21,3.21,0,1,1,24,64.16c19.63-4.49,36.46-2.56,50,5.74A3.21,3.21,0,0,1,75.16,74.32Zm6.31-14a4,4,0,0,1-5.53,1.32c-13.85-8.51-35-11-51.34-6a4,4,0,1,1-2.33-7.69C41,42.24,64.24,45,80.14,54.77A4,4,0,0,1,81.46,60.29ZM82,45.68c-16.61-9.86-44-10.77-59.86-6a4.82,4.82,0,1,1-2.8-9.22C37.55,25,67.81,26,86.93,37.39A4.82,4.82,0,0,1,82,45.68Z" fill="#1db954"/><path d="M140.19,47.57c-8.9-2.12-10.48-3.61-10.48-6.74,0-3,2.78-4.94,6.92-4.94s8,1.51,12.16,4.62a.58.58,0,0,0,.44.11.57.57,0,0,0,.38-.24L154,34.25a.58.58,0,0,0-.11-.79,26.28,26.28,0,0,0-17.09-5.92c-9.61,0-16.32,5.76-16.32,14,0,8.85,5.79,12,15.79,14.39,8.51,2,10,3.6,10,6.54,0,3.25-2.91,5.28-7.58,5.28-5.19,0-9.43-1.75-14.17-5.85a.61.61,0,0,0-.43-.14.58.58,0,0,0-.4.21l-4.87,5.8a.58.58,0,0,0,.06.81,29,29,0,0,0,19.61,7.52c10.35,0,17-5.66,17-14.41C155.45,54.3,151,50.2,140.19,47.57Z" fill="#1db954"/><path d="M178.87,38.79a14,14,0,0,0-11.2,5.39V40.11a.58.58,0,0,0-.58-.58h-8a.58.58,0,0,0-.58.58V85.39a.58.58,0,0,0,.58.58h8a.58.58,0,0,0,.58-.58V71.1a14.31,14.31,0,0,0,11.2,5.07c8.34,0,16.78-6.42,16.78-18.69S187.2,38.79,178.87,38.79Zm7.51,18.69c0,6.25-3.85,10.61-9.36,10.61s-9.56-4.56-9.56-10.61,4.11-10.61,9.56-10.61S186.38,51.34,186.38,57.48Z" fill="#1db954"/><path d="M217.28,38.79a18.73,18.73,0,1,0-.13,37.44c10.77,0,19.21-8.24,19.21-18.75A18.69,18.69,0,0,0,217.28,38.79Zm0,29.36c-5.71,0-10-4.59-10-10.67s4.16-10.54,9.88-10.54,10.08,4.59,10.08,10.68S223,68.16,217.28,68.16Z" fill="#1db954"/><path d="M259.28,39.52h-8.77v-9a.58.58,0,0,0-.58-.58h-8a.58.58,0,0,0-.58.58v9h-3.83a.58.58,0,0,0-.58.58V47a.58.58,0,0,0,.58.58h3.83V65.25C241.39,72.41,244.95,76,252,76a14.53,14.53,0,0,0,7.46-1.86.58.58,0,0,0,.29-.51V67.16a.58.58,0,0,0-.84-.52,10,10,0,0,1-4.68,1.13c-2.56,0-3.7-1.16-3.7-3.76V47.54h8.77a.58.58,0,0,0,.58-.58V40.11A.58.58,0,0,0,259.28,39.52Z" fill="#1db954"/><path d="M289.82,39.56v-1.1c0-3.24,1.24-4.68,4-4.68a13.45,13.45,0,0,1,4.49.83.58.58,0,0,0,.77-.55V27.33a.58.58,0,0,0-.41-.56,21.86,21.86,0,0,0-6.62-1c-7.36,0-11.25,4.14-11.25,12v1.69H277a.59.59,0,0,0-.58.58V47a.59.59,0,0,0,.58.58h3.83V74.86a.58.58,0,0,0,.58.58h8a.58.58,0,0,0,.58-.58V47.54h7.44l11.39,27.32c-1.29,2.87-2.57,3.44-4.3,3.44a9.19,9.19,0,0,1-4.39-1.25.6.6,0,0,0-.46,0,.59.59,0,0,0-.34.31l-2.7,5.92a.58.58,0,0,0,.25.75,16.77,16.77,0,0,0,8.51,2.18c5.88,0,9.13-2.74,12-10.11l13.82-35.71a.58.58,0,0,0-.54-.8h-8.29a.59.59,0,0,0-.55.39l-8.5,24.27L304,39.93a.58.58,0,0,0-.54-.38Z" fill="#1db954"/><rect x="263.57" y="39.52" width="9.13" height="35.92" rx="0.58" ry="0.58" fill="#1db954"/><circle cx="268.17" cy="29.41" r="5.71" fill="#1db954"/><path d="M338,50.7a5.62,5.62,0,1,1,5.64-5.64A5.58,5.58,0,0,1,338,50.7ZM338,40a5.06,5.06,0,1,0,5,5A5,5,0,0,0,338,40Zm1.24,5.62,1.59,2.22h-1.34l-1.43-2h-1.23v2h-1.12V42h2.62c1.37,0,2.27.7,2.27,1.88A1.76,1.76,0,0,1,339.24,45.64ZM338.29,43h-1.46v1.86h1.46c.73,0,1.16-.36,1.16-.93S339,43,338.29,43Z" fill="#1db954"/></symbol></defs><title>spotify</title><use width="343.6" height="103.05" transform="translate(30 22) scale(0.37 0.37)" xlink:href="#9584c071-f477-4d15-8134-6e67a1d422c2"/></svg>