<?xml version="1.0" encoding="utf-8"?>
<!-- Generator: Adobe Illustrator 24.0.3, SVG Export Plug-In . SVG Version: 6.00 Build 0)  -->
<svg version="1.1" id="Layer_1" xmlns="http://www.w3.org/2000/svg" xmlns:xlink="http://www.w3.org/1999/xlink" x="0px" y="0px"
	 viewBox="0 0 288 288" style="enable-background:new 0 0 288 288;" xml:space="preserve">
<style type="text/css">
	.st0{fill:#1DB954;}
</style>
<path class="st0" d="M143.7,5C66.9,5.2,4.8,67.6,5,144.3C5.2,221.1,67.6,283.2,144.3,283C221,282.8,283,220.6,283,144
	C282.9,67.1,220.5,4.9,143.7,5C143.7,5,143.7,5,143.7,5z M207.6,205.5c-2.5,4.1-7.9,5.3-11.9,2.8c-32.7-20-73.9-24.5-122.4-13.4
	c-4.6,1.2-9.3-1.7-10.5-6.3c-1.2-4.6,1.7-9.3,6.3-10.5c0.1,0,0.2,0,0.3-0.1c53.1-12.1,98.6-6.9,135.3,15.5
	C208.8,196,210.1,201.4,207.6,205.5C207.6,205.5,207.6,205.5,207.6,205.5L207.6,205.5z M224.6,167.6c-3.1,5.1-9.8,6.7-14.9,3.6
	c-37.5-23-94.6-29.6-138.8-16.2c-5.7,1.9-11.8-1.2-13.7-6.9c-1.9-5.7,1.2-11.8,6.9-13.7c0.2-0.1,0.3-0.1,0.5-0.1
	c50.6-15.3,113.5-7.9,156.6,18.5C226.2,155.9,227.8,162.5,224.6,167.6z M226,128.2c-44.9-26.6-118.9-29.1-161.8-16.1
	c-6.9,2.1-14.1-1.8-16.2-8.7c-2.1-6.9,1.8-14.1,8.7-16.2c49.2-14.9,131-12,182.8,18.6c6.2,3.7,8.2,11.7,4.5,17.8
	c-3.7,6.2-11.7,8.2-17.8,4.5L226,128.2z"/>
</svg>
