<?xml version="1.0" encoding="utf-8"?>
<!-- Generator: Adobe Illustrator 24.0.3, SVG Export Plug-In . SVG Version: 6.00 Build 0)  -->
<svg version="1.1" id="Layer_1" xmlns="http://www.w3.org/2000/svg" xmlns:xlink="http://www.w3.org/1999/xlink" x="0px" y="0px"
	 viewBox="0 0 288 288" style="enable-background:new 0 0 288 288;" xml:space="preserve">
<style type="text/css">
	.st0{fill-rule:evenodd;clip-rule:evenodd;fill:#6772E5;}
</style>
<g id="Stripe">
	<path class="st0" d="M122.3,87.7c0-11.9,9.9-16.5,25.9-16.5c26.5,0.6,52.4,7.3,75.9,19.6V19c-24.1-9.5-49.9-14.2-75.8-14
		C86.4,5,45.1,37.3,45.1,91.3c0,84.5,116,70.8,116,107.2c0,14.1-12.3,18.7-29.3,18.7c-25.3,0-57.9-10.4-83.5-24.4v72.8
		c26.3,11.4,54.7,17.3,83.4,17.3c63.4,0,107.2-31.4,107.2-86.3C238.9,105.8,122.3,122.1,122.3,87.7z"/>
</g>
</svg>
