<?xml version="1.0" encoding="utf-8"?>
<!-- Generator: Adobe Illustrator 24.0.3, SVG Export Plug-In . SVG Version: 6.00 Build 0)  -->
<svg version="1.1" id="Layer_1" xmlns="http://www.w3.org/2000/svg" xmlns:xlink="http://www.w3.org/1999/xlink" x="0px" y="0px"
	 viewBox="0 0 288 288" style="enable-background:new 0 0 288 288;" xml:space="preserve">
<style type="text/css">
	.st0{fill:#00BF6F;}
</style>
<path class="st0" d="M250.2,157.7c-2.6,0-5.3,0.4-7.8,1c-9.8-38.5-41.1-67.7-80.2-74.7c-1.7-0.3-3.3-0.5-5.1-0.8
	c0.3-9.6,0.7-20.6,14.8-30.6l-2.2-5.6c0,0-27.4,8.4-30.6,32c-1.4-6.4-14.1-14.3-20.5-15.9l-3.2,5.1c5.7,3.4,9.5,9.2,10.4,15.8
	c-39,7-70.4,36.2-80.2,74.7C28.2,154.3,10.4,165,6,182.6s6.3,35.4,23.9,39.8c6.7,1.7,13.7,1.2,20.1-1.3c2.8,7,6.4,13.7,10.7,19.9
	l27.2-18.4l-0.2-0.3c-7.6-10.7-12-23.4-12.4-36.5c-0.8-15,2.9-29.8,12.4-38.6c19.7-16.9,41.2-9.1,54.6,6.9h3.6
	c13.4-16.1,34.9-23.7,54.6-6.9c9.6,8.7,13.2,23.6,12.4,38.6c-0.5,13.1-4.7,25.8-12.4,36.6l-0.2,0.3l27.2,18.4
	c4.3-6.2,7.9-12.9,10.6-19.9c16.9,6.6,35.9-1.7,42.5-18.6s-1.7-35.9-18.6-42.5C258.3,158.5,254.3,157.7,250.2,157.7L250.2,157.7z
	 M37.3,200.2c-5.4,0-9.7-4.3-9.7-9.7c0-5.4,4.3-9.7,9.7-9.7c2,0,3.9,0.6,5.5,1.7c0.1,5.1,0.4,10.2,1,15.2
	C42,199.4,39.7,200.2,37.3,200.2z M250.9,200.2c-2.4,0-4.7-0.9-6.5-2.5c0.6-5,1-10.1,1-15.2c4.4-3,10.4-1.8,13.4,2.6
	c3,4.4,1.8,10.4-2.6,13.4C254.7,199.7,252.8,200.3,250.9,200.2L250.9,200.2L250.9,200.2z"/>
</svg>
