<svg id="Layer_1" data-name="Layer 1" xmlns="http://www.w3.org/2000/svg" viewBox="0 0 186.4 82"><title>thumbtack</title><path d="M128.92,33.72a10.13,10.13,0,0,0-6.06,2l1.5,2.75a6.82,6.82,0,0,1,4-1.32c1.62,0,3.24.41,3.24,2.24l-4.83.61c-2.57.37-4.61,1.91-4.61,4.67,0,2.42,2,4.65,5.3,4.65a5.26,5.26,0,0,0,4.47-2.14l0,1.71h3.85V40.16C135.76,35.89,133.1,33.72,128.92,33.72Zm2.81,8.86a3.26,3.26,0,0,1-3.55,3.59,1.8,1.8,0,0,1-2-1.79,1.94,1.94,0,0,1,1.91-1.94l3.64-.55Z" style="fill:#2f3033"/><path d="M39.59,35.72a5,5,0,0,1,4.23-2,5.48,5.48,0,0,1,5.73,5.74v9.38h-4v-8.1c0-2.13-1.06-3.3-2.87-3.3a3,3,0,0,0-3.12,3.33v8.07h-4V28.11h4v7.61" style="fill:#2f3033;fill-rule:evenodd"/><path d="M92.1,39.49v9.38H88.15v-8.1c0-2.13-1.08-3.3-2.87-3.3a3,3,0,0,0-3.12,3.33v8.07h-4v-8.1c0-2.13-1.07-3.3-2.88-3.3a3,3,0,0,0-3.11,3.33v8.07h-4V34.14H72.1v1.74a4.93,4.93,0,0,1,4.33-2.13,5.6,5.6,0,0,1,4.87,2.52,5.54,5.54,0,0,1,5-2.52,5.47,5.47,0,0,1,5.8,5.74" style="fill:#2f3033;fill-rule:evenodd"/><path d="M102.73,33.75a5.31,5.31,0,0,0-4.32,1.93V28.12h-4V48.87h3.87V47.25a5.4,5.4,0,0,0,4.41,2c4.06,0,7.13-3.33,7.13-7.75S106.8,33.75,102.73,33.75Zm-.65,11.81a3.78,3.78,0,0,1-3.79-4.06,3.8,3.8,0,1,1,7.59,0A3.78,3.78,0,0,1,102.08,45.56Z" style="fill:#2f3033"/><path d="M151,36.53l-2.85,2.39A4.1,4.1,0,0,0,145,37.44a3.76,3.76,0,0,0-3.69,4.06,3.74,3.74,0,0,0,3.67,4.06,4.3,4.3,0,0,0,3.21-1.49L151,46.49a7.26,7.26,0,0,1-5.91,2.76,7.47,7.47,0,0,1-7.85-7.75,7.48,7.48,0,0,1,7.85-7.75A7.17,7.17,0,0,1,151,36.53" style="fill:#2f3033;fill-rule:evenodd"/><polyline points="166.19 34.14 161.41 34.14 156.28 39.62 156.28 28.12 152.31 28.12 152.31 48.87 156.28 48.87 156.28 44.06 158.07 42.2 162.17 48.87 167 48.87 160.85 39.65 166.19 34.14" style="fill:#2f3033;fill-rule:evenodd"/><path d="M61.74,47.29a4.94,4.94,0,0,1-4.23,2,5.49,5.49,0,0,1-5.73-5.75V34.14h4v8.1c0,2.13,1.07,3.3,2.87,3.3a3,3,0,0,0,3.12-3.33V34.14h4V48.87h-4V47.29" style="fill:#2f3033;fill-rule:evenodd"/><path d="M110.39,34.14h2.16V29.77h4v4.37h4.4v3.53h-4.4V43.9a1.55,1.55,0,0,0,1.5,1.66,5.4,5.4,0,0,0,1.89-.52l1.28,3.16a7.59,7.59,0,0,1-4.39,1,4.25,4.25,0,0,1-4.23-4.47v-7.1h-2.16V34.14" style="fill:#2f3033;fill-rule:evenodd"/><path d="M27.7,33.74a5,5,0,0,0-4.24,2V43.1a9.15,9.15,0,0,0,1.23,4.59l.89,1.55.89-1.55A9.26,9.26,0,0,0,27.7,43.1V33.74" style="fill:#2f3033;fill-rule:evenodd"/><rect x="16.86" y="28.11" width="17.43" height="3.97" style="fill:#2f3033"/></svg>