<?xml version="1.0" encoding="utf-8"?>
<!-- Generator: Adobe Illustrator 24.0.3, SVG Export Plug-In . SVG Version: 6.00 Build 0)  -->
<svg version="1.1" id="Layer_1" xmlns="http://www.w3.org/2000/svg" xmlns:xlink="http://www.w3.org/1999/xlink" x="0px" y="0px"
	 viewBox="0 0 288 288" style="enable-background:new 0 0 288 288;" xml:space="preserve">
<style type="text/css">
	.st0{fill:#34E0A1;}
</style>
<rect class="st0" width="288" height="288"/>
<path d="M257.8,107.5L280,83.4h-49.3c-52.3-35.6-121-35.6-173.2,0H8.1l22.2,24.2c-27.8,25.2-29.9,68.2-4.6,96s68.2,29.9,96,4.6
	l0.6-0.6l21.8,23.7l21.8-23.7c27.6,25.4,70.6,23.6,96-4.1C287.2,175.9,285.4,132.9,257.8,107.5L257.8,107.5L257.8,107.5z
	 M76.1,203.7c-25.4,0-46-20.5-46-45.9s20.5-46,45.9-46c25.4,0,46,20.5,46,45.9c0,0,0,0,0,0l0,0C122,183.1,101.4,203.7,76.1,203.7z
	 M144,156.4c0-30.3-22-56.2-51-67.3c32.7-13.6,69.4-13.6,102.1,0C166,100.2,144,126.2,144,156.4z M211.9,203.7
	c-25.4,0-46-20.6-46-46c0-25.4,20.6-46,46-46c25.4,0,46,20.6,46,46C257.9,183.2,237.3,203.7,211.9,203.7
	C211.9,203.7,211.9,203.7,211.9,203.7L211.9,203.7z M211.9,133.7c-13.3,0-24.1,10.8-24.1,24.1c0,13.3,10.8,24.1,24.1,24.1
	s24.1-10.8,24.1-24.1l0,0C236,144.5,225.3,133.7,211.9,133.7L211.9,133.7z M100.1,157.8c0,13.3-10.8,24.1-24.1,24.1
	c-13.3,0-24.1-10.8-24.1-24.1c0-13.3,10.8-24.1,24.1-24.1c0,0,0,0,0,0l0,0C89.4,133.6,100.2,144.4,100.1,157.8L100.1,157.8
	L100.1,157.8z"/>
</svg>
