<?xml version="1.0" encoding="utf-8"?>
<!-- Generator: Adobe Illustrator 24.0.3, SVG Export Plug-In . SVG Version: 6.00 Build 0)  -->
<svg version="1.1" id="Layer_1" xmlns="http://www.w3.org/2000/svg" xmlns:xlink="http://www.w3.org/1999/xlink" x="0px" y="0px"
	 viewBox="0 0 288 288" style="enable-background:new 0 0 288 288;" xml:space="preserve">
<style type="text/css">
	.st0{fill:#231F1F;}
	.st1{fill:#FFFFFF;}
</style>
<rect class="st0" width="288" height="288"/>
<polygon class="st1" points="37.9,130 52.7,130 52.7,166 60.2,166 60.2,130 75.2,130 75.2,122.2 37.9,122.2 "/>
<path class="st1" d="M116.7,149.2c0,3.8-0.9,6.3-2.8,7.8c-1.9,1.5-4.3,2.1-8.3,2.1c-4.9,0-8.2-0.9-10.1-2.9c-1.9-1.9-2.1-4.1-2.1-7
	v-27h-7.6v27c0,3.6,0.2,6.9,2.5,10.3c1.4,2.2,6,7.3,16.4,7.3c4.3,0,12.3-0.8,16.5-6.4c2.9-3.8,3.1-7,3.1-11.2v-26.9h-7.6V149.2z"/>
<path class="st1" d="M176,136.2c0-8-5.5-14-13.9-14h-25.5V166h7.7v-15.9h14.4l8.8,15.9h8.6l-9.2-16.4
	C172.7,147.8,176,142.4,176,136.2 M162.1,142.3h-17.8v-12.4h17.9c4.2,0,6.3,2.5,6.3,6C168.4,138.5,167.3,142.3,162.1,142.3"/>
<path class="st1" d="M207.7,121c-12.9,0-23.3,10.1-23.3,22.5c-0.5,12.9,9.6,23.7,22.5,24.2c12.9,0.5,23.7-9.6,24.2-22.5
	c0.5-12.9-9.6-23.7-22.5-24.2C208.3,121,208,121,207.7,121 M218.7,154.7c-3,2.9-6.9,4.4-11,4.4c-4.1,0-8-1.6-11-4.3
	c-3-2.7-4.7-6.6-4.7-10.7c-0.1-4.2,1.6-8.2,4.5-11.1c6.3-5.7,15.9-5.8,22.2-0.1c3,2.8,4.7,6.7,4.7,10.8
	C223.3,147.9,221.6,151.9,218.7,154.7"/>
<path class="st1" d="M250.2,101.2L250.2,101.2l-1.7-2.2l0,0c-0.5-0.6-1-1.2-1.5-1.7c-3-2.8-6.9-4.4-11-4.4H5v102.3h231
	c4.1,0,8.1-1.6,11-4.4c0.5-0.5,1-1.1,1.5-1.7V189l34.4-45L250.2,101.2z M242.7,184.3L242.7,184.3L242.7,184.3
	c-0.2,0.3-0.5,0.6-0.8,0.9c-1.6,1.5-3.7,2.3-5.8,2.3H12.5v-87.1H236c2.2,0,4.3,0.8,5.8,2.3c0.3,0.3,0.6,0.6,0.8,0.9l0,0l0,0
	l9.5,12.4l21.4,27.9L242.7,184.3z"/>
</svg>
