<?xml version="1.0" encoding="utf-8"?>
<!-- Generator: Adobe Illustrator 24.0.3, SVG Export Plug-In . SVG Version: 6.00 Build 0)  -->
<svg version="1.1" id="Layer_1" xmlns="http://www.w3.org/2000/svg" xmlns:xlink="http://www.w3.org/1999/xlink" x="0px" y="0px"
	 viewBox="0 0 288 288" style="enable-background:new 0 0 288 288;" xml:space="preserve">
<style type="text/css">
	.st0{fill:#5FA7DC;}
</style>
<g id="twitter">
	<path class="st0" d="M5,233.2c29.6,3,59.3-5.5,82.8-23.8c-1.3-0.6-2.7-0.9-4.1-0.9c-11.8-1.1-22.9-5.9-31.8-13.7
		c-6.7-5.8-12-13.1-15.4-21.2c-0.6-1.4-1-2.8-1.8-4.5c0.8,0,1.6,0,2.4,0c6.7,1,13.6,0.8,20.3-0.7c0.4-0.1,0.8-0.2,1.2-0.3
		s0.3-0.2,0.5-0.4c-0.7-0.5-1.5-0.9-2.3-1c-6.4-1.8-12.4-4.7-17.8-8.6c-12.9-9.1-21.4-23-23.7-38.6c-0.3-2.3-0.5-4.6-0.6-6.9
		c0-0.8,0.1-1.6,0.2-2.3c7.5,4.1,15.9,6.3,24.4,6.5c-17-13.5-25.4-30.8-24.1-52.7c0.4-7.5,4.2-19.6,7.7-23.8c0.7,0.7,1.4,1.4,2,2.1
		c3.5,3.9,7,7.9,10.7,11.6c16.3,16,35.7,28.4,57.2,36.4c13.5,5.1,27.7,8.3,42.1,9.5c1.6,0.1,3.3,0.2,4.9,0.3
		c0.4-0.1,0.7-0.2,1.1-0.3c-0.3-2.5-0.6-4.9-0.8-7.4c-1.1-9.4,0.3-19,4.1-27.7c7.9-18.2,21.4-29.8,40.6-34.3
		c17.5-4,33.6,0,47.9,11.1c1.6,1.2,3,2.5,4.4,3.9c1.1,1.4,2.9,1.9,4.6,1.4c8-1.8,15.8-4.5,23.2-7.9c2.6-1.3,5.3-2.7,7.9-4
		c0.6-0.3,1.3-0.6,2.4-1.1c-2,6.3-5.1,12.2-9.2,17.4c-4,5.1-8.8,9.5-14.1,13.2c0.9,0.9,1.9,0.5,2.6,0.4c8.5-1.3,16.8-3.6,24.8-6.9
		l3.4-1.4c-0.6,1-0.9,1.6-1.3,2.1c-6.8,9.8-15.2,18.5-24.7,25.8c-1.6,1.1-2.6,3-2.4,5c0.9,28.9-5.9,55.9-18.9,81.5
		c-8.9,17.6-20.9,33.5-35.5,46.9c-20.8,19.2-46.6,32.3-74.4,37.7c-8.1,1.5-16.3,2.6-24.6,3.1c-5.2,0.5-10.3,0.3-15.4,0.3
		c-4.2-0.1-8.3-0.5-12.4-1.1c-15.8-1.8-31.3-5.9-45.9-12.3c-7.4-3.2-14.5-6.9-21.4-11.2c-0.4-0.2-0.8-0.6-1.2-0.9L5,233.2z"/>
</g>
</svg>
