<?xml version="1.0" encoding="utf-8"?>
<!-- Generator: Adobe Illustrator 24.0.3, SVG Export Plug-In . SVG Version: 6.00 Build 0)  -->
<svg version="1.1" id="Layer_1" xmlns="http://www.w3.org/2000/svg" xmlns:xlink="http://www.w3.org/1999/xlink" x="0px" y="0px"
	 viewBox="0 0 288 288" style="enable-background:new 0 0 288 288;" xml:space="preserve">
<style type="text/css">
	.st0{fill:#010202;}
	.st1{fill:#FFFFFF;}
</style>
<rect class="st0" width="288" height="288"/>
<path class="st1" d="M23.7,164.2c1.1,2.9,2.7,5.6,4.8,7.8c2,2.2,4.5,3.9,7.2,5c2.9,1.2,6,1.7,9.1,1.7c3.1,0,6.1-0.6,8.9-1.8
	c2.7-1.1,5.2-2.8,7.3-5c2.1-2.2,3.8-4.9,4.8-7.8c1.2-3.2,1.8-6.6,1.7-10.1V96.9h13.9v92.8H67.7v-8.6c-3.1,3.3-6.8,5.8-10.9,7.6
	c-4.3,1.7-8.9,2.6-13.5,2.5c-4.7,0-9.5-0.8-13.9-2.6c-4.2-1.6-8-4.1-11.2-7.4c-3.2-3.3-5.8-7.2-7.5-11.5C8.8,165,7.9,160,8,154.9
	V96.8h14V154C21.9,157.5,22.5,161,23.7,164.2z"/>
<path class="st1" d="M105.4,96.8v33.8c3.1-3.1,6.7-5.6,10.7-7.4c4.2-1.8,8.7-2.8,13.3-2.7c4.8,0,9.5,0.9,13.9,2.8
	c8.5,3.6,15.3,10.3,18.8,18.8c1.9,4.4,2.8,9,2.8,13.8c0,4.7-0.9,9.4-2.8,13.7c-1.8,4.2-4.4,8-7.6,11.2c-3.2,3.2-7.1,5.8-11.3,7.6
	c-4.4,1.9-9.1,2.8-13.9,2.8c-4.6,0-9.1-0.9-13.3-2.7c-4-1.8-7.7-4.3-10.8-7.4v8.5H92.1V96.7L105.4,96.8z M107,165.2
	c1.2,2.8,2.8,5.3,5,7.5c2.1,2.1,4.7,3.8,7.5,5c2.9,1.3,6,1.9,9.1,1.9c3.1,0,6.2-0.6,9-1.9c2.8-1.2,5.3-2.9,7.4-5
	c2.1-2.2,3.8-4.7,5-7.5c1.3-2.9,1.9-6,1.9-9.2c0-3.2-0.6-6.3-1.9-9.2c-1.2-2.8-2.9-5.3-5-7.5c-2.1-2.1-4.6-3.8-7.4-5
	c-8.7-3.6-18.8-1.7-25.5,5c-2.1,2.1-3.9,4.7-5,7.5c-1.2,2.9-1.9,6.1-1.9,9.2C105.2,159.1,105.8,162.3,107,165.2z"/>
<path class="st1" d="M172.6,142.3c1.7-4.2,4.2-8,7.3-11.2c10-10.1,25.2-13.2,38.3-7.8c4,1.7,7.7,4.2,10.7,7.4c3.1,3.2,5.5,7,7,11.2
	c1.7,4.5,2.5,9.2,2.5,14v4.3h-55c0.4,2.7,1.3,5.3,2.7,7.6c1.3,2.3,3,4.4,5,6.1c2,1.7,4.3,3.1,6.8,4c2.6,1,5.3,1.5,8,1.5
	c7.8,0.1,15.1-3.6,19.5-10l9.7,7.2c-6.8,9.3-17.7,14.7-29.2,14.5c-4.8,0-9.6-0.9-14.1-2.7c-4.3-1.7-8.1-4.2-11.4-7.5
	c-3.2-3.2-5.8-7-7.6-11.2C169.1,161,169,151.1,172.6,142.3L172.6,142.3z M191.3,137c-3.8,3.2-6.4,7.7-7.5,12.5h41.2
	c-1-4.9-3.6-9.3-7.4-12.5C210,130.8,199,130.8,191.3,137L191.3,137z"/>
<path class="st1" d="M263.6,138.6c-2.8,3.1-4.2,7.3-4.2,12.6v38.4h-13.4V122h13.3v8.3c1.6-2.7,3.9-4.9,6.6-6.5
	c2.9-1.7,6.3-2.5,9.6-2.4h4.6v12.4h-5.6C270.3,133.8,266.3,135.5,263.6,138.6z"/>
</svg>
