<svg id="6e98b4ab-fcd2-4815-a028-e8b8ed846ba6" data-name="Layer 1" xmlns="http://www.w3.org/2000/svg" xmlns:xlink="http://www.w3.org/1999/xlink" viewBox="0 0 186.4 82"><defs><symbol id="16a6e649-c110-415a-aae6-018eb97e881c" data-name="upwork" viewBox="0 0 282.66 78.97"><path d="M172.16,18.24a21.35,21.35,0,1,0,21.35,21.35A21.35,21.35,0,0,0,172.16,18.24Zm0,33.9a12.55,12.55,0,1,1,12.56-12.55A12.56,12.56,0,0,1,172.16,52.14Z" fill="#4c4b4c"/><path d="M219.47,28.48a11,11,0,0,0-11,11V59.74H199.3V19.44h9.14v6.21a14.59,14.59,0,0,1,11.9-6.21h2.8v9Z" fill="#4c4b4c"/><polygon points="126.81 19.44 133.72 47.33 141.33 19.44 150.41 19.44 138.7 59.73 129.62 59.73 122.45 31.69 115.29 59.73 106.21 59.73 94.5 19.44 103.58 19.44 111.19 47.33 118.1 19.44 126.81 19.44" fill="#4c4b4c"/><path d="M250.12,38A21.34,21.34,0,0,0,261,19.44h-9.14a12.19,12.19,0,0,1-12.18,12.18h-1.22V0h-9.14V59.74h9.14v-19h1.09a3.62,3.62,0,0,1,2.59,1.31l13,17.67h11Z" fill="#4c4b4c"/><path d="M72.77,18.24c-10,0-17.68,6.46-20.82,17.12a87.54,87.54,0,0,1-10.54-23.1H30.69V40.15a10,10,0,0,1-20,0V12.26H0V40.15a20.71,20.71,0,1,0,41.42,0V35.48A66,66,0,0,0,49.16,48.1L42.6,79h11l4.76-22.39a26.43,26.43,0,0,0,14.45,4.36,21.35,21.35,0,0,0,0-42.7Zm0,31.91c-4.33,0-8.38-1.83-12.06-4.81l.9-4.22,0-.16c.81-4.48,3.33-12,11.13-12a10.6,10.6,0,1,1,0,21.19Z" fill="#7dc246"/><path d="M267.94,20.42h-3.05v-.95H272v.95H269v8.15h-1Z" fill="#4b4a4b"/><path d="M274,19.48h1l3.31,5,3.31-5h1v9.09h-1V21.2l-3.31,4.87h-.05L275,21.22v7.35h-1Z" fill="#4b4a4b"/></symbol></defs><title>upwork</title><use width="282.66" height="78.97" transform="translate(35 25) scale(0.41 0.41)" xlink:href="#16a6e649-c110-415a-aae6-018eb97e881c"/></svg>