<?xml version="1.0" encoding="utf-8"?>
<!-- Generator: Adobe Illustrator 24.0.3, SVG Export Plug-In . SVG Version: 6.00 Build 0)  -->
<svg version="1.1" id="Layer_1" xmlns="http://www.w3.org/2000/svg" xmlns:xlink="http://www.w3.org/1999/xlink" x="0px" y="0px"
	 viewBox="0 0 288 288" style="enable-background:new 0 0 288 288;" xml:space="preserve">
<style type="text/css">
	.st0{fill:#7DC146;}
	.st1{fill:#FFFFFF;}
</style>
<rect class="st0" width="288" height="288"/>
<path class="st1" d="M217.3,80c-28.4,0-50.4,18.2-59.3,48.1c-13.6-20.2-24-44.5-30-65H97.4v78.4c0,15.7-12.7,28.4-28.4,28.4
	c-15.7,0-28.4-12.7-28.4-28.4V63.2H10v78.4c0.5,32.6,27.3,58.6,59.9,58c31.8-0.5,57.5-26.2,58-58v-13.1c6,12.6,13.4,24.5,22.1,35.5
	l-18.7,86.8h31.2l13.6-63c12.3,8,26.6,12.3,41.2,12.3c33.5,0,60.7-27,60.7-60.1S250.8,80,217.3,80z M217.3,169.7
	c-12.3,0-23.9-5.2-34.4-13.5l2.6-11.9l0.1-0.5c2.3-12.6,9.5-33.7,31.7-33.7c16.5,0,29.8,13.3,29.8,29.8S233.7,169.7,217.3,169.7
	L217.3,169.7L217.3,169.7z"/>
</svg>
