<?xml version="1.0" encoding="utf-8"?>
<!-- Generator: Adobe Illustrator 24.0.3, SVG Export Plug-In . SVG Version: 6.00 Build 0)  -->
<svg version="1.1" id="Layer_1" xmlns="http://www.w3.org/2000/svg" xmlns:xlink="http://www.w3.org/1999/xlink" x="0px" y="0px"
	 viewBox="0 0 288 288" style="enable-background:new 0 0 288 288;" xml:space="preserve">
<style type="text/css">
	.st0{fill:#182E5A;}
	.st1{fill:#8EC089;}
	.st2{fill:#E85F24;}
	.st3{fill:#245ABC;}
	.st4{fill:#1C4695;}
	.st5{fill:#318EEE;}
</style>
<rect class="st0" width="288" height="288"/>
<g id="Stripes">
	<g id="V">
		<g id="Stem">
			<path class="st1" d="M145.8,198.8l6.6-13.8L130.2,71.6c-6.2-31.9,1.2-45.9,26.3-50.7v-0.4h-23.2c-6.7,3.3-20.9,13.4-13,51.3
				L145.8,198.8z"/>
			<path class="st2" d="M132.7,226.2l6.6-13.7L109.9,70.9c-5.5-27.5-3.1-41.8,6-50v-0.4h-15.6c-4.8,10.2-6.3,20.5-0.8,47.7
				L132.7,226.2z"/>
			<path class="st3" d="M60.4,20.5H43.9v0.4c7.4,8.9,9.5,19.8,15.3,43.7l43.9,202.9h9.9L68.9,63.9C62.8,37.8,61.7,30.6,60.4,20.5z"
				/>
			<path class="st4" d="M119.6,253.5l6.5-13.5L89.6,67.8c-6.4-26.7-5-39-2.3-47.3H73.1c-0.2,10.8,0.3,19.9,5.5,42.8L119.6,253.5z"/>
			<path class="st5" d="M27.5,20.5H10v0.4c16,6.3,23.9,18.6,30.2,47c0,0.3,43.2,199.6,43.2,199.6h9.8L49.8,66.3
				C42.3,31.9,34.4,25.5,27.5,20.5z"/>
		</g>
		<g id="Finial">
			<path class="st2" d="M190.8,109.3l0.7,0.4c24.4-57.9,30.9-73.8,40.9-88.8v-0.4h-19.8v0.6C214.5,44.2,206.5,65.4,190.8,109.3z"/>
			<path class="st4" d="M251,20.5c-20.7,12.1-33,34.5-58.9,89.7l0.7,0.4c29.8-55.8,46.8-78.1,85.2-89.7v-0.4H251z"/>
			<path class="st1" d="M189.5,108.5l0.7,0.4c15.5-51.6,20.5-74.5,6.8-88.3h-19.5V21C199.2,28.6,204,50.8,189.5,108.5z"/>
		</g>
	</g>
</g>
</svg>
