<svg id="Layer_1" data-name="Layer 1" xmlns="http://www.w3.org/2000/svg" viewBox="0 0 186.4 82"><title>VRBO</title><path d="M171.29,34.05v1.76H171V34.05h-.76V33.8h1.8v.25Zm3,1.76-.05-1.7h0l-.63,1.67h-.3l-.57-1.67h0l-.06,1.7h-.24l.08-2h.44l.54,1.69h0l.6-1.69h.42l.08,2Z" fill="#1c4695"/><g id="Stripes"><g id="_0" data-name="0"><g id="Right_bowl" data-name="Right bowl"><path d="M143.89,66.74a24.71,24.71,0,0,0,23.05-24.08c.06-3.81-2.63-10.07-11.39-10.78l0,.08c7.24.76,9.81,6,9.75,9.51-.2,11.62-9.22,24-21.34,25.19Z" fill="#1c4695"/><path d="M144.14,66.22l0,.08c7.84-1.12,15.92-17.58,16.11-28.55,0-2.39-1.31-4.84-4.87-5.43l0,.09a3.84,3.84,0,0,1,3.18,4.15C158.29,47.28,150.45,65.05,144.14,66.22Z" fill="#1c4695"/><path d="M144,66.52c10.72-1.11,19.34-14.9,19.54-26.31.05-3.11-2-7.43-8.09-8.11l0,.08c4.82.72,6.51,4.08,6.46,6.83-.19,11.19-8.6,26.2-17.84,27.43Z" fill="#1c4695"/><path d="M155.66,31.67l0,.07c10.08.85,13,8,12.91,12.19-.21,12.06-9.56,21.8-24.7,22.95l0,.07c16.57-1,26.26-9.55,26.47-21.83C170.34,40.61,167.05,32.33,155.66,31.67Z" fill="#1c4695"/></g><g id="Left_bowl" data-name="Left bowl"><path d="M129.24,54.6c.21-12,10.54-21.81,24.72-23l0-.08c-15.88,1-26.27,9.55-26.48,21.76-.08,4.52,3.21,12.87,14.61,13.53l0-.08C132.13,66.08,129.17,58.76,129.24,54.6Z" fill="#318eee"/><path d="M139.22,62c.18-10.32,8.31-28.44,14.42-29.67l0-.08c-7.57,1.11-15.94,17.86-16.12,28.48a5.13,5.13,0,0,0,4.87,5.52l0-.08C140,65.71,139.19,64,139.22,62Z" fill="#245abc"/><path d="M132.57,57.05c.2-11.41,9.5-23.95,21.28-25.19l0-.07c-13.2,1-22.85,12.29-23.06,24-.06,3.81,2.63,10.28,11.39,10.86l0-.08C134.67,65.89,132.51,60.52,132.57,57.05Z" fill="#318eee"/><path d="M135.89,59.51c.19-10.91,9-26.2,17.86-27.43l0-.08c-10.45,1.11-19.36,15.11-19.56,26.25,0,3.1,2,7.69,8.1,8.19l0-.08C137.54,65.76,135.85,62.26,135.89,59.51Z" fill="#245abc"/></g></g><g id="b"><g id="Bowl"><path d="M96.64,66.42l0,.07C109,65,118.12,50,119,40.32c.3-3.18-1.17-4.89-3.34-5.18-3.29-.46-7.4,1.75-9.93,5.31l.06.08c2.42-3.12,5.79-5,8.45-4.61,1.89.26,3,1.69,2.79,4.28C116.23,49,107.83,64.08,96.64,66.42Z" fill="#1c4695"/><path d="M96.78,66.12l0,.1c9.08-2.45,17.61-18.29,18.34-26.07.19-2-.7-3.17-2.17-3.37-2.17-.3-5,1.34-7,3.92l.06.08c1.68-2,3.94-3.43,5.55-3.21,1,.14,1.75,1.06,1.61,2.55C112.52,46.92,104.66,62.72,96.78,66.12Z" fill="#1c4695"/><path d="M122.92,40.41c.4-4.3-1.52-6.51-4.53-6.93-4.34-.59-9.63,2.06-12.83,6.72l.06.08c2.93-4,7.63-6.53,11.42-6,2.59.36,4.32,2.32,4,6.1-1,10.73-11.23,25.48-24.49,26.3l0,.07C111.23,66.66,121.83,52.1,122.92,40.41Z" fill="#1c4695"/><path d="M121.16,31.84c-5.46-.75-12.07,2.46-15.79,8.11l.06.08C109,35,114.91,32,119.81,32.63c3.3.45,5.55,2.94,5.09,7.82-1.16,12.46-11.67,26.48-28.48,26.43l0,.1c17.45.66,29.26-13.07,30.51-26.48C127.39,35.09,124.88,32.35,121.16,31.84Z" fill="#1c4695"/></g><g id="Stem"><path d="M95.35,57.22c-.63,1.54-2,4.85-2.06,6.69A2.47,2.47,0,0,0,94.65,66a1.88,1.88,0,0,0,.39.16l.06-.11a1.63,1.63,0,0,1-.44-1.42c.17-1.82,1.61-5.12,2.24-6.73l16.91-43.13-2.32.47c.12.55-4.45,11.81-4.64,12.37Z" fill="#1c4695"/><path d="M95.86,27.83,86,53.22a21.15,21.15,0,0,0-1.63,5.66c-.37,4.17,3.26,7.58,10.4,7.85l0-.07c-6-.34-9.29-3.19-9-6.94a22.22,22.22,0,0,1,1.71-5.8L97.74,27.8c.91-2.39,3.61-8.25,2.15-10.21l-2.31.47v.13C99.14,20.39,96.93,25.18,95.86,27.83Z" fill="#318eee"/><path d="M99.72,27.28,89.12,54.55a25.41,25.41,0,0,0-1.8,6c-.29,3.34,2.44,5.63,7.55,6l0-.07a13,13,0,0,1-3.09-.73c-2.1-.76-3.14-2.22-3-4.27a26.11,26.11,0,0,1,1.83-6.23l10.86-27.9c.55-1.48,3.65-8.53,2.91-10.69l-2.25.45v.13C103.37,18.92,100.44,25.45,99.72,27.28Z" fill="#245abc"/><path d="M92.23,55.88a29,29,0,0,0-1.91,6.44c-.2,2.35,1.86,3.63,4.63,4.06l0-.08c-1.89-.34-3.35-1.24-3.19-3.14a33.17,33.17,0,0,1,2-6.57l11.31-29c.28-.77,4.57-11.17,4-11.84l-2.32.47v.13c.09,2.54-2.85,9.47-3.44,11.1Z" fill="#245abc"/><path d="M94.72,66.86c-8.11-.34-12.21-4.3-11.81-8.89a19.72,19.72,0,0,1,1.54-5.38l9.39-24.26c1.17-3,3.36-7.59,1.63-9.85l-2.12.45v.13c1.81,2,.13,5.37-1.1,8.76L82.9,51.89a17.44,17.44,0,0,0-1.46,5.24c-.43,5,4,9.53,13.24,9.81Z" fill="#318eee"/></g></g><g id="r"><path d="M84,36.3c-.17-3.23-2.07-4.7-4.38-4.7-4.21,0-7.89,3.32-10.13,7.84,0-.51,0-1,0-1.6-.18-3.51-2.57-6.24-6.92-6.24-9.13,0-13.65,6-15.15,12.83h.08C49.1,38,53.35,32.3,61.56,32.3c3.93,0,6.1,2.45,6.26,5.61C68,42.05,66.67,45.28,65.25,49L58.59,66.4h1.82L67,49.14c.45-1.19.87-2.29,1.24-3.37h0C69.58,43,71.19,40.23,72,40.23c.63,0,.82.53.86,1a14.58,14.58,0,0,1-2,7.4l.07.07a13.69,13.69,0,0,0,3.43-8.21C74.38,39.6,74,39,73.09,39c-1.42,0-3.23,2.92-4.57,6,.16-.49.29-1,.42-1.47,1.43-3.1,3.4-5.73,5.28-5.73,1.12,0,1.79.77,1.86,2,.16,3.08-2.62,7.58-4.93,9l.08.07c3.15-1.4,6.63-6,6.43-9.83-.09-1.68-1-2.59-2.39-2.59-2.31,0-4.57,2.69-6.12,6,.06-.26.1-.53.14-.79,1.74-3.6,4.29-6.45,7.11-6.45,1.55,0,2.73,1.06,2.83,3.09.24,4.49-4,9.27-7.86,10.67l.08.07c4.71-1.19,9.63-6.25,9.36-11.44-.13-2.46-1.52-3.65-3.35-3.65-3.25,0-6.16,3-8,6.83,0-.2,0-.43,0-.64,2.07-4.2,5.35-7.38,9.12-7.38,2,0,3.72,1.33,3.87,4.14.31,6-5.25,11-10.86,12.28l.07.07C78.28,48.37,84.39,43,84,36.3Z" fill="#1c4695"/><path d="M59.64,38.4a2.73,2.73,0,0,0-3-2.73c-4,0-7,4.26-8.53,8.76h.09c1.56-4,4.22-8.06,7.42-8.06A2.06,2.06,0,0,1,58,38.47c.11,2.18-2.09,7.09-3.13,9.83L47.57,66.4h1.82l7.13-18C57.7,45.56,59.77,40.86,59.64,38.4Z" fill="#318eee"/><path d="M56.35,38.61A1.51,1.51,0,0,0,54.72,37c-2.3,0-4.8,3.64-6.29,7.43h.09c1.51-3.37,3.84-6.73,5.19-6.73.56,0,.92.28,1,1,.08,1.48-2.37,7-3.36,9.41L43.92,66.4h1.82l7.33-18.17C54.12,45.63,56.44,40.37,56.35,38.61Z" fill="#318eee"/><path d="M66.22,38.05a5.2,5.2,0,0,0-5.61-5.12c-7.28,0-11.47,5.41-13,11.5h.09c1.63-5.66,5.34-10.8,11.85-10.8,3.09,0,4.8,1.9,4.94,4.49.18,3.44-1.45,7.23-2.74,10.67L54.94,66.4h1.82l6.73-17.47C64.92,45.35,66.41,41.77,66.22,38.05Z" fill="#245abc"/><path d="M62.93,38.19a4,4,0,0,0-4.28-3.93c-5.73,0-9.22,4.94-10.73,10.17H48C49.6,39.56,52.89,35,57.63,35a3.35,3.35,0,0,1,3.62,3.37c.14,2.74-1.73,7.16-3,10.25L51.22,66.4h1.89L60,48.65C61.27,45.42,63.09,41.35,62.93,38.19Z" fill="#245abc"/></g><g id="V"><g id="Stem-2" data-name="Stem"><path d="M36.38,54.11l1.18-2.48-4-20.3c-1.1-5.72.22-8.21,4.71-9.08v-.07H34.14c-1.2.59-3.75,2.4-2.32,9.18Z" fill="#8ec089"/><path d="M34,59l1.18-2.45L30,31.2c-1-4.92-.56-7.49,1.08-8.95v-.07h-2.8c-.86,1.83-1.12,3.68-.13,8.54Z" fill="#e85f24"/><path d="M21.08,22.18H18.13v.07c1.33,1.59,1.71,3.54,2.75,7.82L28.73,66.4H30.5L22.61,30A66.57,66.57,0,0,1,21.08,22.18Z" fill="#245abc"/><path d="M31.69,63.91l1.16-2.43L26.31,30.65c-1.15-4.78-.89-7-.42-8.47H23.36a27.72,27.72,0,0,0,1,7.66Z" fill="#1c4695"/><path d="M15.2,22.18H12.06v.07c2.87,1.13,4.28,3.32,5.41,8.42l7.74,35.74H27l-7.79-36C17.84,24.21,16.43,23.07,15.2,22.18Z" fill="#318eee"/></g><g id="Finial"><path d="M44.43,38.08l.12.08C48.93,27.79,50.08,25,51.87,22.25v-.07H48.32v.1C48.69,26.42,47.25,30.22,44.43,38.08Z" fill="#e85f24"/><path d="M55.22,22.18c-3.7,2.16-5.9,6.17-10.55,16.06l.11.07c5.34-10,8.38-14,15.27-16.06v-.07Z" fill="#1c4695"/><path d="M44.2,37.93l.11.08c2.78-9.25,3.68-13.35,1.22-15.83H42.05v.07C45.94,23.63,46.81,27.59,44.2,37.93Z" fill="#8ec089"/></g></g></g></svg>