<?xml version="1.0" encoding="utf-8"?>
<!-- Generator: Adobe Illustrator 24.0.3, SVG Export Plug-In . SVG Version: 6.00 Build 0)  -->
<svg version="1.1" id="Layer_1" xmlns="http://www.w3.org/2000/svg" xmlns:xlink="http://www.w3.org/1999/xlink" x="0px" y="0px"
	 viewBox="0 0 288 288" style="enable-background:new 0 0 288 288;" xml:space="preserve">
<style type="text/css">
	.st0{fill:#006AFF;}
	.st1{fill:#FFFFFF;}
</style>
<rect class="st0" width="288" height="288"/>
<path class="st1" d="M189,79.3c1-0.3,2.1,0.1,2.6,1c4.4,5,18.6,22.2,22.5,27c0.5,0.6,0.5,1.6-0.2,2.1c0,0,0,0,0,0
	c0,0.1-0.1,0.1-0.2,0.1c-28.6,22.3-60.4,53.9-78.1,76.5c-0.4,0.5,0,0.5,0.2,0.4c30.9-13.3,103.4-34.5,136.1-40.4v-41.4L144.1,3.5
	L16,104.5v45.2C55.8,126.1,147.5,89.6,189,79.3z"/>
<path class="st1" d="M85.1,253c-0.9,0.6-2.1,0.4-2.8-0.4l-23.8-28.4c-0.7-0.8-0.7-1.2,0.1-2.4c18.4-27,56.1-69.1,80.1-87
	c0.4-0.3,0.3-0.6-0.2-0.5c-25,8.2-96.1,38.7-122.4,53.6v96.6H272v-92.9C237,197.5,132.5,228.6,85.1,253z"/>
</svg>
