<svg id="Layer_1" data-name="Layer 1" xmlns="http://www.w3.org/2000/svg" viewBox="0 0 186.4 82"><title>zillowgroup</title><path d="M136,36.61h6.47l1.88,6.26c.63,2.08,1.67,6,1.67,6a.05.05,0,0,0,.07,0l0,0s1.08-4,1.69-6l2-6.26h4.78l1.93,6.26c.66,2.15,1.67,6,1.67,6s0,0,.06,0a0,0,0,0,0,0,0s1-3.87,1.67-6l1.88-6.26h6l-6.5,20.7h-5.92l-1.62-5.19c-.62-2-1.71-6-1.71-6a0,0,0,0,0-.06,0s0,0,0,0-1.09,3.88-1.74,6l-1.65,5.23h-6Z" fill="#006aff"/><rect x="92.43" y="25.67" width="6.55" height="31.64" fill="#006aff"/><rect x="103.83" y="25.67" width="6.55" height="31.64" fill="#006aff"/><path d="M129.36,47a4.74,4.74,0,1,0-9.45,0,4.85,4.85,0,0,0,4.75,5.18c2.55,0,4.7-2.08,4.7-5.18m-15.74,0a11,11,0,1,1,11,11,10.86,10.86,0,0,1-11-11" fill="#006aff"/><path d="M54.55,28.6v6.1H66.13s.06,0,0,.09L54.55,55a1.89,1.89,0,0,0-.35,1.16v1.19H76.75V51.22H64.22a0,0,0,0,1,0,0,0,0,0,0,1,0,0L75.93,30.7a1.42,1.42,0,0,0,.2-.82V28.6Z" fill="#006aff"/><path d="M80.92,36.61h6.54v20.7H80.92Zm3.27-10.37A3.76,3.76,0,1,1,80.46,30a3.76,3.76,0,0,1,3.73-3.76" fill="#006aff"/><path d="M34.64,33a.27.27,0,0,1,.31.11c.51.59,2.16,2.65,2.61,3.21a.17.17,0,0,1,0,.25l0,0a60.41,60.41,0,0,0-9.09,9.09c0,.06,0,.07,0,0A102.52,102.52,0,0,1,44.3,40.94V36L29.41,24,14.5,36V41.4A103,103,0,0,1,34.64,33Z" fill="#006aff"/><path d="M22.53,53.69a.24.24,0,0,1-.32,0l-2.78-3.38c-.07-.09-.08-.14,0-.29a53.54,53.54,0,0,1,9.32-10.35c.05,0,0-.07,0,0A121.55,121.55,0,0,0,14.5,46V57.44H44.29V46.38C40.23,47.08,28.06,50.78,22.53,53.69Z" fill="#006aff"/><path d="M172.17,33.66a1,1,0,0,0-1-1h-1v2.89h.47v-.87h.46l.51.87h.53l-.56-.93A1,1,0,0,0,172.17,33.66Zm-1,.59h-.55V33.08h.55a.53.53,0,0,1,.53.58.54.54,0,0,1-.53.59Z" fill="#006aff"/><path d="M171.06,31.64a2.5,2.5,0,1,0,2.44,2.5h0A2.48,2.48,0,0,0,171.06,31.64Zm0,4.52a2,2,0,1,1,2-2h0A2,2,0,0,1,171.06,36.16Z" fill="#006aff"/></svg>