<?xml version="1.0" encoding="utf-8"?>
<!-- Generator: Adobe Illustrator 24.0.3, SVG Export Plug-In . SVG Version: 6.00 Build 0)  -->
<svg version="1.1" id="Layer_1" xmlns="http://www.w3.org/2000/svg" xmlns:xlink="http://www.w3.org/1999/xlink" x="0px" y="0px"
	 viewBox="0 0 288 288" style="enable-background:new 0 0 288 288;" xml:space="preserve">
<style type="text/css">
	.st0{fill:#353535;}
	.st1{fill-rule:evenodd;clip-rule:evenodd;fill:#B2E522;}
</style>
<rect class="st0" width="288" height="288"/>
<path class="st1" d="M212.6,84.2c-1.8-0.5-3.8-0.4-5.5,0.3l-7.4,2.5V17.5c0-3.6-2.9-6.5-6.5-6.5l0,0H94.9c-3.6,0-6.5,2.9-6.5,6.5
	l0,0V87L81,84.5c-1.8-0.6-3.7-0.7-5.5-0.3c-2.7,0.7-8.9,3.4-8.9,14.1v56.9c0,0.4,0,0.8,0.1,1.2c0.7,4.9,4.2,10.7,11.6,10.7H103
	c2.6,2.9,8.7,8,20.1,8.9l0,0c0.2,8.2,5.1,15.6,12.7,18.8V211c0,0.3-0.2,0.5-0.5,0.5c-34.7,1.4-56.9,12.4-63.2,16
	c-3.9,2.3-4.7,6.8-4.7,9.8V250c0.2,4.5,3.9,8,8.4,7.9c4.3-0.2,7.7-3.5,8-7.8c0.2-4-2.4-7.5-6.3-8.5c-0.2-0.1-0.4-0.3-0.4-0.5v-4.6
	c0-1.2,0.7-2.3,1.7-2.9c9.4-5.2,33.4-7.8,51.6-8.7c2.3-0.1,4.5-0.1,5.4,0c0.3,0,0.5,0.2,0.5,0.5c1,14.7,2.4,27.1,2.9,34.8h-0.7
	c-3.2,0-5.9,3.6-5.9,8.2s2.7,8.2,5.9,8.2h11.1c3.2,0,5.9-3.6,5.9-8.2s-2.7-8.2-5.9-8.2h-0.7c0,0,2-20.1,2.9-34.8
	c0-0.3,0.2-0.5,0.5-0.5c0.9,0,3.1-0.1,5.4,0c18.1,0.9,42.1,3.6,51.6,8.7c1.1,0.6,1.7,1.7,1.7,2.9v4.6c0,0.3-0.2,0.5-0.4,0.5
	c-3.9,0.9-6.5,4.5-6.3,8.5c0.3,4.3,3.7,7.6,8,7.8c4.5,0.1,8.3-3.4,8.4-7.9v-12.8c0-3.1-0.7-7.6-4.7-9.8c-6.4-3.6-28.6-14.6-63.2-16
	c-0.3,0-0.5-0.2-0.5-0.5v-16.2c7.6-3.2,12.5-10.6,12.7-18.8l0,0c11.4-0.9,17.5-6,20.1-8.9H210c7.4,0,10.9-5.8,11.6-10.7
	c0-0.4,0.1-0.8,0.1-1.2V98.4C221.6,87.6,215.3,84.9,212.6,84.2z M88.3,144.3L76.9,153c-0.2,0.1-0.4,0.1-0.6-0.1
	c-0.1-0.1-0.1-0.2-0.1-0.3V98.4c0-2.1,0.3-5.1,1.5-4.7l10,3.4c0.3,0.1,0.6,0.4,0.6,0.8V144.3z M211.1,153l-11.5-8.7V97.9
	c0-0.4,0.2-0.7,0.6-0.8l10-3.4c1.3-0.4,1.5,2.6,1.5,4.7v54.3c0,0.2-0.2,0.4-0.4,0.4C211.3,153.1,211.2,153.1,211.1,153L211.1,153z"
	/>
</svg>
