<svg id="Layer_1" data-name="Layer 1" xmlns="http://www.w3.org/2000/svg" xmlns:xlink="http://www.w3.org/1999/xlink" viewBox="0 0 186.4 82"><defs><symbol id="coinbase" data-name="coinbase" viewBox="0 0 280.6 60.93"><g id="Coinbase-3" data-name="Coinbase"><path d="M141.67,19.75c.29-.1.5-.16.7-.24A20,20,0,0,1,155,18.93a15.78,15.78,0,0,1,10.31,9,26.35,26.35,0,0,1,2,12.89,30,30,0,0,1-1.26,7.34c-2.23,7-7,11.17-14.26,12.34a32.67,32.67,0,0,1-17.95-2.17,1,1,0,0,1-.72-1.1q0-27.68,0-55.36c0-.46,0-.91,0-1.37s.14-.51.5-.51h7.42c.37,0,.53.15.52.51,0,.19,0,.38,0,.57V18.89C141.63,19.14,141.65,19.4,141.67,19.75Zm0,19.86V52.34c0,.87,0,.89.85,1.13a17.23,17.23,0,0,0,6.14.68,10,10,0,0,0,8.5-5.6,17.22,17.22,0,0,0,1.81-6.85,23,23,0,0,0-1-9.58,10.58,10.58,0,0,0-5.39-6.42,10.27,10.27,0,0,0-5-.94,17,17,0,0,0-5.19,1,1,1,0,0,0-.75,1.08C141.64,31.09,141.63,35.35,141.63,39.61Z" style="fill:#0182bf"/><path d="M67.91,40.92A24.89,24.89,0,0,1,65.52,51c-2.7,5.61-7.08,9-13.33,9.72a18.19,18.19,0,0,1-10.66-1.7,16.86,16.86,0,0,1-7.77-8.5,26.26,26.26,0,0,1-2.09-9.07,27.83,27.83,0,0,1,2-13c2.41-5.62,6.53-9.24,12.65-10.28a17.92,17.92,0,0,1,13.11,2.37,17.24,17.24,0,0,1,6.77,8.66C67.43,32.54,67.91,35.93,67.91,40.92Zm-8.4-1.63c-.1-1.29-.16-2.58-.31-3.86a16.83,16.83,0,0,0-2.15-6.74A8.63,8.63,0,0,0,43.42,27.4a13.13,13.13,0,0,0-2.69,5.66,29.11,29.11,0,0,0-.43,10.15,17.39,17.39,0,0,0,1.75,6,8.42,8.42,0,0,0,9.29,4.66,8.32,8.32,0,0,0,6.36-5.17A23.37,23.37,0,0,0,59.51,39.29Z" style="fill:#0182bf"/><path d="M265.25,60.89a21.83,21.83,0,0,1-9.4-1.77,17,17,0,0,1-9.17-9.6,26,26,0,0,1-1.75-8.63,27.83,27.83,0,0,1,1.43-10.72c2-5.54,5.52-9.56,11.25-11.35a19.47,19.47,0,0,1,12.83.31c5,1.85,7.93,5.58,9.35,10.61a29.63,29.63,0,0,1,.78,9c0,.42-.22.55-.59.6l-8.7,1.21-14.29,2c-1.11.15-2.22.32-3.33.46-.39,0-.52.23-.46.61.57,3.7,2.08,6.83,5.41,8.83a12.25,12.25,0,0,0,5.58,1.67,25.57,25.57,0,0,0,12.55-2.26c.35-.16.47,0,.59.28q1,2.68,2.1,5.37c.14.36.08.58-.28.71-1.29.46-2.55,1-3.86,1.38A35.77,35.77,0,0,1,265.25,60.89Zm7.24-27c0-.43-.08-.87-.14-1.3A10.42,10.42,0,0,0,270,26.81a8,8,0,0,0-5.64-2.64,9.58,9.58,0,0,0-8.76,3.54c-2.15,2.69-2.8,5.89-3,9.24,0,.52.26.54.66.49l3.89-.55,14.46-2C272.5,34.78,272.49,34.77,272.49,33.88Z" style="fill:#0182bf"/><path d="M176.92,26.59a2.3,2.3,0,0,1-.18-.34c-.61-1.62-1.2-3.25-1.82-4.86-.17-.42-.07-.6.34-.76a36.77,36.77,0,0,1,6.73-2,32.49,32.49,0,0,1,13-.15c3.38.73,6.26,2.26,8.1,5.33a13.3,13.3,0,0,1,1.76,5.79c.11,1.21.13,2.43.13,3.65,0,8,0,15.94,0,23.91a1.1,1.1,0,0,1-.78,1.19,33.7,33.7,0,0,1-8.32,2.13,41.43,41.43,0,0,1-7.63.35,23,23,0,0,1-9.4-2.09,11,11,0,0,1-6.57-9.86c-.23-3.78.76-7.08,3.65-9.66a16.18,16.18,0,0,1,5.23-3,38.54,38.54,0,0,1,9.06-2c2-.24,4.12-.38,6.18-.56.27,0,.57,0,.55-.41a35.13,35.13,0,0,0-.19-4,5.66,5.66,0,0,0-4.58-4.75,16.93,16.93,0,0,0-6.46-.31,30.75,30.75,0,0,0-8.53,2.22A2.06,2.06,0,0,1,176.92,26.59ZM197,39.4h-.61c-2,.16-4.05.28-6.07.51a19.69,19.69,0,0,0-5.84,1.49,6.66,6.66,0,0,0-4.23,7.16A6.17,6.17,0,0,0,185,54.08c3.84,1.22,7.69.85,11.53-.12.48-.12.53-.43.53-.85,0-4.36,0-8.72,0-13.07Z" style="fill:#0182bf"/><path d="M91.87,40.41c0-6.26,0-12.52,0-18.78a1,1,0,0,1,.74-1.07A42.11,42.11,0,0,1,104.9,18a32.75,32.75,0,0,1,10,.73,14,14,0,0,1,6.45,3.39,11.23,11.23,0,0,1,3.29,6.38,16.73,16.73,0,0,1,.26,3q0,13.81,0,27.63c0,.92,0,.92-.89.92h-6.68c-.89,0-.89,0-.89-.92q0-13.47,0-26.94a7,7,0,0,0-2.28-5.52,7.84,7.84,0,0,0-4.69-1.87,22.18,22.18,0,0,0-8.3.81c-.84.25-.84.27-.84,1.14V58.86a5.42,5.42,0,0,0,0,.57c0,.5-.16.66-.65.66-2.36,0-4.72,0-7.08,0-.56,0-.71-.19-.71-.73C91.88,53.05,91.87,46.73,91.87,40.41Z" style="fill:#0182bf"/><path d="M235.88,26.61c-1-.42-2-.87-3-1.25a15.48,15.48,0,0,0-5.4-1.09A8.07,8.07,0,0,0,223,25.38a5,5,0,0,0-.42,8.16A20.64,20.64,0,0,0,227.58,36c2.17.92,4.39,1.76,6.46,2.86a10.13,10.13,0,0,1,5.64,7.78c.81,6-1.85,10.79-7.75,13a23.8,23.8,0,0,1-8.82,1.25,29.75,29.75,0,0,1-11.56-2.56c-.52-.23-.61-.46-.36-1,.8-1.72,1.55-3.47,2.29-5.22.2-.46.4-.52.86-.29a22.35,22.35,0,0,0,8.87,2.37,9.09,9.09,0,0,0,5.12-1.1,5.16,5.16,0,0,0,.5-8.8,22,22,0,0,0-5.35-2.52A34.13,34.13,0,0,1,217.37,39a10.49,10.49,0,0,1-5.26-7.63A10.9,10.9,0,0,1,219.69,19a21.79,21.79,0,0,1,8.78-1,24.65,24.65,0,0,1,8.08,1.86,15.6,15.6,0,0,1,1.59.78.59.59,0,0,1,.21.53c-.78,1.8-1.59,3.58-2.4,5.36C235.94,26.58,235.9,26.6,235.88,26.61Z" style="fill:#0182bf"/><path d="M26,26.85a11.85,11.85,0,0,0-4.51-1.77,9.72,9.72,0,0,0-8.61,2.26,10.54,10.54,0,0,0-3,4.61,22.37,22.37,0,0,0,.17,15.1,9.74,9.74,0,0,0,6.42,6.34,11.25,11.25,0,0,0,8.57-1c.3-.15.58-.34.92-.54.11.22.2.38.27.55.74,1.66,1.46,3.34,2.24,5,.28.58.12.82-.38,1.11a17.19,17.19,0,0,1-5.89,2.07,19.87,19.87,0,0,1-10.45-.82A17.11,17.11,0,0,1,1.68,49.43,26.89,26.89,0,0,1,.05,41,29.71,29.71,0,0,1,1.12,31,17.74,17.74,0,0,1,8.45,20.75,17.93,17.93,0,0,1,19.94,18a18.63,18.63,0,0,1,7.79,2.17c1.27.7,1.06.5.55,1.64-.67,1.49-1.35,3-2,4.46C26.17,26.45,26.08,26.61,26,26.85Z" style="fill:#0182bf"/><path d="M83.4,39.47V59c0,1,0,1-1.06,1-2.26,0-4.53,0-6.79,0-.54,0-.68-.18-.68-.69q0-19.95,0-39.9c0-.7,0-.74.74-.74h7c.73,0,.76,0,.76.79Z" style="fill:#0182bf"/><path d="M79.09,1.83a4.82,4.82,0,0,1,5,4.73,5,5,0,0,1-10,0A4.8,4.8,0,0,1,79.09,1.83Z" style="fill:#0182bf"/></g></symbol></defs><title>coinbase</title><use width="280.6" height="60.93" transform="translate(35 28) scale(0.41 0.43)" xlink:href="#coinbase"/></svg>