<svg id="Layer_1" data-name="Layer 1" xmlns="http://www.w3.org/2000/svg" viewBox="0 0 186.4 82"><title>pinterest</title><g id="art"><ellipse cx="89" cy="40.98" rx="24.5" ry="24.48" fill="#fff"/><path d="M89,16.5a24.49,24.49,0,0,0-8.93,47.29,23.39,23.39,0,0,1,.08-7C80.59,54.84,83,44.59,83,44.59A9,9,0,0,1,82.29,41c0-3.41,2-5.94,4.43-5.94,2.1,0,3.11,1.57,3.11,3.44,0,2.1-1.33,5.24-2,8.16a3.56,3.56,0,0,0,3.63,4.43c4.36,0,7.7-4.59,7.7-11.2,0-5.86-4.21-10-10.24-10A10.6,10.6,0,0,0,77.81,40.52a9.62,9.62,0,0,0,1.81,5.58.68.68,0,0,1,.16.7c-.18.77-.6,2.44-.68,2.78s-.36.55-.83.33c-3.06-1.44-5-5.89-5-9.49,0-7.72,5.61-14.81,16.19-14.81,8.49,0,15.11,6,15.11,14.14,0,8.44-5.33,15.23-12.71,15.23-2.48,0-4.82-1.29-5.6-2.82L84.75,58a26.72,26.72,0,0,1-3,6.43A24.5,24.5,0,1,0,89,16.5Z" fill="#e60019"/></g></svg>