<svg id="Layer_1" data-name="Layer 1" xmlns="http://www.w3.org/2000/svg" viewBox="0 0 35 35"><defs><style>.cls-1{fill:#2849a4}</style></defs><path class="cls-1" d="M7.29 12.65a3.91 3.91 0 1 1 3.9-3.91 3.91 3.91 0 0 1-3.9 3.91zm0-6.81a2.91 2.91 0 1 0 2.9 2.9 2.9 2.9 0 0 0-2.9-2.9zM10.69 30.16H2.91a.5.5 0 0 1-.5-.5V18.47a4.47 4.47 0 0 1 4.38-4.39c2.33 0 3.45 1.44 4.64 3a12.09 12.09 0 0 0 4.35 3.89.5.5 0 0 1-.45.9 13.23 13.23 0 0 1-4.69-4.17c-1.17-1.5-2-2.59-3.84-2.59a3.47 3.47 0 0 0-3.39 3.4v10.65h6.78v-7.28a.5.5 0 0 1 1 0v7.78a.5.5 0 0 1-.5.5zM27.71 12.65a3.91 3.91 0 1 1 3.91-3.91 3.91 3.91 0 0 1-3.91 3.91zm0-6.81a2.91 2.91 0 1 0 2.91 2.9 2.9 2.9 0 0 0-2.91-2.9zM32.09 30.16h-7.78a.5.5 0 0 1-.5-.5v-7.78a.5.5 0 0 1 1 0v7.28h6.78V18.47a3.47 3.47 0 0 0-3.4-3.39c-1.82 0-2.66 1.09-3.83 2.59a13.23 13.23 0 0 1-4.69 4.17.5.5 0 0 1-.45-.9 12.09 12.09 0 0 0 4.35-3.89c1.19-1.53 2.31-3 4.63-3a4.47 4.47 0 0 1 4.39 4.38v11.2a.5.5 0 0 1-.5.53z"/></svg>