<svg id="Layer_1" data-name="Layer 1" xmlns="http://www.w3.org/2000/svg" viewBox="0 0 35 35"><defs><style>.cls-1{fill:#2849a4}</style></defs><path class="cls-1" d="M28.9 19H6.1a.51.51 0 0 1-.5-.5v-4L1.54 8.45a.5.5 0 0 1 .23-.74l15.54-6.22a.62.62 0 0 1 .38 0l15.54 6.22a.5.5 0 0 1 .23.74l-4.06 6.09v4a.51.51 0 0 1-.5.46zM6.6 18h21.8v-3.61a.57.57 0 0 1 .08-.28l3.8-5.7L17.5 2.5 2.72 8.41l3.8 5.7a.57.57 0 0 1 .08.28z"/><path class="cls-1" d="M17.5 14.89a3.61 3.61 0 1 1 3.61-3.61 3.61 3.61 0 0 1-3.61 3.61zm0-6.22a2.61 2.61 0 1 0 2.61 2.61 2.61 2.61 0 0 0-2.61-2.61zM17.5 33.54a11.91 11.91 0 0 1-11.9-11.9v-3.1a.5.5 0 0 1 .5-.5.5.5 0 0 1 .5.5v3.1a10.9 10.9 0 0 0 21.8 0v-3.1a.5.5 0 0 1 .5-.5.5.5 0 0 1 .5.5v3.1a11.91 11.91 0 0 1-11.9 11.9z"/></svg>