<svg id="Layer_1" data-name="Layer 1" xmlns="http://www.w3.org/2000/svg" viewBox="0 0 35 35"><defs><style>.cls-1{fill:#2849a4}</style></defs><path class="cls-1" d="M17.5 29.4a.5.5 0 0 1-.5-.5v-4.15a.5.5 0 0 1 1 0v4.15a.5.5 0 0 1-.5.5zM29.5 23.27a.5.5 0 0 1-.35-.15l-2.68-2.68a.51.51 0 0 1-.15-.35V18a.5.5 0 0 1 .5-.5.5.5 0 0 1 .5.5v1.86l2.54 2.54a.5.5 0 0 1 0 .7.51.51 0 0 1-.36.17z"/><path class="cls-1" d="M31 26.81a2.58 2.58 0 1 1 2.57-2.58A2.58 2.58 0 0 1 31 26.81zm0-4.15a1.58 1.58 0 1 0 1.57 1.57A1.57 1.57 0 0 0 31 22.66zM5.5 23.27a.51.51 0 0 1-.36-.15.5.5 0 0 1 0-.7l2.53-2.54V18a.5.5 0 0 1 .5-.5.5.5 0 0 1 .5.5v2.07a.5.5 0 0 1-.14.35l-2.68 2.7a.5.5 0 0 1-.35.15z"/><path class="cls-1" d="M4 26.81a2.58 2.58 0 1 1 2.6-2.58A2.58 2.58 0 0 1 4 26.81zm0-4.15a1.58 1.58 0 1 0 1.6 1.57A1.57 1.57 0 0 0 4 22.66zM9.73 28.36a.5.5 0 0 1-.5-.5v-2.07a.47.47 0 0 1 .15-.35l1.92-1.93v-.83a.5.5 0 0 1 .5-.5.5.5 0 0 1 .5.5v1a.47.47 0 0 1-.15.35L10.23 26v1.86a.5.5 0 0 1-.5.5z"/><path class="cls-1" d="M9.73 32.51a2.58 2.58 0 1 1 2.57-2.58 2.58 2.58 0 0 1-2.57 2.58zm0-4.15a1.58 1.58 0 1 0 1.57 1.57 1.57 1.57 0 0 0-1.57-1.57zM25.27 28.36a.5.5 0 0 1-.5-.5V26l-1.93-1.93a.5.5 0 0 1-.14-.35v-1a.5.5 0 0 1 .5-.5.5.5 0 0 1 .5.5v.83l1.92 1.93a.47.47 0 0 1 .15.35v2.07a.5.5 0 0 1-.5.46z"/><path class="cls-1" d="M25.27 32.51a2.58 2.58 0 1 1 2.57-2.58 2.58 2.58 0 0 1-2.57 2.58zm0-4.15a1.58 1.58 0 1 0 1.57 1.57 1.57 1.57 0 0 0-1.57-1.57zM17.5 33.54A2.57 2.57 0 1 1 20.07 31a2.57 2.57 0 0 1-2.57 2.54zm0-4.14a1.57 1.57 0 1 0 1.57 1.6 1.57 1.57 0 0 0-1.57-1.6zM17.5 22.14a4.64 4.64 0 1 1 4.64-4.64 4.64 4.64 0 0 1-4.64 4.64zm0-8.28a3.64 3.64 0 1 0 3.64 3.64 3.64 3.64 0 0 0-3.64-3.64z"/><path class="cls-1" d="M33 19a.51.51 0 0 1-.5-.5v-2.63l-4-.5a.51.51 0 0 1-.43-.38 10.56 10.56 0 0 0-1.32-3.2.5.5 0 0 1 0-.57L29.29 8 27 5.71 23.78 8.2a.5.5 0 0 1-.57 0A10.67 10.67 0 0 0 20 6.91a.51.51 0 0 1-.38-.43l-.5-4h-3.25l-.5 4a.51.51 0 0 1-.38.43 10.56 10.56 0 0 0-3.2 1.32.5.5 0 0 1-.57 0L8 5.71 5.71 8l2.49 3.2a.5.5 0 0 1 0 .57A10.56 10.56 0 0 0 6.91 15a.51.51 0 0 1-.43.38l-4 .5v2.67A.51.51 0 0 1 2 19a.5.5 0 0 1-.5-.5v-3.07a.51.51 0 0 1 .44-.5L6 14.42a11.9 11.9 0 0 1 1.2-2.86L4.65 8.28a.5.5 0 0 1 0-.66l2.97-2.93a.5.5 0 0 1 .66 0l3.28 2.51A11.9 11.9 0 0 1 14.42 6l.51-4.12a.51.51 0 0 1 .5-.44h4.14a.51.51 0 0 1 .5.44L20.58 6a11.9 11.9 0 0 1 2.86 1.2l3.28-2.55a.5.5 0 0 1 .66 0l2.93 2.93a.5.5 0 0 1 0 .66l-2.51 3.32a11.9 11.9 0 0 1 1.2 2.86l4.12.51a.51.51 0 0 1 .44.5v3.11A.5.5 0 0 1 33 19z"/></svg>