<svg data-name="Layer 1" xmlns="http://www.w3.org/2000/svg" viewBox="0 0 186.4 82"><path d="m58.18 38.68 5.57 7.17h-4l-5.1-6.69v6.69H51.3V32.2h3.35v6.09l4.94-6.09h3.98l-5.39 6.48z"/><path data-name="Path" d="M68.62 43.03h6.51v2.82h-9.86V32.2h9.55v2.82h-6.2v2.46h5.6v2.77h-5.6v2.78zM76.49 32.2v2.82h4.16v10.83H84V35.02h4.14V32.2H76.49z"/><path data-name="Path" d="M76.49 32.2v2.82h4.16v10.83H84V35.02h4.14V32.2H76.49z"/><path d="m16.26 40.59 4.11 5.26h-3.85l-4.92-6.59v6.59H8.25V32.22h6.15c2.93 0 5 1.81 5 4.42a4 4 0 0 1-3.14 3.95zm-.21-4a1.77 1.77 0 0 0-2-1.72h-2.42v3.45h2.46a1.72 1.72 0 0 0 1.96-1.68z"/><g data-name="Path"><path d="M28.45 34.89a4.34 4.34 0 0 1 4.4 4.47 4.75 4.75 0 0 1-2.38 4.19l1.88 2.51a7.89 7.89 0 0 0 3.8-6.7 7.4 7.4 0 0 0-7.7-7.4 7.41 7.41 0 0 0-7.69 7.4 7.9 7.9 0 0 0 3.79 6.7l1.89-2.51a4.75 4.75 0 0 1-2.38-4.19 4.35 4.35 0 0 1 4.39-4.47z" fill="#c8102e"/><path d="m47.92 42.09 1.75 2.38a7 7 0 0 1-4.81 1.62 7.07 7.07 0 1 1 0-14.13 7.49 7.49 0 0 1 4.79 1.49l-1.83 2.49a4.52 4.52 0 0 0-3-1A3.88 3.88 0 0 0 41 39.08a3.85 3.85 0 0 0 3.87 4.08 4.94 4.94 0 0 0 3.05-1.07z"/></g><path data-name="Path" d="M93.61 32.2h2.19l4.4 6.35 4.42-6.35h2.25v13.65h-1.94V35.02l-4.42 6.36h-.63l-4.34-6.36v10.83h-1.93V32.2z"/><path data-name="Shape" d="M108.55 41a5.1 5.1 0 1 1 5.1 5 4.9 4.9 0 0 1-5.1-5zm8.34 0a3.23 3.23 0 1 0-3.24 3.32 3.11 3.11 0 0 0 3.24-3.32z"/><path data-name="Path" d="M125.68 36.15v1.67h-.76c-1.85 0-2.66 1.34-2.66 3.3v4.71h-1.81v-9.71h1.81v1.7a2.82 2.82 0 0 1 2.69-1.7h.73zM128.54 42.14v-4.37h-1.68v-1.65h1.68v-2.8l1.83-.6v3.37h2.72v1.65h-2.72v4.11c0 1.62.86 2.3 2.43 2.3h.2l-.28 1.78h-.08c-2.77.07-4.1-1.12-4.1-3.79z"/><path data-name="Shape" d="M144.21 36.15v9c0 3.19-1.94 4.92-5 4.92a5.28 5.28 0 0 1-4.58-2.07l1.49-1a3.78 3.78 0 0 0 3.14 1.42 2.86 2.86 0 0 0 3.12-3.17v-1.2a3.87 3.87 0 0 1-3.51 1.8 4.62 4.62 0 0 1-4.68-4.85 4.66 4.66 0 0 1 4.68-5 4 4 0 0 1 3.51 1.8v-1.63h1.83zm-1.78 4.73a3.23 3.23 0 0 0-3.19-3.29 3.32 3.32 0 1 0 3.19 3.29zM155.85 36.15v9.7H154v-1.7a3.79 3.79 0 0 1-3.51 1.85 4.7 4.7 0 0 1-4.69-5c0-2.95 2-5 4.69-5a3.93 3.93 0 0 1 3.51 1.82v-1.65h1.83zM154.12 41a3.22 3.22 0 0 0-3.27-3.35 3.09 3.09 0 0 0-3.14 3.35 3.06 3.06 0 0 0 3.12 3.33 3.24 3.24 0 0 0 3.29-3.33zM167.52 36.15v9c0 3.19-1.93 4.92-5 4.92A5.25 5.25 0 0 1 158 48l1.49-1a3.78 3.78 0 0 0 3.14 1.42 2.85 2.85 0 0 0 3.11-3.17v-1.2a3.87 3.87 0 0 1-3.51 1.8A4.62 4.62 0 0 1 157.5 41a4.66 4.66 0 0 1 4.68-5 4 4 0 0 1 3.51 1.8v-1.63h1.83zm-1.78 4.73a3.22 3.22 0 0 0-3.19-3.29 3.32 3.32 0 1 0 3.19 3.29zM178.75 41.51H171a3 3 0 0 0 3.09 2.93 3.8 3.8 0 0 0 2.82-1.2l1.26.94a5.05 5.05 0 0 1-4.08 1.82 4.74 4.74 0 0 1-4.89-5 4.81 4.81 0 0 1 4.8-5c2.8 0 4.71 2.07 4.71 5.31v.21zm-1.91-1.33a2.74 2.74 0 0 0-2.78-2.73 3 3 0 0 0-3 2.73z"/></svg>