<svg id="d9af8cc3-f9c3-4714-aa4b-89b75ecac1ce" data-name="Layer 1" xmlns="http://www.w3.org/2000/svg" xmlns:xlink="http://www.w3.org/1999/xlink" viewBox="0 0 186.4 82"><defs><symbol id="45f5c280-7ee6-483e-b6f4-56c5161ffc74" data-name="New Symbol" viewBox="0 0 281.67 87.56"><g id="c4569a27-2cf3-4d34-b3ed-6c566e20e53d" data-name="Airbnb"><path d="M41,75.08c-.94.92-1.55,1.51-2.15,2.11a37.8,37.8,0,0,1-11,8.18c-5.54,2.55-11.21,3.07-16.87.51a18.55,18.55,0,0,1-9.56-24c1.24-3.12,2.64-6.18,4.06-9.22q9.68-20.82,20.27-41.19a47.81,47.81,0,0,1,2.82-4.83A14.23,14.23,0,0,1,39.77,0,13.93,13.93,0,0,1,51.92,5.28a25.4,25.4,0,0,1,2.9,4.4q13,24.8,24.56,50.32a21.91,21.91,0,0,1,2.11,9.44A18.46,18.46,0,0,1,68.07,86.81c-6,1.62-11.51.39-16.74-2.66a41.88,41.88,0,0,1-9-7.37A21.08,21.08,0,0,1,41,75.08Zm-3.7-3.88c-.44-.59-.76-1-1.06-1.44-1.67-2.41-3.44-4.76-5-7.25-2.74-4.44-4.8-9.18-5.16-14.47a14.29,14.29,0,0,1,3.86-11.46c3.35-3.45,7.51-4.68,12.23-4.35A14.12,14.12,0,0,1,55.51,46.39,24.52,24.52,0,0,1,54,54.83a54.05,54.05,0,0,1-8.54,14.75c-.38.5-.74,1-1.13,1.53a6.5,6.5,0,0,0,.5.75,41.38,41.38,0,0,0,8.95,7.7,17.75,17.75,0,0,0,10.35,2.72A13.46,13.46,0,0,0,76.28,70.12a17.77,17.77,0,0,0-1.77-8.36q-11.28-24.94-24-49.17a25.78,25.78,0,0,0-2-3.28c-4.05-5.55-11.41-5.56-15.47,0a27.75,27.75,0,0,0-2.15,3.55q-10.51,20.05-20,40.59C9.21,57,7.63,60.51,6.14,64.1a12.86,12.86,0,0,0-.57,8A13.32,13.32,0,0,0,18.16,82.3a17.32,17.32,0,0,0,9.28-2.54,37,37,0,0,0,8-6.56C36.06,72.59,36.61,72,37.29,71.2ZM41,67a8.41,8.41,0,0,1,.51-.88,53.61,53.61,0,0,0,6.63-10.73,20.76,20.76,0,0,0,2.13-9.26,8.91,8.91,0,0,0-6-8.26A10.07,10.07,0,0,0,38,37.64a8.76,8.76,0,0,0-6.58,6.9,13.06,13.06,0,0,0,.29,6.16c1.54,6,4.82,11,8.56,15.76A5.52,5.52,0,0,0,41,67Z" fill="#ee4474"/><path d="M184.17,62.56c-.56,2.48-.56,2.48-3,2.48-1.28,0-2.56,0-3.84,0-1.44,0-1.48-.07-1.51-1.57,0-.21,0-.43,0-.64q0-22.16,0-44.32c0-.43,0-.85,0-1.28s.26-.86.76-.86c2.29,0,4.57,0,6.86.09.09,0,.17.12.43.31V34.66a3.36,3.36,0,0,0,.89-.31c4.15-3.46,8.86-3.48,13.6-1.85,6.31,2.18,9.84,6.84,10.87,13.41A17.33,17.33,0,0,1,206.34,59a16.22,16.22,0,0,1-17.05,6.42A9.73,9.73,0,0,1,185,63.07,6.75,6.75,0,0,0,184.17,62.56Zm-.25-13.89c0,1.6,0,3.2,0,4.8a2.79,2.79,0,0,0,1,2.25c2.63,2.52,5.79,3,9.2,2.31a9.21,9.21,0,0,0,7.43-9.78,9.18,9.18,0,0,0-5.83-8.57,10,10,0,0,0-10.84,1.92,2.86,2.86,0,0,0-.91,2.27C184,45.47,183.92,47.07,183.92,48.67Z" fill="#ee4474"/><path d="M256.26,62.48c-.11.66-.2,1.05-.25,1.46A1.11,1.11,0,0,1,254.84,65c-2.12,0-4.25,0-6.19,0-.22-.19-.26-.23-.29-.27a.3.3,0,0,1-.08-.13,8.78,8.78,0,0,1-.12-1.1q0-23.22,0-46.43a2.84,2.84,0,0,1,.18-.61,48.1,48.1,0,0,1,7.53-.06c0,.73.12,1.35.12,2q0,7.12,0,14.25c0,.63,0,1.25,0,2.06.48-.14.77-.14.93-.29,3.84-3.31,8.27-3.42,12.83-2.18a16.39,16.39,0,0,1,11.86,15.38c.17,4.67-.88,8.94-4,12.48-4.31,4.92-9.79,6.6-16.17,5.31a9.31,9.31,0,0,1-4.33-2.31A9.79,9.79,0,0,0,256.26,62.48ZM256,48.58c0,1.55.05,3.1,0,4.64a3.17,3.17,0,0,0,1.2,2.66,9.22,9.22,0,0,0,6.1,2.44c7.19.18,11.18-5.29,10.27-11.24a8.86,8.86,0,0,0-6.25-7.57,9.79,9.79,0,0,0-10.27,2,2.87,2.87,0,0,0-1,2.4C256.06,45.48,256,47,256,48.58Z" fill="#ee4474"/><path d="M124.87,34.72a2.76,2.76,0,0,0,.29-.56c.34-1.85.33-1.85,2.24-1.85h5.33c.43,1.4.51,30.7.12,32.62-.57,0-1.19.1-1.81.11q-2,0-4,0c-1.49,0-1.6-.13-1.84-1.58,0-.24-.13-.48-.25-.91-.5.35-.89.59-1.24.88a10.9,10.9,0,0,1-6,2.35,16.36,16.36,0,0,1-18-14.84c-1-8.33,3-14.87,9.42-17.85A16.21,16.21,0,0,1,119.73,32a9.85,9.85,0,0,1,4,2C124.07,34.21,124.46,34.44,124.87,34.72Zm.34,14c0-1.44-.11-2.89,0-4.32A3.58,3.58,0,0,0,123.56,41a10.13,10.13,0,0,0-11.83-.42c-3.67,2.28-4.81,6.49-3.83,10.69,1.77,7.58,11.71,9,16.21,4.59a3.17,3.17,0,0,0,1.11-2.53C125.17,51.77,125.21,50.22,125.21,48.68Z" fill="#ee4474"/><path d="M221.16,34.86c.5-.35.77-.51,1-.71,4-3.56,11.79-3.23,15.94-.41a10.9,10.9,0,0,1,5,9.14c.14,4.64.07,9.28.09,13.92q0,3.12,0,6.24c0,.57-.05,1.15-.09,1.93-2.59.1-5.06,0-7.67,0,0-.82-.11-1.44-.11-2.06,0-5.34,0-10.67,0-16a25.82,25.82,0,0,0-.23-2.86c-.53-4.53-3.36-5.44-6.57-5.42a9.21,9.21,0,0,0-5.86,2.23,3.23,3.23,0,0,0-1.28,2.76c0,6.3,0,12.59,0,18.89,0,.74,0,1.47,0,2.14a25.89,25.89,0,0,1-7.77.12c0-.51-.15-1.07-.15-1.63q0-14.49,0-29c0-.32,0-.64,0-1,0-.56.27-.92.87-.92,1.76,0,3.52,0,5.28,0a1.1,1.1,0,0,1,1.16,1.08C220.91,33.82,221,34.22,221.16,34.86Z" fill="#ee4474"/><path d="M171.86,38.78c-1.69,0-3.12,0-4.55,0a9.58,9.58,0,0,0-5.47,2,3,3,0,0,0-1.33,2.7c.05,6.34,0,12.68,0,19,0,.37,0,.75,0,1.12,0,1.37-.07,1.42-1.47,1.43-1.81,0-3.62,0-5.44,0-.8,0-1.21-.28-1.16-1.12,0-.32,0-.64,0-1q0-14.31,0-28.62c0-.21,0-.43,0-.64,0-1.29.1-1.38,1.35-1.39,1.6,0,3.2,0,4.8,0s1.68.16,1.93,1.69a2.71,2.71,0,0,0,.13.45s.07.07.18.18a8.85,8.85,0,0,0,.87-.56,11.48,11.48,0,0,1,9-2.42c.51.06,1,.17,1.07.75A58,58,0,0,1,171.86,38.78Z" fill="#ee4474"/><path d="M146.8,65h-7c-.6,0-.84-.37-.86-.93s0-.85,0-1.28q0-14.15,0-28.3c0-.27,0-.53,0-.8.06-1.28.15-1.39,1.38-1.41,1.81,0,3.62,0,5.44,0,.73,0,1.11.27,1.08,1,0,.37,0,.75,0,1.12q0,14.23,0,28.46Z" fill="#ee4474"/><path d="M142.84,27.27a5.41,5.41,0,0,1-5.43-5.5,5.51,5.51,0,0,1,5.42-5.41,5.57,5.57,0,0,1,5.54,5.47A5.47,5.47,0,0,1,142.84,27.27Z" fill="#ee4474"/></g></symbol></defs><title>airbnb</title><use width="281.67" height="87.56" transform="translate(35 23) scale(0.41 0.41)" xlink:href="#45f5c280-7ee6-483e-b6f4-56c5161ffc74"/></svg>