<?xml version="1.0" encoding="utf-8"?>
<!-- Generator: Adobe Illustrator 21.0.0, SVG Export Plug-In . SVG Version: 6.00 Build 0)  -->
<svg version="1.1" id="Layer_1" xmlns="http://www.w3.org/2000/svg" xmlns:xlink="http://www.w3.org/1999/xlink" x="0px" y="0px"
	 viewBox="0 0 1063.3 514.1" style="enable-background:new 0 0 1063.3 514.1;" xml:space="preserve">
<style type="text/css">
	.st0{display:none;}
	.st1{display:inline;fill:#F2F2F2;}
	
		.st2{display:inline;fill:none;stroke:#666666;stroke-linecap:round;stroke-linejoin:round;stroke-miterlimit:10;stroke-dasharray:0,3;}
	.st3{fill:#1F375B;}
	.st4{fill:#1493FF;}
</style>
<g id="Guides" class="st0">
	<path class="st1" d="M1722.7-288.6c-97.3,0-176.1,78.8-176.1,176.1s78.8,176.1,176.1,176.1s176.1-78.8,176.1-176.1
		S1820-288.6,1722.7-288.6z M1722.7,32.5c-80.1,0-145-64.9-145-145s64.9-145,145-145s145,64.9,145,145S1802.8,32.5,1722.7,32.5z"/>
	<path class="st1" d="M1810.7-136.1c-97.3,0-176.1,78.8-176.1,176.1s78.9,176.1,176.1,176.1s176.1-78.8,176.1-176.1
		S1908-136.1,1810.7-136.1z M1810.7,185c-80.1,0-145-64.9-145-145s64.9-145,145-145s145,64.9,145,145S1890.8,185,1810.7,185z"/>
	<path class="st1" d="M1898.8-288.6c-97.3,0-176.1,78.8-176.1,176.1s78.8,176.1,176.1,176.1s176.1-78.8,176.1-176.1
		S1996-288.6,1898.8-288.6z M1898.8,32.5c-80.1,0-145-64.9-145-145s64.9-145,145-145s145,64.9,145,145S1978.9,32.5,1898.8,32.5z"/>
	<line class="st2" x1="1256.7" y1="-136.1" x2="3174.7" y2="-136.1"/>
	<line class="st2" x1="1255.7" y1="-221.7" x2="3173.7" y2="-221.7"/>
	<line class="st2" x1="1256.7" y1="121.6" x2="3174.7" y2="121.6"/>
	<line class="st2" x1="1256.7" y1="40" x2="3174.7" y2="40"/>
	<line class="st2" x1="1256.7" y1="-105" x2="3174.7" y2="-105"/>
	<line class="st2" x1="1256.7" y1="9" x2="3174.7" y2="9"/>
	<path class="st1" d="M2708.7,41.5v19.2c0,0.8,0.7,1.5,1.5,1.5h44.7v34.4c0,0.6,0.4,1.2,1,1.4l16.8,6.1c1,0.4,2-0.4,2-1.4V62.2h28
		v51.7c0,0.6,0.4,1.2,1,1.4l16.8,6.1c1,0.4,2-0.4,2-1.4V41.4c0-0.8-0.7-1.5-1.5-1.5h-110.8C2709.4,40,2708.7,40.7,2708.7,41.5z"/>
	<line class="st2" x1="1955.2" y1="-618.4" x2="1955.2" y2="460.6"/>
	<line class="st2" x1="2708.7" y1="-618.4" x2="2708.7" y2="460.6"/>
	<line class="st2" x1="1608.8" y1="-618.4" x2="1608.8" y2="460.6"/>
	<line class="st2" x1="2822.6" y1="-618.4" x2="2822.6" y2="460.6"/>
	<line class="st2" x1="1722.7" y1="-618.4" x2="1722.7" y2="460.6"/>
</g>
<g>
	<g>
		<g>
			<path class="st3" d="M272.7,313.9h19.2c0.8,0,1.5-0.7,1.5-1.5v-44.7h34.4c0.6,0,1.2-0.4,1.4-1l6.1-16.8c0.4-1-0.4-2-1.4-2h-40.5
				v-28h51.7c0.6,0,1.2-0.4,1.4-1l6.1-16.8c0.4-1-0.4-2-1.4-2h-78.6c-0.8,0-1.5,0.7-1.5,1.5v110.8
				C271.2,313.2,271.9,313.9,272.7,313.9z"/>
			<path class="st3" d="M395.8,201l-40.3,110.8c-0.4,1,0.4,2,1.4,2h20c0.6,0,1.2-0.4,1.4-1l6.5-19.1h40.5l6.4,19.1
				c0.2,0.6,0.8,1,1.4,1H453c1,0,1.8-1,1.4-2L413.9,201c-0.2-0.6-0.8-1-1.4-1h-15.3C396.5,200,396,200.4,395.8,201z M391,275
				l14.4-41.4l13.9,41.4H391z"/>
			<path class="st3" d="M545.3,269.7l-44.6-69c-0.3-0.4-0.8-0.7-1.3-0.7h-17.5c-0.8,0-1.5,0.7-1.5,1.5v110.8c0,0.8,0.7,1.5,1.5,1.5
				h19.2c0.8,0,1.5-0.7,1.5-1.5V244l44.6,69.2c0.3,0.4,0.8,0.7,1.3,0.7H566c0.8,0,1.5-0.7,1.5-1.5V201.5c0-0.8-0.7-1.5-1.5-1.5
				h-19.2c-0.8,0-1.5,0.7-1.5,1.5V269.7z"/>
			<path class="st3" d="M781.8,274.1c0,13.1-7.8,20.9-19.8,20.9s-19.7-7.8-19.7-20.9v-72.5c0-0.8-0.7-1.5-1.5-1.5h-19.2
				c-0.8,0-1.5,0.7-1.5,1.5v73.3c0,24.1,18.5,40,41.9,40c23.3,0,41.9-15.8,41.9-40v-73.3c0-0.8-0.7-1.5-1.5-1.5h-19
				c-0.8,0-1.5,0.7-1.5,1.5L781.8,274.1L781.8,274.1L781.8,274.1z"/>
			<path class="st3" d="M915.2,218.9l6.1-16.8c0.4-1-0.4-2-1.4-2h-78.5c-0.8,0-1.5,0.7-1.5,1.5v110.8c0,0.8,0.7,1.5,1.5,1.5h78.5
				c1,0,1.8-1,1.4-2l-6.1-16.8c-0.2-0.6-0.8-1-1.4-1h-51.7v-27.7h41.6c0.8,0,1.5-0.7,1.5-1.5v-16.8c0-0.8-0.7-1.5-1.5-1.5h-41.6
				v-26.7h51.7C914.4,219.9,915,219.5,915.2,218.9z"/>
			<path class="st3" d="M1017.1,294.1h-47v-92.5c0-0.8-0.7-1.5-1.5-1.5h-19.2c-0.8,0-1.5,0.7-1.5,1.5v110.8c0,0.8,0.7,1.5,1.5,1.5
				h73.9c1,0,1.8-1,1.4-2l-6.1-16.8C1018.3,294.4,1017.7,294.1,1017.1,294.1z"/>
			<path class="st3" d="M676.4,210.9c-7.5-7.5-18.2-10.9-30.1-10.9h-45.2c-1,0-1.7,0.9-1.5,1.8l3.3,16.8c0.1,0.7,0.8,1.2,1.5,1.2h23
				h5.8h11c7.7,0,12.8,2.4,16.6,7c4.2,5.1,4.8,12.3,4.8,29.6s-0.6,25.4-4.8,30.5c-3.8,4.6-9,7-16.6,7h-16.8v-59.2
				c0-0.8-0.7-1.5-1.5-1.5h-19.2c-0.8,0-1.5,0.7-1.5,1.5v77.6c0,0.8,0.7,1.5,1.5,1.5h39.6c11.8,0,22.5-3.4,30.1-10.9
				c12.8-12.8,11.5-29.4,11.5-46.5C688,239.4,689.2,223.7,676.4,210.9z"/>
		</g>
	</g>
	<g>
		<path class="st4" d="M127.5,345c52.1-30.5,87.4-87.3,87.4-151.5c0-0.5-0.3-1-0.7-1.3c-21.6-12.4-46.8-20.5-73.4-22.6
			c-0.5,0-1,0.2-1.3,0.6c-6.9,9.1-12.9,18.9-17.8,29.3c-0.2,0.3,0.1,0.7,0.5,0.7c1.5,0,3-0.1,4.5-0.1c19.8,0,38.7,4,55.9,11.1
			c-5,39.4-25.9,73.8-55.9,96.8c-6.1-4.7-11.9-9.9-17.2-15.5c-0.3-0.4-1-0.1-0.9,0.4c2.9,18.4,9,35.8,17.6,51.6
			C126.5,345.1,127.1,345.2,127.5,345z"/>
		<path class="st4" d="M96.3,276.5c-3.5-4.9-6.7-10.1-9.6-15.5c2.9-1.4,5.9-2.6,9-3.7c0.6-0.2,0.9-0.7,1-1.3
			c0.7-10.9,2.5-21.6,5.2-31.9c0.1-0.4-0.2-0.7-0.6-0.6c-9.1,1.9-17.9,4.8-26.2,8.6c-1.9-6.7-3.3-13.7-4.2-20.8
			c12-5,24.7-8.4,38-10.1c0.5-0.1,0.9-0.4,1.1-0.8c4.6-10.8,10.1-20.6,17-30.6c0.2-0.3,0-0.8-0.4-0.8c-32.7,0.2-61.5,8.5-87.3,23.1
			c-0.5,0.3-0.8,0.8-0.8,1.3c0,55.3,27.6,107.6,69.7,139.6c0.4,0.3,1-0.1,0.8-0.6c-7.1-17.2-11.4-35.8-12.5-55.3
			C96.5,277,96.5,276.7,96.3,276.5z"/>
	</g>
</g>
</svg>
