<?xml version="1.0" encoding="utf-8"?>
<!-- Generator: Adobe Illustrator 21.0.0, SVG Export Plug-In . SVG Version: 6.00 Build 0)  -->
<svg version="1.1" id="Layer_1" xmlns="http://www.w3.org/2000/svg" xmlns:xlink="http://www.w3.org/1999/xlink" x="0px" y="0px"
	 viewBox="1624.3 397.8 1063.3 356.1" style="enable-background:new 1624.3 397.8 1063.3 356.1;" xml:space="preserve">
<style type="text/css">
	.st0{display:none;}
	.st1{display:inline;fill:#F2F2F2;}
	
		.st2{display:inline;fill:none;stroke:#666666;stroke-linecap:round;stroke-linejoin:round;stroke-miterlimit:10;stroke-dasharray:0,3;}
	.st3{fill:#1F375B;}
	.st4{fill:#1493FF;}
</style>
<g id="Guides" class="st0">
	<path class="st1" d="M3347,30.2c-97.3,0-176.1,78.8-176.1,176.1s78.8,176.1,176.1,176.1s176.1-78.8,176.1-176.1
		S3444.3,30.2,3347,30.2z M3347,351.3c-80.1,0-145-64.9-145-145s64.9-145,145-145s145,64.9,145,145S3427.1,351.3,3347,351.3z"/>
	<path class="st1" d="M3435,182.7c-97.3,0-176.1,78.8-176.1,176.1s78.9,176.1,176.1,176.1s176.1-78.8,176.1-176.1
		S3532.3,182.7,3435,182.7z M3435,503.8c-80.1,0-145-64.9-145-145s64.9-145,145-145s145,64.9,145,145S3515.1,503.8,3435,503.8z"/>
	<path class="st1" d="M3523.1,30.2c-97.3,0-176.1,78.8-176.1,176.1s78.8,176.1,176.1,176.1s176.1-78.8,176.1-176.1
		S3620.3,30.2,3523.1,30.2z M3523.1,351.3c-80.1,0-145-64.9-145-145s64.9-145,145-145s145,64.9,145,145S3603.2,351.3,3523.1,351.3z"
		/>
	<line class="st2" x1="2881" y1="182.7" x2="4799" y2="182.7"/>
	<line class="st2" x1="2880" y1="97.1" x2="4798" y2="97.1"/>
	<line class="st2" x1="2881" y1="440.4" x2="4799" y2="440.4"/>
	<line class="st2" x1="2881" y1="358.8" x2="4799" y2="358.8"/>
	<line class="st2" x1="2881" y1="213.8" x2="4799" y2="213.8"/>
	<line class="st2" x1="2881" y1="327.8" x2="4799" y2="327.8"/>
	<path class="st1" d="M4333,360.3v19.2c0,0.8,0.7,1.5,1.5,1.5h44.7v34.4c0,0.6,0.4,1.2,1,1.4l16.8,6.1c1,0.4,2-0.4,2-1.4V381h28
		v51.7c0,0.6,0.4,1.2,1,1.4l16.8,6.1c1,0.4,2-0.4,2-1.4v-78.6c0-0.8-0.7-1.5-1.5-1.5h-110.8C4333.7,358.8,4333,359.5,4333,360.3z"/>
	<line class="st2" x1="3579.5" y1="-299.6" x2="3579.5" y2="779.4"/>
	<line class="st2" x1="4333" y1="-299.6" x2="4333" y2="779.4"/>
	<line class="st2" x1="3233.1" y1="-299.6" x2="3233.1" y2="779.4"/>
	<line class="st2" x1="4446.9" y1="-299.6" x2="4446.9" y2="779.4"/>
	<line class="st2" x1="3347" y1="-299.6" x2="3347" y2="779.4"/>
</g>
<g>
	<g>
		<g>
			<path class="st3" d="M1897,632.7h19.2c0.8,0,1.5-0.7,1.5-1.5v-44.7h34.4c0.6,0,1.2-0.4,1.4-1l6.1-16.8c0.4-1-0.4-2-1.4-2h-40.5
				v-28h51.7c0.6,0,1.2-0.4,1.4-1l6.1-16.8c0.4-1-0.4-2-1.4-2h-78.6c-0.8,0-1.5,0.7-1.5,1.5v110.8
				C1895.5,632,1896.2,632.7,1897,632.7z"/>
			<path class="st3" d="M2020.1,519.8l-40.3,110.8c-0.4,1,0.4,2,1.4,2h20c0.6,0,1.2-0.4,1.4-1l6.5-19.1h40.5l6.4,19.1
				c0.2,0.6,0.8,1,1.4,1h19.9c1,0,1.8-1,1.4-2l-40.5-110.8c-0.2-0.6-0.8-1-1.4-1h-15.3C2020.8,518.8,2020.3,519.2,2020.1,519.8z
				 M2015.3,593.8l14.4-41.4l13.9,41.4H2015.3z"/>
			<path class="st3" d="M2169.6,588.5l-44.6-69c-0.3-0.4-0.8-0.7-1.3-0.7h-17.5c-0.8,0-1.5,0.7-1.5,1.5v110.8c0,0.8,0.7,1.5,1.5,1.5
				h19.2c0.8,0,1.5-0.7,1.5-1.5v-68.3l44.6,69.2c0.3,0.4,0.8,0.7,1.3,0.7h17.5c0.8,0,1.5-0.7,1.5-1.5V520.3c0-0.8-0.7-1.5-1.5-1.5
				h-19.2c-0.8,0-1.5,0.7-1.5,1.5V588.5z"/>
			<path class="st3" d="M2406.1,592.9c0,13.1-7.8,20.9-19.8,20.9s-19.7-7.8-19.7-20.9v-72.5c0-0.8-0.7-1.5-1.5-1.5h-19.2
				c-0.8,0-1.5,0.7-1.5,1.5v73.3c0,24.1,18.5,40,41.9,40c23.3,0,41.9-15.8,41.9-40v-73.3c0-0.8-0.7-1.5-1.5-1.5h-19
				c-0.8,0-1.5,0.7-1.5,1.5L2406.1,592.9L2406.1,592.9L2406.1,592.9z"/>
			<path class="st3" d="M2539.5,537.7l6.1-16.8c0.4-1-0.4-2-1.4-2h-78.5c-0.8,0-1.5,0.7-1.5,1.5v110.8c0,0.8,0.7,1.5,1.5,1.5h78.5
				c1,0,1.8-1,1.4-2l-6.1-16.8c-0.2-0.6-0.8-1-1.4-1h-51.7v-27.7h41.6c0.8,0,1.5-0.7,1.5-1.5v-16.8c0-0.8-0.7-1.5-1.5-1.5h-41.6
				v-26.7h51.7C2538.7,538.7,2539.3,538.3,2539.5,537.7z"/>
			<path class="st3" d="M2641.4,612.9h-47v-92.5c0-0.8-0.7-1.5-1.5-1.5h-19.2c-0.8,0-1.5,0.7-1.5,1.5v110.8c0,0.8,0.7,1.5,1.5,1.5
				h73.9c1,0,1.8-1,1.4-2l-6.1-16.8C2642.6,613.2,2642,612.9,2641.4,612.9z"/>
			<path class="st3" d="M2300.7,529.7c-7.5-7.5-18.2-10.9-30.1-10.9h-45.2c-1,0-1.7,0.9-1.5,1.8l3.3,16.8c0.1,0.7,0.8,1.2,1.5,1.2
				h23h5.8h11c7.7,0,12.8,2.4,16.6,7c4.2,5.1,4.8,12.3,4.8,29.6c0,17.3-0.6,25.4-4.8,30.5c-3.8,4.6-9,7-16.6,7h-16.8v-59.2
				c0-0.8-0.7-1.5-1.5-1.5H2231c-0.8,0-1.5,0.7-1.5,1.5v77.6c0,0.8,0.7,1.5,1.5,1.5h39.6c11.8,0,22.5-3.4,30.1-10.9
				c12.8-12.8,11.5-29.4,11.5-46.5C2312.3,558.2,2313.5,542.5,2300.7,529.7z"/>
		</g>
	</g>
	<g>
		<path class="st4" d="M1751.8,663.8c52.1-30.5,87.4-87.3,87.4-151.5c0-0.5-0.3-1-0.7-1.3c-21.6-12.4-46.8-20.5-73.4-22.6
			c-0.5,0-1,0.2-1.3,0.6c-6.9,9.1-12.9,18.9-17.8,29.3c-0.2,0.3,0.1,0.7,0.5,0.7c1.5,0,3-0.1,4.5-0.1c19.8,0,38.7,4,55.9,11.1
			c-5,39.4-25.9,73.8-55.9,96.8c-6.1-4.7-11.9-9.9-17.2-15.5c-0.3-0.4-1-0.1-0.9,0.4c2.9,18.4,9,35.8,17.6,51.6
			C1750.8,663.9,1751.4,664,1751.8,663.8z"/>
		<path class="st4" d="M1720.6,595.3c-3.5-4.9-6.7-10.1-9.6-15.5c2.9-1.4,5.9-2.6,9-3.7c0.6-0.2,0.9-0.7,1-1.3
			c0.7-10.9,2.5-21.6,5.2-31.9c0.1-0.4-0.2-0.7-0.6-0.6c-9.1,1.9-17.9,4.8-26.2,8.6c-1.9-6.7-3.3-13.7-4.2-20.8
			c12-5,24.7-8.4,38-10.1c0.5-0.1,0.9-0.4,1.1-0.8c4.6-10.8,10.1-20.6,17-30.6c0.2-0.3,0-0.8-0.4-0.8c-32.7,0.2-61.5,8.5-87.3,23.1
			c-0.5,0.3-0.8,0.8-0.8,1.3c0,55.3,27.6,107.6,69.7,139.6c0.4,0.3,1-0.1,0.8-0.6c-7.1-17.2-11.4-35.8-12.5-55.3
			C1720.8,595.8,1720.8,595.5,1720.6,595.3z"/>
	</g>
</g>
</svg>
