<svg id="Layer_1" data-name="Layer 1" xmlns="http://www.w3.org/2000/svg" xmlns:xlink="http://www.w3.org/1999/xlink" viewBox="0 0 186.4 82"><defs><symbol id="microsoft" data-name="microsoft" viewBox="0 0 1033.7 220.7"><path id="path5056" d="M1033.7,99.8V81.6h-22.6V53.3l-.8.2L989.1,60l-.4.1V81.5H955.2V69.6c0-5.6,1.2-9.8,3.7-12.6s5.9-4.2,10.3-4.2A25.25,25.25,0,0,1,979,55l.8.4V36.3l-.4-.1a38.39,38.39,0,0,0-12.5-1.7,36.07,36.07,0,0,0-17.8,4.3,30.23,30.23,0,0,0-12.2,12.1,35.69,35.69,0,0,0-4.3,17.7V81.7H916.9V99.9h15.7v76.6h22.6V99.9h33.5v48.7c0,20,9.5,30.2,28.1,30.2a46.37,46.37,0,0,0,9.6-1.1,25,25,0,0,0,7-2.2l.3-.2V157l-.9.6a17,17,0,0,1-4.5,2,17.83,17.83,0,0,1-4.5.8c-4.4,0-7.6-1.2-9.6-3.5s-3.1-6.4-3.1-12.2V100l22.6-.2ZM866.6,160.3q-12.3,0-19.2-8.1t-6.9-22.8c0-10,2.3-17.9,6.9-23.4s11-8.2,19-8.2c7.8,0,14.1,2.6,18.5,7.8s6.8,13,6.8,23.2-2.1,18.2-6.4,23.5c-4.1,5.3-10.4,8-18.7,8m1-80.9c-15.6,0-28,4.6-36.9,13.6s-13.3,21.5-13.3,37.2c0,14.8,4.4,26.8,13,35.5s20.4,13.1,34.9,13.1c15.1,0,27.3-4.6,36.2-13.8s13.3-21.5,13.3-36.8c0-15.1-4.2-27.1-12.5-35.7s-19.9-13.1-34.7-13.1m-86.6,0c-10.6,0-19.4,2.7-26.1,8.1a25.72,25.72,0,0,0-10.2,21,29.22,29.22,0,0,0,2.2,11.8,23.78,23.78,0,0,0,6.7,8.8c3,2.5,7.6,5,13.7,7.7a101.93,101.93,0,0,1,11.4,5.3,15.8,15.8,0,0,1,5,4.1,9.37,9.37,0,0,1,1.4,5.4c0,6.4-4.8,9.5-14.6,9.5a39.93,39.93,0,0,1-12.3-2.3,45.38,45.38,0,0,1-12.6-6.4l-.9-.7v21.7l.3.2a55.18,55.18,0,0,0,12,3.7,62.27,62.27,0,0,0,12.8,1.5c11.5,0,20.8-2.7,27.6-8.1a26.35,26.35,0,0,0,10.3-21.5,25.09,25.09,0,0,0-5.5-16.3c-3.6-4.4-10-8.4-18.8-12-7-2.8-11.5-5.2-13.4-7s-2.7-4.2-2.7-7.3a8.16,8.16,0,0,1,3.4-6.8c2.3-1.8,5.6-2.7,9.6-2.7a37.68,37.68,0,0,1,11.4,1.8,38.45,38.45,0,0,1,10,4.6l.9.6V83.5l-.4-.2a46.3,46.3,0,0,0-10.1-2.8A67,67,0,0,0,781,79.4m-95.1,80.9q-12.3,0-19.2-8.1t-6.9-22.8c0-10,2.3-17.9,6.9-23.4s10.9-8.2,19-8.2c7.8,0,14.1,2.6,18.5,7.8s6.8,13,6.8,23.2-2.1,18.2-6.4,23.5-10.5,8-18.7,8m1-80.9c-15.6,0-28,4.6-36.9,13.6s-13.3,21.5-13.3,37.2c0,14.8,4.4,26.8,13,35.5s20.4,13.1,34.9,13.1c15.1,0,27.3-4.6,36.2-13.8s13.3-21.5,13.3-36.8c0-15.1-4.2-27.1-12.5-35.7s-20-13.1-34.7-13.1M602.4,98.1V81.7H580.1v94.8h22.3V128c0-8.2,1.9-15,5.6-20.1a16.87,16.87,0,0,1,14.4-7.6,24.2,24.2,0,0,1,6.7,1,19.5,19.5,0,0,1,5.2,2.1l.9.7V81.6l-.4-.2a22.76,22.76,0,0,0-8.7-1.3,23,23,0,0,0-14.9,5.3c-3.8,3.1-6.5,7.4-8.6,12.7ZM540.2,79.4c-10.2,0-19.3,2.2-27.1,6.5a43.52,43.52,0,0,0-17.9,18.4c-4.1,7.8-6.1,17-6.1,27.2a49.57,49.57,0,0,0,6,24.4,42.44,42.44,0,0,0,16.7,16.9,50.05,50.05,0,0,0,24.4,5.9c10.6,0,19.6-2.1,26.9-6.3l.3-.2V151.8l-.9.7a43.54,43.54,0,0,1-10.9,5.7,32.08,32.08,0,0,1-10.7,2.1c-8.7,0-15.8-2.7-20.9-8.1s-7.7-13-7.7-22.5,2.7-17.4,8-23.1S532.6,98,541.2,98c7.3,0,14.5,2.5,21.2,7.4l.9.7V84.6l-.3-.2a37.25,37.25,0,0,0-10.3-3.5,50.18,50.18,0,0,0-12.5-1.5m-66.5,2.3H451.4v94.8h22.3ZM462.8,41.3a13.21,13.21,0,0,0-9.5,3.7,12.47,12.47,0,0,0-4,9.3,12,12,0,0,0,3.9,9.1,13.55,13.55,0,0,0,9.5,3.6,13.8,13.8,0,0,0,9.6-3.6,12,12,0,0,0,4-9.1,12.32,12.32,0,0,0-3.9-9.2,13,13,0,0,0-9.6-3.8M407.2,74.7V176.5H430V44.2H398.5l-40,98.2L319.7,44.2H286.9V176.4h21.4V74.7h.7l41,101.8h16.1L406.5,74.7Z" style="fill:#787878"/><path id="path5058" d="M104.9,104.9H0V0H104.9Z" style="fill:#f05528"/><path id="path5060" d="M220.7,104.9H115.8V0H220.7Z" style="fill:#80bc41"/><path id="path5062" d="M104.9,220.7H0V115.8H104.9Z" style="fill:#34a1da"/><path id="path5064" d="M220.7,220.7H115.8V115.8H220.7Z" style="fill:#fcb813"/></symbol></defs><title>microsoft</title><use width="1033.7" height="220.7" transform="translate(19 25) scale(0.14 0.14)" xlink:href="#microsoft"/></svg>