<svg data-name="Layer 1" xmlns="http://www.w3.org/2000/svg" viewBox="0 0 65 65"><path d="M47.8 46.6a.5.5 0 01-.5-.5V15.5a.5.5 0 011 0v30.6a.5.5 0 01-.5.5z" fill="#fff" opacity=".6"/><path d="M56.3 16h-17a.5.5 0 010-1h17a.5.5 0 010 1zM56.3 46.6h-17a.5.5 0 010-1h17a.5.5 0 010 1z" fill="#fff" opacity=".6"/><path d="M47.8 56.8a.49.49 0 01-.38-.18l-8.5-10.2a.47.47 0 01-.12-.32V7a.5.5 0 01.5-.5h17a.5.5 0 01.5.5v39.1a.47.47 0 01-.12.32l-8.5 10.2a.49.49 0 01-.38.18zm-8-10.88l8 9.6 8-9.6V7.5h-16zm16.5.18zM16.35 31.3H8.7a.5.5 0 010-1h7.65a.5.5 0 010 1zM14.65 38.1h-6a.5.5 0 110-1h6a.5.5 0 010 1zM14.65 51.7h-6a.5.5 0 010-1h6a.5.5 0 110 1zM16.35 17.7H8.7a.5.5 0 010-1h7.65a.5.5 0 010 1zM14.65 24.5h-6a.5.5 0 010-1h6a.5.5 0 010 1zM16.35 44.9H8.7a.5.5 0 110-1h7.65a.5.5 0 010 1zM22.3 16a2.2 2.2 0 112.2-2.2 2.21 2.21 0 01-2.2 2.2zm0-3.4a1.2 1.2 0 101.2 1.2 1.2 1.2 0 00-1.2-1.2z" fill="#fff" opacity=".6"/><path d="M29.1 58.5H8.7a.5.5 0 01-.5-.5V7a.5.5 0 01.5-.5h20.4a.5.5 0 01.5.5v51a.5.5 0 01-.5.5zm-19.9-1h19.4v-50H9.2z" fill="#fff" opacity=".6"/><path d="M29.1 58.5H8.7a.5.5 0 010-1h19.9V7a.5.5 0 011 0v51a.5.5 0 01-.5.5zM47.8 56.8a.5.5 0 01-.38-.82l8.38-10.06V7.5h-8a.5.5 0 010-1h8.5a.5.5 0 01.5.5v39.1a.47.47 0 01-.12.32l-8.5 10.2a.49.49 0 01-.38.18z" fill="#fff" opacity=".6"/></svg>