<svg data-name="Layer 1" xmlns="http://www.w3.org/2000/svg" viewBox="0 0 65 65"><g opacity=".6" fill="#fff"><path d="M54.6 58.5H10.4a3.91 3.91 0 01-3.9-3.9V27.4a.5.5 0 01.24-.4.52.52 0 01.5 0L32.5 40.43 57.76 27a.52.52 0 01.5 0 .5.5 0 01.24.43V54.6a3.91 3.91 0 01-3.9 3.9zM7.5 28.23V54.6a2.9 2.9 0 002.9 2.9h44.2a2.9 2.9 0 002.9-2.9V28.23L32.74 41.44a.51.51 0 01-.48 0zM51.2 22.8a.5.5 0 01-.5-.5V7.5H14.3v14.8a.5.5 0 01-1 0V7a.5.5 0 01.5-.5h37.4a.5.5 0 01.5.5v15.3a.5.5 0 01-.5.5z"/><path d="M41 17.7H24a.5.5 0 010-1h17a.5.5 0 010 1zM41 27.9H24a.5.5 0 010-1h17a.5.5 0 010 1z"/></g></svg>