<svg data-name="Layer 1" xmlns="http://www.w3.org/2000/svg" viewBox="0 0 65 65"><path d="M26.12 58.51a5.47 5.47 0 01-3.54-1.25c-9.57-7.74-11.45-15-11.35-19.79.12-5.43 2.9-9.87 5.6-11.86a16 16 0 0115.67-1.36 16 16 0 0115.66 1.35c2.7 2 5.48 6.43 5.6 11.86.1 4.76-1.78 12.05-11.35 19.79-3.77 3-8.61-.32-9.92-1.34-.91.73-3.56 2.6-6.37 2.6zm-.25-34.69a15 15 0 00-8.46 2.6c-2.49 1.84-5.06 6-5.18 11.07-.1 4.54 1.73 11.51 11 19 3.66 3 8.91-1.55 9-1.59a.49.49 0 01.66 0c.05 0 5.31 4.53 9 1.59C51 49 52.87 42 52.77 37.49a14.62 14.62 0 00-5.19-11.07 15 15 0 00-14.87-1.16.51.51 0 01-.42 0 14.92 14.92 0 00-6.42-1.44z" fill="#fff" opacity=".6"/><path d="M38.88 58.51c-3.37 0-6.53-2.7-6.71-2.86a.49.49 0 01-.05-.7.51.51 0 01.71-.05c.05 0 5.31 4.53 9 1.59C51 49 52.87 42 52.77 37.49c-.12-5.09-2.69-9.23-5.19-11.08a15 15 0 00-14.87-1.15.5.5 0 01-.66-.24.49.49 0 01.24-.66 16 16 0 0115.87 1.24c2.71 2 5.49 6.44 5.61 11.87.1 4.76-1.78 12.05-11.35 19.79a5.47 5.47 0 01-3.54 1.25zM33.6 18.69h-1.14a.5.5 0 01-.34-.18.48.48 0 01-.12-.36 14.29 14.29 0 014.16-8.89l.06-.05a14.28 14.28 0 019.45-2.62.49.49 0 01.34.17.5.5 0 01.12.37A14.27 14.27 0 0142 16a14.27 14.27 0 01-8.4 2.69zm-.55-1a13.21 13.21 0 008.28-2.47 13.28 13.28 0 003.75-7.7A13.3 13.3 0 0036.83 10a13.31 13.31 0 00-3.78 7.68z" fill="#fff" opacity=".6"/><path d="M32.5 18.65a.51.51 0 01-.46-.54 14.29 14.29 0 014.16-8.89 14.3 14.3 0 019.51-2.67.5.5 0 01.46.54.49.49 0 01-.54.45A13.32 13.32 0 0036.8 10a13.27 13.27 0 00-3.8 8.19.5.5 0 01-.5.46z" fill="#fff" opacity=".6"/></svg>