<svg data-name="Layer 1" xmlns="http://www.w3.org/2000/svg" viewBox="0 0 65 65"><path d="M32.5 40.65a8.15 8.15 0 118.15-8.15 8.16 8.16 0 01-8.15 8.15zm0-15.3a7.15 7.15 0 107.15 7.15 7.16 7.16 0 00-7.15-7.15z" fill="#fff" opacity=".6"/><path d="M35.9 58.5h-6.8a.51.51 0 01-.5-.44l-.87-7a19.1 19.1 0 01-5-2.08l-5.54 4.31a.5.5 0 01-.66 0l-4.81-4.81a.5.5 0 010-.66L16 42.28a19.07 19.07 0 01-2.07-5l-7-.87a.51.51 0 01-.44-.5V29.1a.51.51 0 01.44-.5l7-.87a19.07 19.07 0 012.07-5l-4.31-5.54a.5.5 0 010-.66l4.81-4.81a.5.5 0 01.66 0L22.72 16a19.07 19.07 0 015-2.07l.87-7a.51.51 0 01.5-.44h6.8a.51.51 0 01.5.44l.87 7a19.07 19.07 0 015 2.07l5.54-4.31a.5.5 0 01.66 0l4.81 4.81a.5.5 0 010 .66L49 22.72a19.1 19.1 0 012.08 5l7 .87a.51.51 0 01.44.5v6.8a.51.51 0 01-.44.5l-7 .87a19.1 19.1 0 01-2.08 5l4.31 5.54a.5.5 0 010 .66l-4.81 4.81a.5.5 0 01-.66 0L42.28 49a19.1 19.1 0 01-5 2.08l-.87 7a.51.51 0 01-.51.42zm-6.36-1h5.92l.86-6.87a.49.49 0 01.38-.42A17.93 17.93 0 0042.05 48a.5.5 0 01.57 0l5.47 4.25 4.18-4.18L48 42.62a.5.5 0 010-.57 18.2 18.2 0 002.22-5.35.49.49 0 01.42-.38l6.87-.86v-5.92l-6.87-.86a.48.48 0 01-.42-.38A18.2 18.2 0 0048 23a.5.5 0 010-.57l4.25-5.47-4.18-4.18L42.62 17a.5.5 0 01-.57 0 17.91 17.91 0 00-5.35-2.2.5.5 0 01-.38-.43l-.86-6.87h-5.92l-.86 6.87a.49.49 0 01-.38.43A17.91 17.91 0 0023 17a.5.5 0 01-.57 0l-5.46-4.25-4.19 4.18L17 22.38a.5.5 0 010 .62 17.91 17.91 0 00-2.2 5.3.49.49 0 01-.43.38l-6.87.86v5.92l6.87.86a.49.49 0 01.43.38 17.91 17.91 0 002.2 5.35.5.5 0 010 .57l-4.25 5.47 4.19 4.18L22.38 48a.5.5 0 01.62 0 18.31 18.31 0 005.35 2.22.48.48 0 01.38.42zM58 35.9z" fill="#fff" opacity=".6"/><path d="M35.9 58.5h-6.8a.5.5 0 110-1h6.36l.86-6.87a.49.49 0 01.38-.42A17.93 17.93 0 0042.05 48a.5.5 0 01.57 0l5.47 4.25 4.18-4.18L48 42.62a.5.5 0 010-.57 18.2 18.2 0 002.22-5.35.49.49 0 01.42-.38l6.87-.86v-5.92l-6.87-.86a.48.48 0 01-.42-.38A18.2 18.2 0 0048 23a.5.5 0 010-.57l4.25-5.47-4.18-4.18L42.62 17a.5.5 0 01-.57 0 17.91 17.91 0 00-5.35-2.2.5.5 0 01-.38-.43l-.86-6.87H29.1a.5.5 0 010-1h6.8a.51.51 0 01.5.44l.87 7a19.07 19.07 0 015 2.07l5.54-4.31a.5.5 0 01.66 0l4.81 4.81a.5.5 0 010 .66L49 22.72a19.1 19.1 0 012.08 5l7 .87a.51.51 0 01.44.5v6.8a.51.51 0 01-.44.5l-7 .87a19.1 19.1 0 01-2.08 5l4.31 5.54a.5.5 0 010 .66l-4.81 4.81a.5.5 0 01-.66 0L42.28 49a19.1 19.1 0 01-5 2.08l-.87 7a.51.51 0 01-.51.42z" fill="#fff" opacity=".6"/><path d="M32.5 40.65a8.15 8.15 0 010-16.3.5.5 0 010 1 7.15 7.15 0 000 14.3.5.5 0 010 1z" fill="#fff" opacity=".6"/></svg>