<svg data-name="Layer 1" xmlns="http://www.w3.org/2000/svg" viewBox="0 0 65 65"><path d="M10.4 46.6a.54.54 0 01-.22-.05.51.51 0 01-.28-.45V33.56A15.42 15.42 0 016.5 24c0-9.65 9.38-17.5 20.9-17.5S48.3 14.35 48.3 24s-9.38 17.5-20.9 17.5a24.19 24.19 0 01-8.17-1.4l-8.53 6.4a.47.47 0 01-.3.1zm17-39.1c-11 0-19.9 7.4-19.9 16.5a14.51 14.51 0 003.29 9.08.51.51 0 01.11.31V45.1l8-6a.49.49 0 01.47-.07 23.15 23.15 0 008.03 1.47c11 0 19.9-7.4 19.9-16.5S38.37 7.5 27.4 7.5z" fill="#fff" opacity=".6"/><path d="M54.6 58.5a.57.57 0 01-.28-.08l-9.26-6.18a24.48 24.48 0 01-7.46 1.16 22.94 22.94 0 01-14.88-5.21.49.49 0 01-.06-.7.51.51 0 01.71-.06 21.9 21.9 0 0014.23 5 23.31 23.31 0 007.4-1.22.56.56 0 01.44.06l8.69 5.8V45.29a.51.51 0 01.11-.31 14.14 14.14 0 00.66-17.28.49.49 0 01.1-.7.5.5 0 01.69.12 15.12 15.12 0 01-.59 18.33V58a.51.51 0 01-.26.44.53.53 0 01-.24.06z" fill="#fff" opacity=".6"/><path d="M10.4 46.6a.54.54 0 01-.22-.05.51.51 0 01-.28-.45V33.56A15.42 15.42 0 016.5 24c0-9.65 9.38-17.5 20.9-17.5S48.3 14.35 48.3 24s-9.38 17.5-20.9 17.5a24.19 24.19 0 01-8.17-1.4l-8.53 6.4a.47.47 0 01-.3.1zm17-39.1c-11 0-19.9 7.4-19.9 16.5a14.51 14.51 0 003.29 9.08.51.51 0 01.11.31V45.1l8-6a.49.49 0 01.47-.07 23.15 23.15 0 008.03 1.47c11 0 19.9-7.4 19.9-16.5S38.37 7.5 27.4 7.5z" fill="#fff" opacity=".6"/></svg>