<svg data-name="Layer 1" xmlns="http://www.w3.org/2000/svg" viewBox="0 0 65 65"><path d="M14.65 23.65a6.45 6.45 0 116.45-6.45 6.45 6.45 0 01-6.45 6.45zm0-11.9a5.45 5.45 0 105.45 5.45 5.45 5.45 0 00-5.45-5.45zM20.6 54.25H7a.5.5 0 01-.5-.5V34.2a7.45 7.45 0 017.29-7.3c3.88 0 5.7 2.34 7.81 5.05a21.61 21.61 0 007.72 6.9.5.5 0 01-.44.9 22.41 22.41 0 01-8.07-7.19c-2-2.6-3.63-4.66-7-4.66a6.45 6.45 0 00-6.3 6.31v19H20.1V40.15a.5.5 0 011 0v13.6a.5.5 0 01-.5.5zM50.35 23.65a6.45 6.45 0 116.45-6.45 6.45 6.45 0 01-6.45 6.45zm0-11.9a5.45 5.45 0 105.45 5.45 5.45 5.45 0 00-5.45-5.45zM58 54.25H44.4a.5.5 0 01-.5-.5v-13.6a.5.5 0 011 0v13.1h12.6v-19a6.45 6.45 0 00-6.31-6.3c-3.37 0-5 2.06-7 4.66a22.41 22.41 0 01-8.07 7.19.5.5 0 01-.44-.9A21.61 21.61 0 0043.4 32c2.11-2.71 3.93-5.05 7.8-5.05a7.45 7.45 0 017.3 7.29v19.51a.5.5 0 01-.5.5z" fill="#fff" opacity=".6"/><path d="M50.35 23.65a6.45 6.45 0 116.45-6.45 6.45 6.45 0 01-6.45 6.45zm0-11.9a5.45 5.45 0 105.45 5.45 5.45 5.45 0 00-5.45-5.45zM58 54.25H44.4a.5.5 0 01-.5-.5v-13.6a.5.5 0 011 0v13.1h12.6v-19a6.45 6.45 0 00-6.31-6.3c-3.37 0-5 2.06-7 4.66a22.41 22.41 0 01-8.07 7.19.5.5 0 01-.44-.9A21.61 21.61 0 0043.4 32c2.11-2.71 3.93-5.05 7.8-5.05a7.45 7.45 0 017.3 7.29v19.51a.5.5 0 01-.5.5z" fill="#fff" opacity=".6"/></svg>