<svg id="Layer_1" data-name="Layer 1" xmlns="http://www.w3.org/2000/svg" viewBox="0 0 186.4 82"><title>letgo</title><path d="M138.24,37.52a10.65,10.65,0,0,0-.83-3.33A6.56,6.56,0,0,0,134,30.71a8.19,8.19,0,0,0-3.76-.61,8.7,8.7,0,0,0-2.67.55,12,12,0,0,0-4.94,3.67A19.56,19.56,0,0,0,119.05,41a19.08,19.08,0,0,0-.89,4.74,12.37,12.37,0,0,0,.1,2.85.4.4,0,0,1-.17.42,36.13,36.13,0,0,1-5,3.26.52.52,0,0,1-.15.06c0-.07,0-.12,0-.17.09-.48.19-1,.28-1.43l.87-4.68c.31-1.69.63-3.39,1-5.08s.6-3.26.91-4.9.63-3.36.94-5a.22.22,0,0,0-.12-.27,3.29,3.29,0,0,0-1.72-.51,3.66,3.66,0,0,0-3,1.29.59.59,0,0,0-.06.14c-.18-.15-.3-.27-.43-.37a3.79,3.79,0,0,0-.4-.3,6.48,6.48,0,0,0-4.36-.92,7,7,0,0,0-3.2,1.23A12.4,12.4,0,0,0,100.16,35a21.17,21.17,0,0,0-2.72,6.33,23.77,23.77,0,0,0-.74,5.31c0,.65,0,1.3,0,1.94a.32.32,0,0,1-.13.3,9.22,9.22,0,0,1-2,1.3,5.8,5.8,0,0,1-2.8.65,1.4,1.4,0,0,1-1.31-1,3.3,3.3,0,0,1-.12-1.76c.12-.78.28-1.55.44-2.32q.67-3.22,1.36-6.45c.4-1.93.81-3.86,1.21-5.79,0-.15.09-.19.24-.19.74,0,1.49,0,2.23,0a1.79,1.79,0,0,0,1.51-.93,2.69,2.69,0,0,0,.31-1.67c0-.17-.06-.2-.22-.2H94.05a.62.62,0,0,0,0-.12c.42-2,.84-4,1.27-6,.09-.45.1-.45-.32-.64a4.88,4.88,0,0,0-2.92-.31,3.72,3.72,0,0,0-3.08,3c-.28,1.3-.57,2.61-.86,3.91a.15.15,0,0,1-.17.14h-.86a2,2,0,0,0-2,1.53,2.76,2.76,0,0,0,0,1.31h2.43a1.23,1.23,0,0,1,0,.13c-.29,1.4-.59,2.79-.88,4.19-.51,2.37-1,4.74-1.51,7.12a3,3,0,0,1-.87,1.86c-.09.08-.17.18-.26.27a15.39,15.39,0,0,1-5.58,3.54,9.41,9.41,0,0,1-4.72.67,4,4,0,0,1-2.59-1.34,4.6,4.6,0,0,1-.93-1.94c-.07-.3-.07-.3.19-.44a53,53,0,0,0,6-3.81A18,18,0,0,0,80,40.22a8.19,8.19,0,0,0,1.74-6.49,3.82,3.82,0,0,0-2.27-3,6.39,6.39,0,0,0-2.14-.56,9.25,9.25,0,0,0-3,.14,10.06,10.06,0,0,0-5,2.76A16.54,16.54,0,0,0,66,37.77,21.79,21.79,0,0,0,64,45.32a15.08,15.08,0,0,0,0,3.15c0,.12,0,.2-.11.26a32.93,32.93,0,0,1-4.59,1.62,7.5,7.5,0,0,1-2.78.35,2.37,2.37,0,0,1-2.24-2.44,10.87,10.87,0,0,1,.17-2.13A2.58,2.58,0,0,1,54.78,45a90.41,90.41,0,0,0,6.44-11.44,36.74,36.74,0,0,0,2.51-6.9,9.45,9.45,0,0,0,.32-3.47A3.54,3.54,0,0,0,60.42,20a5.35,5.35,0,0,0-3.16.83,8.55,8.55,0,0,0-2.6,2.62,20.62,20.62,0,0,0-2.26,4.59,60.75,60.75,0,0,0-2.63,10.08c-.39,2.12-.72,4.24-1.05,6.36-.22,1.42-.39,2.84-.56,4.26a8.22,8.22,0,0,0,.15,2.84,4.66,4.66,0,0,0,2.55,3.31,6.64,6.64,0,0,0,3.86.48,14.33,14.33,0,0,0,2.74-.71,38.19,38.19,0,0,0,6-2.87l1.26-.74a.23.23,0,0,0,0,0,.54.54,0,0,0,.07.13,7,7,0,0,0,3.25,3.32,9.46,9.46,0,0,0,4.69.89,14.1,14.1,0,0,0,3.9-.75,18.37,18.37,0,0,0,7.18-4.47L84.1,50a1.42,1.42,0,0,1,0,.23,7.66,7.66,0,0,0,.13,2.29,3.61,3.61,0,0,0,1,2,4,4,0,0,0,2.79,1,8.82,8.82,0,0,0,3.33-.61,15.47,15.47,0,0,0,5.56-3.62l.22-.19.07.22a7.42,7.42,0,0,0,1,2.23,4.43,4.43,0,0,0,4.41,1.93,5.11,5.11,0,0,0,2.31-.91,11.2,11.2,0,0,0,2.82-2.8l.53-.73,0,0a.17.17,0,0,1,0,.07c-.28,1.14-.57,2.29-.84,3.44a.46.46,0,0,1-.32.35,32.13,32.13,0,0,0-5.61,3.07A19.11,19.11,0,0,0,97,62.2a9.88,9.88,0,0,0-2,4.72,7.92,7.92,0,0,0,.32,3.62,4.9,4.9,0,0,0,2.7,3,5.55,5.55,0,0,0,3,.34A7.61,7.61,0,0,0,105,72.19a12.7,12.7,0,0,0,2.9-3.5,27.38,27.38,0,0,0,2.31-5.19,68,68,0,0,0,2.15-8.07.5.5,0,0,1,.28-.37A39.4,39.4,0,0,0,118.69,51a.53.53,0,0,1,.1-.06l0,0a1,1,0,0,1,.07.15,7,7,0,0,0,2,2.86,6.69,6.69,0,0,0,4.22,1.49,9.34,9.34,0,0,0,2.93-.4,11.72,11.72,0,0,0,5.17-3.32,18.1,18.1,0,0,0,3.64-5.8A18.3,18.3,0,0,0,138.24,37.52Zm-82.8,2c.23-1.28.45-2.56.7-3.84a70,70,0,0,1,2.22-9,13,13,0,0,1,1-2.42,5.7,5.7,0,0,1,.59-.78.73.73,0,0,1,.66-.27.68.68,0,0,1,.68.57,3,3,0,0,1,0,1.34,41,41,0,0,1-2.17,7.37,69.69,69.69,0,0,1-3.77,8.25l-.09.16-.05,0C55.29,40.45,55.36,40,55.44,39.56ZM70,44.65a23.72,23.72,0,0,1,1.08-5.19A11.33,11.33,0,0,1,73,35.76,4.68,4.68,0,0,1,75.71,34a4.91,4.91,0,0,1,.77-.09,1.28,1.28,0,0,1,1.2.68A2.56,2.56,0,0,1,78,36.1a7.67,7.67,0,0,1-1.87,4.2,20.39,20.39,0,0,1-4.19,3.84c-.57.41-1.16.8-1.75,1.19l-.23.13C70,45.16,70,44.91,70,44.65Zm36.33,14.28a48.2,48.2,0,0,1-2.17,6.4,11.24,11.24,0,0,1-1.71,2.89,4.09,4.09,0,0,1-2.19,1.37,1.94,1.94,0,0,1-2.42-1.68,4.58,4.58,0,0,1,.51-2.83,10.31,10.31,0,0,1,2.19-2.93,21.31,21.31,0,0,1,5.77-3.89l.23-.09C106.46,58.46,106.4,58.69,106.33,58.93Zm4.8-24.65-.69,3.79c-.27,1.45-.54,2.9-.8,4.35s-.51,2.78-.77,4.17l0,.19a2.26,2.26,0,0,1-.69,1.35,6.81,6.81,0,0,1-2.68,2.07,2.63,2.63,0,0,1-1.59.18,2.22,2.22,0,0,1-1.59-1.57,6.24,6.24,0,0,1-.28-2,23.62,23.62,0,0,1,1.29-7.76,10.84,10.84,0,0,1,1.81-3.32A5.06,5.06,0,0,1,111,34.08C111.12,34.12,111.16,34.16,111.13,34.28Zm22.56,9.77a16.34,16.34,0,0,1-2.32,4.72,6.31,6.31,0,0,1-2.34,2.1,2.74,2.74,0,0,1-2.46.12,2.92,2.92,0,0,1-1.34-1.37,6.27,6.27,0,0,1-.7-2.35A15,15,0,0,1,127,36.77a7.18,7.18,0,0,1,2.76-2.51,4.33,4.33,0,0,1,2.37-.45,2.29,2.29,0,0,1,1.68,1,4.72,4.72,0,0,1,.73,2.08c.07.53.1,1.06.13,1.34A19.54,19.54,0,0,1,133.69,44.05Z" style="fill:#ee4358"/></svg>