<?xml version="1.0" encoding="utf-8"?>
<svg version="1.1" id="Layer_1" x="0px" y="0px" viewBox="0 0 512 512" enable-background="new 0 0 512 512" xmlns="http://www.w3.org/2000/svg">
  <path fill="#FE5B5F" d="M 256 398.096 C 233.833 422.899 205.027 447.702 171.63 451.804 L 171.63 451.608 C 138.722 465.377 75.347 431.297 75.347 369.387 C 75.347 328.374 127.981 237.657 183.641 120.575 C 198.289 90.108 213.522 58.665 255.902 58.665 C 298.575 58.665 313.125 88.741 330.995 125.75 C 436.653 336.674 436.653 348.295 436.653 369.387 C 436.653 441.843 346.912 499.848 256 398.096 L 256 398.096 Z M 411.947 369.387 C 411.947 337.065 306.973 132.976 306.094 131.316 C 290.861 99.873 281.78 83.37 256.098 83.37 C 225.729 83.37 217.917 107.587 203.171 136.687 C 100.053 342.533 100.053 353.763 100.053 369.387 C 100.053 418.7 160.694 468.99 239.692 379.347 C 206.882 336.967 190.184 300.544 190.184 271.151 C 190.184 226.134 223.287 202.503 256 202.503 C 288.713 202.503 321.816 226.037 321.816 271.151 C 321.816 300.544 305.216 336.967 272.308 379.347 C 348.084 465.279 411.947 421.435 411.947 369.387 L 411.947 369.387 Z M 256 227.209 C 235.494 227.209 214.889 240.782 214.889 271.151 C 214.889 293.806 229.049 324.468 256 360.11 C 282.951 324.468 297.111 293.708 297.111 271.151 C 297.111 240.782 276.507 227.209 256 227.209 L 256 227.209 Z" style=""/>
</svg>