<svg id="2ba24506-7254-47d2-a46f-5a6f257ea2d2" data-name="Layer 1" xmlns="http://www.w3.org/2000/svg" xmlns:xlink="http://www.w3.org/1999/xlink" width="186.4" height="82" viewBox="0 0 186.4 82"><defs><symbol id="73e8eb36-2577-4fd3-8685-8e481e879118" data-name="amazon" viewBox="0 0 249.92 74.53"><g id="1e251808-1fb7-4056-8f7d-f84992e3b129" data-name="amazon"><path d="M45.58,57.87c-3.17-2.25-6.11-4.58-9.13-7-.45-.37-1.62-1.69-.78-2.71,1.48-.6,9.85,4.72,14.11,6.65C52.6,56.21,66,60.85,76.37,63.13c6.38,1.41,18.18,2.31,24.91,2.5,7.05.22,21.45-1.49,23.47-1.91,3.28-.7,10.49-2.13,13.7-3.09,4.24-1.27,6.42-1.94,10.6-3.39a55.24,55.24,0,0,1,5.73-1.67c.51.07,1.23.28,1.41.65a1.69,1.69,0,0,1-.35,1.52,18.44,18.44,0,0,1-3,2.42c-5.21,3.21-10.49,6.33-16.28,8.32-3.5,1.2-7.09,2.14-10.65,3.16-1.85.53-3.72,1-5.58,1.45-.14,0-6.33.89-9.3,1.18a181.58,181.58,0,0,1-20.58-.06,97.19,97.19,0,0,1-14.27-2.62,131.89,131.89,0,0,1-14.85-5.44C58,64.52,48.7,60.07,45.58,57.87Z" fill="#f7981d"/><path d="M149.64,46.71c3.16-.9,9.87-2.33,16-.38a3.74,3.74,0,0,1,2.5,3.33,25.17,25.17,0,0,1-1.33,7.41,31,31,0,0,1-4.25,8.14c-1,1.39-2.3,3.54-4.15,3.54-2.14-.24,5.29-13.82,2.86-16.79-1.91-2.54-18,.42-18-1.08C142.79,50.42,146.62,47.67,149.64,46.71Z" fill="#f7981d"/><path d="M53,5.86c4.74-7.53,16.11-7.28,20,1.06a10.32,10.32,0,0,0,1.19-1.41C77.49-.4,86.69-1,91.42,3.2a8.53,8.53,0,0,1,3,5.45,47.38,47.38,0,0,1,.39,5.06c0,8.83,0,17.67,0,26.5a17.45,17.45,0,0,1,0,1.91c-.14,1.3-.59,1.78-1.88,1.81-2.33.06-4.66.08-7,0-1.47,0-1.91-.64-1.91-2.43,0-5.37,0-10.74,0-16.11,0-3.46-.06-6.92-.2-10.38-.1-2.51-1.3-4-3.28-4.31A4.82,4.82,0,0,0,75,13.64,13.38,13.38,0,0,0,74.18,18c-.08,7.42,0,14.84,0,22.26,0,.57,0,1.13,0,1.7-.11,1.45-.64,2-2.14,2q-3.39.07-6.78,0c-1.29,0-1.76-.49-2-1.74a8.9,8.9,0,0,1-.07-1.48q0-9.43,0-18.87c0-1.89,0-3.79,0-5.68a10.12,10.12,0,0,0-.39-2.29,4,4,0,0,0-3.46-3.26,4.12,4.12,0,0,0-4.63,2.19,12.13,12.13,0,0,0-1.1,3.61,38.44,38.44,0,0,0-.34,5.27c0,6.36,0,12.72,0,19.08,0,.57,0,1.13,0,1.69a1.41,1.41,0,0,1-1.49,1.46c-2.47,0-4.95.07-7.42,0a1.65,1.65,0,0,1-1.75-1.74c0-.49,0-1,0-1.48q0-18.12,0-36.25c0-.35,0-.71,0-1.06.08-1.44.59-2.13,2-2.21,2.11-.11,4.24-.11,6.36,0,1.34.05,1.92.82,2,2.24C52.91,4.23,52.92,5,53,5.86Z"/><path d="M125.68,39.31c-1.11.88-2.06,1.69-3.07,2.43-4.34,3.18-9.17,3.49-14.12,2.06a9.42,9.42,0,0,1-6.73-7.53c-1-4.82-.5-9.44,3-13.31a14.12,14.12,0,0,1,7.83-4.35c3.24-.68,6.54-1.08,9.81-1.6,1.72-.27,1.72-.27,1.76-2,0-.28,0-.57,0-.85C124,10.92,122.6,9,119.75,8.61s-5.56.73-6.78,3.83c-.82,2.09-.83,2.1-3,1.92-1.76-.14-3.53-.24-5.27-.51-2.05-.32-2.33-.9-1.82-2.88,1.4-5.49,5.09-8.59,10.38-10a24.34,24.34,0,0,1,13,0C131.72,2.41,135,6.4,135,12.13c0,5.16,0,10.32,0,15.48a12.72,12.72,0,0,0,2.58,8.31c1.28,1.61,1.15,2.24-.37,3.57s-3,2.6-4.51,3.85-2.14,1.26-3.64-.13a29.1,29.1,0,0,1-2.12-2.36C126.54,40.37,126.15,39.89,125.68,39.31Zm-1.55-12.73c0-.35,0-.71,0-1.06,0-1.84-.41-2.21-2.29-2.08a15.47,15.47,0,0,0-3.34.51c-4.51,1.36-6.34,4.38-5.48,8.83.7,3.62,4.7,4.85,7.59,2.51S124,29.91,124.12,26.58Z"/><path d="M24.32,39.27c-.85.72-1.48,1.26-2.13,1.8-4.41,3.63-9.48,4.26-14.78,2.83A9,9,0,0,1,.94,37.71C-.47,33.28-.43,28.95,2,24.85a13.6,13.6,0,0,1,9.21-6.23c3.16-.71,6.4-1.06,9.61-1.57,1.85-.29,1.85-.29,1.89-2.09,0-.28,0-.57,0-.85,0-3.32-1.42-5.12-4.36-5.51a5.9,5.9,0,0,0-6.69,3.95c-.6,1.83-.88,2-2.73,1.86s-3.53-.24-5.28-.46c-2.3-.29-2.74-1.11-2.08-3.31C3.14,5.3,6.83,2.25,12,.9s10.21-1.32,15.12.92a10.36,10.36,0,0,1,6.52,9.82q.18,8.58.15,17.17a10.21,10.21,0,0,0,2.08,6.52c.3.39.58.81.85,1.22A1.66,1.66,0,0,1,36.46,39c-1.83,1.56-3.63,3.15-5.46,4.7a1.83,1.83,0,0,1-2.67,0c-.62-.57-1.24-1.14-1.81-1.77C25.82,41.12,25.17,40.3,24.32,39.27ZM22.7,26.6c0-.35,0-.71,0-1.06-.05-1.84-.46-2.25-2.29-2.09a15.51,15.51,0,0,0-3.34.54c-4.5,1.43-6.06,4.28-5.38,8.73a4.3,4.3,0,0,0,4.47,3.66,5.23,5.23,0,0,0,4.21-2.07A11.18,11.18,0,0,0,22.7,26.6Z"/><path d="M228.65,6.75c.39-.54.8-1.06,1.15-1.63,2.48-4,6.29-5,10.63-4.55a9.25,9.25,0,0,1,8.35,6.49,20.45,20.45,0,0,1,1.07,6.22c.11,9.32.05,18.65,0,28,0,2.31-.38,2.68-2.72,2.7-1.91,0-3.81,0-5.72,0s-2.36-.4-2.38-2.38c0-4.1,0-8.19,0-12.29,0-3.74,0-7.49,0-11.23a18.68,18.68,0,0,0-.44-4c-.38-1.63-1.2-3-3.05-3.42a4.46,4.46,0,0,0-4.83,1.85,9.56,9.56,0,0,0-1.78,5.35c-.1,3.1-.14,6.21-.15,9.32,0,4.73,0,9.47,0,14.2,0,2.17-.43,2.58-2.61,2.6s-4.1,0-6.14,0c-1.44,0-1.89-.47-2-1.86a13.25,13.25,0,0,1,0-1.48q0-18,0-36a13.69,13.69,0,0,1,0-1.48c.13-1.17.69-1.85,1.87-1.9,2.19-.09,4.38-.1,6.56,0,1.17.05,1.72.73,1.79,2s0,2.33,0,3.49Z"/><path d="M212.4,23.36c0,5.33-1.27,11-5.27,15.68-4.27,5-9.76,6.7-16.18,5.37s-10-5.52-12.09-11.28A31.31,31.31,0,0,1,178,14.58,19.6,19.6,0,0,1,184.26,4C188.09.74,192.63.06,197.4.7c6.63.89,10.67,5,13,11C211.93,15.45,212.36,18.34,212.4,23.36Zm-11.3-1.27-.24,0c-.07-1.41,0-2.83-.24-4.22-.33-2.22-.47-4.5-1.58-6.53a4.78,4.78,0,0,0-8.21-.4,11.53,11.53,0,0,0-1.47,3.68,40.14,40.14,0,0,0,.06,15.73,11.25,11.25,0,0,0,1.06,3.19c1.89,3.62,6.24,3.87,8.34.47A8.14,8.14,0,0,0,200,31.06C200.43,28.09,200.73,25.08,201.1,22.09Z"/><path d="M158.69,10.07c-1-.06-1.58-.12-2.12-.12-3.25,0-6.5,0-9.75,0-2.09,0-2.43-.39-2.46-2.5,0-1.41,0-2.83,0-4.24.06-1.57.48-1.95,2.07-2.05.35,0,.71,0,1.06,0h22l1.48,0a1.63,1.63,0,0,1,1.78,1.68c.16,3.19.06,6.16-2.12,9-4,5.14-7.52,10.58-11.23,15.91-.37.54-.64,1.15-1.11,2,1.42.12,2.46.25,3.5.29a25.45,25.45,0,0,1,9.55,2.48A3.2,3.2,0,0,1,173.57,36c-.11,1.62,0,3.25,0,4.87-.05,1.91-.76,2.32-2.55,1.66a61.36,61.36,0,0,0-6.39-2.16,27.39,27.39,0,0,0-17.8,1.6c-.52.22-1,.47-1.55.68-1.39.55-2.23.11-2.29-1.38a50.68,50.68,0,0,1,.06-7.19,8,8,0,0,1,1.54-3.41c4.14-6.06,8.36-12.06,12.54-18.09C157.57,11.87,158,11.15,158.69,10.07Z"/></g></symbol></defs><title>amazon</title><use width="249.92" height="74.54" transform="translate(42 26) scale(0.41 0.4)" xlink:href="#73e8eb36-2577-4fd3-8685-8e481e879118"/></svg>