<svg xmlns="http://www.w3.org/2000/svg" viewBox="0 0 2500 2500"><path fill="#F90" d="M1958.4 1847.2c-793.4 377.6-1285.8 61.7-1601-130.2-19.5-12.1-52.7 2.8-23.9 35.9 105 127.3 449.1 434.2 898.3 434.2 449.5 0 716.9-245.3 750.3-288 33.3-42.5 9.8-65.9-23.7-51.9zm222.8-123.1c-21.3-27.7-129.6-32.9-197.7-24.5-68.2 8.1-170.6 49.8-161.7 74.9 4.6 9.4 13.9 5.2 60.8 1 47-4.7 178.7-21.3 206.1 14.6 27.6 36.1-42 208.1-54.7 235.9-12.3 27.7 4.7 34.9 27.7 16.4 22.7-18.5 63.9-66.3 91.5-134 27.4-68.2 44.2-163.1 28-184.3z"/><path fill-rule="evenodd" clip-rule="evenodd" d="M1424.9 1076.7c0 99.1 2.5 181.7-47.6 269.7-40.4 71.5-104.4 115.5-176 115.5-97.6 0-154.5-74.4-154.5-184.2 0-216.8 194.2-256.1 378.1-256.1v55.1zm256.4 619.9c-16.8 15-41.1 16.1-60.1 6.1-84.4-70.1-99.4-102.6-145.9-169.5-139.5 142.4-238.2 184.9-419.2 184.9-213.9 0-380.6-132-380.6-396.3 0-206.4 112-346.9 271.1-415.6 138.1-60.8 330.8-71.5 478.2-88.3V785c0-60.4 4.6-132-30.8-184.2-31.1-46.9-90.5-66.2-142.7-66.2-96.9 0-183.5 49.7-204.6 152.7-4.3 22.9-21.1 45.4-44 46.5l-246.8-26.5c-20.7-4.7-43.6-21.5-37.9-53.3 57-299 327-389.2 568.8-389.2 123.8 0 285.4 32.9 383.1 126.6 123.8 115.5 111.9 269.7 111.9 437.4v396.3c0 119.1 49.4 171.3 95.9 235.7 16.5 22.9 20 50.4-.7 67.6-51.9 43.3-144.1 123.8-194.9 168.8l-.8-.6"/><path fill="#F90" d="M1958.4 1847.2c-793.4 377.6-1285.8 61.7-1601-130.2-19.5-12.1-52.7 2.8-23.9 35.9 105 127.3 449.1 434.2 898.3 434.2 449.5 0 716.9-245.3 750.3-288 33.3-42.5 9.8-65.9-23.7-51.9zm222.8-123.1c-21.3-27.7-129.6-32.9-197.7-24.5-68.2 8.1-170.6 49.8-161.7 74.9 4.6 9.4 13.9 5.2 60.8 1 47-4.7 178.7-21.3 206.1 14.6 27.6 36.1-42 208.1-54.7 235.9-12.3 27.7 4.7 34.9 27.7 16.4 22.7-18.5 63.9-66.3 91.5-134 27.4-68.2 44.2-163.1 28-184.3z"/><path fill-rule="evenodd" clip-rule="evenodd" d="M1424.9 1076.7c0 99.1 2.5 181.7-47.6 269.7-40.4 71.5-104.4 115.5-176 115.5-97.6 0-154.5-74.4-154.5-184.2 0-216.8 194.2-256.1 378.1-256.1v55.1zm256.4 619.9c-16.8 15-41.1 16.1-60.1 6.1-84.4-70.1-99.4-102.6-145.9-169.5-139.5 142.4-238.2 184.9-419.2 184.9-213.9 0-380.6-132-380.6-396.3 0-206.4 112-346.9 271.1-415.6 138.1-60.8 330.8-71.5 478.2-88.3V785c0-60.4 4.6-132-30.8-184.2-31.1-46.9-90.5-66.2-142.7-66.2-96.9 0-183.5 49.7-204.6 152.7-4.3 22.9-21.1 45.4-44 46.5l-246.8-26.5c-20.7-4.7-43.6-21.5-37.9-53.3 57-299 327-389.2 568.8-389.2 123.8 0 285.4 32.9 383.1 126.6 123.8 115.5 111.9 269.7 111.9 437.4v396.3c0 119.1 49.4 171.3 95.9 235.7 16.5 22.9 20 50.4-.7 67.6-51.9 43.3-144.1 123.8-194.9 168.8l-.8-.6"/></svg>