<svg id="Layer_1" data-name="Layer 1" xmlns="http://www.w3.org/2000/svg" viewBox="0 0 186.4 82"><title>Artboard 1</title><path d="M58.39,49.92a3.51,3.51,0,0,1-3.45-2.65,5,5,0,0,1-4.34,2.65,4.13,4.13,0,0,1-4.18-4c0-3.13,3-5.38,8.6-5.46v-.8A3.19,3.19,0,0,0,52.35,36a3,3,0,0,0-.79,0,6.16,6.16,0,0,0-4.41,2.41c-.08.08-.57-.4-.57-.48a7.72,7.72,0,0,1,6.83-4.5c3.13,0,5.38,2.25,5.3,6l-.24,6.26c0,1.45.64,2.09,1.37,2.09a2,2,0,0,0,1.68-1.52c0-.09.48.16.48.24a3.31,3.31,0,0,1-3.18,3.43A3.05,3.05,0,0,1,58.39,49.92ZM55.1,41.33a6.43,6.43,0,0,0-3.94,1.6,3.21,3.21,0,0,0-1,2.25,2.37,2.37,0,0,0,2.25,2.49h.08a2.72,2.72,0,0,0,2-.8,1.21,1.21,0,0,0,.32-.81Z" fill="#54524f"/><path d="M78.39,49.36H74.13a1.4,1.4,0,0,1,0-.81c1.77-.24,2-.4,2-3.85V39.88c0-2.17-1.29-3.69-3.13-3.69a3.84,3.84,0,0,0-3,1.44,4,4,0,0,0-.65,2.49V44.7c0,3.45.4,3.61,2.17,3.85,0,0,.08.81,0,.81H63.29c-.08,0-.08-.81-.08-.81,1.93-.32,2.17-.4,2.17-3.85V38.84c0-3.54-.4-3.7-2.49-4-.16,0-.08-.8,0-.8H69v3.53h.08c1.37-2.57,3.46-4.1,6-4.1,2.89,0,5.14,2.25,5.14,6v5.22c0,3.45.32,3.61,2.24,3.85.16,0,.08.81,0,.81C81.28,49.36,79.51,49.36,78.39,49.36Z" fill="#54524f"/><path d="M91.32,49.92a7.84,7.84,0,0,1-7.95-7.74c0-.13,0-.25,0-.37,0-4.66,3.13-8.36,8.27-8.36,2.41,0,3.61.81,4.34.81a.91.91,0,0,0,.8-.64,2.11,2.11,0,0,1,1,0V39.4a2.11,2.11,0,0,1-1,0c-1.29-2.65-3-4.9-5.14-4.9-2.57,0-4.1,2.73-4.1,6.5,0,4,2.09,6.67,5,6.67a6.31,6.31,0,0,0,5-2.89c.08-.16.73.16.73.32A7.53,7.53,0,0,1,91.32,49.92Z" fill="#54524f"/><path d="M104.41,41.57c0,3.45,1.93,6.1,5.22,6.1a6.23,6.23,0,0,0,4.9-2.89c0-.08.64.16.64.32a7.39,7.39,0,0,1-7,4.82c-5.06,0-8-3.7-8-8.11a8.12,8.12,0,0,1,7.89-8.36,5,5,0,0,1,.55,0,6.53,6.53,0,0,1,6.89,6.16.41.41,0,0,1,0,.11v1.12H104.57C104.41,41,104.41,41.41,104.41,41.57Zm6.42-1.85V38.59c0-2.48-1.2-3.93-2.73-3.93-1.92,0-3.37,2.09-3.69,5.06Z" fill="#54524f"/><path d="M123.52,49.92a11.63,11.63,0,0,1-5.38-1.13,23.27,23.27,0,0,1-.32-4.25c0-.08,1-.16,1,0C120.1,47.35,122,49,124,49c1.68,0,2.89-.89,2.89-2.25,0-1.61-1.93-2.33-3.86-3.22-2.33-.88-5-2.08-5-5.06,0-2.32,2-4.73,5.78-4.73,1.61,0,2.66.64,3.38.64a1.13,1.13,0,0,0,.88-.64,2.11,2.11,0,0,1,1,0V39a2.11,2.11,0,0,1-1,0c-1.28-2.41-2.81-4.1-4.66-4.1a2.25,2.25,0,0,0-2.49,2v0c0,1.6,1.85,2.25,3.78,3.05,2.33,1,5.06,2.17,5.06,5.22C129.71,47.75,127.3,49.92,123.52,49.92Z" fill="#54524f"/><path d="M131.47,35.7c-.24,0-.32-.64-.08-.8,1.69-1.53,4.5-4.1,6-5.7.08-.08.64,0,.64.16V34.1h5.46c.16,0,.16,1.52,0,1.52H138v8.92c0,2,1.21,2.89,2.49,2.89A3.12,3.12,0,0,0,143,45.66c0-.08.64.24.64.32a5.42,5.42,0,0,1-5.06,3.86c-2.49,0-4.49-1.61-4.49-4.74V35.7Z" fill="#54524f"/><path d="M156.85,38.27c-.48,0-1.68-1.44-2.57-1.44a2,2,0,0,0-1.28.64,5.55,5.55,0,0,0-1.21,3.45v3.86c0,3.53.57,3.61,2.41,3.85,0,0,.08.81,0,.81h-8.51a1.4,1.4,0,0,1,0-.81c1.93-.32,2.17-.4,2.17-3.85V38.92c0-3.46-.4-3.7-2.49-4-.16,0-.08-.8,0-.8h6.18v4h.16c.16-.48.49-1,.73-1.6,1.12-1.85,2.49-3,3.93-3a2.4,2.4,0,0,1,2.49,2.16A3.15,3.15,0,0,1,156.85,38.27Z" fill="#54524f"/><path d="M175.65,35.62c-.65.65-1.13,1.93-2.17,4.74l-5.22,13.41c-1.85,4.74-3.54,5.71-5.78,5.71-1.29,0-2.73-.65-2.73-1-.09-.64.8-3,1.28-3a14.6,14.6,0,0,0,3.05.88c1.37,0,2.25-.88,3-2.81L168,51c-.32-1.28-4.18-9.71-4.66-10.84-1-2.25-1.61-4-2.25-4.66a2.9,2.9,0,0,0-1.93-.72,1.36,1.36,0,0,1,0-.8c1,0,3.22.08,4.42.08s3.29-.08,4.34-.08a1.36,1.36,0,0,1,0,.8c-2.41.32-2.17,1.12-.89,4.34l2.81,6.82L172.11,40a13.58,13.58,0,0,0,1.21-3.93c0-.89-.56-1.21-2.25-1.29a1.64,1.64,0,0,1,0-.88c1.12,0,2.57.08,3.53.08.73,0,1.45-.08,2.81-.08.08,0,.16.88,0,.88A2.43,2.43,0,0,0,175.65,35.62Z" fill="#54524f"/><path d="M23.29,42.93c-.08.08-3.21,4.26-10.6,3.13a15.23,15.23,0,0,1-8.51-4.33,15.63,15.63,0,0,1,10.2-4.18,16.88,16.88,0,0,1,8.91,3.05h3.3c-2.65-.8-5.87-2.25-7.31-5.46-1.29-3-1.05-4.74-1.61-7.23,0,0,5.94-.48,10.52,2.49,4.18,2.73,6.51,10,6.59,10.2h2.57l-.56-12.85,3.21.08c-.56,3.38.16,27.47,0,27.47-.32.08-3,.24-3.29-.4,0,0,.64-11.81.72-12H34.94c0,.16-.24,6.83-5.3,10.36S17.27,55.7,17.27,55.7c.88-1.36,0-2.81,2.57-6.74a17.64,17.64,0,0,1,6.83-6.11C26.43,42.93,23.37,42.93,23.29,42.93ZM9.56,41.25c.56.08,2.49,2.57,5.94,2.89,3.78.4,5.06-1.53,5.14-1.53,0-.24-3.05-3.53-6.42-3.53C11.89,39.16,9.56,41.25,9.56,41.25Zm22,2.16a9.4,9.4,0,0,0-6.91,3.3c-2.49,3.13-2.41,5.62-3,6.18.48.16,5.54.64,7.71-2.65a12.92,12.92,0,0,0,2.21-6.83ZM28.19,33.05c-2.81-3-5.62-2.57-6.1-2.49.24.08.48,5.38,3.45,8.2,2,1.84,6.11,1.2,6.11,1.2A15.7,15.7,0,0,0,28.19,33.05Z" fill="#9cbe30"/><path d="M179.18,35.45a1.47,1.47,0,1,1,0,.07Zm2.58,0a1.18,1.18,0,0,0-2.34-.31,1.6,1.6,0,0,0,0,.31,1.17,1.17,0,0,0,2.34,0Zm-1.7-.83h.54c.3,0,.59.11.59.5a.44.44,0,0,1-.31.43l.38.67H181l-.31-.59h-.36v.59h-.25Zm.47.8c.24,0,.4-.09.4-.29s-.09-.29-.37-.29h-.25v.58Z" fill="#54524f"/></svg>