<?xml version="1.0" encoding="utf-8"?>
<svg viewBox="0 0 288 288" xmlns="http://www.w3.org/2000/svg">
  <path fill="#FF3008" d="M 242.684 112.006 C 233.236 94.234 214.716 83.196 194.605 83.196 L 42.229 83.196 C 39.329 83.196 36.991 85.535 36.991 88.434 C 36.991 89.838 37.552 91.147 38.581 92.176 L 71.788 125.57 C 74.687 128.563 78.709 130.153 82.825 130.153 L 190.208 130.153 C 197.878 130.059 204.146 136.233 204.146 143.81 C 204.239 151.48 198.066 157.747 190.489 157.747 L 116.499 157.747 C 113.6 157.747 111.261 160.086 111.261 162.985 C 111.261 164.388 111.822 165.698 112.851 166.727 L 146.058 200.12 C 148.957 203.114 152.98 204.704 157.095 204.704 L 190.769 204.704 C 234.172 204.797 267.098 158.215 242.684 112.006" style=""/>
</svg>