<svg id="c031355b-6e56-4984-9ba1-44c23b6b9cab" data-name="Layer 1" xmlns="http://www.w3.org/2000/svg" width="186.4" height="82" viewBox="0 0 186.4 82"><title>doordash</title><path d="M44.87,36.26A8,8,0,0,0,37.75,32H15.18a.78.78,0,0,0-.55,1.32l4.92,4.94a2.29,2.29,0,0,0,1.64.69H37.1a2.05,2.05,0,1,1,0,4.1h-11a.77.77,0,0,0-.77.78.76.76,0,0,0,.23.55l4.91,4.94a2.28,2.28,0,0,0,1.64.68h5c6.45,0,11.33-6.9,7.72-13.75" fill="#ff3008"/><path d="M62.92,37.18v7.65h2A3.77,3.77,0,0,0,68.61,41h0A3.72,3.72,0,0,0,65,37.18H62.92Zm2-2.4a6.23,6.23,0,1,1,0,12.45H60.56a.31.31,0,0,1-.31-.31V35.1a.31.31,0,0,1,.31-.31Z" fill="#ff3008"/><path d="M80.68,45.1A4.1,4.1,0,1,0,76.6,41h0a4.1,4.1,0,0,0,4.08,4.1m0-10.6A6.5,6.5,0,1,1,73.93,41a6.6,6.6,0,0,1,6.75-6.5" fill="#ff3008"/><path d="M96.78,45.1a4.1,4.1,0,1,0-4.1-4.1,4.09,4.09,0,0,0,4.1,4.1h0m0-10.6A6.51,6.51,0,1,1,90,41a6.59,6.59,0,0,1,6.77-6.5" fill="#ff3008"/><path d="M112.49,37.18h-2.76v3.29h2.76a1.6,1.6,0,0,0,1.68-1.54.13.13,0,0,0,0-.06,1.65,1.65,0,0,0-1.58-1.69h-.11m-5.43-2.08a.31.31,0,0,1,.31-.31h5.19a4.1,4.1,0,0,1,4.27,4.1,4,4,0,0,1-2.22,3.64l2.4,4.24a.31.31,0,0,1-.09.43.28.28,0,0,1-.2,0h-2.1a.3.3,0,0,1-.28-.17L112,42.89h-2.31v4a.31.31,0,0,1-.31.31h-2a.31.31,0,0,1-.31-.31Z" fill="#ff3008"/><path d="M123.79,37.24v7.65h1.95a3.78,3.78,0,0,0,3.74-3.82h0a3.72,3.72,0,0,0-3.6-3.83h-2.09Zm1.95-2.4a6.23,6.23,0,1,1,0,12.45h-4.3a.31.31,0,0,1-.31-.31V35.16a.31.31,0,0,1,.31-.31Z" fill="#ff3008"/><path d="M140.28,37.88,138.77,42h3Zm-2.4,6.4-1,2.73a.3.3,0,0,1-.31.21h-2.15a.32.32,0,0,1-.31-.44L138.77,35a.3.3,0,0,1,.31-.2h2.4a.3.3,0,0,1,.31.2l4.64,11.81a.3.3,0,0,1-.14.41.23.23,0,0,1-.16,0H144a.3.3,0,0,1-.31-.21l-1-2.73Z" fill="#ff3008"/><path d="M148.93,38.15c0-2,1.69-3.65,4.35-3.65A5.56,5.56,0,0,1,157.16,36a.31.31,0,0,1,0,.44h0L156,37.6a.3.3,0,0,1-.43,0h0a3.12,3.12,0,0,0-2.07-.82c-1.07,0-1.86.62-1.86,1.34,0,2.31,6.31,1,6.31,5.42,0,2.26-1.7,4-4.72,4a6.31,6.31,0,0,1-4.5-1.81.3.3,0,0,1,0-.43v0l1.16-1.15a.29.29,0,0,1,.43,0h0a4,4,0,0,0,2.73,1.1c1.33,0,2.21-.71,2.21-1.6,0-2.31-6.31-1-6.31-5.42" fill="#ff3008"/><path d="M169.35,35.09v4.67H164V35.09a.31.31,0,0,0-.31-.31h-2a.31.31,0,0,0-.31.31V46.9a.31.31,0,0,0,.31.31h2a.31.31,0,0,0,.31-.31V42.15h5.34V46.9a.31.31,0,0,0,.31.31h2a.31.31,0,0,0,.31-.31V35.09a.31.31,0,0,0-.31-.31h-2A.31.31,0,0,0,169.35,35.09Z" fill="#ff3008"/></svg>