<svg id="b5fe20ae-52bc-496c-a1ad-b0b49f1d37c4" data-name="Layer 1" xmlns="http://www.w3.org/2000/svg" width="186.4" height="82" viewBox="0 0 186.4 82"><title>dropbox</title><path d="M34.79,31.66,26,37.29l8.83,5.63L26,48.56l-8.83-5.68L26,37.24l-8.83-5.59L26,26ZM25.92,50.34l8.83-5.63,8.83,5.63L34.75,56Zm8.87-7.47,8.83-5.63-8.83-5.59L43.57,26l8.83,5.63-8.83,5.63,8.83,5.63-8.83,5.63Z" fill="#0061ff"/><path d="M59.3,31.66h7.14c4.55,0,8.31,2.63,8.31,8.64v1.27c0,6.06-3.52,8.78-8.17,8.78H59.3Zm4,3.38V46.92h3.05c2.58,0,4.32-1.69,4.32-5.45v-1c0-3.76-1.83-5.45-4.46-5.45Zm13.57.19h3.19l.52,3.52c.61-2.39,2.16-3.66,5-3.66h1v4H84.89c-3.24,0-4,1.13-4,4.32v6.95H76.91V35.23Zm10.47,7.89v-.42c0-5.07,3.24-7.84,7.65-7.84s7.65,2.77,7.65,7.84v.42c0,5-3.05,7.65-7.65,7.65C90.1,50.72,87.33,48.09,87.33,43.11Zm11.27,0v-.38c0-2.82-1.41-4.51-3.66-4.51s-3.66,1.55-3.66,4.51v.38c0,2.72,1.41,4.27,3.66,4.27S98.6,45.79,98.6,43.07Zm6.1-7.84H108l.38,2.86a5.1,5.1,0,0,1,5-3.24c3.85,0,6.39,2.77,6.39,7.89v.42c0,5-2.82,7.61-6.39,7.61a5,5,0,0,1-4.84-2.82V55.6h-3.85l0-20.38Zm11,7.84v-.33c0-3-1.55-4.51-3.62-4.51s-3.66,1.69-3.66,4.51V43c0,2.68,1.41,4.37,3.62,4.37S115.74,45.88,115.74,43.07Zm9.81,4.51-.33,2.77h-3.38V30.15h3.85V37.9a5,5,0,0,1,4.93-3.05c3.62,0,6.29,2.54,6.29,7.56v.47c0,5-2.54,7.89-6.39,7.89A5,5,0,0,1,125.55,47.57Zm7.32-4.7V42.5c0-2.77-1.5-4.32-3.62-4.32s-3.66,1.74-3.66,4.37v.33c0,2.82,1.46,4.46,3.62,4.46S132.87,45.88,132.87,42.88Zm5.73.23v-.42c0-5.07,3.24-7.84,7.65-7.84s7.65,2.77,7.65,7.84v.42c0,5-3.1,7.65-7.65,7.65C141.37,50.72,138.6,48.09,138.6,43.11Zm11.32,0v-.38c0-2.82-1.41-4.51-3.66-4.51s-3.66,1.55-3.66,4.51v.38c0,2.72,1.41,4.27,3.66,4.27S149.92,45.79,149.92,43.07Zm9.16-.56-5.31-7.28h4.55l3.05,4.55,3.1-4.55H169l-5.4,7.23,5.68,7.89H164.8l-3.47-5-3.38,5H153.3Z"/></svg>