<svg xmlns="http://www.w3.org/2000/svg" viewBox="0 0 300 300"><path fill="#F27224" d="M57.7 134.5V103c0-1.2.1-1.9 2.1-1.9h26.7c4.7 0 7.2 4 9.1 11.4l1.5 6h4.5c.8-16.9 1.5-24.3 1.5-24.3S91.8 95.5 85 95.5H50.8L32.5 95v4.9l6.2 1.2c4.3.8 5.3 1.7 5.7 5.7 0 0 .3 11.7.3 31s-.3 30.8-.3 30.8c0 3.5-1.4 4.8-5.7 5.6l-6.2 1.1v4.9l18.3-.5h30.6c6.9 0 22.9.5 22.9.5.3-4.2 2.7-23.2 3.1-25.3H103l-4.5 10.4c-3.6 8.1-8.9 8.8-14.7 8.8H66.3c-5.8 0-8.6-2.4-8.6-7.4V140s12.7 0 17.2.3c3.3.2 5.2 1.2 6.3 5.7l1.4 6h5l-.3-15.3.7-15.4h-5l-1.6 6.7c-1 4.5-1.7 5.2-6.3 5.7-5.2.5-17.2.5-17.2.5l-.2.3zm69.2-28.2c-1.6 7.2-3.3 12.9-9 16.5-3.5 2.4-7 3.1-8.4 3.3v4.5h10.4v35.8c0 10 6.7 15 15.5 15 6.9 0 14-2.9 16.5-9l-2.4-3.1c-1.2 2-4.9 4.9-9.6 4.9-5.2 0-7.9-3.5-7.9-12.4v-31.7l17.2 1.3.9-7.9-18.2.7v-17.8c.1-.1-5-.1-5-.1zm36.9 55.1l-4.5.1c.2 2.6.3 5.8.3 8.9 0 3.1-.1 6-.3 7.4 0 0 8.9 3.3 17.9 3.3 12.1 0 21.9-5.8 21.9-17.2 0-19.6-29.4-16.7-29.4-29.9 0-5.5 4.9-7.6 10.3-7.6 4.2 0 7.7 1.5 8.4 3.8l2.9 8.8 4.3-.2c.3-4.7.5-10 1.3-14.3-3.8-1.6-11.5-2.6-16.5-2.6-11.4 0-20.7 5-20.7 16.2 0 19.5 28.7 15.5 28.7 29.9 0 5.2-3.1 8.8-10.3 8.8-6.5 0-9.8-3.4-11-6.7l-3.3-8.7zm70.3 13.4c-6.7 18.9-15 23.7-22.5 23.7-3.1 0-4.6-1.4-5.1-3.6l-1.7-9.1-4.9.2c-.9 5.3-1.9 11.3-3.1 16.2 2.9 2.2 7.8 3.4 11.7 3.4 8.1 0 20.3-1 31.4-27.6l18.7-44.3c1.5-3.6 2.1-4 6.5-5.7l2.4-.9V123l-11 .5-11.9-.5v4.1l3.1.9c3.1.9 4.5 2.1 4.5 4.2 0 1-.3 2.1-.9 3.8-1.7 4.5-12.6 30.8-15.5 36.4l2.9-1c-5.1-12.7-12.9-33.9-14.1-37.5-.2-.7-.3-1.3-.3-1.9 0-1.9 1.3-3.4 4.1-4l3.8-.8v-4.1l-16 .5-12.7-.5v4.1l2.1.7c2.9.9 3.6 1.7 5.3 5.8 9.6 22.1 14.2 34.2 20.4 50.1l2.8-9z"/></svg>