<svg id="3203a1d1-3100-4f0a-bcad-18f22f6f29d0" data-name="Layer 1" xmlns="http://www.w3.org/2000/svg" xmlns:xlink="http://www.w3.org/1999/xlink" width="186.4" height="82" viewBox="0 0 186.4 82"><defs><symbol id="e6a0f15c-ce94-4985-b46c-3ac2b27022a2" data-name="etsy" viewBox="0 0 211.77 100.15"><g id="8f001f24-6de6-4c2e-bd30-d4b048bfcfee" data-name="Etsy"><path d="M49.72,24.46a205.33,205.33,0,0,0-.26,27.09,9.81,9.81,0,0,1-4,.11c-.25,0-.51-.58-.61-.93-.3-1.12-.5-2.26-.78-3.38-.23-.91-.47-1.81-.78-2.69a4.86,4.86,0,0,0-4.66-3.41c-4.94-.2-9.88-.3-14.82-.41-1.33,0-1.44.12-1.44,1.46,0,7.57,0,15.15,0,22.72a9.34,9.34,0,0,0,.5,2.87,5,5,0,0,0,3.56,3.34,13.91,13.91,0,0,0,3.54.55c5.75.06,11.49,0,17.24,0a14.46,14.46,0,0,0,6.12-1.16,11.87,11.87,0,0,0,5.71-6.12c1.35-2.91,2.63-5.85,3.87-8.8a1.64,1.64,0,0,1,1.89-1.24,17,17,0,0,0,1.95,0c.21.93-2,20.51-2.55,22.49-4.21.15-8.45-.3-12.7-.34s-8.55,0-12.83,0h-13c-4.28,0-8.55,0-12.83,0S4.44,77.11,0,77c0-1.23,0-2.29,0-3.34,0-.63.45-.8,1-.9,1.27-.23,2.54-.45,3.8-.71a23.81,23.81,0,0,0,2.85-.71A4.06,4.06,0,0,0,10.74,67c.13-8.37.27-16.74.32-25.11,0-6.9,0-13.81-.05-20.71,0-3.38-.15-6.76-.27-10.14a9.16,9.16,0,0,0-.38-2.23A3.58,3.58,0,0,0,7.67,6.28c-1.85-.47-3.73-.81-5.6-1.22C1.43,4.93.79,4.77,0,4.58,0,3.46,0,2.4,0,1.34,0,.67.56.59,1.07.6q1.6,0,3.2.1c14.29.62,28.59.47,42.88.39,4.35,0,8.7-.54,13.05-.83C61.18.19,62.15.1,63.3,0c.22,1.86-.24,3.61-.26,5.36s-.19,3.55-.3,5.33-.25,3.55-.36,5.33-.2,3.53-.3,5.38H58.31c-.17-.59-.34-1.22-.52-1.85-.71-2.48-1.35-5-2.16-7.43A14.59,14.59,0,0,0,54,8.91a6.64,6.64,0,0,0-6-3.17H28.13c-1.16,0-2.32,0-3.47,0-1.72.05-2.24.57-2.25,2.27q0,13.3,0,26.59c0,1.41.11,1.56,1.53,1.53q6.74-.15,13.48-.38a19,19,0,0,0,2.52-.31,4,4,0,0,0,3.46-2.94c.49-1.71.91-3.44,1.35-5.16.18-.69.34-1.38.51-2.08.12-.47.34-.82.89-.82Z" fill="#d36527"/><path d="M191.47,26c2.37.12,4.58.26,6.79.32s4.36.06,6.53,0,4.43-.21,6.65-.32a5.16,5.16,0,0,1,.22,3c0,.25-.43.54-.73.67-1.1.48-2.22.91-3.34,1.36a6.15,6.15,0,0,0-3.54,3.44c-1.82,4.31-3.66,8.6-5.49,12.91-4.38,10.33-8.7,20.69-13.17,31a50.28,50.28,0,0,1-8.28,13.35,23.74,23.74,0,0,1-10.87,7.46,25.58,25.58,0,0,1-10.31.76,18.15,18.15,0,0,1-6.5-1.88c-1.32-.68-1.24-.68-.93-2.17.8-3.92,1.54-7.86,2.27-11.8.22-1.19.2-1.23,1.41-1.3.62,0,1.24-.08,1.87-.09.92,0,1.09.11,1.26,1,.37,1.92.73,3.85,1.1,5.77.09.48.19,1,.31,1.44.62,2.45,2,3.52,4.49,3.54a13.3,13.3,0,0,0,6.63-1.82,22.78,22.78,0,0,0,7.59-7.21c1.06-1.53,1.93-3.2,2.92-4.79a2,2,0,0,0,.14-2c-2.23-5.63-4.37-11.3-6.66-16.9-3.56-8.69-7.21-17.35-10.84-26-.39-.94-.87-1.85-1.31-2.78a5.34,5.34,0,0,0-3.27-2.76c-2.39-.83-2.41-.91-2.15-3.43a4.67,4.67,0,0,1,.18-.65c4.16.11,8.32.3,12.48.29s8.34-.23,12.52-.36a5.87,5.87,0,0,1,.2,2.76,1,1,0,0,1-.62.71c-.67.23-1.39.3-2.08.49a12.66,12.66,0,0,0-2.27.74,3.4,3.4,0,0,0-1.9,4.34q.74,2.5,1.65,4.94,4.73,12.64,9.5,25.25c.18.47.44.91.7,1.44a2.7,2.7,0,0,0,1-1.55q4-9.4,8-18.82c1.36-3.24,2.66-6.51,4-9.77a9.45,9.45,0,0,0,.4-1.13,3.5,3.5,0,0,0-1.72-4.22A21.18,21.18,0,0,0,193.15,30c-1.92-.68-1.76-.3-1.77-2.49C191.38,27.11,191.43,26.72,191.47,26Z" fill="#d36527"/><path d="M114.46,74.93a60,60,0,0,0,0-14.22,7.21,7.21,0,0,1,3.38-.11c.3.05.6.61.75,1,.84,2.06,1.62,4.15,2.43,6.22a8.79,8.79,0,0,0,4.18,4.86,12.55,12.55,0,0,0,11.22.4c3.67-1.62,5.19-6.06,3.61-10a9.11,9.11,0,0,0-2.77-3.71A26.53,26.53,0,0,0,131.55,56c-2.46-1.14-5-2.19-7.38-3.44a28.93,28.93,0,0,1-4.7-3c-3.76-3-5-7.09-4.65-11.78a12.9,12.9,0,0,1,2-6.16c2-3.12,5.05-4.81,8.51-5.85a30.08,30.08,0,0,1,10.46-1,49,49,0,0,1,9.64,1.37c.77.2,1.51.47,2.22.69a2,2,0,0,1,.13.51q-.48,5.59-1,11.17c-.1,1.08-.11,1.1-1.17,1.18-3.12.23-2.44.18-3.28-2.1-.57-1.54-1.11-3.11-1.53-4.7a5,5,0,0,0-3.38-3.49,13.16,13.16,0,0,0-7.36-.56,12.74,12.74,0,0,0-3.15,1A6.5,6.5,0,0,0,124.27,39a9.94,9.94,0,0,0,4,3.84c2.3,1.25,4.68,2.39,7.05,3.51A49.45,49.45,0,0,1,143.89,51a13.24,13.24,0,0,1,5.49,7.66c1.79,7.71-1.2,14.58-9.3,17.65a28.09,28.09,0,0,1-11.43,1.59,50.89,50.89,0,0,1-13-2.42C115.31,75.32,115,75.14,114.46,74.93Z" fill="#d36527"/><path d="M78.77,32.37H69.6V29c.54-.12,1-.24,1.49-.34a15.75,15.75,0,0,0,11.26-8.81,33.11,33.11,0,0,0,2.74-8.21c0-.21.11-.42.17-.69a8.75,8.75,0,0,1,3.43-.13c.23,0,.53.42.61.7a4.29,4.29,0,0,1,0,1.19c0,4.05,0,8.11,0,12.16,0,.57.07,1.13.11,1.85,5.42.11,10.72-.51,16.19-.39a46.38,46.38,0,0,1-.74,6.58c-.58,0-1.06,0-1.53,0L90.85,32c-1.38-.1-1.5,0-1.5,1.31,0,9.13,0,18.27,0,27.4A44.57,44.57,0,0,0,90,66.42a5.71,5.71,0,0,0,.46,1.39,6.43,6.43,0,0,0,7.05,4.09,11.36,11.36,0,0,0,7.06-3.44c.21-.22.45-.41.79-.73.59.74,1.14,1.42,1.67,2.12.34.44.08.84-.13,1.24a11.28,11.28,0,0,1-5.24,5A19.31,19.31,0,0,1,87.3,77.32a11,11,0,0,1-8.15-9.45,22,22,0,0,1-.26-3.45q0-15,0-29.94C78.87,33.87,78.81,33.25,78.77,32.37Z" fill="#d36527"/></g></symbol></defs><title>etsy</title><use width="211.77" height="100.15" transform="translate(50 20) scale(0.41 0.42)" xlink:href="#e6a0f15c-ce94-4985-b46c-3ac2b27022a2"/></svg>