<svg id="49ef7172-d53e-4fcd-9504-ac4e6fb2a244" data-name="Layer 1" xmlns="http://www.w3.org/2000/svg" xmlns:xlink="http://www.w3.org/1999/xlink" width="186.4" height="82" viewBox="0 0 186.4 82"><defs><symbol id="2487a8f1-b965-44cb-8bc1-832867047266" data-name="facebook" viewBox="0 0 317.7 62.18"><path d="M150,1.1,162.05,0V24.85c.45-.06.56,0,.6-.08,9-8.4,21.87-5.23,25.61,6.48A31.73,31.73,0,0,1,188,51.58c-3.06,8.86-11.38,11.82-19,10-2.65-.63-3.79-1.43-7.38-4.78L161.43,61H150.15ZM162,41c.18,1.76.25,3.47.55,5.13A6.52,6.52,0,0,0,169,51.81c3.55.21,6.44-1.65,7.33-5a22,22,0,0,0,0-11.58c-1-3.46-3.38-4.89-7.44-4.72-3.44.15-5.56,1.84-6.26,5.23C162.27,37.44,162.21,39.23,162,41Z" fill="#3b5998"/><polygon points="292.51 42.66 292.52 61.01 280.43 61.01 280.28 1.12 292.29 0 292.64 39.75 303.63 21.31 316.95 21.55 304.76 40.79 317.7 60.98 304.33 61.18 292.51 42.66" fill="#3b5998"/><path d="M58.07,25.44l.28-4,11.55-.19V61H58.43l0-5s-.72,1.2-.78,1.29C52.71,64.46,38.21,63.9,33.29,54a24.39,24.39,0,0,1-2.44-8.79,37.72,37.72,0,0,1,.72-12.68C33.78,23.74,40.69,19,49.69,20.26a11.11,11.11,0,0,1,6.53,3.21C56.8,24.06,57.36,24.68,58.07,25.44Zm-.16,15.64A45.56,45.56,0,0,0,57,34.84c-.86-3.11-2.9-4.36-6.35-4.37-3.63,0-5.76,1.22-6.63,4.37a23.47,23.47,0,0,0,0,12.32c.81,3.07,3.26,4.64,6.52,4.66s5.67-1.58,6.51-4.66A45.25,45.25,0,0,0,57.91,41.08Z" fill="#3b5998"/><path d="M144.83,45.49c-8,.49-16.17.26-24.28.08-.24,4.09,1.85,6.44,6,6.79a31.22,31.22,0,0,0,10.89-.84l4.4-1.21,2.45,8.92s-4.1,1.47-6.13,1.9a43.41,43.41,0,0,1-15,.68c-8.53-1.19-13.92-5.92-15.16-14.44a44.18,44.18,0,0,1,0-12.69c1.23-8.31,6.91-13.42,15.28-14.34a35.38,35.38,0,0,1,7.64,0,15.26,15.26,0,0,1,13.54,11.76A38.51,38.51,0,0,1,144.83,45.49Zm-11.13-8.66c.21-2.61,0-4.95-2.21-6.46a7.62,7.62,0,0,0-8-.33c-2.75,1.34-3.07,4-3.29,6.79Z" fill="#3b5998"/><path d="M212.87,20c1.77.19,3.57.24,5.31.59,7.62,1.55,12.32,6.22,14.06,13.75A29.06,29.06,0,0,1,231.93,49a16.77,16.77,0,0,1-12.47,12.28,25.28,25.28,0,0,1-11.88.29c-7.84-1.64-12.7-6.62-14.19-14.51a32.41,32.41,0,0,1,.15-12.93c1.69-7.85,8-13.24,16.26-13.89,1-.08,2,0,3.06,0ZM220,36.44c-.52-3.73-2.83-5.8-6.45-6-4.39-.2-6.75,1.42-7.6,5.45A23.68,23.68,0,0,0,206,46.78c.85,3.29,3.3,5,6.79,5,3.33,0,5.82-1.58,6.71-4.77C220.09,45.13,220.18,37.95,220,36.44Z" fill="#3b5998"/><path d="M275.33,48.49A16.61,16.61,0,0,1,263.47,61a24.8,24.8,0,0,1-13.1.41c-7.46-1.75-12-6.41-13.61-13.89a31.64,31.64,0,0,1,0-12.93c1.59-7.7,6.34-12.45,14-14a25.89,25.89,0,0,1,12.63.47,17.51,17.51,0,0,1,12.51,15.76c.11,1.44,0,4.34,0,4.34A43,43,0,0,1,275.33,48.49Zm-12.44-13.3c-.94-3.43-3.06-4.75-6.89-4.72-3.63,0-5.74,1.4-6.61,4.76a23.34,23.34,0,0,0,0,11.84c.82,3.11,3.38,4.76,6.74,4.75s5.88-1.68,6.69-4.81C263.37,45.07,263.4,37,262.89,35.19Z" fill="#3b5998"/><path d="M30.58.58v9.78s-3.33.15-4.92.18c-4.16.07-5,.93-5.08,5.16,0,1.53,0,5.54,0,5.54l9.43.23s-.13,6.33-.47,10h-9V61H8.13V31.69h-8L0,21.39H8c0-2-.07-4.12,0-5.71a41.42,41.42,0,0,1,.55-5.82,11.19,11.19,0,0,1,9-9.31C21.86-.46,30.58.58,30.58.58Z" fill="#3b5998"/><path d="M106.79,22.79l-2.81,9c-2.06-.47-3.93-.94-5.81-1.29a13.25,13.25,0,0,0-3-.25c-5.19.23-8,3-8.22,8.16a47,47,0,0,0,0,5.87c.35,4.61,3.12,7.47,7.74,7.5a68.08,68.08,0,0,0,9-1.13l2.65,8.48a28.69,28.69,0,0,1-5.68,2.4A28.76,28.76,0,0,1,86.78,61,16.15,16.15,0,0,1,74.91,48.53a46.66,46.66,0,0,1-.25-13.93C76.11,27.17,80.61,22.52,88,20.82a30.18,30.18,0,0,1,14.16.14A39.09,39.09,0,0,1,106.79,22.79Z" fill="#3b5998"/></symbol></defs><title>facebook</title><use width="317.7" height="62.18" transform="translate(28 29) scale(0.41 0.4)" xlink:href="#2487a8f1-b965-44cb-8bc1-832867047266"/></svg>