<svg id="dd9d9f6f-fa91-4fe4-83ef-271843bc9167" data-name="Layer 1" xmlns="http://www.w3.org/2000/svg" xmlns:xlink="http://www.w3.org/1999/xlink" width="186.4" height="82" viewBox="0 0 186.4 82"><defs><symbol id="ab0cf3a0-98e1-40fb-9dd2-1656f1b05912" data-name="google" viewBox="0 0 282.36 91.54"><path d="M36.69,32.89,68.36,33s0,4.66,0,6.41c0,12.27-5,22.79-18.14,28.69-6.75,3-14.09,3.36-21.49,1.92A35.1,35.1,0,0,1,9.1,59,34.41,34.41,0,0,1,.83,42.79,34.23,34.23,0,0,1,2,23.8C5.6,13.37,12.9,6.37,23.1,2.35a35,35,0,0,1,18-2A33.67,33.67,0,0,1,58.52,8.2c.41.36,1.08,1,1.08,1l-6,6.09s-.8-.73-1-.9A29.32,29.32,0,0,0,39.77,8.66a24.27,24.27,0,0,0-14.62,2.13A26,26,0,0,0,12.5,22.58c-3.61,6.85-4.52,14-1.8,21.54a26.87,26.87,0,0,0,14,15.74A25.13,25.13,0,0,0,44.9,61c6.16-2.26,11-6.1,13.57-12.29A28.22,28.22,0,0,0,59.93,44a14.38,14.38,0,0,0,.2-2.73l-23.49,0Z" fill="#4e7bbd"/><path d="M119.36,48.1c0,13.43-9.9,23.34-23.33,23.39a23,23,0,0,1-23.21-23.2,22.82,22.82,0,0,1,23.13-23.2C109.37,25.08,119.36,34.9,119.36,48.1Zm-10,.25c0-7.79-5.73-14.12-12.86-14.19S83.52,39.66,83,47.32s4.68,14.21,11.75,15C102.47,63.22,109.3,56.64,109.31,48.35Z" fill="#ee3c2e"/><path d="M146.91,70.78c-13.28.37-22.76-9.7-22.83-22.36-.07-13,9.52-22.86,23.11-22.82a22.46,22.46,0,0,1,22.51,23.2C169.51,60.54,159.57,71.49,146.91,70.78Zm.1-37c-9.2.32-13.72,6.73-13.8,14.7-.07,7.39,5,14.17,13.76,14.33,7.39.14,13.46-6.38,13.54-14.3C160.6,40.25,154.65,33.77,147,33.75Z" fill="#fcb912"/><polygon points="235.42 69.53 226.3 69.53 226.27 2.34 235.45 2.35 235.42 69.53" fill="#29af4c"/><path d="M210.2,27.27H218s.17,29.91-.2,44.23c-.2,7.68-3.16,14.41-10.63,17.81-9.9,4.5-23.17,2.55-29.5-8.84-.33-.59-.64-1.23-.64-1.23l7.19-3.59a39,39,0,0,0,3,3.85c3.48,3.56,7.63,5.39,12.61,4.17,5.86-1.44,9.11-5.35,9.76-11.36.18-1.71.29-3.42.35-5.14,0-.5,0-1.77,0-1.77s-1.79,1.34-2.37,1.67a35.58,35.58,0,0,1-6.14,2.82c-7.19,2.51-17.38-1.2-21.77-7.52-3.63-5.22-5.37-10.91-4.46-17.22,1.75-12.16,12-21.36,25.41-19a25.06,25.06,0,0,1,9.63,5.12ZM183.21,48c-.16,7.36,5.16,14.76,13.15,14.82,8.87.07,13.82-7.31,13.83-14.85S204.34,33.17,197,33.36C188.72,33.33,183.35,41.56,183.21,48Z" fill="#4e7bbd"/><path d="M240,48c-.77-12,8.9-22.31,22.41-22,8,.14,15.82,6,18.83,14.07.54,1.45,1.12,3.08,1.12,3.08L252.3,55.54a11.92,11.92,0,0,0,1.12,2c4.57,6.09,13.3,6.57,19,.81.82-.82,2-2.11,2-2.11l7.5,5a19.62,19.62,0,0,1-1.48,1.94,23.31,23.31,0,0,1-17.63,8.38C250,71.64,241,63.45,240,48Zm30.4-8.13c-1-2.74-6.84-7-13.62-3.75-5.84,2.78-7.75,8.61-6.46,12" fill="#ee3c2e"/></symbol></defs><title>Google</title><use width="282.36" height="91.54" transform="translate(35 22) scale(0.41 0.42)" xlink:href="#ab0cf3a0-98e1-40fb-9dd2-1656f1b05912"/></svg>