<svg xmlns="http://www.w3.org/2000/svg" viewBox="0 0 600 600"><path fill="#F63440" d="M393.6 251.4h-16.7c-1 0-1.4 1-1.4 1.4v36.3h-16.7v-36.3c0-1-1-1.4-1.4-1.4h-16.7c-1 0-1.4 1-1.4 1.4V346c0 1 1 1.4 1.4 1.4h16.7c1 0 1.4-1 1.4-1.4v-37.3h16.7V346c0 1 1 1.4 1.4 1.4h16.7c1 0 1.4-1 1.4-1.4v-93.2c0-.4-.5-1.4-1.4-1.4m-140.7 0h-16.7c-1 0-1.4.5-1.4 1.4v66.1c0 3.3-1 5.7-2.4 7.6s-3.3 2.4-5.7 2.4c-2.3 0-4.3-1-5.7-2.4-1.4-1.9-2.4-4.3-2.4-7.6v-66.1c0-1-1-1.4-1.4-1.4h-16.7c-1 0-1.4.5-1.4 1.4v66.5c0 8.6 1.9 16.7 7.2 22 5.2 5.2 12.4 8.1 20.6 8.1 8.6 0 15.8-2.9 20.6-8.1 5.2-5.2 7.2-12.9 7.2-22v-66.5c-.3-.4-.8-1.4-1.8-1.4M89.3 250c-8.6 0-15.8 2.9-20.6 8.1-5.2 5.2-7.2 12.9-7.2 22v39.7c0 8.6 1.9 16.7 7.2 22 5.2 5.2 12.4 8.1 20.6 8.1 8.6 0 15.8-2.9 20.6-8.1 5.2-5.2 7.2-12.9 7.2-22v-21.9c0-1-1-1.9-1.9-1.9H90.7c-1 0-1.9 1-1.9 1.9v16.3c0 1 1 1.9 1.9 1.9H97v3.8c0 3.3-1 6.3-2.4 8.1-1.4 1.9-3.3 2.4-5.7 2.4-2.3 0-4.3-1-5.7-2.4-1.4-1.9-2.4-4.8-2.4-8.1v-39.3c0-3.3 1-6.3 2.4-8.1 1.4-1.9 3.3-2.4 5.7-2.4 2.3 0 4.3 1 5.7 2.4 1.4 1.9 2.4 4.8 2.4 8.1v3.8c0 1 1 1.4 1.4 1.4h16.7c1 0 1.4-.5 1.4-1.4v-3.8c0-8.6-1.9-16.7-7.2-22-4.2-5.8-11.9-8.6-20-8.6m215.2 76c-1.4 1.9-3.3 2.4-6.3 2.4h-9.5v-20.2h9.5c2.4 0 4.3 1 5.7 2.4 1.4 1.9 2.4 4.3 2.4 7.2.2 3.9-.3 6.2-1.8 8.2zm-15.8-55h8.6c2.4 0 4.3.5 5.7 2.4 1.4 1.4 1.9 3.8 1.9 6.8 0 2.9-.5 5.2-1.9 7.2-1.4 1.4-3.3 2.4-5.2 2.4h-8.6V271h-.5zm27.8 27.3c2.9-2.9 8.1-9.5 8.1-18.2 0-10.1-3.8-16.3-6.8-19.6-5.2-5.7-12.4-8.6-20.6-8.6H271c-1 0-1.4 1-1.4 1.4v93.3c0 1 1 1.4 1.4 1.4h27.7c8.6 0 16.7-3.3 22-10.1 2.9-3.8 6.3-10.1 6.3-19.6-.4-11.4-7.6-18.1-10.5-20zm-152.1-9.1c-1.4 1.9-3.8 2.9-6.8 2.9h-8.1v-21h8.1c2.9 0 5.2 1 6.8 2.9 1.9 1.9 2.4 4.3 2.4 7.6s-.4 5.6-2.4 7.6zm10.6 17.2c1.9-1.4 3.3-2.4 4.8-4.3 3.3-3.8 7.6-10.6 7.6-21.1 0-10.1-3.8-16.7-7.6-20.6-4.8-5.7-11.9-8.6-20.1-9.1H132c-1 0-1.4 1-1.4 1.4V346c0 1 1 1.4 1.4 1.4h16.7c1 0 1.4-1 1.4-1.4v-34.5h5.7l10.6 35.4c0 .5 1 1 1.4 1h17.6c.5 0 1-.5 1.4-.5.5 0 .5-1 .5-1.4L175 306.4zM515.5 326c-1.4 1.9-3.3 2.4-6.3 2.4h-9.5v-20.2h9.5c2.4 0 4.3 1 5.7 2.4 1.4 1.9 2.4 4.3 2.4 7.2.6 3.9-.3 6.2-1.8 8.2zm-15.3-55h8.6c2.4 0 4.3.5 5.7 2.4 1.4 1.4 1.9 3.8 1.9 6.8 0 2.9-.5 5.2-1.9 7.2-1.4 1.4-3.3 2.4-5.2 2.4h-8.6V271h-.5zm27.7 27.3c2.9-2.9 8.1-9.5 8.1-18.2 0-10.1-3.8-16.3-6.8-19.6-5.2-5.7-12.4-8.6-20.6-8.6h-26.4c-1 0-1.4 1-1.4 1.4v93.3c0 1 1 1.4 1.4 1.4h27.9c8.6 0 16.7-3.3 22-10.1 2.9-3.8 6.3-10.1 6.3-19.6-.9-11.4-8-18.1-10.5-20zm-64.1-46.9h-16.7c-1 0-1.4.5-1.4 1.4v66.1c0 3.3-1 5.7-2.4 7.6-1.4 1.9-3.3 2.4-5.7 2.4-2.3 0-4.3-1-5.7-2.4-1.4-1.9-2.4-4.3-2.4-7.6v-66.1c0-1-1-1.4-1.4-1.4h-16.8c-1 0-1.4.5-1.4 1.4v66.5c0 8.6 1.9 16.7 7.2 22 5.2 5.2 12.4 8.1 20.6 8.1 8.6 0 15.8-2.9 20.6-8.1 5.2-5.2 7.2-12.9 7.2-22v-66.5c.3-.4-.6-1.4-1.7-1.4"/></svg>