<svg id="Layer_1" data-name="Layer 1" xmlns="http://www.w3.org/2000/svg" viewBox="0 0 186.4 82"><title>grubhub</title><path d="M119.07,27.85V52.72a.44.44,0,0,1-.44.43h-4.36a.44.44,0,0,1-.44-.43v-10h-4.42v10a.44.44,0,0,1-.44.43h-4.36a.44.44,0,0,1-.44-.43V27.85a.44.44,0,0,1,.44-.43H109a.44.44,0,0,1,.44.43V37.5h4.42V27.85a.44.44,0,0,1,.44-.43h4.36A.44.44,0,0,1,119.07,27.85Zm-37.51-.43H77.09a.41.41,0,0,0-.43.38V45.54a3.09,3.09,0,0,1-.58,2,2,2,0,0,1-2.93,0,3.1,3.1,0,0,1-.59-2V27.8a.42.42,0,0,0-.44-.38H67.65a.41.41,0,0,0-.43.38V45.59a8.27,8.27,0,0,0,1.9,5.83,7.31,7.31,0,0,0,5.48,2.14h0a7.34,7.34,0,0,0,5.49-2.14A8.32,8.32,0,0,0,82,45.59V27.8A.41.41,0,0,0,81.56,27.42ZM38.38,27h0a7.35,7.35,0,0,0-5.48,2.14A8.29,8.29,0,0,0,31,35V45.59a8.27,8.27,0,0,0,1.9,5.83,7.31,7.31,0,0,0,5.48,2.14,7.35,7.35,0,0,0,5.49-2.14,8.32,8.32,0,0,0,1.9-5.83V39.75a.45.45,0,0,0-.45-.45H38.84a.46.46,0,0,0-.46.45v4.34a.45.45,0,0,0,.46.44h1.69v1a3.29,3.29,0,0,1-.61,2.11,2,2,0,0,1-3.08,0,3.36,3.36,0,0,1-.63-2.11V35a3.36,3.36,0,0,1,.63-2.11,2.06,2.06,0,0,1,3.08,0A3.29,3.29,0,0,1,40.53,35v1a.42.42,0,0,0,.44.38h4.36a.42.42,0,0,0,.44-.38V35a8.34,8.34,0,0,0-1.9-5.83A7.39,7.39,0,0,0,38.38,27ZM101,45.24a8.27,8.27,0,0,1-1.64,5.29,7.28,7.28,0,0,1-5.75,2.62H86.28a.44.44,0,0,1-.44-.43V27.85a.44.44,0,0,1,.44-.43h7a7,7,0,0,1,5.4,2.36A7.71,7.71,0,0,1,100.49,35a6.87,6.87,0,0,1-2.11,4.82A7,7,0,0,1,101,45.24Zm-9.9-7.7h2.21a1.8,1.8,0,0,0,1.45-.61A2.88,2.88,0,0,0,95.26,35a2.7,2.7,0,0,0-.53-1.81,1.83,1.83,0,0,0-1.47-.58H91.05Zm4.66,7.7a2.94,2.94,0,0,0-.59-1.94,1.92,1.92,0,0,0-1.56-.69H91.05v5.31h2.51a1.89,1.89,0,0,0,1.58-.67A3.12,3.12,0,0,0,95.71,45.24ZM64.14,52.59a.45.45,0,0,1-.06.39.43.43,0,0,1-.35.17H59.09a.44.44,0,0,1-.42-.31l-2.76-9.39H54.35v9.27a.43.43,0,0,1-.43.43H49.55a.43.43,0,0,1-.43-.43V27.85a.43.43,0,0,1,.43-.43h7.37a7.41,7.41,0,0,1,5.24,2.49,8.09,8.09,0,0,1,2,5.48,8.14,8.14,0,0,1-2,5.56,6.91,6.91,0,0,1-1.24,1.12Zm-5.25-17.2a2.91,2.91,0,0,0-.66-2,2.22,2.22,0,0,0-1.76-.72H54.35v5.56h2.12a2.19,2.19,0,0,0,1.76-.72A3.07,3.07,0,0,0,58.89,35.39Zm97.79,9.85a8.33,8.33,0,0,1-1.63,5.29,7.31,7.31,0,0,1-5.76,2.62H142a.44.44,0,0,1-.44-.43V27.85a.44.44,0,0,1,.44-.43h7a7,7,0,0,1,5.4,2.36A7.71,7.71,0,0,1,156.22,35a6.87,6.87,0,0,1-2.11,4.82A7,7,0,0,1,156.68,45.24Zm-9.9-7.7H149a1.8,1.8,0,0,0,1.45-.61A2.88,2.88,0,0,0,151,35a2.7,2.7,0,0,0-.53-1.81,1.83,1.83,0,0,0-1.47-.58h-2.21Zm4.66,7.7a2.94,2.94,0,0,0-.59-1.94,1.92,1.92,0,0,0-1.56-.69h-2.51v5.31h2.51a1.88,1.88,0,0,0,1.58-.67A3.12,3.12,0,0,0,151.44,45.24ZM137.26,27.42h-4.47a.41.41,0,0,0-.43.38V45.54a3.1,3.1,0,0,1-.59,2,2,2,0,0,1-2.93,0,3.1,3.1,0,0,1-.59-2V27.8a.42.42,0,0,0-.44-.38h-4.46a.41.41,0,0,0-.43.38V45.59a8.27,8.27,0,0,0,1.9,5.83,7.31,7.31,0,0,0,5.48,2.14h0a7.34,7.34,0,0,0,5.49-2.14,8.32,8.32,0,0,0,1.9-5.83V27.8A.41.41,0,0,0,137.26,27.42Z" fill="#f63440"/></svg>