<svg xmlns="http://www.w3.org/2000/svg" xmlns:xlink="http://www.w3.org/1999/xlink" viewBox="0 0 300 300"><symbol id="e" viewBox="-104.5 -74.2 209 148.5"><path fill="#38C3E3" d="M42.3-31.2L26.8-28v44.5l15.4-3.3c12.9-2.7 21.4-13 21.4-26.8S55.1-34 42.3-31.2zm11.4 19.8c0 8.9-5.4 14-11.9 15.4l-5.5 1.2v-25.8l5.5-1.2c6.6-1.4 11.9 1.5 11.9 10.4zm-62.9-8.9l-9.4 2v44.5l9.4-2V-4L9.2 20.3l9.4-2v-44.5l-9.4 2V4.1S-9.2-20.2-9.2-20.3zm-54.5 33.8c0 13.8 8.6 20.5 21.4 17.8l15.4-3.3v-44.5l-15.4 3.3C-55.1-10.6-63.7-.3-63.7 13.5zM-41.9-4l5.5-1.2v25.8l-5.5 1.2c-6.5 1.4-11.9-1.5-11.9-10.4s5.4-14 11.9-15.4zM95-15.3c0 5.9-3.1 9.5-8.1 10.6s-8.1-1.2-8.1-7.1V-39l-9.5 2v27.6c0 11.6 7.8 16.1 17.6 14.1 2.9-.6 5.6-1.7 8.1-3.5v10c.1 6.2-4.2 11.7-10.3 13l-189.2 40.1v9.9L87.4 33.5c10.1-2.2 17.3-11.2 17.1-21.5v-56.5l-9.5 2v27.2zM-95 15.3c0-5.9 3.1-9.5 8.1-10.6s8.1 1.2 8.1 7.1V39l9.5-2V9.4c0-11.6-7.8-16.1-17.6-14-2.9.6-5.7 1.8-8.1 3.4v-10c-.1-6.2 4.2-11.7 10.3-13l189.2-40.2v-9.9L-87.4-33.5c-10.1 2.2-17.3 11.2-17.1 21.5v56.5l9.5-2V15.3z"/></symbol><defs><path id="a" d="M36.8 68h225.8v164.5H36.8z"/></defs><clipPath id="b"><use xlink:href="#a" overflow="visible"/></clipPath><g clip-path="url(#b)"><defs><path id="c" d="M36.6 68h225.8v164.5H36.6z"/></defs><clipPath id="d"><use xlink:href="#c" overflow="visible"/></clipPath><g clip-path="url(#d)"><use xlink:href="#e" width="209" height="148.5" x="-104.5" y="-74.2" transform="matrix(1.0806 0 0 1.1069 149.28 150.16)" overflow="visible"/></g></g></svg>