<svg xmlns="http://www.w3.org/2000/svg" viewBox="0 0 300 300"><g fill="#3F60AB"><path d="M187.2 182.1c.1 2.3 1.4 2.9 3.6 2.8 1.4-.1 3 0 4.5 0 2.6 0 3.3-.6 3.3-3.2v-43.1c0-2.2-.8-2.9-3-3-1.9-.1-3.8 0-5.8 0-2.7.1-3.3.7-3.3 3.3 0 9.9-.1 19.9 0 29.7 0 1.6-.5 2.8-1.9 3.5-2.5 1.2-4.9 2.4-7.5 3.4-1.2.5-2.7.7-4 .5-5-.5-7.3-3.1-7.3-8.1v-28.7c0-2.8-.7-3.5-3.6-3.5h-5c-2.9.1-3.5.7-3.5 3.5v29.6c0 1.7.2 3.5.5 5.2 1.2 6.7 5.4 10.6 12.1 11.8s12.8-.7 18.5-4.2l1.9-1.2c.2.6.3 1.2.5 1.7zM62.5 138.6c.1-2.3-1.2-2.8-3.1-2.8s-3.5-.1-5.4 0c-1.9.1-3 .9-2.9 2.9v42.9c0 2.8.6 3.5 3.5 3.5h5.1c3 0 3.4-.4 3.4-3.2 0-10 .1-20 0-29.9-.1-1.3.5-2.5 1.6-3.2 3.2-2.3 7-3.8 11-3.9 4-.2 7.1 1.1 8.1 5.6.2 1.1.4 2.3.4 3.4v28c0 2.5.6 3.2 3.3 3.2h5.8c2.1 0 2.9-.5 2.9-2.7v-6.7c-.1-9.1.3-18.3-.5-27.4-.8-10.5-8.2-14-17-13.6-5.1.2-9.9 1.9-14 4.8-.5.4-1 .6-1.7 1-.4-.7-.5-1.3-.5-1.9zM106.3 135.7c-2.4 0-2.8.4-2.8 2.7v4.9c0 2.3.5 2.9 3.1 2.9 2.8.1 5.7.2 8.5 0 2.1-.1 2.7.5 2.7 2.5-.1 11.1 0 22 0 33.1 0 2.6.6 3.2 3.3 3.2h5.1c3.2 0 3.6-.4 3.6-3.5 0-11 .1-22 0-32.9 0-1.8.5-2.5 2.4-2.4 3 .2 6 .1 8.9 0 2.5-.1 3.2-.8 3.2-3.2v-4.2c0-2.6-.5-3.1-3.1-3.1h-34.9zM237 135.9c-2.7 0-3 .3-3 2.9v4.2c0 2.9.4 3.3 3.5 3.3 2.8 0 5.7.1 8.5 0 1.8-.1 2.3.6 2.2 2.2-.1 2.7 0 5.5 0 8.3V182c0 2.3.7 3.1 3.2 3.1h5.4c3.2 0 3.5-.4 3.5-3.4 0-11.1.1-22 0-33.1 0-1.9.6-2.5 2.5-2.4 2.9.1 5.9.1 8.8 0 2.6 0 3.2-.8 3.2-3.2v-4.2c0-2.6-.4-3-3.1-3h-17.2c-5.9-.1-11.6-.1-17.5.1zM224.2 138.5c0-2.3-.5-2.7-2.8-2.7h-6c-2.6 0-3.3.7-3.3 3.3v42.7c0 2.5.7 3.3 3.3 3.3h5.8c2.6 0 3-.5 3-3v-21.6-22zM25.3 182c0 2.5.5 2.9 3.1 3h5.8c2.5 0 3.3-.7 3.3-3.1v-44.1c-.2-1.3-1.4-2.3-2.8-2.1h-6.2c-2.7 0-3.1.4-3.1 3.1V182zM124 128.6c3.8 0 6.9-3.1 6.9-6.8v-.5c-.1-3.9-3.4-7-7.4-6.9-4 .1-7.2 3.3-7.1 7.2v.3c.1 3.8 3.4 6.8 7.2 6.7.2-.1.3-.1.4 0zM254.7 128.5c3.8-.1 6.8-3.2 6.7-6.9v-.1c.1-3.9-3.2-7.2-7.2-7.2-3.9.2-7.1 3.3-7.3 7.1v.2c.1 3.9 3.4 7 7.4 6.9h.4z"/></g></svg>