<svg xmlns="http://www.w3.org/2000/svg" viewBox="0 0 288 288"><path fill="#0A66C2" d="M231.7 39.7H56.3c-8.4 0-15.2 6.7-15.2 15.1v178.5c.1 8.3 6.8 15.1 15.2 15.1h175.4c8.3.1 15.1-6.7 15.2-15.1V54.8c0-8.4-6.9-15.2-15.2-15.1z"/><path fill="#FFF" d="M71.6 117.9h30.6v99.5H71.6v-99.5zm15.3-49.4c9.9-.1 18 7.8 18.1 17.7.1 9.9-7.8 18-17.7 18s-18-7.8-18.1-17.7v-.2c-.1-9.8 7.8-17.8 17.7-17.8m34.4 49.4h29.3v13.6h.4c4.1-7.8 14.1-16.1 28.9-16.1 30.9 0 36.7 20.6 36.7 47.4v54.6H186v-48.5c0-11.5-.2-26.4-15.9-26.4-15.9 0-18.3 12.6-18.3 25.6v49.3h-30.5v-99.5z"/></svg>