<svg xmlns="http://www.w3.org/2000/svg" xmlns:xlink="http://www.w3.org/1999/xlink" viewBox="0 0 300 300"><symbol id="e" viewBox="-88.6 -64.5 177.1 129"><path fill="#EC196F" d="M-35.7 64.4c-1.2-.1-2.3-.2-3.5-.4-5-.7-9.8-2.3-14.2-4.7-1.2-.7-2.4-1.4-3.6-2-.4-.2-.6-.6-.6-1V35.7c0-.2 0-.4.1-.7l1.5.8c4.4 2.5 9.2 4.3 14.2 5.3 5.7 1 10.8-.5 14.8-4.9 1.8-2 4.1-6.6 4.3-8.9-.3.1-.6.2-.8.4-3.1 1.8-6.5 2.9-10.1 3.3-5.9.5-11.2-.8-15.8-4.8-4.5-4-7.3-9.5-7.8-15.4-.2-1.7-.3-3.3-.3-5v-41.5c0-1.1 0-1.1 1-1.1H-32c1.1 0 1.1 0 1.1 1.1v33.8c0 1.5.1 2.9.3 4.4.3 2 2.1 3.5 4.2 3.2.5-.1 1-.3 1.5-.5.6-.4 1.1-.9 1.3-1.6.3-1.1.5-2.2.5-3.3.1-6.9 0-13.9 0-20.8v-15.2c0-1 0-1 1-1H2.7c.6 0 .9.1.9.8 0 20.6 0 41.1-.1 61.7 0 6.4-1.4 12.7-4.2 18.4-1.8 3.6-4.2 6.8-7.1 9.5-5 5.1-11.4 8.6-18.4 10-1.7.3-3.4.4-5.1.7-.2 0-.4.1-.6.1l-3.8-.1z"/><path fill="#EC196F" d="M-88.6-62.6h25.7c.9 0 1 0 1 1v58.1c0 4.7-.1 9.3 0 14 0 4.7 1.3 9.2 3.7 13.3 1.1 1.9 2.6 3.6 4.2 5l1.1.9c-1.1.6-2 1.1-3 1.6-3.1 1.5-6.4 2.4-9.8 2.7-5.1.4-10.2-1.3-14.1-4.5-5.2-4.3-7.8-9.9-8.5-16.5-.1-.7-.2-1.4-.3-2.2v-73.4zM7.8 0c0-10-.1-20.1 0-30.1 0-7 1.9-13.9 5.5-20 3.6-6.2 9.6-10.8 16.5-12.6 7.9-2.3 16.3-2.4 24.3-.4 11.4 3 18.6 10.3 21.8 21.6.3 1.2.6 2.4.8 3.6.2 1-.1 1.1 1.3 1.1h6.8c.6 0 .9.2.9.9v25.8c0 .6-.2.8-.8.8h-7.6c-.9 0-1 0-.9.9.1 2.1.4 4.2.8 6.3 1 4.6 3.5 6.7 8.2 7.1.8.1 1.6.1 2.4.1.6 0 .7.2.7.7v25.4c0 1.1 0 1.1-1.1 1.1-6.4.4-12.7-1.1-18.4-4.1C60.5 23.6 54.6 16.6 52.3 7c-1-4.2-1.5-8.5-1.5-12.8v-26.6c.1-1.6-.9-3.2-2.4-3.8-4.1-2.1-11.2-1.5-13.8 5.1-.7 1.9-1.1 3.9-1.1 5.9v3c0 .9 0 .9.9.9h10c1.9 0 1.7-.2 1.7 1.7v23c0 1 0 1-1 1H34.5c-.9 0-.9 0-.9.9 0 2.7 0 5.4-.1 8-.3 6.8-3.7 11.8-9.7 15.1-3.9 2-8.2 3.1-12.6 3.3-.9.1-1.8.1-2.6.1-.6 0-.8-.2-.8-.8V0z"/></symbol><defs><path id="a" d="M38.9 69h222.5v161.9H38.9z"/></defs><clipPath id="b"><use xlink:href="#a" overflow="visible"/></clipPath><g clip-path="url(#b)"><defs><path id="c" d="M38.9 68.3h222.4v162H38.9z"/></defs><clipPath id="d"><use xlink:href="#c" overflow="visible"/></clipPath><g clip-path="url(#d)"><use xlink:href="#e" width="177.1" height="129" x="-88.6" y="-64.5" transform="translate(150.048 148.531) scale(1.2557)" overflow="visible"/></g></g></svg>