<svg xmlns="http://www.w3.org/2000/svg" viewBox="0 0 300 300"><path fill="#158BCC" d="M251 145.9l-.1-6.3h-1.2v34.9h1.2v-18.1h.1c.4 1.1 1 2.1 1.7 3 .7.8 1.5 1.5 2.4 2.1.9.5 1.8 1 2.9 1.3 1 .3 2.1.5 3.2.5 1.6 0 3.1-.3 4.6-1 1.4-.5 2.6-1.4 3.6-2.5 1.1-1.1 1.8-2.4 2.4-3.8.5-1.5.8-3.1.8-4.8s-.3-3.3-.8-4.9c-.5-1.4-1.3-2.7-2.3-3.8-1-1.1-2.3-1.9-3.6-2.5-1.5-.6-3.1-.9-4.7-.9-4.5-.2-8.6 2.6-10.2 6.8m19.8 9.5c-.5 1.3-1.2 2.5-2.1 3.6-1.9 2.1-4.7 3.4-7.5 3.3-1.4 0-2.9-.3-4.2-.9-1.2-.5-2.3-1.4-3.3-2.4s-1.7-2.3-2.2-3.6c-1-2.7-1-5.8 0-8.6.5-1.3 1.2-2.5 2.2-3.6.9-1 2.1-1.8 3.3-2.4 1.3-.6 2.7-.9 4.2-.9 1.4-.1 2.9.3 4.2.9 1.3.6 2.4 1.4 3.3 2.5.9 1 1.6 2.3 2.1 3.6.5 1.4.8 2.8.8 4.2 0 1.5-.2 3-.8 4.3zm-29.3 4c.7-.9 1.2-1.8 1.4-2.8h.1c0 .5-.1 1 0 1.5s0 1.1.1 1.7c.1.6.1 1.2.1 1.6s.1.9.1 1.2h1.1c0-.3-.1-.8-.1-1.2s0-1-.1-1.6c-.1-.5-.1-1.1-.1-1.6v-18.5h-1.2v11.4c.1 1.6-.2 3.2-.7 4.7-.4 1.2-1 2.5-1.9 3.5-.8.9-1.8 1.6-2.9 2.2-1.1.5-2.3.8-3.6.8-1.2.1-2.5-.3-3.6-.9-.9-.5-1.6-1.3-2.2-2.2s-.9-1.8-1.1-2.9c-.2-1-.3-2-.3-3v-13.8h-1.1v13.8c0 1.2.1 2.4.4 3.6.3 1.2.7 2.2 1.4 3.1.6 1 1.5 1.7 2.5 2.3 1.2.5 2.6.9 4 .8 2 0 3.9-.5 5.5-1.7.9-.5 1.5-1.2 2.2-2m-20-8.3c0-1.7-.3-3.4-.9-4.9-.5-1.4-1.4-2.7-2.5-3.8-1.1-1-2.4-1.9-3.8-2.5-1.6-.6-3.2-.9-4.9-.9s-3.3.3-4.8.9c-1.4.5-2.7 1.4-3.8 2.5s-1.9 2.4-2.5 3.8c-.5 1.6-.8 3.3-.8 4.9 0 1.7.3 3.4.9 4.9.5 1.4 1.4 2.7 2.5 3.8 1 1.1 2.3 2 3.8 2.5 1.5.6 3.1.9 4.8.9 1.6.1 3.3-.3 4.8-.9 1.4-.6 2.7-1.4 3.8-2.5s1.9-2.4 2.5-3.8c.7-1.6.9-3.2.9-4.9m-1.8 4.3c-.5 1.3-1.2 2.5-2.2 3.6-1 1-2.1 1.8-3.4 2.4-1.4.6-2.9.9-4.5.9s-3.1-.3-4.5-.9c-1.3-.5-2.5-1.4-3.4-2.4-1-1-1.7-2.3-2.2-3.6-.5-1.4-.8-2.9-.8-4.4 0-1.4.3-2.9.8-4.3.5-1.3 1.2-2.5 2.2-3.6 1-1 2.1-1.8 3.4-2.4 1.4-.6 2.9-.9 4.5-.9 1.5 0 3.1.3 4.5.9 1.3.5 2.5 1.4 3.4 2.4 1 1 1.7 2.3 2.2 3.6.5 1.4.8 2.8.8 4.3-.1 1.6-.3 3-.8 4.4zM192 140.5c-1.4 1.1-2.5 2.8-3.1 5.1h-.1c0-.4.1-.9 0-1.4s0-1.1-.1-1.7c-.1-.6-.1-1.2-.1-1.6 0-.5 0-.9-.1-1.2h-1.2c0 .3.1.8.1 1.2 0 .5 0 1 .1 1.6.1.5.1 1.1.1 1.6v18.5h1.1v-11.8c0-1.3.1-2.6.5-3.8.3-1.2.8-2.4 1.4-3.5.7-1 1.5-1.9 2.5-2.5 1.2-.7 2.5-1 3.8-1h.3c.1 0 .2.1.3.1v-1c-.1-.1-.3-.1-.4-.1h-.4c-1.7-.1-3.4.5-4.7 1.5m-11.5 15.9l.1 4.7c0 1.6-.1 3.2-.5 4.8-.3 1.4-.9 2.9-1.6 4.1-.8 1.2-1.8 2.2-3.1 2.9-1.6.8-3.3 1.2-5 1.1-1.7 0-3.5-.3-5.1-1-1.6-.7-3.1-1.7-4.3-3.1l-.8.8c1.2 1.4 2.7 2.4 4.3 3.1 1.8.8 3.8 1.1 5.8 1.1 1.8.1 3.7-.3 5.3-1.1 1.4-.7 2.6-1.7 3.5-3 1-1.3 1.6-2.8 1.9-4.4.3-1.7.5-3.4.5-5.2v-21.6h-1.1v6.3h-.1c-1.6-4.2-5.8-7-10.3-6.9-1.6-.1-3.1.3-4.6.9-1.4.5-2.6 1.4-3.6 2.5-1 1.2-1.8 2.5-2.3 3.9-.5 1.5-.8 3.1-.8 4.8-.1 1.6.3 3.3.8 4.8.5 1.4 1.3 2.7 2.3 3.8s2.3 1.9 3.6 2.5c1.4.6 3 .9 4.6.9 1.1 0 2.2-.2 3.2-.5s2-.8 2.9-1.3c1-.5 1.8-1.3 2.5-2.1.7-.9 1.3-1.8 1.7-2.9l.2.1m-20-9.5c.5-1.3 1.2-2.5 2.1-3.6 1-1 2.1-1.8 3.3-2.5 1.4-.6 2.8-.9 4.3-.9 1.4 0 2.9.3 4.2.9 1.2.5 2.3 1.4 3.3 2.4s1.7 2.3 2.2 3.6c1 2.7 1 5.8 0 8.6-.5 1.3-1.2 2.5-2.2 3.6-.9 1-2.1 1.9-3.3 2.5-1.4.6-2.8.9-4.2.9-1.5 0-2.9-.3-4.3-.9-1.3-.6-2.4-1.4-3.3-2.5-.9-1-1.6-2.3-2.1-3.6-.5-1.4-.8-2.9-.8-4.3s.3-2.8.8-4.2zm-23.1-4.4h-.1v-17.6h-4.7v37.7h4.7V150c-.1-2.1.5-4 1.8-5.7 1.1-1.4 2.8-2.2 4.6-2.1 1 0 1.8.2 2.7.6.7.3 1.2.9 1.6 1.6.4.8.7 1.5.8 2.3.1.9.2 1.8.2 2.7v13.1h4.7v-14.7c0-1.2-.1-2.5-.5-3.8-.3-1.1-.9-2.1-1.6-3s-1.7-1.6-2.7-2.1c-1.2-.5-2.5-.8-3.9-.8-1.6 0-3.2.4-4.6 1.2-1.4 1-2.3 2-3 3.2m-11.6 2.5l3.6-2.7c-1-1.3-2.3-2.3-3.9-2.9-1.6-.7-3.3-1-5-1-1.7 0-3.4.3-5 .9-1.5.5-2.9 1.4-4 2.5-1.2 1.1-2.1 2.4-2.7 3.9-.7 1.6-1 3.4-1 5.1-.1 1.8.3 3.5 1 5.1.6 1.4 1.5 2.8 2.7 3.9 1.1 1.1 2.5 2 4 2.5 1.6.6 3.4.9 5.1.9 1.7.1 3.5-.3 5.1-1 1.4-.6 2.7-1.6 3.7-2.7l-3.1-2.9c-.6.8-1.4 1.5-2.4 1.9-2.1 1-4.5 1-6.6 0-1-.4-1.8-1-2.5-1.8s-1.2-1.7-1.5-2.7c-.7-2.1-.7-4.4 0-6.5.3-1 .8-1.9 1.5-2.7.7-.8 1.4-1.4 2.4-1.8 1-.5 2.2-.7 3.3-.7 1.2 0 2.3.3 3.2.8.7.4 1.6 1.1 2.1 1.9m-19.6-2.2l.1-3.8H100v-6.8h-4.7v6.7h-4.5v3.8h4.5v12.8c0 2.5.6 4.3 1.8 5.5 1.2 1.2 2.9 1.8 5.1 1.8.7.1 1.4 0 2.1-.1.6-.1 1.2-.3 1.8-.5l-.1-3.8c-.4.2-.9.3-1.4.4-.5.1-.9.1-1.4.1-1 .1-1.8-.2-2.5-.9-.5-.6-.8-1.6-.8-3.1v-12.3h6.3m-22.5 4.7v.6c-2 0-4 .1-6 .3-1.8.1-3.6.5-5.3 1.1-1.4.5-2.7 1.3-3.8 2.4-1 1.2-1.4 2.7-1.4 4.2-.1 1.2.3 2.4.8 3.4.5.9 1.2 1.6 2.1 2.3.8.5 1.8 1 2.7 1.2 1 .2 2 .3 2.9.3 1.6.1 3.2-.3 4.7-1 1.3-.7 2.5-1.7 3.3-2.9h.3c0 1.1.1 2.3.3 3.4h4.2c-.1-.8-.3-1.4-.3-2.2-.1-.9-.1-1.7-.1-2.5v-10.3c0-1.2-.2-2.5-.6-3.6-.3-1.1-1-2.1-1.8-2.9-.9-.9-1.9-1.6-3.1-2-1.4-.5-2.9-.8-4.4-.8-1.8 0-3.7.3-5.4 1-1.6.6-3 1.4-4.2 2.6l2.5 3c.8-.8 1.8-1.5 2.9-2 1.2-.5 2.5-.8 3.8-.8 1.5-.1 3 .4 4.2 1.3 1.2.8 1.7 2.1 1.7 3.9m0 4v1.2c.1 1.8-.5 3.6-1.8 4.9-1.2 1.3-2.9 2-5.1 2-.5.1-1.2 0-1.7-.1s-1.1-.3-1.6-.6c-.4-.3-.8-.7-1.1-1.2-.3-.5-.4-1.1-.4-1.7-.1-.9.3-1.8 1-2.4.8-.6 1.6-1.1 2.5-1.4 1.1-.3 2.2-.5 3.4-.6 1.2-.1 2.5-.1 3.6-.1h1.2zM34 139.6c-1.2.8-2.1 1.9-2.8 3.1H31c0-.5-.1-1.2-.1-1.8 0-.7-.1-1.4-.1-2h-4.5c.1.8.1 1.7.1 2.7.1 1 .1 1.8.1 2.5v18.5h4.7V150c-.1-2.1.5-4 1.7-5.7 1-1.4 2.6-2.1 4.3-2.1.8 0 1.6.1 2.3.5.6.3 1.2.8 1.6 1.3.4.6.7 1.3.8 2 .2.8.3 1.7.3 2.5v14.1h4.7v-12.8c0-.9.1-1.8.3-2.7.2-.8.5-1.6 1-2.4.5-.7 1.1-1.3 1.8-1.7.8-.5 1.8-.7 2.7-.7.9 0 1.8.2 2.5.6.6.3 1.2.9 1.6 1.6.4.7.7 1.4.8 2.3.2.9.3 1.8.3 2.7v13h4.7v-14.7c0-1.2-.2-2.5-.5-3.7-.3-1.1-.9-2.1-1.6-3s-1.7-1.6-2.7-2.1c-1.2-.5-2.5-.8-3.9-.8-1.6 0-3.2.4-4.7 1.2-1.4.8-2.6 2-3.4 3.5-.5-1.5-1.6-2.8-3-3.6-1.3-.8-2.8-1.1-4.3-1.1-1.5.1-3.1.5-4.5 1.4"/></svg>