<?xml version="1.0" encoding="utf-8"?>
<svg viewBox="0 0 300 300" xmlns="http://www.w3.org/2000/svg">
  <circle fill="#FFF" cx="148.1" cy="149.5" r="118.4"/>
  <path fill="#E60019" d="M 149.906 2.879 C 68.727 3.127 2.941 69.038 3.065 150.34 C 3.189 210.789 40.178 264.784 96.283 287.003 C 94.297 272.976 94.546 258.702 96.78 244.676 C 99.387 233.132 113.909 171.566 113.909 171.566 C 110.93 164.739 109.441 157.291 109.565 149.844 C 109.565 129.363 121.481 114.219 136.252 114.219 C 148.913 114.219 154.871 123.529 154.871 134.824 C 154.871 147.485 146.927 166.352 142.706 183.854 C 139.727 195.398 146.678 206.941 158.098 209.92 C 160.084 210.417 162.318 210.665 164.553 210.541 C 190.619 210.541 210.852 182.861 210.852 143.265 C 210.852 108.013 185.53 83.436 149.285 83.436 C 107.455 83.312 82.754 114.592 82.754 146.989 C 82.754 159.029 86.602 170.821 93.677 180.503 C 94.67 181.62 95.042 183.233 94.67 184.723 C 93.553 189.44 91.07 199.37 90.449 201.356 C 89.953 203.342 88.339 204.583 85.484 203.342 C 66.866 194.653 55.57 167.966 55.57 146.368 C 55.57 99.821 89.208 57.37 152.761 57.37 C 203.652 57.37 243.497 93.615 243.497 142.396 C 243.497 193.163 211.596 233.877 167.283 233.877 C 152.388 233.877 138.362 226.181 133.645 216.872 L 124.336 251.875 C 120.116 265.529 113.909 278.562 106.089 290.478 C 183.792 314.559 266.212 271.115 290.292 193.536 C 314.372 115.957 270.928 33.538 193.226 9.333 C 179.324 5.113 164.677 2.879 149.906 2.879 Z" style=""/>
</svg>