<svg id="Layer_1" data-name="Layer 1" xmlns="http://www.w3.org/2000/svg" viewBox="0 0 186.4 82"><title>Postmates</title><rect x="-20.59" y="-0.49" width="224.59" height="84.99" style="fill:none"/><path d="M50.38,38.93a5.84,5.84,0,0,0-8.07-1.75A5.65,5.65,0,0,0,41,38.29L39,36.71c.53-.21,1.61-.69,1.69-1s-.52-.3-1.37-.35l3.91-3.57a.09.09,0,0,0,0-.1l-1-1.87a.08.08,0,0,0-.11,0h0L38,33.52c-1.21,0-3.37.16-4-.23-1-.62-1.1-1.54-1.46-1.87s-.78-.37-.87-.65c0,0,0,0,0,0h0c.19-.05,1.26-.35,1.5-1.09a2.88,2.88,0,0,0-.34-1.91,0,0,0,0,1,0,0l1.12-1a0,0,0,0,0,0-.05h0l-1.66.21,0,0a1.69,1.69,0,0,0-2.09-.34,1.83,1.83,0,0,0-1.3,2,2.4,2.4,0,0,0,1.5,2.16s0,0,0,.05c-.52.43-5.7,4.69-10.5,6.35a.09.09,0,0,0-.05.12.06.06,0,0,0,.05.06c1.39.6,5.55.29,6.78-.44a0,0,0,0,1,0,0s0,0,0,0c-.14.51-.86,3.5.29,4.45l.06.05-1.53,1.1a.39.39,0,0,0-.1.54.38.38,0,0,0,.37.16l.79-.08a2.28,2.28,0,0,0,1.36-.64l.27-.26,2.24,1.67-.29,2.37a5.82,5.82,0,1,0,4.81,3l.58-.37a1.4,1.4,0,0,0,2.29-1.42l2.37-.69a.38.38,0,0,0,.27-.46v-.08a.4.4,0,0,0-.38-.29h-2l-.61-1.37,1.19-7.09,1.93,1.44a5.83,5.83,0,1,0,9.82,0ZM34.32,34.55l2.74,0,.36.67c-.63,0-1.3.08-1.94.16-.47,0-1-.54-1.19-.73a0,0,0,0,1,0,0s0,0,0,0h0Zm-4.09,4.33A20.14,20.14,0,0,0,32,35.52s0,0,0,0h0a7.19,7.19,0,0,0,2.9,1.67h0l2.41-.74.53.4-2.51,2.31a1.78,1.78,0,0,0-1-.43,18.11,18.11,0,0,0-4.12.21,0,0,0,0,1-.05,0s0,0,0,0Zm6.17,7.5a1.43,1.43,0,0,0-.46.13L34.22,45.2a0,0,0,0,1,0,0l.87-1.79a0,0,0,0,1,0,0h0l1.41,2.21Zm-3.64-2-1.17-.88,2.25-2.07Zm0-3-1.83,1.68L29.09,41.7a20.69,20.69,0,0,0,3.68-.3Zm-1.5,2.91,1.2.9-.12.4a.53.53,0,0,0,.32.69l2.51.92.08,0a1.39,1.39,0,0,0,0,.9l-.57.36A5.79,5.79,0,0,0,31,46.23Zm-.38,3.13a4.6,4.6,0,0,1,2.75,1.74l-3.22,2Zm1.54,8.44a4.62,4.62,0,1,1-2.34-8.52L29.5,52a.39.39,0,0,0,.35.43.37.37,0,0,0,.23,0L34,49.85a4.63,4.63,0,0,1-1.59,6Zm3.36-15.15h0a2.7,2.7,0,0,0-.12-1l2.13-1.95-.92,5.4Zm12.27,5.22a4.62,4.62,0,0,1-6.43-6.32l3.67,2.73a.38.38,0,0,0,.44,0,.32.32,0,0,0,.1-.1.38.38,0,0,0-.07-.54L42.09,39a4.64,4.64,0,1,1,6.12,6.85l-.17.1Z"/><path d="M36.29,32.52l1.35.07a.18.18,0,0,0,.17-.06l3.35-3.14a.06.06,0,0,0,0-.08.05.05,0,0,0,0,0l-1.31-.08a.35.35,0,0,0-.26.1l-3.3,3.09a.06.06,0,0,0,0,.09A.05.05,0,0,0,36.29,32.52Z"/><polygon points="18.57 52.2 16.44 53.49 14.4 51.84 15.05 54.38 12.96 55.77 15.5 56.04 16.25 58.56 17.17 56.18 19.71 56.34 17.75 54.61 18.57 52.2"/><polygon points="21.07 43.05 18.93 44.35 16.9 42.69 17.54 45.23 15.46 46.62 18 46.89 18.74 49.41 19.67 47.03 22.21 47.2 20.24 45.46 21.07 43.05"/><polygon points="11.1 47.96 11.92 45.54 9.78 46.84 7.75 45.19 8.4 47.73 6.31 49.12 8.85 49.38 9.59 51.9 10.52 49.53 13.06 49.69 11.1 47.96"/><path d="M64.69,50.91V33.09h7.39a5.12,5.12,0,0,1,5.26,5.41,5.09,5.09,0,0,1-5.26,5.4H67.61v7Zm2.92-15.48v6.13h4.52a3.11,3.11,0,0,0,0-6.13Z"/><path d="M91.89,47.06c.91-.18,1.8-.36,2.69-.51a2.55,2.55,0,0,0,2.85,2.24c.46,0,2.73-.18,2.73-1.81,0-3.08-7.89.1-7.89-5.42,0-2.19,2.19-3.84,4.94-3.84s5.09,1.14,5.47,4c-.92.15-1.81.33-2.7.51-.18-1.61-1.17-2.19-2.7-2.19-1.35,0-2.26.71-2.26,1.5,0,1,1,1.32,2.49,1.48,2.9.3,5.37.94,5.37,3.94,0,2.7-2.36,4.12-5.44,4.12-3.31,0-5.19-1.73-5.55-4"/><path d="M103.53,40.1v-2h2.34v-3.8h2.63v3.8h2.63v2H108.5v7.3c0,1,.29,1.33,1.15,1.33.37,0,1.18,0,1.18,0v2.1s-.94.1-1.88.1c-2.32,0-3.08-1.25-3.08-3.62V40.1Z"/><path d="M120.76,43.72c0-1.87-.39-3.47-2.22-3.6a2.58,2.58,0,0,0-2.74,2.59v8.2h-2.63V38.06h2.49l.26,1.39a4.35,4.35,0,0,1,3.39-1.65,3.84,3.84,0,0,1,3.56,1.93,4.74,4.74,0,0,1,3.85-1.93c3.49,0,4.56,2.14,4.56,5.94v7.17h-2.63V43.72c0-1.93-.53-3.64-2.48-3.64s-2.49,1.66-2.49,3.64v7.19h-2.92Z"/><path d="M136.3,42.38c-.87-.15-1.8-.35-2.72-.5.29-2.85,2.63-4.18,5.32-4.18,3.64,0,5.52,1.78,5.52,5.3v4.42c0,.83.17,1.3.74,1.3a2.46,2.46,0,0,0,.72-.11v2.2a14.46,14.46,0,0,1-1.79.2,2.13,2.13,0,0,1-2.24-1.83,5.35,5.35,0,0,1-4,1.91c-3,0-4.76-1.66-4.76-4.09,0-2,1.86-3.84,5.26-4h3.17v-.64c0-1-.41-2.33-2.77-2.33a2.28,2.28,0,0,0-2.6,2.33m5.37,3.27v-.58h-3c-2.27,0-2.73,1.14-2.73,1.78,0,.87.59,1.78,2.27,1.78a3.19,3.19,0,0,0,3.49-2.92"/><path d="M84.28,51.12A6.7,6.7,0,1,1,91,44.43h0a6.69,6.69,0,0,1-6.69,6.69M84.2,40.28a4.15,4.15,0,1,0,4.15,4.15,4.15,4.15,0,0,0-4.15-4.15"/><path d="M162.82,46.5c.84.23,1.68.49,2.52.74a5.77,5.77,0,0,1-5.85,4c-3.5,0-6.05-2.73-6.05-6.7s2.34-6.69,5.93-6.69,5.8,2.39,5.8,6.29a10,10,0,0,1,0,1.22h-8.84a3.34,3.34,0,0,0,6.55,1.14M162.24,43c-.07-1.9-1-3.13-2.87-3.13a3,3,0,0,0-3,3.13Z"/><path d="M166.35,47.06c.92-.18,1.81-.36,2.7-.51a2.55,2.55,0,0,0,2.85,2.24c.46,0,2.73-.18,2.73-1.81,0-3.08-7.89.1-7.89-5.42,0-2.19,2.19-3.84,4.94-3.84s5.08,1.15,5.47,4c-.92.15-1.81.33-2.7.51-.18-1.61-1.17-2.19-2.7-2.19-1.35,0-2.26.71-2.26,1.5,0,1,1,1.32,2.49,1.48,2.9.3,5.37.94,5.37,3.94,0,2.7-2.37,4.12-5.45,4.12-3.3,0-5.19-1.73-5.55-4"/><path d="M145.3,40.1v-2h2.33v-3.8h2.63v3.8h2.63v2h-2.63v7.3c0,1,.3,1.33,1.16,1.33.37,0,1.18,0,1.18,0v2.2s-1,.11-2,.11c-2.46,0-3.27-1.32-3.27-3.83V40.1Z"/></svg>