<svg xmlns="http://www.w3.org/2000/svg" viewBox="0 0 300 300"><path fill="#B5121B" d="M39.5 155c3.5 0 4.3-4 4.9-6.6.3-1.6.5-3.3.5-5.1-.1-1.6-.8-2.8-2.7-2.8-3.8 0-4.5 4.4-5.1 7.2-.5 2.8-1.5 7.3 2.4 7.3m-10.7-7.1c.7-3.5 2.3-6.7 4.8-9.1 2.5-2.6 6.1-4 9.7-3.8 7.8 0 10.9 5.6 9.4 13.1-.7 3.8-2.9 8-6.5 10.1 0 1.1 1.2 1.3 2.1 1.3.7 0 1.4-.1 2-.3l-1.1 5.7-3 .2c-3.3 0-5.1-1.2-5.3-4.6-1.1.2-2.2.4-3.3.4-7.2-.2-10.1-6.3-8.8-13m41.3 12.4l3.6-18.7h-7.3l-2 10.8c-.1.7-.3 1.4-.7 2-.5.7-1.1 1.1-2 1.1-1.6 0-1.4-1.3-1.1-2.5l2.2-11.3h-7.3L53 154.5c-.3 1.8-.5 3.4.6 4.7.9 1.1 2.4 1.4 3.9 1.4 2.4 0 5.1-1 6.3-3.4h.1l-.6 3 6.8.1zm12.8-18.6h-7.2l-3.6 18.7h7.3l3.5-18.7zm1.3-6.8H77l-1 5h7.3l.9-5zm10.3 17.9c-.4 1.4-1.3 2.8-2.9 2.8-2.4 0-1.9-2.9-1.6-4.6.3-1.6.9-4.7 3.2-4.7 1.6 0 1.6 1.5 1.6 2.8v.2l6.5-.6c.3-4.7-2.8-7.3-7.3-7.3-5.7 0-10.4 4.1-11.5 9.7-.5 2.7-.2 5.1 1.4 7.1 1.6 2 3.7 2.5 6.4 2.5 4.7 0 8.6-2.5 10.3-7.4l-6.1-.5zm22.5-4.7l6.9-6.4h-6.3l-5.3 5.1-2 2 2.7-13.5h-7.3l-4.9 25h7.3l1-5.1 2.3-2.4 2 7.5h7.6c-.1 0-4-12.2-4-12.2z"/><path fill="#B5121B" d="M134.5 148.8c.3-1.8 0-3.2-2-3.2-1.9 0-2.9 1.5-3.2 3.2h5.2zm6.3 5.3c-2 4.6-6.4 6.6-10.9 6.6-2.8 0-5.4-.7-7-2.4-1.6-1.8-2.2-4.3-1.7-7 .6-2.7 2-5.2 4.1-7 2.2-1.9 5.1-2.9 8-2.9 6.2 0 9.2 4 8.1 10.1l-.2 1h-12.5c-.5 2-.1 3.5 2.1 3.5 1.5.2 2.9-.8 3.3-2.3l6.7.4zm4.1-12.4l-3.6 18.7h7.3l2.1-10.8c.3-1.5.8-3.2 2.9-3.2 1.6 0 1.2 1.6 1.1 2.7l-2.2 11.3h7.3l2.2-11.5c.4-2 .7-4.2-.1-5.6-.8-1.5-2.7-2-4.5-2-2.3 0-4.6.9-5.9 3h-.1l.5-2.6h-7zm38.9 18.7l1.2-6.2h-9.9l3.7-18.9H171l-4.9 25.1h17.7zm13.4-14.5c-2.5 0-3.2 3.2-3.5 5-1 5 .2 5.4 1.5 5.4s2.6-.4 3.6-5.4c.3-1.7 1-5-1.6-5m.9-4.6c5.9 0 9.5 3.9 8.4 9.9-1.1 5.7-6.4 9.5-12.2 9.5s-9.5-3.9-8.4-9.5c1.1-5.8 6.3-9.9 12.2-9.9m21.2 10.7l.1-.4c-1.8.2-4.8.7-5.3 3-.2 1.2.4 1.7 1.6 1.7 2.7.1 3.1-2.2 3.6-4.3zm-1 8.4c0-.9.1-1.8.2-2.6-1.6 2-4.2 3.1-6.7 3-3.5 0-6.1-2-5.5-5.6.6-2.9 3.3-5 6-5.7 2.4-.7 5.1-1.1 7.6-1.1v-.2c.3-1.7 0-2.4-1.7-2.4-1.5 0-2.8.5-3.3 2.1l-6.5-.7c2-4.7 6.7-5.9 10.9-5.9 2.2 0 5 .3 6.5 1.6 2.1 1.7 1.4 4.2.8 6.9l-1.2 6.5c-.3 1.3-.4 2.8-.2 4.1h-6.9zm12.5-18.6l-3.7 18.8h7.3l2.1-10.9c.3-1.6.8-3.3 2.9-3.3 1.6 0 1.2 1.6 1.1 2.7l-2.2 11.3h7.3l2.2-11.5c.4-2 .8-4.1-.1-5.6-.8-1.4-2.8-2-4.5-2-2.3 0-4.6.9-5.9 3h-.1l.5-2.7-6.9.2zm22.5 12.6l-6 .7c.6 4.3 4.1 5.7 8.3 5.7s10-1.5 10.9-6.6c.5-1.8-.2-3.7-1.7-4.7-1.3-.9-3.2-1.1-4.8-1.4-1.1-.1-2-.2-3.1-.4-.5-.1-1.1-.3-.9-1 .2-.8 2-1 2.5-1 1.3 0 2.6.4 2.9 1.6l5.7-1.1c-.6-3.5-4-4.9-7.5-4.9-2.2-.1-4.3.4-6.3 1.4-2 1-3.3 2.8-3.8 4.9-1 5 3.5 5.7 7.3 6.3.7.1 3.1.2 2.9 1.2-.2 1.1-2.3 1.1-3 1.1-1.4.1-3.4 0-3.4-1.8zm14.6-12.4c0 1 .8 1.8 1.8 1.8s1.8-.8 1.8-1.9c0-1-.8-1.8-1.9-1.8-1 0-1.8.8-1.7 1.9m.3 0c0-.8.7-1.5 1.5-1.4h.1c.8 0 1.5.7 1.4 1.6-.1.8-.7 1.5-1.6 1.4s-1.4-.8-1.4-1.6m2.4 1l-.7-.9c.3 0 .7-.2.7-.6 0-.2-.1-.3-.2-.4-.2-.1-.3-.1-.5-.1h-.9v2h.3v-.9h.3l.6.9h.4zm-1.3-1.2v-.7h.5c.2 0 .5 0 .5.3s-.4.3-.7.3l-.3.1z"/></svg>