<svg id="Layer_1" data-name="Layer 1" xmlns="http://www.w3.org/2000/svg" xmlns:xlink="http://www.w3.org/1999/xlink" viewBox="0 0 186.4 82"><defs><symbol id="snapchat" data-name="snapchat" viewBox="0 0 250.49 59.37"><path d="M.73,44c0-4-.38-8.53-.72-12a1.45,1.45,0,0,1,1.22-1.58h.05a1.47,1.47,0,0,1,1.64,1.07,16.57,16.57,0,0,0,2.09,5A12,12,0,0,0,15.3,42.54c4.65,0,8.06-3.29,8.06-7.44,0-3.84-3.1-5.39-9.18-7.68-1.79-.75-3.65-1.43-5.45-2.23C6.25,24,.42,21.28.42,13.72.42,5.29,7.18.33,15.79.33A19.39,19.39,0,0,1,23.84,2a1.46,1.46,0,0,0,1.83-.55l.49-.77a1.46,1.46,0,0,1,2.69.67Q29.26,6.65,30,11.9A1.46,1.46,0,1,1,27.32,13a1.86,1.86,0,0,1-.1-.39,18.68,18.68,0,0,0-2.07-4.29c-2-2.79-4.77-4.71-8.18-4.71a6.85,6.85,0,0,0-7,6.5c0,3.35,3,4.77,4.27,5.39,2.67,1.31,5.46,2.17,8.25,3.29C27,20.54,33.08,23.2,33.08,31.38S26.64,46.19,16.41,46.19A18.65,18.65,0,0,1,6.1,43.37a1.44,1.44,0,0,0-2,.45v0l-.55.9a1.49,1.49,0,0,1-1.13.7H2.3A1.43,1.43,0,0,1,.74,44.13s0-.07,0-.1m33.72-.36a1.25,1.25,0,0,1,1-1.24c.94-.16,2.07-.56,2.24-1.75.19-1.43.19-5.15.19-6.08,0-2.17-.06-5.7-.06-7.87,0-3.11-1-4-2.51-4.38a1.23,1.23,0,0,1-.9-1.2V21a1.25,1.25,0,0,1,1-1.24,80.45,80.45,0,0,0,10.2-2.71,1.27,1.27,0,0,1,1.6.78v0c.06.16.1.32.15.48a1.24,1.24,0,0,0,1.55.86,1.2,1.2,0,0,0,.31-.13,14.4,14.4,0,0,1,7.82-2.36,11.46,11.46,0,0,1,6.63,2c3,2.09,3.53,5.29,3.78,8.68v5.45c0,.93-.12,5.76-.12,6.82,0,1.56.42,2.52,2.47,2.9a1.25,1.25,0,0,1,1,1.24A1.27,1.27,0,0,1,69.63,45h-.08c-1.76-.12-4.41-.19-8.77-.19-2.45,0-3.81.07-5.07.18a1.27,1.27,0,0,1-1.37-1.15v-.37a1.24,1.24,0,0,1,.93-1.21c1.81-.49,2-1.36,2-5.13l-.12-9.67c-.06-3-.19-6.39-4.22-6.39a6.76,6.76,0,0,0-4.22,1.56,1.27,1.27,0,0,0-.52,1.06c.1,3.1.1,11.92.1,14.67s.49,3.63,2,4a1.25,1.25,0,0,1,.91,1.21v.17a1.26,1.26,0,0,1-1.26,1.26h-.08c-2.1-.14-4.81-.22-9.88-.22-2,0-3.08.06-4.14.16a1.26,1.26,0,0,1-1.37-1.13v-.19Zm54-10.32a1.25,1.25,0,0,0-1.27-1.25,1.1,1.1,0,0,0-.31,0c-2.09.53-4.87,1.75-4.87,5,0,1.67.87,3.53,3.23,3.53a4.45,4.45,0,0,0,2.67-.86,1.29,1.29,0,0,0,.55-1Zm14.32,7.17a1.27,1.27,0,0,1,.2,1.77l-.08.09c-3,3-5.94,3.63-7.56,3.63a8,8,0,0,1-4.65-1.55,7.13,7.13,0,0,1-1.15-1.18A1.23,1.23,0,0,0,87.84,43a17.7,17.7,0,0,1-9.14,3.08c-5.7,0-7.06-3.84-7.06-6.13,0-7.09,10.89-10,15.83-10.93a1.25,1.25,0,0,0,1-1.23,24.37,24.37,0,0,0-.25-5c-.74-2.17-3.22-2.17-3.53-2.17a3.44,3.44,0,0,0-3.53,2.6c-.19.81-.19,1.68-.37,2.48A3.72,3.72,0,0,1,77,28.66a3.5,3.5,0,0,1-3.72-3.54c0-4.58,8.49-8.3,16.17-8.3,5.33,0,9.24,1.73,9.24,6.88l-.13,13.82c-.06,1-.12,3.46,1.49,3.46a1.86,1.86,0,0,0,1.13-.48A1.25,1.25,0,0,1,102.75,40.52Z" style="fill:#221f20"/><path d="M120.19,41.79c4.59,0,6.26-6.38,6.26-10.59,0-4.47-1.86-10.42-6.44-10.42-4.16,0-4.16,4.28-4.16,5.58s.07,8.37.07,9.92C115.92,38.26,115.92,41.79,120.19,41.79ZM105.63,27.11c.11-4.74-.56-5.86-2.68-6.44a1.2,1.2,0,0,1-.86-1.16V19.2a1.19,1.19,0,0,1,1-1.18,74,74,0,0,0,10.79-2.18,1.18,1.18,0,0,1,1.45.82s0,.05,0,.08c.06.29.13.64.21,1.08a1.18,1.18,0,0,0,1.37,1,1.08,1.08,0,0,0,.42-.16,13.87,13.87,0,0,1,7.87-2.37c7.5,0,12.15,6.45,12.15,13.26,0,9.36-6.63,15.87-14.37,15.87a11.07,11.07,0,0,1-5.31-1.25,1.18,1.18,0,0,0-1.61.47,1.13,1.13,0,0,0-.15.57v7.15c0,2.4.15,4.24,2.71,4.68a1.18,1.18,0,0,1,1,1.17,1.21,1.21,0,0,1-1.19,1.19h0c-3.07-.08-6.13-.13-9.2-.15-2.33,0-3.83,0-5.82.13a1.19,1.19,0,0,1-1.24-1.13V58a1.19,1.19,0,0,1,1-1.19c2.3-.39,2.5-1.66,2.5-3.43.06-1.18.06-4.83.06-6.2ZM169.85,45c-2.51-.19-4.16-.19-10.75-.19-3.61,0-5,0-7.16.19a1.41,1.41,0,0,1-.31-2.8c3.48-.49,3.63-1.75,3.63-9.6V12.91c-.07-4.71-.12-6.13-.56-7-.47-1.1-1.2-1.36-3.1-1.67a1.42,1.42,0,0,1-1.18-1.39,1.42,1.42,0,0,1,1.45-1.48q5.24.13,10.45.14c3.5,0,5.74-.08,7.66-.14a1.41,1.41,0,1,1,.23,2.81c-3.67.46-3.67,1.57-3.67,9.79l.06,19.21c.12,6.51.19,6.88.93,7.87a3.94,3.94,0,0,0,2.63,1.13,1.4,1.4,0,0,1,1.21,1.39A1.42,1.42,0,0,1,170,45Zm2-1.35a1.25,1.25,0,0,1,1.05-1.24c.93-.16,2.07-.56,2.24-1.75.18-1.43.18-5.15.18-6.08,0-2.17-.06-5.7-.06-7.87,0-3.11-1-4-2.51-4.38a1.25,1.25,0,0,1-.9-1.2V21a1.25,1.25,0,0,1,1.05-1.24,80,80,0,0,0,10.2-2.71,1.26,1.26,0,0,1,1.6.78v0c0,.16.1.32.14.48a1.26,1.26,0,0,0,1.56.86,1,1,0,0,0,.3-.13,14.45,14.45,0,0,1,7.82-2.36,11.49,11.49,0,0,1,6.64,2c3,2.09,3.52,5.29,3.77,8.68a.41.41,0,0,1,0,.11v5.34c0,.93-.13,5.76-.13,6.82,0,1.56.43,2.52,2.48,2.9a1.25,1.25,0,0,1,1,1.24A1.27,1.27,0,0,1,207,45h-.09c-1.75-.12-4.41-.19-8.76-.19-2.46,0-3.81.07-5.07.18a1.26,1.26,0,0,1-1.37-1.15s0-.07,0-.11v-.26a1.25,1.25,0,0,1,.93-1.21c1.82-.49,2-1.36,2-5.13l-.13-9.67c-.06-3-.18-6.39-4.21-6.39a6.77,6.77,0,0,0-4.23,1.56,1.29,1.29,0,0,0-.52,1.06c.1,3.1.1,11.92.1,14.67s.49,3.63,2,4a1.25,1.25,0,0,1,.91,1.21v.17a1.27,1.27,0,0,1-1.26,1.26h-.08c-2.11-.14-4.81-.22-9.88-.22a41.39,41.39,0,0,0-4.14.16,1.25,1.25,0,0,1-1.37-1.13.49.49,0,0,1,0-.12Zm64.47-5.39a1.57,1.57,0,0,1,.21,2.38A18.47,18.47,0,0,1,223.65,46c-8.86,0-15.37-6.14-15.37-14.57,0-8.86,7.56-14.56,16.8-14.56,6.07,0,11.84,2.66,11.84,7.13a4,4,0,0,1-3.91,3.9,4.15,4.15,0,0,1-2.73-1.11c-.55-.5-.68-.81-1.86-3.47-.55-1.18-1.79-3.29-3.71-3.29-3.6,0-4.59,6.14-4.59,9.17,0,7,4,11.72,8.3,11.72a8.86,8.86,0,0,0,5.91-2.55,1.57,1.57,0,0,1,2-.1m8.56-3.43a5.61,5.61,0,1,1,.06,11.22,5.61,5.61,0,0,1-.06-11.22" style="fill:#221f20"/></symbol></defs><title>snap inc</title><use width="250.49" height="59.37" transform="translate(42 29) scale(0.41 0.4)" xlink:href="#snapchat"/></svg>