<?xml version="1.0" encoding="utf-8"?>
<!-- Generator: Adobe Illustrator 21.0.0, SVG Export Plug-In . SVG Version: 6.00 Build 0)  -->
<svg version="1.1" id="Layer_1" xmlns="http://www.w3.org/2000/svg" xmlns:xlink="http://www.w3.org/1999/xlink" x="0px" y="0px"
	 viewBox="0 0 473.4 220.6" style="enable-background:new 0 0 473.4 220.6;" xml:space="preserve">
<style type="text/css">
	.st0{fill:#1DD155;}
</style>
<title>spotify_cmyk</title>
<path class="st0" d="M95,49.6c-33.5,0-60.7,27.2-60.7,60.7S61.5,171,95,171s60.7-27.2,60.7-60.7S128.5,49.6,95,49.6
	C95,49.6,95,49.6,95,49.6z M122.9,137.2c-1.1,1.8-3.4,2.3-5.2,1.3c0,0,0,0,0,0c-14.2-8.7-32.2-10.7-53.3-5.9c-2,0.5-4.1-0.7-4.6-2.8
	c-0.5-2,0.7-4.1,2.8-4.6c0,0,0.1,0,0.1,0c23.1-5.3,43-3,58.9,6.8C123.4,133,124,135.4,122.9,137.2
	C122.9,137.1,122.9,137.2,122.9,137.2z M130.3,120.6c-1.4,2.2-4.3,2.9-6.5,1.6c0,0,0,0,0,0c-16.3-10-41.2-12.9-60.4-7.1
	c-2.5,0.8-5.2-0.6-6-3c-0.8-2.5,0.6-5.2,3-6c0.1,0,0.1,0,0.2,0c22-6.7,49.4-3.4,68.2,8.1C131,115.5,131.6,118.4,130.3,120.6z
	 M130.9,103.4c-19.6-11.6-51.8-12.7-70.5-7c-3,1-6.2-0.5-7.2-3.5c-1-3,0.5-6.2,3.5-7.2c0.1-0.1,0.3-0.1,0.4-0.1
	c21.4-6.5,57.1-5.2,79.6,8.1c2.6,1.7,3.4,5.2,1.6,7.9C136.7,104,133.5,104.8,130.9,103.4L130.9,103.4z"/>
<path class="st0" d="M199.4,105.6c-10.5-2.5-12.3-4.2-12.3-7.9c0-3.5,3.3-5.8,8.1-5.8s9.4,1.8,14.3,5.4c0.1,0.1,0.3,0.2,0.5,0.1
	c0.2,0,0.3-0.1,0.4-0.3l5.1-7.2c0.2-0.3,0.2-0.7-0.1-0.9c-5.7-4.6-12.8-7.1-20.1-7c-11.3,0-19.2,6.8-19.2,16.5
	c0,10.4,6.8,14.1,18.6,17c10,2.3,11.7,4.2,11.7,7.7c0,3.8-3.4,6.2-8.9,6.2c-6.1,0-11.1-2.1-16.7-6.9c-0.1-0.1-0.3-0.2-0.5-0.2
	c-0.2,0-0.4,0.1-0.5,0.2l-5.7,6.8c-0.3,0.3-0.2,0.7,0,1c0,0,0,0,0,0c6.3,5.7,14.6,8.9,23.1,8.8c12.2,0,20.1-6.7,20.1-17
	C217.4,113.6,212.2,108.8,199.4,105.6z"/>
<path class="st0" d="M245,95.3c-5.1-0.1-10,2.3-13.2,6.3v-4.8c0-0.4-0.3-0.7-0.7-0.7l0,0h-9.4c-0.4,0-0.7,0.3-0.7,0.7l0,0v53.3
	c0,0.4,0.3,0.7,0.7,0.7l0,0h9.4c0.4,0,0.7-0.3,0.7-0.7c0,0,0,0,0,0v-16.8c3.3,3.9,8.1,6.1,13.2,6c9.8,0,19.8-7.6,19.8-22
	S254.8,95.3,245,95.3z M253.9,117.3c0,7.4-4.5,12.5-11,12.5s-11.3-5.4-11.3-12.5s4.8-12.5,11.3-12.5S253.9,110.1,253.9,117.3
	L253.9,117.3z"/>
<path class="st0" d="M290.2,95.3c-12.6,0-22.5,9.7-22.5,22.2s9.8,21.9,22.4,21.9s22.6-9.7,22.6-22.1S302.8,95.3,290.2,95.3z
	 M290.2,129.9c-6.7,0-11.8-5.4-11.8-12.6s4.9-12.4,11.6-12.4s11.9,5.4,11.9,12.6S297,129.9,290.2,129.9z"/>
<path class="st0" d="M339.7,96.2h-10.3V85.6c0-0.4-0.3-0.7-0.7-0.7l0,0h-9.4c-0.4,0-0.7,0.3-0.7,0.7l0,0v10.6h-4.5
	c-0.4,0-0.7,0.3-0.7,0.7v8.1c0,0.4,0.3,0.7,0.7,0.7h4.5v20.9c0,8.4,4.2,12.7,12.5,12.7c3.1,0.1,6.1-0.7,8.8-2.2
	c0.2-0.1,0.4-0.4,0.4-0.6v-7.7c0-0.4-0.3-0.7-0.7-0.7c-0.1,0-0.2,0-0.3,0.1c-1.7,0.9-3.6,1.3-5.5,1.3c-3,0-4.4-1.4-4.4-4.4v-19.4
	h10.3c0.4,0,0.7-0.3,0.7-0.7v-8.1C340.4,96.5,340.1,96.2,339.7,96.2z"/>
<path class="st0" d="M375.7,96.2v-1.3c0-3.8,1.5-5.5,4.7-5.5c1.8,0,3.6,0.4,5.3,1c0.4,0.1,0.8-0.1,0.9-0.4c0-0.1,0-0.1,0-0.2v-7.9
	c0-0.3-0.2-0.6-0.5-0.7c-2.5-0.8-5.2-1.1-7.8-1.1c-8.7,0-13.2,4.9-13.2,14.1v2h-4.5c-0.4,0-0.7,0.3-0.7,0.7l0,0v8.1
	c0,0.4,0.3,0.7,0.7,0.7l0,0h4.5v32.2c0,0.4,0.3,0.7,0.7,0.7h9.4c0.4,0,0.7-0.3,0.7-0.7c0,0,0,0,0,0v-32.2h8.8l13.4,32.2
	c-1.5,3.4-3,4-5.1,4c-1.8,0-3.6-0.6-5.2-1.5c-0.2-0.1-0.4-0.1-0.5,0c-0.2,0.1-0.3,0.2-0.4,0.4l-3.2,7c-0.2,0.3,0,0.7,0.3,0.9
	c3,1.7,6.5,2.6,10,2.6c6.9,0,10.8-3.2,14.1-11.9l16.3-42.1c0.1-0.4,0-0.8-0.4-0.9c-0.1,0-0.2,0-0.2,0h-9.8c-0.3,0-0.6,0.2-0.6,0.5
	l-9.9,28.6l-11-28.6c-0.1-0.3-0.4-0.4-0.6-0.4L375.7,96.2z"/>
<path class="st0" d="M345.5,96.2h9.4c0.4,0,0.7,0.3,0.7,0.7v40.9c0,0.4-0.3,0.7-0.7,0.7h-9.4c-0.4,0-0.7-0.3-0.7-0.7V96.9
	C344.8,96.5,345.1,96.2,345.5,96.2z"/>
<circle class="st0" cx="350.2" cy="84.3" r="6.7"/>
<path class="st0" d="M432.4,109.3c-3.7,0-6.6-3-6.6-6.6c0-3.7,3-6.6,6.6-6.6c3.6,0,6.6,3,6.6,6.6c0,3.6-2.9,6.6-6.5,6.6
	C432.5,109.3,432.4,109.3,432.4,109.3z M432.4,96.8c-3.3,0-6,2.6-6.1,5.9c0,3.3,2.6,6,5.9,6.1c3.3,0,6-2.6,6.1-5.9c0,0,0-0.1,0-0.1
	C438.4,99.4,435.7,96.8,432.4,96.8C432.5,96.8,432.4,96.8,432.4,96.8L432.4,96.8z M433.9,103.4l1.9,2.6h-1.6l-1.6-2.4h-1.5v2.4h-1.3
	v-7h3.1c1.6,0,2.7,0.8,2.7,2.2C435.5,102.3,434.9,103.1,433.9,103.4L433.9,103.4z M432.7,100.2H431v2.2h1.7c0.9,0,1.4-0.4,1.4-1.1
	C434.1,100.7,433.6,100.2,432.7,100.2L432.7,100.2z"/>
</svg>
