<svg id="Layer_1" data-name="Layer 1" xmlns="http://www.w3.org/2000/svg" width="186.4" height="82" viewBox="0 0 186.4 82"><title>stripe</title><g id="Stripe"><path d="M138.67,41.62c0-6.46-3.13-11.56-9.12-11.56s-9.65,5.1-9.65,11.53c0,7.6,4.3,11.45,10.45,11.45a14.16,14.16,0,0,0,7-1.63V46.32a13.3,13.3,0,0,1-6.2,1.4c-2.46,0-4.62-.87-4.91-3.83h12.35C138.61,43.55,138.67,42.23,138.67,41.62Zm-12.49-2.38c0-2.85,1.75-4,3.33-4s3.19,1.2,3.19,4Z" fill="#6772e5" fill-rule="evenodd"/><path d="M110.14,30.06a7.06,7.06,0,0,0-4.94,2l-.33-1.56H99.32V59.92l6.31-1.34V51.45A7.12,7.12,0,0,0,110.11,53c4.51,0,8.64-3.63,8.64-11.65C118.75,34.05,114.57,30.06,110.14,30.06Zm-1.5,17.41a3.79,3.79,0,0,1-3-1.2l0-9.37a3.83,3.83,0,0,1,3-1.25c2.3,0,3.89,2.58,3.89,5.88S111,47.47,108.64,47.47Z" fill="#6772e5" fill-rule="evenodd"/><polygon points="90.62 28.56 96.96 27.21 96.96 22.07 90.62 23.42 90.62 28.56" fill="#6772e5" fill-rule="evenodd"/><rect x="90.62" y="30.48" width="6.33" height="22.11" fill="#6772e5"/><path d="M83.84,32.34l-.4-1.86H78V52.59h6.3v-15a4.48,4.48,0,0,1,4.81-1.32v-5.8A4.3,4.3,0,0,0,83.84,32.34Z" fill="#6772e5" fill-rule="evenodd"/><path d="M71.19,25,65,26.31l0,20.24A6.35,6.35,0,0,0,71.56,53,9.75,9.75,0,0,0,76,52.21V47.07c-.8.32-4.78,1.48-4.78-2.24v-9H76V30.48H71.2Z" fill="#6772e5" fill-rule="evenodd"/><path d="M54.11,36.9c0-1,.82-1.37,2.14-1.37a14.12,14.12,0,0,1,6.28,1.63V31.21a16.74,16.74,0,0,0-6.27-1.15c-5.12,0-8.53,2.67-8.53,7.14,0,7,9.59,5.85,9.59,8.86,0,1.16-1,1.54-2.42,1.54a15.9,15.9,0,0,1-6.9-2v6A17.46,17.46,0,0,0,54.9,53c5.24,0,8.85-2.59,8.85-7.13C63.75,38.39,54.11,39.74,54.11,36.9Z" fill="#6772e5" fill-rule="evenodd"/></g></svg>