<svg id="Layer_1" data-name="Layer 1" xmlns="http://www.w3.org/2000/svg" viewBox="0 0 186.4 82"><title>surveyMonkey</title><path d="M45.41,48.44l1.36-1.62a5.87,5.87,0,0,0,4,1.67c1.4,0,2.28-.64,2.28-1.62v0c0-.92-.51-1.42-2.9-2-2.74-.66-4.29-1.47-4.29-3.84v0c0-2.2,1.83-3.73,4.39-3.73A7.12,7.12,0,0,1,55,38.87L53.75,40.6a5.83,5.83,0,0,0-3.49-1.32c-1.32,0-2.09.68-2.09,1.52v0c0,1,.59,1.43,3,2,2.71.66,4.13,1.65,4.13,3.76v0c0,2.4-1.89,3.84-4.59,3.84A7.94,7.94,0,0,1,45.41,48.44Z" style="fill:#00bf6f"/><path d="M56.84,46.79V40.62h2.22v5.51c0,1.5.76,2.37,2.08,2.37a2.14,2.14,0,0,0,2.18-2.41V40.62h2.23v9.69H63.32v-1a3.8,3.8,0,0,1-3,1.2c-2.18,0-3.45-1.49-3.45-3.73Z" style="fill:#00bf6f"/><path d="M67.92,40.62h2.22v1.61c.61-1.45,1.73-1.87,3.44-1.79v2h-.13c-2,0-3.3,1.3-3.3,4.21v3.68H67.93Z" style="fill:#00bf6f"/><path d="M74.37,40.62h2.39l2.61,6.74L82,40.62h2.33l-4,9.77h-2Z" style="fill:#00bf6f"/><path d="M84.34,45.5v0a4.82,4.82,0,0,1,4.74-5.05c3.08,0,4.65,2.43,4.65,5.22,0,.2,0,.4,0,.62H86.56a2.71,2.71,0,0,0,2.79,2.46A3.55,3.55,0,0,0,92,47.56l1.28,1.14a5.06,5.06,0,0,1-8.94-3.2Zm7.18-.72a2.52,2.52,0,0,0-2.46-2.55,2.62,2.62,0,0,0-2.51,2.55Z" style="fill:#00bf6f"/><path d="M105.5,37.46h2.41L111.82,44l3.91-6.55h2.39V50.31h-2.24V41.09l-4.06,6.54h-.07l-4-6.5v9.18H105.5Z" style="fill:#00bf6f"/><path d="M119.73,45.52v0a5.17,5.17,0,1,1,10.34,0v0A5.06,5.06,0,0,1,125,50.53h-.11a5,5,0,0,1-5.14-4.88v-.13Zm8.12,0v0a3,3,0,0,0-3-3.12A3,3,0,0,0,122,45.45v0a3,3,0,0,0,3,3.13A2.93,2.93,0,0,0,127.85,45.52Z" style="fill:#00bf6f"/><path d="M142.5,36.91h2.22v8l4-4.29h2.7l-3.86,4,4,5.75H149l-2.92-4.19-1.36,1.42v2.77h-2.23Z" style="fill:#00bf6f"/><path d="M151.39,45.5v0a4.82,4.82,0,0,1,4.74-5.05c3.08,0,4.65,2.43,4.65,5.22,0,.2,0,.4,0,.62h-7.13a2.71,2.71,0,0,0,2.8,2.46,3.54,3.54,0,0,0,2.64-1.15l1.28,1.14a5.06,5.06,0,0,1-8.94-3.2Zm7.18-.72a2.51,2.51,0,0,0-2.46-2.55,2.62,2.62,0,0,0-2.51,2.55Z" style="fill:#00bf6f"/><path d="M101.53,40.62l-2.68,6.61-2.67-6.61H93.87l3.82,9.47-2,4.91H98l5.83-14.38Z" style="fill:#00bf6f"/><path d="M173.36,40.78a1.41,1.41,0,0,0-.66.17,1.33,1.33,0,0,0-.5.5,1.48,1.48,0,0,0-.18.66,1.31,1.31,0,0,0,.18.66,1.33,1.33,0,0,0,1.81.49,1.38,1.38,0,0,0,.5-.49,1.35,1.35,0,0,0,0-1.32,1.27,1.27,0,0,0-.5-.5,1.38,1.38,0,0,0-.66-.17m0-.26a1.55,1.55,0,0,1,.78.21,1.46,1.46,0,0,1,.6.58,1.61,1.61,0,0,1,0,1.59,1.55,1.55,0,0,1-.59.6,1.72,1.72,0,0,1-.8.2,1.68,1.68,0,0,1-.79-.2,1.48,1.48,0,0,1-.59-.6,1.55,1.55,0,0,1-.21-.78,1.57,1.57,0,0,1,.21-.8,1.48,1.48,0,0,1,.6-.59,1.66,1.66,0,0,1,.78-.21" style="fill:#00bf6f"/><path d="M172.69,41.23h.79a.71.71,0,0,1,.52.18.56.56,0,0,1-.28.93l.49.66h-.38l-.44-.63H173V43h-.33Zm.77.87c.22,0,.37-.12.37-.29s-.14-.3-.37-.3H173v.59Z" style="fill:#00bf6f"/><path d="M168.58,40.62l-2.68,6.61-2.67-6.61h-2.31l3.82,9.47-2,4.91h2.32l5.83-14.38Z" style="fill:#00bf6f"/><path d="M140.24,44.14v6.17H138V44.8c0-1.5-.75-2.37-2.07-2.37a2.14,2.14,0,0,0-2.18,2.41v5.47h-2.24V40.62h2.22v1a3.77,3.77,0,0,1,3-1.2C139,40.41,140.24,41.88,140.24,44.14Z" style="fill:#00bf6f"/><path d="M36.75,43a3.57,3.57,0,0,0-.92.12,11.88,11.88,0,0,0-9.41-8.77l-.6-.09a3.9,3.9,0,0,1,1.74-3.59L27.3,30s-3.22,1-3.59,3.75c-.17-.75-1.65-1.68-2.41-1.86l-.37.6a2.58,2.58,0,0,1,1.23,1.85,11.87,11.87,0,0,0-9.41,8.76,3.86,3.86,0,1,0,.48,7.33,12.15,12.15,0,0,0,1.25,2.33l3.2-2.16,0,0a7.81,7.81,0,0,1-1.45-4.3,5.67,5.67,0,0,1,1.45-4.52c2.31-2,4.83-1.08,6.41.81h.43c1.58-1.89,4.1-2.79,6.41-.81a5.71,5.71,0,0,1,1.46,4.52,8,8,0,0,1-1.45,4.3l0,0,3.2,2.16a12.15,12.15,0,0,0,1.25-2.33A3.85,3.85,0,1,0,36.75,43Zm-25,5a1.14,1.14,0,0,1,0-2.27,1.13,1.13,0,0,1,.64.2,17.73,17.73,0,0,0,.12,1.78A1.13,1.13,0,0,1,11.75,48Zm25.07,0a1.13,1.13,0,0,1-.76-.29,17.75,17.75,0,0,0,.13-1.78A1.13,1.13,0,1,1,36.82,48Z" style="fill:#00bf6f"/></svg>