<svg xmlns="http://www.w3.org/2000/svg" viewBox="0 0 288 288"><path fill="#34E0A1" d="M0 0h288v288H0V0z"/><path d="M228.9 116.8l16.6-18h-36.8c-39-26.5-90.2-26.5-129.2 0H42.7l16.6 18c-20.7 18.8-22.3 50.9-3.4 71.6s50.9 22.3 71.6 3.4l.4-.4 16.3 17.7 16.3-17.7c20.6 18.9 52.6 17.6 71.6-3.1 18.7-20.5 17.3-52.6-3.2-71.5zM93.4 188.5c-18.9 0-34.3-15.3-34.3-34.2S74.4 120 93.3 120s34.3 15.3 34.3 34.2-15.4 34.3-34.2 34.3zm50.6-35.3c0-22.6-16.4-41.9-38-50.2 24.4-10.1 51.8-10.1 76.1 0-21.7 8.3-38.1 27.7-38.1 50.2zm50.6 35.3c-18.9 0-34.3-15.4-34.3-34.3s15.4-34.3 34.3-34.3 34.3 15.4 34.3 34.3c0 19-15.3 34.3-34.3 34.3zm0-52.2c-9.9 0-18 8.1-18 18s8.1 18 18 18 18-8.1 18-18-8-18-18-18zm-83.3 18c0 9.9-8.1 18-18 18s-18-8.1-18-18 8.1-18 18-18c10-.1 18 8 18 18z"/></svg>