<svg id="d788c2a8-5405-4e33-b226-ae01a1bc35c9" data-name="Layer 1" xmlns="http://www.w3.org/2000/svg" xmlns:xlink="http://www.w3.org/1999/xlink" width="186.4" height="82" viewBox="0 0 186.4 82"><defs><symbol id="92553595-fec9-4724-89e6-ec133f0e5513" data-name="twitter" viewBox="0 0 141.82 116.17"><g id="0e26e193-3a7a-4fce-8248-23e2f90caf21" data-name="twitter"><path d="M0,103.1a59.5,59.5,0,0,0,42.29-12,4.77,4.77,0,0,0-2.07-.45A28.72,28.72,0,0,1,24,83.69,29.19,29.19,0,0,1,16.17,73c-.3-.68-.52-1.39-.85-2.28a9.39,9.39,0,0,1,1.23,0,28.76,28.76,0,0,0,10.34-.36,6.24,6.24,0,0,0,.61-.15,1.38,1.38,0,0,0,.28-.2,2.28,2.28,0,0,0-1.2-.49,28.28,28.28,0,0,1-9.14-4.31A29,29,0,0,1,5.31,45.72,35,35,0,0,1,5,42.23a8.31,8.31,0,0,1,.12-1.17,27.84,27.84,0,0,0,12.43,3.27C8.92,37.51,4.64,28.75,5.28,17.71c.22-3.77,2.13-9.89,3.94-12,.35.35.69.68,1,1,1.82,2,3.56,4,5.48,5.85A82.81,82.81,0,0,0,44.88,31a81.75,81.75,0,0,0,21.46,4.79c.83.07,1.66.12,2.5.16a2,2,0,0,0,.55-.17c-.15-1.25-.29-2.49-.43-3.72a26.92,26.92,0,0,1,2.12-14C75.08,8.88,82,3,91.79.77c9-2,17.15,0,24.44,5.58a18.26,18.26,0,0,1,2.25,2,2.21,2.21,0,0,0,2.36.69,58.47,58.47,0,0,0,11.85-4c1.36-.64,2.69-1.35,4-2,.32-.16.65-.29,1.24-.55a28,28,0,0,1-4.69,8.78,32.79,32.79,0,0,1-7.2,6.66c.48.47.94.27,1.35.21a58.16,58.16,0,0,0,12.67-3.48l1.74-.69c-.31.52-.46.81-.64,1.06A58,58,0,0,1,128.6,28a2.7,2.7,0,0,0-1.2,2.53,83.47,83.47,0,0,1-9.63,41.17,82.43,82.43,0,0,1-18.1,23.68,78.48,78.48,0,0,1-38,19A112.61,112.61,0,0,1,49.15,116c-2.63.23-5.25.17-7.87.16a59.35,59.35,0,0,1-6.35-.56,83,83,0,0,1-23.43-6.16A81.37,81.37,0,0,1,.6,103.79c-.21-.13-.4-.29-.6-.43Z" fill="#5fa7dc"/></g></symbol></defs><title>twitter</title><use width="141.82" height="116.17" transform="translate(64 17) scale(0.41 0.41)" xlink:href="#92553595-fec9-4724-89e6-ec133f0e5513"/></svg>