<svg id="Layer_1" data-name="Layer 1" xmlns="http://www.w3.org/2000/svg" viewBox="0 0 186.4 82"><title>uber</title><path d="M56,45.43a7.49,7.49,0,0,0,1.52,2.48,6.35,6.35,0,0,0,2.3,1.58,7.35,7.35,0,0,0,2.88.55,7.18,7.18,0,0,0,2.85-.57,7,7,0,0,0,2.31-1.6,7.18,7.18,0,0,0,1.54-2.47,8.77,8.77,0,0,0,.55-3.2V24h4.42V53.49H70V50.76a10.18,10.18,0,0,1-3.48,2.4,11,11,0,0,1-4.31.84,11.69,11.69,0,0,1-4.41-.82,10.42,10.42,0,0,1-3.54-2.34,11.27,11.27,0,0,1-2.36-3.64A12.62,12.62,0,0,1,51,42.46V24h4.42V42.2A9.24,9.24,0,0,0,56,45.43Z" style="fill:#010202"/><path d="M82,24V34.74a11.17,11.17,0,0,1,3.41-2.33,10.18,10.18,0,0,1,4.22-.87,11.12,11.12,0,0,1,4.42.89,11.13,11.13,0,0,1,6,6,11,11,0,0,1,.89,4.38,10.83,10.83,0,0,1-.89,4.36,11.25,11.25,0,0,1-6,6A11.11,11.11,0,0,1,89.6,54a10.5,10.5,0,0,1-4.24-.86,11.22,11.22,0,0,1-3.43-2.34v2.69H77.71V24Zm.48,21.7A7.47,7.47,0,0,0,84,48.06a7.7,7.7,0,0,0,2.36,1.6,7.24,7.24,0,0,0,2.91.59,7.16,7.16,0,0,0,2.87-.59,7.44,7.44,0,0,0,2.33-1.6,7.82,7.82,0,0,0,1.58-2.36,7.08,7.08,0,0,0,.59-2.91,7.24,7.24,0,0,0-.59-2.93,7.79,7.79,0,0,0-1.58-2.38,7.23,7.23,0,0,0-2.33-1.58,7.31,7.31,0,0,0-2.87-.57,7.23,7.23,0,0,0-2.86.57,7.36,7.36,0,0,0-2.36,1.58,7.7,7.7,0,0,0-1.61,2.38,7.64,7.64,0,0,0,0,5.84Z" style="fill:#010202"/><path d="M103.29,38.45a11.35,11.35,0,0,1,2.32-3.56,10.81,10.81,0,0,1,7.88-3.31,10.88,10.88,0,0,1,4.29.85,10.21,10.21,0,0,1,3.42,2.34,10.62,10.62,0,0,1,2.23,3.53,12.22,12.22,0,0,1,.8,4.45v1.39H106.74a7.19,7.19,0,0,0,.85,2.42,7.26,7.26,0,0,0,3.73,3.23,7,7,0,0,0,2.54.46,7.37,7.37,0,0,0,6.2-3.16l3.07,2.28A11.22,11.22,0,0,1,113.86,54a11.86,11.86,0,0,1-4.48-.84,11.16,11.16,0,0,1-3.63-2.36,11.4,11.4,0,0,1-2.42-3.56,11.56,11.56,0,0,1,0-8.75Zm5.92-1.66a7.12,7.12,0,0,0-2.38,4h13.1a6.91,6.91,0,0,0-2.34-4,6.6,6.6,0,0,0-8.38,0Z" style="fill:#010202"/><path d="M132.19,37.27a5.72,5.72,0,0,0-1.35,4V53.49h-4.25V32h4.21v2.65a6,6,0,0,1,2.09-2.06,5.83,5.83,0,0,1,3.05-.76h1.48v4h-1.77A4.48,4.48,0,0,0,132.19,37.27Z" style="fill:#010202"/></svg>