<svg xmlns="http://www.w3.org/2000/svg" viewBox="0 0 288 288"><path fill="#7DC146" d="M0 0h288v288H0V0z"/><path fill="#FFF" d="M194.7 103.7c-19.7 0-34.9 12.6-41 33.3-9.4-14-16.6-30.8-20.8-45h-21.2v54.3c0 10.9-8.8 19.7-19.7 19.7s-19.7-8.8-19.7-19.7V92.1h-21v54.3c.3 22.6 18.9 40.6 41.5 40.1 22-.3 39.8-18.1 40.1-40.1v-9.1c4.2 8.7 9.3 17 15.3 24.6L135.3 222h21.6l9.4-43.6c8.5 5.5 18.4 8.5 28.5 8.5 23.2 0 42-18.7 42-41.6s-18.9-41.6-42.1-41.6zm0 62.1c-8.5 0-16.5-3.6-23.8-9.3l1.8-8.2.1-.3c1.6-8.7 6.6-23.3 21.9-23.3 11.4 0 20.6 9.2 20.6 20.6.1 11.3-9.2 20.5-20.6 20.5z"/></svg>