<svg xmlns="http://www.w3.org/2000/svg" viewBox="0 0 288 288"><path fill="#182E5A" d="M0 0h288v288H0V0z"/><path fill="#8EC089" d="M145.1 179l4.2-8.8-14.2-72.4c-4-20.4.8-29.3 16.8-32.4v-.3h-14.8c-4.3 2.1-13.4 8.6-8.3 32.8l16.3 81.1z"/><path fill="#E85F24" d="M136.8 196.5l4.2-8.8-18.8-90.5c-3.5-17.6-2-26.7 3.8-31.9V65h-10c-3.1 6.5-4 13.1-.5 30.5l21.3 101z"/><path fill="#245ABC" d="M90.6 65.1H80v.3c4.7 5.7 6.1 12.6 9.8 27.9l28 129.6h6.3L96 92.8c-3.9-16.6-4.6-21.2-5.4-27.7z"/><path fill="#1C4695" d="M128.4 214l4.2-8.6-23.3-110c-4.1-17.1-3.2-24.9-1.5-30.2h-9.1c-.1 6.9.2 12.7 3.5 27.3L128.4 214z"/><path fill="#318EEE" d="M69.6 65.1H58.4v.3c10.2 4 15.3 11.9 19.3 30 0 .2 27.6 127.5 27.6 127.5h6.3L83.8 94.4C79 72.4 74 68.3 69.6 65.1z"/><g><path fill="#E85F24" d="M173.9 121.8l.4.3c15.6-37 19.7-47.1 26.1-56.7v-.3h-12.6v.4c1.2 14.7-3.9 28.3-13.9 56.3z"/><path fill="#1C4695" d="M212.4 65.1c-13.2 7.7-21.1 22-37.6 57.3l.4.3c19-35.6 29.9-49.9 54.4-57.3v-.3h-17.2z"/><path fill="#8EC089" d="M173.1 121.3l.4.3c9.9-33 13.1-47.6 4.3-56.4h-12.5v.3c14 4.8 17 19 7.8 55.8z"/></g></svg>