<svg xmlns="http://www.w3.org/2000/svg" viewBox="0 0 288 288"><path fill="#006AFF" d="M0 0h288v288H0V0z"/><path fill="#FFF" d="M171.9 103.9c.6-.2 1.3.1 1.6.6 2.7 3.1 11.5 13.7 13.9 16.7.3.4.3 1-.1 1.3 0 .1-.1.1-.1.1-17.7 13.8-37.4 33.4-48.4 47.4-.2.3 0 .3.1.2 19.1-8.2 64-21.4 84.3-25v-25.6L144.1 57l-79.3 62.5v28c24.6-14.6 81.4-37.2 107.1-43.6z"/><path fill="#FFF" d="M107.5 211.5c-.6.4-1.3.2-1.7-.2l-14.7-17.6c-.4-.5-.4-.7.1-1.5 11.4-16.7 34.7-42.8 49.6-53.9.2-.2.2-.4-.1-.3-15.5 5.1-59.5 24-75.8 33.2V231h158.5v-57.5c-21.8 3.6-86.5 22.9-115.9 38z"/></svg>