<?xml version="1.0" standalone="no"?>
<!DOCTYPE svg PUBLIC "-//W3C//DTD SVG 1.1//EN" "http://www.w3.org/Graphics/SVG/1.1/DTD/svg11.dtd">
<svg xmlns="http://www.w3.org/2000/svg"><metadata>This SVG WebFont was generated by YouWorkForThem.
Copyright Â© 2019 by Andrew Bellamy. All rights reserved. </metadata><defs><font horiz-adv-x="857" id="ywftsvg"><font-face ascent="800" bbox="-880 -348 1389 978" cap-height="713" descent="-200" font-family="" font-stretch="normal" font-weight="500" panose-1="0 0 6 0 0 0 0 0 0 0" underline-position="0" underline-thickness="0" unicode-range="U+0020-1F6BC" units-per-em="1000" x-height="498"/><missing-glyph d="M411 472q58 0 90 -40t19 -98q-12 -58 -60.5 -98t-106.5 -40q-57 0 -89 40t-20 98q12 57 60.5 97.5t106.5 40.5zM747 274l30 -33q-53 -45 -112 -45q-57 0 -89 40t-20 98q12 57 60.5 97.5t106.5 40.5q59 0 94 -46l-44 -31q-19 30 -60 30q-37 0 -69 -27t-40 -64 q-8 -38 13 -64t58 -26q42 0 72 30zM363 244q37 0 70 26.5t40 63.5q8 37 -13.5 64t-58.5 27q-38 0 -69.5 -26.5t-39.5 -64.5t13 -64t58 -26zM47 310l10 48h151l-10 -48h-151z" horiz-adv-x="817"/><glyph d="M702 629q-74 19 -103 -4.5t-44 -98.5l-6 -28h125l-20 -91h-125l-86 -407h-98l87 407h-211l-86 -407h-98l87 407h-57l20 91h56l12 56q23 109 94 151.5t162 10.5l-18 -87q-74 19 -102.5 -4.5t-43.5 -98.5l-6 -28h210l12 56q23 109 94.5 151.5t162.5 10.5z" glyph-name="f_f.liga" horiz-adv-x="647" unicode="ff"/><glyph d="M573 407l-45 -216q-17 -81 8 -101.5t89 5.5l11 -86q-48 -23 -95 -23q-154 0 -116 178l51 243h-255l-86 -407h-98l87 407h-57l20 91h56l12 56q23 109 94 151.5t162 10.5l-18 -87q-74 19 -102.5 -4.5t-43.5 -98.5l-6 -28h255l36 173l107 42l-46 -215h125l-19 -91h-126z" glyph-name="f_t.liga" horiz-adv-x="713" unicode="ft"/><glyph d="M744 629q-74 19 -102.5 -4.5t-44.5 -98.5l-6 -28h125l-20 -91h-124l-87 -407h-97l86 407h-253l-45 -216q-17 -81 8 -101.5t89 5.5l11 -86q-48 -23 -95 -23q-154 0 -116 178l51 243h-57l20 91h57l36 173l107 42l-46 -215h253l12 56q23 109 94 151.5t162 10.5z" glyph-name="t_f.liga" horiz-adv-x="689" unicode="tf"/><glyph d="M411 472q58 0 90 -40t19 -98q-12 -58 -60.5 -98t-106.5 -40q-57 0 -89 40t-20 98q12 57 60.5 97.5t106.5 40.5zM747 274l30 -33q-53 -45 -112 -45q-57 0 -89 40t-20 98q12 57 60.5 97.5t106.5 40.5q59 0 94 -46l-44 -31q-19 30 -60 30q-37 0 -69 -27t-40 -64 q-8 -38 13 -64t58 -26q42 0 72 30zM363 244q37 0 70 26.5t40 63.5q8 37 -13.5 64t-58.5 27q-38 0 -69.5 -26.5t-39.5 -64.5t13 -64t58 -26zM47 310l10 48h151l-10 -48h-151z" glyph-name=".notdef" horiz-adv-x="817"/><glyph glyph-name="glyph1" horiz-adv-x="0"/><glyph glyph-name="glyph2" horiz-adv-x="333"/><glyph glyph-name="space" horiz-adv-x="276" unicode=" "/><glyph d="M219 713h99l-109 -511h-99zM64 51q5 26 28.5 45t49.5 19t40.5 -19t8.5 -45q-5 -27 -27.5 -45.5t-49.5 -18.5q-26 0 -40.5 19t-9.5 45z" glyph-name="exclam" horiz-adv-x="344" unicode="!"/><glyph d="M161 713h106l-67 -234h-74zM334 713h104l-65 -234h-73z" glyph-name="quotedbl" horiz-adv-x="405" unicode="&quot;"/><glyph d="M640 423h-119l-42 -125h117l-31 -86h-115l-71 -212h-92l71 212h-99l-71 -212h-91l71 212h-119l30 86h118l42 125h-115l27 85h116l69 205h92l-69 -205h99l69 205h91l-69 -205h119zM387 298l42 125h-99l-42 -125h99z" glyph-name="numbersign" horiz-adv-x="663" unicode="#"/><glyph d="M346 409q106 -29 146.5 -78.5t23.5 -128.5q-19 -88 -87 -143.5t-161 -68.5l-18 -88h-89l18 86q-132 13 -186 97l91 71q23 -32 64 -52t90 -20q57 0 107 29t62 84q11 54 -26.5 80.5t-123.5 49.5q-185 46 -155 192q17 78 81.5 131t150.5 67l19 87h89l-18 -84 q103 -11 168 -83l-85 -74q-59 64 -140 64q-57 0 -101 -29t-54 -74q-5 -25 3 -44t31 -32.5t43.5 -21t56.5 -17.5z" glyph-name="dollar" horiz-adv-x="558" unicode="$"/><glyph d="M234 398q-68 0 -105.5 47.5t-22.5 117.5q14 64 72 111t125 47q68 0 106 -47.5t24 -114.5t-72 -114t-127 -47zM128 0l503 713h88l-502 -713h-89zM252 477q33 0 62.5 24.5t36.5 59.5q7 33 -11.5 56.5t-52.5 23.5t-63 -23.5t-36 -55.5q-8 -36 10.5 -60.5t53.5 -24.5z M415 150q13 64 71 110.5t125 46.5q69 0 107 -46.5t23 -114.5q-14 -67 -72 -113.5t-128 -46.5q-68 0 -104.5 47.5t-21.5 116.5zM496 149q-7 -35 11.5 -60t52.5 -25t62.5 24.5t36.5 58.5q7 34 -12 58t-53 24q-32 0 -61.5 -24t-36.5 -56z" glyph-name="percent" horiz-adv-x="805" unicode="%"/><glyph d="M214 -13q-89 0 -138 59.5t-30 145.5q22 99 135 179q29 19 85 51q-25 49 -32.5 80t-0.5 64q14 68 70.5 113.5t126.5 45.5q56 0 92 -29t45 -80l-86 -37q-22 52 -71 52q-26 0 -48 -17.5t-28 -42.5q-4 -22 0.5 -35.5t30.5 -62.5l132 -232q35 30 94 89l62 -62 q-45 -52 -110 -106l91 -162h-128l-52 90q-137 -103 -240 -103zM234 85q64 0 175 83l-99 177q-62 -36 -79 -49q-40 -28 -59 -51t-25 -52q-10 -45 16 -76.5t71 -31.5z" glyph-name="ampersand" horiz-adv-x="749" unicode="&amp;"/><glyph d="M157 713h105l-66 -234h-73z" glyph-name="quotesingle" horiz-adv-x="249" unicode="'"/><glyph d="M89 -218q-25 85 -22 218t32 272q30 141 83.5 273.5t114.5 216.5l81 -40q-124 -199 -177 -450q-54 -253 -14 -450z" glyph-name="parenleft" horiz-adv-x="368" unicode="("/><glyph d="M77 -218l-80 40q123 201 176 450t14 450l99 40q25 -84 22 -217.5t-33 -272.5q-29 -139 -83 -272.5t-115 -217.5z" glyph-name="parenright" horiz-adv-x="368" unicode=")"/><glyph d="M233 561l109 108l-126 38l47 86l119 -48l23 139h92l-34 -139l139 48l11 -86l-143 -38l63 -108l-85 -55l-53 116l-101 -116z" glyph-name="asterisk" horiz-adv-x="637" unicode="*"/><glyph d="M307 306h-239l18 85h240l49 235h86l-49 -235h239l-18 -85h-240l-50 -236h-86z" glyph-name="plus" horiz-adv-x="680" unicode="+"/><glyph d="M97 118l80 -32l-173 -256l-60 26z" glyph-name="comma" horiz-adv-x="279" unicode=","/><glyph d="M34 302h233l-21 -93h-233z" glyph-name="hyphen" horiz-adv-x="281" unicode="-"/><glyph d="M33 51q5 26 28 45t49 19q27 0 41.5 -19t8.5 -45q-5 -27 -27.5 -45.5t-48.5 -18.5q-27 0 -42 18.5t-9 45.5z" glyph-name="period" horiz-adv-x="281" unicode="."/><glyph d="M11 0l503 713h100l-502 -713h-101z" glyph-name="slash" horiz-adv-x="583" unicode="/"/><glyph d="M57 358q34 155 127.5 259t209.5 104q117 0 167 -103.5t16 -261.5q-33 -154 -125.5 -262t-213.5 -108q-82 0 -131.5 53.5t-58.5 136t9 182.5zM259 83q71 0 130.5 77.5t84.5 193.5q27 115 0 193t-101 78q-72 0 -130.5 -76t-83.5 -193q-27 -118 -0.5 -195.5t100.5 -77.5z " glyph-name="zero" horiz-adv-x="592" unicode="0"/><glyph d="M255 523h-112l18 84q58 0 89.5 23t45.5 83h102l-152 -713h-102z" glyph-name="one" horiz-adv-x="392" unicode="1"/><glyph d="M309 311q83 77 116.5 118.5t41.5 78.5q11 50 -18 84.5t-81 34.5q-61 0 -96.5 -35t-62.5 -105l-94 23q79 212 272 212q95 0 147.5 -62.5t33.5 -153.5q-13 -59 -53.5 -111.5t-155.5 -157.5l-150 -140h271l-21 -97h-438l12 53z" glyph-name="two" horiz-adv-x="551" unicode="2"/><glyph d="M203 -12q-94 0 -141 50t-39 139l101 27q-2 -61 21 -90t80 -29q56 0 100 36t55 90q13 61 -20 87t-114 27l20 94q77 1 117.5 24.5t51.5 79.5q10 45 -14 74.5t-73 29.5q-48 0 -78 -25.5t-59 -85.5l-90 24q40 93 99 137.5t149 44.5q93 0 140 -55.5t29 -142.5 q-22 -98 -109 -151q75 -52 53 -166q-21 -95 -99.5 -157t-179.5 -62z" glyph-name="three" horiz-adv-x="528" unicode="3"/><glyph d="M287 0l24 112h-318l14 65l480 536h55l-107 -505h85l-21 -96h-85l-24 -112h-103zM144 208h188l58 275z" glyph-name="four" horiz-adv-x="579" unicode="4"/><glyph d="M84 182q36 -96 135 -96q68 0 122 44t69 115q14 63 -16 106.5t-113 43.5q-32 0 -57.5 -6t-37 -11.5t-30.5 -17.5l-46 44l149 309h345l-21 -98h-270l-70 -141q21 7 62 7q118 0 170.5 -66.5t31.5 -168.5q-23 -111 -113.5 -184t-201.5 -73q-149 0 -201 139z" glyph-name="five" horiz-adv-x="545" unicode="5"/><glyph d="M30 231q19 83 95 166l294 316h121l-225 -243q105 17 171.5 -54.5t42.5 -180.5q-21 -103 -109.5 -176t-191.5 -73t-161.5 72t-36.5 173zM133 232q-13 -62 21 -105.5t95 -43.5q59 0 111.5 43.5t65.5 103.5q14 63 -19.5 106.5t-94.5 43.5t-113.5 -43.5t-65.5 -104.5z" glyph-name="six" horiz-adv-x="571" unicode="6"/><glyph d="M504 615h-363l21 98h504l-13 -60l-567 -653h-117z" glyph-name="seven" horiz-adv-x="569" unicode="7"/><glyph d="M24 201q23 110 126 168q-62 55 -41 150q18 86 89.5 144t159.5 58t134 -58t28 -144q-9 -44 -37.5 -84t-69.5 -66q38 -26 52 -70t2 -97q-19 -91 -95 -153t-170 -62q-95 0 -146 61.5t-32 152.5zM293 413q44 0 81.5 31t46.5 74q9 45 -15 76t-68 31q-43 0 -81.5 -31t-47.5 -73 q-9 -46 15.5 -77t68.5 -31zM127 205q-11 -51 16 -86t77 -35q49 0 92 35t53 83q11 49 -16.5 84t-77.5 35q-49 0 -91.5 -34.5t-52.5 -81.5z" glyph-name="eight" horiz-adv-x="515" unicode="8"/><glyph d="M581 477q-16 -80 -94 -166l-289 -311h-123l221 238q-104 -17 -170.5 54.5t-43.5 180.5q22 103 110 176t192 73q103 0 161 -72t36 -173zM478 476q13 62 -20 105.5t-95 43.5q-59 0 -112 -43.5t-66 -103.5q-13 -63 20 -106.5t94 -43.5q62 0 114 43.5t65 104.5z" glyph-name="nine" horiz-adv-x="571" unicode="9"/><glyph d="M168 381q-28 0 -42.5 18.5t-8.5 46.5q5 26 28 44.5t49 18.5q27 0 42 -18.5t9 -44.5q-5 -27 -27.5 -46t-49.5 -19zM33 51q5 26 28 45t49 19q27 0 42 -19t9 -45q-5 -27 -28 -46t-49 -19q-27 0 -42 19t-9 46z" glyph-name="colon" horiz-adv-x="282" unicode=":"/><glyph d="M183 381q-27 0 -41.5 19.5t-8.5 45.5q5 26 28.5 45t49.5 19t41 -18.5t9 -45.5q-5 -26 -28 -45.5t-50 -19.5zM97 118l80 -32l-176 -268l-60 26z" glyph-name="semicolon" horiz-adv-x="279" unicode=";"/><glyph d="M557 161l-22 -106l-483 251l19 88l590 253l-23 -108l-453 -189z" glyph-name="less" horiz-adv-x="620" unicode="&lt;"/><glyph d="M146 493h581l-19 -86h-581zM107 306h581l-19 -86h-581z" glyph-name="equal" horiz-adv-x="773" unicode="="/><glyph d="M21 161l454 189l-373 189l23 108l482 -253l-19 -88l-589 -251z" glyph-name="greater" horiz-adv-x="620" unicode=">"/><glyph d="M209 202q16 64 42 103.5t83 84.5q8 7 24.5 22t21 19.5t15 15.5t13.5 16.5t9 16t9 21.5t6 25q14 98 -78 98q-55 0 -93.5 -41.5t-51.5 -115.5h-104q20 112 95.5 183.5t174.5 71.5q94 0 137.5 -55t23.5 -148q-10 -43 -31.5 -77.5t-44.5 -56.5t-77 -67q-32 -28 -47 -53 t-23 -63h-104zM217 -13q-26 0 -40.5 19t-9.5 45t28.5 45t49.5 19t40 -19t9 -45q-6 -27 -28 -45.5t-49 -18.5z" glyph-name="question" horiz-adv-x="540" unicode="?"/><glyph d="M424 -29q-176 0 -265.5 108t-53.5 276q33 155 167 262t297 107q95 0 166 -42t101.5 -116t10.5 -163q-29 -126 -117 -209q-71 -66 -128 -57q-46 7 -56 68q-39 -33 -70 -46t-70 -13q-79 0 -119 55t-22 140q19 90 90 150.5t157 60.5q74 0 108 -53l15 44h78l-81 -244 q-24 -74 7 -79q27 -4 67 46q45 56 61 132q23 110 -37 179t-179 69q-129 0 -233.5 -83.5t-130.5 -207.5q-30 -138 40 -222t212 -84q60 0 114 13t132 47l9 -74q-142 -64 -270 -64zM426 225q47 0 91 42.5t56 100.5q10 47 -9.5 76.5t-61.5 29.5q-51 0 -95 -39.5t-57 -95.5 q-10 -50 11.5 -82t64.5 -32z" glyph-name="at" horiz-adv-x="900" unicode="@"/><glyph d="M-43 0l464 713h47l154 -713h-113l-35 175h-293l-112 -175h-112zM245 272h209l-52 246z" glyph-name="A" horiz-adv-x="689" unicode="A"/><glyph d="M157 713h237q109 0 159.5 -52.5t30.5 -147.5q-17 -78 -83 -128q50 -23 71 -70t8 -108q-22 -98 -100 -152.5t-192 -54.5h-283zM339 409q120 0 143 103q11 55 -14 79t-83 24h-146l-43 -206h143zM303 97q151 0 175 111q13 59 -24 84.5t-115 25.5h-163l-47 -221h174z" glyph-name="B" horiz-adv-x="626" unicode="B"/><glyph d="M55 349q34 156 166 264.5t288 108.5q97 0 172 -50l-66 -93q-61 41 -137 41q-108 0 -199.5 -78t-115.5 -192q-24 -110 35.5 -186t167.5 -76q74 0 170 54l10 -104q-101 -52 -203 -52q-151 0 -235.5 106.5t-52.5 256.5z" glyph-name="C" horiz-adv-x="623" unicode="C"/><glyph d="M157 713h202q172 0 257 -98t51 -259t-161 -258.5t-300 -97.5h-201zM232 97q123 0 214 71t117 187q25 120 -35 190t-186 70h-102l-110 -518h102z" glyph-name="D" horiz-adv-x="682" unicode="D"/><glyph d="M157 713h484l-21 -98h-381l-39 -180h310l-21 -98h-309l-51 -240h381l-21 -97h-484z" glyph-name="E" horiz-adv-x="592" unicode="E"/><glyph d="M157 713h463l-21 -98h-359l-38 -180h304l-21 -98h-304l-72 -337h-104z" glyph-name="F" horiz-adv-x="553" unicode="F"/><glyph d="M50 353q33 153 165 261t286 108q118 0 199 -70l-75 -83q-58 55 -144 55q-112 0 -207 -79.5t-120 -192.5q-23 -109 37.5 -188.5t167.5 -79.5q64 0 125 30t100 82l20 99h-202l21 98h297l-50 -237q-58 -81 -145.5 -125.5t-187.5 -44.5q-151 0 -235 107.5t-52 259.5z" glyph-name="G" horiz-adv-x="722" unicode="G"/><glyph d="M157 713h103l-59 -280h356l59 280h104l-152 -713h-104l72 335h-356l-72 -335h-103z" glyph-name="H" horiz-adv-x="683" unicode="H"/><glyph d="M169 713h103l-152 -713h-103z" glyph-name="I" horiz-adv-x="247" unicode="I"/><glyph d="M115 213q-11 -71 7.5 -100t74.5 -29q38 0 64 13t42 43t24 56t18 75l95 442h104l-100 -471q-55 -256 -268 -256q-102 0 -143 56t-23 171h105z" glyph-name="J" horiz-adv-x="507" unicode="J"/><glyph d="M713 713l-343 -286l213 -427h-129l-178 349l-111 -93l-55 -256h-105l152 713h105l-67 -314l378 314h140z" glyph-name="K" horiz-adv-x="650" unicode="K"/><glyph d="M157 713h104l-131 -616h335l-21 -97h-439z" glyph-name="L" horiz-adv-x="511" unicode="L"/><glyph d="M-19 0l263 713h45l124 -522l353 522h45l-48 -713h-104l34 443l-299 -443h-43l-107 443l-159 -443h-104z" glyph-name="M" horiz-adv-x="854" unicode="M"/><glyph d="M5 0l152 713h52l312 -501l108 501h103l-152 -713h-54l-312 496l-105 -496h-104z" glyph-name="N" horiz-adv-x="695" unicode="N"/><glyph d="M51 358q21 96 89.5 180.5t165.5 134t195 49.5q151 0 237 -109t54 -259q-32 -152 -165 -260t-288 -108q-151 0 -236 108.5t-52 263.5zM361 84q112 0 207 79t119 191q24 113 -36.5 191.5t-171.5 78.5q-109 0 -204.5 -78.5t-119.5 -187.5q-24 -114 37 -194t169 -80z" glyph-name="O" horiz-adv-x="802" unicode="O"/><glyph d="M157 713h265q118 0 172.5 -53.5t32.5 -153.5q-20 -97 -94 -151t-180 -54h-180l-64 -301h-104zM369 397q132 0 157 110q12 56 -18 82t-97 26h-171l-47 -218h176z" glyph-name="P" horiz-adv-x="605" unicode="P"/><glyph d="M340 -14q-152 0 -237 107.5t-53 258.5q21 100 89 185.5t164 135t196 49.5q154 0 238.5 -109t51.5 -264q-14 -68 -48 -124.5t-96 -114.5l90 -120l-85 -68l-92 126q-107 -62 -218 -62zM361 84q112 0 207 79t119 191q24 113 -36.5 191.5t-171.5 78.5q-109 0 -204.5 -78.5 t-119.5 -187.5q-24 -114 37 -194t169 -80z" glyph-name="Q" horiz-adv-x="810" unicode="Q"/><glyph d="M157 713h267q121 0 175.5 -52t33.5 -154q-16 -77 -72 -130t-133 -67l156 -310h-128l-143 301h-140l-64 -301h-104zM370 395q67 0 108.5 29t53.5 83q12 58 -20.5 83t-98.5 25h-173l-46 -220h176z" glyph-name="R" horiz-adv-x="651" unicode="R"/><glyph d="M214 -14q-74 0 -133 27t-88 72l91 71q23 -32 64 -52t90 -20q57 0 107 29t62 84q11 54 -26.5 80.5t-123.5 49.5q-185 46 -155 192q20 91 102.5 147t184.5 56q127 0 203 -85l-85 -74q-59 64 -140 64q-57 0 -101 -29t-54 -74q-5 -25 3 -44t31 -32.5t43 -21t57 -17.5 q106 -29 146.5 -78.5t23.5 -128.5q-22 -101 -107 -158.5t-195 -57.5z" glyph-name="S" horiz-adv-x="558" unicode="S"/><glyph d="M305 615h-217l21 98h538l-21 -98h-217l-131 -615h-104z" glyph-name="T" horiz-adv-x="562" unicode="T"/><glyph d="M71 87q-35 58 -11 172l97 454h103l-96 -452q-18 -84 12.5 -128t125.5 -44q96 0 144 43.5t67 128.5l96 452h104l-97 -454q-23 -112 -85 -172q-97 -99 -249 -99q-157 0 -211 99z" glyph-name="U" horiz-adv-x="676" unicode="U"/><glyph d="M103 713h112l80 -498l291 498h111l-425 -713h-50z" glyph-name="V" horiz-adv-x="606" unicode="V"/><glyph d="M103 713h112l69 -490l296 490h44l77 -491l297 491h111l-434 -713h-47l-75 488l-296 -488h-47z" glyph-name="W" horiz-adv-x="1018" unicode="W"/><glyph d="M275 369l-152 344h119l114 -250l223 250h119l-304 -344l161 -369h-116l-124 272l-244 -272h-118z" glyph-name="X" horiz-adv-x="619" unicode="X"/><glyph d="M251 305l-148 408h119l104 -293l233 293h119l-325 -408l-65 -305h-102z" glyph-name="Y" horiz-adv-x="587" unicode="Y"/><glyph d="M485 615h-328l-15 98h513l-13 -61l-501 -555h368l15 -97h-549l14 65z" glyph-name="Z" horiz-adv-x="597" unicode="Z"/><glyph d="M215 -117l-19 -94h-200l205 962h200l-21 -94h-99l-165 -774h99z" glyph-name="bracketleft" horiz-adv-x="348" unicode="["/><glyph d="M462 0h-101l-198 713h100z" glyph-name="backslash" horiz-adv-x="583" unicode="\"/><glyph d="M-27 -117h99l165 774h-99l19 94h200l-205 -962h-200z" glyph-name="bracketright" horiz-adv-x="348" unicode="]"/><glyph d="M332 713h122l133 -366h-108l-106 278l-222 -278h-108z" glyph-name="asciicircum" horiz-adv-x="592" unicode="^"/><glyph d="M547 -69l-22 -99h-616l22 99h616z" glyph-name="underscore" horiz-adv-x="616" unicode="_"/><glyph d="M10 139q32 148 224 162l155 13l6 29q7 37 -20 57.5t-75 20.5q-95 0 -170 -49l-22 74q32 20 55.5 31.5t65 21.5t88.5 10q95 0 142 -46t29 -129l-71 -334h-97l14 62q-21 -27 -72 -51.5t-109 -24.5q-73 0 -115 42.5t-28 110.5zM187 77q57 0 110 29.5t60 62.5l12 58l-156 -13 q-50 -5 -76 -25t-30 -45q-7 -32 16.5 -49.5t63.5 -17.5z" glyph-name="a" horiz-adv-x="526" unicode="a"/><glyph d="M151 713h98l-58 -274q82 70 176 70q105 0 157.5 -73t29.5 -184q-24 -115 -109 -190.5t-190 -75.5q-94 0 -145 73l-13 -59h-98zM147 250q-16 -75 16.5 -124t99.5 -49q66 0 120 48.5t70 122.5t-17 122.5t-99 48.5q-68 0 -121 -48t-69 -121z" glyph-name="b" horiz-adv-x="592" unicode="b"/><glyph d="M33 246q24 111 116.5 187t204.5 76q87 0 149 -51l-53 -79q-34 25 -56 32.5t-61 7.5q-70 0 -128 -50t-74 -122q-15 -73 22 -121.5t107 -48.5t145 48l13 -85q-55 -30 -93.5 -42t-82.5 -12q-112 0 -172 75t-37 185z" glyph-name="c" horiz-adv-x="488" unicode="c"/><glyph d="M629 713l-152 -713h-99l13 59q-82 -73 -177 -73q-104 0 -157 75.5t-28 190.5q23 111 108 184t192 73q101 0 143 -70l58 274h99zM435 250q15 73 -17.5 121t-99.5 48t-120.5 -48.5t-69.5 -122.5t17.5 -122.5t100.5 -48.5t120 49t69 124z" glyph-name="d" horiz-adv-x="586" unicode="d"/><glyph d="M34 247q25 116 107.5 189.5t189.5 73.5t157 -75t24 -197l-5 -21h-382q-8 -65 23 -102.5t96 -37.5q77 0 142 71l66 -53q-98 -108 -231 -108q-108 0 -160 72.5t-27 187.5zM149 299h275q5 55 -25.5 88.5t-85.5 33.5q-56 0 -101 -34t-63 -88z" glyph-name="e" horiz-adv-x="546" unicode="e"/><glyph d="M124 407h-57l20 91h56l12 56q23 109 94 151.5t162 10.5l-18 -87q-74 19 -102.5 -4.5t-43.5 -98.5l-6 -28h124l-20 -91h-124l-86 -407h-98z" glyph-name="f" horiz-adv-x="338" unicode="f"/><glyph d="M550 498l-15 -74h-60q26 -51 11 -116q-19 -91 -93.5 -151t-169.5 -60q-105 0 -113 -38q-2 -12 4.5 -19t24.5 -10t47.5 -2t74.5 6q90 9 127.5 -23.5t24.5 -94.5q-15 -72 -80.5 -110t-167.5 -38q-147 0 -207 66l69 67q56 -47 153 -44q129 2 142 60q5 24 -16.5 32.5 t-68.5 5.5l-68 -3q-86 -5 -121 24.5t-25 76.5q12 57 78 86q-33 29 -46 73.5t-2 96.5q18 85 93 143t167 58q69 0 115 -33q45 21 122 21zM388 307q11 52 -14.5 84t-78.5 32t-92.5 -32t-50.5 -82q-12 -55 13.5 -89.5t77.5 -34.5q53 0 93.5 34t51.5 88z" glyph-name="g" horiz-adv-x="529" unicode="g"/><glyph d="M151 713h98l-58 -268q73 65 171 65q93 0 122 -51.5t8 -151.5l-65 -307h-98l63 293q14 67 -1.5 97t-66.5 30q-60 0 -107.5 -41t-62.5 -108l-57 -271h-98z" glyph-name="h" horiz-adv-x="536" unicode="h"/><glyph d="M180 587q-28 0 -44 19.5t-10 47.5q6 27 30.5 47t50.5 20q29 0 44.5 -19.5t9.5 -47.5t-30 -47.5t-51 -19.5zM113 498h97l-106 -498h-97z" glyph-name="i" horiz-adv-x="219" unicode="i"/><glyph d="M188 587q-28 0 -44 19.5t-10 47.5q6 27 30 47t51 20q28 0 44 -19.5t10 -47.5q-6 -27 -30 -47t-51 -20zM100 -52q-25 -115 -98 -155.5t-178 1.5l48 88q61 -25 90.5 -5.5t45.5 97.5l112 524h96z" glyph-name="j" horiz-adv-x="227" unicode="j"/><glyph d="M525 498l-243 -200l163 -298h-118l-127 230l-65 -54l-38 -176h-98l152 713h98l-88 -412l239 197h125z" glyph-name="k" horiz-adv-x="506" unicode="k"/><glyph d="M157 713h98l-152 -713h-98z" glyph-name="l" horiz-adv-x="218" unicode="l"/><glyph d="M105 498h97l-10 -49q28 29 72 45t88 16q42 0 71 -21.5t35 -56.5q33 36 83.5 57t105.5 21q164 0 123 -196l-67 -314h-98l64 301q14 64 1.5 91t-55.5 27q-127 0 -156 -144l-59 -275h-97l63 294q26 125 -56 125q-125 0 -156 -148l-58 -271h-97z" glyph-name="m" horiz-adv-x="812" unicode="m"/><glyph d="M105 498h97l-11 -53q73 65 170 65q94 0 123 -51.5t8 -151.5l-66 -307h-98l63 293q14 67 -1 97t-67 30q-61 0 -108 -41t-61 -108l-58 -271h-97z" glyph-name="n" horiz-adv-x="535" unicode="n"/><glyph d="M35 252q22 105 115.5 181t202.5 76q110 0 170.5 -76t37.5 -186q-24 -110 -116.5 -185.5t-204.5 -75.5q-111 0 -170 76.5t-35 189.5zM133 250q-16 -76 19.5 -125t107.5 -49t128.5 48t72.5 123t-20 123.5t-108 48.5q-70 0 -127 -48.5t-73 -120.5z" glyph-name="o" horiz-adv-x="599" unicode="o"/><glyph d="M-46 -211l151 709h98l-13 -62q44 39 83.5 56t93.5 17q104 0 157 -75.5t28 -190.5q-24 -113 -108 -187t-188 -74q-95 0 -148 69l-56 -262h-98zM146 244q-16 -75 16.5 -123t100.5 -48q67 0 120 48.5t70 125.5q16 74 -17.5 123t-99.5 49q-67 0 -120.5 -50t-69.5 -125z" glyph-name="p" horiz-adv-x="592" unicode="p"/><glyph d="M438 -211h-99l56 262q-84 -69 -177 -69q-104 0 -156.5 74t-28.5 187q25 115 110.5 190.5t192.5 75.5q93 0 141 -73l13 62h99zM439 244q17 75 -15.5 125t-98.5 50q-67 0 -121 -49t-70 -123q-16 -77 16 -125.5t100 -48.5q67 0 120.5 48.5t68.5 122.5z" glyph-name="q" horiz-adv-x="592" unicode="q"/><glyph d="M343 398q-39 18 -61 18q-49 0 -81.5 -38t-44.5 -97l-60 -281h-97l106 498h97l-11 -53q24 29 61 47t73 18q46 0 84 -28z" glyph-name="r" horiz-adv-x="361" unicode="r"/><glyph d="M165 -15q-56 0 -104.5 21t-77.5 57l75 66q31 -30 61.5 -42t75.5 -12q47 0 81.5 19t40.5 47q8 35 -35 50q-9 4 -89 23q-150 36 -127 143q14 68 77 110t154 42q103 0 160 -59l-53 -78q-59 48 -126 48q-49 0 -79.5 -16.5t-36.5 -45.5q-6 -26 19.5 -38.5t93.5 -26.5 q81 -18 115.5 -52.5t22.5 -95.5q-16 -74 -81.5 -117t-166.5 -43z" glyph-name="s" horiz-adv-x="461" unicode="s"/><glyph d="M144 498l36 173l107 42l-46 -215h125l-19 -91h-126l-45 -216q-17 -81 8 -101.5t89 5.5l11 -86q-48 -23 -95 -23q-154 0 -116 178l51 243h-57l20 91h57z" glyph-name="t" horiz-adv-x="361" unicode="t"/><glyph d="M29 198l64 300h97l-61 -286q-14 -67 4.5 -101t82.5 -34q66 0 99 34.5t47 100.5l60 286h98l-64 -300q-45 -212 -259 -212q-212 0 -168 212z" glyph-name="u" horiz-adv-x="511" unicode="u"/><glyph d="M57 498h107l73 -330l210 330h107l-334 -498h-40z" glyph-name="v" horiz-adv-x="509" unicode="v"/><glyph d="M57 498h105l58 -319l194 319h46l58 -319l194 319h105l-318 -498h-39l-63 314l-198 -314h-38z" glyph-name="w" horiz-adv-x="772" unicode="w"/><glyph d="M223 264l-131 234h116l87 -159l157 159h116l-233 -234l151 -264h-117l-109 188l-190 -188h-115z" glyph-name="x" horiz-adv-x="550" unicode="x"/><glyph d="M548 498l-370 -608q-46 -72 -108 -97t-120 1l46 92q14 -5 25 -7.5t22 0t18.5 3.5t17 10.5t14.5 13.5t15 19l14 21t16 26.5t16 27.5l-97 498h104l69 -367l215 367h103z" glyph-name="y" horiz-adv-x="503" unicode="y"/><glyph d="M326 410h-210l-10 88h389l-9 -44l-342 -366h253l9 -88h-425l9 41z" glyph-name="z" horiz-adv-x="493" unicode="z"/><glyph d="M148 189q11 51 1.5 73.5t-45.5 30.5l17 82q38 9 58 31.5t30 67.5l49 229q21 100 75.5 139t154.5 30l-19 -88q-61 0 -80.5 -15.5t-32.5 -78.5l-47 -221q-11 -55 -32 -85t-63 -53q31 -22 39.5 -54t-2.5 -85l-46 -213q-14 -68 -2.5 -83.5t74.5 -15.5l-18 -87 q-105 -15 -142 30.5t-15 149.5z" glyph-name="braceleft" horiz-adv-x="373" unicode="{"/><glyph d="M337 713h104l-194 -913h-104z" glyph-name="bar" horiz-adv-x="584" unicode="|"/><glyph d="M195 189l-46 -216q-22 -104 -78 -149.5t-154 -30.5l18 87q62 0 80.5 15.5t32.5 83.5l46 213q11 53 33 85t63 54q-33 22 -41 52.5t4 85.5l47 221q13 64 0.5 79t-72.5 15l18 88q103 9 141 -30t17 -139l-49 -229q-9 -46 1.5 -68t45.5 -31l-18 -82q-39 -8 -58.5 -30.5 t-30.5 -73.5z" glyph-name="braceright" horiz-adv-x="373" unicode="}"/><glyph d="M17 284q79 120 152.5 142t183.5 -34q81 -44 124 -36.5t104 83.5l58 -40q-88 -127 -166.5 -142.5t-207.5 54.5q-62 30 -100 15.5t-91 -86.5z" glyph-name="asciitilde" horiz-adv-x="621" unicode="~"/><glyph d="M191 649q5 26 28 45t50 19q26 0 40.5 -19t9.5 -45q-6 -27 -29 -45.5t-49 -18.5t-40.5 18.5t-9.5 45.5zM67 0l106 497h99l-106 -497h-99z" glyph-name="exclamdown" horiz-adv-x="344" unicode="¡"/><glyph d="M333 419q-70 0 -128 -50t-74 -122q-15 -73 22 -121.5t107 -48.5t145 48l13 -85q-79 -44 -136 -52l-19 -86h-87l19 88q-91 17 -137 88t-25 168q21 98 97.5 170t174.5 89l18 85h87l-18 -83q61 -7 111 -49l-53 -79q-34 25 -56 32.5t-61 7.5z" glyph-name="cent" horiz-adv-x="488" unicode="¢"/><glyph d="M651 548l-103 -24q7 51 -14 76t-80 25q-64 0 -96.5 -32t-48.5 -102l-20 -92h168l-45 -88h-141l-35 -165q30 -4 69 -19.5t66 -25.5t58 -13.5t59 16.5t54 65l74 -51q-74 -104 -147 -124.5t-177 23.5q-75 34 -116 28.5t-92 -64.5l-67 54q58 72 118 98l38 178h-83l46 88h56 l23 107q22 106 88.5 161t171.5 55q97 0 142 -45t34 -129z" glyph-name="sterling" horiz-adv-x="689" unicode="£"/><glyph d="M24 80l135 110q-22 46 -27 83.5t5 81.5q9 44 29.5 81t60.5 82l-88 111l71 60l88 -112q60 34 96.5 46t82.5 12q47 0 79.5 -12t74.5 -45l135 111l45 -60l-134 -110q22 -48 26.5 -84t-5.5 -80q-10 -46 -28.5 -80t-61.5 -83l87 -112l-69 -58l-89 111q-95 -57 -178 -57 q-43 0 -76.5 12t-76.5 44l-135 -110zM378 167q77 0 144 55.5t84 132.5q16 78 -26.5 133.5t-118.5 55.5q-80 0 -147 -54.5t-84 -134.5q-16 -77 27.5 -132.5t120.5 -55.5z" glyph-name="currency" horiz-adv-x="793" unicode="¤"/><glyph d="M697 713l-181 -227h82l-46 -89h-422l-8 89h80l-82 227h120l104 -293l232 293h121zM536 325l9 -89h-188l-51 -236h-104l50 236h-183l46 89h421z" glyph-name="yen" horiz-adv-x="623" unicode="¥"/><glyph d="M330 713h104l-76 -357h-104zM315 156l-75 -356h-104l75 356h104z" glyph-name="brokenbar" horiz-adv-x="580" unicode="¦"/><glyph d="M147 -19q-9 -63 6 -92t64 -29q45 0 76 25.5t41 70.5q9 42 -14.5 65t-92.5 50q-69 29 -98 72t-14 114q24 112 130 161q-35 28 -47 60.5t-2 78.5q16 76 81 127.5t144 51.5q86 0 121 -55.5t17 -154.5h-87q11 62 -4 93t-65 31q-44 0 -77.5 -27.5t-43.5 -71.5 q-7 -35 18.5 -61.5t79.5 -41.5q156 -41 125 -190q-24 -108 -135 -162q73 -48 53 -141q-17 -81 -80 -131t-146 -50q-89 0 -124 53.5t-14 153.5h88zM288 154q43 0 79.5 31t45.5 74t-14.5 73t-66.5 30t-79.5 -30t-46.5 -73q-9 -44 15 -74.5t67 -30.5z" glyph-name="section" horiz-adv-x="620" unicode="§"/><glyph d="M69 355q32 153 163.5 260t287.5 107q148 0 232.5 -109.5t52.5 -258.5q-32 -152 -163.5 -260t-283.5 -108q-154 0 -238 107.5t-51 261.5zM136 355q-27 -127 42 -215t194 -88t232 88t133 214q26 122 -43 211t-192 89q-136 0 -248 -101q-94 -82 -118 -198zM239 354 q19 87 92.5 147.5t160.5 60.5q51 0 99 -30l-42 -62q-35 23 -78 23q-55 0 -101.5 -40.5t-59.5 -98.5t17.5 -96.5t85.5 -38.5q23 0 42 7t57 27l6 -73q-62 -29 -120 -29q-85 0 -130.5 59t-28.5 144z" glyph-name="copyright" horiz-adv-x="833" unicode="©"/><glyph d="M44 256l226 224l55 -50l-174 -174l101 -170l-76 -51zM463 480l53 -50l-174 -174l101 -170l-74 -51l-132 221z" glyph-name="guillemotleft" horiz-adv-x="539" unicode="«"/><glyph d="M53 320h510l-68 -320h-100l48 226h-410z" glyph-name="logicalnot" horiz-adv-x="590" unicode="¬"/><glyph d="M91 462q23 108 116.5 184t204.5 76q104 0 164 -77.5t38 -183.5q-23 -108 -116.5 -185t-200.5 -77q-110 0 -169.5 76.5t-36.5 186.5zM138 462q-19 -91 30.5 -153.5t138.5 -62.5q88 0 164 62.5t95 152.5q18 87 -31 150t-136 63q-97 0 -176 -72q-66 -57 -85 -140zM279 607 h108q51 0 73.5 -22t13.5 -64q-14 -62 -78 -80l63 -123h-64l-56 118h-46l-25 -118h-51zM366 482q49 0 57 39q9 37 -41 37h-62l-17 -76h63z" glyph-name="registered" horiz-adv-x="619" unicode="®"/><glyph d="M251 401q-67 0 -103.5 47t-22.5 114q14 66 71 112.5t124 46.5q64 0 101.5 -47t23.5 -112q-14 -67 -71.5 -114t-122.5 -47zM267 474q35 0 66 25.5t39 62.5q7 34 -13 60t-54 26q-37 0 -67.5 -25.5t-38.5 -60.5q-8 -37 12 -62.5t56 -25.5z" glyph-name="degree" horiz-adv-x="440" unicode="°"/><glyph d="M319 364h-240l19 86h240l45 212h87l-45 -212h240l-19 -86h-240l-44 -207h-86zM20 86h568l-19 -86h-567z" glyph-name="plusminus" horiz-adv-x="720" unicode="±"/><glyph d="M234 517q42 38 58.5 59t20.5 39q5 25 -9 42t-40 17q-30 0 -48 -17.5t-32 -52.5l-47 12q40 106 136 106q48 0 74.5 -31t16.5 -77q-7 -30 -27.5 -56.5t-77.5 -78.5l-75 -69h136l-11 -49h-219l6 27z" glyph-name="uni00B2" horiz-adv-x="324" unicode="²"/><glyph d="M171 355q-47 0 -71 25t-19 70l50 13q-1 -30 10.5 -44.5t40.5 -14.5q28 0 50 18t27 45q7 30 -10 43t-57 14l10 47q74 0 85 52q5 23 -7 37t-37 14q-24 0 -39 -12.5t-29 -42.5l-46 12q41 91 125 91q46 0 69.5 -27.5t14.5 -71.5q-11 -49 -54 -75q37 -26 26 -83 q-11 -48 -50 -79t-89 -31z" glyph-name="uni00B3" horiz-adv-x="302" unicode="³"/><glyph d="M259 298h-11q-84 0 -125 57.5t-22 146.5q12 58 46.5 105.5t81.5 73.5q59 32 152 32h255l-177 -832h-89l159 748h-110l-159 -748h-89z" glyph-name="paragraph" horiz-adv-x="594" unicode="¶"/><glyph d="M124 181q-28 0 -42 18.5t-9 45.5q6 26 28.5 45t48.5 19q27 0 41.5 -19t9.5 -45q-6 -27 -28.5 -45.5t-48.5 -18.5z" glyph-name="periodcentered" horiz-adv-x="280" unicode="·"/><glyph d="M219 618h-56l9 41q29 0 44.5 12t22.5 42h52l-76 -357h-52z" glyph-name="uni00B9" horiz-adv-x="284" unicode="¹"/><glyph d="M111 547q16 72 78 123t135 51q74 0 114.5 -51.5t24.5 -124.5q-16 -75 -77.5 -125.5t-137.5 -50.5q-74 0 -113.5 51t-23.5 127zM188 546q-10 -46 11.5 -75.5t63.5 -29.5q45 0 79 29t44 75t-12 74.5t-66 28.5q-42 0 -76 -29t-44 -73zM58 302h356l-20 -93h-357z" glyph-name="ordmasculine" horiz-adv-x="453" unicode="º"/><glyph d="M170 480l132 -224l-226 -221l-53 51l175 170l-101 174zM495 256l-226 -221l-54 51l174 170l-101 174l75 50z" glyph-name="guillemotright" horiz-adv-x="539" unicode="»"/><glyph d="M73 3l563 711l72 -1l-563 -713zM212 663h-54l11 50h104l-76 -357h-51zM524 0l12 57h-159l7 31l240 268h28l-53 -252h42l-11 -47h-42l-12 -57h-52zM459 104h87l28 129z" glyph-name="onequarter" horiz-adv-x="745" unicode="¼"/><glyph d="M66 3l564 711l72 -1l-564 -713zM212 663h-54l11 50h104l-76 -357h-51zM597 155q42 39 58.5 59.5t20.5 39.5q5 25 -9.5 42t-40.5 17q-61 0 -76 -71h-53q37 119 139 119q48 0 74.5 -31.5t16.5 -76.5q-6 -30 -26.5 -56t-78.5 -79l-75 -69h135l-10 -49h-219l6 27z" glyph-name="onehalf" horiz-adv-x="800" unicode="½"/><glyph d="M208 352q-48 0 -71 28.5t-15 79.5h50q-3 -59 47 -59q26 0 47.5 18t26.5 45q6 30 -9.5 43t-50.5 14l10 46q67 0 78 53q5 22 -6.5 36.5t-34.5 14.5q-25 0 -38.5 -12.5t-25.5 -42.5h-50q35 103 125 103q44 0 67.5 -28t14.5 -71q-11 -50 -54 -75q37 -29 25 -84 q-10 -47 -48.5 -78t-87.5 -31zM159 3l564 711l72 -1l-564 -713zM621 0l12 57h-159l7 31l240 268h28l-54 -252h42l-10 -47h-42l-12 -57h-52zM555 104h89l27 129z" glyph-name="threequarters" horiz-adv-x="842" unicode="¾"/><glyph d="M365 722q26 0 40.5 -19t9.5 -45q-6 -26 -28.5 -44.5t-48.5 -18.5q-27 0 -41.5 18.5t-9.5 44.5q6 27 28.5 45.5t49.5 18.5zM372 508q-15 -64 -41 -103.5t-82 -84.5q-9 -8 -25 -22.5t-21 -19t-15.5 -15t-14 -17t-9.5 -17t-9 -21t-6 -25.5q-14 -98 79 -98q55 0 93.5 41.5 t51.5 115.5h103q-20 -112 -95 -183.5t-173 -71.5q-95 0 -138.5 55t-23.5 149q7 32 17.5 56.5t33.5 50.5t40.5 41.5t59.5 51.5q34 28 49 53t23 64h103z" glyph-name="questiondown" horiz-adv-x="540" unicode="¿"/><glyph d="M521 797l-67 -34l-125 160l104 43zM-43 0l464 713h47l154 -713h-113l-35 175h-293l-112 -175h-112zM245 272h209l-52 246z" glyph-name="Agrave" horiz-adv-x="689" unicode="À"/><glyph d="M375 796l159 169l86 -42l-193 -161zM-43 0l464 713h47l154 -713h-113l-35 175h-293l-112 -175h-112zM245 272h209l-52 246z" glyph-name="Aacute" horiz-adv-x="689" unicode="Á"/><glyph d="M296 812l198 156l135 -156l-81 -52l-77 94l-119 -94zM-43 0l464 713h47l154 -713h-113l-35 175h-293l-112 -175h-112zM245 272h209l-52 246z" glyph-name="Acircumflex" horiz-adv-x="689" unicode="Â"/><glyph d="M289 806q34 59 88.5 76t108.5 -13q40 -24 61 -20t52 47l46 -41q-35 -59 -84.5 -77t-99.5 12q-45 29 -73 23.5t-54 -51.5zM-43 0l464 713h47l154 -713h-113l-35 175h-293l-112 -175h-112zM245 272h209l-52 246z" glyph-name="Atilde" horiz-adv-x="689" unicode="Ã"/><glyph d="M348 763q-28 0 -42.5 19.5t-8.5 46.5q5 26 29 45t50 19t41 -19t9 -46q-5 -26 -28.5 -45.5t-49.5 -19.5zM555 763q-26 0 -41 19.5t-9 46.5q5 26 28.5 45t49.5 19q27 0 42 -18.5t9 -46.5q-5 -26 -29 -45.5t-50 -19.5zM-43 0l464 713h47l154 -713h-113l-35 175h-293 l-112 -175h-112zM245 272h209l-52 246z" glyph-name="Adieresis" horiz-adv-x="689" unicode="Ä"/><glyph d="M450 751q-48 0 -74 33.5t-16 81.5q10 45 50 78.5t86 33.5q47 0 74 -33.5t16 -79.5q-10 -47 -50 -80.5t-86 -33.5zM464 820q18 0 34 13t20 32q4 18 -6.5 31t-28.5 13q-19 0 -34.5 -13t-20.5 -31q-4 -19 6.5 -32t29.5 -13zM-43 0l464 713h47l154 -713h-113l-35 175h-293 l-112 -175h-112zM245 272h209l-52 246z" glyph-name="Aring" horiz-adv-x="689" unicode="Å"/><glyph d="M664 613h-14l-38 -176h275l-21 -97h-275l-51 -243h347l-21 -97h-451l37 175h-253l-126 -175h-116l514 713h547l-21 -98h-333v-2zM473 272l73 341h-31l-246 -341h204z" glyph-name="AE" horiz-adv-x="969" unicode="Æ"/><glyph d="M55 349q34 156 166 264.5t288 108.5q97 0 172 -50l-66 -93q-61 41 -137 41q-108 0 -199.5 -78t-115.5 -192q-24 -110 35.5 -186t167.5 -76q74 0 170 54l10 -104q-101 -52 -203 -52q-151 0 -235.5 106.5t-52.5 256.5zM170 -204q113 42 132 149l77 -34q-5 -37 -47 -84 t-102 -68z" glyph-name="Ccedilla" horiz-adv-x="623" unicode="Ç"/><glyph d="M501 797l-67 -34l-125 160l104 43zM157 713h484l-21 -98h-381l-39 -180h310l-21 -98h-309l-51 -240h381l-21 -97h-484z" glyph-name="Egrave" horiz-adv-x="592" unicode="È"/><glyph d="M343 796l159 169l86 -42l-193 -161zM157 713h484l-21 -98h-381l-39 -180h310l-21 -98h-309l-51 -240h381l-21 -97h-484z" glyph-name="Eacute" horiz-adv-x="592" unicode="É"/><glyph d="M259 812l199 156l134 -156l-80 -52l-78 94l-119 -94zM157 713h484l-21 -98h-381l-39 -180h310l-21 -98h-309l-51 -240h381l-21 -97h-484z" glyph-name="Ecircumflex" horiz-adv-x="592" unicode="Ê"/><glyph d="M309 763q-28 0 -42.5 19.5t-8.5 46.5q5 26 29 45t50 19t41 -19t9 -46q-5 -26 -28.5 -45.5t-49.5 -19.5zM516 763q-26 0 -41 19.5t-9 46.5q5 26 28.5 45t49.5 19q27 0 42 -18.5t9 -46.5q-5 -26 -29 -45.5t-50 -19.5zM157 713h484l-21 -98h-381l-39 -180h310l-21 -98h-309 l-51 -240h381l-21 -97h-484z" glyph-name="Edieresis" horiz-adv-x="592" unicode="Ë"/><glyph d="M338 797l-67 -34l-125 160l104 43zM169 713h103l-152 -713h-103z" glyph-name="Igrave" horiz-adv-x="247" unicode="Ì"/><glyph d="M170 796l159 169l86 -42l-193 -161zM169 713h103l-152 -713h-103z" glyph-name="Iacute" horiz-adv-x="247" unicode="Í"/><glyph d="M75 812l198 156l134 -156l-80 -52l-78 94l-119 -94zM169 713h103l-152 -713h-103z" glyph-name="Icircumflex" horiz-adv-x="247" unicode="Î"/><glyph d="M127 763q-28 0 -42.5 19.5t-8.5 46.5q5 26 29 45t50 19t41 -19t9 -46q-5 -26 -28.5 -45.5t-49.5 -19.5zM334 763q-26 0 -41 19.5t-9 46.5q5 26 28.5 45t49.5 19q27 0 42 -18.5t9 -46.5q-5 -26 -29 -45.5t-50 -19.5zM169 713h103l-152 -713h-103z" glyph-name="Idieresis" horiz-adv-x="247" unicode="Ï"/><glyph d="M359 713q172 0 257 -98t51 -259t-161 -258.5t-300 -97.5h-201l57 266h-36l17 82h36l78 365h202zM563 355q25 120 -35 190t-186 70h-102l-57 -267h193l-17 -82h-193l-36 -169h102q123 0 214 71t117 187z" glyph-name="Eth" horiz-adv-x="682" unicode="Ð"/><glyph d="M282 806q35 59 89.5 76t108.5 -13q40 -24 61 -20t52 47l45 -41q-35 -59 -84.5 -77t-99.5 12q-44 29 -72.5 23.5t-54.5 -51.5zM5 0l152 713h52l312 -501l108 501h103l-152 -713h-54l-312 496l-105 -496h-104z" glyph-name="Ntilde" horiz-adv-x="695" unicode="Ñ"/><glyph d="M585 797l-67 -34l-125 160l103 43zM51 358q21 96 89.5 180.5t165.5 134t195 49.5q151 0 237 -109t54 -259q-32 -152 -165 -260t-288 -108q-151 0 -236 108.5t-52 263.5zM361 84q112 0 207 79t119 191q24 113 -36.5 191.5t-171.5 78.5q-109 0 -204.5 -78.5t-119.5 -187.5 q-24 -114 37 -194t169 -80z" glyph-name="Ograve" horiz-adv-x="802" unicode="Ò"/><glyph d="M475 796l159 169l86 -42l-193 -161zM51 358q21 96 89.5 180.5t165.5 134t195 49.5q151 0 237 -109t54 -259q-32 -152 -165 -260t-288 -108q-151 0 -236 108.5t-52 263.5zM361 84q112 0 207 79t119 191q24 113 -36.5 191.5t-171.5 78.5q-109 0 -204.5 -78.5t-119.5 -187.5 q-24 -114 37 -194t169 -80z" glyph-name="Oacute" horiz-adv-x="802" unicode="Ó"/><glyph d="M355 812l198 156l135 -156l-81 -52l-77 94l-119 -94zM51 358q21 96 89.5 180.5t165.5 134t195 49.5q151 0 237 -109t54 -259q-32 -152 -165 -260t-288 -108q-151 0 -236 108.5t-52 263.5zM361 84q112 0 207 79t119 191q24 113 -36.5 191.5t-171.5 78.5 q-109 0 -204.5 -78.5t-119.5 -187.5q-24 -114 37 -194t169 -80z" glyph-name="Ocircumflex" horiz-adv-x="802" unicode="Ô"/><glyph d="M345 806q34 59 88.5 76t109.5 -13q39 -24 60 -20t53 47l45 -41q-35 -59 -84.5 -77t-99.5 12q-44 29 -72.5 23.5t-54.5 -51.5zM51 358q21 96 89.5 180.5t165.5 134t195 49.5q151 0 237 -109t54 -259q-32 -152 -165 -260t-288 -108q-151 0 -236 108.5t-52 263.5zM361 84 q112 0 207 79t119 191q24 113 -36.5 191.5t-171.5 78.5q-109 0 -204.5 -78.5t-119.5 -187.5q-24 -114 37 -194t169 -80z" glyph-name="Otilde" horiz-adv-x="802" unicode="Õ"/><glyph d="M407 763q-27 0 -42 19.5t-9 46.5q6 26 29.5 45t49.5 19t41 -19t10 -46q-6 -26 -29.5 -45.5t-49.5 -19.5zM615 763q-27 0 -41.5 19.5t-9.5 46.5q6 26 29.5 45t49.5 19q27 0 41.5 -18.5t9.5 -46.5q-6 -26 -29.5 -45.5t-49.5 -19.5zM51 358q21 96 89.5 180.5t165.5 134 t195 49.5q151 0 237 -109t54 -259q-32 -152 -165 -260t-288 -108q-151 0 -236 108.5t-52 263.5zM361 84q112 0 207 79t119 191q24 113 -36.5 191.5t-171.5 78.5q-109 0 -204.5 -78.5t-119.5 -187.5q-24 -114 37 -194t169 -80z" glyph-name="Odieresis" horiz-adv-x="802" unicode="Ö"/><glyph d="M91 179l216 179l-140 178l70 58l141 -178l216 178l46 -58l-216 -178l140 -179l-70 -58l-141 178l-216 -178z" glyph-name="multiply" horiz-adv-x="689" unicode="×"/><glyph d="M880 673l-117 -96q56 -99 29 -223q-32 -152 -165 -260t-288 -108q-122 0 -205 75l-130 -106l-44 57l128 105q-67 104 -37 241q21 96 89.5 180.5t165.5 134t195 49.5q134 0 219 -88l115 95zM155 358q-19 -95 21 -169l458 375q-60 60 -155 60q-109 0 -204.5 -78.5 t-119.5 -187.5zM687 354q18 83 -12 151l-454 -372q58 -49 140 -49q112 0 207 79t119 191z" glyph-name="Oslash" horiz-adv-x="802" unicode="Ø"/><glyph d="M528 797l-67 -34l-125 160l103 43zM71 87q-35 58 -11 172l97 454h103l-96 -452q-18 -84 12.5 -128t125.5 -44q96 0 144 43.5t67 128.5l96 452h104l-97 -454q-23 -112 -85 -172q-97 -99 -249 -99q-157 0 -211 99z" glyph-name="Ugrave" horiz-adv-x="676" unicode="Ù"/><glyph d="M376 796l159 169l86 -42l-193 -161zM71 87q-35 58 -11 172l97 454h103l-96 -452q-18 -84 12.5 -128t125.5 -44q96 0 144 43.5t67 128.5l96 452h104l-97 -454q-23 -112 -85 -172q-97 -99 -249 -99q-157 0 -211 99z" glyph-name="Uacute" horiz-adv-x="676" unicode="Ú"/><glyph d="M289 812l198 156l135 -156l-81 -52l-77 94l-119 -94zM71 87q-35 58 -11 172l97 454h103l-96 -452q-18 -84 12.5 -128t125.5 -44q96 0 144 43.5t67 128.5l96 452h104l-97 -454q-23 -112 -85 -172q-97 -99 -249 -99q-157 0 -211 99z" glyph-name="Ucircumflex" horiz-adv-x="676" unicode="Û"/><glyph d="M341 763q-27 0 -42 19.5t-9 46.5q6 26 29.5 45t49.5 19t41 -19t10 -46q-6 -26 -29.5 -45.5t-49.5 -19.5zM549 763q-27 0 -41.5 19.5t-9.5 46.5q6 26 29.5 45t49.5 19q27 0 41.5 -18.5t9.5 -46.5q-6 -26 -29.5 -45.5t-49.5 -19.5zM71 87q-35 58 -11 172l97 454h103 l-96 -452q-18 -84 12.5 -128t125.5 -44q96 0 144 43.5t67 128.5l96 452h104l-97 -454q-23 -112 -85 -172q-97 -99 -249 -99q-157 0 -211 99z" glyph-name="Udieresis" horiz-adv-x="676" unicode="Ü"/><glyph d="M350 796l159 169l87 -42l-194 -161zM251 305l-148 408h119l104 -293l233 293h119l-325 -408l-65 -305h-102z" glyph-name="Yacute" horiz-adv-x="587" unicode="Ý"/><glyph d="M201 713h105l-33 -151h161q119 0 173.5 -53t32.5 -154q-21 -97 -94.5 -150.5t-180.5 -53.5h-179l-32 -151h-105zM382 246q64 0 104.5 28.5t51.5 81.5q12 57 -18 82.5t-97 25.5h-170l-47 -218h176z" glyph-name="Thorn" horiz-adv-x="631" unicode="Þ"/><glyph d="M463 442q148 -62 114 -222q-22 -102 -118.5 -166t-239.5 -68l20 97q99 3 163.5 40.5t77.5 99.5q16 73 -25.5 109.5t-148.5 61.5l19 89q68 2 104.5 24.5t47.5 73.5q8 38 -18.5 62t-75.5 24q-65 0 -95.5 -36t-46.5 -115l-110 -516h-98l84 394h-52l19 89h52l15 70 q20 98 87 151.5t167 53.5q91 0 139.5 -51.5t31.5 -129.5q-19 -94 -113 -135z" glyph-name="germandbls" horiz-adv-x="618" unicode="ß"/><glyph d="M410 582l-66 -34l-125 161l104 42zM10 139q32 148 224 162l155 13l6 29q7 37 -20 57.5t-75 20.5q-95 0 -170 -49l-22 74q32 20 55.5 31.5t65 21.5t88.5 10q95 0 142 -46t29 -129l-71 -334h-97l14 62q-21 -27 -72 -51.5t-109 -24.5q-73 0 -115 42.5t-28 110.5zM187 77 q57 0 110 29.5t60 62.5l12 58l-156 -13q-50 -5 -76 -25t-30 -45q-7 -32 16.5 -49.5t63.5 -17.5z" glyph-name="agrave" horiz-adv-x="526" unicode="à"/><glyph d="M271 582l160 169l87 -42l-194 -161zM10 139q32 148 224 162l155 13l6 29q7 37 -20 57.5t-75 20.5q-95 0 -170 -49l-22 74q32 20 55.5 31.5t65 21.5t88.5 10q95 0 142 -46t29 -129l-71 -334h-97l14 62q-21 -27 -72 -51.5t-109 -24.5q-73 0 -115 42.5t-28 110.5zM187 77 q57 0 110 29.5t60 62.5l12 58l-156 -13q-50 -5 -76 -25t-30 -45q-7 -32 16.5 -49.5t63.5 -17.5z" glyph-name="aacute" horiz-adv-x="526" unicode="á"/><glyph d="M165 598l199 156l134 -156l-81 -52l-78 93l-118 -93zM10 139q32 148 224 162l155 13l6 29q7 37 -20 57.5t-75 20.5q-95 0 -170 -49l-22 74q32 20 55.5 31.5t65 21.5t88.5 10q95 0 142 -46t29 -129l-71 -334h-97l14 62q-21 -27 -72 -51.5t-109 -24.5q-73 0 -115 42.5 t-28 110.5zM187 77q57 0 110 29.5t60 62.5l12 58l-156 -13q-50 -5 -76 -25t-30 -45q-7 -32 16.5 -49.5t63.5 -17.5z" glyph-name="acircumflex" horiz-adv-x="526" unicode="â"/><glyph d="M170 615q42 52 79 64.5t63 -1.5t50.5 -29t53 -8.5t60.5 49.5l42 -48q-34 -53 -84.5 -70t-106.5 17q-37 26 -60 22.5t-61 -48.5zM10 139q32 148 224 162l155 13l6 29q7 37 -20 57.5t-75 20.5q-95 0 -170 -49l-22 74q32 20 55.5 31.5t65 21.5t88.5 10q95 0 142 -46t29 -129 l-71 -334h-97l14 62q-21 -27 -72 -51.5t-109 -24.5q-73 0 -115 42.5t-28 110.5zM187 77q57 0 110 29.5t60 62.5l12 58l-156 -13q-50 -5 -76 -25t-30 -45q-7 -32 16.5 -49.5t63.5 -17.5z" glyph-name="atilde" horiz-adv-x="526" unicode="ã"/><glyph d="M237 571q-26 0 -41 19.5t-10 46.5q5 25 28.5 44.5t49.5 19.5q27 0 42 -19t9 -46q-5 -26 -28 -45.5t-50 -19.5zM445 571q-27 0 -41.5 19.5t-9.5 46.5q5 26 28.5 45t49.5 19q27 0 42 -18.5t9 -46.5q-5 -26 -28.5 -45.5t-49.5 -19.5zM10 139q32 148 224 162l155 13l6 29 q7 37 -20 57.5t-75 20.5q-95 0 -170 -49l-22 74q32 20 55.5 31.5t65 21.5t88.5 10q95 0 142 -46t29 -129l-71 -334h-97l14 62q-21 -27 -72 -51.5t-109 -24.5q-73 0 -115 42.5t-28 110.5zM187 77q57 0 110 29.5t60 62.5l12 58l-156 -13q-50 -5 -76 -25t-30 -45 q-7 -32 16.5 -49.5t63.5 -17.5z" glyph-name="adieresis" horiz-adv-x="526" unicode="ä"/><glyph d="M337 564q-47 0 -73.5 33.5t-16.5 81.5q11 46 51 79t86 33q47 0 73.5 -33.5t16.5 -79.5q-10 -47 -50.5 -80.5t-86.5 -33.5zM352 633q18 0 33.5 13t19.5 32q4 17 -6.5 30.5t-27.5 13.5q-19 0 -35 -13t-20 -31q-4 -19 6.5 -32t29.5 -13zM10 139q32 148 224 162l155 13l6 29 q7 37 -20 57.5t-75 20.5q-95 0 -170 -49l-22 74q32 20 55.5 31.5t65 21.5t88.5 10q95 0 142 -46t29 -129l-71 -334h-97l14 62q-21 -27 -72 -51.5t-109 -24.5q-73 0 -115 42.5t-28 110.5zM187 77q57 0 110 29.5t60 62.5l12 58l-156 -13q-50 -5 -76 -25t-30 -45 q-7 -32 16.5 -49.5t63.5 -17.5z" glyph-name="aring" horiz-adv-x="526" unicode="å"/><glyph d="M676 510q107 0 156.5 -74.5t23.5 -195.5l-4 -21h-379q-10 -66 20.5 -104t95.5 -38q77 0 143 76l70 -48q-102 -118 -236 -118q-119 0 -170 88q-39 -37 -99 -63t-133 -26q-80 0 -124 42t-30 111q32 148 224 162l153 13l6 29q8 36 -19.5 56.5t-75.5 20.5q-99 0 -170 -47 l-23 73q35 21 56.5 31.5t63.5 21t92 10.5q127 0 164 -77q84 78 195 78zM766 301q6 54 -24 86.5t-84 32.5q-56 0 -100.5 -33t-61.5 -86h270zM355 169l12 58l-154 -13q-50 -5 -76 -25t-30 -44q-7 -32 16.5 -50.5t63.5 -18.5q56 0 108 29.5t60 63.5z" glyph-name="ae" horiz-adv-x="890" unicode="æ"/><glyph d="M33 246q24 111 116.5 187t204.5 76q87 0 149 -51l-53 -79q-34 25 -56 32.5t-61 7.5q-70 0 -128 -50t-74 -122q-15 -73 22 -121.5t107 -48.5t145 48l13 -85q-55 -30 -93.5 -42t-82.5 -12q-112 0 -172 75t-37 185zM65 -204q112 42 132 149l77 -34q-5 -37 -47 -84t-102 -68z " glyph-name="ccedilla" horiz-adv-x="488" unicode="ç"/><glyph d="M441 582l-66 -34l-125 161l103 42zM34 247q25 116 107.5 189.5t189.5 73.5t157 -75t24 -197l-5 -21h-382q-8 -65 23 -102.5t96 -37.5q77 0 142 71l66 -53q-98 -108 -231 -108q-108 0 -160 72.5t-27 187.5zM149 299h275q5 55 -25.5 88.5t-85.5 33.5q-56 0 -101 -34 t-63 -88z" glyph-name="egrave" horiz-adv-x="546" unicode="è"/><glyph d="M279 582l160 169l87 -42l-194 -161zM34 247q25 116 107.5 189.5t189.5 73.5t157 -75t24 -197l-5 -21h-382q-8 -65 23 -102.5t96 -37.5q77 0 142 71l66 -53q-98 -108 -231 -108q-108 0 -160 72.5t-27 187.5zM149 299h275q5 55 -25.5 88.5t-85.5 33.5q-56 0 -101 -34 t-63 -88z" glyph-name="eacute" horiz-adv-x="546" unicode="é"/><glyph d="M194 598l199 156l134 -156l-81 -52l-78 93l-118 -93zM34 247q25 116 107.5 189.5t189.5 73.5t157 -75t24 -197l-5 -21h-382q-8 -65 23 -102.5t96 -37.5q77 0 142 71l66 -53q-98 -108 -231 -108q-108 0 -160 72.5t-27 187.5zM149 299h275q5 55 -25.5 88.5t-85.5 33.5 q-56 0 -101 -34t-63 -88z" glyph-name="ecircumflex" horiz-adv-x="546" unicode="ê"/><glyph d="M249 571q-26 0 -41 19.5t-9 46.5q4 25 27.5 44.5t49.5 19.5q27 0 42.5 -19t8.5 -46q-5 -26 -28 -45.5t-50 -19.5zM457 571q-26 0 -41 19.5t-9 46.5q5 26 28 45t49 19q27 0 42 -18.5t9 -46.5q-5 -26 -28.5 -45.5t-49.5 -19.5zM34 247q25 116 107.5 189.5t189.5 73.5 t157 -75t24 -197l-5 -21h-382q-8 -65 23 -102.5t96 -37.5q77 0 142 71l66 -53q-98 -108 -231 -108q-108 0 -160 72.5t-27 187.5zM149 299h275q5 55 -25.5 88.5t-85.5 33.5q-56 0 -101 -34t-63 -88z" glyph-name="edieresis" horiz-adv-x="546" unicode="ë"/><glyph d="M249 582l-66 -34l-125 161l103 42zM105 498h97l-106 -498h-97z" glyph-name="igrave" horiz-adv-x="205" unicode="ì"/><glyph d="M76 582l160 169l86 -42l-193 -161zM105 498h97l-106 -498h-97z" glyph-name="iacute" horiz-adv-x="205" unicode="í"/><glyph d="M10 598l199 156l134 -156l-81 -52l-78 93l-118 -93zM105 498h97l-106 -498h-97z" glyph-name="icircumflex" horiz-adv-x="205" unicode="î"/><glyph d="M66 571q-26 0 -41 19.5t-9 46.5q4 25 27.5 44.5t49.5 19.5q27 0 42.5 -19t8.5 -46q-4 -26 -27.5 -45.5t-50.5 -19.5zM274 571q-26 0 -41 19.5t-9 46.5q5 26 28 45t49 19q27 0 42 -18.5t9 -46.5q-5 -26 -28.5 -45.5t-49.5 -19.5zM105 498h97l-106 -498h-97z" glyph-name="idieresis" horiz-adv-x="205" unicode="ï"/><glyph d="M449 677q90 -68 125 -175t6 -235q-28 -125 -117.5 -203t-205.5 -78q-113 0 -174 76t-36 188q16 74 68 136.5t117 95t136 30t120 -49.5q-9 92 -105 162l-61 -51l-46 45l49 41q-64 30 -122 41l51 61q75 -15 138 -47l56 46l45 -46zM476 250q16 76 -20 125t-109 49 q-70 0 -127.5 -49t-72.5 -121q-17 -77 18.5 -126.5t106.5 -49.5q73 0 130 48t74 124z" glyph-name="eth" horiz-adv-x="626" unicode="ð"/><glyph d="M192 615q42 52 79 64.5t63 -1.5t50.5 -29t53 -8.5t60.5 49.5l43 -48q-35 -53 -85.5 -70t-106.5 17q-37 26 -60 22.5t-61 -48.5zM105 498h97l-11 -53q73 65 170 65q94 0 123 -51.5t8 -151.5l-66 -307h-98l63 293q14 67 -1 97t-67 30q-61 0 -108 -41t-61 -108l-58 -271h-97 z" glyph-name="ntilde" horiz-adv-x="535" unicode="ñ"/><glyph d="M441 582l-66 -34l-125 161l103 42zM35 252q22 105 115.5 181t202.5 76q110 0 170.5 -76t37.5 -186q-24 -110 -116.5 -185.5t-204.5 -75.5q-111 0 -170 76.5t-35 189.5zM133 250q-16 -76 19.5 -125t107.5 -49t128.5 48t72.5 123t-20 123.5t-108 48.5q-70 0 -127 -48.5 t-73 -120.5z" glyph-name="ograve" horiz-adv-x="599" unicode="ò"/><glyph d="M317 582l160 169l86 -42l-194 -161zM35 252q22 105 115.5 181t202.5 76q110 0 170.5 -76t37.5 -186q-24 -110 -116.5 -185.5t-204.5 -75.5q-111 0 -170 76.5t-35 189.5zM133 250q-16 -76 19.5 -125t107.5 -49t128.5 48t72.5 123t-20 123.5t-108 48.5q-70 0 -127 -48.5 t-73 -120.5z" glyph-name="oacute" horiz-adv-x="599" unicode="ó"/><glyph d="M218 598l199 156l134 -156l-81 -52l-78 93l-118 -93zM35 252q22 105 115.5 181t202.5 76q110 0 170.5 -76t37.5 -186q-24 -110 -116.5 -185.5t-204.5 -75.5q-111 0 -170 76.5t-35 189.5zM133 250q-16 -76 19.5 -125t107.5 -49t128.5 48t72.5 123t-20 123.5t-108 48.5 q-70 0 -127 -48.5t-73 -120.5z" glyph-name="ocircumflex" horiz-adv-x="599" unicode="ô"/><glyph d="M210 615q42 52 79 64.5t63 -1.5t50.5 -29t53 -8.5t60.5 49.5l42 -48q-34 -53 -84.5 -70t-106.5 17q-37 26 -60 22.5t-61 -48.5zM35 252q22 105 115.5 181t202.5 76q110 0 170.5 -76t37.5 -186q-24 -110 -116.5 -185.5t-204.5 -75.5q-111 0 -170 76.5t-35 189.5zM133 250 q-16 -76 19.5 -125t107.5 -49t128.5 48t72.5 123t-20 123.5t-108 48.5q-70 0 -127 -48.5t-73 -120.5z" glyph-name="otilde" horiz-adv-x="599" unicode="õ"/><glyph d="M262 571q-26 0 -41 19.5t-10 46.5q5 25 28.5 44.5t49.5 19.5q27 0 42 -19t9 -46q-5 -26 -28 -45.5t-50 -19.5zM470 571q-27 0 -41.5 19.5t-9.5 46.5q5 26 28.5 45t49.5 19q27 0 42 -18.5t9 -46.5q-5 -26 -28.5 -45.5t-49.5 -19.5zM35 252q22 105 115.5 181t202.5 76 q110 0 170.5 -76t37.5 -186q-24 -110 -116.5 -185.5t-204.5 -75.5q-111 0 -170 76.5t-35 189.5zM133 250q-16 -76 19.5 -125t107.5 -49t128.5 48t72.5 123t-20 123.5t-108 48.5q-70 0 -127 -48.5t-73 -120.5z" glyph-name="odieresis" horiz-adv-x="599" unicode="ö"/><glyph d="M388 481q-26 0 -40 18.5t-9 44.5q6 25 28.5 43t47.5 18q26 0 40 -18.5t8 -43.5q-5 -26 -27 -44t-48 -18zM90 403h562l-18 -85h-562zM262 178q5 25 27.5 43t47.5 18q26 0 40 -18.5t8 -43.5q-5 -26 -27 -44t-47 -18q-26 0 -40.5 18.5t-8.5 44.5z" glyph-name="divide" horiz-adv-x="680" unicode="÷"/><glyph d="M630 465l-74 -61q37 -70 18 -157q-24 -110 -116.5 -185.5t-204.5 -75.5q-87 0 -144 49l-80 -66l-46 56l81 67q-35 70 -16 160q22 105 115.5 181t202.5 76q87 0 145 -49l75 62zM147 250q-10 -48 1 -89l283 233q-34 25 -85 25q-70 0 -127 -48.5t-72 -120.5zM475 247 q10 49 -2 88l-284 -234q34 -25 84 -25q73 0 129 48t73 123z" glyph-name="oslash" horiz-adv-x="625" unicode="ø"/><glyph d="M408 582l-66 -34l-125 161l104 42zM29 198l64 300h97l-61 -286q-14 -67 4.5 -101t82.5 -34q66 0 99 34.5t47 100.5l60 286h98l-64 -300q-45 -212 -259 -212q-212 0 -168 212z" glyph-name="ugrave" horiz-adv-x="511" unicode="ù"/><glyph d="M256 582l160 169l87 -42l-194 -161zM29 198l64 300h97l-61 -286q-14 -67 4.5 -101t82.5 -34q66 0 99 34.5t47 100.5l60 286h98l-64 -300q-45 -212 -259 -212q-212 0 -168 212z" glyph-name="uacute" horiz-adv-x="511" unicode="ú"/><glyph d="M162 598l198 156l134 -156l-80 -52l-79 93l-118 -93zM29 198l64 300h97l-61 -286q-14 -67 4.5 -101t82.5 -34q66 0 99 34.5t47 100.5l60 286h98l-64 -300q-45 -212 -259 -212q-212 0 -168 212z" glyph-name="ucircumflex" horiz-adv-x="511" unicode="û"/><glyph d="M218 571q-26 0 -41 19.5t-9 46.5q4 25 27.5 44.5t49.5 19.5q27 0 42.5 -19t8.5 -46q-4 -26 -27.5 -45.5t-50.5 -19.5zM426 571q-26 0 -41 19.5t-9 46.5q5 26 28 45t49 19q27 0 42 -18.5t9 -46.5q-5 -26 -28.5 -45.5t-49.5 -19.5zM29 198l64 300h97l-61 -286 q-14 -67 4.5 -101t82.5 -34q66 0 99 34.5t47 100.5l60 286h98l-64 -300q-45 -212 -259 -212q-212 0 -168 212z" glyph-name="udieresis" horiz-adv-x="511" unicode="ü"/><glyph d="M257 582l160 169l86 -42l-194 -161zM548 498l-370 -608q-46 -72 -108 -97t-120 1l46 92q14 -5 25 -7.5t22 0t18.5 3.5t17 10.5t14.5 13.5t15 19l14 21t16 26.5t16 27.5l-97 498h104l69 -367l215 367h103z" glyph-name="yacute" horiz-adv-x="503" unicode="ý"/><glyph d="M-18 -211l197 924h98l-58 -275q80 71 175 71q104 0 157.5 -75.5t28.5 -190.5q-24 -113 -108 -187t-188 -74q-95 0 -148 69l-56 -262h-98zM173 244q-16 -74 17 -122.5t101 -48.5q67 0 120 49t69 125q16 73 -18 122t-99 49q-67 0 -120.5 -49.5t-69.5 -124.5z" glyph-name="thorn" horiz-adv-x="634" unicode="þ"/><glyph d="M219 571q-26 0 -41 19.5t-9 46.5q4 25 27.5 44.5t49.5 19.5q27 0 42.5 -19t8.5 -46q-5 -26 -28 -45.5t-50 -19.5zM427 571q-26 0 -41 19.5t-9 46.5q5 26 28 45t49 19q27 0 42 -18.5t9 -46.5q-5 -26 -28.5 -45.5t-49.5 -19.5zM548 498l-370 -608q-46 -72 -108 -97t-120 1 l46 92q14 -5 25 -7.5t22 0t18.5 3.5t17 10.5t14.5 13.5t15 19l14 21t16 26.5t16 27.5l-97 498h104l69 -367l215 367h103z" glyph-name="ydieresis" horiz-adv-x="503" unicode="ÿ"/><glyph d="M303 844h332l-18 -82h-332zM-43 0l464 713h47l154 -713h-113l-35 175h-293l-112 -175h-112zM245 272h209l-52 246z" glyph-name="Amacron" horiz-adv-x="689" unicode="Ā"/><glyph d="M190 647h332l-18 -82h-332zM10 139q32 148 224 162l155 13l6 29q7 37 -20 57.5t-75 20.5q-95 0 -170 -49l-22 74q32 20 55.5 31.5t65 21.5t88.5 10q95 0 142 -46t29 -129l-71 -334h-97l14 62q-21 -27 -72 -51.5t-109 -24.5q-73 0 -115 42.5t-28 110.5zM187 77 q57 0 110 29.5t60 62.5l12 58l-156 -13q-50 -5 -76 -25t-30 -45q-7 -32 16.5 -49.5t63.5 -17.5z" glyph-name="amacron" horiz-adv-x="526" unicode="ā"/><glyph d="M456 786q-66 0 -99 43.5t-18 112.5h80q-5 -37 9.5 -57.5t45.5 -20.5q60 0 88 78h79q-21 -71 -71 -113.5t-114 -42.5zM-43 0l464 713h47l154 -713h-113l-35 175h-293l-112 -175h-112zM245 272h209l-52 246z" glyph-name="Abreve" horiz-adv-x="689" unicode="Ă"/><glyph d="M343 568q-66 0 -99.5 43.5t-17.5 112.5h80q-5 -37 8.5 -57.5t44.5 -20.5q61 0 90 78h79q-21 -71 -71.5 -113.5t-113.5 -42.5zM10 139q32 148 224 162l155 13l6 29q7 37 -20 57.5t-75 20.5q-95 0 -170 -49l-22 74q32 20 55.5 31.5t65 21.5t88.5 10q95 0 142 -46t29 -129 l-71 -334h-97l14 62q-21 -27 -72 -51.5t-109 -24.5q-73 0 -115 42.5t-28 110.5zM187 77q57 0 110 29.5t60 62.5l12 58l-156 -13q-50 -5 -76 -25t-30 -45q-7 -32 16.5 -49.5t63.5 -17.5z" glyph-name="abreve" horiz-adv-x="526" unicode="ă"/><glyph d="M595 0q-110 -56 -118 -107q-8 -33 29 -34q31 -1 73 22l-30 -80q-65 -34 -116.5 -8t-39.5 86q14 65 116 121l-35 175h-293l-112 -175h-112l464 713h47l154 -713h-27zM245 272h209l-52 246z" glyph-name="Aogonek" horiz-adv-x="689" unicode="Ą"/><glyph d="M317 509q95 0 142 -46t29 -129l-71 -334h-14q-103 -55 -112 -104q-8 -33 29 -34q31 -1 73 22l-30 -80q-65 -34 -116.5 -8t-39.5 86q14 64 113 120l14 60q-21 -27 -72 -51.5t-109 -24.5q-73 0 -115 42.5t-28 110.5q32 148 224 162l155 13l6 29q7 37 -20 57.5t-75 20.5 q-95 0 -170 -49l-22 74q32 20 55.5 31.5t65 21.5t88.5 10zM187 77q57 0 110 29.5t60 62.5l12 58l-156 -13q-50 -5 -76 -25t-30 -45q-7 -32 16.5 -49.5t63.5 -17.5z" glyph-name="aogonek" horiz-adv-x="526" unicode="ą"/><glyph d="M427 796l159 169l86 -42l-193 -161zM55 349q34 156 166 264.5t288 108.5q97 0 172 -50l-66 -93q-61 41 -137 41q-108 0 -199.5 -78t-115.5 -192q-24 -110 35.5 -186t167.5 -76q74 0 170 54l10 -104q-101 -52 -203 -52q-151 0 -235.5 106.5t-52.5 256.5z" glyph-name="Cacute" horiz-adv-x="623" unicode="Ć"/><glyph d="M283 582l160 169l87 -42l-194 -161zM33 246q24 111 116.5 187t204.5 76q87 0 149 -51l-53 -79q-34 25 -56 32.5t-61 7.5q-70 0 -128 -50t-74 -122q-15 -73 22 -121.5t107 -48.5t145 48l13 -85q-55 -30 -93.5 -42t-82.5 -12q-112 0 -172 75t-37 185z" glyph-name="cacute" horiz-adv-x="488" unicode="ć"/><glyph d="M374 916l78 52l79 -93l118 93l58 -52l-200 -156zM55 349q34 156 166 264.5t288 108.5q97 0 172 -50l-66 -93q-61 41 -137 41q-108 0 -199.5 -78t-115.5 -192q-24 -110 35.5 -186t167.5 -76q74 0 170 54l10 -104q-101 -52 -203 -52q-151 0 -235.5 106.5t-52.5 256.5z" glyph-name="Ccaron" horiz-adv-x="623" unicode="Č"/><glyph d="M224 706l78 52l79 -93l117 93l59 -52l-200 -156zM33 246q24 111 116.5 187t204.5 76q87 0 149 -51l-53 -79q-34 25 -56 32.5t-61 7.5q-70 0 -128 -50t-74 -122q-15 -73 22 -121.5t107 -48.5t145 48l13 -85q-55 -30 -93.5 -42t-82.5 -12q-112 0 -172 75t-37 185z" glyph-name="ccaron" horiz-adv-x="488" unicode="č"/><glyph d="M265 916l78 52l79 -93l117 93l59 -52l-201 -156zM157 713h202q172 0 257 -98t51 -259t-161 -258.5t-300 -97.5h-201zM232 97q123 0 214 71t117 187q25 120 -35 190t-186 70h-102l-110 -518h102z" glyph-name="Dcaron" horiz-adv-x="682" unicode="Ď"/><glyph d="M629 713l-152 -713h-99l13 56q-80 -70 -177 -70q-104 0 -157 75.5t-28 190.5q24 113 108 187t188 74q94 0 148 -70l57 270h99zM620 467l141 246l76 -31l-157 -240zM435 250q16 75 -16.5 123.5t-100.5 48.5q-67 0 -120 -49t-69 -125q-16 -73 17.5 -122t99.5 -49 q67 0 120 49.5t69 123.5z" glyph-name="dcaron" horiz-adv-x="711" unicode="ď"/><glyph d="M359 713q172 0 257 -98t51 -259t-161 -258.5t-300 -97.5h-201l57 266h-36l17 82h36l78 365h202zM563 355q25 120 -35 190t-186 70h-102l-57 -267h193l-17 -82h-193l-36 -169h102q123 0 214 71t117 187z" glyph-name="Dcroat" horiz-adv-x="682" unicode="Đ"/><glyph d="M634 657l-17 -81h-17l-123 -576h-99l13 59q-82 -73 -177 -73q-104 0 -157 75.5t-28 190.5q23 111 108 184t192 73q101 0 143 -70l29 137h-217l17 81h217l12 56h99l-12 -56h17zM435 250q15 73 -17.5 121t-99.5 48t-120.5 -48.5t-69.5 -122.5t17.5 -122.5t100.5 -48.5 t120 49t69 124z" glyph-name="dcroat" horiz-adv-x="586" unicode="đ"/><glyph d="M262 844h332l-17 -82h-332zM157 713h484l-21 -98h-381l-39 -180h310l-21 -98h-309l-51 -240h381l-21 -97h-484z" glyph-name="Emacron" horiz-adv-x="592" unicode="Ē"/><glyph d="M205 647h332l-18 -82h-332zM34 247q25 116 107.5 189.5t189.5 73.5t157 -75t24 -197l-5 -21h-382q-8 -65 23 -102.5t96 -37.5q77 0 142 71l66 -53q-98 -108 -231 -108q-108 0 -160 72.5t-27 187.5zM149 299h275q5 55 -25.5 88.5t-85.5 33.5q-56 0 -101 -34t-63 -88z" glyph-name="emacron" horiz-adv-x="546" unicode="ē"/><glyph d="M416 763q-27 0 -41.5 19.5t-9.5 46.5q6 26 29.5 45t49.5 19q27 0 41.5 -19t8.5 -46q-5 -26 -28.5 -45.5t-49.5 -19.5zM157 713h484l-21 -98h-381l-39 -180h310l-21 -98h-309l-51 -240h381l-21 -97h-484z" glyph-name="Edotaccent" horiz-adv-x="592" unicode="Ė"/><glyph d="M355 571q-27 0 -42 19.5t-9 46.5q5 26 28.5 45t49.5 19q27 0 42 -18.5t9 -46.5q-5 -26 -28.5 -45.5t-49.5 -19.5zM34 247q25 116 107.5 189.5t189.5 73.5t157 -75t24 -197l-5 -21h-382q-8 -65 23 -102.5t96 -37.5q77 0 142 71l66 -53q-98 -108 -231 -108 q-108 0 -160 72.5t-27 187.5zM149 299h275q5 55 -25.5 88.5t-85.5 33.5q-56 0 -101 -34t-63 -88z" glyph-name="edotaccent" horiz-adv-x="546" unicode="ė"/><glyph d="M620 615h-381l-39 -180h310l-21 -98h-309l-51 -240h381l-21 -97h-6q-110 -56 -118 -107q-8 -33 29 -34q31 -1 73 22l-30 -80q-65 -34 -116.5 -8t-39.5 86q14 65 116 121h-392l152 713h484z" glyph-name="Eogonek" horiz-adv-x="592" unicode="Ę"/><glyph d="M331 510q107 0 157 -75t24 -197l-5 -21h-382q-8 -65 23 -102.5t96 -37.5q77 0 142 71l66 -53q-76 -85 -174 -103q-93 -51 -103 -99q-7 -33 29 -34q31 -1 73 22l-30 -80q-65 -34 -116.5 -8t-39.5 86q14 59 97 110q-92 11 -134 81.5t-20 176.5q25 116 107.5 189.5 t189.5 73.5zM424 299q5 55 -25.5 88.5t-85.5 33.5q-56 0 -101 -34t-63 -88h275z" glyph-name="eogonek" horiz-adv-x="546" unicode="ę"/><glyph d="M286 916l77 52l79 -93l118 93l58 -52l-200 -156zM157 713h484l-21 -98h-381l-39 -180h310l-21 -98h-309l-51 -240h381l-21 -97h-484z" glyph-name="Ecaron" horiz-adv-x="592" unicode="Ě"/><glyph d="M213 706l77 52l80 -93l117 93l59 -52l-200 -156zM34 247q25 116 107.5 189.5t189.5 73.5t157 -75t24 -197l-5 -21h-382q-8 -65 23 -102.5t96 -37.5q77 0 142 71l66 -53q-98 -108 -231 -108q-108 0 -160 72.5t-27 187.5zM149 299h275q5 55 -25.5 88.5t-85.5 33.5 q-56 0 -101 -34t-63 -88z" glyph-name="ecaron" horiz-adv-x="546" unicode="ě"/><glyph d="M50 353q33 153 165 261t286 108q118 0 199 -70l-75 -83q-58 55 -144 55q-112 0 -207 -79.5t-120 -192.5q-23 -109 37.5 -188.5t167.5 -79.5q64 0 125 30t100 82l20 99h-202l21 98h297l-50 -237q-58 -81 -145.5 -125.5t-187.5 -44.5q-151 0 -235 107.5t-52 259.5zM303 -48 l80 -32l-176 -268l-61 27z" glyph-name="Gcommaaccent" horiz-adv-x="722" unicode="Ģ"/><glyph d="M494 813l-156 -272l-79 32l176 267zM550 498l-15 -74h-60q26 -51 11 -116q-19 -91 -93.5 -151t-169.5 -60q-105 0 -113 -38q-2 -12 4.5 -19t24.5 -10t47.5 -2t74.5 6q90 9 127.5 -23.5t24.5 -94.5q-15 -72 -80.5 -110t-167.5 -38q-147 0 -207 66l69 67q56 -47 153 -44 q129 2 142 60q5 24 -16.5 32.5t-68.5 5.5l-68 -3q-86 -5 -121 24.5t-25 76.5q12 57 78 86q-33 29 -46 73.5t-2 96.5q18 85 93 143t167 58q69 0 115 -33q45 21 122 21zM388 307q11 52 -14.5 84t-78.5 32t-92.5 -32t-50.5 -82q-12 -55 13.5 -89.5t77.5 -34.5q53 0 93.5 34 t51.5 88z" glyph-name="gcommaaccent" horiz-adv-x="529" unicode="ģ"/><glyph d="M82 844h332l-18 -82h-332zM169 713h103l-152 -713h-103z" glyph-name="Imacron" horiz-adv-x="247" unicode="Ī"/><glyph d="M21 647h332l-18 -82h-332zM105 498h97l-106 -498h-97z" glyph-name="imacron" horiz-adv-x="205" unicode="ī"/><glyph d="M169 713h103l-152 -713h-6q-108 -55 -118 -107q-7 -33 29 -34q31 -1 73 22l-30 -80q-65 -34 -116.5 -8t-39.5 86q16 66 116 121h-11z" glyph-name="Iogonek" horiz-adv-x="247" unicode="Į"/><glyph d="M197 701q27 0 42 -18.5t9 -46.5q-5 -26 -28 -45.5t-50 -19.5t-41.5 19.5t-9.5 46.5q5 25 28.5 44.5t49.5 19.5zM-1 0l106 498h97l-106 -498h-11q-110 -56 -118 -107q-8 -33 29 -34q31 -1 73 22l-30 -80q-65 -34 -116.5 -8t-39.5 86q14 65 116 121z" glyph-name="iogonek" horiz-adv-x="205" unicode="į"/><glyph d="M105 498h97l-106 -498h-97z" glyph-name="dotlessi" horiz-adv-x="205" unicode="ı"/><glyph d="M713 713l-343 -286l213 -427h-129l-178 349l-111 -93l-55 -256h-105l152 713h105l-67 -314l378 314h140zM67 -321l157 273l79 -32l-176 -268z" glyph-name="Kcommaaccent" horiz-adv-x="650" unicode="Ķ"/><glyph d="M525 498l-243 -200l163 -298h-118l-127 230l-65 -54l-38 -176h-98l152 713h98l-88 -412l239 197h125zM23 -321l157 273l79 -32l-176 -268z" glyph-name="kcommaaccent" horiz-adv-x="506" unicode="ķ"/><glyph d="M186 796l159 170l86 -43l-194 -160zM157 713h104l-131 -616h335l-21 -97h-439z" glyph-name="Lacute" horiz-adv-x="511" unicode="Ĺ"/><glyph d="M207 796l159 169l86 -42l-193 -161zM157 713h98l-152 -713h-98z" glyph-name="lacute" horiz-adv-x="218" unicode="ĺ"/><glyph d="M157 713h104l-131 -616h335l-21 -97h-439zM224 -48l79 -32l-176 -268l-60 27z" glyph-name="Lcommaaccent" horiz-adv-x="511" unicode="Ļ"/><glyph d="M157 713h98l-152 -713h-98zM40 -48l80 -32l-176 -268l-61 27z" glyph-name="lcommaaccent" horiz-adv-x="218" unicode="ļ"/><glyph d="M201 713h105l-131 -616h334l-21 -97h-439zM304 456l148 257l81 -33l-166 -252z" glyph-name="Lcaron" horiz-adv-x="559" unicode="Ľ"/><glyph d="M157 713h98l-152 -713h-98zM244 456l148 257l81 -33l-166 -252z" glyph-name="lcaron" horiz-adv-x="335" unicode="ľ"/><glyph d="M130 97h335l-21 -97h-439l43 201l-42 55l65 54l86 403h104l-64 -299l136 112l44 -55l-203 -168z" glyph-name="Lslash" horiz-adv-x="511" unicode="Ł"/><glyph d="M311 471l-131 -108l-77 -363h-98l56 265l-78 -65l-43 56l145 120l72 337h98l-51 -239l63 52z" glyph-name="lslash" horiz-adv-x="218" unicode="ł"/><glyph d="M399 796l159 169l86 -42l-193 -161zM5 0l152 713h52l312 -501l108 501h103l-152 -713h-54l-312 496l-105 -496h-104z" glyph-name="Nacute" horiz-adv-x="695" unicode="Ń"/><glyph d="M264 582l160 169l86 -42l-193 -161zM105 498h97l-11 -53q73 65 170 65q94 0 123 -51.5t8 -151.5l-66 -307h-98l63 293q14 67 -1 97t-67 30q-61 0 -108 -41t-61 -108l-58 -271h-97z" glyph-name="nacute" horiz-adv-x="535" unicode="ń"/><glyph d="M5 0l152 713h52l312 -501l108 501h103l-152 -713h-54l-312 496l-105 -496h-104zM277 -48l80 -32l-177 -268l-60 27z" glyph-name="Ncommaaccent" horiz-adv-x="695" unicode="Ņ"/><glyph d="M105 498h97l-11 -53q73 65 170 65q94 0 123 -51.5t8 -151.5l-66 -307h-98l63 293q14 67 -1 97t-67 30q-61 0 -108 -41t-61 -108l-58 -271h-97zM194 -48l79 -32l-176 -268l-60 27z" glyph-name="ncommaaccent" horiz-adv-x="535" unicode="ņ"/><glyph d="M321 916l78 52l79 -93l117 93l59 -52l-201 -156zM5 0l152 713h52l312 -501l108 501h103l-152 -713h-54l-312 496l-105 -496h-104z" glyph-name="Ncaron" horiz-adv-x="695" unicode="Ň"/><glyph d="M209 706l78 52l80 -93l117 93l59 -52l-201 -156zM105 498h97l-11 -53q73 65 170 65q94 0 123 -51.5t8 -151.5l-66 -307h-98l63 293q14 67 -1 97t-67 30q-61 0 -108 -41t-61 -108l-58 -271h-97z" glyph-name="ncaron" horiz-adv-x="535" unicode="ň"/><glyph d="M733 713l-152 -713q-26 -118 -92.5 -172.5t-176.5 -52.5l21 98q25 -1 44 3.5t33 10t25 20.5t18 26t14.5 36.5t11 40.5t10.5 49l-275 434l-105 -493h-104l152 713h52l313 -496l44 206l17 80l45 210h105z" glyph-name="Eng" horiz-adv-x="696" unicode="Ŋ"/><glyph d="M361 511q96 0 124 -50.5t7 -153.5l-48 -226l-16 -74q-47 -216 -259 -212l20 91q25 0 44 3.5t32 7.5t24 18t17 22.5t13.5 34t10.5 39t11 50.5l19 90l31 142q16 65 1.5 96t-70.5 31q-59 0 -106 -40t-60 -98l-60 -282h-97l106 499h97l-10 -49q73 61 169 61z" glyph-name="eng" horiz-adv-x="535" unicode="ŋ"/><glyph d="M359 844h332l-17 -82h-332zM51 358q21 96 89.5 180.5t165.5 134t195 49.5q151 0 237 -109t54 -259q-32 -152 -165 -260t-288 -108q-151 0 -236 108.5t-52 263.5zM361 84q112 0 207 79t119 191q24 113 -36.5 191.5t-171.5 78.5q-109 0 -204.5 -78.5t-119.5 -187.5 q-24 -114 37 -194t169 -80z" glyph-name="Omacron" horiz-adv-x="802" unicode="Ō"/><glyph d="M216 647h333l-18 -82h-333zM35 252q22 105 115.5 181t202.5 76q110 0 170.5 -76t37.5 -186q-24 -110 -116.5 -185.5t-204.5 -75.5q-111 0 -170 76.5t-35 189.5zM133 250q-16 -76 19.5 -125t107.5 -49t128.5 48t72.5 123t-20 123.5t-108 48.5q-70 0 -127 -48.5t-73 -120.5 z" glyph-name="omacron" horiz-adv-x="599" unicode="ō"/><glyph d="M358 799l160 169l86 -43l-194 -160zM531 794l159 170l86 -43l-193 -160zM51 358q21 96 89.5 180.5t165.5 134t195 49.5q151 0 237 -109t54 -259q-32 -152 -165 -260t-288 -108q-151 0 -236 108.5t-52 263.5zM361 84q112 0 207 79t119 191q24 113 -36.5 191.5t-171.5 78.5 q-109 0 -204.5 -78.5t-119.5 -187.5q-24 -114 37 -194t169 -80z" glyph-name="Ohungarumlaut" horiz-adv-x="802" unicode="Ő"/><glyph d="M222 582l160 169l87 -42l-194 -161zM395 577l160 170l86 -42l-194 -161zM35 252q22 105 115.5 181t202.5 76q110 0 170.5 -76t37.5 -186q-24 -110 -116.5 -185.5t-204.5 -75.5q-111 0 -170 76.5t-35 189.5zM133 250q-16 -76 19.5 -125t107.5 -49t128.5 48t72.5 123 t-20 123.5t-108 48.5q-70 0 -127 -48.5t-73 -120.5z" glyph-name="ohungarumlaut" horiz-adv-x="599" unicode="ő"/><glyph d="M1230 615h-381l-38 -180h307l-20 -98h-308l-51 -240h381l-21 -97h-484l22 102q-137 -116 -298 -116q-76 0 -142 33t-106 91q-70 107 -40 248q21 96 89.5 180.5t165.5 134t195 49.5q77 0 140 -31t103 -85l23 107h484zM361 84q112 0 207 79t119 191q24 113 -36.5 191.5 t-171.5 78.5q-109 0 -204.5 -78.5t-119.5 -187.5q-25 -121 41 -198q65 -76 165 -76z" glyph-name="OE" horiz-adv-x="1202" unicode="Œ"/><glyph d="M761 510q107 0 157.5 -74.5t24.5 -195.5l-5 -21h-381q-9 -66 22 -104t96 -38q77 0 144 76l70 -48q-103 -118 -238 -118q-131 0 -177 102q-100 -103 -234 -103q-111 0 -170 76.5t-35 189.5q22 105 115.5 181t202.5 76q64 0 113 -27.5t76 -75.5q88 104 219 104zM853 301 q5 54 -25 86.5t-85 32.5q-56 0 -100.5 -33t-62.5 -86h273zM260 76q72 0 128.5 48t72.5 123t-20 123.5t-108 48.5q-70 0 -127 -48.5t-73 -120.5q-16 -76 19.5 -125t107.5 -49z" glyph-name="oe" horiz-adv-x="976" unicode="œ"/><glyph d="M343 796l159 169l86 -42l-193 -161zM157 713h267q121 0 175.5 -52t33.5 -154q-16 -77 -72 -130t-133 -67l156 -310h-128l-143 301h-140l-64 -301h-104zM370 395q67 0 108.5 29t53.5 83q12 58 -20.5 83t-98.5 25h-173l-46 -220h176z" glyph-name="Racute" horiz-adv-x="651" unicode="Ŕ"/><glyph d="M257 582l160 169l86 -42l-194 -161zM343 398q-39 18 -61 18q-49 0 -81.5 -38t-44.5 -97l-60 -281h-97l106 498h97l-11 -53q24 29 61 47t73 18q46 0 84 -28z" glyph-name="racute" horiz-adv-x="361" unicode="ŕ"/><glyph d="M157 713h267q121 0 175.5 -52t33.5 -154q-16 -77 -72 -130t-133 -67l156 -310h-128l-143 301h-140l-64 -301h-104zM370 395q67 0 108.5 29t53.5 83q12 58 -20.5 83t-98.5 25h-173l-46 -220h176zM230 -48l80 -32l-176 -268l-61 27z" glyph-name="Rcommaaccent" horiz-adv-x="651" unicode="Ŗ"/><glyph d="M343 398q-39 18 -61 18q-49 0 -81.5 -38t-44.5 -97l-60 -281h-97l106 498h97l-11 -53q24 29 61 47t73 18q46 0 84 -28zM54 -48l80 -32l-176 -268l-61 27z" glyph-name="rcommaaccent" horiz-adv-x="361" unicode="ŗ"/><glyph d="M272 916l78 52l79 -93l118 93l58 -52l-200 -156zM157 713h267q121 0 175.5 -52t33.5 -154q-16 -77 -72 -130t-133 -67l156 -310h-128l-143 301h-140l-64 -301h-104zM370 395q67 0 108.5 29t53.5 83q12 58 -20.5 83t-98.5 25h-173l-46 -220h176z" glyph-name="Rcaron" horiz-adv-x="651" unicode="Ř"/><glyph d="M145 706l77 52l80 -93l117 93l59 -52l-200 -156zM343 398q-39 18 -61 18q-49 0 -81.5 -38t-44.5 -97l-60 -281h-97l106 498h97l-11 -53q24 29 61 47t73 18q46 0 84 -28z" glyph-name="rcaron" horiz-adv-x="361" unicode="ř"/><glyph d="M351 796l159 169l86 -42l-193 -161zM214 -14q-74 0 -133 27t-88 72l91 71q23 -32 64 -52t90 -20q57 0 107 29t62 84q11 54 -26.5 80.5t-123.5 49.5q-185 46 -155 192q20 91 102.5 147t184.5 56q127 0 203 -85l-85 -74q-59 64 -140 64q-57 0 -101 -29t-54 -74 q-5 -25 3 -44t31 -32.5t43 -21t57 -17.5q106 -29 146.5 -78.5t23.5 -128.5q-22 -101 -107 -158.5t-195 -57.5z" glyph-name="Sacute" horiz-adv-x="558" unicode="Ś"/><glyph d="M257 582l160 169l86 -42l-194 -161zM165 -15q-56 0 -104.5 21t-77.5 57l75 66q31 -30 61.5 -42t75.5 -12q47 0 81.5 19t40.5 47q8 35 -35 50q-9 4 -89 23q-150 36 -127 143q14 68 77 110t154 42q103 0 160 -59l-53 -78q-59 48 -126 48q-49 0 -79.5 -16.5t-36.5 -45.5 q-6 -26 19.5 -38.5t93.5 -26.5q81 -18 115.5 -52.5t22.5 -95.5q-16 -74 -81.5 -117t-166.5 -43z" glyph-name="sacute" horiz-adv-x="461" unicode="ś"/><glyph d="M214 -14q-74 0 -133 27t-88 72l91 71q23 -32 64 -52t90 -20q57 0 107 29t62 84q11 54 -26.5 80.5t-123.5 49.5q-185 46 -155 192q20 91 102.5 147t184.5 56q127 0 203 -85l-85 -74q-59 64 -140 64q-57 0 -101 -29t-54 -74q-5 -25 3 -44t31 -32.5t43 -21t57 -17.5 q106 -29 146.5 -78.5t23.5 -128.5q-22 -101 -107 -158.5t-195 -57.5zM61 -204q112 42 132 149l77 -34q-5 -37 -47 -84t-102 -68z" glyph-name="Scedilla" horiz-adv-x="558" unicode="Ş"/><glyph d="M165 -15q-56 0 -104.5 21t-77.5 57l75 66q31 -30 61.5 -42t75.5 -12q47 0 81.5 19t40.5 47q8 35 -35 50q-9 4 -89 23q-150 36 -127 143q14 68 77 110t154 42q103 0 160 -59l-53 -78q-59 48 -126 48q-49 0 -79.5 -16.5t-36.5 -45.5q-6 -26 19.5 -38.5t93.5 -26.5 q81 -18 115.5 -52.5t22.5 -95.5q-16 -74 -81.5 -117t-166.5 -43zM28 -204q112 42 132 149l77 -34q-5 -37 -47 -84t-102 -68z" glyph-name="scedilla" horiz-adv-x="461" unicode="ş"/><glyph d="M271 916l78 52l79 -93l117 93l59 -52l-201 -156zM214 -14q-74 0 -133 27t-88 72l91 71q23 -32 64 -52t90 -20q57 0 107 29t62 84q11 54 -26.5 80.5t-123.5 49.5q-185 46 -155 192q20 91 102.5 147t184.5 56q127 0 203 -85l-85 -74q-59 64 -140 64q-57 0 -101 -29t-54 -74 q-5 -25 3 -44t31 -32.5t43 -21t57 -17.5q106 -29 146.5 -78.5t23.5 -128.5q-22 -101 -107 -158.5t-195 -57.5z" glyph-name="Scaron" horiz-adv-x="558" unicode="Š"/><glyph d="M175 706l78 52l80 -93l117 93l59 -52l-201 -156zM165 -15q-56 0 -104.5 21t-77.5 57l75 66q31 -30 61.5 -42t75.5 -12q47 0 81.5 19t40.5 47q8 35 -35 50q-9 4 -89 23q-150 36 -127 143q14 68 77 110t154 42q103 0 160 -59l-53 -78q-59 48 -126 48q-49 0 -79.5 -16.5 t-36.5 -45.5q-6 -26 19.5 -38.5t93.5 -26.5q81 -18 115.5 -52.5t22.5 -95.5q-16 -74 -81.5 -117t-166.5 -43z" glyph-name="scaron" horiz-adv-x="461" unicode="š"/><glyph d="M305 615h-217l21 98h538l-21 -98h-217l-131 -615h-104zM53 -204q112 42 132 149l77 -34q-5 -37 -47 -84t-102 -68z" glyph-name="Tcommaaccent" horiz-adv-x="562" unicode="Ţ"/><glyph d="M144 498l36 173l107 42l-46 -215h125l-19 -91h-126l-45 -216q-17 -81 8 -101.5t89 5.5l11 -86q-48 -23 -95 -23q-154 0 -116 178l51 243h-57l20 91h57zM-16 -204q113 42 132 149l78 -34q-6 -38 -47.5 -84.5t-101.5 -67.5z" glyph-name="tcommaaccent" horiz-adv-x="361" unicode="ţ"/><glyph d="M258 916l78 52l79 -93l117 93l59 -52l-201 -156zM305 615h-217l21 98h538l-21 -98h-217l-131 -615h-104z" glyph-name="Tcaron" horiz-adv-x="562" unicode="Ť"/><glyph d="M304 581l112 195l76 -29l-129 -191zM144 498l36 173l107 42l-46 -215h125l-19 -91h-126l-45 -216q-17 -81 8 -101.5t89 5.5l11 -86q-48 -23 -95 -23q-154 0 -116 178l51 243h-57l20 91h57z" glyph-name="tcaron" horiz-adv-x="361" unicode="ť"/><glyph d="M626 615h-217l-57 -267h118l-17 -82h-118l-57 -266h-104l57 266h-111l17 82h111l57 267h-217l21 98h538z" glyph-name="Tbar" horiz-adv-x="562" unicode="Ŧ"/><glyph d="M190 256l-14 -65q-17 -81 8 -101.5t89 5.5l11 -86q-48 -23 -95 -23q-154 0 -116 178l19 92h-66l17 82h67l14 69h-57l20 91h57l36 173l107 42l-46 -215h125l-19 -91h-126l-14 -69h169l-17 -82h-169z" glyph-name="tbar" horiz-adv-x="361" unicode="ŧ"/><glyph d="M295 844h332l-17 -82h-332zM71 87q-35 58 -11 172l97 454h103l-96 -452q-18 -84 12.5 -128t125.5 -44q96 0 144 43.5t67 128.5l96 452h104l-97 -454q-23 -112 -85 -172q-97 -99 -249 -99q-157 0 -211 99z" glyph-name="Umacron" horiz-adv-x="676" unicode="Ū"/><glyph d="M172 647h332l-18 -82h-332zM29 198l64 300h97l-61 -286q-14 -67 4.5 -101t82.5 -34q66 0 99 34.5t47 100.5l60 286h98l-64 -300q-45 -212 -259 -212q-212 0 -168 212z" glyph-name="umacron" horiz-adv-x="511" unicode="ū"/><glyph d="M443 751q-48 0 -74 33.5t-16 81.5q10 45 50.5 78.5t86.5 33.5t73 -33.5t17 -79.5q-11 -47 -51 -80.5t-86 -33.5zM457 820q18 0 34.5 13t20.5 32q4 18 -7 31t-29 13q-19 0 -34.5 -13t-19.5 -31q-4 -19 6 -32t29 -13zM71 87q-35 58 -11 172l97 454h103l-96 -452 q-18 -84 12.5 -128t125.5 -44q96 0 144 43.5t67 128.5l96 452h104l-97 -454q-23 -112 -85 -172q-97 -99 -249 -99q-157 0 -211 99z" glyph-name="Uring" horiz-adv-x="676" unicode="Ů"/><glyph d="M321 564q-48 0 -74 33.5t-16 81.5q10 46 50.5 79t86.5 33q47 0 73 -33.5t16 -79.5q-9 -46 -49.5 -80t-86.5 -34zM336 633q17 0 33 13.5t20 31.5q4 17 -6.5 30.5t-27.5 13.5q-19 0 -35 -13t-21 -31q-4 -19 7 -32t30 -13zM29 198l64 300h97l-61 -286q-14 -67 4.5 -101 t82.5 -34q66 0 99 34.5t47 100.5l60 286h98l-64 -300q-45 -212 -259 -212q-212 0 -168 212z" glyph-name="uring" horiz-adv-x="511" unicode="ů"/><glyph d="M302 799l159 169l86 -43l-193 -160zM474 794l159 170l87 -43l-194 -160zM71 87q-35 58 -11 172l97 454h103l-96 -452q-18 -84 12.5 -128t125.5 -44q96 0 144 43.5t67 128.5l96 452h104l-97 -454q-23 -112 -85 -172q-97 -99 -249 -99q-157 0 -211 99z" glyph-name="Uhungarumlaut" horiz-adv-x="676" unicode="Ű"/><glyph d="M173 582l160 169l86 -42l-193 -161zM346 577l159 170l87 -42l-194 -161zM29 198l64 300h97l-61 -286q-14 -67 4.5 -101t82.5 -34q66 0 99 34.5t47 100.5l60 286h98l-64 -300q-45 -212 -259 -212q-212 0 -168 212z" glyph-name="uhungarumlaut" horiz-adv-x="511" unicode="ű"/><glyph d="M609 713h104l-97 -454q-23 -112 -85 -172q-85 -87 -212 -97q-90 -50 -99 -97q-8 -33 29 -34q31 -1 73 22l-30 -80q-65 -34 -116.5 -8t-39.5 86q12 58 100 112q-119 14 -165 96q-35 58 -11 172l97 454h103l-96 -452q-18 -84 12.5 -128t125.5 -44q96 0 144 43.5t67 128.5z " glyph-name="Uogonek" horiz-adv-x="676" unicode="Ų"/><glyph d="M422 498h98l-64 -300q-37 -175 -193 -206q-93 -51 -103 -99q-7 -33 29 -34q31 -1 73 22l-30 -80q-65 -34 -116.5 -8t-39.5 86q14 58 94 108q-182 14 -141 211l64 300h97l-61 -286q-14 -67 4.5 -101t82.5 -34q66 0 99 34.5t47 100.5z" glyph-name="uogonek" horiz-adv-x="511" unicode="ų"/><glyph d="M461 812l199 156l134 -156l-80 -52l-78 94l-119 -94zM103 713h112l69 -490l296 490h44l77 -491l297 491h111l-434 -713h-47l-75 488l-296 -488h-47z" glyph-name="Wcircumflex" horiz-adv-x="1018" unicode="Ŵ"/><glyph d="M297 598l198 156l134 -156l-80 -52l-79 93l-118 -93zM57 498h105l58 -319l194 319h46l58 -319l194 319h105l-318 -498h-39l-63 314l-198 -314h-38z" glyph-name="wcircumflex" horiz-adv-x="772" unicode="ŵ"/><glyph d="M245 812l198 156l135 -156l-81 -52l-77 94l-119 -94zM251 305l-148 408h119l104 -293l233 293h119l-325 -408l-65 -305h-102z" glyph-name="Ycircumflex" horiz-adv-x="587" unicode="Ŷ"/><glyph d="M156 598l198 156l134 -156l-80 -52l-79 93l-118 -93zM548 498l-370 -608q-46 -72 -108 -97t-120 1l46 92q14 -5 25 -7.5t22 0t18.5 3.5t17 10.5t14.5 13.5t15 19l14 21t16 26.5t16 27.5l-97 498h104l69 -367l215 367h103z" glyph-name="ycircumflex" horiz-adv-x="503" unicode="ŷ"/><glyph d="M297 763q-27 0 -42 19.5t-9 46.5q6 26 29.5 45t49.5 19t41 -19t10 -46q-6 -26 -29.5 -45.5t-49.5 -19.5zM505 763q-27 0 -41.5 19.5t-9.5 46.5q6 26 29.5 45t49.5 19q27 0 41.5 -18.5t9.5 -46.5q-6 -26 -29.5 -45.5t-49.5 -19.5zM251 305l-148 408h119l104 -293l233 293 h119l-325 -408l-65 -305h-102z" glyph-name="Ydieresis" horiz-adv-x="587" unicode="Ÿ"/><glyph d="M375 796l159 169l86 -42l-193 -161zM485 615h-328l-15 98h513l-13 -61l-501 -555h368l15 -97h-549l14 65z" glyph-name="Zacute" horiz-adv-x="597" unicode="Ź"/><glyph d="M257 582l160 169l86 -42l-194 -161zM326 410h-210l-10 88h389l-9 -44l-342 -366h253l9 -88h-425l9 41z" glyph-name="zacute" horiz-adv-x="493" unicode="ź"/><glyph d="M407 763q-27 0 -41.5 19.5t-9.5 46.5q6 26 29.5 45t49.5 19t41 -18.5t10 -46.5q-6 -26 -29.5 -45.5t-49.5 -19.5zM485 615h-328l-15 98h513l-13 -61l-501 -555h368l15 -97h-549l14 65z" glyph-name="Zdotaccent" horiz-adv-x="597" unicode="Ż"/><glyph d="M320 571q-27 0 -41.5 19.5t-9.5 46.5q5 25 28.5 44.5t49.5 19.5q27 0 42 -18.5t9 -46.5q-5 -26 -28 -45.5t-50 -19.5zM326 410h-210l-10 88h389l-9 -44l-342 -366h253l9 -88h-425l9 41z" glyph-name="zdotaccent" horiz-adv-x="493" unicode="ż"/><glyph d="M274 916l78 52l79 -93l118 93l58 -52l-200 -156zM485 615h-328l-15 98h513l-13 -61l-501 -555h368l15 -97h-549l14 65z" glyph-name="Zcaron" horiz-adv-x="597" unicode="Ž"/><glyph d="M185 706l77 52l80 -93l117 93l59 -52l-200 -156zM326 410h-210l-10 88h389l-9 -44l-342 -366h253l9 -88h-425l9 41z" glyph-name="zcaron" horiz-adv-x="493" unicode="ž"/><glyph d="M-159 582l-66 -34l-125 161l103 42z" glyph-name="gravecomb" horiz-adv-x="0" unicode="̀"/><glyph d="M-347 582l160 169l86 -42l-194 -161z" glyph-name="acutecomb" horiz-adv-x="0" unicode="́"/><glyph d="M-403 598l199 156l134 -156l-81 -52l-78 93l-118 -93z" glyph-name="uni0302" horiz-adv-x="0" unicode="̂"/><glyph d="M-394 615q42 52 79 64.5t63 -1.5t50.5 -29t53 -8.5t60.5 49.5l42 -48q-34 -53 -84.5 -70t-106.5 17q-37 26 -60 22.5t-61 -48.5z" glyph-name="tildecomb" horiz-adv-x="0" unicode="̃"/><glyph d="M-383 647h333l-18 -82h-333z" glyph-name="uni0304" horiz-adv-x="0" unicode="̄"/><glyph d="M-235 568q-66 0 -99.5 43.5t-17.5 112.5h80q-5 -37 8.5 -57.5t44.5 -20.5q61 0 90 78h79q-21 -71 -71.5 -113.5t-113.5 -42.5z" glyph-name="uni0306" horiz-adv-x="0" unicode="̆"/><glyph d="M-244 571q-27 0 -41.5 19.5t-9.5 46.5q5 25 28.5 44.5t49.5 19.5q27 0 42 -18.5t9 -46.5q-5 -26 -28 -45.5t-50 -19.5z" glyph-name="uni0307" horiz-adv-x="0" unicode="̇"/><glyph d="M-346 571q-26 0 -41 19.5t-9 46.5q4 25 27.5 44.5t49.5 19.5q27 0 42.5 -19t8.5 -46q-5 -26 -28 -45.5t-50 -19.5zM-138 571q-26 0 -41 19.5t-9 46.5q5 26 28 45t49 19q27 0 42 -18.5t9 -46.5q-5 -26 -28.5 -45.5t-49.5 -19.5z" glyph-name="uni0308" horiz-adv-x="0" unicode="̈"/><glyph d="M-235 564q-47 0 -73.5 33.5t-16.5 81.5q11 46 51 79t86 33q47 0 73.5 -33.5t16.5 -79.5q-10 -47 -50.5 -80.5t-86.5 -33.5zM-220 633q18 0 33.5 13t19.5 32q4 17 -6.5 30.5t-27.5 13.5q-19 0 -35 -13t-20 -31q-4 -19 6.5 -32t29.5 -13z" glyph-name="uni030A" horiz-adv-x="0" unicode="̊"/><glyph d="M-427 582l160 169l86 -42l-194 -161zM-255 577l160 170l86 -42l-193 -161z" glyph-name="uni030B" horiz-adv-x="0" unicode="̋"/><glyph d="M-381 706l77 52l80 -93l117 93l59 -52l-200 -156z" glyph-name="uni030C" horiz-adv-x="0" unicode="̌"/><glyph d="M-381 573l176 267l59 -27l-156 -272z" glyph-name="uni0312" horiz-adv-x="0" unicode="̒"/><glyph d="M-376 -48l79 -32l-176 -268l-60 27z" glyph-name="uni0326" horiz-adv-x="0" unicode="̦"/><glyph d="M-539 -204q112 42 132 149l77 -34q-5 -37 -47 -84t-102 -68z" glyph-name="uni0327" horiz-adv-x="0" unicode="̧"/><glyph d="M-322 -121q16 66 116 121h86q-108 -55 -118 -107q-7 -33 29 -34q31 -1 73 22l-30 -80q-65 -34 -116.5 -8t-39.5 86z" glyph-name="uni0328" horiz-adv-x="0" unicode="̨"/><glyph d="M-677 348h333l-17 -82h-333z" glyph-name="uni0335" horiz-adv-x="0" unicode="̵"/><glyph d="M-223 471l-328 -271l-43 56l327 270z" glyph-name="uni0337" horiz-adv-x="0" unicode="̷"/><glyph d="M40 673l-876 -718l-44 57l875 717z" glyph-name="uni0338" horiz-adv-x="0" unicode="̸"/><glyph d="M562 500l-66 -310q-15 -75 5 -92q25 -27 81 -10l-21 -96q-25 -6 -49 -6q-79 0 -112 46q-31 40 -11 132l71 336h-185l-106 -500h-101l106 500h-87l20 94h579l-20 -94h-104z" glyph-name="pi" horiz-adv-x="654" unicode="π"/><glyph d="M685 797l-67 -34l-125 160l103 43zM103 713h112l69 -490l296 490h44l77 -491l297 491h111l-434 -713h-47l-75 488l-296 -488h-47z" glyph-name="Wgrave" horiz-adv-x="1018" unicode="Ẁ"/><glyph d="M510 582l-66 -34l-125 161l103 42zM57 498h105l58 -319l194 319h46l58 -319l194 319h105l-318 -498h-39l-63 314l-198 -314h-38z" glyph-name="wgrave" horiz-adv-x="772" unicode="ẁ"/><glyph d="M554 796l159 169l86 -42l-194 -161zM103 713h112l69 -490l296 490h44l77 -491l297 491h111l-434 -713h-47l-75 488l-296 -488h-47z" glyph-name="Wacute" horiz-adv-x="1018" unicode="Ẃ"/><glyph d="M406 582l160 169l86 -42l-193 -161zM57 498h105l58 -319l194 319h46l58 -319l194 319h105l-318 -498h-39l-63 314l-198 -314h-38z" glyph-name="wacute" horiz-adv-x="772" unicode="ẃ"/><glyph d="M513 763q-27 0 -42 19.5t-9 46.5q6 26 29.5 45t49.5 19t41 -19t10 -46q-6 -26 -29.5 -45.5t-49.5 -19.5zM721 763q-27 0 -41.5 19.5t-9.5 46.5q6 26 29.5 45t49.5 19q27 0 41.5 -18.5t9.5 -46.5q-6 -26 -29.5 -45.5t-49.5 -19.5zM103 713h112l69 -490l296 490h44l77 -491 l297 491h111l-434 -713h-47l-75 488l-296 -488h-47z" glyph-name="Wdieresis" horiz-adv-x="1018" unicode="Ẅ"/><glyph d="M353 571q-26 0 -41 19.5t-9 46.5q4 25 27.5 44.5t49.5 19.5q27 0 42.5 -19t8.5 -46q-5 -26 -28 -45.5t-50 -19.5zM561 571q-26 0 -41 19.5t-9 46.5q5 26 28 45t49 19q27 0 42 -18.5t9 -46.5q-5 -26 -28.5 -45.5t-49.5 -19.5zM57 498h105l58 -319l194 319h46l58 -319 l194 319h105l-318 -498h-39l-63 314l-198 -314h-38z" glyph-name="wdieresis" horiz-adv-x="772" unicode="ẅ"/><glyph d="M481 797l-67 -34l-125 160l103 43zM251 305l-148 408h119l104 -293l233 293h119l-325 -408l-65 -305h-102z" glyph-name="Ygrave" horiz-adv-x="587" unicode="Ỳ"/><glyph d="M402 582l-66 -34l-125 161l104 42zM548 498l-370 -608q-46 -72 -108 -97t-120 1l46 92q14 -5 25 -7.5t22 0t18.5 3.5t17 10.5t14.5 13.5t15 19l14 21t16 26.5t16 27.5l-97 498h104l69 -367l215 367h103z" glyph-name="ygrave" horiz-adv-x="503" unicode="ỳ"/><glyph d="M70 302h440l-21 -93h-440z" glyph-name="endash" horiz-adv-x="560" unicode="–"/><glyph d="M70 302h710l-21 -93h-710z" glyph-name="emdash" horiz-adv-x="830" unicode="—"/><glyph d="M113 473l176 266l61 -26l-157 -272z" glyph-name="quoteleft" horiz-adv-x="321" unicode="‘"/><glyph d="M153 441l-61 26l157 272l80 -32z" glyph-name="quoteright" horiz-adv-x="246" unicode="’"/><glyph d="M104 118l73 -32l-227 -256l-55 26z" glyph-name="quotesinglbase" horiz-adv-x="317" unicode="‚"/><glyph d="M115 481l174 258l61 -26l-155 -264zM467 739l60 -26l-154 -264l-81 32z" glyph-name="quotedblleft" horiz-adv-x="499" unicode="“"/><glyph d="M175 449l-61 26l155 264l81 -32zM525 707l-173 -258l-61 26l155 264z" glyph-name="quotedblright" horiz-adv-x="499" unicode="”"/><glyph d="M41 -173l-61 26l155 264l80 -32zM391 85l-173 -258l-61 26l155 264z" glyph-name="quotedblbase" horiz-adv-x="512" unicode="„"/><glyph d="M327 419h-173l21 97h173l42 197h101l-42 -197h174l-21 -97h-174l-134 -630h-101z" glyph-name="dagger" horiz-adv-x="688" unicode="†"/><glyph d="M65 0l21 97h173l68 322h-173l21 97h173l42 197h101l-42 -197h174l-21 -97h-174l-68 -322h174l-21 -97h-174l-45 -211h-101l45 211h-173z" glyph-name="daggerdbl" horiz-adv-x="720" unicode="‡"/><glyph d="M271 160q-71 0 -111 50t-24 120q15 73 75.5 122.5t134.5 49.5q69 0 107.5 -50.5t23.5 -120.5q-15 -71 -75.5 -121t-130.5 -50z" glyph-name="bullet" horiz-adv-x="582" unicode="•"/><glyph d="M46 52q6 25 29 44t48 19q26 0 41 -18.5t9 -44.5q-6 -27 -28 -45.5t-48 -18.5q-27 0 -41.5 19t-9.5 45zM350 52q5 25 28 44t49 19t40.5 -18.5t9.5 -44.5q-6 -27 -28.5 -45.5t-48.5 -18.5t-41 19t-9 45zM642 52q6 25 29 44t48 19q27 0 41.5 -18.5t8.5 -44.5 q-5 -27 -27.5 -45.5t-48.5 -18.5t-41 19t-10 45z" glyph-name="ellipsis" horiz-adv-x="903" unicode="…"/><glyph d="M234 398q-68 0 -105.5 47.5t-22.5 117.5q14 64 72 111t125 47q68 0 106 -47.5t24 -114.5t-72 -114t-127 -47zM128 0l503 713h88l-502 -713h-89zM252 477q33 0 62.5 24.5t36.5 59.5q7 33 -11.5 56.5t-52.5 23.5t-63 -23.5t-36 -55.5q-8 -36 10.5 -60.5t53.5 -24.5z M415 150q13 64 71 110.5t125 46.5q69 0 107 -46.5t23 -114.5q-14 -67 -72 -113.5t-128 -46.5q-68 0 -104.5 47.5t-21.5 116.5zM784 150q13 64 71 110.5t125 46.5q69 0 107 -46.5t24 -114.5q-14 -67 -72 -113.5t-128 -46.5q-68 0 -105 47.5t-22 116.5zM496 149 q-7 -35 11.5 -60t52.5 -25t62.5 24.5t36.5 58.5q7 34 -12 58t-53 24q-32 0 -61.5 -24t-36.5 -56zM866 149q-7 -35 11.5 -60t51.5 -25q34 0 63 24.5t36 58.5q8 34 -11 58t-53 24q-33 0 -62 -24t-36 -56z" glyph-name="perthousand" horiz-adv-x="1175" unicode="‰"/><glyph d="M44 256l226 224l55 -50l-174 -174l101 -170l-76 -51z" glyph-name="guilsinglleft" horiz-adv-x="349" unicode="‹"/><glyph d="M304 256l-226 -221l-55 51l175 170l-101 174l75 50z" glyph-name="guilsinglright" horiz-adv-x="349" unicode="›"/><glyph d="M-212 3l563 711l72 -1l-563 -713z" glyph-name="fraction" horiz-adv-x="175" unicode="⁄"/><glyph d="M96 540q16 78 63 130t105 52q59 0 83.5 -52t7.5 -131q-16 -77 -62 -131t-107 -54t-84 54.5t-6 131.5zM197 403q35 0 65 38.5t42 96.5q14 58 0.5 97t-50.5 39q-36 0 -65.5 -38t-41.5 -97q-14 -59 -1 -97.5t51 -38.5z" glyph-name="uni2070" horiz-adv-x="331" unicode="⁰"/><glyph d="M204 356l12 56h-160l7 32l241 269h27l-54 -253h43l-10 -48h-43l-12 -56h-51zM132 460h94l29 138z" glyph-name="uni2074" horiz-adv-x="325" unicode="⁴"/><glyph d="M99 447q18 -48 67 -48q34 0 61.5 22t34.5 57q7 32 -8 53.5t-56 21.5q-37 0 -63 -17l-23 22l74 155h173l-11 -50h-134l-35 -70q12 4 30 4q59 0 85.5 -33.5t16.5 -84.5q-12 -55 -57 -91.5t-101 -36.5q-74 0 -101 69z" glyph-name="uni2075" horiz-adv-x="300" unicode="⁵"/><glyph d="M81 471q9 44 48 84l146 158h61l-112 -122q52 8 85.5 -28t21.5 -90q-11 -51 -55 -87.5t-96 -36.5q-51 0 -80 36t-19 86zM133 472q-7 -31 10 -52.5t47 -21.5t56.5 21.5t32.5 51.5q7 32 -9.5 53.5t-47.5 21.5q-30 0 -56.5 -21.5t-32.5 -52.5z" glyph-name="uni2076" horiz-adv-x="321" unicode="⁶"/><glyph d="M312 663h-181l10 50h252l-6 -30l-284 -327h-58z" glyph-name="uni2077" horiz-adv-x="345" unicode="⁷"/><glyph d="M79 462q12 55 63 83q-31 29 -20 76q9 43 45 72t79 29t66.5 -29t14.5 -72q-9 -47 -53 -76q38 -27 27 -83q-10 -46 -48 -76.5t-85 -30.5t-73 30.5t-16 76.5zM214 568q22 0 40.5 15t22.5 37q5 22 -7 38t-34 16t-41 -15.5t-23 -37.5q-5 -22 7 -37.5t35 -15.5zM130 464 q-5 -25 8.5 -43t38.5 -18t46.5 17.5t26.5 41.5q5 25 -9 42.5t-39 17.5q-24 0 -45.5 -17.5t-26.5 -40.5z" glyph-name="uni2078" horiz-adv-x="293" unicode="⁸"/><glyph d="M358 600q-9 -42 -48 -84l-144 -155h-61l110 119q-52 -8 -85.5 28t-21.5 90q11 51 55 87.5t96 36.5t81 -36t18 -86zM306 599q7 32 -10 53.5t-48 21.5q-29 0 -55.5 -22t-32.5 -52q-7 -32 9.5 -53.5t47.5 -21.5t56.5 21.5t32.5 52.5z" glyph-name="uni2079" horiz-adv-x="321" unicode="⁹"/><glyph d="M572 619q-71 0 -138 -36t-113 -97h336l-52 -89h-521l51 89h71q64 106 172.5 171t226.5 65q96 0 170 -50l-64 -93q-60 40 -139 40zM462 89q73 0 169 53l10 -104q-101 -52 -203 -52q-119 0 -199.5 70t-93.5 180h-96l52 89h469l-52 -89h-259q18 -67 71.5 -107t131.5 -40z " glyph-name="Euro" horiz-adv-x="742" unicode="€"/><glyph d="M501 385q50 -23 71 -70t8 -108q-20 -91 -90 -145t-172 -61l-21 -99h-83l21 98h-49l-21 -98h-82l21 98h-99l152 713h98l20 91h82l-19 -91h49l19 91h83l-21 -99q72 -16 102 -65.5t14 -126.5q-17 -78 -83 -128zM482 512q11 55 -14 79t-83 24h-146l-43 -206h143 q120 0 143 103zM478 208q13 59 -24 84.5t-115 25.5h-163l-47 -221h174q151 0 175 111z" glyph-name="uni20BF" horiz-adv-x="626" unicode="₿"/><glyph d="M91 462q23 108 116.5 184t204.5 76q104 0 164 -77.5t38 -183.5q-23 -108 -116.5 -185t-200.5 -77q-110 0 -169.5 76.5t-36.5 186.5zM138 462q-19 -91 30.5 -153.5t138.5 -62.5q88 0 164 62.5t95 152.5q18 87 -31 150t-136 63q-97 0 -176 -72q-66 -57 -85 -140zM298 607 h109q49 0 71 -22.5t14 -63.5q-8 -40 -39 -62.5t-75 -22.5h-65l-25 -118h-52zM386 484q46 0 55 37q4 19 -5.5 28t-34.5 9h-62l-16 -74h63z" glyph-name="uni2117" horiz-adv-x="613" unicode="℗"/><glyph d="M148 502q-46 0 -65 30l26 20q17 -21 46 -21q16 0 30.5 8.5t17.5 23.5q4 16 -7.5 24.5t-35.5 14.5q-53 13 -45 56q6 26 30 42t53 16q38 0 58 -25l-24 -22q-17 19 -41 19q-17 0 -29.5 -8t-14.5 -21q-5 -24 39 -34q58 -14 48 -60q-6 -29 -30.5 -46t-55.5 -17zM238 506 l76 207h14l36 -151l102 151h13l-13 -207h-31l9 130l-86 -130h-12l-31 130l-46 -130h-31z" glyph-name="uni2120" horiz-adv-x="438" unicode="℠"/><glyph d="M175 679h-62l8 34h157l-7 -34h-60l-37 -173h-35zM250 505l75 208h19l34 -144l96 144h17l-14 -207h-36l9 117l-78 -117h-16l-30 117l-41 -117z" glyph-name="trademark" horiz-adv-x="448" unicode="™"/><glyph d="M316 -13q-156 0 -227.5 104t-37.5 264t150.5 263.5t273.5 103.5q154 0 224.5 -100.5t40.5 -267.5h-539l-52 -241q63 -79 177 -79q167 0 292 160l41 -28q-87 -95 -165.5 -138.5t-177.5 -40.5zM600 402l41 194q-66 80 -178 80q-114 0 -210 -81l-41 -192z" glyph-name="estimated" horiz-adv-x="750" unicode="℮"/><glyph d="M62 3l564 711l72 -1l-564 -713zM212 663h-54l11 50h104l-76 -357h-51zM445 94q11 56 63 84q-31 29 -20 76q9 43 44.5 71.5t79.5 28.5q43 0 66.5 -28.5t15.5 -71.5q-11 -48 -54 -76q38 -26 27 -83q-10 -46 -48 -77t-85 -31q-48 0 -73.5 30.5t-15.5 76.5zM579 200 q22 0 40.5 15.5t23.5 37.5q4 22 -7.5 37.5t-33.5 15.5q-21 0 -40.5 -15.5t-23.5 -36.5q-5 -23 7 -38.5t34 -15.5zM496 97q-5 -26 8.5 -43.5t38.5 -17.5t46 17.5t26 41.5t-8 41.5t-38 17.5q-24 0 -46 -17t-27 -40z" glyph-name="oneeighth" horiz-adv-x="773" unicode="⅛"/><glyph d="M201 352q-48 0 -71 28.5t-15 79.5h49q-2 -59 48 -59q26 0 47.5 18t26.5 45q6 30 -9.5 43t-50.5 14l10 46q67 0 78 53q5 23 -6.5 37t-34.5 14q-25 0 -38.5 -12.5t-25.5 -42.5h-50q35 103 124 103q45 0 68.5 -28t14.5 -71q-11 -49 -54 -75q36 -28 25 -84q-11 -47 -49 -78 t-87 -31zM152 3l564 711l72 -1l-564 -713zM550 94q12 56 63 84q-29 28 -20 76q9 43 44.5 71.5t79.5 28.5t67 -28.5t14 -71.5q-10 -49 -53 -76q40 -27 27 -83q-10 -46 -48 -77t-85 -31q-48 0 -73.5 30.5t-15.5 76.5zM685 200q22 0 40 15.5t23 37.5q5 23 -7 38t-34 15 t-40.5 -15t-22.5 -37q-5 -23 7 -38.5t34 -15.5zM602 97q-6 -26 7.5 -43.5t38.5 -17.5t46.5 17.5t26.5 41.5t-9 41.5t-38 17.5t-45.5 -17t-26.5 -40z" glyph-name="threeeighths" horiz-adv-x="879" unicode="⅜"/><glyph d="M166 3l564 711l72 -1l-564 -713zM154 450q20 -51 65 -51q33 0 61 23.5t35 57.5t-10.5 56.5t-51.5 22.5q-19 0 -39 -10l-23 20l62 144h160l-10 -49h-123l-25 -59q3 0 8 0.5t8 0.5q53 0 79.5 -35.5t15.5 -90.5q-12 -56 -57.5 -93t-102.5 -37q-73 0 -99 70zM566 94 q12 56 63 84q-30 28 -19 76q8 43 43.5 71.5t79.5 28.5t67 -28.5t14 -71.5q-10 -49 -53 -76q39 -26 26 -83q-10 -47 -47.5 -77.5t-84.5 -30.5t-73 30.5t-16 76.5zM700 200q23 0 41.5 15.5t22.5 37.5q5 22 -6.5 37.5t-34.5 15.5q-21 0 -40 -15.5t-23 -36.5q-5 -22 6.5 -38 t33.5 -16zM617 97q-5 -26 8.5 -43.5t38.5 -17.5t46.5 17.5t26.5 41.5t-8.5 41.5t-38.5 17.5q-24 0 -46 -17t-27 -40z" glyph-name="fiveeighths" horiz-adv-x="894" unicode="⅝"/><glyph d="M61 3l564 711l72 -1l-564 -713zM350 664h-182l10 49h253l-7 -30l-293 -338l-34 28zM459 94q12 56 63 84q-30 28 -19 76q8 43 43.5 71.5t79.5 28.5t67 -28.5t14 -71.5q-10 -49 -53 -76q40 -27 27 -83q-10 -46 -48 -77t-85 -31t-73 30.5t-16 76.5zM594 200q22 0 40.5 15.5 t22.5 37.5q5 22 -6.5 37.5t-33.5 15.5t-41 -15.5t-23 -36.5q-5 -23 7 -38.5t34 -15.5zM511 97q-6 -26 7.5 -43.5t38.5 -17.5t46.5 17.5t26.5 41.5t-8.5 41.5t-38.5 17.5q-24 0 -45.5 -17t-26.5 -40z" glyph-name="seveneighths" horiz-adv-x="788" unicode="⅞"/><glyph d="M169 713h103l-152 -713h-103z" glyph-name="uni2160" horiz-adv-x="247" unicode="Ⅰ"/><glyph d="M169 713h103l-152 -713h-103zM416 713h103l-152 -713h-103z" glyph-name="uni2161" horiz-adv-x="493" unicode="Ⅱ"/><glyph d="M169 713h103l-152 -713h-103zM416 713h103l-152 -713h-103zM662 713h103l-152 -713h-103z" glyph-name="uni2162" horiz-adv-x="740" unicode="Ⅲ"/><glyph d="M169 713h103l-152 -713h-103zM368 713h112l80 -498l291 498h111l-425 -713h-50z" glyph-name="uni2163" horiz-adv-x="870" unicode="Ⅳ"/><glyph d="M103 713h112l80 -498l291 498h111l-425 -713h-50z" glyph-name="uni2164" horiz-adv-x="606" unicode="Ⅴ"/><glyph d="M103 713h112l80 -498l291 498h111l-425 -713h-50zM793 713h103l-152 -713h-103z" glyph-name="uni2165" horiz-adv-x="870" unicode="Ⅵ"/><glyph d="M103 713h112l80 -498l291 498h111l-425 -713h-50zM793 713h103l-152 -713h-103zM1039 713h103l-152 -713h-103z" glyph-name="uni2166" horiz-adv-x="1117" unicode="Ⅶ"/><glyph d="M103 713h112l80 -498l291 498h111l-425 -713h-50zM793 713h103l-152 -713h-103zM1039 713h103l-152 -713h-103zM1286 713h103l-152 -713h-103z" glyph-name="uni2167" horiz-adv-x="1364" unicode="Ⅷ"/><glyph d="M169 713h103l-152 -713h-103zM522 369l-152 344h119l114 -250l223 250h119l-304 -344l161 -369h-116l-124 272l-244 -272h-118z" glyph-name="uni2168" horiz-adv-x="866" unicode="Ⅸ"/><glyph d="M275 369l-152 344h119l114 -250l223 250h119l-304 -344l161 -369h-116l-124 272l-244 -272h-118z" glyph-name="uni2169" horiz-adv-x="619" unicode="Ⅹ"/><glyph d="M275 369l-152 344h119l114 -250l223 250h119l-304 -344l161 -369h-116l-124 272l-244 -272h-118zM788 713h103l-152 -713h-103z" glyph-name="uni216A" horiz-adv-x="866" unicode="Ⅺ"/><glyph d="M275 369l-152 344h119l114 -250l223 250h119l-304 -344l161 -369h-116l-124 272l-244 -272h-118zM788 713h103l-152 -713h-103zM1035 713h103l-152 -713h-103z" glyph-name="uni216B" horiz-adv-x="1112" unicode="Ⅻ"/><glyph d="M157 713h104l-131 -616h335l-21 -97h-439z" glyph-name="uni216C" horiz-adv-x="511" unicode="Ⅼ"/><glyph d="M55 349q34 156 166 264.5t288 108.5q97 0 172 -50l-66 -93q-61 41 -137 41q-108 0 -199.5 -78t-115.5 -192q-24 -110 35.5 -186t167.5 -76q74 0 170 54l10 -104q-101 -52 -203 -52q-151 0 -235.5 106.5t-52.5 256.5z" glyph-name="uni216D" horiz-adv-x="623" unicode="Ⅽ"/><glyph d="M157 713h202q172 0 257 -98t51 -259t-161 -258.5t-300 -97.5h-201zM232 97q123 0 214 71t117 187q25 120 -35 190t-186 70h-102l-110 -518h102z" glyph-name="uni216E" horiz-adv-x="682" unicode="Ⅾ"/><glyph d="M800 713h54l-152 -713h-104l97 453l-293 -333h-45l-152 333l-96 -453h-104l152 713h54l202 -434z" glyph-name="uni216F" horiz-adv-x="817" unicode="Ⅿ"/><glyph d="M802 302h-540l96 -117l-84 -68l-188 239l290 240l56 -68l-147 -117h539z" glyph-name="arrowleft" unicode="←"/><glyph d="M319 0l114 534l-143 -121l-53 70l290 239l189 -239l-83 -70l-91 121l-114 -534h-109z" glyph-name="arrowup" unicode="↑"/><glyph d="M75 302l22 109h540l-96 117l84 68l188 -240l-290 -239l-56 68l147 117h-539z" glyph-name="arrowright" unicode="→"/><glyph d="M471 713h109l-115 -539l143 121l53 -70l-291 -239l-188 239l83 70l91 -121z" glyph-name="arrowdown" unicode="↓"/><glyph d="M55 356l290 240l55 -68l-146 -117h414l-96 117l84 68l188 -240l-290 -239l-56 68l147 117h-414l96 -117l-84 -68z" glyph-name="arrowboth" unicode="↔"/><glyph d="M537 771l189 -239l-83 -70l-91 121l-96 -450l144 122l53 -70l-291 -239l-188 239l83 70l90 -122l96 450l-143 -121l-53 70z" glyph-name="arrowupdn" unicode="↕"/><glyph d="M606 159l-300 382l-33 -169l-96 1l72 340h338l-20 -98l-168 3l300 -381z" glyph-name="uni2196" unicode="↖"/><glyph d="M208 159l-61 78l463 381l-169 -3l23 98h337l-72 -340l-98 -1l39 169z" glyph-name="uni2197" unicode="↗"/><glyph d="M197 476l94 77l300 -382l33 169l97 -2l-72 -338h-339l20 97l168 -2z" glyph-name="uni2198" unicode="↘"/><glyph d="M751 476l-462 -381l170 2l-23 -97h-338l72 338l97 2l-38 -169l463 382z" glyph-name="uni2199" unicode="↙"/><glyph d="M141 0l114 536l-139 -121l-50 70l281 239l178 -239l-80 -70l-86 121l-115 -536h-103zM654 713h104l-114 -538l138 121l49 -69l-279 -240l-178 240l79 69l87 -121z" glyph-name="uni21C5" unicode="⇅"/><glyph d="M129 0l115 539l-134 -121l-47 70l270 239l97 -139l157 139l168 -239l-77 -70l-82 121l-115 -539h-99l114 537l-95 -85l-58 85l-115 -537h-99z" glyph-name="uni21C8" horiz-adv-x="720" unicode="⇈"/><glyph d="M502 0l115 538l-138 -121l-50 69l280 239l178 -239l-79 -69l-87 121l-115 -538h-104zM293 713h103l-114 -536l138 121l50 -70l-280 -239l-178 239l79 70l87 -121z" glyph-name="uni21F5" unicode="⇵"/><glyph d="M47 250q16 74 68 136.5t117 95t136 30t120 -49.5q-10 89 -91 152.5t-194 85.5l51 61q189 -37 278.5 -172.5t47.5 -321.5q-28 -125 -117.5 -203t-205.5 -78q-113 0 -174 76t-36 188zM147 254q-17 -77 18.5 -126.5t106.5 -49.5q73 0 130 48t74 124q16 76 -20 125t-109 49 q-70 0 -127.5 -49t-72.5 -121z" glyph-name="partialdiff" horiz-adv-x="626" unicode="∂"/><glyph d="M632 467l-59 -48q40 -74 21 -163q-24 -112 -120 -191.5t-207 -79.5q-91 0 -152 56l-58 -48l-41 51l59 49q-38 72 -19 163q23 111 118.5 190t207.5 79q90 0 151 -55l59 48zM132 256q-14 -60 10 -109l325 268q-40 34 -101 34q-81 0 -149.5 -56t-84.5 -137zM518 256 q12 60 -11 108l-325 -268q41 -33 102 -33q82 0 149 55.5t85 137.5z" glyph-name="emptyset" horiz-adv-x="650" unicode="∅"/><glyph d="M-43 0l464 713h47l154 -713h-665zM134 97h355l-87 421z" glyph-name="uni2206" horiz-adv-x="689" unicode="∆"/><glyph d="M-52 -192l193 905h387l-193 -905h-104l172 807h-179l-172 -807h-104z" glyph-name="product" horiz-adv-x="476" unicode="∏"/><glyph d="M328 275l-219 335l22 103h524l-21 -99h-401l219 -339l-371 -369l415 5l-22 -103h-536l23 104z" glyph-name="summation" horiz-adv-x="640" unicode="∑"/><glyph d="M90 402h565l-17 -85h-565z" glyph-name="minus" horiz-adv-x="685" unicode="−"/><glyph d="M620 905h115l-472 -905h-122l-20 352h-101l21 97h184l9 -307z" glyph-name="radical" horiz-adv-x="597" unicode="√"/><glyph d="M187 168q-80 0 -120 52.5t-22 134.5q16 79 79.5 131t143.5 52q102 0 160 -114q107 114 216 114q80 0 119 -52t22 -134q-17 -80 -79 -132t-140 -52q-108 0 -165 115q-111 -115 -214 -115zM215 256q35 0 68 22t79 75q-22 52 -46.5 74.5t-60.5 22.5q-46 0 -79 -27.5 t-42 -69.5q-8 -43 13.5 -70t67.5 -27zM467 353q23 -53 47 -75t60 -22q46 0 79 27t42 70q8 42 -13.5 69.5t-67.5 27.5q-35 0 -68 -22t-79 -75z" glyph-name="infinity" horiz-adv-x="789" unicode="∞"/><glyph d="M9 -207l18 87q65 0 83 15.5t32 79.5l154 728q21 100 75.5 139t154.5 30l-19 -88q-64 0 -81.5 -15t-31.5 -79l-155 -729q-22 -100 -76.5 -139t-153.5 -29z" glyph-name="integral" horiz-adv-x="503" unicode="∫"/><glyph d="M40 387q78 120 153 142.5t182 -34.5q82 -44 124 -36.5t104 84.5l58 -41q-88 -127 -166.5 -142.5t-207.5 54.5q-62 30 -100 15.5t-91 -86.5zM-7 169q79 119 152.5 141.5t182.5 -33.5q81 -44 124.5 -36.5t103.5 83.5l59 -40q-88 -127 -167 -142.5t-207 54.5q-62 29 -100 15 t-91 -86z" glyph-name="approxequal" horiz-adv-x="621" unicode="≈"/><glyph d="M672 407h-215l-87 -101h282l-19 -86h-338l-110 -128l-62 48l69 80h-140l19 86h196l87 101h-263l19 86h318l116 134l61 -48l-74 -86h160z" glyph-name="notequal" horiz-adv-x="701" unicode="≠"/><glyph d="M575 247l-22 -107l-493 203l19 88l579 207l-22 -108l-442 -142zM546 100l-21 -100h-536l21 100h536z" glyph-name="lessequal" horiz-adv-x="622" unicode="≤"/><glyph d="M41 247l443 141l-382 142l22 108l493 -207l-19 -88l-579 -203zM8 100h536l-21 -100h-536z" glyph-name="greaterequal" horiz-adv-x="622" unicode="≥"/><glyph d="M367 -14q-150 0 -234.5 109t-51.5 263q32 147 165 255.5t283 108.5t235 -109t53 -259q-32 -152 -164 -260t-286 -108zM397 109q82 0 142.5 71.5t83.5 174.5q22 107 -10 175.5t-112 68.5t-141.5 -69t-83.5 -174q-22 -103 8 -175t113 -72zM412 175q-53 0 -69.5 51t2.5 129 q16 79 54 129.5t88 50.5q52 0 69 -52.5t-2 -128.5q-16 -78 -54 -128.5t-88 -50.5z" glyph-name="uni24FF" unicode="⓿"/><glyph d="M157 713h713l-152 -713h-713z" glyph-name="filledbox" horiz-adv-x="833" unicode="■"/><glyph d="M5 0l152 713h713l-152 -713h-713zM39 28h657l140 657h-657z" glyph-name="H22073" horiz-adv-x="833" unicode="□"/><glyph d="M103 462l305 251l198 -251h-503z" glyph-name="triagup" horiz-adv-x="623" unicode="▲"/><glyph d="M134 608l198 -250l-304 -252z" glyph-name="uni25B6" horiz-adv-x="371" unicode="▶"/><glyph d="M59 251h503l-306 -251z" glyph-name="triagdn" horiz-adv-x="623" unicode="▼"/><glyph d="M385 608l-106 -502l-198 252z" glyph-name="uni25C0" horiz-adv-x="371" unicode="◀"/><glyph d="M110 356l388 357l235 -357l-387 -356zM598 356l-134 201l-220 -201l135 -200z" glyph-name="lozenge" horiz-adv-x="800" unicode="◊"/><glyph d="M367 -14q-150 0 -234.5 109t-51.5 263q32 147 165 255.5t283 108.5t235 -109t53 -259q-32 -152 -164 -260t-286 -108zM373 14q143 0 264.5 99.5t151.5 240.5q30 139 -48.5 239.5t-217.5 100.5t-262 -100t-152 -236q-30 -143 48 -243.5t216 -100.5z" glyph-name="circle" unicode="○"/><glyph d="M367 -14q-150 0 -234.5 109t-51.5 263q32 147 165 255.5t283 108.5t235 -109t53 -259q-32 -152 -164 -260t-286 -108z" glyph-name="H18533" unicode="●"/><glyph d="M367 -14q-150 0 -234.5 109t-51.5 263q32 147 165 255.5t283 108.5t235 -109t53 -259q-32 -152 -164 -260t-286 -108zM373 14q143 0 264.5 99.5t151.5 240.5q30 139 -48.5 239.5t-217.5 100.5z" glyph-name="uni25D0" unicode="◐"/><glyph d="M367 -14q-150 0 -234.5 109t-51.5 263q32 147 165 255.5t283 108.5t235 -109t53 -259q-32 -152 -164 -260t-286 -108zM373 14l150 680q-139 0 -262 -100t-152 -236q-30 -143 48 -243.5t216 -100.5z" glyph-name="uni25D1" unicode="◑"/><glyph d="M367 -14q-150 0 -234.5 109t-51.5 263q32 147 165 255.5t283 108.5t235 -109t53 -259q-32 -152 -164 -260t-286 -108zM789 354q30 139 -48.5 239.5t-217.5 100.5t-262 -100t-152 -236z" glyph-name="uni25D2" unicode="◒"/><glyph d="M367 -14q-150 0 -234.5 109t-51.5 263q32 147 165 255.5t283 108.5t235 -109t53 -259q-32 -152 -164 -260t-286 -108zM373 14q143 0 264.5 99.5t151.5 240.5l-680 4q-30 -143 48 -243.5t216 -100.5z" glyph-name="uni25D3" unicode="◓"/><glyph d="M367 -14q-150 0 -234.5 109t-51.5 263q32 147 165 255.5t283 108.5t235 -109t53 -259q-32 -152 -164 -260t-286 -108zM373 14q143 0 264.5 99.5t151.5 240.5h-339l73 340q-139 0 -262 -100t-152 -236q-30 -143 48 -243.5t216 -100.5z" glyph-name="uni25D4" unicode="◔"/><glyph d="M367 -14q-150 0 -234.5 109t-51.5 263q32 147 165 255.5t283 108.5t235 -109t53 -259q-32 -152 -164 -260t-286 -108zM523 694q-139 0 -262 -100t-152 -236h337z" glyph-name="uni25D5" unicode="◕"/><glyph d="M372 -14q-150 0 -237 109.5t-54 262.5q32 147 165 255.5t283 108.5z" glyph-name="uni25D6" horiz-adv-x="490" unicode="◖"/><glyph d="M2 -14l157 736q98 0 173 -49.5t107.5 -134t11.5 -180.5q-33 -154 -166 -263t-283 -109z" glyph-name="uni25D7" horiz-adv-x="490" unicode="◗"/><glyph d="M436 355l-76 -355h-355z" glyph-name="uni25E2" horiz-adv-x="475" unicode="◢"/><glyph d="M81 355l279 -355h-355z" glyph-name="uni25E3" horiz-adv-x="475" unicode="◣"/><glyph d="M512 713l-431 -355l76 355h355z" glyph-name="uni25E4" horiz-adv-x="475" unicode="◤"/><glyph d="M157 713h355l-76 -355z" glyph-name="uni25E5" horiz-adv-x="475" unicode="◥"/><glyph d="M528 722q152 0 237 -108t52 -260q-32 -152 -163 -260t-283 -108t-237 108t-53 260q33 152 164 260t283 108zM801 354q31 145 -50 248.5t-227 103.5q-145 0 -270 -103t-157 -249q-31 -145 50.5 -248.5t227.5 -103.5q145 0 270 103t156 249zM579 235q6 -8 3.5 -18.5 t-11.5 -17.5q-8 -7 -19 -7t-17 7q-12 15 7 34l-76 96l-8 -45h-46l12 51l-195 3l7 32l194 4l-55 70l4 4l55 -71l75 314h23l-57 -316l61 1l-9 -43l-59 1l77 -98q22 15 34 -1zM490 690l-2 -25l-10 -1l3 25zM560 689l-8 -25l-8 1l7 25zM453 660l-8 -2l-1 25l10 2zM574 660l11 25 l8 -2l-10 -25zM421 652l-10 -3l-3 24l10 3zM625 673l-13 -24l-7 3l12 24zM387 641l-8 -4l-6 23l9 4zM655 660l-14 -23l-9 4l15 23zM357 571l-26 69l7 4l5 2l11 6l25 -70zM616 582l55 70l12 -8l5 -4l-54 -69zM324 609l-8 -5l-11 20l9 5zM689 604l-6 5l19 20l6 -5zM294 589 l-8 -6l-13 18l8 6zM709 583l-5 6l21 18l5 -6zM265 566l-7 -7l-14 17l7 7zM727 559l-5 7l23 17l5 -7zM239 541l-6 -7l-17 14l6 8zM742 534l-4 7l23 15l5 -8zM247 473l-62 40l8 10l3 4l5 6l61 -40zM695 493l77 40l3 -6l3 -8l2 -6l-77 -40zM194 485l-5 -8l-21 10l5 8zM762 477 l-3 8l25 10l3 -8zM176 455l-5 -9l-22 8l5 9zM766 446v9l25 8l1 -9zM160 423l-4 -8l-23 5l3 9zM767 415v8l26 6v-9zM147 391l-3 -9l-24 3l3 9zM765 382l1 9l26 3l-1 -9zM190 343h-80l3 12v4l2 7h80zM709 366h79l-2 -11l-1 -5l-2 -7h-79zM132 326v-9l-26 -2l1 9zM751 317l2 9 l25 -2l-3 -9zM131 294v-9l-26 -5l1 9zM738 285l4 9l24 -5l-4 -9zM132 262l1 -8l-26 -8l-1 9zM723 254l4 8l22 -7l-5 -9zM203 216l-77 -40l-3 6l-1 4l-4 10l78 40zM652 236l61 -40l-5 -6h1l-7 -8l-5 -6l-61 40zM136 232l3 -9l-26 -10l-2 9zM704 223l5 9l21 -10l-6 -9z M156 175l4 -7l-23 -15l-4 7zM659 168l6 7l18 -15l-7 -7zM171 149l5 -6l-22 -17l-5 6zM633 143l7 6l15 -17l-7 -6zM282 126l-55 -69l-8 6l-4 2l-5 4l54 69zM541 138l26 -69l-7 -4l-16 -8l-25 69zM189 126l6 -6l-21 -19l-6 6zM605 120l7 6l13 -19l-7 -6zM209 105l6 -5l-18 -21 l-7 6zM574 100l8 5l11 -20l-8 -6zM366 18l17 80h23l-17 -80h-23zM244 49l14 23l8 -4l-15 -23zM511 68l9 4l6 -23l-10 -4zM273 36l13 23l8 -2l-13 -24zM478 57l9 2l3 -23l-10 -3zM305 26l11 25l8 -2l-11 -25zM444 24l1 25l9 2v-25zM338 20l9 25l9 -1l-9 -25zM408 19l4 25l9 1 l-4 -25z" glyph-name="uni25F4" unicode="◴"/><glyph d="M527 722q152 0 236.5 -108t52.5 -260t-163 -260t-283 -108t-237 108t-53 260t163.5 260t283.5 108zM800 354q31 145 -50 248.5t-227 103.5q-145 0 -270 -103t-157 -249q-31 -146 50 -249.5t227 -103.5t271 103.5t156 249.5zM532 690l-17 -79h-24l17 79h24zM489 689 l-3 -25l-9 -1l2 25zM559 688l-8 -25l-9 1l9 25zM453 684v-25l-9 -2v25zM592 682l-10 -25l-9 2l12 25zM420 651l-10 -2l-2 24l9 2zM624 673l-12 -24l-8 2l13 24zM386 640l-9 -4l-5 23l9 4zM654 659l-15 -23l-7 4l15 23zM356 570l-25 70l16 8l7 3l25 -69zM615 582l55 69l5 -3 l4 -2l8 -6l-55 -70zM322 608l-8 -5l-10 20l9 6zM688 603l-7 5l20 21l7 -6zM293 588l-8 -6l-13 19l8 6zM703 588l21 19l6 -6l-21 -19zM264 565l-7 -6l-14 17l7 6zM727 559l-5 6l22 17l5 -6zM239 540l-8 -7l-16 15l6 7zM741 533l-4 7l24 15l4 -7zM245 472l-60 40l4 6l4 4l7 10 l61 -40zM695 492l77 40l4 -10l1 -4l2 -6l-78 -40zM193 484l-6 -8l-21 10l6 9zM761 476l-2 8l25 11l2 -9zM175 454l-5 -8l-23 7l5 9zM766 446l-1 8l25 8l1 -9zM481 376l89 54l2 -4l-82 -50l33 1l-9 -46l-50 1l-46 -196h-32l38 197l-4 1l-130 -80q3 -8 -1 -18t-14 -15 q-23 -13 -35 6q-9 22 15 36q21 11 33 -4l123 75l-302 8l5 23l318 9l12 62h44l-14 -60h7zM159 423l-4 -9l-23 5l3 9zM767 414v9l26 5l-1 -9zM147 391l-3 -9l-24 2l2 9zM764 382l1 9l26 2l-1 -9zM703 342l5 23h80l-5 -23h-80zM132 326v-9l-27 -3l2 9zM750 317l2 9l25 -3l-3 -9 zM129 293l1 -9l-27 -5l1 9zM738 284l3 9l23 -5l-3 -9zM131 262l1 -9l-26 -8l-1 9zM722 253l5 9l22 -8l-5 -9zM202 215l-78 -40l-3 10l-2 4h1l-2 6l77 40zM651 235l61 -40l-8 -10l-3 -4l-5 -6l-60 40zM135 231l3 -8l-26 -11l-2 9zM704 223l5 8l21 -10l-6 -9zM155 174l5 -7 l-25 -15l-3 7zM658 167l7 7l17 -15l-7 -7zM170 148l4 -6l-21 -17l-5 7zM632 142l8 6l14 -16l-7 -7zM282 125l-55 -69l-8 6l-4 2l-5 4l54 69zM540 137l26 -69l-7 -4l-16 -8l-25 69zM188 125l5 -6l-21 -19l-5 6zM603 119l9 6l13 -19l-9 -6zM208 104l6 -5l-18 -21l-7 6zM573 99 l9 5l11 -20l-9 -6zM365 17l17 80h24l-17 -80h-24zM242 48l15 23l7 -4l-14 -23zM510 67l9 4l5 -23l-8 -4zM273 35l12 24l8 -3l-13 -24zM477 56l10 3l2 -24l-9 -3zM304 25l11 25l8 -2l-11 -25zM444 23l-1 25l10 2l-1 -25zM337 19l9 25l8 -1l-8 -25zM408 18l2 25l10 1l-3 -25z " glyph-name="uni25F5" unicode="◵"/><glyph d="M527 722q152 0 236.5 -108t52.5 -260t-163 -260t-283 -108t-237 108t-53 260t163.5 260t283.5 108zM800 354q31 145 -50 248.5t-227 103.5q-145 0 -270 -103t-157 -249q-31 -146 50 -249.5t227 -103.5t271 103.5t156 249.5zM532 690l-17 -79h-24l17 79h24zM489 689 l-3 -25l-9 -1l2 25zM559 688l-8 -25l-9 1l9 25zM453 684v-25l-9 -2v25zM592 682l-10 -25l-9 2l12 25zM420 651l-10 -2l-2 24l9 2zM624 673l-12 -24l-8 2l13 24zM386 640l-9 -4l-5 23l9 4zM654 659l-15 -23l-7 4l15 23zM356 570l-25 70l16 8l7 3l25 -69zM615 582l55 69l5 -3 l4 -2l8 -6l-55 -70zM322 608l-8 -5l-10 20l9 6zM688 603l-7 5l20 21l7 -6zM272 601l8 6l13 -19l-8 -6zM703 588l21 19l6 -6l-21 -19zM264 565l-7 -6l-14 17l7 6zM727 559l-5 6l22 17l5 -6zM239 540l-8 -7l-16 15l6 7zM741 533l-4 7l24 15l4 -7zM245 472l-60 40l4 6l4 4l7 10 l61 -40zM695 492l77 40l4 -10l1 -4l2 -6l-78 -40zM662 338l-198 -4l-76 -317h-22l57 314l-84 -76l-3 4l82 74l-56 -1l9 43l60 -1l9 50h46l-9 -38l107 97q-13 14 6 33q9 8 19.5 8.5t16.5 -5.5q15 -17 -5 -37q-21 -18 -34 -3l-112 -101l-1 -5l195 -3zM193 484l-6 -8l-21 10 l6 9zM761 476l-2 8l25 11l2 -9zM175 454l-5 -8l-23 7l5 9zM766 446l-1 8l25 8l1 -9zM159 423l-4 -9l-23 5l3 9zM767 414v9l26 5l-1 -9zM147 391l-3 -9l-24 2l2 9zM764 382l1 9l26 2l-1 -9zM189 342h-80l2 7h-1l2 9l2 7h80zM703 342l5 23h80l-5 -23h-80zM132 326v-9l-27 -3 l2 9zM750 317l2 9l25 -3l-3 -9zM129 293l1 -9l-27 -5l1 9zM738 284l3 9l23 -5l-3 -9zM131 262l1 -9l-26 -8l-1 9zM722 253l5 9l22 -8l-5 -9zM202 215l-78 -40l-3 10l-2 4h1l-2 6l77 40zM651 235l61 -40l-8 -10l-3 -4l-5 -6l-60 40zM135 231l3 -8l-26 -11l-2 9zM704 223l5 8 l21 -10l-6 -9zM155 174l5 -7l-25 -15l-3 7zM658 167l7 7l17 -15l-7 -7zM170 148l4 -6l-21 -17l-5 7zM632 142l8 6l14 -16l-7 -7zM282 125l-55 -69l-8 6l-4 2l-5 4l54 69zM540 137l26 -69l-7 -4l-16 -8l-25 69zM188 125l5 -6l-21 -19l-5 6zM603 119l9 6l13 -19l-9 -6z M208 104l6 -5l-18 -21l-7 6zM573 99l9 5l11 -20l-9 -6zM242 48l15 23l7 -4l-14 -23zM510 67l9 4l5 -23l-8 -4zM273 35l12 24l8 -3l-13 -24zM477 56l10 3l2 -24l-9 -3zM304 25l11 25l8 -2l-11 -25zM444 23l-1 25l10 2l-1 -25zM337 19l9 25l8 -1l-8 -25zM408 18l2 25l10 1 l-3 -25z" glyph-name="uni25F6" unicode="◶"/><glyph d="M527 722q152 0 236.5 -108t52.5 -260t-163 -260t-283 -108t-237 108t-53 260t163.5 260t283.5 108zM800 354q31 145 -50 248.5t-227 103.5q-145 0 -270 -103t-157 -249q-31 -146 50 -249.5t227 -103.5t271 103.5t156 249.5zM531 690l-17 -79h-23l17 79h23zM489 689 l-3 -25l-9 -1l2 25zM559 688l-8 -25l-9 1l9 25zM453 659l-9 -2l-1 25l10 2v-25zM592 682l-10 -25l-9 2l12 25zM420 651l-10 -2l-2 24l9 2zM624 673l-12 -24l-8 2l13 24zM386 640l-9 -4l-5 23l9 4zM654 659l-15 -23l-7 4l15 23zM355 570l-24 70l9 4l6 4v-1l8 4l24 -69z M615 582l55 69l5 -3l4 -2l8 -6l-55 -70zM322 608l-8 -5l-10 20l9 6zM688 603l-7 5l20 21l7 -6zM272 601l8 6l13 -19l-8 -6zM703 588l21 19l6 -6l-21 -19zM264 565l-7 -6l-14 17l7 6zM727 559l-6 6l23 17l5 -6zM511 571l-38 -197l314 -9l-5 -23l-314 -8l55 -72l-5 -4l-54 71 l-11 -58h-44l14 61l-49 -1l9 46l45 -1l-74 97q-8 -7 -18 -6t-15 8q-6 8 -3.5 18t11.5 18q22 17 36 0q13 -16 -6 -35l75 -98l45 193h32zM238 540l-7 -7l-16 15l6 7zM741 533l-4 7l24 15l4 -7zM261 492l-16 -20l-61 40l16 20zM695 492l77 40l4 -10l1 -4l2 -6l-78 -40zM193 484 l-6 -8l-21 10l6 9zM760 476l-1 8l25 11l1 -9zM175 454l-5 -8l-23 7l5 9zM766 446l-1 8l25 8l1 -9zM159 423l-4 -9l-23 5l3 9zM767 414v9l25 5v-9zM146 391l-2 -9l-25 2l3 9zM764 382l1 9l26 2l-1 -9zM189 342h-80l2 7h-1l2 9l2 7h80zM132 326l-1 -9l-26 -3l1 9zM750 317l2 9 l25 -3l-3 -9zM129 293l1 -9l-27 -5l1 9zM738 284l3 9l23 -5l-4 -9zM131 262l1 -9l-26 -8l-1 9zM722 253l5 9l22 -8l-5 -9zM202 215l-78 -40l-5 13v1l-2 6l78 40zM651 235l61 -40l-8 -10l-3 -4l-5 -6l-60 40zM135 231l3 -8l-26 -11l-2 9zM704 223l4 8l21 -10l-5 -9zM155 174 l4 -7l-24 -15l-3 7zM658 167l7 7l17 -15l-7 -7zM170 148l4 -6l-21 -17l-5 7zM631 142l9 6l14 -16l-7 -7zM281 125l-54 -69l-6 4l-6 4l-5 4l53 69zM540 137l26 -69l-7 -4l-16 -8l-25 69zM188 125l5 -6l-21 -19l-5 6zM603 119l9 6l13 -19l-9 -6zM208 104l6 -5l-18 -21l-7 6z M573 99l9 5l11 -20l-9 -6zM365 17l17 80h23l-17 -80h-23zM242 48l15 23l7 -4l-14 -23zM510 67l9 4l5 -23l-8 -4zM273 35l12 24l8 -3l-13 -24zM477 56l10 3l2 -24l-9 -3zM303 25l12 25l8 -2l-11 -25zM444 23l-1 25l10 2l-1 -25zM337 19l9 25l8 -1l-8 -25zM408 18l2 25l10 1 l-3 -25z" glyph-name="uni25F7" unicode="◷"/><glyph d="M111 498h498l-106 -498h-498z" glyph-name="uni25FC" horiz-adv-x="618" unicode="◼"/><glyph d="M79 394q28 128 137 221t237 101l5 21q4 18 24 18q18 0 15 -18l-5 -21q126 -8 196 -100.5t45 -221.5q-2 -10 -12.5 -13.5t-15.5 4.5q-22 32 -61.5 31.5t-74.5 -34.5q-3 -5 -10.5 -5.5t-9.5 5.5q-18 31 -55 33.5t-71 -24.5l-71 -335q-11 -50 -58 -66q-44 -15 -72 11 q-21 20 -13 55q5 19 24 19q7 0 11.5 -5.5t3.5 -13.5q-6 -28 19 -33t40 18q4 7 6 15l71 336q-20 27 -57.5 24t-71.5 -34q-3 -5 -10 -5t-9 5q-20 33 -59.5 34t-74.5 -31q-7 -6 -13 -5.5t-9.5 5t-0.5 9.5z" glyph-name="uni2602" horiz-adv-x="754" unicode="☂"/><glyph d="M531 713l-145 -273h-287l196 -168l-147 -272l267 168l197 -168l-31 272l268 168h-287z" glyph-name="uni2605" horiz-adv-x="870" unicode="★"/><glyph d="M658 830q2 -6 4.5 -16t6 -30t2.5 -28q-3 -12 -13 -21t-22 -9t-18.5 9t-3.5 21q1 8 12 26.5t22 33.5zM753 771q2 -8 5.5 -20t8 -36t2.5 -33q-3 -15 -16 -25.5t-27 -10.5q-15 0 -23 10.5t-5 25.5q2 9 15.5 31t26.5 40zM79 394q28 128 137 221t237 101l5 21q4 18 24 18 q18 0 15 -18l-5 -21q126 -8 196 -100.5t45 -221.5q-2 -10 -12.5 -13.5t-15.5 4.5q-22 32 -61.5 31.5t-74.5 -34.5q-3 -5 -10.5 -5.5t-9.5 5.5q-18 31 -55 33.5t-71 -24.5l-71 -335q-11 -50 -58 -66q-44 -15 -72 11q-21 20 -13 55q5 19 24 19q7 0 11.5 -5.5t3.5 -13.5 q-6 -28 19 -33t40 18q4 7 6 15l71 336q-20 27 -57.5 24t-71.5 -34q-3 -5 -10 -5t-9 5q-20 33 -59.5 34t-74.5 -31q-7 -6 -13 -5.5t-9.5 5t-0.5 9.5z" glyph-name="uni2614" horiz-adv-x="754" unicode="☔"/><glyph d="M316 227q-12 0 -22 6q-15 8 -19.5 28t9.5 42l5 9q-28 8 -34 31t16 53h-126q-24 0 -36.5 16.5t-7.5 39.5q5 24 24 39.5t44 15.5h343q35 36 97 36q54 0 93 -49h84q20 1 31 -13t7 -35l-44 -207q-4 -18 -22 -34q-19 -15 -37 -15h-84q-12 -10 -24 -18t-21 -13.5t-21 -9 t-18.5 -5t-19 -2.5t-17.5 -1h-20h-20q-58 0 -106 16q-35 -10 -53.5 14t-0.5 56zM480 166q6 0 22.5 -0.5t21.5 0t18.5 1.5t20.5 4t19 8.5t23 13.5t24 20q3 1 10 1l87 1q24 4 29 24l44 208q2 10 -3.5 16.5t-15.5 6.5h-90q-5 0 -8 4q-3 5 -9 12.5t-25.5 20t-41.5 12.5 q-54 -1 -83 -32l-48.5 -48.5t-39 -39.5t-19.5 -21q-27 -31 -18 -46q6 -13 28 -5q32 11 93 56.5t74 66.5q9 11 18 5q10 -6 2 -16q-7 -14 -48 -48q-8 -8 -36 -29q10 -24 -7 -55q31 -7 34 -36q3 -34 -25 -57q-12 -7 -23 -13l-90 -28q33 -7 62 -7zM164 483q-32 0 -39 -31 q-3 -14 5 -21.5t21 -7.5h276q9 8 28.5 28.5t30.5 30.5zM279 368q-2 -13 5.5 -22.5t19.5 -9.5h5l30 4l35 11q5 20 24 41q1 1 2.5 2t2.5 2.5t2 2.5h-89q-30 -5 -37 -31zM506 346q-36 -24 -57 -35.5t-45.5 -11.5t-37.5 24l-41 -13q-31 -14 -27 -42q4 -22 32 -14l157 48 q10 5 16.5 15t4.5 21zM496 280l-136 -43q-12 -3 -20 -13t-6 -23q4 -30 36 -19l134 43q13 3 20.5 14.5t5.5 22.5q-1 12 -11 17t-23 1z" glyph-name="uni261C" horiz-adv-x="844" unicode="☜"/><glyph d="M419 461q34 11 53.5 -12t2.5 -56q4 -55 -8 -110q-1 -6 -4 -20t-4 -19.5t-4.5 -17.5t-7 -18.5t-9 -17.5t-12.5 -19t-17 -18t-23 -20l-17 -84q-4 -19 -23 -34t-37 -15h-207q-21 0 -32 14t-6 34l18 84q-38 51 -27 104q13 62 55 89l73 343q5 25 24 40.5t43 15.5q23 0 36 -16 t8 -40l-27 -126q34 16 54.5 5t22.5 -41l10 4q24 9 42 0.5t22 -25.5q4 -11 1 -24zM207 668l-67 -322l33 22t35 24l1 1l58 275q3 13 -2.5 22.5t-19.5 9.5q-31 0 -38 -32zM292 528q-25 0 -37 -30l-19 -89q2 1 4.5 3t3.5 2q23 14 45 16l17 32l11 30l1 5q2 12 -5.5 21.5 t-20.5 9.5zM265 297l7 -4q10 -4 21.5 0t17.5 13l79 147q15 27 -6 35q-26 9 -46 -18l-21 -38q15 -14 17.5 -30t-9.5 -35t-24.5 -33.5t-35.5 -36.5zM330 293q-6 -12 -4 -23.5t14 -14.5q11 -5 23.5 0.5t17.5 17.5l70 125q16 29 -11 40q-11 5 -22.5 -1t-17.5 -17zM443 284 q6 32 6 64l-46 -84q-7 -10 -17 -20q-29 -24 -60 -13q-27 10 -27 41q-33 -11 -54 5q-27 -24 -35 -30q-39 -32 -56 -38q-12 -4 -15 6t8 17q23 9 79.5 60t73.5 81q12 19 2 29q-13 11 -48 -8q-7 -4 -24 -15.5t-46 -31t-57 -37.5q-36 -23 -48 -77q-4 -22 2.5 -43t15.5 -32l9 -10 q2 -3 2 -9l-19 -90q-2 -10 2.5 -17t14.5 -7h208q21 0 30 24l19 87q1 6 3 9q16 12 28 24.5t18.5 20.5t12 23t7 20t6 25t5.5 26z" glyph-name="uni261D" horiz-adv-x="522" unicode="☝"/><glyph d="M514 227q5 -32 -23 -56t-59 -14q-56 -16 -114 -16h-20h-20t-17 1t-17.5 2.5t-16 5t-17 9t-15 13.5t-16.5 18h-84q-20 0 -31 15q-12 18 -8 34l44 207q5 21 21.5 35t36.5 13h84q62 49 115 49q61 0 81 -36h343q25 0 37 -15.5t7 -39.5q-5 -23 -24.5 -39.5t-43.5 -16.5h-126 q11 -29 -5.5 -52.5t-48.5 -31.5l3 -9q6 -19 -7.5 -40.5t-32.5 -29.5q-14 -6 -26 -6zM324 166q29 0 66 7l-78 28q-7 5 -17 13q-20 24 -1 57q15 29 48 36q-4 31 17 55q-20 22 -24 29q-25 32 -28 48q0 12 10 16q12 5 16 -5q4 -21 45.5 -66.5t69.5 -56.5q16 -7 30 5q13 13 2 46 q-3 7 -23.5 42t-37.5 67q-16 31 -71 32q-22 0 -45.5 -11.5t-36.5 -22.5l-12 -11q-5 -4 -10 -4h-90q-10 0 -18.5 -6.5t-10.5 -16.5l-44 -208q-5 -20 19 -24l87 -1q7 0 8 -1q8 -12 16 -20t17.5 -13.5t15.5 -8.5t18.5 -4t17.5 -1.5t21.5 0t22.5 0.5zM776 483l-322 -1 q25 -45 33 -59h276q32 0 38 29q7 31 -25 31zM611 368q6 26 -23 31h-89q0 -2 1.5 -4t1.5 -3q10 -20 8 -41l29 -11l30 -4h5q12 0 23.5 9.5t13.5 22.5zM376 346l-6 -8q-14 -23 5 -36l137 -48q27 -8 38 14q15 28 -9 42l-35 13q-23 -24 -47.5 -24.5t-41.5 11.5t-41 36zM358 280 q-12 4 -24.5 -1t-17.5 -17q-7 -11 -4 -22.5t14 -14.5l116 -43q26 -10 44 19q7 14 3.5 23.5t-13.5 12.5z" glyph-name="uni261E" horiz-adv-x="844" unicode="☞"/><glyph d="M145 252q-34 -11 -53.5 12t-2.5 56q-4 55 8 110q1 4 3.5 18t3.5 17.5t4 15.5t5 17t6.5 15t9.5 16.5t12 15.5t16 17.5t20 17.5l18 84q4 19 23 34t37 15h207q21 0 32 -14t6 -34l-18 -84q38 -51 27 -104q-13 -62 -55 -89l-73 -343q-6 -25 -24.5 -40.5t-42.5 -15.5 q-23 0 -36 16t-8 40l27 126q-34 -16 -54.5 -5t-22.5 41l-10 -4q-24 -9 -42 -0.5t-22 25.5q-4 11 -1 24zM121 429q-6 -31 -6 -64l46 84q7 11 17 20q29 24 60 13q27 -10 27 -41q33 11 54 -5q27 24 35 30q40 33 56 38q12 4 15 -6q4 -11 -9 -17q-23 -9 -79.5 -60t-73.5 -81 q-11 -20 -1 -29q12 -11 48 8q7 4 24 15.5t46 31t57 37.5q36 24 48 77q4 22 -2.5 43t-15.5 31l-9 11q-2 3 -2 9l19 90q2 10 -3 17t-15 7h-208q-20 0 -29 -24l-19 -87q-1 -6 -3 -9q-12 -9 -21.5 -18.5l-16.5 -16.5t-12.5 -16.5t-8.5 -15.5t-6 -17t-4 -16t-4 -19t-4 -20z M233 420q7 12 5 23.5t-14 14.5q-11 5 -23.5 -0.5t-17.5 -17.5l-70 -125q-17 -29 11 -40q11 -5 22.5 1t16.5 17zM299 416l-8 4q-9 4 -20.5 0t-17.5 -13l-80 -147q-14 -27 7 -35q26 -9 46 18l21 38q-15 14 -17.5 30t9 34.5t24.5 33.5t36 37zM357 45l67 322q-12 -8 -35.5 -23.5 t-33.5 -22.5v-1l-58 -275q-3 -13 2.5 -22.5t19.5 -9.5q31 0 38 32zM271 185q26 0 38 30l19 89q-2 -1 -4.5 -3t-3.5 -2q-25 -14 -45 -16l-17 -32l-11 -30l-1 -5q-2 -12 5 -21.5t20 -9.5z" glyph-name="uni261F" horiz-adv-x="522" unicode="☟"/><glyph d="M81 358q32 147 165 255.5t283 108.5t235 -109t53 -259q-32 -152 -164 -260t-286 -108q-150 0 -234.5 109t-51.5 263zM119 358q-29 -138 46.5 -236t209.5 -98q139 0 257 96.5t147 233.5q29 135 -47 232.5t-211 97.5t-254 -97t-148 -229zM322 386q-22 0 -34.5 15.5 t-7.5 37.5t24 37.5t41 15.5t34 -15.5t7 -37.5q-4 -22 -23 -37.5t-41 -15.5zM589 386q-22 0 -34.5 15.5t-7.5 37.5t24 37.5t41 15.5t34 -15.5t7 -37.5q-4 -22 -23 -37.5t-41 -15.5zM216 209q39 41 101 71.5t122 30.5q59 0 109 -30.5t74 -71.5l-37 -31q-15 34 -58.5 63 t-95.5 29q-50 0 -104 -27t-84 -60z" glyph-name="uni2639" unicode="☹"/><glyph d="M81 358q32 147 165 255.5t283 108.5t235 -109t53 -259q-32 -152 -164 -260t-286 -108q-150 0 -234.5 109t-51.5 263zM119 358q-29 -138 46.5 -236t209.5 -98q139 0 257 96.5t147 233.5q29 135 -47 232.5t-211 97.5t-254 -97t-148 -229zM322 386q-22 0 -34.5 15.5 t-7.5 37.5t24 37.5t41 15.5t34 -15.5t7 -37.5q-4 -22 -23 -37.5t-41 -15.5zM589 386q-22 0 -34.5 15.5t-7.5 37.5t24 37.5t41 15.5t34 -15.5t7 -37.5q-4 -22 -23 -37.5t-41 -15.5zM220 269l42 21q6 -55 47.5 -91t99.5 -36q56 0 113 35t88 89l32 -21q-40 -64 -107.5 -104 t-134.5 -40q-69 0 -118.5 40.5t-61.5 106.5z" glyph-name="smileface" unicode="☺"/><glyph d="M367 -14q-150 0 -234.5 109t-51.5 263q32 147 165 255.5t283 108.5t235 -109t53 -259q-32 -152 -164 -260t-286 -108zM322 386q22 0 41 15.5t23 37.5q5 22 -7 37.5t-34 15.5t-41 -15.5t-24 -37.5t7.5 -37.5t34.5 -15.5zM589 386q22 0 41 15.5t23 37.5q5 22 -7 37.5 t-34 15.5t-41 -15.5t-24 -37.5t7.5 -37.5t34.5 -15.5zM400 122q67 0 134.5 40t107.5 104l-32 21q-31 -54 -88 -89t-113 -35q-58 0 -99.5 36t-47.5 91l-42 -21q12 -66 61.5 -106.5t118.5 -40.5z" glyph-name="invsmileface" unicode="☻"/><glyph d="M385 0q-29 33 -67 75.5t-56.5 63.5t-44.5 50t-37 43.5t-27 35t-21.5 32.5t-13.5 27.5t-10 29t-4.5 28.5t-2.5 34q-2 113 78.5 203.5t183.5 90.5q111 0 152 -101q39 46 92 73.5t106 27.5q69 0 113 -43.5t49.5 -109t-24.5 -141.5q-10 -22 -18.5 -38t-23 -35t-23.5 -30.5 t-35 -34.5t-41 -35.5t-57 -45t-69 -52.5t-90.5 -67t-108.5 -81zM393 38q273 203 314 238q71 59 101 115q9 15 18 35q44 99 7 179t-126 80q-59 0 -116.5 -38.5t-89.5 -102.5q-7 67 -45.5 104t-98.5 37q-89 0 -159 -80t-69 -180q2 -69 32.5 -115.5t163.5 -195.5q43 -48 68 -76 z" glyph-name="uni2661" horiz-adv-x="884" unicode="♡"/><glyph d="M851 419q-10 -22 -18.5 -38t-23 -35t-23.5 -30.5t-35 -34.5t-41 -35.5t-57 -45t-69 -52.5t-90.5 -67t-108.5 -81q-29 33 -67 75.5t-56.5 63.5t-44.5 50t-37 43.5t-27 35t-21.5 32.5t-13.5 27.5t-10 29t-4.5 28.5t-2.5 34q-2 113 78.5 203.5t183.5 90.5q111 0 152 -101 q39 46 92 73.5t106 27.5q69 0 113 -43.5t49.5 -109t-24.5 -141.5z" glyph-name="heart" horiz-adv-x="884" unicode="♥"/><glyph d="M647 704q-59 -10 -106 -75l-146 -189l-146 93l77 98q47 67 94 73h227zM823 605l-117 -156l-183 3l53 29l-37 112q51 66 79 83q17 8 35.5 12.5t39.5 -0.5t28 -24l39 -87zM107 460l177 1l53 -163l-45 30l-89 -111q-75 0 -98 17q-13 8 -23 21.5t-13 34t13 40.5l67 90z M704 62q30 60 1 117l-73 182l180 100l41 -96q28 -66 4 -106zM501 -62l-70 148l130 164l-12 -60l127 1q23 -70 20 -95q-5 -28 -26 -57.5t-52 -31.5h-102zM68 238q32 -47 101 -41l216 -1l-40 -189h-114q-75 -2 -98 31z" glyph-name="uni267B" horiz-adv-x="922" unicode="♻"/><glyph d="M367 -14q-150 0 -234.5 109t-51.5 263q32 147 165 255.5t283 108.5t235 -109t53 -259q-32 -152 -164 -260t-286 -108zM565 602h-148q-33 -4 -61 -48l-50 -64l95 -60l95 123q34 43 69 49zM679 537l-41 -18l-24 57q-5 12 -18.5 15.5t-26 0t-23.5 -8.5q-22 -13 -51 -54 l24 -72l-35 -19l119 -2zM213 443l28 -26l-44 -59q-12 -22 -5.5 -38t20.5 -24q15 -11 64 -11l58 72l29 -20l-35 106h-115zM602 184l99 128q17 25 -2 69l-27 62l-116 -65l47 -118q18 -38 -1 -76zM470 103l10 45h66q20 1 33.5 20t17.5 38q1 10 -13 62l-83 -1l8 39l-85 -107z M188 298l43 -130q14 -22 63 -20h75l26 123l-141 1q-45 -4 -66 26z" glyph-name="uni267C" unicode="♼"/><glyph d="M367 -14q-150 0 -234.5 109t-51.5 263q32 147 165 255.5t283 108.5t235 -109t53 -259q-32 -152 -164 -260t-286 -108zM373 14q143 0 264.5 99.5t151.5 240.5q30 139 -48.5 239.5t-217.5 100.5t-262 -100t-152 -236q-30 -143 48 -243.5t216 -100.5zM565 596 q-37 -7 -70 -49l-95 -123l-94 60l50 64q28 44 61 48h148zM679 531l-76 -101l-119 2l35 19l-25 72q33 43 52 54q11 5 23.5 8.5t25.5 0t18 -15.5l25 -57zM213 437h115l35 -106l-29 20l-59 -72q-49 0 -63 11q-14 8 -20.5 24t5.5 38l44 59zM602 178q19 38 1 76l-48 118l117 65 l27 -62q19 -44 2 -69zM470 97l-46 96l85 107l-8 -39l83 1q14 -52 13 -62q-4 -19 -17.5 -38t-34.5 -20h-66zM187 292q21 -30 67 -26l140 -1l-26 -123h-75q-48 -2 -62 20z" glyph-name="uni267D" unicode="♽"/><glyph d="M367 -14q-150 0 -234.5 109t-51.5 263q32 147 165 255.5t283 108.5t235 -109t53 -259q-32 -152 -164 -260t-286 -108zM597 174l54 23q20 9 17 28q-3 18 -20 14q-4 -1 -7 -2l-28 -10l-30 132q-2 11 -16 11h-139l4 29h92q19 0 25 22q5 20 -10 23q-2 1 -5 1h-95l14 92 q33 15 39 45q5 20 -7.5 35t-34.5 15q-21 0 -38.5 -15t-22.5 -35q-7 -32 19 -44l-31 -195q-2 -20 16 -20h136q9 0 15 -8h-1l30 -130q2 -8 9.5 -11t14.5 0zM367 108q43 0 85.5 21t74.5 57q7 13 0 32q-1 2 -1.5 5t-0.5 5q-2 5 -9 5.5t-11 -5.5q-22 -35 -59 -56.5t-75 -19.5 q-49 3 -75 38t-17 85q10 53 58 92q12 8 13 29q0 2 1 6t1 6q2 7 -4 10t-12 -1q-83 -51 -103 -141q-16 -69 23.5 -118.5t110.5 -49.5z" glyph-name="uni267F" unicode="♿"/><glyph d="M722 402h499l-20 -93h-499l-66 -309h-92l66 309h-499l20 93h499l66 311h92zM584 490l-340 223h388zM852 713h388l-436 -223zM491 467h-347l43 199zM887 467l390 199l-43 -199h-347zM97 246h347l-389 -200zM840 246h347l-42 -200zM528 223l-48 -223h-388zM748 223 l340 -223h-388z" glyph-name="uni2690" horiz-adv-x="1290" unicode="⚐"/><glyph d="M653 713l-70 -326h-456l70 326h456zM713 713h574l-15 -69h-574zM313 652l-34 -9l-30 9l2 -32l-16 -32l34 9l30 -9l-2 32zM446 652l-35 -9l-30 9l2 -32l-16 -32l34 9l31 -9l-3 32zM578 652l-34 -9l-31 9l3 -32l-17 -32l35 9l30 -9l-2 32zM685 584h574l-14 -68h-574z M286 526l-34 -9l-30 9l2 -32l-16 -33l34 10l30 -10l-2 33zM419 526l-35 -9l-30 9l2 -32l-16 -33l34 10l31 -10l-3 33zM551 526l-34 -9l-31 9l3 -32l-17 -33l35 10l30 -10l-2 33zM658 455h574l-15 -68h-574zM115 327h1090l-15 -69h-1090zM87 198h1090l-14 -69h-1090zM60 69 h1090l-15 -69l-1090 1z" glyph-name="uni2691" horiz-adv-x="1290" unicode="⚑"/><glyph d="M240 -14q-108 0 -168.5 76.5t-37.5 184.5q22 108 115.5 185t201.5 77t168.5 -77t37.5 -185t-116 -184.5t-201 -76.5z" glyph-name="uni26AB" horiz-adv-x="595" unicode="⚫"/><glyph d="M367 -14q-150 0 -234.5 109t-51.5 263q32 147 165 255.5t283 108.5t235 -109t53 -259q-32 -152 -164 -260t-286 -108zM511 102q102 27 117 112l-83 57q-18 0 -46 -30q-39 -50 -83 4l-64 138q-6 9 -7 26t10 35t36 22q16 2 30.5 9t16.5 13l5 112q-45 20 -85 0t-62 -49 q-28 -32 -28 -92.5t23 -124.5t57.5 -121t79 -89t83.5 -22z" glyph-name="uni2706" unicode="✆"/><glyph d="M367 -14q-150 0 -234.5 109t-51.5 263q32 147 165 255.5t283 108.5t235 -109t53 -259q-32 -152 -164 -260t-286 -108zM247 119l48 37l-13 41l143 119l33 -168l41 33l50 235l141 118q24 22 12 43q-7 9 -20.5 8t-25.5 -11l-141 -117h-237l-40 -32l155 -70l-143 -116l-39 20 l-42 -36l57 -38z" glyph-name="uni2708" unicode="✈"/><glyph d="M367 -14q-150 0 -234.5 109t-51.5 263q32 147 165 255.5t283 108.5t235 -109t53 -259q-32 -151 -165 -259.5t-285 -108.5zM447 341l237 174q-13 8 -27 8h-345q-13 0 -29 -8zM197 218l178 153l-116 125q-14 -16 -17 -31l-47 -219q-3 -15 2 -28zM642 218q11 12 14 28 l47 219q3 17 -3 31l-170 -125zM241 188h345q16 0 32 9l-114 155l-55 -41q-5 -3 -9 -3q-5 0 -10 3l-37 41l-180 -155q13 -9 28 -9z" glyph-name="uni2709" horiz-adv-x="847" unicode="✉"/><glyph d="M96 428q3 22 20.5 37.5t39.5 17.5q14 2 25 -4l1 6q5 23 22 39.5t37 16.5q17 0 26 -5l19 134q6 38 44 52q37 14 57 -10q10 -12 9 -32l-33 -215l88 169q19 37 58 35q33 -2 41 -29q5 -16 -3 -35l-101 -232q43 -12 30 -66q-1 -13 -25 -85q-23 -74 -87 -124l-10 -49 q-4 -20 -23.5 -34.5t-36.5 -14.5h-174q-21 0 -32 14t-6 34l15 68q-37 58 -30 115zM312 671l-38 -268q2 0 4 -1l143 -26l101 236q10 22 -9 30q-22 9 -39 -15l-101 -194q-12 -16 -23 -11q-8 0 -12.5 4.5t-3.5 11.5l36 239q1 23 -21 25q-23 1 -34 -20q-2 -5 -3 -11zM208 487 l-19 -129q-3 -22 18 -24q22 -2 32 17q2 5 3 11l18 129q2 11 -5 18.5t-18 6.5q-10 -1 -19 -9.5t-10 -19.5zM122 430l-14 -91q-3 -21 18 -23q23 -2 33 18q1 4 2 9l13 91q3 23 -18 25q-22 2 -31 -19q-2 -5 -3 -10zM102 294l-9 -61q-8 -48 28 -105q2 -2 1 -5l-15 -74 q-2 -10 2.5 -17t14.5 -7h175q21 0 30 24l13 57q0 2 4 6l18 15q50 45 64 97l22 82q11 36 -19 42l-153 27q-13 -50 18 -60l54 -15q13 -3 17 -17t-5 -28l-19 -32q-12 -14 -21 -7q-8 6 -1 17l19 32q4 7 -1 10l-46 17q-32 12 -40 39v1q-17 -21 -41 -24t-36 11q-13 -19 -35.5 -27 t-38.5 2z" glyph-name="uni270C" horiz-adv-x="534" unicode="✌"/><glyph d="M92 455l285 -362q16 -21 39 -26l223 -59q28 -8 48 7.5t19 44.5l-4 227q0 41 -21 69l-280 357h-128l-143 -117zM122 468l31 117l121 101l112 2l-33 -106l-125 -103zM403 666l269 -345q-17 -38 -43 -73l-253 325zM313 636q10 -11 -2 -34t-38 -45q-26 -21 -51 -27.5t-32 4.5 q-10 13 2 35.5t37 43.5q26 21 50.5 27.5t33.5 -4.5zM355 552l257 -327q-43 -52 -102 -83l-257 328zM133 442l11 3l84 7l255 -324q-35 -17 -80 -25zM437 89q160 46 239 190l1 -164q-1 -37 -26 -57t-59 -12q-124 31 -155 43z" glyph-name="uni270E" horiz-adv-x="800" unicode="✎"/><glyph d="M750 256l-285 362q-18 21 -40 26l-222 59q-28 8 -48 -7.5t-19 -44.5l3 -227q2 -45 22 -69l280 -357h128l143 117zM404 622q-160 -46 -239 -190v164q-1 36 25 56.5t60 12.5q122 -30 154 -43zM708 269l-10 -3l-85 -7l-255 324q38 17 80 25zM486 159l-257 327q45 52 102 83 l257 -328zM439 45l-270 345q17 39 44 73l252 -325zM720 243l-31 -117l-122 -101l-112 -2l34 106l124 103zM528 75q-10 11 2.5 34.5t38.5 44.5q25 21 50.5 27.5t32.5 -4.5q9 -12 -3 -35t-37 -44q-27 -21 -51 -28t-33 5z" glyph-name="uni270F" horiz-adv-x="800" unicode="✏"/><glyph d="M50 256l-22 -141l93 -117h128l432 357q32 26 50 69l101 227q13 29 -0.5 44.5t-44.5 7.5l-248 -59q-26 -6 -50 -26zM550 622q34 11 174 43q37 8 54 -12.5t1 -56.5l-70 -164q-19 145 -159 190zM96 269l414 339q41 -8 70 -25l-393 -324l-81 7zM272 159l-68 82l397 328 q45 -30 66 -83zM271 45l12 93l392 325q11 -36 12 -73zM74 243l101 -11l82 -103l-12 -106l-112 2l-78 101zM194 75q-14 -12 -35.5 -5t-38.5 28q-16 22 -18.5 44t12.5 35q12 11 34 4.5t39 -27.5t19 -44.5t-12 -34.5z" glyph-name="uni2710" horiz-adv-x="800" unicode="✐"/><glyph d="M820 722q-294 -153 -573 -495l-6 -2q-23 124 -82 124q-25 0 -54.5 -18.5t-79.5 -66.5l5 -6q43 3 61 -28t45 -151q13 -64 15 -90l10 -3q35 38 98 75q100 170 267.5 348.5t314.5 272.5z" glyph-name="uni2713" horiz-adv-x="774" unicode="✓"/><glyph d="M367 -14q-150 0 -234.5 109t-51.5 263q32 147 165 255.5t283 108.5t235 -109t53 -259q-32 -152 -164 -260t-286 -108zM521 694l-125 -236h-249l169 -146l-126 -235l230 145l172 -145l-28 235l233 146h-249z" glyph-name="uni272A" unicode="✪"/><glyph d="M719 681q-141 -101 -296 -289q57 -93 87 -188t48 -215l-49 -20q-56 175 -161 329q-99 -132 -153 -237q-98 -67 -122 -88l-7 2q-4 30 -19 78q127 186 244 322q-79 95 -154 143q-16 77 -32 123l5 6q19 1 90 13q104 -100 174 -196q147 149 322 255z" glyph-name="uni274C" horiz-adv-x="653" unicode="❌"/><glyph d="M367 -14q-150 0 -234.5 109t-51.5 263q32 147 165 255.5t283 108.5t235 -109t53 -259q-32 -152 -164 -260t-286 -108zM448 468l-75 -349h68l101 475h-68q-8 -40 -29.5 -55.5t-59.5 -15.5l-12 -55h75z" glyph-name="uni2776" unicode="❶"/><glyph d="M367 -14q-150 0 -234.5 109t-51.5 263q32 147 165 255.5t283 108.5t235 -109t53 -259q-32 -152 -164 -260t-286 -108zM258 120h292l14 65h-181l101 93q76 71 103 105.5t36 74.5q13 61 -22.5 102.5t-98.5 41.5q-132 0 -181 -145l60 -12q36 93 108 93q35 0 54 -23t11 -56 q-5 -24 -26.5 -51.5t-77.5 -79.5l-185 -172z" glyph-name="uni2777" unicode="❷"/><glyph d="M367 -14q-150 0 -234.5 109t-51.5 263q32 147 165 255.5t283 108.5t235 -109t53 -259q-32 -152 -164 -260t-286 -108zM394 110q65 0 116.5 41.5t65.5 104.5q16 77 -35 111q58 35 72 101q12 58 -18.5 95t-89.5 37q-62 0 -101 -31.5t-63 -96.5l64 -10q16 40 34 57t52 17 q29 0 45 -19.5t9 -49.5q-14 -69 -105 -69l-14 -63q49 0 70 -17.5t12 -58.5q-7 -36 -35.5 -59.5t-62.5 -23.5q-36 0 -51 19t-13 59l-68 -10q-7 -63 24 -98.5t92 -35.5z" glyph-name="uni2778" unicode="❸"/><glyph d="M367 -14q-150 0 -234.5 109t-51.5 263q32 147 165 255.5t283 108.5t235 -109t53 -259q-32 -152 -164 -260t-286 -108zM413 119h69l16 74h57l13 64h-56l71 337h-37l-319 -357l-9 -44h211zM320 257h123l37 174z" glyph-name="uni2779" unicode="❹"/><glyph d="M367 -14q-150 0 -234.5 109t-51.5 263q32 147 165 255.5t283 108.5t235 -109t53 -259q-32 -152 -164 -260t-286 -108zM366 110q77 0 137 49t76 124q15 72 -21 119t-105 47h-22l33 78h164l14 66h-215l-82 -193l30 -25q30 13 55 13q43 0 66.5 -30.5t13.5 -74.5 q-10 -46 -46.5 -77t-80.5 -31q-61 0 -86 68l-64 -41q35 -92 133 -92z" glyph-name="uni277A" unicode="❺"/><glyph d="M367 -14q-150 0 -234.5 109t-51.5 263q32 147 165 255.5t283 108.5t235 -109t53 -259q-32 -152 -164 -260t-286 -108zM392 110q68 0 127.5 49t73.5 117q16 72 -28.5 120t-114.5 37l126 135l-46 40l-207 -223q-53 -57 -63 -112q-14 -68 24.5 -115.5t107.5 -47.5zM406 175 q-41 0 -63.5 29t-13.5 71q8 40 43.5 69t76.5 29q40 0 61.5 -29.5t13.5 -71.5q-8 -39 -43.5 -68t-74.5 -29z" glyph-name="uni277B" unicode="❻"/><glyph d="M367 -14q-150 0 -234.5 109t-51.5 263q32 147 165 255.5t283 108.5t235 -109t53 -259q-32 -152 -164 -260t-286 -108zM283 98l391 450l8 40h-336l-14 -65h242l-336 -389z" glyph-name="uni277C" unicode="❼"/><glyph d="M367 -14q-150 0 -234.5 109t-51.5 263q32 147 165 255.5t283 108.5t235 -109t53 -259q-32 -152 -164 -260t-286 -108zM398 109q62 0 113.5 41.5t64.5 102.5q14 75 -36 111q55 36 70 101q12 57 -19 95.5t-89 38.5t-105.5 -38.5t-60.5 -95.5q-13 -66 28 -101 q-68 -38 -85 -112q-13 -61 21.5 -102t97.5 -41zM457 393q-29 0 -45 21t-9 52q5 28 30.5 48.5t53.5 20.5q30 0 46 -21t9 -51q-6 -29 -30.5 -49.5t-54.5 -20.5zM410 175q-33 0 -51 23t-11 56q7 32 35.5 55t60.5 23q33 0 51.5 -23t11.5 -56q-7 -32 -35.5 -55t-61.5 -23z" glyph-name="uni277D" unicode="❽"/><glyph d="M367 -14q-150 0 -234.5 109t-51.5 263q32 147 165 255.5t283 108.5t235 -109t53 -259q-32 -152 -164 -260t-286 -108zM366 100l208 223q52 57 64 112q14 67 -25 115t-108 48q-68 0 -127 -49t-74 -117q-15 -73 29 -120.5t115 -36.5l-126 -135zM449 335q-40 0 -62 29.5 t-13 71.5q8 39 43 68t74 29q41 0 64 -29t14 -71q-8 -40 -43.5 -69t-76.5 -29z" glyph-name="uni277E" unicode="❾"/><glyph d="M5 0l152 713h713l-152 -713h-713zM39 28h657l70 329h-657z" glyph-name="uni2B12" horiz-adv-x="833" unicode="⬒"/><glyph d="M157 713h713l-152 -713h-713zM179 685l-70 -329h657l70 329h-657z" glyph-name="uni2B13" horiz-adv-x="833" unicode="⬓"/><glyph d="M5 0l152 713h713l-152 -713h-713zM39 28h657l-517 657z" glyph-name="uni2B14" horiz-adv-x="833" unicode="⬔"/><glyph d="M5 0l152 713h713l-152 -713h-713zM696 28l140 657h-657z" glyph-name="uni2B15" horiz-adv-x="833" unicode="⬕"/><glyph d="M533 713l316 -273l-238 -440h-462l-50 440z" glyph-name="uni2B1F" horiz-adv-x="870" unicode="⬟"/><glyph d="M533 713l316 -273l-238 -440h-462l-50 440zM526 683l-400 -252l46 -406h426l220 406z" glyph-name="uni2B20" horiz-adv-x="870" unicode="⬠"/><glyph d="M662 179l-347 -179l-272 179l76 356l348 178l271 -178zM640 193l70 328l-249 163l-320 -163l-70 -328l250 -165z" glyph-name="uni2B21" horiz-adv-x="739" unicode="⬡"/><glyph d="M662 179l-347 -179l-272 179l76 356l348 178l271 -178z" glyph-name="uni2B22" horiz-adv-x="739" unicode="⬢"/><glyph d="M-25 0l464 713l160 -713h-624z" glyph-name="uni2B61" horiz-adv-x="684" unicode="⭡"/><glyph d="M127 713h624l-464 -713z" glyph-name="uni2B63" horiz-adv-x="684" unicode="⭣"/><glyph d="M81 358q32 150 164.5 257t285.5 107q97 0 170.5 -50.5t105 -135.5t10.5 -183q-21 -99 -89 -183.5t-163.5 -134t-194.5 -49.5q-152 0 -237 109t-52 263zM692 387h-366l142 116l-33 44l-235 -194l153 -193l52 43l-94 116h366z" glyph-name="uni2B88" unicode="⮈"/><glyph d="M524 722q154 0 240 -108t53 -260q-32 -150 -163.5 -259t-281.5 -109q-98 0 -173 49.5t-107.5 134t-11.5 180.5q32 154 163 263t281 109zM365 119h68l78 365l91 -118l52 43l-152 193l-234 -193l34 -43l141 118z" glyph-name="uni2B89" unicode="⮉"/><glyph d="M817 350q-32 -150 -164.5 -257t-285.5 -107q-148 0 -233 110t-53 259q31 150 163.5 258.5t282.5 108.5q152 0 237 -109t53 -263zM206 321h366l-143 -116l34 -44l235 194l-153 193l-52 -43l94 -116h-366z" glyph-name="uni2B8A" unicode="⮊"/><glyph d="M367 -14q-150 0 -234.5 109t-51.5 263q32 147 165 255.5t283 108.5t235 -109t53 -259q-32 -152 -164 -260t-286 -108zM465 589l-77 -365l-91 118l-52 -43l152 -193l234 193l-34 43l-141 -118l77 365h-68z" glyph-name="uni2B8B" unicode="⮋"/><glyph d="M661 713l164 -209l-62 -295l-254 -209h-295l-164 209l62 295l254 209h295z" glyph-name="uni2BC4" horiz-adv-x="833" unicode="⯄"/><glyph d="M477 722q58 0 89.5 -40t18.5 -98q-12 -57 -60.5 -97.5t-106.5 -40.5q-57 0 -89 40.5t-20 97.5q13 58 61.5 98t106.5 40zM813 524l30 -32q-55 -46 -113 -46q-57 0 -89 40.5t-20 97.5q13 58 61.5 98t106.5 40q59 0 93 -45l-44 -31q-17 30 -59 30q-37 0 -69.5 -27t-40.5 -65 q-8 -37 13 -63.5t58 -26.5q41 0 73 30zM428 494q37 0 70 26.5t40 63.5q8 38 -13 65t-58 27q-38 0 -70 -27t-40 -65q-8 -37 13 -63.5t58 -26.5zM112 560l10 48h151l-10 -48h-151z" glyph-name="uniF8FF" horiz-adv-x="841" unicode=""/><glyph d="M185 523q-41 0 -63.5 28.5t-13.5 70.5q8 38 43.5 66.5t75.5 28.5t63.5 -29t14.5 -69t-44 -68t-76 -28zM121 284l302 428h53l-301 -428h-54zM196 570q21 0 38 15t21 36q5 20 -6.5 34t-31.5 14t-37.5 -14t-22.5 -34q-4 -22 7 -36.5t32 -14.5zM293 374q8 38 43 66t75 28 q41 0 64 -28t14 -68q-8 -40 -43 -68t-76 -28t-63 28.5t-14 69.5zM343 373q-5 -21 6 -36t32 -15q20 0 37 15t22 35t-6.5 35t-31.5 15t-37.5 -14.5t-21.5 -34.5z" glyph-name="uniFE6A" horiz-adv-x="495" unicode="﹪"/><glyph d="M77 480l280 233l182 -233h-462zM138 239q-41 0 -63.5 28.5t-13.5 70.5q8 38 43.5 66.5t75.5 28.5t62.5 -29t14.5 -69t-43 -68t-76 -28zM74 0l302 428h52l-301 -428h-53zM148 286q21 0 38.5 14.5t21.5 36.5q4 20 -7 34t-32 14q-19 0 -36.5 -14t-22.5 -34q-4 -22 7 -36.5 t31 -14.5zM246 90q8 38 43 66t75 28q41 0 63.5 -27.5t14.5 -68.5q-8 -40 -43 -68t-77 -28q-41 0 -63 28.5t-13 69.5zM296 89q-5 -20 6 -35.5t31 -15.5t37.5 15t22.5 35q4 20 -7.5 35t-31.5 15q-19 0 -36.5 -14.5t-21.5 -34.5z" glyph-name="uniFFEA" horiz-adv-x="522" unicode="￪"/><glyph d="M198 523q-41 0 -63 28.5t-14 70.5q8 38 43.5 66.5t75.5 28.5t63 -28.5t15 -69.5q-9 -40 -44 -68t-76 -28zM134 284l302 428h53l-301 -428h-54zM209 570q20 0 37.5 14.5t21.5 36.5q5 20 -6.5 34t-31.5 14t-37.5 -14t-22.5 -34q-4 -22 7 -36.5t32 -14.5zM306 374 q9 38 43.5 66t74.5 28q41 0 64 -28t14 -68q-8 -41 -42.5 -68.5t-76.5 -27.5q-41 0 -63.5 28.5t-13.5 69.5zM356 373q-5 -20 6.5 -35.5t31.5 -15.5t37.5 15t21.5 35q5 20 -6.5 35t-31.5 15t-37.5 -14.5t-21.5 -34.5zM24 232h462l-281 -232z" glyph-name="uniFFEC" horiz-adv-x="522" unicode="￬"/><glyph d="M367 -14q-150 0 -234.5 109t-51.5 263q32 147 165 255.5t283 108.5t235 -109t53 -259q-32 -152 -164 -260t-286 -108zM200 163h70l70 109h183l22 -109h72l-98 445h-30zM379 333l100 154l31 -154h-131z" glyph-name="u1F150" unicode="🅐"/><glyph d="M367 -14q-150 0 -234.5 109t-51.5 263q21 97 89.5 181t164.5 133.5t194 49.5q150 0 235 -109t53 -259q-32 -152 -164 -260t-286 -108zM359 577l-95 -445h176q71 0 119.5 33.5t61.5 95.5q17 81 -49 111q41 30 53 80q12 59 -19 92t-99 33h-148zM472 387h-90l26 128h92 q75 0 60 -65q-12 -63 -88 -63zM450 192h-110l29 139h103q48 0 71.5 -16.5t14.5 -53.5q-14 -69 -108 -69z" glyph-name="u1F151" unicode="🅑"/><glyph d="M367 -14q-150 0 -234.5 109t-51.5 263q32 147 165 255.5t283 108.5t235 -109t53 -259q-32 -152 -164 -260t-286 -108zM235 350q-20 -93 33 -159.5t147 -66.5q65 0 126 32l-7 64q-57 -32 -106 -32q-67 0 -104 47t-22 115q15 72 71.5 120.5t125.5 48.5q48 0 85 -25l41 58 q-46 32 -107 32q-98 0 -180.5 -68t-102.5 -166z" glyph-name="u1F152" unicode="🅒"/><glyph d="M367 -14q-150 0 -234.5 109t-51.5 263q32 147 165 255.5t283 108.5t235 -109t53 -259q-32 -152 -164 -260t-286 -108zM350 577l-95 -445h125q108 0 187 60.5t101 161.5q22 100 -31 161.5t-160 61.5h-127zM397 192h-63l68 323h63q79 0 116 -43.5t21 -118.5 q-15 -72 -71.5 -116.5t-133.5 -44.5z" glyph-name="u1F153" unicode="🅓"/><glyph d="M367 -14q-150 0 -234.5 109t-51.5 263q32 147 165 255.5t283 108.5t235 -109t53 -259q-32 -152 -164 -260t-286 -108zM347 577l-95 -445h302l13 60h-238l32 150h193l13 61h-193l23 112h239l13 62h-302z" glyph-name="u1F154" unicode="🅔"/><glyph d="M367 -14q-150 0 -234.5 109t-51.5 263q32 147 165 255.5t283 108.5t235 -109t53 -259q-32 -152 -164 -260t-286 -108zM358 577l-95 -445h65l45 210h190l13 61h-190l23 112h224l14 62h-289z" glyph-name="u1F155" unicode="🅕"/><glyph d="M367 -14q-150 0 -234.5 109t-51.5 263q32 147 165 255.5t283 108.5t235 -109t53 -259t-165 -259t-285 -109zM227 353q-20 -94 33 -161.5t147 -67.5q63 0 117 28t90 78l32 149h-185l-13 -61h126l-13 -63q-55 -69 -140 -69q-67 0 -105 49.5t-24 117.5q15 71 75 120.5 t130 49.5q54 0 89 -35l47 53q-49 43 -125 43q-96 0 -178.5 -67.5t-102.5 -163.5z" glyph-name="u1F156" unicode="🅖"/><glyph d="M367 -14q-150 0 -234.5 109t-51.5 263q32 147 165 255.5t283 108.5t235 -109t53 -259q-32 -152 -164 -260t-286 -108zM321 577l-95 -446h64l45 210h223l-45 -210h64l95 446h-64l-38 -175h-222l37 175h-64z" glyph-name="u1F157" unicode="🅗"/><glyph d="M367 -14q-150 0 -234.5 109t-51.5 263q32 147 165 255.5t283 108.5t235 -109t53 -259q-32 -152 -164 -260t-286 -108zM465 577l-95 -446h64l95 446h-64z" glyph-name="u1F158" unicode="🅘"/><glyph d="M367 -14q-150 0 -234.5 109t-51.5 263q32 147 165 255.5t283 108.5t235 -109t53 -259q-32 -152 -164 -260t-286 -108zM344 265h-65q-22 -141 104 -141q132 0 166 160l62 293h-64l-59 -276q-7 -31 -11.5 -46.5t-14.5 -34.5t-26 -27t-40 -8q-36 0 -47.5 18t-4.5 62z" glyph-name="u1F159" unicode="🅙"/><glyph d="M367 -14q-150 0 -234.5 109t-51.5 263q32 147 165 255.5t283 108.5t235 -109t53 -259q-32 -152 -164 -260t-286 -108zM239 131h67l34 160l68 58l112 -218h80l-133 267l215 179h-88l-235 -196l42 196h-67z" glyph-name="u1F15A" unicode="🅚"/><glyph d="M367 -14q-150 0 -234.5 109t-51.5 263q32 147 165 255.5t283 108.5t235 -109t53 -259q-32 -152 -164 -260t-286 -108zM376 579l-95 -447h274l14 62h-209l81 385h-65z" glyph-name="u1F15B" unicode="🅛"/><glyph d="M367 -14q-150 0 -234.5 109t-51.5 263q32 147 165 255.5t283 108.5t235 -109t53 -259q-32 -152 -164 -260t-286 -108zM160 140h65l99 278l67 -278h27l187 278l-22 -278h65l30 447h-28l-219 -327l-79 327h-28z" glyph-name="u1F15C" unicode="🅜"/><glyph d="M367 -14q-150 0 -234.5 109t-51.5 263q32 147 165 255.5t283 108.5t235 -109t53 -259q-32 -152 -164 -260t-286 -108zM222 132h65l66 310l195 -310h34l95 446h-65l-66 -313l-196 313h-33z" glyph-name="u1F15D" unicode="🅝"/><glyph d="M367 -14q-150 0 -234.5 109t-51.5 263q32 147 165 255.5t283 108.5t235 -109t53 -259q-32 -152 -164 -260t-286 -108zM398 124q97 0 179.5 67.5t102.5 162.5q20 94 -33.5 162t-147.5 68t-177.5 -68t-103.5 -160q-21 -96 32.5 -164t147.5 -68zM282 356q14 68 74.5 117.5 t127.5 49.5q70 0 108 -49t23 -120q-14 -70 -74 -119t-129 -49q-68 0 -106.5 49.5t-23.5 120.5z" glyph-name="u1F15E" unicode="🅞"/><glyph d="M367 -14q-150 0 -234.5 109t-51.5 263q32 147 165 255.5t283 108.5t235 -109t53 -259q-32 -152 -164 -260t-286 -108zM361 577l-95 -446h65l40 188h113q66 0 112 34t59 94q13 63 -20 96.5t-107 33.5h-167zM494 380h-110l28 135h108q86 0 72 -67q-15 -68 -98 -68z" glyph-name="u1F15F" unicode="🅟"/><glyph d="M367 -14q-150 0 -234.5 109t-51.5 263q32 147 165 255.5t283 108.5t235 -109t53 -259q-32 -152 -164 -260t-286 -108zM398 124q71 0 136 38l43 -59q31 17 53 41l-41 57q73 70 90 149q20 98 -33 166t-150 68q-95 0 -177 -68t-102 -163q-20 -94 33 -161.5t148 -67.5z M411 185q-68 0 -106 50t-23 121q14 68 74 117t128 49q69 0 107 -49t23 -119q-14 -70 -73.5 -119.5t-129.5 -49.5z" glyph-name="u1F160" unicode="🅠"/><glyph d="M367 -14q-150 0 -234.5 109t-51.5 263q32 147 165 255.5t283 108.5t235 -109t53 -259q-32 -152 -164 -260t-286 -108zM353 577l-95 -446h64l40 188h87l89 -188h80l-97 194q49 8 83.5 41.5t44.5 81.5q13 64 -20.5 96.5t-109.5 32.5h-166zM485 377h-111l29 138h109 q41 0 61.5 -15.5t12.5 -51.5q-16 -71 -101 -71z" glyph-name="u1F161" unicode="🅡"/><glyph d="M367 -14q-150 0 -234.5 109t-51.5 263q32 147 165 255.5t283 108.5t235 -109t53 -259q-32 -152 -164 -260t-286 -108zM396 124q70 0 122.5 35.5t66.5 99.5q11 50 -14.5 81t-91.5 48q-21 7 -29 9.5t-23.5 9.5t-21 13t-9.5 16.5t-1 23.5q6 28 33.5 46.5t62.5 18.5 q50 0 88 -40l53 46q-48 53 -127 53q-64 0 -115.5 -35t-63.5 -92q-21 -91 97 -120q54 -14 77.5 -31t15.5 -51q-7 -33 -38 -51t-67 -18q-64 0 -97 44l-57 -43q19 -28 56 -45.5t83 -17.5z" glyph-name="u1F162" unicode="🅢"/><glyph d="M367 -14q-150 0 -234.5 109t-51.5 263q32 147 165 255.5t283 108.5t235 -109t53 -259q-32 -152 -164 -260t-286 -108zM451 515l-81 -384h64l81 384h137l13 62h-336l-14 -62h136z" glyph-name="u1F163" unicode="🅣"/><glyph d="M367 -14q-150 0 -234.5 109t-51.5 263q32 147 165 255.5t283 108.5t235 -109t53 -259q-32 -152 -164 -260t-286 -108zM268 175q32 -62 131 -62q91 0 155 62q38 36 54 108l60 284h-65l-59 -283q-11 -52 -42 -79.5t-91 -27.5q-59 0 -78 27.5t-8 79.5l60 283h-65l-60 -284 q-14 -67 8 -108z" glyph-name="u1F164" unicode="🅤"/><glyph d="M367 -14q-150 0 -234.5 109t-51.5 263q32 147 165 255.5t283 108.5t235 -109t53 -259q-32 -152 -164 -260t-286 -108zM307 559l75 -446h32l265 446h-70l-181 -311l-50 311h-71z" glyph-name="u1F165" unicode="🅥"/><glyph d="M367 -14q-150 0 -234.5 109t-51.5 263q32 147 165 255.5t283 108.5t235 -109t53 -259q-32 -152 -164 -260t-286 -108zM222 541l51 -410h30l152 264l31 -264h29l240 410h-70l-150 -256l-34 256h-29l-150 -256l-30 256h-70z" glyph-name="u1F166" unicode="🅦"/><glyph d="M367 -14q-150 0 -234.5 109t-51.5 263q32 147 165 255.5t283 108.5t235 -109t53 -259q-32 -152 -164 -260t-286 -108zM415 362l-201 -231h74l151 171l79 -171h72l-101 231l190 215h-74l-139 -156l-71 156h-75z" glyph-name="u1F167" unicode="🅧"/><glyph d="M367 -14q-150 0 -234.5 109t-51.5 263q32 147 165 255.5t283 108.5t235 -109t53 -259q-32 -152 -164 -260t-286 -108zM410 323l-41 -192h64l41 192l203 254h-75l-145 -183l-66 183h-74z" glyph-name="u1F168" unicode="🅨"/><glyph d="M367 -14q-150 0 -234.5 109t-51.5 263q32 147 165 255.5t283 108.5t235 -109t53 -259q-32 -152 -164 -260t-286 -108zM555 515l-312 -350l-7 -34h336l13 61h-245l314 354l7 31h-313l-14 -62h221z" glyph-name="u1F169" unicode="🅩"/><glyph d="M367 -14q-150 0 -234.5 109t-51.5 263q32 147 165 255.5t283 108.5t235 -109t53 -259q-32 -151 -165 -259.5t-285 -108.5zM398 89q108 2 205 81.5t119 187.5q22 111 -40 189t-172 78q-111 0 -206 -79t-118 -190q-23 -110 39.5 -189t172.5 -78zM503 446q-9 31 -22.5 62.5 t-22.5 48.5t-12 21q28 9 56 9q82 0 140 -58l-5 -5q-5 -5 -10.5 -9.5t-14 -11.5t-19.5 -14t-24.5 -14.5t-30.5 -15t-35 -13.5zM238 404q22 52 65.5 94.5t95.5 65.5q28 -50 57 -133q-112 -27 -218 -27zM682 359q-70 20 -157 9l-3 12l-7 32q31 12 59.5 28t44.5 28t29 23t14 11 q37 -64 20 -143zM252 204q-47 65 -28 152l1 6q125 0 243 34l11 -38l-9 -2q-123 -26 -218 -152zM541 168q8 50 -10 163q15 2 30.5 3t29 0.5t25 -2t21.5 -3.5t17 -3.5t12 -3.5l5 -1q-35 -96 -130 -153zM407 129q-77 -4 -131 48q7 11 25 31t70 55.5t114 55.5q23 -111 14 -171 q-37 -15 -92 -19z" glyph-name="u1F3C0" unicode="🏀"/><glyph d="M529 722q150 0 235 -109t53 -259q-32 -151 -165 -259.5t-285 -108.5q-150 0 -234.5 109t-51.5 263q32 147 165 255.5t283 108.5zM737 491v2h-3q-18 -8 -52 -16q16 7 28 24q16 14 23 29q3 0 0 3q-1 0 -1 -2q-42 -16 -64 -22q-3 0 -5 2l-3 5q-8 10 -27 17q-21 9 -41 8 q-35 -8 -44 -13q-18 -6 -40 -26q-19 -19 -28 -40q-4 -8 -11 -44v-1q-129 19 -182 103q-6 4 -7 0q-23 -26 -24.5 -64t16.5 -59q8 -8 10 -9q-2 -1 -7 -0.5t-14 3t-16 6.5q-2 1 -4 -1q0 -2 -0.5 -6t-1.5 -6q-2 -28 10.5 -51t35.5 -32l12 -5q-11 -3 -37 -2q-5 1 -5 -2 q7 -55 66 -67q5 -1 12 -1l-2 -2q-13 -14 -61 -30q-54 -15 -85 -10q-6 2 -8 0l1 -4l15 -10q36 -17 51 -22q69 -25 153 -6.5t153 74.5q94 78 126 222q1 4 8 6q17 11 48 42q2 1 3 2.5t1 3.5zM469 417z" glyph-name="u1F426" unicode="🐦"/><glyph d="M367 -14q-150 0 -234.5 109t-51.5 263q32 147 165 255.5t283 108.5t235 -109t53 -259q-32 -152 -164 -260t-286 -108zM164 230q4 -11 18 -16q10 -6 21 -8q10 -2 15.5 -4t8.5 -8t2 -16q-1 -6 3.5 -8.5t11.5 -1.5q38 4 50 3q13 -1 26 -11q5 -3 14 -10t14 -10q51 -35 120 4 l16 10q35 24 80 16l9 -1q18 -3 24 14q7 20 28 21q13 1 30 9q17 5 27 17l2 9q-4 6 -12 8q-64 16 -82 87q-3 18 17 27q16 5 19 7q18 6 27 12q10 8 11 14q3 13 -10 20q-9 4 -41 -5q-8 -2 -10 0.5t0 10.5q13 42 17 78q6 58 -41 89q-68 46 -161 -1q-65 -32 -81 -98 q-10 -38 -14 -68q-1 -8 -3.5 -10.5t-8.5 -1.5q-4 1 -15.5 5.5t-19.5 2.5q-15 -4 -21.5 -15.5t2.5 -21.5q2 -2 8 -5.5t8 -5.5q3 0 7 -2q23 -8 24.5 -17t-16.5 -31q-51 -60 -108 -71q-5 -1 -14 -8z" glyph-name="u1F47B" unicode="👻"/><glyph d="M367 -14q-150 0 -234.5 109t-51.5 263q32 147 165 255.5t283 108.5t235 -109t53 -259q-32 -152 -164 -260t-286 -108zM420 361l-2 2l-10 21q-4 4 -5 4q-17 5 -9 22q3 7 11 11t15 2q15 -6 7 -24q-2 -2 -2 -4q1 -3 4 -8t4 -7q9 69 61 117t118 53q-9 36 -44.5 58.5 t-82.5 13.5q-55 -11 -94.5 -53.5t-46.5 -97.5q-6 -47 26 -81q19 -20 50 -29zM662 301l6 6t7 6.5t5 5.5q44 47 45.5 103.5t-41.5 88.5q-27 21 -69 19.5t-81 -25.5q-48 -29 -69 -76q-1 -3 -9 -26q-1 -2 -2 -7l-1 -6l2 1l18 19q6 6 7 11q2 8 9 13t14 4q14 -4 11 -19 q-4 -17 -19 -17q-6 0 -11 -6l-2 -2q-5 -4 -6 -6l-1 -1q69 25 121 1q54 -26 66 -87zM411 306l18 18q-2 0 -7.5 -1.5t-6.5 -1.5l-15 -5l-5 -3q-14 -16 -26 -6q-11 10 2 26q4 5 12 6t13 -4q0 -1 2 -1q3 1 10 2.5t10 2.5q-60 17 -84 71q-23 53 7 119h-5q-53 -8 -89.5 -43.5 t-48.5 -97.5q-12 -53 21.5 -88.5t89 -34.5t102.5 41zM421 128q27 -21 78 -13.5t92 45.5q41 37 50.5 86.5t-18.5 92.5q-24 33 -67 40t-70 -8l4 -1q2 -1 6 -2.5t8 -2.5t7 -2q3 -2 5 0q11 4 18.5 -2.5t3.5 -16.5q-6 -14 -18 -15q-16 -1 -18 12q0 3 -2 3l-14 6q32 -51 14 -114 q-17 -63 -79 -108zM239 147q44 -46 113 -30t111 80q20 31 23 66.5t-12 62.5q0 1 -2 5l-6 -26q-2 -5 0 -9q9 -10 -4 -21q-11 -11 -22 -6q-9 4 -9 13q2 11 11 18l2 1q2 1 3 2l4 19h-2q-42 -56 -112 -73q-64 -16 -115 20l-1 -2q-25 -74 18 -120z" glyph-name="u1F4AE" unicode="💮"/><glyph d="M367 -14q-150 0 -234.5 109t-51.5 263q32 147 165 255.5t283 108.5t235 -109t53 -259q-32 -151 -165 -259.5t-285 -108.5zM181 208h161q4 0 11 0.5t25 5t33 13t29.5 27.5t20.5 46q1 3 2 8.5t1 18.5t-3 23t-13.5 18.5t-28.5 8.5q5 0 13.5 2t25.5 17t22 40q9 40 -12 61.5 t-60 21.5h-161zM560 462h128l9 39h-128zM292 395l15 68h90q1 0 2.5 -0.5t5.5 -2t5.5 -4.5t3.5 -9.5t-1 -15.5q-5 -22 -14 -29t-22 -7h-85zM571 201h11.5t27 4t35.5 11.5t31.5 25t20.5 42.5h-56q-1 -4 -3 -9.5t-16.5 -14.5t-37.5 -9h-5.5t-13 2t-14.5 7.5t-10 16t0 27.5h161 q2 6 4.5 15t3.5 32.5t-5 41.5t-27 32.5t-56 14.5q-33 0 -60.5 -12.5t-42.5 -30t-25 -35t-14 -30.5l-3 -12q-1 -2 -1.5 -6.5t-1.5 -17t0 -23.5t7 -25t16 -23.5t29 -16.5t45 -7zM549 347l2.5 5t7 11.5t12 15t18.5 11.5t25 5q21 0 30.5 -12t7.5 -24l-1 -12h-102zM264 263l18 84 h90q4 0 9 -1t12 -12t3 -31q-8 -37 -46 -40h-86z" glyph-name="u1F4BC" unicode="💼"/><glyph d="M367 -14q-150 0 -234.5 109t-51.5 263q32 147 165 255.5t283 108.5t235 -109t53 -259q-32 -151 -165 -259.5t-285 -108.5zM278 66l16 16q15 17 33 41.5t28 46.5l41 85q5 -16 24.5 -27.5t44.5 -11.5q75 0 135 60.5t80 155.5q15 71 -30 125t-132 54q-103 0 -176 -61 t-89 -135q-19 -94 40 -120q8 -6 17 8l11 25q4 8 0 17q-16 25 -9 61q13 62 65.5 107t122.5 45q61 0 88.5 -34t15.5 -87q-15 -69 -53.5 -118t-81.5 -49q-25 0 -36 18t-1 42q6 13 19 38t21 43t11 31q5 21 -3 33.5t-29 12.5q-25 0 -47.5 -23t-29.5 -58q-3 -12 -3.5 -24t0.5 -18 l1 -6l-76 -172q-10 -23 -16.5 -51.5t-8 -45.5t-0.5 -22q-1 -3 2 -3.5t5 1.5z" glyph-name="u1F4CC" unicode="📌"/><glyph d="M367 -14q-150 0 -234.5 109t-51.5 263q32 147 165 255.5t283 108.5t235 -109t53 -259q-32 -151 -165 -259.5t-285 -108.5zM300 110h195q60 0 112.5 42.5t65.5 104.5l41 195q13 59 -21.5 102.5t-94.5 43.5h-195q-59 0 -111.5 -43.5t-65.5 -102.5l-41 -195q-13 -61 21 -104 t94 -43zM309 156q-41 0 -64 30t-14 71l41 195q9 41 45 70.5t76 29.5h195q41 0 64.5 -29.5t14.5 -70.5l-41 -195q-9 -41 -45 -71t-77 -30h-195zM594 452q13 0 23.5 8t12.5 20t-5 20.5t-19 8.5t-22 -8.5t-12 -20.5t4 -20t18 -8zM423 234q50 0 93 35.5t54 85.5q10 49 -18 84 t-78 35q-49 0 -91.5 -35t-52.5 -84q-11 -50 16.5 -85.5t76.5 -35.5zM432 277q-31 0 -49 22.5t-11 54.5t34.5 54.5t58.5 22.5q33 0 50 -22.5t10 -54.5t-33.5 -54.5t-59.5 -22.5z" glyph-name="u1F4F7" unicode="📷"/><glyph d="M367 -14q-150 0 -234.5 109t-51.5 263q32 147 165 255.5t283 108.5t235 -109t53 -259q-32 -152 -164 -260t-286 -108zM274 185h275q45 0 83 30.5t48 74.5l27 128q10 44 -15.5 75t-69.5 31h-275q-44 0 -81 -31t-47 -75l-27 -128q-10 -44 14 -74.5t68 -30.5zM402 286 q-4 -2 -7 0t-2 7l26 122q4 11 12 6l97 -63q3 -1 1.5 -5.5t-5.5 -5.5z" glyph-name="u1F4F9" unicode="📹"/><glyph d="M367 -14q-150 0 -234.5 109t-51.5 263q32 147 165 255.5t283 108.5t235 -109t53 -259q-32 -151 -165 -259.5t-285 -108.5zM341 119q22 -12 71 12q62 31 132 103q58 60 101.5 126t57.5 100q16 39 3 58q-18 28 -78 19q-26 -5 -69 -33.5t-69 -76.5q35 2 47.5 -7.5t2.5 -42.5 q-7 -22 -37 -63q-7 -9 -10 -13.5t-11.5 -14t-14 -13t-13.5 -7t-14.5 -0.5t-12.5 11q-9 14 -10.5 35t1 52.5t2.5 41.5q6 41 2 70q-7 42 -28 47q-23 8 -57 -10q-27 -14 -72.5 -48t-58.5 -42l-1 -3q2 -3 4 -8.5t5 -8.5t8 -4q9 -1 24 3.5t25.5 4.5t15.5 -13q2 -8 3.5 -17 t2.5 -20.5t2 -18.5q3 -24 5 -79q4 -88 17 -115q9 -19 24 -25z" glyph-name="u1F4FC" unicode="📼"/><glyph d="M474 569q20 14 39.5 5.5t13.5 -33.5l-106 -499q-5 -22 -26.5 -33t-38.5 5l-166 168h-108q-17 0 -25.5 11t-4.5 27l31 147q3 15 16.5 26t29.5 11h108zM874 427q8 -11 5 -25t-16 -25l-103 -85l67 -86q8 -11 5 -25t-16 -25l-8 -7q-13 -11 -27.5 -11t-22.5 11l-67 86 l-104 -86q-13 -11 -27.5 -11t-22.5 11l-6 7q-8 11 -5 25t16 25l104 86l-68 85q-8 11 -5 25t16 25l8 7q13 10 27.5 10t22.5 -10l68 -85l103 85q13 10 27.5 10t22.5 -10z" glyph-name="u1F507" horiz-adv-x="908" unicode="🔇"/><glyph d="M708 -9q139 131 175 302q40 183 -54 308q-17 17 -38.5 13t-34 -26t-0.5 -42q74 -105 42 -253q-32 -152 -141 -248q-20 -18 -15.5 -39t24 -26t42.5 11zM421 42l106 499q6 25 -13.5 33.5t-39.5 -5.5l-237 -165h-108q-16 0 -29.5 -11t-16.5 -26l-31 -147q-4 -16 4.5 -27 t25.5 -11h108l166 -168q17 -16 38.5 -5t26.5 33zM607 114q76 79 96 179q22 103 -27 187q-12 16 -33 12t-36 -25.5t-4 -39.5q35 -58 18 -134q-14 -66 -69 -129q-17 -19 -10.5 -39.5t26 -23.5t39.5 13z" glyph-name="u1F508" horiz-adv-x="936" unicode="🔈"/><glyph d="M421 42l106 499q6 25 -13.5 34t-39.5 -6l-237 -165h-108q-16 0 -29.5 -11t-16.5 -26l-31 -147q-4 -16 4.5 -27t25.5 -11h108l166 -168q17 -16 38.5 -5t26.5 33zM607 114q76 79 96 179q22 103 -27 187q-12 16 -33 12t-36 -25.5t-4 -39.5q35 -58 18 -134q-14 -66 -69 -129 q-17 -19 -10.5 -39.5t26 -23.5t39.5 13z" glyph-name="u1F509" horiz-adv-x="756" unicode="🔉"/><glyph d="M838 -109q88 84 148 187.5t83 212.5q24 113 6 220t-76 189q-11 15 -29 15t-31.5 -11.5t-20.5 -27.5t4 -33q102 -148 59 -352q-45 -209 -198 -344q-20 -18 -14.5 -39.5t26 -26.5t43.5 10zM708 -9q139 131 175 302q40 183 -54 308q-17 17 -38.5 13t-34 -26t-0.5 -42 q74 -105 42 -253q-32 -152 -141 -248q-20 -18 -15.5 -39t24 -26t42.5 11zM421 42l106 499q6 25 -13.5 33.5t-39.5 -5.5l-237 -165h-108q-16 0 -29.5 -11t-16.5 -26l-31 -147q-4 -16 4.5 -27t25.5 -11h108l166 -168q17 -16 38.5 -5t26.5 33zM607 114q76 79 96 179 q22 103 -27 187q-12 16 -33 12t-36 -25.5t-4 -39.5q35 -58 18 -134q-14 -66 -69 -129q-17 -19 -10.5 -39.5t26 -23.5t39.5 13z" glyph-name="u1F50A" horiz-adv-x="1122" unicode="🔊"/><glyph d="M367 -14q-150 0 -234.5 109t-51.5 263q32 147 165 255.5t283 108.5t235 -109t53 -259q-32 -151 -165 -259.5t-285 -108.5zM328 483h1q23 0 40 14t21 34q5 21 -6.5 34.5t-33.5 13.5q-23 0 -40 -13.5t-22 -34.5q-4 -20 7 -34t33 -14zM359 173h90l32 153q2 11 8 22 q23 34 53 34q48 0 34 -62l-31 -147h91l34 158q12 60 -10.5 91t-69.5 31q-55 0 -91 -46l8 39h-90zM217 173h91l58 273h-91z" glyph-name="u1F517" unicode="🔗"/><glyph d="M568 713l260 -713h-823z" glyph-name="u1F53A" horiz-adv-x="943" unicode="🔺"/><glyph d="M416 0l-259 713h823z" glyph-name="u1F53B" horiz-adv-x="943" unicode="🔻"/><glyph d="M367 -14q-150 0 -234.5 109t-51.5 263q32 147 165 255.5t283 108.5t235 -109t53 -259q-32 -151 -165 -259.5t-285 -108.5zM331 108h87q8 0 8 6l52 243h65q7 0 7 5l21 73q2 8 -4 8h-71l11 50q5 23 28 23h49q4 0 6 6l16 73q0 6 -4 6h-84q-37 0 -68.5 -25.5t-39.5 -63.5 l-15 -69h-45q-6 0 -6 -8l-16 -72q0 -6 4 -6h45l-52 -243q0 -6 6 -6z" glyph-name="u1F56E" unicode="🕮"/><glyph d="M792 455l22 141l-93 117h-128l-432 -357q-33 -29 -51 -69l-100 -227q-13 -29 0.5 -44.5t44.5 -7.5l247 59q26 5 51 26zM768 468l-102 11l-81 103l11 106l112 -2l79 -101zM571 666l-13 -93l-391 -325q-11 34 -13 73zM647 636q15 11 36 4.5t38 -27.5q17 -20 19 -43t-12 -36 q-12 -11 -34.5 -4.5t-38.5 27.5q-17 22 -19.5 45t11.5 34zM569 552l68 -82l-397 -328q-43 30 -66 83zM745 442l-414 -339q-39 8 -70 25l393 324l82 -7zM291 89q-37 -12 -173 -43q-37 -8 -54 12.5t-1 56.5l69 164q19 -145 159 -190z" glyph-name="u1F589" horiz-adv-x="800" unicode="🖉"/><glyph d="M81 358q32 147 165 255.5t283 108.5t235 -109t53 -259q-32 -152 -164 -260t-286 -108q-150 0 -234.5 109t-51.5 263zM119 358q-29 -138 46.5 -236t209.5 -98q139 0 257 96.5t147 233.5q29 135 -47 232.5t-211 97.5t-254 -97t-148 -229zM322 386q-22 0 -34.5 15.5 t-7.5 37.5t24 37.5t41 15.5t34 -15.5t7 -37.5q-4 -22 -23 -37.5t-41 -15.5zM518 407l9 43q78 10 153 0l-9 -43q-75 11 -153 0zM220 269l42 21q6 -55 47.5 -91t99.5 -36q56 0 113 35t88 89l32 -21q-40 -64 -107.5 -104t-134.5 -40q-69 0 -118.5 40.5t-61.5 106.5z" glyph-name="u1F609" unicode="😉"/><glyph d="M367 -14q-150 0 -234.5 109t-51.5 263q32 147 165 255.5t283 108.5t235 -109t53 -259q-32 -152 -164 -260t-286 -108zM567 113l-15 33h-35l-13 27h35l-16 33h-35l-8 20h65q16 0 29.5 11.5t16.5 27.5l68 318q4 17 -4.5 28.5t-24.5 11.5h-245q-16 0 -29.5 -11.5 t-17.5 -28.5l-68 -318q-3 -16 5.5 -27.5t24.5 -11.5h65l-16 -20h-35l-30 -33h34l-24 -27h-35l-30 -32v-1h34l-25 -30h45l24 30h183l12 -30h45l-14 30h34zM544 578q1 5 -2 9.5t-7 4.5h-70q-4 0 -9 -4.5t-6 -9.5q-2 -12 9 -12h70q13 0 15 12zM576 538q12 0 18 -8t3 -21 l-10 -47q-2 -11 -12 -19.5t-22 -8.5h-176q-11 0 -17 8.5t-4 19.5l10 47q3 13 13 21t21 8h176zM376 302q3 12 -3.5 20t-17.5 8t-20.5 -8t-12.5 -20q-2 -11 4.5 -18.5t17.5 -7.5t20.5 7.5t11.5 18.5zM555 302q3 12 -3 20t-17 8q-27 0 -34 -28q-2 -11 4.5 -18.5t18.5 -7.5 q10 0 19.5 7.5t11.5 18.5zM444 226h-47l-14 -20h69zM475 146l-9 27h-111l-21 -27h141z" glyph-name="u1F686" unicode="🚆"/><glyph d="M367 -14q-150 0 -234.5 109t-51.5 263q32 147 165 255.5t283 108.5t235 -109t53 -259q-32 -152 -164 -260t-286 -108zM249 126q12 0 22.5 8.5t12.5 20.5l9 41h246l-9 -41q-2 -12 4.5 -20.5t18.5 -8.5q11 0 22 8.5t13 20.5l9 41h30l39 183l9 155q6 43 -27 59 q-3 1 -12.5 5.5t-14 6.5t-14.5 6t-17 6t-18 5t-20.5 4.5t-21 2.5t-23.5 1q-58 0 -156 -37q-17 -7 -30 -22t-17 -26l-4 -11l-56 -155l-39 -183h30l-9 -41q-2 -12 5 -20.5t18 -8.5zM585 583q2 12 -9 12h-146q-5 0 -10.5 -4t-6.5 -8q-1 -5 3 -8.5t9 -3.5h146q12 0 14 12z M644 533l-11 -141q-2 -13 -15 -13h-323q-13 0 -11 13l45 141q4 13 16 13h288q6 0 9.5 -4t1.5 -9zM310 278q3 12 -4 20.5t-19 8.5q-11 0 -21.5 -8.5t-13.5 -20.5q-2 -12 5 -21t18 -9q12 0 22.5 9t12.5 21zM614 278q3 12 -4 20.5t-19 8.5t-22 -8.5t-13 -20.5q-2 -12 4.5 -21 t18.5 -9q11 0 22 9t13 21z" glyph-name="u1F68C" unicode="🚌"/><glyph d="M367 -14q-150 0 -234.5 109t-51.5 263q32 147 165 255.5t283 108.5t235 -109t53 -259q-32 -152 -164 -260t-286 -108zM221 158q16 0 29 10.5t16 25.5l11 52h298l-11 -52q-3 -15 5.5 -25.5t23.5 -10.5t27.5 10.5t15.5 25.5l11 52h36l23 107q5 23 -5.5 40t-31.5 22l-34 139 q-2 14 -13 14h-64l10 46h-126l-10 -46h-65q-9 0 -20 -14l-93 -139q-23 -5 -41 -22t-23 -40l-23 -107h36l-11 -52q-3 -15 6 -25.5t23 -10.5zM292 401l76 116h227l30 -116h-333zM249 293q-14 0 -22.5 10.5t-4.5 27.5q2 13 15.5 24.5t27.5 11.5q17 0 25 -11t6 -25 q-4 -17 -17 -27.5t-30 -10.5zM621 293q-16 0 -23.5 10.5t-3.5 27.5q2 14 15 25t28 11t24 -11t7 -25q-4 -17 -17.5 -27.5t-29.5 -10.5z" glyph-name="u1F695" unicode="🚕"/><glyph d="M367 -14q-150 0 -234.5 109t-51.5 263q32 147 165 255.5t283 108.5t235 -109t53 -259q-32 -152 -164 -260t-286 -108zM623 315h34l13 60q7 37 -6 67.5t-41 45.5q29 25 34 52q7 31 -10.5 53.5t-49.5 22.5l-7 -34q17 0 27 -12.5t6 -29.5t-19 -29t-32 -12l-7 -33 q38 0 58.5 -26.5t12.5 -64.5zM567 315h33l10 47q7 30 -11.5 50.5t-50.5 20.5h-34q-17 0 -26 13t-5 31q3 16 17.5 27.5t31.5 11.5l7 34q-31 0 -57.5 -22t-33.5 -53t10.5 -53t48.5 -22h34q18 0 28.5 -12.5t5.5 -33.5zM191 226h335l14 66h-335zM548 226h33l14 66h-33zM604 226 h34l14 66h-34z" glyph-name="u1F6AC" unicode="🚬"/><glyph d="M529 722q150 0 235 -109t53 -259q-32 -152 -164 -260t-286 -108q-150 0 -234.5 109t-51.5 263q32 147 165 255.5t283 108.5zM759 354q27 126 -45 218t-198 92q-111 0 -213 -72l343 -435q89 84 113 197zM617 495q28 -15 40.5 -44t4.5 -64l-14 -67h-32l14 67 q8 36 -11.5 61.5t-55.5 25.5l7 32q16 0 30.5 11.5t17.5 27.5q4 16 -5 28t-26 12l6 32q30 0 47 -21t10 -51q-6 -28 -33 -50zM546 442q30 0 48 -19.5t12 -47.5l-12 -55h-32l10 47q4 20 -5.5 32t-26.5 12h-32q-30 0 -47 21t-10 51q6 29 31.5 50t55.5 21l-7 -32 q-17 0 -30.5 -10.5t-17.5 -26.5q-3 -17 6 -30t25 -13h32zM139 357q-28 -129 44 -221t198 -92q113 0 215 72l-343 435q-92 -87 -114 -194zM434 298l51 -64h-282l14 64h217zM556 290l2 8h32l-9 -40zM598 234l14 64h32l-14 -64h-32z" glyph-name="u1F6AD" unicode="🚭"/><glyph d="M367 -14q-150 0 -234.5 109t-51.5 263q32 147 165 255.5t283 108.5t235 -109t53 -259q-32 -152 -164 -260t-286 -108zM554 533q20 0 37 13.5t21 32.5t-7 33.5t-31 14.5t-36 -14t-21 -34q-4 -20 6.5 -33t30.5 -13zM363 526q-3 0 -5 -3t2 -5l116 -43l24 -10q7 -32 8 -41.5 t-2 -24.5l129 4q-2 60 -28 116q-2 5 -6 5zM355 489l-27 -22l19 -23l27 24zM362 408l7 -30l31 13l-6 29zM537 276l4 -152q0 -8 6 -4q3 1 5 6l78 251l2 6q0 5 -7 5h-120l-4 -14l-85 -244q-2 -4 1.5 -4t6.5 4l109 146h4zM256 365l-7 -225q0 -16 16 -16h63q15 0 22 16l88 223 h-18l-88 -222h-65l7 224h-18zM311 328l-2 -31l34 6v31z" glyph-name="u1F6AF" unicode="🚯"/><glyph d="M367 -14q-150 0 -234.5 109t-51.5 263q32 147 165 255.5t283 108.5t235 -109t53 -259q-32 -152 -164 -260t-286 -108zM491 555q20 0 37 13.5t21 32.5q4 20 -7.5 34t-30.5 14q-20 0 -36.5 -14t-20.5 -34q-5 -20 6 -33t31 -13zM357 73q25 0 32 28l46 219h13l-46 -219 q-3 -12 3 -20t17 -8q25 0 32 28l74 352q2 7 9 5q4 -1 3 -5l-29 -137q-2 -9 3 -16t14 -7q10 0 18 7t10 16l36 169q5 22 -6.5 37.5t-34.5 15.5h-124q-22 0 -41 -15.5t-24 -37.5l-37 -169q-2 -9 3 -16t15 -7q9 0 17 7.5t10 15.5l29 137q2 7 9 5q4 -1 3 -5l-74 -352 q-3 -13 3 -20.5t17 -7.5z" glyph-name="u1F6B9" unicode="🚹"/><glyph d="M367 -14q-150 0 -234.5 109t-51.5 263q32 147 165 255.5t283 108.5t235 -109t53 -259q-32 -152 -164 -260t-286 -108zM492 554q19 0 36 14t21 34q4 19 -6.5 33t-30.5 14t-37 -14t-21 -33q-4 -20 7.5 -34t30.5 -14zM357 73q10 0 19 8t12 20l35 166h16l-35 -166 q-3 -12 3 -20t16 -8q9 0 17.5 8t11.5 20l35 166h22q14 0 16 15q1 25 -5.5 76t-6.5 61l17 43q14 -96 14 -124q1 -9 8.5 -13t17.5 -1t15.5 11.5t4.5 17.5q0 20 -19 140q-4 46 -43 46h-79q-38 0 -63 -46q-79 -136 -79 -140q-11 -22 8 -29q20 -7 32 14q12 24 67 124l-1 -43 q-4 -9 -32 -60.5t-38 -76.5q-2 -6 1 -10.5t9 -4.5h22l-35 -166q-3 -12 2.5 -20t14.5 -8z" glyph-name="u1F6BA" unicode="🚺"/><glyph d="M367 -14q-150 0 -234.5 109t-51.5 263q32 147 165 255.5t283 108.5t235 -109t53 -259q-32 -152 -164 -260t-286 -108zM491 555q20 0 37 13.5t21 32.5q4 20 -7.5 34t-30.5 14q-20 0 -36.5 -14t-20.5 -34q-5 -20 6 -33t31 -13zM329 316q-2 -9 3 -16t15 -7q9 0 17 7.5 t10 15.5l29 137q2 7 9 5q4 -1 3 -5l-74 -352q-3 -13 3 -20.5t17 -7.5q25 0 32 28l35 166h16l-35 -166q-3 -12 3 -20t16 -8q9 0 17.5 8t11.5 20l35 166h22q14 0 16 15q1 25 -5.5 76t-6.5 61l17 43q14 -96 14 -124q1 -9 8.5 -13t17.5 -1t15.5 11.5t4.5 17.5q0 20 -19 140 q-4 46 -43 46l-102 -1q-22 0 -41 -15.5t-24 -37.5z" glyph-name="u1F6BB" unicode="🚻"/><glyph d="M367 -14q-150 0 -234.5 109t-51.5 263q32 147 165 255.5t283 108.5t235 -109t53 -259q-32 -152 -164 -260t-286 -108zM555 599q4 19 -6.5 32t-28.5 13q-19 0 -34.5 -13t-20.5 -32q-4 -19 6.5 -32t29.5 -13q18 0 34 13t20 32zM445 479l-7 -42q-3 -11 8 -18q17 -11 50 -26 q14 -7 23 8q11 14 -3 22l-40 20q-3 3 -3 5q8 37 12 70q3 20 -8 31q-2 2 -7.5 6t-6.5 5q-12 10 -29.5 8t-32.5 -15l-90 -81q-18 -16 -23 -40q-3 -14 -4 -79.5t-3 -73.5l-12 -62l-21 -102q-1 -10 4.5 -15.5t15.5 -4.5q21 2 26 22q5 22 27 98.5t42.5 142.5t21.5 67zM487 328 l2 4q7 17 11 23q5 13 -5 16l-35 16q-11 5 -20 -7q-5 -5 -4 -11.5t7 -8.5l21 -9q-6 -6 -18 -22q-15 -22 -11 -39q5 -23 29 -23h54q12 0 23 8.5t14 20.5l8 30q7 20 9 33q3 9 -10 13q-12 4 -18 -13l-8 -27q-2 -4 -5 -4h-40h-4zM625 306q4 13 -3 22t-20 9q-12 0 -23 -9t-14 -22 q-2 -13 5 -21.5t19 -8.5q13 0 23 8.5t13 21.5zM408 254q-18 0 -23 -18q-3 -17 16 -17h210q20 0 23 17q4 18 -14 18h-212z" glyph-name="u1F6BC" unicode="🚼"/><glyph d="M664 613h-14l-45 -208h275l-20 -98h-275l-45 -210h347l-21 -97h-451l37 175h-253l-126 -175h-116l514 713h547l-21 -98h-333v-2zM473 272l73 341h-31l-246 -341h204z" glyph-name="AE.aalt" horiz-adv-x="969"/><glyph d="M157 713h484l-21 -98h-381l-45 -210h309l-20 -98h-310l-44 -210h381l-21 -97h-484z" glyph-name="E.salt" horiz-adv-x="592"/><glyph d="M362 796l159 169l86 -42l-194 -161zM157 713h484l-21 -98h-381l-45 -210h309l-20 -98h-310l-44 -210h381l-21 -97h-484z" glyph-name="Eacute.aalt" horiz-adv-x="592"/><glyph d="M278 916l78 52l79 -93l117 93l59 -52l-201 -156zM157 713h484l-21 -98h-381l-45 -210h309l-20 -98h-310l-44 -210h381l-21 -97h-484z" glyph-name="Ecaron.aalt" horiz-adv-x="592"/><glyph d="M263 812l199 156l134 -156l-80 -52l-78 94l-119 -94zM157 713h484l-21 -98h-381l-45 -210h309l-20 -98h-310l-44 -210h381l-21 -97h-484z" glyph-name="Ecircumflex.aalt" horiz-adv-x="592"/><glyph d="M309 763q-27 0 -42 19.5t-9 46.5q6 26 29.5 45t49.5 19t41 -19t10 -46q-6 -26 -29.5 -45.5t-49.5 -19.5zM517 763q-27 0 -41.5 19.5t-9.5 46.5q6 26 29.5 45t49.5 19q27 0 41.5 -18.5t9.5 -46.5q-6 -26 -29.5 -45.5t-49.5 -19.5zM157 713h484l-21 -98h-381l-45 -210h309 l-20 -98h-310l-44 -210h381l-21 -97h-484z" glyph-name="Edieresis.aalt" horiz-adv-x="592"/><glyph d="M407 763q-27 0 -41.5 19.5t-9.5 46.5q6 26 29.5 45t49.5 19t41 -18.5t10 -46.5q-6 -26 -29.5 -45.5t-49.5 -19.5zM157 713h484l-21 -98h-381l-45 -210h309l-20 -98h-310l-44 -210h381l-21 -97h-484z" glyph-name="Edotaccent.aalt" horiz-adv-x="592"/><glyph d="M501 797l-67 -34l-125 160l104 43zM157 713h484l-21 -98h-381l-45 -210h309l-20 -98h-310l-44 -210h381l-21 -97h-484z" glyph-name="Egrave.aalt" horiz-adv-x="592"/><glyph d="M268 844h332l-17 -82h-332zM157 713h484l-21 -98h-381l-45 -210h309l-20 -98h-310l-44 -210h381l-21 -97h-484z" glyph-name="Emacron.aalt" horiz-adv-x="592"/><glyph d="M620 615h-381l-45 -210h309l-20 -98h-310l-44 -210h381l-21 -97h-9q-108 -55 -118 -107q-7 -33 29 -34q31 -1 73 22l-30 -80q-65 -34 -116.5 -8t-39.5 86q16 66 116 121h-389l152 713h484z" glyph-name="Eogonek.aalt" horiz-adv-x="592"/><glyph d="M157 713h463l-21 -98h-359l-44 -210h304l-21 -98h-304l-66 -307h-104z" glyph-name="F.aalt" horiz-adv-x="553"/><glyph d="M800 713h54l-152 -713h-104l97 453l-293 -333h-45l-152 333l-96 -453h-104l152 713h54l202 -434z" glyph-name="M.salt" horiz-adv-x="817"/><glyph d="M1230 615h-381l-45 -210h308l-21 -98h-307l-45 -210h381l-21 -97h-484l22 102q-137 -116 -298 -116q-76 0 -142 33t-106 91q-70 107 -40 248q21 96 89.5 180.5t165.5 134t195 49.5q77 0 140 -31t103 -85l23 107h484zM361 84q112 0 207 79t119 191q24 113 -36.5 191.5 t-171.5 78.5q-109 0 -204.5 -78.5t-119.5 -187.5q-25 -121 41 -198q65 -76 165 -76z" glyph-name="OE.aalt" horiz-adv-x="1202"/><glyph d="M800 713h54l-152 -713h-104l87 411l-307 -411h-48l-134 411l-87 -411h-104l152 713h54l177 -552z" glyph-name="M.ss02" horiz-adv-x="817"/><glyph d="M501 722q151 0 237 -109t54 -259q-20 -93 -81 -173.5t-147 -130.5l79 -161h-127l-57 115q-59 -18 -120 -18q-151 0 -236 108.5t-52 263.5q21 96 89.5 180.5t165.5 134t195 49.5zM687 354q24 113 -36.5 191.5t-171.5 78.5q-88 0 -171 -54l216 -439q61 38 104.5 96.5 t58.5 126.5zM361 84q29 0 56 6l-197 400q-48 -59 -65 -132q-24 -114 37 -194t169 -80z" glyph-name="Q.aalt" horiz-adv-x="802"/><glyph d="M628 506q-16 -78 -68.5 -129t-130.5 -68l153 -309h-123l-150 301h-136l-64 -301h-104l84 397h172l-120 242l2 10l14 64h265q119 0 173.5 -53.5t32.5 -153.5zM527 507q12 57 -18.5 82.5t-97.5 25.5h-134l108 -218q119 8 142 110z" glyph-name="R.aalt" horiz-adv-x="649"/><glyph d="M155 713h484l-21 -98h-382l-38 -180h309l-20 -98h-310l-51 -240h382l-21 -97h-484z" glyph-name="E.tnum" horiz-adv-x="600"/><glyph d="M-5 0l152 713h52l243 -476l101 476h104l-152 -713h-54l-242 471l-100 -471h-104z" glyph-name="N.aalt" horiz-adv-x="600"/><glyph d="M229 -14q-74 0 -133 27t-88 72l91 71q23 -32 64 -52t90 -20q57 0 107 29t62 84q11 54 -26.5 81t-123.5 49q-185 46 -155 192q20 91 102.5 147t184.5 56q127 0 203 -85l-85 -74q-59 64 -140 64q-57 0 -101 -29t-54 -74q-5 -25 3 -44t31 -32.5t43.5 -21t56.5 -17.5 q106 -29 146.5 -78.5t23.5 -128.5q-22 -101 -107 -158.5t-195 -57.5z" glyph-name="S.aalt" horiz-adv-x="600"/><glyph d="M137 713h103l-109 -513l202 278h36l75 -278l110 513h103l-152 -713h-100l-96 299l-224 -299h-100z" glyph-name="W.aalt" horiz-adv-x="600"/><glyph d="M589 498l-106 -498h-99l13 59q-45 -40 -83 -56.5t-94 -16.5q-104 0 -157 75.5t-28 190.5q23 111 107.5 184t191.5 73q99 0 143 -72l13 61h99zM441 250q16 74 -16.5 121.5t-100.5 47.5q-67 0 -120 -48t-69 -123q-16 -73 17.5 -122t99.5 -49q67 0 120 49.5t69 123.5z" glyph-name="a.salt" horiz-adv-x="592"/><glyph d="M303 582l160 169l86 -42l-194 -161zM589 498l-106 -498h-99l13 59q-45 -40 -83 -56.5t-94 -16.5q-104 0 -157 75.5t-28 190.5q23 111 107.5 184t191.5 73q99 0 143 -72l13 61h99zM441 250q16 74 -16.5 121.5t-100.5 47.5q-67 0 -120 -48t-69 -123q-16 -73 17.5 -122 t99.5 -49q67 0 120 49.5t69 123.5z" glyph-name="aacute.salt" horiz-adv-x="592"/><glyph d="M380 568q-66 0 -99 43.5t-18 112.5h80q-5 -37 9 -57.5t45 -20.5q61 0 89 78h79q-21 -71 -71 -113.5t-114 -42.5zM589 498l-106 -498h-99l13 59q-45 -40 -83 -56.5t-94 -16.5q-104 0 -157 75.5t-28 190.5q23 111 107.5 184t191.5 73q99 0 143 -72l13 61h99zM441 250 q16 74 -16.5 121.5t-100.5 47.5q-67 0 -120 -48t-69 -123q-16 -73 17.5 -122t99.5 -49q67 0 120 49.5t69 123.5z" glyph-name="abreve.salt" horiz-adv-x="592"/><glyph d="M215 598l198 156l134 -156l-80 -52l-79 93l-118 -93zM589 498l-106 -498h-99l13 59q-45 -40 -83 -56.5t-94 -16.5q-104 0 -157 75.5t-28 190.5q23 111 107.5 184t191.5 73q99 0 143 -72l13 61h99zM441 250q16 74 -16.5 121.5t-100.5 47.5q-67 0 -120 -48t-69 -123 q-16 -73 17.5 -122t99.5 -49q67 0 120 49.5t69 123.5z" glyph-name="acircumflex.salt" horiz-adv-x="592"/><glyph d="M277 571q-26 0 -41 19.5t-10 46.5q5 25 28.5 44.5t49.5 19.5q27 0 42 -19t9 -46q-5 -26 -28 -45.5t-50 -19.5zM485 571q-27 0 -41.5 19.5t-9.5 46.5q5 26 28.5 45t49.5 19q27 0 42 -18.5t9 -46.5q-5 -26 -28.5 -45.5t-49.5 -19.5zM589 498l-106 -498h-99l13 59 q-45 -40 -83 -56.5t-94 -16.5q-104 0 -157 75.5t-28 190.5q23 111 107.5 184t191.5 73q99 0 143 -72l13 61h99zM441 250q16 74 -16.5 121.5t-100.5 47.5q-67 0 -120 -48t-69 -123q-16 -73 17.5 -122t99.5 -49q67 0 120 49.5t69 123.5z" glyph-name="adieresis.salt" horiz-adv-x="592"/><glyph d="M441 582l-66 -34l-125 161l103 42zM589 498l-106 -498h-99l13 59q-45 -40 -83 -56.5t-94 -16.5q-104 0 -157 75.5t-28 190.5q23 111 107.5 184t191.5 73q99 0 143 -72l13 61h99zM441 250q16 74 -16.5 121.5t-100.5 47.5q-67 0 -120 -48t-69 -123q-16 -73 17.5 -122 t99.5 -49q67 0 120 49.5t69 123.5z" glyph-name="agrave.salt" horiz-adv-x="592"/><glyph d="M227 652h332l-18 -81h-332zM589 498l-106 -498h-99l13 59q-45 -40 -83 -56.5t-94 -16.5q-104 0 -157 75.5t-28 190.5q23 111 107.5 184t191.5 73q99 0 143 -72l13 61h99zM441 250q16 74 -16.5 121.5t-100.5 47.5q-67 0 -120 -48t-69 -123q-16 -73 17.5 -122t99.5 -49 q67 0 120 49.5t69 123.5z" glyph-name="amacron.aalt" horiz-adv-x="592"/><glyph d="M473 0q-100 -53 -110 -103q-7 -33 29 -34q31 -1 73 22l-29 -80q-45 -21 -83 -18t-59.5 30.5t-13.5 65.5q14 63 109 117h-5l13 59q-45 -40 -83 -56.5t-94 -16.5q-104 0 -157 75.5t-28 190.5q23 111 107.5 184t191.5 73q99 0 143 -72l13 61h99l-106 -498h-10zM252 77 q67 0 120 49.5t69 123.5t-16.5 121.5t-100.5 47.5q-67 0 -120 -48t-69 -123q-16 -73 17.5 -122t99.5 -49z" glyph-name="aogonek.salt" horiz-adv-x="592"/><glyph d="M373 564q-47 0 -73 33.5t-17 81.5q11 46 51 79t86 33q47 0 73.5 -33.5t16.5 -79.5q-10 -47 -50.5 -80.5t-86.5 -33.5zM388 633q18 0 34 13t20 32q4 17 -6.5 30.5t-28.5 13.5q-19 0 -35 -13t-20 -31q-4 -19 6.5 -32t29.5 -13zM589 498l-106 -498h-99l13 59 q-45 -40 -83 -56.5t-94 -16.5q-104 0 -157 75.5t-28 190.5q23 111 107.5 184t191.5 73q99 0 143 -72l13 61h99zM441 250q16 74 -16.5 121.5t-100.5 47.5q-67 0 -120 -48t-69 -123q-16 -73 17.5 -122t99.5 -49q67 0 120 49.5t69 123.5z" glyph-name="aring.salt" horiz-adv-x="592"/><glyph d="M206 615q42 52 79 64.5t63 -1.5t50.5 -29t53 -8.5t60.5 49.5l42 -48q-34 -53 -84.5 -70t-106.5 17q-37 26 -60 22.5t-61 -48.5zM589 498l-106 -498h-99l13 59q-45 -40 -83 -56.5t-94 -16.5q-104 0 -157 75.5t-28 190.5q23 111 107.5 184t191.5 73q99 0 143 -72l13 61h99z M441 250q16 74 -16.5 121.5t-100.5 47.5q-67 0 -120 -48t-69 -123q-16 -73 17.5 -122t99.5 -49q67 0 120 49.5t69 123.5z" glyph-name="atilde.salt" horiz-adv-x="592"/><glyph d="M755 510q107 0 157 -74.5t24 -195.5l-4 -21h-380q-9 -66 22 -103.5t95 -37.5q77 0 143 75l70 -48q-102 -118 -236 -118q-100 0 -152 63l-11 -50h-99l13 59q-45 -39 -83 -56t-94 -17q-104 0 -157 75.5t-28 190.5q23 111 107 184t188 73q97 0 147 -72l13 61h99l-11 -51 q79 63 177 63zM441 250q16 75 -16.5 123.5t-100.5 48.5q-67 0 -120 -49t-69 -125q-16 -73 17.5 -122t99.5 -49q67 0 120 49.5t69 123.5zM846 301q5 54 -25 86.5t-84 32.5q-55 0 -99.5 -33t-62.5 -86h271z" glyph-name="ae.salt" horiz-adv-x="970"/><glyph d="M96 -73q12 -28 42.5 -44t69.5 -16q70 0 118 38t60 98l11 51q-83 -71 -181 -71q-101 0 -154 75.5t-29 186.5q25 114 110.5 189.5t189.5 75.5q94 0 146 -71l13 59h98l-104 -484q-22 -106 -104.5 -172.5t-193.5 -66.5q-70 0 -118.5 26.5t-68.5 75.5zM135 246 q-16 -76 15.5 -124t98.5 -48q68 0 122 48t70 123q16 77 -17 125t-101 48q-67 0 -119.5 -48t-68.5 -124z" glyph-name="g.salt" horiz-adv-x="593"/><glyph d="M304 602l176 266l59 -26l-156 -273zM96 -73q12 -28 42.5 -44t69.5 -16q70 0 118 38t60 98l11 51q-83 -71 -181 -71q-101 0 -154 75.5t-29 186.5q25 114 110.5 189.5t189.5 75.5q94 0 146 -71l13 59h98l-104 -484q-22 -106 -104.5 -172.5t-193.5 -66.5q-70 0 -118.5 26.5 t-68.5 75.5zM135 246q-16 -76 15.5 -124t98.5 -48q68 0 122 48t70 123q16 77 -17 125t-101 48q-67 0 -119.5 -48t-68.5 -124z" glyph-name="gcommaaccent.salt" horiz-adv-x="593"/><glyph d="M144 498l33 155h98l-33 -155h124l-19 -91h-125l-45 -216q-17 -81 7.5 -100.5t88.5 4.5l11 -86q-48 -23 -95 -23q-154 0 -116 178l51 243h-57l20 91h57z" glyph-name="t.salt" horiz-adv-x="361"/><glyph d="M234 407l-15 -70h154l-17 -81h-153l-14 -65q-17 -81 7.5 -100.5t88.5 4.5l11 -86q-48 -23 -95 -23q-154 0 -116 178l19 92h-80l17 81h80l15 70h-57l20 91h57l33 155h98l-33 -155h124l-19 -91h-125z" glyph-name="tbar.aalt" horiz-adv-x="382"/><glyph d="M277 569l113 195l76 -29l-129 -191zM132 498l33 155h98l-33 -155h124l-19 -91h-125l-45 -216q-17 -81 7.5 -100.5t88.5 4.5l11 -86q-48 -23 -95 -23q-154 0 -116 178l51 243h-57l20 91h57z" glyph-name="tcaron.aalt" horiz-adv-x="325"/><glyph d="M156 498l33 155h98l-33 -155h124l-19 -91h-125l-45 -216q-17 -81 7.5 -100.5t88.5 4.5l11 -86q-48 -23 -95 -23q-154 0 -116 178l51 243h-57l20 91h57zM-26 -204q113 42 132 149l77 -34q-5 -37 -47 -84t-102 -68z" glyph-name="tcommaaccent.aalt" horiz-adv-x="382"/><glyph d="M160 -225q-70 0 -118.5 26.5t-68.5 75.5l95 50q25 -58 111 -58q129 0 158 158q-61 -41 -134 -41q-95 0 -138 55t-22 157l64 300h97l-60 -286q-14 -66 4.5 -97.5t83.5 -31.5q64 0 97 32.5t47 96.5l61 286h98l-103 -484q-23 -107 -96.5 -173t-175.5 -66z" glyph-name="y.salt" horiz-adv-x="538"/><glyph d="M257 582l160 169l86 -42l-194 -161zM160 -225q-70 0 -118.5 26.5t-68.5 75.5l95 50q25 -58 111 -58q129 0 158 158q-61 -41 -134 -41q-95 0 -138 55t-22 157l64 300h97l-60 -286q-14 -66 4.5 -97.5t83.5 -31.5q64 0 97 32.5t47 96.5l61 286h98l-103 -484 q-23 -107 -96.5 -173t-175.5 -66z" glyph-name="yacute.aalt" horiz-adv-x="538"/><glyph d="M174 598l198 156l135 -156l-81 -52l-78 93l-119 -93zM160 -225q-70 0 -118.5 26.5t-68.5 75.5l95 50q25 -58 111 -58q129 0 158 158q-61 -41 -134 -41q-95 0 -138 55t-22 157l64 300h97l-60 -286q-14 -66 4.5 -97.5t83.5 -31.5q64 0 97 32.5t47 96.5l61 286h98l-103 -484 q-23 -107 -96.5 -173t-175.5 -66z" glyph-name="ycircumflex.aalt" horiz-adv-x="538"/><glyph d="M235 571q-27 0 -42 19.5t-9 46.5q5 26 28.5 45t49.5 19t41.5 -19t9.5 -46q-5 -26 -28.5 -45.5t-49.5 -19.5zM443 571q-27 0 -42 19.5t-9 46.5q5 26 28 45t50 19t42 -18.5t8 -46.5q-4 -26 -27.5 -45.5t-49.5 -19.5zM160 -225q-70 0 -118.5 26.5t-68.5 75.5l95 50 q25 -58 111 -58q129 0 158 158q-61 -41 -134 -41q-95 0 -138 55t-22 157l64 300h97l-60 -286q-14 -66 4.5 -97.5t83.5 -31.5q64 0 97 32.5t47 96.5l61 286h98l-103 -484q-23 -107 -96.5 -173t-175.5 -66z" glyph-name="ydieresis.aalt" horiz-adv-x="538"/><glyph d="M418 582l-66 -34l-125 161l104 42zM160 -225q-70 0 -118.5 26.5t-68.5 75.5l95 50q25 -58 111 -58q129 0 158 158q-61 -41 -134 -41q-95 0 -138 55t-22 157l64 300h97l-60 -286q-14 -66 4.5 -97.5t83.5 -31.5q64 0 97 32.5t47 96.5l61 286h98l-103 -484 q-23 -107 -96.5 -173t-175.5 -66z" glyph-name="ygrave.aalt" horiz-adv-x="538"/><glyph d="M414 498q55 0 83.5 -36t16.5 -91l-79 -371h-97l9 44q-77 -58 -190 -58q-74 0 -117 42.5t-29 112.5q18 85 77.5 129t148.5 42h29.5t30.5 -0.5t27 -1.5t27.5 -2.5t24 -4.5t25.5 -8l11 54q12 58 -46 58h-229l-9 91h286zM196 76q98 0 172 66l14 65q-46 18 -158 18 q-54 0 -82 -22.5t-35 -55.5q-7 -32 19.5 -51.5t69.5 -19.5z" glyph-name="a.ss02" horiz-adv-x="545"/><glyph d="M503 709l-194 -161l-52 34l160 169zM414 498q55 0 83.5 -36t16.5 -91l-79 -371h-97l9 44q-77 -58 -190 -58q-74 0 -117 42.5t-29 112.5q18 85 77.5 129t148.5 42h29.5t30.5 -0.5t27 -1.5t27.5 -2.5t24 -4.5t25.5 -8l11 54q12 58 -46 58h-229l-9 91h286zM196 76 q98 0 172 66l14 65q-46 18 -158 18q-54 0 -82 -22.5t-35 -55.5q-7 -32 19.5 -51.5t69.5 -19.5z" glyph-name="aacute.ss02" horiz-adv-x="545"/><glyph d="M353 568q-66 0 -99.5 43.5t-17.5 112.5h80q-5 -37 8.5 -57.5t44.5 -20.5q61 0 90 78h79q-21 -71 -71.5 -113.5t-113.5 -42.5zM414 498q55 0 83.5 -36t16.5 -91l-79 -371h-97l9 44q-77 -58 -190 -58q-74 0 -117 42.5t-29 112.5q18 85 77.5 129t148.5 42h29.5t30.5 -0.5 t27 -1.5t27.5 -2.5t24 -4.5t25.5 -8l11 54q12 58 -46 58h-229l-9 91h286zM196 76q98 0 172 66l14 65q-46 18 -158 18q-54 0 -82 -22.5t-35 -55.5q-7 -32 19.5 -51.5t69.5 -19.5z" glyph-name="abreve.ss02" horiz-adv-x="545"/><glyph d="M371 639l-118 -93l-56 52l199 156l134 -156l-81 -52zM414 498q55 0 83.5 -36t16.5 -91l-79 -371h-97l9 44q-77 -58 -190 -58q-74 0 -117 42.5t-29 112.5q18 85 77.5 129t148.5 42h29.5t30.5 -0.5t27 -1.5t27.5 -2.5t24 -4.5t25.5 -8l11 54q12 58 -46 58h-229l-9 91h286z M196 76q98 0 172 66l14 65q-46 18 -158 18q-54 0 -82 -22.5t-35 -55.5q-7 -32 19.5 -51.5t69.5 -19.5z" glyph-name="acircumflex.ss02" horiz-adv-x="545"/><glyph d="M250 571q-26 0 -41 19.5t-9 46.5q4 25 27.5 44.5t49.5 19.5q27 0 42.5 -19t8.5 -46q-4 -26 -27.5 -45.5t-50.5 -19.5zM485 701q27 0 42 -18.5t9 -46.5q-5 -26 -28.5 -45.5t-49.5 -19.5t-41 19.5t-9 46.5q5 26 28 45t49 19zM414 498q55 0 83.5 -36t16.5 -91l-79 -371h-97 l9 44q-77 -58 -190 -58q-74 0 -117 42.5t-29 112.5q18 85 77.5 129t148.5 42h29.5t30.5 -0.5t27 -1.5t27.5 -2.5t24 -4.5t25.5 -8l11 54q12 58 -46 58h-229l-9 91h286zM196 76q98 0 172 66l14 65q-46 18 -158 18q-54 0 -82 -22.5t-35 -55.5q-7 -32 19.5 -51.5t69.5 -19.5z " glyph-name="adieresis.ss02" horiz-adv-x="545"/><glyph d="M437 582l-66 -34l-125 161l104 42zM414 498q55 0 83.5 -36t16.5 -91l-79 -371h-97l9 44q-77 -58 -190 -58q-74 0 -117 42.5t-29 112.5q18 85 77.5 129t148.5 42h29.5t30.5 -0.5t27 -1.5t27.5 -2.5t24 -4.5t25.5 -8l11 54q12 58 -46 58h-229l-9 91h286zM196 76 q98 0 172 66l14 65q-46 18 -158 18q-54 0 -82 -22.5t-35 -55.5q-7 -32 19.5 -51.5t69.5 -19.5z" glyph-name="agrave.ss02" horiz-adv-x="545"/><glyph d="M414 498q55 0 83.5 -36t16.5 -91l-79 -371h-12q-108 -55 -118 -107q-7 -33 29 -34q31 -1 73 22l-29 -80q-45 -21 -83 -18t-59.5 30.5t-13.5 65.5q14 65 116 121l9 44q-77 -58 -190 -58q-74 0 -117 42.5t-29 112.5q18 85 77.5 129t148.5 42h29.5t30.5 -0.5t27 -1.5 t27.5 -2.5t24 -4.5t25.5 -8l11 54q12 58 -46 58h-229l-9 91h286zM196 76q98 0 172 66l14 65q-46 18 -158 18q-54 0 -82 -22.5t-35 -55.5q-7 -32 19.5 -51.5t69.5 -19.5z" glyph-name="aogonek.ss02" horiz-adv-x="545"/><glyph d="M345 564q-48 0 -74 33.5t-16 81.5q10 46 50.5 79t86.5 33q47 0 73 -33.5t16 -79.5q-9 -46 -49.5 -80t-86.5 -34zM323 678q-4 -19 7 -32t30 -13q17 0 33 13.5t20 31.5q4 17 -6.5 30.5t-27.5 13.5q-19 0 -35 -13t-21 -31zM414 498q55 0 83.5 -36t16.5 -91l-79 -371h-97 l9 44q-77 -58 -190 -58q-74 0 -117 42.5t-29 112.5q18 85 77.5 129t148.5 42h29.5t30.5 -0.5t27 -1.5t27.5 -2.5t24 -4.5t25.5 -8l11 54q12 58 -46 58h-229l-9 91h286zM196 76q98 0 172 66l14 65q-46 18 -158 18q-54 0 -82 -22.5t-35 -55.5q-7 -32 19.5 -51.5t69.5 -19.5z " glyph-name="aring.ss02" horiz-adv-x="545"/><glyph d="M339 589q-37 26 -60 22.5t-61 -48.5l-36 52q42 52 79 64.5t63 -1.5t50.5 -29t53 -8.5t60.5 49.5l42 -48q-34 -53 -84.5 -70t-106.5 17zM414 498q55 0 83.5 -36t16.5 -91l-79 -371h-97l9 44q-77 -58 -190 -58q-74 0 -117 42.5t-29 112.5q18 85 77.5 129t148.5 42h29.5 t30.5 -0.5t27 -1.5t27.5 -2.5t24 -4.5t25.5 -8l11 54q12 58 -46 58h-229l-9 91h286zM196 76q98 0 172 66l14 65q-46 18 -158 18q-54 0 -82 -22.5t-35 -55.5q-7 -32 19.5 -51.5t69.5 -19.5z" glyph-name="atilde.ss02" horiz-adv-x="545"/><glyph d="M689 510q107 0 157 -75t24 -197l-4 -21h-382q-9 -65 22.5 -102.5t96.5 -37.5q77 0 142 71l66 -53q-99 -108 -231 -108q-122 0 -171 89q-103 -90 -244 -90q-80 0 -124.5 42t-29.5 113q18 85 77.5 129t148.5 42q35 -1 165 -11l10 48q12 58 -46 58h-219l-9 91h276 q70 0 95 -54q79 66 180 66zM782 299q5 55 -25 88.5t-85 33.5q-56 0 -101.5 -34t-62.5 -88h274zM107 147q-7 -32 19.5 -51.5t69.5 -19.5q98 0 173 67l15 74q-23 1 -78 5t-82 4q-54 0 -82 -23t-35 -56z" glyph-name="ae.ss02" horiz-adv-x="904"/><glyph d="M256 564l-13 -62l-1 -4h120l-19 -91h-120l-42 -196l-45 -211h-98l86 407h-57l20 91h57l13 62h1l5 25q11 55 55 91.5t99 36.5h102l-48 -91h-45q-58 0 -70 -58z" glyph-name="f.aalt" horiz-adv-x="334"/><glyph d="M550 498l-20 -91h-48q16 -45 4 -99q-14 -68 -60.5 -119.5t-111.5 -75.5h18q55 0 83.5 -36t16.5 -91l-6 -27l-8 -40q-12 -55 -55.5 -91t-98.5 -36h-309l48 91h252q54 0 67 47l6 25l3 15q8 52 -47 52h-157l43 81q-67 18 -100 74.5t-17 131.5q18 85 93 143t167 58 q71 0 119 -35q48 23 118 23zM388 307q11 52 -14.5 84t-78.5 32t-93.5 -32t-51.5 -82q-11 -55 15 -89.5t78 -34.5q53 0 93.5 34t51.5 88z" glyph-name="g.ss02" horiz-adv-x="529"/><glyph d="M494 813l-156 -272l-79 32l176 267zM550 498l-20 -91h-48q16 -45 4 -99q-14 -68 -60.5 -119.5t-111.5 -75.5h18q55 0 83.5 -36t16.5 -91l-6 -27l-8 -40q-12 -55 -55.5 -91t-98.5 -36h-309l48 91h252q54 0 67 47l6 25l3 15q8 52 -47 52h-157l43 81q-67 18 -100 74.5 t-17 131.5q18 85 93 143t167 58q71 0 119 -35q48 23 118 23zM388 307q11 52 -14.5 84t-78.5 32t-93.5 -32t-51.5 -82q-11 -55 15 -89.5t78 -34.5q53 0 93.5 34t51.5 88z" glyph-name="gcommaaccent.ss02" horiz-adv-x="529"/><glyph d="M188 587q-28 0 -44 19.5t-10 47.5q6 27 30 47t51 20q28 0 44 -19.5t10 -47.5q-6 -27 -30 -47t-51 -20zM-130 -208l47 91h13q59 0 72 59l118 556h96l-123 -578q-11 -55 -55 -91.5t-99 -36.5h-69z" glyph-name="j.aalt" horiz-adv-x="227"/><glyph d="M682 498q55 0 83.5 -36t16.5 -91l-79 -371h-97l74 349q12 58 -46 58h-90q-53 0 -68 -48l-76 -359h-98l74 349q13 58 -45 58h-90q-58 0 -70 -58l-74 -349h-98l79 371q11 55 55 91t99 36h147q45 0 73 -25q38 25 83 25h147z" glyph-name="m.aalt" horiz-adv-x="812"/><glyph d="M405 498q55 0 83.5 -36t16.5 -91l-79 -371h-97l74 349q12 58 -46 58h-116q-58 0 -70 -58l-74 -349h-98l79 371q11 55 55 91t99 36h173z" glyph-name="n.aalt" horiz-adv-x="535"/><glyph d="M503 709l-194 -161l-52 34l160 169zM405 498q55 0 83.5 -36t16.5 -91l-79 -371h-97l74 349q12 58 -46 58h-116q-58 0 -70 -58l-74 -349h-98l79 371q11 55 55 91t99 36h173z" glyph-name="nacute.aalt" horiz-adv-x="535"/><glyph d="M529 706l-200 -156l-133 156l78 52l79 -93l117 93zM405 498q55 0 83.5 -36t16.5 -91l-79 -371h-97l74 349q12 58 -46 58h-116q-58 0 -70 -58l-74 -349h-98l79 371q11 55 55 91t99 36h173z" glyph-name="ncaron.aalt" horiz-adv-x="535"/><glyph d="M405 498q55 0 83.5 -36t16.5 -91l-79 -371h-97l74 349q12 58 -46 58h-116q-58 0 -70 -58l-74 -349h-98l79 371q11 55 55 91t99 36h173zM26 -321l157 273l80 -32l-177 -268z" glyph-name="ncommaaccent.aalt" horiz-adv-x="535"/><glyph d="M405 498q55 0 83.5 -36t16.5 -91l-47 -220h1l-31 -144q-47 -216 -259 -212l20 91q29 0 49.5 3t36 14.5t24.5 21t17.5 35.5t12.5 43t13 58l14 64h-1l48 224q12 58 -46 58h-116q-58 0 -70 -58l-74 -349h-98l79 371q11 55 55 91t99 36h173z" glyph-name="eng.aalt" horiz-adv-x="535"/><glyph d="M329 589q-37 26 -60 22.5t-61 -48.5l-36 52q42 52 79 64.5t63 -1.5t50.5 -29t53 -8.5t60.5 49.5l42 -48q-34 -53 -84.5 -70t-106.5 17zM405 498q55 0 83.5 -36t16.5 -91l-79 -371h-97l74 349q12 58 -46 58h-116q-58 0 -70 -58l-74 -349h-98l79 371q11 55 55 91t99 36h173 z" glyph-name="ntilde.aalt" horiz-adv-x="535"/><glyph d="M412 498l-47 -91h-124q-58 0 -70 -58l-74 -349h-98l79 371q11 55 55 91t99 36h180z" glyph-name="r.aalt" horiz-adv-x="361"/><glyph d="M233 582l160 169l87 -42l-194 -161zM412 498l-47 -91h-124q-58 0 -70 -58l-74 -349h-98l79 371q11 55 55 91t99 36h180z" glyph-name="racute.aalt" horiz-adv-x="361"/><glyph d="M146 706l78 52l79 -93l117 93l59 -52l-200 -156zM412 498l-47 -91h-124q-58 0 -70 -58l-74 -349h-98l79 371q11 55 55 91t99 36h180z" glyph-name="rcaron.aalt" horiz-adv-x="361"/><glyph d="M412 498l-47 -91h-124q-58 0 -70 -58l-74 -349h-98l79 371q11 55 55 91t99 36h180zM34 -48l79 -32l-176 -268l-60 27z" glyph-name="rcommaaccent.aalt" horiz-adv-x="361"/><glyph d="M189 250l-21 -101q-12 -58 46 -58h57l9 -91h-114q-55 0 -83 36t-17 91l7 33l52 247h-56l19 91h57l36 167l104 36l-42 -199l-1 -4h125l-19 -91h-125z" glyph-name="t.ss02" horiz-adv-x="361"/><glyph d="M440 498h104l-341 -578q-37 -64 -71 -96t-84 -32h-93l48 91h36q24 0 40.5 13t35.5 46l38 65l-96 491h104l68 -361z" glyph-name="y.ss02" horiz-adv-x="504"/><glyph d="M788 713l154 -713h-113l-35 175h-210l38 -175h-113l-29 143l-91 -143h-112l114 175h-210l-112 -175h-112l464 713h367zM489 616l47 -218l142 218h-189zM402 518l-157 -246h209zM565 272h209l-52 246z" glyph-name="A_A.dlig" horiz-adv-x="1009"/><glyph d="M871 385q50 -23 71 -70t8 -108q-22 -98 -100 -152.5t-192 -54.5h-653l152 713h607q109 0 159 -52.5t30 -147.5q-15 -76 -82 -128zM239 615l-43 -206h144l44 206h-145zM508 615h-20l-44 -206h18q120 0 143 103q11 55 -14 79t-83 24zM852 512q11 55 -14 79t-83 24h-51 q14 -44 2 -102q-13 -62 -55 -104h58q120 0 143 103zM129 97h145l47 221h-145zM378 97h48q151 0 175 111q12 59 -25 84.5t-114 25.5h-38zM848 208q12 59 -25 84.5t-114 25.5h-16q23 -48 10 -111q-13 -62 -53 -110h23q151 0 175 111z" glyph-name="B_B.dlig" horiz-adv-x="996"/><glyph d="M987 620q-108 0 -199.5 -78t-115.5 -192q-24 -110 35.5 -186t167.5 -76q74 0 170 54l10 -104q-101 -52 -203 -52h-509q-151 0 -235.5 106.5t-52.5 256.5q34 156 166 264.5t288 108.5h509q97 0 172 -50l-66 -93q-62 41 -137 41zM620 88q-88 107 -56 261q35 161 174 271 h-260q-108 0 -199.5 -78t-115.5 -192q-24 -110 35.5 -186t167.5 -76h254z" glyph-name="C_C.dlig" horiz-adv-x="1132"/><glyph d="M614 713q172 0 256.5 -98t50.5 -259t-161 -258.5t-299 -97.5h-226h-12h-218l152 713h219h11h227zM249 97h7l110 518h-7h-119l-110 -518h119zM817 355q22 111 -26.5 179t-156.5 79q83 -97 50 -257q-34 -160 -160 -257q111 11 191 80.5t102 175.5zM364 115q82 27 139 90.5 t76 149.5q19 90 -11 153t-102 90z" glyph-name="D_D.dlig" horiz-adv-x="936"/><glyph d="M1057 615h-382l-38 -180h309l-20 -98h-310l-51 -240h382l-21 -97h-921l152 713h921zM239 615l-39 -180h335l38 180h-334zM129 97h334l51 240h-334z" glyph-name="E_E.dlig" horiz-adv-x="1029"/><glyph d="M1000 615h-359l-38 -180h304l-21 -98h-304l-72 -337h-104l72 337h-297l-72 -337h-104l152 713h864zM202 435h297l38 180h-297z" glyph-name="F_F.dlig" horiz-adv-x="954"/><glyph d="M796 393h240l-51 -237q-59 -81 -146 -125.5t-187 -44.5q-80 0 -148 35q-79 -35 -167 -35q-151 0 -235 107.5t-52 259.5q33 153 165 261t286 108q85 0 149 -35q84 35 166 35q120 0 199 -70l-75 -83q-56 55 -144 55q-100 0 -189.5 -66t-124.5 -165h238l-50 -237 q-25 -35 -57 -64q30 -8 61 -8q64 0 125 30t100 82l21 99h-145zM154 352q-23 -109 37.5 -188.5t167.5 -79.5q32 0 60 7q-87 110 -54 262q35 159 171 266q-27 5 -55 5q-112 0 -207 -79.5t-120 -192.5zM584 196l20 99h-140q0 -93 64 -154q31 22 56 55z" glyph-name="G_G.dlig" horiz-adv-x="1037"/><glyph d="M1056 713l-343 -285l213 -428h-129l-178 350l-149 -124l113 -226h-129l-178 349l-111 -93l-55 -256h-105l152 713h105l-67 -314l378 314h140l-343 -286l58 -117l488 403h140z" glyph-name="K_K.dlig" horiz-adv-x="993"/><glyph d="M468 97h254l-21 -97h-696l152 713h104l-131 -616h234l131 616h104z" glyph-name="L_L.dlig" horiz-adv-x="768"/><glyph d="M1216 713h52l-152 -713h-103l94 443l-371 -443h-48l-84 202l-170 -202h-48l-183 443l-94 -443h-104l152 713h52l164 -399l85 399h52l134 -323l271 323h52l-85 -398zM442 149l123 147l-61 147zM683 296l60 -146l63 293z" glyph-name="M_M.dlig" horiz-adv-x="1231"/><glyph d="M923 713h103l-152 -713h-54l-172 270l-58 -270h-54l-320 502l-107 -502h-104l152 713h52l174 -275l58 275h52l321 -508zM530 205l40 187l-70 110l-40 -186z" glyph-name="N_N.dlig" horiz-adv-x="989"/><glyph d="M806 722q151 0 237 -109t54 -259q-32 -152 -165 -260t-288 -108q-79 0 -143 33q-82 -33 -162 -33q-151 0 -236 108.5t-52 263.5q21 96 89.5 180.5t165.5 134t195 49.5q80 0 145 -34q80 34 160 34zM155 358q-24 -114 37 -194t169 -80q24 0 52 5q-43 51 -58 119.5t1 149.5 q33 152 173 261q-27 5 -50 5q-109 0 -204.5 -78.5t-119.5 -187.5zM992 354q24 112 -37 191t-171 79q-23 0 -51 -5q92 -109 59 -265q-16 -77 -61.5 -146t-110.5 -120q20 -4 46 -4q112 0 207 79t119 191zM687 354q15 68 -3 126.5t-63 95.5q-61 -38 -104 -95.5t-57 -122.5 q-15 -69 3.5 -128t62.5 -97q60 37 103 95t58 126z" glyph-name="O_O.dlig" horiz-adv-x="1107"/><glyph d="M706 713q118 0 172.5 -53.5t32.5 -153.5q-21 -97 -94.5 -151t-180.5 -54h-233l-63 -301h-104l64 301h-127l-64 -301h-104l152 713h549zM193 397h128l46 218h-127zM809 507q12 57 -18 82.5t-97 25.5h-19q18 -44 4 -109q-13 -63 -50 -109h23q65 0 105.5 28.5t51.5 81.5z M578 507q21 105 -107 108l-47 -218q129 2 154 110z" glyph-name="P_P.dlig" horiz-adv-x="888"/><glyph d="M936 507q-17 -77 -72 -130.5t-133 -66.5l156 -310h-128l-143 301h-183l149 -301h-123l-150 301h-136l-64 -301h-104l84 397h172l-120 242l2 10l14 64h570q122 0 176.5 -52t32.5 -154zM411 615h-134l108 -218q119 8 142 110q12 57 -18.5 82.5t-97.5 25.5zM835 507 q12 58 -20.5 83t-97.5 25h-93q18 -44 4 -109t-52 -111h97q67 0 109 29t53 83z" glyph-name="R_R.dlig" horiz-adv-x="954"/><glyph d="M777 410q103 -28 142.5 -76t22.5 -124q-21 -98 -104 -154t-190 -56h-438q-72 0 -129.5 27t-84.5 71l90 70q22 -31 61.5 -50.5t86.5 -19.5q54 0 101.5 27.5t58.5 79.5q11 51 -25 77.5t-117 45.5q-180 45 -150 188q19 88 99.5 142.5t178.5 54.5h438q121 0 198 -83l-84 -73 q-54 62 -135 62q-55 0 -96.5 -27.5t-50.5 -70.5q-5 -24 2 -42.5t29 -31.5t41.5 -20t54.5 -17zM835 204q10 52 -26 78.5t-117 46.5q-181 45 -150 187q11 55 52 102h-235q-56 0 -97 -28t-50 -70q-5 -24 2 -42t28 -30.5t42 -20t55 -16.5q102 -28 141 -75.5t22 -125.5 q-13 -66 -59 -115h229q55 0 103 28t60 81z" glyph-name="S_S.dlig" horiz-adv-x="982"/><glyph d="M306 615h-218l21 98h320l-152 -713h-102zM672 615l-131 -615h-103l152 713h321l-21 -98h-218z" glyph-name="T_T.dlig" horiz-adv-x="826"/><glyph d="M1015 713l-13 -61l-501 -555h368l15 -97h-909l14 65l496 550h-328l-15 98h873zM378 97l467 518h-236l-468 -518h237z" glyph-name="Z_Z.dlig" horiz-adv-x="957"/><glyph d="M1028 498l-243 -200l163 -298h-118l-128 230l-64 -53l-38 -177h-98l108 508q17 68 8 98t-55 30q-31 0 -60 -23.5t-36.5 -63t36.5 -91.5l-53 -79q-34 25 -56 32.5t-61 7.5q-70 0 -128 -50t-74 -122q-15 -73 22 -121.5t107 -48.5t145 48l13 -85q-55 -30 -93.5 -42 t-82.5 -12q-112 0 -172 75t-37 185q24 111 116.5 187t204.5 76q15 0 22 -1q-11 78 53.5 145.5t164.5 67.5q74 0 107 -44.5t17 -123.5l-54 -251l238 196h126z" glyph-name="c_k.dlig" horiz-adv-x="1009"/><glyph d="M601 721q81 0 113.5 -46t15.5 -129l-116 -546h-99l107 502q18 62 8.5 98t-60.5 36q-33 0 -64 -23.5t-39 -63t36 -91.5l-53 -79q-34 25 -56 32.5t-61 7.5q-70 0 -128 -50t-74 -122q-15 -73 22 -121.5t107 -48.5t145 48l13 -85q-55 -30 -93.5 -42t-82.5 -12q-112 0 -172 75 t-37 185q24 111 116.5 187t204.5 76q15 0 23 -1q-12 78 54 145.5t170 67.5z" glyph-name="c_l.dlig" horiz-adv-x="729"/><glyph d="M709 407l-45 -216q-17 -81 8 -101.5t89 5.5l11 -86q-48 -23 -95 -23q-154 0 -116 178l51 243h-57l20 91h57q7 40 9 70.5t-15.5 49t-57.5 18.5q-32 0 -62.5 -23.5t-38 -63t35.5 -91.5l-53 -79q-34 25 -56 32.5t-61 7.5q-70 0 -128 -50t-74 -122q-15 -73 22 -121.5 t107 -48.5t145 48l13 -85q-55 -30 -93.5 -42t-82.5 -12q-112 0 -172 75t-37 185q24 111 116.5 187t204.5 76q16 0 23 -1q-10 80 57 148t171 65q169 -3 126 -223h123l-19 -91h-126z" glyph-name="c_t.dlig" horiz-adv-x="849"/><glyph d="M682 407l-46 -216q-17 -81 8 -101.5t89 5.5l11 -86q-46 -23 -94 -23q-155 0 -117 178l52 243h-57l20 91h57q7 32 8.5 52.5t-2.5 42.5t-21 32.5t-47 10.5q-33 0 -64.5 -24t-43.5 -65t22 -97l-53 -78q-59 48 -126 48q-49 0 -79.5 -16.5t-36.5 -45.5q-6 -26 19.5 -38.5 t93.5 -26.5q81 -18 115.5 -52.5t22.5 -95.5q-16 -74 -81.5 -117t-166.5 -43q-56 0 -104.5 21t-77.5 57l75 66q31 -30 61.5 -42t75.5 -12q47 0 81.5 19t40.5 47q8 35 -35 50q-9 4 -89 23q-150 36 -127 143q14 68 77 110t154 42q18 0 50 -4q-10 84 57 151t174 65 q93 -1 119.5 -59.5t5.5 -163.5h124l-20 -91h-125z" glyph-name="s_t.dlig" horiz-adv-x="821"/><glyph d="M721 629q-74 19 -102.5 -4.5t-43.5 -98.5l-6 -28h124l-20 -91h-124l-86 -407h-98l87 407h-231l-86 -407h-98l87 407h-57l20 91h56l12 56q23 109 94 151.5t162 10.5l-18 -87q-74 19 -102.5 -4.5t-43.5 -98.5l-6 -28h230l12 56q23 109 94 151.5t162 10.5z" glyph-name="f_f.liga.salt" horiz-adv-x="666"/><glyph d="M564 407l-45 -216q-17 -81 7.5 -100.5t88.5 4.5l11 -86q-48 -23 -95 -23q-154 0 -116 178l51 243h-245l-86 -407h-98l87 407h-57l20 91h56l12 56q23 109 94 151.5t162 10.5l-18 -87q-74 19 -102.5 -4.5t-43.5 -98.5l-6 -28h245l33 155h98l-33 -155h124l-19 -91h-125z" glyph-name="f_t.liga.salt" horiz-adv-x="703"/><glyph d="M744 629q-74 19 -102.5 -4.5t-44.5 -98.5l-6 -28h125l-20 -91h-124l-87 -407h-97l86 407h-252l-45 -216q-17 -81 7.5 -100.5t88.5 4.5l11 -86q-48 -23 -95 -23q-154 0 -116 178l51 243h-57l20 91h57l33 155h98l-33 -155h252l12 56q23 109 94 151.5t162 10.5z" glyph-name="t_f.liga.salt" horiz-adv-x="689"/><glyph d="M1023 498l-243 -200l163 -298h-118l-127 230l-65 -54l-38 -176h-98l133 622h-71q-58 0 -70 -58l-39 -185q-34 25 -56 32.5t-61 7.5q-70 0 -128 -50t-74 -122q-15 -73 22 -121.5t107 -48.5t145 48l13 -85q-55 -30 -93.5 -42t-82.5 -12q-112 0 -172 75t-37 185 q24 111 116.5 187t204.5 76q18 0 26 -1l16 78q12 55 55.5 91t98.5 36h197l-88 -412l239 197h125z" glyph-name="c_k.dlig.ss02" horiz-adv-x="1004"/><glyph d="M753 713l-152 -713h-98l133 622h-77q-58 0 -70 -58l-39 -185q-34 25 -56 32.5t-61 7.5q-70 0 -128 -50t-74 -122q-15 -73 22 -121.5t107 -48.5t145 48l13 -85q-55 -30 -93.5 -42t-82.5 -12q-112 0 -172 75t-37 185q24 111 116.5 187t204.5 76q18 0 26 -1l16 78 q12 55 55.5 91t98.5 36h203z" glyph-name="c_l.dlig.ss02" horiz-adv-x="716"/><glyph d="M677 250l-21 -101q-12 -58 46 -58h57l9 -91h-114q-55 0 -83 36t-17 91l7 33l52 247h-70l20 91h70l27 124h-101q-58 0 -70 -58l-39 -185q-34 25 -56 32.5t-61 7.5q-70 0 -128 -50t-74 -122q-15 -73 22 -121.5t107 -48.5t145 48l13 -85q-55 -30 -93.5 -42t-82.5 -12 q-112 0 -172 75t-37 185q24 111 116.5 187t204.5 76q18 0 26 -1l16 78q12 55 55.5 91t98.5 36h226l-19 -91h-1l-25 -120l-1 -4h125l-19 -91h-125z" glyph-name="c_t.dlig.ss02" horiz-adv-x="847"/><glyph d="M684 407l-55 -258q-6 -32 5.5 -45t40.5 -13h57l8 -91h-114q-55 0 -83 36t-16 91l7 33l52 247h-77l20 91h77l27 124h-118q-58 0 -70 -58l-41 -192q-59 48 -126 48q-49 0 -79.5 -16.5t-36.5 -45.5q-6 -26 19.5 -38.5t93.5 -26.5q81 -18 115.5 -52.5t22.5 -95.5 q-16 -74 -81.5 -117t-166.5 -43q-56 0 -104.5 21t-77.5 57l75 66q31 -30 61.5 -42t75.5 -12q47 0 81.5 19t40.5 47q8 35 -35 50q-9 4 -89 23q-150 36 -127 143q14 68 77 110t154 42q20 0 38 -3l17 80q11 55 55 91t99 36h243l-13 -58l-32 -153l-1 -4h125l-20 -91h-124z" glyph-name="s_t.dlig.ss02" horiz-adv-x="819"/><glyph d="M562 564l-13 -62l-1 -4h121l-20 -91h-120l-42 -196l-45 -211h-97l86 407h-208l-42 -196l-45 -211h-98l86 407h-57l20 91h57l13 62h1l5 25q11 55 55 91.5t99 36.5h102l-48 -91h-45q-58 0 -70 -58l-13 -62l-1 -4h209l13 62h1l5 25q11 55 55 91.5t99 36.5h102l-48 -91h-46 q-58 0 -70 -58z" glyph-name="f_f.liga.ss02" horiz-adv-x="641"/><glyph d="M523 250l-21 -101q-12 -58 46 -58h57l9 -91h-114q-55 0 -83 36t-17 91l7 33l52 247h-236l-42 -196l-45 -211h-98l86 407h-57l20 91h57l13 62h1l5 25q11 55 55 91.5t99 36.5h102l-48 -91h-45q-58 0 -70 -58l-13 -62l-1 -4h237l36 167l104 36l-42 -199l-1 -4h125l-19 -91 h-125z" glyph-name="f_t.liga.ss02" horiz-adv-x="693"/><glyph d="M595 564l-13 -62l-1 -4h121l-20 -91h-120l-87 -407h-97l86 407h-242l-55 -258q-6 -32 5.5 -45t40.5 -13h57l8 -91h-114q-55 0 -83 36t-16 91l7 33l52 247h-57l20 91h57l36 167l104 36l-42 -199l-1 -4h243l13 62h1l5 25q11 55 54.5 91.5t99.5 36.5h102l-48 -91h-46 q-57 0 -70 -58z" glyph-name="t_f.liga.ss02" horiz-adv-x="686"/><glyph d="M217 -14q-101 0 -153.5 76.5t-28.5 189.5q22 105 109 181t186 76q102 0 155.5 -76t30.5 -186q-24 -111 -110 -186t-189 -75zM244 86q59 0 111.5 47.5t67.5 113.5q14 68 -18.5 115t-93.5 47t-113 -47t-66 -114q-15 -70 16.5 -116t95.5 -46z" glyph-name="zero.oldstyle" horiz-adv-x="543"/><glyph d="M157 409h-71l19 89h165l-106 -498h-94z" glyph-name="one.oldstyle" horiz-adv-x="273"/><glyph d="M55 342q27 89 84 136.5t136 47.5q77 0 116.5 -50.5t23.5 -123.5q-10 -50 -47.5 -88.5t-191.5 -167.5h194l-21 -96h-360l12 56q218 175 267 219t56 78t-12 56.5t-56 22.5q-82 0 -120 -105z" glyph-name="two.oldstyle" horiz-adv-x="440"/><glyph d="M48 -21q7 -55 30 -79t72 -24q53 0 99 40t60 103q14 70 -31 102.5t-128 29.5l16 74l173 174h-262l22 99h402l-15 -70l-202 -203q78 -23 106.5 -79t13.5 -129q-22 -105 -99.5 -170t-176.5 -65q-77 0 -122.5 37.5t-51.5 107.5z" glyph-name="three.oldstyle" horiz-adv-x="487"/><glyph d="M233 -211l45 211h-321l14 65l459 439h55l-86 -408h85l-21 -96h-85l-45 -211h-100zM126 96h173l45 213z" glyph-name="four.oldstyle" horiz-adv-x="554"/><glyph d="M20 -33q37 -96 135 -96q68 0 122.5 44t70.5 115q14 65 -18 106.5t-114 41.5q-54 0 -98 -27l-48 38l149 309h321l-21 -98h-246l-67 -137q12 4 30 4q122 0 175.5 -66.5t31.5 -169.5q-23 -111 -113.5 -184t-201.5 -73q-148 0 -201 139z" glyph-name="five.oldstyle" horiz-adv-x="527"/><glyph d="M30 231q19 83 95 166l312 336l66 -60l-188 -203q105 17 171.5 -54.5t42.5 -180.5q-21 -103 -109.5 -176t-191.5 -73t-161.5 72t-36.5 173zM133 232q-13 -62 21 -105.5t95 -43.5q59 0 111.5 43.5t65.5 103.5q14 63 -19.5 106.5t-94.5 43.5t-113.5 -43.5t-65.5 -104.5z" glyph-name="six.oldstyle" horiz-adv-x="571"/><glyph d="M424 400h-363l21 98h504l-12 -59l-587 -676l-68 55z" glyph-name="seven.oldstyle" horiz-adv-x="547"/><glyph d="M24 201q23 110 126 168q-62 55 -41 150q18 86 89.5 144t159.5 58t134 -58t28 -144q-9 -44 -37.5 -84t-69.5 -66q38 -26 52 -70t2 -97q-19 -91 -95 -153t-170 -62q-95 0 -146 61.5t-32 152.5zM293 413q44 0 81.5 31t46.5 74q9 45 -15 76t-68 31q-43 0 -81.5 -31t-47.5 -73 q-9 -46 15.5 -77t68.5 -31zM127 205q-11 -51 16 -86t77 -35q49 0 92 35t53 83q11 49 -16.5 84t-77.5 35q-49 0 -91.5 -34.5t-52.5 -81.5z" glyph-name="eight.oldstyle" horiz-adv-x="515"/><glyph d="M536 263q-19 -83 -95 -166l-312 -335l-66 59l188 203q-105 -16 -171.5 55.5t-43.5 180.5q23 103 111 176t191 73t161 -72t37 -174zM433 262q13 62 -21 106t-95 44q-59 0 -111.5 -43.5t-65.5 -103.5q-13 -63 20 -106.5t94 -43.5t113.5 43t65.5 104z" glyph-name="nine.oldstyle" horiz-adv-x="571"/><glyph d="M399 721q117 0 166.5 -103.5t15.5 -261.5q-33 -152 -125.5 -260.5t-212.5 -108.5q-62 0 -106 31t-64 82.5t-24.5 118.5t12.5 139q34 156 128 259.5t210 103.5zM163 356q-22 -108 -6 -175l310 391q-28 53 -89 53q-72 0 -130.5 -76t-84.5 -193zM478 354q21 101 6 173 l-310 -392q30 -51 90 -51q72 0 131 77.5t83 192.5z" glyph-name="zero.tnum" horiz-adv-x="600"/><glyph d="M342 97h143l-21 -97h-390l21 97h144l110 518h-116l21 98h219z" glyph-name="one.tnum" horiz-adv-x="600"/><glyph d="M320 311q83 77 116 119t41 78q11 50 -18 84.5t-81 34.5q-60 0 -95.5 -34.5t-63.5 -105.5l-94 23q81 212 272 212q96 0 148.5 -62.5t32.5 -153.5q-13 -59 -53.5 -111.5t-154.5 -157.5l-150 -140h270l-21 -97h-438l12 53z" glyph-name="two.tnum" horiz-adv-x="600"/><glyph d="M237 -12q-94 0 -141 50t-39 139l101 27q-2 -60 21 -89.5t80 -29.5q56 0 100 36t55 90q13 61 -20 87t-113 27l20 94q76 1 116.5 24.5t52.5 79.5q9 45 -15 74.5t-72 29.5q-49 0 -79 -25.5t-58 -85.5l-91 24q41 93 100 137.5t148 44.5q93 0 140 -55.5t29 -142.5 q-20 -97 -108 -151q36 -25 49.5 -69t2.5 -97q-20 -95 -98.5 -157t-180.5 -62z" glyph-name="three.tnum" horiz-adv-x="600"/><glyph d="M304 0l24 112h-319l14 65l481 536h55l-108 -505h86l-21 -96h-85l-24 -112h-103zM161 208h187l59 275z" glyph-name="four.tnum" horiz-adv-x="600"/><glyph d="M98 182q36 -96 135 -96q68 0 122 44t69 115q14 63 -16 106.5t-112 43.5q-32 0 -58 -6t-36.5 -11.5t-30.5 -17.5l-47 44l149 309h345l-21 -98h-270l-69 -141q21 7 62 7q118 0 170.5 -66.5t30.5 -168.5q-23 -111 -113 -184t-201 -73q-150 0 -202 139z" glyph-name="five.tnum" horiz-adv-x="600"/><glyph d="M52 231q17 83 94 166l294 316h122l-225 -243q96 17 160.5 -55t41.5 -180q-22 -103 -109.5 -176t-187.5 -73q-98 0 -155 72t-35 173zM154 232q-13 -62 19.5 -105.5t89.5 -43.5q56 0 108 44t65 103q13 63 -19.5 106.5t-90.5 43.5q-56 0 -107.5 -43.5t-64.5 -104.5z" glyph-name="six.tnum" horiz-adv-x="600"/><glyph d="M531 615h-363l21 98h504l-13 -60l-567 -653h-117z" glyph-name="seven.tnum" horiz-adv-x="600"/><glyph d="M66 201q24 111 127 168q-62 54 -41 150q18 86 89 144t159 58t134.5 -58t28.5 -144q-10 -45 -38.5 -85t-69.5 -65q38 -26 52 -70t2 -97q-19 -92 -95 -153.5t-170 -61.5t-145.5 61.5t-32.5 152.5zM335 413q44 0 81.5 30.5t46.5 74.5q10 45 -14.5 76t-68.5 31q-43 0 -81 -31 t-47 -73q-10 -46 14.5 -77t68.5 -31zM169 205q-11 -51 16.5 -86t77.5 -35q49 0 92 35.5t53 82.5q11 50 -17 84.5t-78 34.5q-49 0 -91.5 -34.5t-52.5 -81.5z" glyph-name="eight.tnum" horiz-adv-x="600"/><glyph d="M607 477q-17 -83 -94 -166l-289 -311h-123l221 238q-96 -17 -160.5 55t-41.5 180q22 103 109.5 176t187.5 73q98 0 155 -72t35 -173zM505 476q13 62 -19.5 105.5t-89.5 43.5q-56 0 -108.5 -44t-64.5 -103q-13 -63 19.5 -106.5t90.5 -43.5q56 0 107.5 43.5t64.5 104.5z " glyph-name="nine.tnum" horiz-adv-x="600"/><glyph d="M61 358q34 156 128 259.5t210 103.5q117 0 166.5 -103.5t15.5 -261.5q-33 -152 -125.5 -260.5t-212.5 -108.5q-62 0 -106 31t-64 82.5t-24.5 118.5t12.5 139zM264 84q72 0 131 77.5t83 192.5q27 115 0.5 193t-100.5 78q-72 0 -130.5 -76t-84.5 -193q-27 -117 -0.5 -194.5 t101.5 -77.5z" glyph-name="zero.tnum.salt" horiz-adv-x="600"/><glyph d="M61 358q34 156 128 259.5t210 103.5q117 0 166.5 -103.5t15.5 -261.5q-33 -152 -125.5 -260.5t-212.5 -108.5q-62 0 -106 31t-64 82.5t-24.5 118.5t12.5 139zM264 84q72 0 131 77.5t83 192.5q27 115 0.5 193t-100.5 78q-72 0 -130.5 -76t-84.5 -193q-27 -117 -0.5 -194.5 t101.5 -77.5zM304 279q-31 0 -48 22t-11 53q7 31 33.5 53t57.5 22t48.5 -22t10.5 -53q-6 -31 -33 -53t-58 -22z" glyph-name="zero.tnum.ss02" horiz-adv-x="600"/><glyph d="M8 184q17 78 68.5 133.5t108.5 55.5t84.5 -55t10.5 -134q-17 -81 -67.5 -136t-107.5 -55q-58 0 -86 55t-11 136zM119 64q25 0 51.5 35.5t36.5 82.5q11 50 0 85t-38 35q-26 0 -52.5 -35t-36.5 -83q-11 -50 0.5 -85t38.5 -35z" glyph-name="zero.inferior" horiz-adv-x="320"/><glyph d="M81 295h-49l15 71h124l-78 -366h-74z" glyph-name="one.inferior" horiz-adv-x="184"/><glyph d="M116 171q66 61 70 87q5 20 -6 32.5t-32 12.5q-47 0 -68 -67l-65 12q39 125 147 125q50 0 79 -34t19 -81q-7 -32 -27.5 -58.5t-78.5 -80.5l-52 -47h118l-15 -72h-236l9 43z" glyph-name="two.inferior" horiz-adv-x="276"/><glyph d="M84 -7q-51 0 -76 30.5t-17 80.5l74 11q-6 -51 34 -51q20 0 37 13.5t22 35.5q5 24 -9 34t-53 9l16 70q35 -1 51 7.5t20 30.5q9 38 -28 38q-19 0 -29 -9t-21 -37l-69 11q36 106 134 106q47 0 72 -30.5t16 -76.5q-7 -42 -45 -74q27 -29 16 -81q-10 -51 -51 -84.5t-94 -33.5z " glyph-name="three.inferior" horiz-adv-x="285"/><glyph d="M268 366l-52 -242h40l-14 -71h-41l-11 -53h-72l11 53h-154l10 46l238 267h45zM76 124h68l22 104z" glyph-name="four.inferior" horiz-adv-x="309"/><glyph d="M41 115q13 -51 59 -51q29 0 50 17t27 47q7 28 -7 43.5t-45 15.5q-24 0 -48 -18l-35 30l79 167h175l-15 -71h-123l-21 -44q62 0 92 -32.5t18 -89.5q-13 -59 -59.5 -97.5t-104.5 -38.5q-88 0 -110 83z" glyph-name="five.inferior" horiz-adv-x="298"/><glyph d="M-11 123q10 45 50 88l145 155h87l-106 -114q46 -5 72 -41.5t16 -85.5q-12 -55 -58 -93.5t-101 -38.5q-54 0 -85 38.5t-20 91.5zM62 123q-5 -25 8.5 -42t38.5 -17q24 0 44 17t26 41q5 26 -7.5 43t-37.5 17t-45.5 -17t-26.5 -42z" glyph-name="six.inferior" horiz-adv-x="305"/><glyph d="M220 295h-164l15 71h267l-9 -43l-281 -323h-85z" glyph-name="seven.inferior" horiz-adv-x="333"/><glyph d="M-8 109q11 50 55 82q-22 30 -13 72q10 47 48.5 78.5t84.5 31.5q47 0 71 -31.5t14 -78.5q-9 -42 -44 -72q31 -31 20 -81t-51 -83.5t-90 -33.5t-77.5 33.5t-17.5 82.5zM135 221q16 0 30.5 12t18.5 29t-5.5 29.5t-25.5 12.5q-17 0 -32 -12.5t-19 -28.5q-4 -17 6 -29.5 t27 -12.5zM62 110q-5 -20 6 -34t31 -14t37.5 14t21.5 34q4 19 -7 33t-31 14q-19 0 -36.5 -14t-21.5 -33z" glyph-name="eight.inferior" horiz-adv-x="283"/><glyph d="M285 241q-10 -43 -49 -87l-145 -154h-87l104 113q-46 4 -72 41t-16 85q12 56 58.5 95t101.5 39q54 0 85.5 -39t19.5 -93zM212 241q5 26 -8.5 43.5t-38.5 17.5q-24 0 -45 -17.5t-26 -41.5q-6 -26 7.5 -43t38.5 -17t46 16.5t26 41.5z" glyph-name="nine.inferior" horiz-adv-x="307"/><glyph d="M82 531q17 78 68.5 133.5t108.5 55.5t84.5 -55t10.5 -134q-17 -81 -68 -136t-108 -55q-58 0 -85.5 54.5t-10.5 136.5zM193 410q25 0 51 36t37 83q11 50 -0.5 85t-38.5 35q-26 0 -52 -34.5t-36 -83.5q-11 -51 0.5 -86t38.5 -35z" glyph-name="glyph651" horiz-adv-x="320"/><glyph d="M155 642h-49l15 71h124l-78 -366h-74z" glyph-name="glyph652" horiz-adv-x="184"/><glyph d="M198 518q64 59 70 87q4 19 -6.5 31.5t-31.5 12.5q-45 0 -66 -65l-67 11q37 125 147 125q50 0 79 -34t19 -81q-7 -33 -28 -60t-79 -79l-51 -47h118l-15 -72h-236l9 42z" glyph-name="glyph653" horiz-adv-x="292"/><glyph d="M157 340q-51 0 -75.5 30.5t-16.5 80.5l73 11q-4 -52 35 -52q20 0 37 14t21 35q6 25 -8 35t-53 9l15 70q36 -1 52 7.5t20 30.5q4 17 -3.5 27.5t-24.5 10.5q-20 0 -29.5 -9t-21.5 -37l-69 9q37 108 135 108q47 0 72.5 -31t15.5 -77q-8 -41 -45 -73q28 -32 16 -81 q-10 -51 -51.5 -84.5t-94.5 -33.5z" glyph-name="glyph654" horiz-adv-x="285"/><glyph d="M342 713l-52 -242h40l-15 -71h-40l-11 -53h-72l11 53h-155l10 46l239 267h45zM150 471h68l22 105z" glyph-name="glyph655" horiz-adv-x="309"/><glyph d="M115 461q12 -50 58 -50q30 0 51 17t27 47q6 28 -8 43t-45 15q-22 0 -48 -18l-34 31l79 167h175l-15 -71h-123l-22 -44q62 0 92.5 -33t18.5 -89q-13 -59 -60 -97.5t-105 -38.5q-87 0 -109 83z" glyph-name="glyph656" horiz-adv-x="298"/><glyph d="M63 470q10 45 49 87l146 156h87l-107 -115q46 -4 72 -40.5t16 -86.5q-11 -54 -57.5 -92.5t-101.5 -38.5q-54 0 -84.5 38.5t-19.5 91.5zM136 470q-5 -25 8 -42t38 -17q24 0 44.5 17t25.5 41q6 25 -7 42.5t-38 17.5q-24 0 -45 -17t-26 -42z" glyph-name="glyph657" horiz-adv-x="305"/><glyph d="M294 642h-164l15 71h267l-10 -44l-280 -322h-85z" glyph-name="glyph658" horiz-adv-x="333"/><glyph d="M66 455q10 51 55 83q-22 30 -13 72q10 47 48.5 78.5t84.5 31.5t70.5 -31.5t14.5 -78.5q-9 -42 -44 -72q29 -31 20 -81q-11 -50 -51.5 -83.5t-90.5 -33.5t-77 33t-17 82zM208 567q16 0 31 12.5t19 29.5t-5.5 29.5t-26.5 12.5q-16 0 -31 -12t-19 -29t5.5 -30t26.5 -13z M136 457q-5 -20 6 -34.5t31 -14.5t37 14.5t22 34.5q4 19 -7 33t-31 14q-19 0 -36.5 -14t-21.5 -33z" glyph-name="glyph659" horiz-adv-x="283"/><glyph d="M359 588q-9 -41 -49 -87l-145 -154h-87l104 113q-46 4 -72 41t-16 85q12 56 58.5 95t101.5 39q54 0 85 -38.5t20 -93.5zM285 588q6 26 -7.5 43.5t-39.5 17.5q-23 0 -44 -17t-26 -42q-6 -26 7.5 -43t38.5 -17t46 16.5t25 41.5z" glyph-name="glyph660" horiz-adv-x="307"/><glyph d="M125 239q-41 0 -64 28.5t-14 70.5q8 38 43.5 66.5t75.5 28.5q41 0 63.5 -29t13.5 -69q-8 -40 -42.5 -68t-75.5 -28zM60 0l303 428h52l-301 -428h-54zM135 286q21 0 38 15t21 36q5 20 -6.5 34t-31.5 14t-37 -14t-22 -34q-5 -22 6 -36.5t32 -14.5zM233 90q7 38 42 66t75 28 q42 0 65 -28t14 -68t-44 -68t-77 -28q-40 0 -61.5 28.5t-13.5 69.5zM281 89q-4 -21 7 -36t31 -15q21 0 38.5 15t21.5 35q5 20 -6.5 35t-32.5 15q-19 0 -36.5 -14.5t-22.5 -34.5z" glyph-name="uniFE6A.aalt" horiz-adv-x="495"/><glyph d="M191 51q6 26 29 45t49 19t41 -19t9 -45q-5 -27 -27.5 -45.5t-48.5 -18.5q-28 0 -42.5 18.5t-9.5 45.5z" glyph-name="period.aalt" horiz-adv-x="600"/><glyph d="M240 118l79 -32l-173 -256l-60 26z" glyph-name="comma.aalt" horiz-adv-x="600"/><glyph d="M326 381q-28 0 -42 18.5t-9 46.5q6 26 29 44.5t48 18.5q27 0 42 -18.5t10 -44.5q-6 -28 -29 -46.5t-49 -18.5zM191 51q6 26 29 45t49 19t41 -19t9 -45q-5 -27 -27.5 -46t-48.5 -19q-28 0 -42.5 19t-9.5 46z" glyph-name="colon.aalt" horiz-adv-x="600"/><glyph d="M326 381q-27 0 -41.5 19t-9.5 46q6 26 29.5 45t49.5 19t41 -18.5t9 -45.5q-6 -26 -29 -45.5t-49 -19.5zM240 118l79 -32l-176 -268l-60 26z" glyph-name="semicolon.aalt" horiz-adv-x="600"/><glyph d="M602 423h-119l-42 -125h117l-30 -86h-116l-71 -212h-92l71 212h-98l-71 -212h-92l71 212h-119l31 86h117l42 125h-115l28 85h115l69 205h92l-69 -205h99l69 205h92l-69 -205h119zM349 298l42 125h-98l-42 -125h98z" glyph-name="numbersign.aalt" horiz-adv-x="600"/><glyph d="M19 0l503 713h100l-502 -713h-101z" glyph-name="slash.aalt" horiz-adv-x="600"/><glyph d="M470 0h-101l-198 713h100z" glyph-name="backslash.aalt" horiz-adv-x="600"/><glyph d="M201 -218q-25 85 -22 218t32 272q30 141 83.5 273.5t115.5 216.5l80 -40q-124 -199 -177 -450q-54 -253 -14 -450z" glyph-name="parenleft.aalt" horiz-adv-x="600"/><glyph d="M196 -218l-80 40q124 200 177 450q52 253 14 450l98 40q25 -84 22 -217.5t-33 -272.5q-29 -139 -83 -272.5t-115 -217.5z" glyph-name="parenright.aalt" horiz-adv-x="600"/><glyph d="M221 189q11 51 1.5 73.5t-45.5 30.5l17 82q38 9 58 31.5t30 67.5l49 229q21 100 75.5 139t154.5 30l-19 -88q-61 0 -80.5 -15.5t-32.5 -78.5l-47 -221q-11 -55 -32 -85t-63 -53q31 -22 39.5 -54t-2.5 -85l-46 -213q-14 -68 -2.5 -83.5t74.5 -15.5l-18 -87 q-105 -15 -142 30.5t-15 149.5z" glyph-name="braceleft.aalt" horiz-adv-x="600"/><glyph d="M349 189l-46 -216q-22 -104 -78 -149.5t-154 -30.5l18 87q62 0 80.5 15.5t32.5 83.5l46 213q10 53 32.5 84.5t63.5 54.5q-33 22 -41 52.5t3 85.5l47 221q13 64 1 79t-73 15l19 88q103 9 141 -30t17 -139l-49 -229q-10 -45 0.5 -67.5t45.5 -31.5l-17 -82 q-40 -8 -59.5 -30.5t-29.5 -73.5z" glyph-name="braceright.aalt" horiz-adv-x="600"/><glyph d="M319 -117l-19 -94h-200l205 962h200l-21 -94h-99l-165 -774h99z" glyph-name="bracketleft.aalt" horiz-adv-x="600"/><glyph d="M121 -117h99l165 774h-99l19 94h200l-205 -962h-200z" glyph-name="bracketright.aalt" horiz-adv-x="600"/><glyph d="M193 302h233l-20 -93h-233z" glyph-name="hyphen.aalt" horiz-adv-x="600"/><glyph glyph-name="space.aalt" horiz-adv-x="600"/><glyph d="M467 385q50 -23 71 -70t8 -108q-19 -87 -83 -140t-159 -64l-22 -101h-82l21 98h-49l-21 -98h-82l21 98h-103l152 713h102l20 91h82l-20 -91h37h12l20 91h82l-22 -104q62 -20 87 -67.5t10 -119.5q-15 -76 -82 -128zM448 512q11 55 -14 79t-83 24h-129l-44 -206h127 q120 0 143 103zM444 208q12 59 -25 84.5t-114 25.5h-147l-46 -221h157q151 0 175 111z" glyph-name="uni20BF.aalt" horiz-adv-x="600"/></font>
</defs>
</svg>
