<svg id="Layer_1" data-name="Layer 1" xmlns="http://www.w3.org/2000/svg" viewBox="0 0 40 40">
  <path d="M20,27.74A7.79,7.79,0,1,1,27.77,20,7.8,7.8,0,0,1,20,27.74Zm0-13.91A6.12,6.12,0,1,0,26.1,20,6.13,6.13,0,0,0,20,13.83Z" fill="#fff"/>
  <path d="M24.47,37.37a3.42,3.42,0,0,1-3.15-2.08l-.21-.61a17.11,17.11,0,0,1-2.48,0l-.22.52A3.28,3.28,0,0,1,16.65,37a3.34,3.34,0,0,1-2.56.06l-2.22-.94a3.36,3.36,0,0,1-1.8-4.36l.21-.55a17,17,0,0,1-1.74-1.76l-.39.2a3.41,3.41,0,0,1-2.64,0A3.57,3.57,0,0,1,3.7,27.94l-.85-2.12a3.26,3.26,0,0,1,1.7-4.28l.1,0,.55-.23a17.66,17.66,0,0,1,0-2.52l-.54-.23a3.34,3.34,0,0,1-1.81-4.37l0-.06L3.74,12a3.33,3.33,0,0,1,1.82-1.81,3.3,3.3,0,0,1,2.56,0l.06,0,.48.2a14.87,14.87,0,0,1,1.79-1.76l-.22-.55a3.27,3.27,0,0,1,1.62-4.31L12,3.71l2.06-.83a3.39,3.39,0,0,1,2.56,0,3.53,3.53,0,0,1,1.82,1.79l.25.61a15,15,0,0,1,2.51,0l.22-.53A3.35,3.35,0,0,1,25.8,2.87L28,3.78a3.28,3.28,0,0,1,1.82,1.8,3.34,3.34,0,0,1,0,2.56l-.21.49a14.87,14.87,0,0,1,1.76,1.79l.55-.22a3.28,3.28,0,0,1,2.57,0A3.47,3.47,0,0,1,36.32,12l.85,2.1a3.3,3.3,0,0,1,0,2.56,3.48,3.48,0,0,1-1.78,1.82l-.61.24a15.15,15.15,0,0,1,0,2.52l.54.22a3.27,3.27,0,0,1,1.76,1.8,3.31,3.31,0,0,1,0,2.51l-.78-.3.77.32L36.14,28a3.34,3.34,0,0,1-4.37,1.82h0l-.52-.21a15,15,0,0,1-1.78,1.78l.2.58a3.33,3.33,0,0,1,0,2.52,3.55,3.55,0,0,1-1.79,1.83l-2.08.85A3.44,3.44,0,0,1,24.47,37.37ZM12.55,5.31a1.61,1.61,0,0,0-.79,2.12l.48,1.17a.84.84,0,0,1-.27,1,13.74,13.74,0,0,0-2.4,2.36.84.84,0,0,1-1,.26l-1.11-.47h0a1.67,1.67,0,0,0-2.18.91L4.4,14.78v0A1.67,1.67,0,0,0,5.31,17l1.1.46a.82.82,0,0,1,.51.86,16.2,16.2,0,0,0,0,3.41.82.82,0,0,1-.51.86L5.29,23a1.67,1.67,0,0,0-.92.91,1.59,1.59,0,0,0,0,1.23l.85,2.1a1.78,1.78,0,0,0,.93.9,1.64,1.64,0,0,0,1.27,0l.94-.49a.83.83,0,0,1,1,.23,14.28,14.28,0,0,0,2.37,2.42.82.82,0,0,1,.26.95l-.44,1.13a1.69,1.69,0,0,0,.9,2.19l2.15.92a1.7,1.7,0,0,0,1.31,0,1.64,1.64,0,0,0,.88-.93l.46-1.11a.83.83,0,0,1,.87-.51,16.2,16.2,0,0,0,3.41,0h.09a.83.83,0,0,1,.79.57l.41,1.18a1.73,1.73,0,0,0,2.23.87l2.06-.84a1.89,1.89,0,0,0,.91-.94,1.72,1.72,0,0,0,0-1.28l-.41-1.18A.85.85,0,0,1,28,30.4,14,14,0,0,0,30.32,28a.84.84,0,0,1,1-.26l1.11.45,0,0a1.71,1.71,0,0,0,1.26,0,1.69,1.69,0,0,0,.91-.91l.88-2.14v0h0A1.62,1.62,0,0,0,34.66,23l-1.1-.46a.81.81,0,0,1-.51-.87,14.78,14.78,0,0,0,0-3.39.85.85,0,0,1,.51-.88L34.72,17a1.8,1.8,0,0,0,.9-.94,1.62,1.62,0,0,0,0-1.26l-.84-2.1a1.8,1.8,0,0,0-1-.93,1.67,1.67,0,0,0-1.28,0l-1.13.47a.83.83,0,0,1-1-.27,13.08,13.08,0,0,0-2.36-2.4.84.84,0,0,1-.25-1l.43-1a1.65,1.65,0,0,0,0-1.29,1.61,1.61,0,0,0-.91-.9l-2.15-.9a1.67,1.67,0,0,0-2.17,1l-.47,1.11a.85.85,0,0,1-.87.51,14.87,14.87,0,0,0-3.4,0,.83.83,0,0,1-.87-.52l-.47-1.15A1.83,1.83,0,0,0,16,4.42a1.72,1.72,0,0,0-1.28,0Z" fill="#fff"/>
  <path d="M20,27.71a7.7,7.7,0,0,1-2.54-.43,6,6,0,0,1-.91-.38.84.84,0,0,1-.39-1.12.86.86,0,0,1,1.13-.38,4.55,4.55,0,0,0,.72.3,6.12,6.12,0,1,0,4-11.57.84.84,0,1,1,.55-1.58,7.8,7.8,0,0,1,.89,14.37A7.93,7.93,0,0,1,20,27.71Z" fill="#fff"/>
</svg>
