<svg data-name="Layer 1" xmlns="http://www.w3.org/2000/svg" viewBox="0 0 64 64"><path d="M45.47 58.89a30.12 30.12 0 1111.61-10.26" fill="none" stroke="#fff" stroke-linecap="round" stroke-miterlimit="10" stroke-width="3" opacity=".8"/><path d="M53.12 53.41a30 30 0 01-3 2.56" fill="none" stroke="#fff" stroke-linecap="round" stroke-miterlimit="10" stroke-width="3" opacity=".6"/><path d="M31.69 13.31A11.19 11.19 0 0022 20a1.5 1.5 0 102.74 1.2 8.22 8.22 0 017-4.85 7.68 7.68 0 017.48 7.48 7.67 7.67 0 01-7.48 7.47 1.5 1.5 0 00-1.5 1.5v6a1.5 1.5 0 003 0v-4.6a10.64 10.64 0 009-10.35 10.61 10.61 0 00-10.55-10.54z" fill="#fff"/><circle cx="31.69" cy="47.7" r="2.99" fill="#fff"/></svg>