<svg id="Layer_1" data-name="Layer 1" xmlns="http://www.w3.org/2000/svg" xmlns:xlink="http://www.w3.org/1999/xlink" viewBox="0 0 186.4 82"><defs><style>.cls-1{fill:#ef4e42;}</style><symbol id="doordash" data-name="doordash" viewBox="0 0 266.78 89"><path class="cls-1" d="M145,19.32A19.34,19.34,0,0,0,125.92,0h-45l5.48,5.48h39.35a13.84,13.84,0,1,1,0,27.69H114l5.48,5.48h6.59v0A19.34,19.34,0,0,0,145,19.32Z"/><path class="cls-1" d="M126.11,22.11H103l5.48,5.48h17.64a8.25,8.25,0,0,0,7.76-5.52H126.3C126.24,22.08,126.18,22.11,126.11,22.11Z"/><path class="cls-1" d="M126.3,16.57h7.57a8.25,8.25,0,0,0-7.76-5.52H91.93l5.48,5.48h28.7C126.18,16.54,126.23,16.57,126.3,16.57Z"/><path class="cls-1" d="M152.17,0H141.31a25.06,25.06,0,0,1,5,5.38l.1.1H152a13.84,13.84,0,0,1,0,27.69h-5.6a25.08,25.08,0,0,1-5,5.48h11A19.32,19.32,0,0,0,152.17,0Z"/><path class="cls-1" d="M153.73,22.07h-3.3a24.64,24.64,0,0,1-1.25,5.52h4.46A8.26,8.26,0,0,0,161,22.07h-7.31Z"/><path class="cls-1" d="M153.87,11.08v0h-4.7a24.65,24.65,0,0,1,1.26,5.52H161A8.27,8.27,0,0,0,153.87,11.08Z"/><path class="cls-1" d="M0,60.82H10.83a16.61,16.61,0,0,1,5.24.84,12.74,12.74,0,0,1,4.46,2.54,12.43,12.43,0,0,1,3.11,4.29,14.67,14.67,0,0,1,1.16,6.08A12.76,12.76,0,0,1,20,85a14.8,14.8,0,0,1-4.7,2.52,16.48,16.48,0,0,1-5.07.83H0ZM8.54,83.88a17.07,17.07,0,0,0,4.33-.53,10.3,10.3,0,0,0,3.55-1.63,7.76,7.76,0,0,0,2.39-2.87,9.59,9.59,0,0,0,.87-4.29,10.68,10.68,0,0,0-.77-4.27,7.48,7.48,0,0,0-2.15-2.89,9,9,0,0,0-3.26-1.63,15.38,15.38,0,0,0-4.13-.52H4.89V83.88Z"/><path class="cls-1" d="M34.19,74.68a15.94,15.94,0,0,1,1.09-6,13.44,13.44,0,0,1,3-4.6,13.16,13.16,0,0,1,4.58-2.93,16.05,16.05,0,0,1,5.84-1,16.34,16.34,0,0,1,5.9,1A12.89,12.89,0,0,1,59.23,64a13.41,13.41,0,0,1,3,4.58,15.78,15.78,0,0,1,1.09,6,15.29,15.29,0,0,1-1.09,5.86,13.49,13.49,0,0,1-3,4.54,13.88,13.88,0,0,1-4.62,3,16.24,16.24,0,0,1-5.9,1.1,16.05,16.05,0,0,1-5.84-1,13.1,13.1,0,0,1-7.59-7.43A15.26,15.26,0,0,1,34.19,74.68Zm5.13-.31A11.84,11.84,0,0,0,40,78.45a9.56,9.56,0,0,0,1.92,3.22,9,9,0,0,0,3,2.14,9.31,9.31,0,0,0,3.86.77,9.46,9.46,0,0,0,3.88-.77,8.91,8.91,0,0,0,3-2.14,9.56,9.56,0,0,0,1.92-3.22,11.84,11.84,0,0,0,.68-4.08,10.74,10.74,0,0,0-.68-3.84,9.49,9.49,0,0,0-1.92-3.12,8.73,8.73,0,0,0-3-2.1,9.73,9.73,0,0,0-3.88-.76,9.58,9.58,0,0,0-3.86.76,8.77,8.77,0,0,0-3,2.1A9.49,9.49,0,0,0,40,70.53,10.74,10.74,0,0,0,39.32,74.37Z"/><path class="cls-1" d="M72.73,74.68a15.94,15.94,0,0,1,1.09-6,13.44,13.44,0,0,1,3-4.6,13.16,13.16,0,0,1,4.58-2.93,16.05,16.05,0,0,1,5.84-1,16.34,16.34,0,0,1,5.9,1A12.89,12.89,0,0,1,97.78,64a13.41,13.41,0,0,1,3,4.58,15.78,15.78,0,0,1,1.09,6,15.29,15.29,0,0,1-1.09,5.86,13.49,13.49,0,0,1-3,4.54,13.88,13.88,0,0,1-4.62,3,16.24,16.24,0,0,1-5.9,1.1,16.05,16.05,0,0,1-5.84-1,13.1,13.1,0,0,1-7.59-7.43A15.26,15.26,0,0,1,72.73,74.68Zm5.13-.31a11.84,11.84,0,0,0,.68,4.08,9.56,9.56,0,0,0,1.92,3.22,9,9,0,0,0,3,2.14,9.31,9.31,0,0,0,3.86.77,9.46,9.46,0,0,0,3.88-.77,8.91,8.91,0,0,0,3-2.14,9.56,9.56,0,0,0,1.92-3.22,11.84,11.84,0,0,0,.68-4.08,10.74,10.74,0,0,0-.68-3.84,9.49,9.49,0,0,0-1.92-3.12,8.73,8.73,0,0,0-3-2.1,9.73,9.73,0,0,0-3.88-.76,9.58,9.58,0,0,0-3.86.76,8.77,8.77,0,0,0-3,2.1,9.49,9.49,0,0,0-1.92,3.12A10.74,10.74,0,0,0,77.86,74.37Z"/><path class="cls-1" d="M112.76,60.82h9.54a19.53,19.53,0,0,1,3.83.37,9.82,9.82,0,0,1,3.28,1.26,6.61,6.61,0,0,1,2.29,2.41,7.8,7.8,0,0,1,.85,3.85,7.65,7.65,0,0,1-1.65,5,7.1,7.1,0,0,1-4.72,2.44l7.3,12.15h-5.9l-6.37-11.64h-3.57V88.31h-4.89Zm8.69,11.64c.7,0,1.4,0,2.1-.09a6.5,6.5,0,0,0,1.92-.47,3.24,3.24,0,0,0,1.41-1.13,3.56,3.56,0,0,0,.54-2.12,3.36,3.36,0,0,0-.51-1.94,3.15,3.15,0,0,0-1.32-1.11,6.26,6.26,0,0,0-1.81-.48,16.74,16.74,0,0,0-1.92-.11h-4.23v7.45Z"/><path class="cls-1" d="M145.75,60.82h10.83a16.61,16.61,0,0,1,5.24.84,12.74,12.74,0,0,1,4.46,2.54,12.43,12.43,0,0,1,3.11,4.29,14.67,14.67,0,0,1,1.16,6.08A12.76,12.76,0,0,1,165.76,85a14.8,14.8,0,0,1-4.7,2.52,16.48,16.48,0,0,1-5.07.83H145.75Zm8.54,23.06a17.07,17.07,0,0,0,4.33-.53,10.3,10.3,0,0,0,3.55-1.63,7.76,7.76,0,0,0,2.39-2.87,9.59,9.59,0,0,0,.87-4.29,10.68,10.68,0,0,0-.77-4.27,7.48,7.48,0,0,0-2.15-2.89,9,9,0,0,0-3.26-1.63,15.38,15.38,0,0,0-4.13-.52h-4.47V83.88Z"/><path class="cls-1" d="M190.31,60.82h4.23l11.83,27.48h-5.59L198.23,82H186.31l-2.48,6.29h-5.47Zm6.21,17-4.23-11.18L188,77.83Z"/><path class="cls-1" d="M229.13,66.73a4.48,4.48,0,0,0-2.08-1.65,7.17,7.17,0,0,0-2.74-.53,6.91,6.91,0,0,0-1.65.2,4.6,4.6,0,0,0-1.44.62,3.28,3.28,0,0,0-1,1.1,3.24,3.24,0,0,0-.39,1.61,2.52,2.52,0,0,0,1,2.14,9.5,9.5,0,0,0,2.41,1.28q1.44.55,3.15,1.05a12.64,12.64,0,0,1,3.15,1.4,7.73,7.73,0,0,1,2.41,2.37,7,7,0,0,1,1,3.92A8.62,8.62,0,0,1,232,84.1a7.87,7.87,0,0,1-2.19,2.74,9.54,9.54,0,0,1-3.2,1.63,13.49,13.49,0,0,1-3.84.54,14.37,14.37,0,0,1-4.93-.85,9.47,9.47,0,0,1-4.08-2.87l3.69-3.57a6.15,6.15,0,0,0,2.35,2.12,6.6,6.6,0,0,0,3.09.76,6.33,6.33,0,0,0,1.7-.23,5.24,5.24,0,0,0,1.56-.7,3.72,3.72,0,0,0,1.13-1.19,3.18,3.18,0,0,0,.42-1.65,2.87,2.87,0,0,0-1-2.33,8.59,8.59,0,0,0-2.41-1.38q-1.44-.56-3.14-1.07a13.22,13.22,0,0,1-3.15-1.38,7.61,7.61,0,0,1-2.41-2.33,7,7,0,0,1-1-3.9,7.4,7.4,0,0,1,.88-3.69,8,8,0,0,1,2.29-2.58,10,10,0,0,1,3.24-1.53,13.9,13.9,0,0,1,3.73-.51,13.58,13.58,0,0,1,4.21.66A9.74,9.74,0,0,1,232.7,63Z"/><path class="cls-1" d="M244.15,60.82H249V71.77h12.85V60.82h4.89V88.31h-4.89V76.2H249V88.31h-4.89Z"/></symbol></defs><title>doordash</title><use width="266.78" height="89" transform="translate(34.26 21.68) scale(0.41)" xlink:href="#doordash"/></svg>