<svg id="1b6f996e-e63f-43a0-9976-27d17ba46fa3" data-name="Layer 1" xmlns="http://www.w3.org/2000/svg" xmlns:xlink="http://www.w3.org/1999/xlink" viewBox="0 0 186.4 82"><defs><symbol id="139f1f80-4db8-4bb8-9ae1-58c3f4833a17" data-name="rackspace" viewBox="0 0 315.26 88.12"><g id="ee3be0be-6869-445c-a358-1495ae3e5853" data-name="rackspace"><path d="M41.93,59.55l4.25-2.62c-.21-.59-.35-1.05-.52-1.5a36.28,36.28,0,0,1-.16-26.95,80.2,80.2,0,0,1,9.13-17.16l1.37-2A21.08,21.08,0,0,0,46,4.92a35.66,35.66,0,0,0-11.22-.21,39.64,39.64,0,0,1,4-4.42A1.77,1.77,0,0,1,39.92,0c12.92-.5,24.55,7,27.33,20.54a31.62,31.62,0,0,1-1.79,18.65C59.77,53.1,49.7,62.14,35.07,65.84a30.26,30.26,0,0,1-15.43-.12c-.31-.08-.61-.21-1.05-.37,0-1.59-.05-3.21,0-4.81a34.46,34.46,0,0,1,2.33-11.23,19,19,0,0,1,3.21-5.61,13.65,13.65,0,0,1,2.1-2,6.67,6.67,0,0,1,8.67.16,13.84,13.84,0,0,1,3.52,4.41,31.07,31.07,0,0,1,3.27,11.31C41.78,58.1,41.83,58.63,41.93,59.55Z"/><path d="M51.18,8.85a1.64,1.64,0,0,1,0,.44c-2.18,5.67-5,11-9.65,15a27.66,27.66,0,0,1-4.33,2.82,5.24,5.24,0,0,1-2,.56c-2.27.25-3.73-.88-3.79-3.15a14.84,14.84,0,0,1,.55-4.31,23.45,23.45,0,0,1,4.72-8.45,4.22,4.22,0,0,0,.92-1.59,23.36,23.36,0,0,0-3.14.65A3.54,3.54,0,0,0,33,12a81.23,81.23,0,0,0-11.76,20.5A88.8,88.8,0,0,0,15,60.44c-.17,3-.22,6.05-.33,9.33-.62-.27-1.2-.48-1.73-.76A23.35,23.35,0,0,1,.48,51.71,31.61,31.61,0,0,1,3,32.83C9.14,19.34,19.32,10.64,33.9,7.44a29.64,29.64,0,0,1,15.72.76c.36.12.72.24,1.07.38A4.07,4.07,0,0,1,51.18,8.85Zm-8,7.46c0-1.91-1.13-2.81-2.95-2.26a5.66,5.66,0,0,0-1.58.79,9.82,9.82,0,0,0-3.87,5.25A5.89,5.89,0,0,0,34.52,22a2,2,0,0,0,2.76,2C40.12,23.22,43.16,19.26,43.17,16.31Z" fill="#ec1c24"/><path d="M203.17,27.82h7.67l-.51,3.62c.59-.5.94-.79,1.27-1.08a10.54,10.54,0,0,1,7.35-3,8.65,8.65,0,0,1,8.39,5.55,14.79,14.79,0,0,1,1,7.33,20.94,20.94,0,0,1-5,12.27,15.35,15.35,0,0,1-9.27,5.26,10,10,0,0,1-7.52-1.34l-2,10.12h-8.76Zm4.66,22c2.17,1.71,4.52,1.89,6.47.44a10.57,10.57,0,0,0,2.43-2.57,15,15,0,0,0,2.47-8.77,7.15,7.15,0,0,0-.41-2.22,3,3,0,0,0-3.75-2,5.5,5.5,0,0,0-3.09,2,11.49,11.49,0,0,0-2.46,4.89C208.87,44.3,208.39,47.07,207.84,49.85Z"/><path d="M174.55,55.45l.43,1.78h-9.26L159,42.39l-.34,0-2.85,14.81h-8.71l7.49-39.44h8.71l-4.26,22.53.23.17c.31-.31.64-.59.93-.92,3-3.48,6.05-6.94,9-10.45a2.82,2.82,0,0,1,2.48-1.17c2.11.08,4.22,0,6.34,0,.46,0,.93,0,1.75.09L168,41.43c.14.38.25.73.4,1.07q2.78,6,5.58,12.09a6.62,6.62,0,0,0,.61.9Z"/><path d="M119.71,57.2h-8.34l.44-2.88-.35-.26a8.64,8.64,0,0,1-1,1.27,9.59,9.59,0,0,1-8.41,2.47,7.14,7.14,0,0,1-5-3.36,10.83,10.83,0,0,1-1.73-5.18,21.39,21.39,0,0,1,4.88-15.72,16.09,16.09,0,0,1,16.24-5.85,7.6,7.6,0,0,1,6.46,7,18.59,18.59,0,0,1,0,5.16C122,45.58,120.82,51.31,119.71,57.2Zm-4.87-19.32c-.15-1.38-.22-2.72-1.58-3.43a3.56,3.56,0,0,0-4,.47,10,10,0,0,0-1.95,1.92,15,15,0,0,0-3.1,8.39,10.25,10.25,0,0,0,.6,3.79,2.52,2.52,0,0,0,3.29,1.59,5,5,0,0,0,3.06-2,13.83,13.83,0,0,0,2-3.66C113.92,42.65,114.31,40.25,114.84,37.88Z"/><path d="M253.18,57.28h-8.23l.4-3.08-1.19,1.1a9.68,9.68,0,0,1-8.55,2.55,7.1,7.1,0,0,1-4.95-3.38A10.09,10.09,0,0,1,229,49.92c-.64-6.91,1.26-13,6.27-17.9a15.86,15.86,0,0,1,14.34-4.37,8,8,0,0,1,7,7.6,25.27,25.27,0,0,1-.6,7.41c-.93,4.61-1.77,9.24-2.66,13.86C253.33,56.73,253.27,56.93,253.18,57.28ZM237.73,45.86c0,.59.07,1.14.14,1.67a5.8,5.8,0,0,0,.28,1.1,2.84,2.84,0,0,0,4,1.91,6.51,6.51,0,0,0,3.57-3.14c1.86-3.23,2.28-6.82,2.49-10.45a1.58,1.58,0,0,0,0-.32,2.67,2.67,0,0,0-2.88-2.47,5.1,5.1,0,0,0-4,2.22A15.88,15.88,0,0,0,237.73,45.86Z"/><path d="M289.54,46.25c.35,2.66,1.45,3.94,3.92,4.51a14.68,14.68,0,0,0,8-.57c1.48-.48,2.9-1.15,4.57-1.83-.45,2.34-.84,4.55-1.32,6.74a1.51,1.51,0,0,1-.85.85c-4.84,2-9.82,2.7-14.93,1.32A9.91,9.91,0,0,1,281.39,49a18.26,18.26,0,0,1,4.73-16.38A15.44,15.44,0,0,1,301,27.7a8.58,8.58,0,0,1,7,11,8.08,8.08,0,0,1-4.4,5.16,19.83,19.83,0,0,1-7.49,2c-1.83.16-3.68.19-5.51.29C290.27,46.18,290,46.22,289.54,46.25Zm1-6.62a23.87,23.87,0,0,0,7.15-.79c1.78-.59,2.53-1.66,2.25-3s-1.52-2-3.32-1.9A6.83,6.83,0,0,0,290.55,39.63Z"/><path d="M174.57,55.48q.55-2.35,1.09-4.7c.12-.52.23-1,.37-1.69.48.19.86.34,1.23.51a17,17,0,0,0,7.33,1.84,5.34,5.34,0,0,0,2-.41,2.2,2.2,0,0,0,.82-3.62,11,11,0,0,0-2.31-1.74c-1-.67-2.2-1.17-3.2-1.9-4.56-3.33-4.87-9.13-.73-13a11.32,11.32,0,0,1,4.63-2.6,19.38,19.38,0,0,1,11.35.11c.5.15,1,.4,1.57.65l-1.22,6.42c-1.77-.46-3.4-1-5.07-1.27a11.29,11.29,0,0,0-3.37.12A2.18,2.18,0,0,0,187.22,36a2.12,2.12,0,0,0,1.06,2.2c.69.51,1.46.92,2.2,1.36,1.07.64,2.2,1.19,3.2,1.91a8.17,8.17,0,0,1,1.56,12.12,10.35,10.35,0,0,1-4.89,3.35,20.09,20.09,0,0,1-13.83-.33,13.58,13.58,0,0,1-2-1.12Z"/><path d="M149.25,28.49l-1.35,7c-.76-.26-1.35-.51-2-.66-7.12-1.81-11.92,3.25-12.53,8.82a12.53,12.53,0,0,0,0,2.27,5.05,5.05,0,0,0,4.95,4.86,13,13,0,0,0,5.73-.91l1.94-.78a7,7,0,0,1,0,1.12c-.29,1.65-.66,3.29-.92,4.95a1.88,1.88,0,0,1-1.48,1.68,21.32,21.32,0,0,1-10.42.71,10.81,10.81,0,0,1-8.92-9.67,18.22,18.22,0,0,1,16-20.3,20.36,20.36,0,0,1,7.41.36C148.14,28.11,148.59,28.28,149.25,28.49Z"/><path d="M282.78,28.47l-1.33,7.07c-.76-.26-1.35-.5-2-.66A9.78,9.78,0,0,0,267,43a12.18,12.18,0,0,0,0,3.54,4.91,4.91,0,0,0,4.81,4.25A13.63,13.63,0,0,0,278,49.76l1.71-.68c-.47,2.44-.86,4.66-1.35,6.86-.07.32-.55.66-.91.78a19.18,19.18,0,0,1-12.27.47c-4.56-1.46-7.36-5.45-7.56-10.49a18.28,18.28,0,0,1,16.42-19.1A19.5,19.5,0,0,1,282.78,28.47Z"/><path d="M88.83,28.08l-.72,4.21c1.47-1.41,2.73-2.94,4.51-3.87a8.2,8.2,0,0,1,5.86-.86l-1.63,8.38c-.78,0-1.42,0-2.05,0a7.65,7.65,0,0,0-6,3.87A20,20,0,0,0,86.27,47q-.85,4.63-1.71,9.25c-.08.42-.21.83-.34,1.33H75.51l5.6-29.47Z"/><path d="M276.24,87.74h-4.08l-4.16-11-.24,0-2,11h-3.55l3-16a28.14,28.14,0,0,1,4.68,0L273.78,82l1.92-10.3h3.56Z" fill="#ec1c24"/><path d="M198.41,88.09c-3.8,0-6.61-1.88-7.3-5.17A9.57,9.57,0,0,1,202,71.43c4.31.8,6.55,4.37,5.67,9A9.13,9.13,0,0,1,198.41,88.09Zm5.4-9.43c0-.27-.05-.71-.12-1.13A3.42,3.42,0,0,0,200,74.44a4.23,4.23,0,0,0-3.06,1.29,6.54,6.54,0,0,0-1.76,6.7,3.28,3.28,0,0,0,3,2.5,4.37,4.37,0,0,0,3.7-1.27A6.75,6.75,0,0,0,203.81,78.66Z" fill="#ec1c24"/><path d="M300.55,72.33l-.56,3c-1.24-.25-2.38-.52-3.53-.7a7.62,7.62,0,0,0-4.71.84,5.62,5.62,0,0,0-3,6.13,3.51,3.51,0,0,0,2.26,2.75,5.12,5.12,0,0,0,1.25.32c3.35.4,3.42-.1,3.55-3.17l-2.54-.23.48-2.77h6.33a6.23,6.23,0,0,1,0,1.09c-.4,2.18-.85,4.35-1.23,6.53a1.3,1.3,0,0,1-1,1.15,13.21,13.21,0,0,1-9.06,0c-3.4-1.31-5-4.71-4.08-8.53a8.73,8.73,0,0,1,5.09-6.15,14.28,14.28,0,0,1,10-.68A4.82,4.82,0,0,1,300.55,72.33Z" fill="#ec1c24"/><path d="M171.61,71.66h3.7l-1,6h6.45l1.22-6h3.7l-3,16h-3.71l1.15-6.56h-6.48l-1.31,6.53H168.6Z" fill="#ec1c24"/><path d="M225.7,72.13,225,75.26c-1.44-.27-2.74-.58-4.07-.72a3.19,3.19,0,0,0-1.7.4,1.13,1.13,0,0,0-.23,2,5.82,5.82,0,0,0,1.21.8c.66.36,1.36.66,2,1,3.84,2.13,2.64,6.63.12,8.14A9.34,9.34,0,0,1,216,88a5.94,5.94,0,0,1-3.47-1.34l.62-3.15a10.69,10.69,0,0,0,1.38.59,31.32,31.32,0,0,0,3.6.82,3.13,3.13,0,0,0,1.7-.38,1.4,1.4,0,0,0,.29-2.41,7.54,7.54,0,0,0-1.38-.84c-.66-.36-1.35-.68-2-1.06a4.43,4.43,0,0,1-.15-7.49,8.83,8.83,0,0,1,6.68-1.25A22.64,22.64,0,0,1,225.7,72.13Z" fill="#ec1c24"/><path d="M245.29,71.71l-.61,3.06h-4.74l-2.47,13h-3.68l2.36-12.89h-4.62l.52-3.13Z" fill="#ec1c24"/><path d="M253.55,87.82c-.8,0-1.44,0-2.08,0-.48,0-1,0-1.62-.08l3-16h3.71Z" fill="#ec1c24"/><path d="M315.26,53.89a4.09,4.09,0,0,1-4,4,3.4,3.4,0,0,1-3.48-3.34,4.22,4.22,0,0,1,4.17-4.13A3.3,3.3,0,0,1,315.26,53.89ZM311.84,51a3.62,3.62,0,0,0-3.54,3.65,2.85,2.85,0,0,0,2.94,2.81,3.69,3.69,0,0,0,3.55-3.67A2.84,2.84,0,0,0,311.84,51Z"/><path d="M312.34,54.73l.27,1.53-.28.11-1.17-1.95-.87,1.83c-.33-.93-.28-1.31.5-4.17.86-.11,1.84-.45,2.41.54S312.89,54.17,312.34,54.73ZM310.9,54c1,.09,1.83.1,1.83-.85,0-.77-.77-.68-1.46-.66Z"/></g></symbol></defs><title>rackspace</title><use width="315.26" height="88.12" transform="translate(29 23) scale(0.41 0.41)" xlink:href="#139f1f80-4db8-4bb8-9ae1-58c3f4833a17"/></svg>