<svg id="3c7bf75b-dbfb-4b34-8a93-c678478537f0" data-name="Layer 1" xmlns="http://www.w3.org/2000/svg" xmlns:xlink="http://www.w3.org/1999/xlink" viewBox="0 0 186.4 82"><defs><symbol id="ebd149cf-bef3-45b8-86bf-e8e15bb4c0bb" data-name="reddit" viewBox="0 0 272.63 96.28"><g id="1bec0b9f-f1e3-4249-a49a-32ebab72a0e9" data-name="reddit"><g id="7d0b373b-5105-46d2-9c1a-a0bc7e0ae7ad" data-name="reddit"><path d="M221.34,57.82c0-.76,0-1.25,0-1.75q0-8.8,0-17.6c0-.42,0-.84,0-1.26a3.58,3.58,0,0,1,7.15.06c0,.42,0,.84,0,1.26q0,26.32,0,52.65c0,.33,0,.65,0,1a3.58,3.58,0,0,1-7.15,0c0-.49,0-1,0-1.53-.23.08-.35.08-.39.13-2.33,3.32-5.63,4.73-9.57,4.88-7.78.31-14.29-3.67-17.26-10.86-3.53-8.56-3.05-16.94,1.94-24.84a16.2,16.2,0,0,1,18.79-6.75A13.34,13.34,0,0,1,220,56.49C220.34,56.85,220.71,57.2,221.34,57.82Zm-22.28,16.1a22.89,22.89,0,0,0,1.2,7.6,13.2,13.2,0,0,0,3.51,5.63,10.68,10.68,0,0,0,13.72-.3A11.76,11.76,0,0,0,221,81.23,32.29,32.29,0,0,0,222,75.9a19.42,19.42,0,0,0-2.59-12.34,10.22,10.22,0,0,0-17.54-.1A21,21,0,0,0,199.06,73.92Z" fill="#292929"/><path d="M177.17,57.78c0-.75.08-1.24.08-1.72q0-8.8,0-17.6a11.31,11.31,0,0,1,.08-1.67,3.55,3.55,0,0,1,7,.25c0,.46,0,.93,0,1.4q0,26.33,0,52.67c0,.37,0,.75,0,1.12a3.56,3.56,0,0,1-7.11.16c-.05-.54-.06-1.09-.1-1.72-.22.12-.37.15-.44.24a11.33,11.33,0,0,1-9.08,4.72c-7.62.47-14.16-3.18-17.29-10.13-3.94-8.74-3.54-17.4,1.64-25.59a16.15,16.15,0,0,1,17.61-7,13.14,13.14,0,0,1,6.4,3.79C176.32,57,176.65,57.27,177.17,57.78ZM178,73a18.47,18.47,0,0,0-2.81-9.59,10.21,10.21,0,0,0-17.31-.12,18.69,18.69,0,0,0-2.73,7.84,21,21,0,0,0,2.2,13.13,9.42,9.42,0,0,0,6.26,4.95,11.24,11.24,0,0,0,5.93-.2c3.76-1.14,5.93-3.88,7.19-7.42A24.38,24.38,0,0,0,178,73Z" fill="#292929"/><path d="M113.22,76.83c-.44,3.76,1.63,9.57,7,11.6s10.6,1.11,15.36-2.15c.88-.6,1.7-1.31,2.62-1.85,2.09-1.23,3.94-.15,4,2.27a3.67,3.67,0,0,1-1.06,2.79,14.18,14.18,0,0,1-2,1.74A23,23,0,0,1,119.68,95c-5.94-1.5-9.78-5.51-12.08-11.08a21.49,21.49,0,0,1-1.83-8.41c.08-7.43,2-14.19,8-19.19A17.09,17.09,0,0,1,135.19,56,20.82,20.82,0,0,1,142.7,68.5a27.14,27.14,0,0,1,.52,4.29c.13,2.59-1,3.79-3.55,4-.46,0-.93,0-1.4,0H113.22Zm22.86-5.56c-.2-4.52-1.35-8.54-5.3-11a11.07,11.07,0,0,0-12.3.07c-4,2.45-5.17,6.43-5.42,10.94Z" fill="#292929"/><path d="M259.13,59c-1.09,0-1.93,0-2.76,0a6.13,6.13,0,0,1-1.77-.32,3.14,3.14,0,0,1-1.92-3,3,3,0,0,1,2.67-2.8,19.29,19.29,0,0,1,2.09-.07h1.68c0-.67,0-1.17,0-1.66,0-2.42,0-4.84,0-7.26,0-2.8,2-4.27,4.65-3.57a3.07,3.07,0,0,1,2.48,3.26c0,2.51,0,5,0,7.54,0,.5,0,1,0,1.6.61,0,1.06.07,1.52.08.7,0,1.4,0,2.09.06A3,3,0,0,1,272.62,56a3,3,0,0,1-2.79,3c-.55.05-1.12,0-1.68,0h-1.83c0,.64-.06,1.18-.06,1.72q0,15.09,0,30.17c0,.47,0,.93,0,1.4a3.4,3.4,0,0,1-2.85,3.31,3.29,3.29,0,0,1-4.23-3.07,13.93,13.93,0,0,1-.06-1.67q0-14.95,0-29.89Z" fill="#292929"/><path d="M91,59a19.49,19.49,0,0,1,1.61-2,47.4,47.4,0,0,1,3.72-3.34,6.56,6.56,0,0,1,3.51-1.25,4,4,0,0,1,4.41,3.34,3,3,0,0,1-1.82,3.3c-1.23.53-2.54.88-3.8,1.36a17.49,17.49,0,0,0-3.18,1.36,10.17,10.17,0,0,0-4.62,8A21.71,21.71,0,0,0,90.72,72q0,9.63,0,19.26a8.35,8.35,0,0,1-.16,1.8,3.11,3.11,0,0,1-3.19,2.57,3.37,3.37,0,0,1-3.52-2.58,8.94,8.94,0,0,1-.17-1.94q0-17.1,0-34.2a10.56,10.56,0,0,1,.07-1.39,3.47,3.47,0,0,1,6.85-.24,14.61,14.61,0,0,1,.13,2.22c0,.49,0,1,0,1.46Z" fill="#292929"/><path d="M245,74.08q0,8.59,0,17.18a11.39,11.39,0,0,1,0,1.4,3.55,3.55,0,0,1-3.54,3.13A3.45,3.45,0,0,1,238,92.74a12.46,12.46,0,0,1-.08-1.67q0-17,0-34.09a12.37,12.37,0,0,1,.08-1.67,3.38,3.38,0,0,1,3.42-3,3.49,3.49,0,0,1,3.54,3.1,11.33,11.33,0,0,1,0,1.4Q245,65.42,245,74.08Z" fill="#292929"/><path d="M241.45,48.13a7,7,0,1,1,7.05-7A7,7,0,0,1,241.45,48.13Zm-4.3-7a4.31,4.31,0,0,0,4.41,4.27,4.38,4.38,0,0,0,4.27-4.3,4.45,4.45,0,0,0-4.37-4.37A4.36,4.36,0,0,0,237.14,41.15Z" fill="#292929"/></g><g id="84054828-467e-482c-8c82-95f505db316f" data-name="alien"><path d="M4,34.38c-7.86-5,.19-17.89,8.2-10.71,14.61-8.39,29.44-7.43,44.56.29,7.68-5.55,15.92,2.89,7.67,10.27-1.23,12.07-7.86,17-15.83,20.11v2.17c9.23,3,11.25,19.6-.8,25l-2,6.6c8.46-1.43,10,2.49,8,8.11L14,96.16c-.36-6.64,3.24-8.93,9.93-7.81l-2.44-6.49C8.29,76,11.24,60.71,20.49,55.7l-.09-1.5C10.5,51,4.72,45.4,4,34.38Z" fill="#fff"/><ellipse cx="58.36" cy="5.76" rx="5.26" ry="5.28" fill="#fff"/><path d="M22.76,87.21c-.57-1.55-1.07-3-1.64-4.38a1.23,1.23,0,0,0-.69-.58c-4.7-1.63-7.25-5.14-8.31-9.79a14.83,14.83,0,0,1,3.23-13.64,20.11,20.11,0,0,1,3.22-2.59c.36-.27.86-.39.79-1.11-.8-.35-1.64-.7-2.46-1.08a27.78,27.78,0,0,1-8.14-5.46c-3.83-3.81-5.8-8.3-5-13.9A7.61,7.61,0,0,1,0,28.6a7.11,7.11,0,0,1,1.61-5c2.67-3.34,6.79-3.65,11-.74C19.09,18.73,26.32,17.11,34,16.9c.16-.42.33-.79.45-1.17q2.06-6.48,4.11-13c.06-.18.1-.36.16-.53.41-1.2.59-1.31,1.82-1l7.29,1.73L52.58,4A6.52,6.52,0,0,1,56.68.24a6,6,0,0,1,7.47,7,5.92,5.92,0,0,1-5.93,4.67c-3.27,0-5.25-2.11-6-6.41l-12-2.84L35.65,16.9c7.43.4,14.35,2,20.63,6.05a7.72,7.72,0,0,1,7.29-1.9,7.11,7.11,0,0,1,4.28,3.11c2.33,3.62,1.28,7.59-2.87,10.72a14,14,0,0,1-.16,5.45,17.56,17.56,0,0,1-6.07,9.39,29.57,29.57,0,0,1-7.69,4.66l-1.59.69c-.22.63.17.83.55,1,7.42,3.64,9.53,15,4.08,22.11a10.93,10.93,0,0,1-5.42,3.93,1.83,1.83,0,0,0-1.34,1.38C47,84.69,46.51,85.84,46,87.2h1.57a8.74,8.74,0,0,1,5.56,1.85,5.88,5.88,0,0,1,2.49,5.68c-.2,1.39-.39,1.52-1.8,1.52h-38c-.32,0-.65,0-1,0-1.08,0-1.28-.2-1.51-1.22a5.43,5.43,0,0,1,1.15-4.69,8.33,8.33,0,0,1,6.4-3.14C21.42,87.18,22,87.21,22.76,87.21ZM34.32,18.45A41.4,41.4,0,0,0,19.64,21a26.3,26.3,0,0,0-11,7.28A13.74,13.74,0,0,0,5.17,36,13.27,13.27,0,0,0,8.74,46.34c3.59,4.12,8.24,6.52,13.38,8a43.06,43.06,0,0,0,24.37,0A28.87,28.87,0,0,0,59,47.48c6.23-6.07,6.23-14.29,0-20.38a26.42,26.42,0,0,0-7.68-5.16A40.73,40.73,0,0,0,34.32,18.45ZM20.95,55.64c-.1.47-.15.69-.18.92a61.19,61.19,0,0,0,.36,20,38.35,38.35,0,0,0,4.08,11.89A17.49,17.49,0,0,0,29.76,94a3.19,3.19,0,0,0,2.17.72,22.3,22.3,0,0,1,3.74,0,5.31,5.31,0,0,0,4.85-2.1c.43-.48.87-1,1.26-1.48A27.35,27.35,0,0,0,46,82.79a58.65,58.65,0,0,0,2-26.34,3.38,3.38,0,0,0-.33-.78A46.47,46.47,0,0,1,20.95,55.64ZM49.7,57.8a63.65,63.65,0,0,1-1.38,22.73c3.39-.8,7-5.22,7.29-10.57S53.51,59.49,49.7,57.8ZM19,57.68a9.58,9.58,0,0,0-3.1,2.74,14.07,14.07,0,0,0-1.48,14.34,10.49,10.49,0,0,0,4.95,5.43,8.29,8.29,0,0,0,1.06.35A63.92,63.92,0,0,1,19,57.68ZM62.79,6a4.47,4.47,0,0,0-8.93-.1,4.47,4.47,0,0,0,8.93.1ZM41,94.5a85.26,85.26,0,0,0,13.09,0,4.1,4.1,0,0,0-1.35-3.73,7.5,7.5,0,0,0-7.19-1.81,2.18,2.18,0,0,0-1,.84c-1.15,1.44-2.26,2.9-3.38,4.36A1.68,1.68,0,0,0,41,94.5Zm-26.31.06a86.49,86.49,0,0,0,12.9-.07c-1.19-1.65-2.38-3.34-3.61-5a1.58,1.58,0,0,0-.87-.59,7.59,7.59,0,0,0-6.86,1.66A4.32,4.32,0,0,0,14.72,94.57ZM64.64,33.06a5.55,5.55,0,0,0,2.84-5.77,6,6,0,0,0-4.42-4.84A5,5,0,0,0,57.85,24C62.34,28.3,62.34,28.3,64.64,33.06ZM4.24,33c1.31-3.9,3.89-6.74,6.95-9.21A5.79,5.79,0,1,0,4.24,33Z" fill="#292929"/><path d="M24,30a3.39,3.39,0,0,1,3.44,3.54,3.35,3.35,0,0,1-3.55,3.42,3.46,3.46,0,0,1-3.5-3.53A3.51,3.51,0,0,1,24,30Z" fill="#f05736"/><path d="M45,36.92A3.48,3.48,0,1,1,48.6,33.6,3.36,3.36,0,0,1,45,36.92Z" fill="#f05736"/><path d="M33.94,50.29c-1.54-.24-3.6-.49-5.64-.89a9.28,9.28,0,0,1-4-1.93,3.24,3.24,0,0,1-.82-.92.87.87,0,0,1,.16-.73.75.75,0,0,1,.6-.2,1.25,1.25,0,0,1,.59.33,10.84,10.84,0,0,0,5.94,2.44,25.31,25.31,0,0,0,9-.29,9.89,9.89,0,0,0,4.22-2,1.59,1.59,0,0,1,.56-.39c.24-.05.63-.06.74.08a1,1,0,0,1,.17.84,3.51,3.51,0,0,1-.95,1,12.64,12.64,0,0,1-6,2.29C37.16,50.08,35.82,50.13,33.94,50.29Z" fill="#292929"/></g></g></symbol></defs><title>reddit</title><use width="272.63" height="96.28" transform="translate(37 21) scale(0.41 0.42)" xlink:href="#ebd149cf-bef3-45b8-86bf-e8e15bb4c0bb"/></svg>