<svg id="4896b41d-bc34-4600-a6f1-f136e2db669c" data-name="Layer 1" xmlns="http://www.w3.org/2000/svg" xmlns:xlink="http://www.w3.org/1999/xlink" viewBox="0 0 186.4 82"><defs><symbol id="2e77db05-721e-4fb5-a5b3-f6e827c06a3a" data-name="salseforce" viewBox="0 0 187.28 131.11"><g id="a767c6b4-7db2-401f-a71a-ab6929fdb428" data-name="salesforce"><rect x="22.37" y="42.56" width="150.39" height="39.1" fill="#fff"/><path d="M78,14.1c7.94-7.64,17.24-11.16,28.12-9.68s18.84,7.37,24.51,16.64c.22-.07.42-.11.61-.19A38.92,38.92,0,0,1,142.34,18a46.06,46.06,0,0,1,7.47-.12,39,39,0,0,1,10.73,2.26A35.9,35.9,0,0,1,169.86,25a51.07,51.07,0,0,1,5,4.12,39.59,39.59,0,0,1,7.06,9.08A41.11,41.11,0,0,1,185,44.9a36.36,36.36,0,0,1,2,8.32c.18,1.76.32,3.53.34,5.3a39.5,39.5,0,0,1-3,15.31A40.81,40.81,0,0,1,161.4,96.56a41.76,41.76,0,0,1-11.47,2.62,38.62,38.62,0,0,1-9.87-.47c-1-.17-1.12-.13-1.62.71a27.51,27.51,0,0,1-4.28,5.45,29.57,29.57,0,0,1-22.28,8.7,28.44,28.44,0,0,1-10.24-2.3c-.3-.13-.61-.25-.92-.37a3,3,0,0,0-.37-.08,8.15,8.15,0,0,0-.46.79,31.11,31.11,0,0,1-4.38,7,33.74,33.74,0,0,1-11.41,9.09,34,34,0,0,1-28.31.57,33.7,33.7,0,0,1-8.65-5.49,34.25,34.25,0,0,1-8.3-10.9c-.29-.59-.53-1.21-.79-1.82-.34-.81-.48-.85-1.38-.76a50.94,50.94,0,0,1-5.47.45,30.48,30.48,0,0,1-17.38-5.41A31.69,31.69,0,0,1,.11,80.85,31.55,31.55,0,0,1,6.26,59.12a30.07,30.07,0,0,1,7.88-7.46l.6-.4c.75-.51.78-.57.46-1.39A36.11,36.11,0,0,1,13,31a35.82,35.82,0,0,1,6.57-16c.84-1.17,1.82-2.23,2.78-3.31a33.37,33.37,0,0,1,5.81-5.1,37.09,37.09,0,0,1,7.78-4.15A33.82,33.82,0,0,1,46.11.11,37.42,37.42,0,0,1,56,.65,36.15,36.15,0,0,1,72.21,8.29a35.71,35.71,0,0,1,5.09,5.09C77.49,13.61,77.7,13.81,78,14.1ZM101.66,56c-.06.47-.08.82-.14,1.16q-1,5.86-2.1,11.72A15.16,15.16,0,0,1,98.34,73a2.7,2.7,0,0,1-3.08,1.81c-.49,0-1.06-.43-1.45,0a5.42,5.42,0,0,0-.61,1.39l0,.09c-.24.78-.17,1,.66,1.11a10.91,10.91,0,0,0,2.23.22,5.58,5.58,0,0,0,5.49-3.91,20.36,20.36,0,0,0,.91-3.2c.64-3.37,1.21-6.75,1.81-10.12.22-1.21.43-2.43.67-3.64.14-.69.22-.74.89-.77.45,0,.9,0,1.35,0,2.06,0,1.78-.1,2.05-1.78.15-.93,0-1-.9-1.07h-2.17c-.36,0-.62-.17-.51-.55a12.1,12.1,0,0,1,.85-2.55,2.77,2.77,0,0,1,2.94-1.33c1.44.16,1.43.2,1.88-1.14.07-.2.15-.4.2-.6.14-.54.06-.71-.5-.84a8.73,8.73,0,0,0-3.76-.05,5.28,5.28,0,0,0-4.06,3.35,20,20,0,0,0-.82,2.76c-.24.92-.23,1-1.2,1-2,0-1.78-.07-2.11,2-.11.7.05.86.76.89S101,56,101.66,56Zm-57.72.78a4,4,0,0,0,.59-.16,12,12,0,0,1,3.83-1A5.65,5.65,0,0,1,51,56,2.3,2.3,0,0,1,52.67,58c.14,1.34-.07,1.55-1.42,1.37l-.18,0a11.8,11.8,0,0,0-4.82.35,5.66,5.66,0,0,0-3,2,5.51,5.51,0,0,0-.81,4.81,4.23,4.23,0,0,0,3,3.18,10.38,10.38,0,0,0,4.09.53c1.94-.17,3.87-.52,5.79-.84.72-.12.8-.24.79-1,0-3.52,0-7-.17-10.55A4.69,4.69,0,0,0,52,53.13a13.19,13.19,0,0,0-8,.72,1.27,1.27,0,0,0-.54.32.86.86,0,0,0-.23.62C43.43,55.45,43.68,56.09,43.94,56.81Zm118.35,5.52h0c1.56,0,3.13,0,4.69,0,.78,0,.94-.18,1-1a10.2,10.2,0,0,0-.5-4.09,6.16,6.16,0,0,0-5-4.3,8.63,8.63,0,0,0-2.77,0,6.82,6.82,0,0,0-5.44,3.68,11,11,0,0,0-.91,7.36A7.09,7.09,0,0,0,159.52,70a15,15,0,0,0,5.19-.09,16.16,16.16,0,0,0,2-.56.64.64,0,0,0,.46-.92c-.15-.46-.32-.91-.48-1.36a.55.55,0,0,0-.71-.39,4.35,4.35,0,0,0-.52.15,10.61,10.61,0,0,1-4.27.49c-2.53-.17-3.93-1.4-4.34-3.78-.18-1,0-1.25,1-1.25Zm-86.82,0h4.42c1,0,1.16-.09,1.23-1.11A10,10,0,0,0,80.51,57a5.89,5.89,0,0,0-4.22-3.85,9.28,9.28,0,0,0-3.21-.22,7.16,7.16,0,0,0-6.43,5.68,14.78,14.78,0,0,0-.24,4.66,7.25,7.25,0,0,0,6.88,6.87,14.34,14.34,0,0,0,3.59,0,20.31,20.31,0,0,0,2.72-.6c.87-.27.93-.49.63-1.32L80,67.48c-.31-.83-.42-.91-1.26-.62a11.29,11.29,0,0,1-4.45.52,4.25,4.25,0,0,1-4.3-4c-.1-.89,0-1,.89-1C72.4,62.32,73.93,62.33,75.47,62.33Zm34.41-.59a9.77,9.77,0,0,0,.73,4.07,6.58,6.58,0,0,0,3.66,3.77,8.76,8.76,0,0,0,6.43.09,6.14,6.14,0,0,0,3.71-3.48,11.74,11.74,0,0,0,.21-8.79,6.49,6.49,0,0,0-3.5-3.81,8.49,8.49,0,0,0-5.54-.53,6.65,6.65,0,0,0-4.32,3A9.92,9.92,0,0,0,109.87,61.74Zm-71.08-5c.23-.58.46-1.13.66-1.68s.16-.83-.43-1.08a18.61,18.61,0,0,0-2.63-.92,9.11,9.11,0,0,0-5,0,4.64,4.64,0,0,0-3.5,3.53,4.08,4.08,0,0,0,1.32,4.48,9.82,9.82,0,0,0,2.28,1.24c1.06.43,2.17.72,3.25,1.1A5.65,5.65,0,0,1,36,64a1.7,1.7,0,0,1,.29,2.72,2.7,2.7,0,0,1-1.94.82,8.69,8.69,0,0,1-4.92-1.21c-.18-.11-.35-.23-.53-.34-.54-.3-.75-.26-1,.29s-.34,1-.51,1.45a.61.61,0,0,0,.26.78,7.15,7.15,0,0,0,.92.56,11.94,11.94,0,0,0,7.3,1,4.89,4.89,0,0,0,4.2-5.24,3.84,3.84,0,0,0-1.94-3.34,13.34,13.34,0,0,0-2-1c-1.09-.42-2.22-.76-3.31-1.18a4.15,4.15,0,0,1-1.16-.68,1.5,1.5,0,0,1-.09-2.36,3,3,0,0,1,1-.58,4.52,4.52,0,0,1,2.84,0C36.48,56,37.56,56.39,38.8,56.77ZM95,56.83c.26-.66.5-1.2.69-1.77s.11-.75-.41-1a9.08,9.08,0,0,0-1.4-.61,9.68,9.68,0,0,0-6.79-.1,4.85,4.85,0,0,0-3.13,4.44,4.33,4.33,0,0,0,3,4.29c.75.31,1.53.53,2.29.81.93.34,1.87.65,2.77,1.05a1.59,1.59,0,0,1,1,1.65,1.85,1.85,0,0,1-1.18,1.67,5,5,0,0,1-2.83.26A9.59,9.59,0,0,1,85,66c-.54-.35-.72-.27-1,.31s-.33,1-.5,1.45a.62.62,0,0,0,.33.83c.42.23.84.47,1.28.66a10.7,10.7,0,0,0,8,.45,4.29,4.29,0,0,0,2.91-3.29,8.41,8.41,0,0,0,.1-1.88,3.4,3.4,0,0,0-1.66-2.93,11.64,11.64,0,0,0-1.92-1c-1-.41-2.1-.72-3.14-1.11a6.62,6.62,0,0,1-1.52-.77A1.57,1.57,0,0,1,88.08,56a3.25,3.25,0,0,1,2.07-.47,13.94,13.94,0,0,1,4,1C94.37,56.63,94.59,56.7,95,56.83Zm44,4.45a11.42,11.42,0,0,0,.6,3.94,6.66,6.66,0,0,0,3.54,4.13,11.61,11.61,0,0,0,8.28.22.57.57,0,0,0,.43-.83c-.13-.37-.24-.74-.38-1.11-.29-.78-.38-.77-1.2-.63a15.64,15.64,0,0,1-3,.35,4.5,4.5,0,0,1-4.46-3.52,9,9,0,0,1-.14-3.84c.44-2.54,1.83-4,4.19-4.29a6.84,6.84,0,0,1,1.62,0,19,19,0,0,1,2,.34.62.62,0,0,0,.83-.47c.12-.37.26-.74.38-1.11.25-.8.2-1-.6-1.17a11.51,11.51,0,0,0-6.58-.1,7.14,7.14,0,0,0-3.6,2.43A9.86,9.86,0,0,0,138.95,61.28ZM59.72,58q0,5.1,0,10.2c0,.24,0,.48,0,.72,0,.82.15.95.94,1,.33,0,.66,0,1,0,1.45,0,1.46,0,1.46-1.46q0-10.38,0-20.75c0-.24,0-.48,0-.72a.62.62,0,0,0-.67-.68c-.69,0-1.38,0-2.07,0a.56.56,0,0,0-.62.62c0,.27,0,.54,0,.81Q59.72,52.85,59.72,58Zm72.07-3.37-.1-.74c-.09-.61-.17-.7-.8-.73-.42,0-.84,0-1.26,0-1.26,0-1.3,0-1.3,1.34q0,7,0,14.06c0,.24,0,.48,0,.72a.56.56,0,0,0,.55.6c.78,0,1.56,0,2.34,0,.16,0,.38-.27.45-.46a2.57,2.57,0,0,0,0-.8c0-2.31,0-4.63,0-6.94a12.05,12.05,0,0,1,.36-2.76,3.38,3.38,0,0,1,3.05-2.77,7.45,7.45,0,0,1,1.52,0,.76.76,0,0,0,.91-.53c.18-.51.37-1,.52-1.54s0-.66-.46-.78a5.87,5.87,0,0,0-4.77.6C132.55,54.08,132.24,54.31,131.79,54.63Z" fill="#0c99d5"/><path d="M52.69,64.72c0,.6,0,1.2,0,1.8a.68.68,0,0,1-.61.76,11.45,11.45,0,0,1-4.21.15,4,4,0,0,1-.69-.2,2.21,2.21,0,0,1-1.56-1.91,2.68,2.68,0,0,1,1.09-2.77,5.24,5.24,0,0,1,2.77-.66,18.41,18.41,0,0,1,2.16.09c.89.07,1,.25,1.05,1.11,0,.54,0,1.08,0,1.62Z" fill="#0c99d5"/><path d="M156.94,59.74c0-3.28,3.17-5.18,5.83-3.65a3.75,3.75,0,0,1,1.78,3.07c0,.4-.16.62-.57.64h-6.13C157.56,59.82,157.27,59.77,156.94,59.74Z" fill="#0c99d5"/><path d="M73.85,59.82c-1,0-1.92,0-2.89,0s-1-.15-.8-1.09a3.87,3.87,0,0,1,5.43-2.8,3.69,3.69,0,0,1,2.13,3.22c.06.48-.13.65-.72.67-1.05,0-2.1,0-3.16,0Z" fill="#0c99d5"/><path d="M121.79,61.58a8.21,8.21,0,0,1-.53,3.34,3.52,3.52,0,0,1-3.57,2.5,3.47,3.47,0,0,1-3.87-2.81,9.43,9.43,0,0,1,.35-6.94,3.41,3.41,0,0,1,3.26-2A3.58,3.58,0,0,1,121,57.55,7.75,7.75,0,0,1,121.79,61.58Z" fill="#0c99d5"/></g></symbol></defs><title>salesforce</title><use width="187.28" height="131.11" transform="translate(55 14) scale(0.41 0.41)" xlink:href="#2e77db05-721e-4fb5-a5b3-f6e827c06a3a"/></svg>