<svg id="034d5f5a-d0e1-4d0d-8e51-8778c7eb8ea1" data-name="Layer 1" xmlns="http://www.w3.org/2000/svg" xmlns:xlink="http://www.w3.org/1999/xlink" viewBox="0 0 186.4 82"><defs><symbol id="95caef54-c99b-481f-8820-3d7e651bfa42" data-name="snapchat" viewBox="0 0 250.49 59.37"><path d="M.73,44c0-4-.38-8.53-.73-12a1.45,1.45,0,0,1,1.22-1.58h.06a1.46,1.46,0,0,1,1.63,1.07,16.88,16.88,0,0,0,2.09,5A12,12,0,0,0,15.3,42.54c4.65,0,8.06-3.29,8.06-7.44,0-3.84-3.1-5.39-9.17-7.68-1.8-.74-3.66-1.42-5.45-2.23C6.25,24,.42,21.28.42,13.72.42,5.29,7.18.33,15.79.33a19.4,19.4,0,0,1,8,1.66,1.45,1.45,0,0,0,1.83-.54l.49-.78a1.46,1.46,0,0,1,2.68.68Q29.26,6.65,30,11.9a1.46,1.46,0,1,1-2.8.72,18.58,18.58,0,0,0-2.07-4.29c-2-2.79-4.77-4.71-8.18-4.71a6.86,6.86,0,0,0-7,6.5c0,3.35,3,4.77,4.28,5.39,2.67,1.3,5.45,2.17,8.24,3.29,4.46,1.74,10.6,4.4,10.6,12.58S26.64,46.19,16.41,46.19A18.66,18.66,0,0,1,6.1,43.37a1.45,1.45,0,0,0-2,.46v0l-.55.91a1.46,1.46,0,0,1-1.13.69H2.3A1.45,1.45,0,0,1,.74,44.13s0-.07,0-.1m33.71-.36a1.26,1.26,0,0,1,1-1.24c.94-.15,2.07-.56,2.24-1.75.19-1.43.19-5.15.19-6.08,0-2.17-.06-5.7-.06-7.87,0-3.11-1-4-2.51-4.38a1.25,1.25,0,0,1-.9-1.21V21a1.26,1.26,0,0,1,1.05-1.24,81.14,81.14,0,0,0,10.2-2.71,1.26,1.26,0,0,1,1.6.78v0c.05.16.1.32.14.48a1.26,1.26,0,0,0,1.86.73,14.46,14.46,0,0,1,7.82-2.37,11.45,11.45,0,0,1,6.63,2c3,2.1,3.52,5.3,3.78,8.69v5.44c0,.93-.12,5.76-.12,6.82,0,1.57.43,2.52,2.47,2.9a1.26,1.26,0,0,1-.26,2.5h-.08c-1.76-.12-4.41-.19-8.76-.19-2.46,0-3.81.07-5.07.18a1.26,1.26,0,0,1-1.37-1.14s0-.07,0-.11v-.26a1.25,1.25,0,0,1,.93-1.21c1.81-.49,2-1.36,2-5.13l-.12-9.67c-.06-3-.19-6.38-4.22-6.38a6.74,6.74,0,0,0-4.23,1.56,1.27,1.27,0,0,0-.52,1.05c.1,3.11.1,11.92.1,14.68s.49,3.63,2,4a1.24,1.24,0,0,1,.91,1.21v.16A1.26,1.26,0,0,1,49.92,45h-.08c-2.11-.13-4.81-.22-9.88-.22a40.82,40.82,0,0,0-4.14.16,1.26,1.26,0,0,1-1.37-1.13s0-.08,0-.12Zm54-10.32a1.26,1.26,0,0,0-1.58-1.21c-2.09.53-4.87,1.75-4.87,5,0,1.67.87,3.53,3.22,3.53a4.39,4.39,0,0,0,2.67-.86,1.25,1.25,0,0,0,.55-1Zm14.32,7.17a1.26,1.26,0,0,1,.19,1.77l-.08.09c-3,3-5.93,3.63-7.56,3.63a8,8,0,0,1-4.65-1.55,6.72,6.72,0,0,1-1.15-1.18A1.24,1.24,0,0,0,87.84,43a17.68,17.68,0,0,1-9.14,3.08c-5.7,0-7.07-3.84-7.07-6.13,0-7.08,10.9-10,15.83-10.93a1.25,1.25,0,0,0,1-1.23,24.73,24.73,0,0,0-.25-4.95c-.74-2.17-3.22-2.17-3.53-2.17a3.44,3.44,0,0,0-3.53,2.6c-.19.81-.19,1.67-.37,2.48A3.71,3.71,0,0,1,77,28.66a3.5,3.5,0,0,1-3.72-3.53c0-4.59,8.49-8.31,16.18-8.31,5.33,0,9.23,1.74,9.23,6.88l-.12,13.82c-.06,1.05-.13,3.47,1.49,3.47a1.91,1.91,0,0,0,1.13-.48A1.25,1.25,0,0,1,102.75,40.52Z" fill="#221f20"/><path d="M120.19,41.79c4.59,0,6.26-6.38,6.26-10.6,0-4.46-1.86-10.41-6.44-10.41-4.15,0-4.15,4.28-4.15,5.58s.06,8.37.06,9.92C115.92,38.26,115.92,41.79,120.19,41.79ZM105.63,27.11c.11-4.73-.56-5.85-2.68-6.43a1.2,1.2,0,0,1-.86-1.16V19.2a1.18,1.18,0,0,1,1-1.18,73.83,73.83,0,0,0,10.79-2.18,1.18,1.18,0,0,1,1.45.82l0,.08c.06.29.13.64.21,1.08a1.19,1.19,0,0,0,1.79.81,13.82,13.82,0,0,1,7.87-2.37c7.5,0,12.15,6.45,12.15,13.26,0,9.36-6.63,15.87-14.38,15.87a11,11,0,0,1-5.3-1.25,1.19,1.19,0,0,0-1.76,1v7.15c0,2.4.15,4.25,2.71,4.68a1.17,1.17,0,0,1,.94,1.17,1.19,1.19,0,0,1-1.19,1.19h0q-4.6-.13-9.19-.15c-2.33,0-3.84,0-5.82.13a1.19,1.19,0,0,1-1.24-1.13V58a1.19,1.19,0,0,1,1-1.19c2.31-.39,2.5-1.66,2.5-3.43.06-1.18.06-4.83.06-6.2ZM169.85,45c-2.52-.19-4.16-.19-10.75-.19-3.61,0-5,0-7.16.19a1.41,1.41,0,0,1-.31-2.81c3.47-.49,3.62-1.74,3.62-9.6V12.91c-.06-4.71-.12-6.14-.56-7-.47-1.1-1.2-1.36-3.1-1.67a1.41,1.41,0,0,1-1.18-1.39,1.42,1.42,0,0,1,1.45-1.48q5.22.14,10.45.14c3.49,0,5.73-.08,7.66-.14a1.41,1.41,0,1,1,.23,2.81c-3.67.46-3.67,1.57-3.67,9.79l.06,19.21c.12,6.51.19,6.88.93,7.87a3.93,3.93,0,0,0,2.63,1.13A1.43,1.43,0,0,1,170,45Zm2-1.35a1.26,1.26,0,0,1,1-1.24c.94-.15,2.07-.56,2.24-1.75.19-1.43.19-5.15.19-6.08,0-2.17-.06-5.7-.06-7.87,0-3.11-1-4-2.51-4.38a1.25,1.25,0,0,1-.9-1.21V21a1.26,1.26,0,0,1,1.05-1.24,81.27,81.27,0,0,0,10.2-2.71,1.26,1.26,0,0,1,1.6.78v0c.05.16.1.32.14.48a1.26,1.26,0,0,0,1.86.73,14.46,14.46,0,0,1,7.83-2.37,11.45,11.45,0,0,1,6.63,2c3,2.1,3.53,5.3,3.78,8.69a.61.61,0,0,1,0,.1v5.34c0,.93-.12,5.76-.12,6.82,0,1.57.42,2.52,2.47,2.9A1.26,1.26,0,0,1,207,45h-.09c-1.75-.12-4.41-.19-8.76-.19-2.46,0-3.81.07-5.07.18a1.26,1.26,0,0,1-1.37-1.14s0-.07,0-.11v-.26a1.25,1.25,0,0,1,.93-1.21c1.81-.49,2-1.36,2-5.13l-.12-9.67c-.06-3-.19-6.38-4.22-6.38a6.75,6.75,0,0,0-4.23,1.56,1.27,1.27,0,0,0-.52,1.05c.1,3.11.1,11.92.1,14.68s.49,3.63,2,4a1.24,1.24,0,0,1,.91,1.21v.16A1.26,1.26,0,0,1,187.3,45h-.08c-2.11-.13-4.81-.22-9.88-.22a40.82,40.82,0,0,0-4.14.16,1.26,1.26,0,0,1-1.37-1.13s0-.08,0-.12Zm64.47-5.39a1.57,1.57,0,0,1,.2,2.38A18.44,18.44,0,0,1,223.65,46c-8.86,0-15.37-6.14-15.37-14.57,0-8.86,7.56-14.56,16.8-14.56,6.07,0,11.84,2.66,11.84,7.13a4,4,0,0,1-3.9,3.9,4.13,4.13,0,0,1-2.73-1.12c-.56-.5-.68-.81-1.86-3.47-.56-1.18-1.8-3.29-3.72-3.29-3.6,0-4.59,6.14-4.59,9.17,0,7,4,11.71,8.31,11.71a8.88,8.88,0,0,0,5.91-2.55,1.57,1.57,0,0,1,2-.1m8.56-3.42a5.61,5.61,0,0,1,.06,11.22,5.61,5.61,0,0,1-.06-11.22" fill="#221f20"/></symbol></defs><title>snap inc</title><use width="250.49" height="59.37" transform="translate(42 29) scale(0.41 0.4)" xlink:href="#95caef54-c99b-481f-8820-3d7e651bfa42"/></svg>