<svg id="a47c6719-f6da-4e29-a0b7-2d20fdd0d9ff" data-name="Layer 1" xmlns="http://www.w3.org/2000/svg" xmlns:xlink="http://www.w3.org/1999/xlink" viewBox="0 0 186.4 82"><defs><symbol id="895db7a5-8236-45a8-9afd-cff987d693db" data-name="turo" viewBox="0 0 259.5 94.62"><polygon points="30.66 34.35 44.57 34.35 44.57 67.65 51.58 67.65 51.58 34.35 65.48 34.35 65.48 27.18 30.66 27.18 30.66 34.35" fill="#221f1f"/><path d="M104.32,52.12c0,3.48-.85,5.85-2.58,7.25s-4.07,1.9-7.77,1.9c-4.54,0-7.62-.87-9.41-2.66s-2-3.85-2-6.49V27.18H75.46V52.12c0,3.36.17,6.39,2.32,9.56,1.38,2,5.62,6.75,15.3,6.75,4.05,0,11.44-.77,15.37-5.93,2.71-3.51,2.92-6.51,2.92-10.38V27.18h-7.06Z" fill="#221f1f"/><path d="M159.67,40.15c0-7.43-5.11-13-13-13H122.81V67.65H130V53h13.36l8.18,14.68h8.11L151,52.49c5.5-1.66,8.63-6.58,8.63-12.33m-13,5.65H130V34.3h16.67c3.92,0,5.9,2.35,5.9,5.54,0,2.38-1,6-5.9,6" fill="#221f1f"/><path d="M189.2,26c-12,0-21.75,9.33-21.75,20.81a21.49,21.49,0,0,0,21.7,21.75c12,0,21.75-9.47,21.75-21.12a21.16,21.16,0,0,0-6.37-15.25A21.75,21.75,0,0,0,189.2,26m10.28,31.24a14.74,14.74,0,0,1-10.28,4.09,15.38,15.38,0,0,1-10.27-3.94,13.3,13.3,0,0,1-4.41-9.91,14.05,14.05,0,0,1,4.21-10.27,14.89,14.89,0,0,1,10.43-4,15.1,15.1,0,0,1,10.3,3.91,13.44,13.44,0,0,1,4.33,10,13.92,13.92,0,0,1-4.3,10.12" fill="#221f1f"/><path d="M229,7.77h0L227.4,5.72l0-.06A14.26,14.26,0,0,0,226,4.09,14.74,14.74,0,0,0,215.67,0H0V94.62H215.67A14.74,14.74,0,0,0,226,90.52a14.27,14.27,0,0,0,1.4-1.57l0-.06,32.1-41.59Zm-7.08,76.81h0l0,0a8.56,8.56,0,0,1-.76.87,7.78,7.78,0,0,1-5.44,2.14H7V7H215.67a7.78,7.78,0,0,1,5.44,2.14,8.56,8.56,0,0,1,.76.87l0,0h0l8.86,11.48,19.91,25.79Z" fill="#221f1f"/></symbol></defs><title>turo</title><use width="259.5" height="94.62" transform="translate(40 22) scale(0.41 0.41)" xlink:href="#895db7a5-8236-45a8-9afd-cff987d693db"/></svg>