<svg id="8eab4de6-0f3d-45b7-b1f0-6d62af6f00f3" data-name="Layer 1" xmlns="http://www.w3.org/2000/svg" xmlns:xlink="http://www.w3.org/1999/xlink" width="186.4" height="82" viewBox="0 0 186.4 82"><defs><symbol id="ec6a672b-770a-4587-ae81-fa8c5a19119a" data-name="New Symbol 2" viewBox="0 0 100.76 34.83"><rect width="100.76" height="34.83" fill="#db1f28"/><g id="d6f3533e-1653-47f9-bba5-19e782a85866" data-name="WIDE"><path d="M20,24.47a2.41,2.41,0,0,1,.88.68l.08.31c-.05.31-.33.4-.59.43a2.22,2.22,0,0,1-1.62-.33v-.44a9.29,9.29,0,0,1,0-1.18,9,9,0,0,0,0-1.21,6.84,6.84,0,0,0-.12-1.16c-.06-.34-.09-.69-.14-1s-.07-.44-.11-.66c-.27-.08-.49.06-.72.06s-.21,0-.32,0H15.67c-.08.31-.17.59-.24.88s-.19.88-.29,1.32a12.47,12.47,0,0,0-.26,1.66c-.05.63,0,1.26-.05,1.89a.76.76,0,0,1,0,.19,1.13,1.13,0,0,0,0,.8,2,2,0,0,1,.12.86.88.88,0,0,1-.8.46,1.82,1.82,0,0,1-.84-.07.86.86,0,0,1-.43-.27c-.13-.56.2-.86.53-1.15a2.74,2.74,0,0,0,.11-.89,17.93,17.93,0,0,0,.05-2,8.89,8.89,0,0,0-.13-1.13c0-.24-.17-.47-.22-.71s-.12-.66-.17-1-.09-.66-.12-1,0-.39,0-.59l-1.68-1c-.12.23-.22.47-.35.68s-.31.42-.49.66l.23,1.15c.31.15.67.21.89.57v.36a1.57,1.57,0,0,1-1.46,0l-.82-2.45c.06-.31.15-.61.18-.92s0-.63,0-1a1.63,1.63,0,0,0-.88.19,3.36,3.36,0,0,0-1.36,1.18,7.16,7.16,0,0,0-.9,2c-.13.41-.23.83-.33,1.25a1.65,1.65,0,0,0,0,.36v.51a.66.66,0,0,1-.49.25,1.57,1.57,0,0,1-1.06-.16l-.08-.08a.81.81,0,0,1,.36-.64c.07,0,.13-.13.2-.16a.39.39,0,0,0,.22-.3c.15-.59.31-1.19.45-1.78a3.32,3.32,0,0,0,.08-.64,12.14,12.14,0,0,1,.13-1.23,12.48,12.48,0,0,1,.53-2.29,6.63,6.63,0,0,1,.87-1.76c0-.07.09-.15.13-.22a4.56,4.56,0,0,1-.76-1.3,2.8,2.8,0,0,1-.17-.65,3.16,3.16,0,0,1,0-.93,2.83,2.83,0,0,1,.5-1.27,1.62,1.62,0,0,1,.66-.58l.11.08c-.06.11-.11.22-.17.32A2.53,2.53,0,0,0,7,11.1a2.13,2.13,0,0,0,.59,1.3,7.76,7.76,0,0,0,.58.52l.24-.07a8.62,8.62,0,0,1,2-.61l1.3-.25c.25,0,.5,0,.74-.08l.86-.12h.16l1.21-.08.14-.41a7,7,0,0,1-.22-1.47,1.5,1.5,0,0,0-.89-.6l-.21.19a.14.14,0,0,1-.15-.14,1.1,1.1,0,0,1,0-.29c.08-.35.16-.69.26-1a1.1,1.1,0,0,1,1.15-.82,1.16,1.16,0,0,1,.7.2,3.38,3.38,0,0,1,1.39-.44c.23,0,.46-.08.69-.14a4.85,4.85,0,0,1,1.35-.14h.58l.19-.16a.82.82,0,0,1,1.13,0c.33.27.63.57.94.87a1.07,1.07,0,0,1,.19.26.69.69,0,0,1,0,.21c-.26.17-.44-.13-.66-.08a.85.85,0,0,0-.38.58l-.23.67a9.25,9.25,0,0,1,0,1.06,4.45,4.45,0,0,1-.08,1.07c0,.21-.1.42-.15.63a1.3,1.3,0,0,0,.11.88,8.18,8.18,0,0,1,.52,1.93,9.42,9.42,0,0,1,.12,1.91,5.13,5.13,0,0,1-.45,2.1,1,1,0,0,0-.07.35c0,.43,0,.87-.08,1.3a8.1,8.1,0,0,1-.27,1.29,6.77,6.77,0,0,0-.23,1A8,8,0,0,0,20,24.47Z" fill="#fff"/><path d="M75.6,11.36l.15-.77h3.18c0,.17,0,.33,0,.49V22.47a8.58,8.58,0,0,1-.48,2.85,4.59,4.59,0,0,1-3.66,3.13,13.3,13.3,0,0,1-4.09,0c-.76-.08-1.51-.25-2.32-.39l.61-3c.49.13.94.27,1.39.36a8.57,8.57,0,0,0,2.74.17,2.53,2.53,0,0,0,2.33-2.46c0-.32,0-.63,0-1a2.82,2.82,0,0,0-.3.22,4.87,4.87,0,0,1-7.55-1.28,8.37,8.37,0,0,1-.9-4.27A8.65,8.65,0,0,1,67.58,13a4.85,4.85,0,0,1,4.23-2.69,5.29,5.29,0,0,1,3.59,1Zm-.16,2.75a4,4,0,0,0-2.7-.89,2.17,2.17,0,0,0-2.1,1.7,8.12,8.12,0,0,0-.26,1.63,6,6,0,0,0,.35,2.81,1.86,1.86,0,0,0,1.83,1.24,3.8,3.8,0,0,0,2.88-1.31Z" fill="#fff"/><path d="M89.23,23.9,89,22.66c-.24.2-.43.38-.63.54a4.74,4.74,0,0,1-6.6-.76,7.45,7.45,0,0,1-1.51-4.18,10.53,10.53,0,0,1,.49-4.3,5,5,0,0,1,3.6-3.51,5.4,5.4,0,0,1,4.42.71l.36.21.12-.81c1.05,0,2.09,0,3.18,0V23.9ZM89,14.15a3.83,3.83,0,0,0-1.76-.86,2.39,2.39,0,0,0-3.11,2A8.25,8.25,0,0,0,84,18.77a3.53,3.53,0,0,0,.71,1.7,1.6,1.6,0,0,0,1.09.65A3.81,3.81,0,0,0,89,19.84Z" fill="#fff"/><path d="M57,15.3v8.6H53.62V10.6h3.21L57,12.26l.11,0a10.11,10.11,0,0,1,.79-.83,5,5,0,0,1,4.7-1,3.78,3.78,0,0,1,2.75,3.41c0,.38,0,.77,0,1.15V23.9H62v-.57c0-2.53,0-5.05,0-7.58a4.61,4.61,0,0,0-.21-1.32,1.34,1.34,0,0,0-1.32-1,3.8,3.8,0,0,0-3,1.38A3.44,3.44,0,0,0,57,15.3Z" fill="#fff"/><path d="M46,19.1l3.18-8.51h3.47L45.55,28.43H41.77l2.3-5.15L39.2,10.59h3.74l3,8.51Z" fill="#fff"/><path d="M38.51,10.58,32.11,21h7.32l-.58,2.91H26.1l6.75-10.4H26.53l.6-2.92Z" fill="#fff"/><path d="M95.7,23.5,95.42,23h-.3v.47H95V22.24h.38c.29,0,.47.15.47.4a.36.36,0,0,1-.26.36l.3.5Zm-.33-.61c.2,0,.3-.11.3-.26s-.11-.26-.3-.26h-.25v.52Z" fill="#fff"/><path d="M95.37,21.79a1.08,1.08,0,1,0,1.08,1.08h0A1.08,1.08,0,0,0,95.37,21.79Zm0,2a.93.93,0,1,1,.93-.93h0A.93.93,0,0,1,95.37,23.8Z" fill="#fff"/></g></symbol></defs><title>zynga</title><use width="100.76" height="34.83" transform="translate(43 24) scale(1 0.98)" xlink:href="#ec6a672b-770a-4587-ae81-fa8c5a19119a"/></svg>