<svg xmlns="http://www.w3.org/2000/svg" viewBox="0 0 300 300"><g fill="#221F20"><path d="M41.2 163.9c.1.8.7 1.3 1.4 1.2h.1c.3 0 .8-.3 1-.6l.5-.8c.3-.5 1.1-.7 1.7-.3 2.7 1.7 5.8 2.5 9 2.4 9 0 14.6-5.8 14.6-12.9s-5.3-9.4-9.2-11c-2.4-1-4.8-1.7-7.1-2.9-1.1-.5-3.7-1.8-3.7-4.7.2-3.2 2.9-5.8 6.1-5.7 3 0 5.4 1.7 7.1 4.1.8 1.1 1.4 2.4 1.8 3.7 0 .1.1.3.1.3s0 .2.1.3c.3.7 1.1.9 1.7.5.7-.3.9-1.1.5-1.7-.3-3-.7-6.1-1-9.2-.1-.3-.3-.8-.6-1-.6-.3-1.4-.2-1.7.4l-.4.7c-.3.5-1 .7-1.6.4-2.3-1-4.6-1.5-7.1-1.5-7.5 0-13.4 4.4-13.4 11.7 0 6.6 5.1 9 7.2 10 1.6.7 3.1 1.2 4.7 1.9 5.3 2 8 3.4 8 6.7 0 3.6-3 6.5-7.1 6.5-3.7-.1-7.1-2.1-9-5.3-.9-1.3-1.5-2.8-1.8-4.4-.2-.7-.8-1-1.4-1h-.1c-.6.1-1.1.7-1 1.4.3 3.4.6 7.3.6 10.8m29.3-.1c.1.6.6 1 1.2 1 .9-.1 1.8-.2 3.6-.2 4.4 0 6.8.1 8.6.2h.1c.6 0 1.1-.5 1.1-1.1v-.1c0-.5-.3-.9-.8-1-1.3-.3-1.7-1-1.7-3.5s0-10.1-.2-12.7c0-.4.2-.8.4-1 1-.9 2.4-1.4 3.7-1.4 3.5 0 3.6 3 3.7 5.6l.1 8.5c0 3.2-.2 4-1.7 4.4-.4.1-.8.5-.8 1v.3c.1.6.6 1.1 1.2 1 1.1-.1 2.3-.2 4.4-.2 3.8 0 6.1.1 7.7.2h.1c.6 0 1-.4 1-1 0-.5-.3-1-.9-1-1.8-.3-2.2-1.1-2.2-2.5 0-.9.1-5.1.1-5.9v-4.8c-.3-3-.7-5.8-3.3-7.6-1.7-1.1-3.7-1.7-5.8-1.7-2.4.1-4.8.8-6.8 2.1-.1 0-.2.1-.3.1-.5.1-1.1-.2-1.3-.8-.1-.2-.1-.3-.2-.4-.2-.6-.8-.9-1.4-.7-2.9 1-5.8 1.7-8.9 2.4-.5.1-.9.5-.9 1v.1c0 .5.3 1 .8 1 1.3.3 2.2 1.1 2.2 3.8 0 1.9.1 5 .1 6.9 0 .8 0 4.1-.2 5.3-.1 1-1.1 1.4-1.9 1.6-.5.1-.9.5-.9 1 .2-.1.1.1.1.1zm47.3-4.5c-.1.3-.3.7-.5.9-.7.5-1.5.8-2.4.8-2 0-2.8-1.6-2.8-3.1 0-2.9 2.4-3.9 4.3-4.4h.3c.5 0 1 .5 1 1.1l.1 4.7zm11 1.6c-.3.3-.6.4-1 .4-1.4 0-1.4-2.2-1.3-3.1l.1-12c0-4.5-3.4-6-8-6-6.7 0-14.1 3.2-14.1 7.2v.3c.1 1.7 1.6 3 3.2 2.9 1.6 0 3-1 3.3-2.6.2-.7.2-1.5.3-2.2.3-1.4 1.7-2.4 3.1-2.3.3 0 2.4 0 3.1 1.9.2 1.5.3 2.9.2 4.4 0 .5-.3 1-.9 1-4.3.8-13.8 3.3-13.8 9.5 0 2 1.2 5.3 6.2 5.3 2.8-.2 5.6-1 7.9-2.7.4-.3 1.1-.2 1.5.3.3.4.7.8 1 1 1.1.8 2.5 1.3 4 1.3s4-.5 6.6-3.1l.1-.1c.3-.5.3-1.2-.2-1.6-.4-.2-.9-.2-1.3.2z"/><path d="M141.7 157.2c0-1.4-.2-7.5-.2-8.6s0-4.9 3.7-4.9c4 0 5.7 5.1 5.7 9.1 0 3.7-1.5 9.2-5.5 9.2-3.7 0-3.7-3.1-3.7-4.8zm-9.1 9.7c0 1.2 0 4.4-.1 5.4 0 1.5-.2 2.6-2.2 3-.5.1-.9.5-.9 1v.2c0 .5.4 1 1 1 1.7-.1 3.1-.1 5.1-.1 2.7.1 5.3.1 8 .2.6 0 1-.4 1-1 0-.5-.3-1-.9-1-2.2-.4-2.4-2-2.4-4.1V165c0-.2.1-.3.2-.5.3-.5.9-.7 1.4-.4 1.4.7 3.1 1 4.6 1 6.8 0 12.6-5.7 12.6-13.9 0-5.9-4-11.6-10.5-11.6-2.4 0-4.9.7-6.9 2.1-.1.1-.3.2-.3.2-.5.1-1-.3-1.1-.9-.1-.4-.1-.7-.2-1-.1-.5-.7-.9-1.2-.7-3.1.9-6.3 1.5-9.4 1.9-.5.1-.9.5-.9 1v.3c0 .5.3.9.8 1 1.8.4 2.4 1.5 2.4 5.6l-.1 17.8zm56.1-2.2c.6 0 1.1-.5 1.1-1.2 0-.6-.4-1.1-1-1.2-.9 0-1.7-.3-2.3-1-.6-.9-.7-1.2-.8-6.9l-.1-16.7c0-7.1 0-8.1 3.2-8.5h.1c.7 0 1.2-.6 1.1-1.3 0-.7-.6-1.2-1.3-1.1-1.7 0-3.7.1-6.7.1s-6 0-9.1-.1h-.1c-.7.1-1.2.6-1.2 1.3 0 .6.4 1.1 1 1.2 1.7.3 2.3.5 2.7 1.5.4.8.4 2 .5 6.1V154c0 6.9-.2 7.9-3.2 8.4-.6.1-1 .7-1 1.3.1.7.6 1.2 1.3 1.1 1.9-.2 3.1-.2 6.3-.2 5.8 0 7.3 0 9.5.1 0 .1 0 0 0 0zm1.7-.9c.1.6.6 1 1.2 1 1.1-.2 2.4-.2 3.6-.2 4.4 0 6.8.1 8.6.2.6 0 1.1-.5 1.1-1.1 0-.5-.3-.9-.8-1-1.3-.3-1.7-1-1.7-3.5s0-10.1-.1-12.8c0-.4.2-.8.4-1 1-.9 2.4-1.4 3.7-1.4 3.5 0 3.6 3 3.7 5.6l.1 8.5c0 3.2-.2 4-1.7 4.4-.4.1-.8.5-.8 1v.3c.1.6.6 1 1.2 1 1.1-.1 2.3-.2 4.4-.2 3.8 0 6.1.1 7.7.2h.1c.6 0 1.1-.4 1.1-1 0-.5-.3-1-.9-1-1.8-.3-2.2-1.1-2.2-2.5 0-.9.1-5.1.1-5.9v-4.7c-.3-3-.7-5.8-3.3-7.6-1.7-1.1-3.7-1.7-5.8-1.7-2.4.1-4.8.8-6.8 2.1-.1 0-.2.1-.3.1-.6.2-1.2-.2-1.4-.8 0-.2-.1-.3-.1-.4-.2-.6-.8-.9-1.4-.7-2.9 1-5.8 1.7-8.9 2.4-.6.1-1 .5-1 1v.1c0 .5.3 1 .8 1 1.3.3 2.2 1.1 2.2 3.8 0 1.9.1 5 .1 6.9 0 .8 0 4.1-.2 5.3-.1 1-1.1 1.4-1.9 1.6-.6.1-1 .5-1 1 .2-.2.2 0 .2 0zm56.3-4.9c-.5-.4-1.3-.3-1.8 0-1.4 1.3-3.2 2.1-5.1 2.2-3.7 0-7.2-4.1-7.2-10.2 0-2.7.9-8 4-8 1.7 0 2.7 1.8 3.2 2.9 1 2.4 1.1 2.6 1.7 3.1.6.6 1.5 1 2.4 1 1.8 0 3.3-1.6 3.4-3.4 0-3.8-5-6.2-10.3-6.2-8 0-14.6 5-14.6 12.7 0 7.4 5.7 12.7 13.4 12.8 4.2-.1 8.3-1.7 11.2-4.7.1-.1.2-.1.2-.2.3-.7.1-1.5-.5-2m7.4-3c-2.7.1-4.9 2.2-4.9 4.9s2.2 4.9 4.9 4.9 4.9-2.2 4.9-4.9-2.2-4.9-4.9-4.9"/></g></svg>