<svg data-name="Layer 1" xmlns="http://www.w3.org/2000/svg" viewBox="0 0 150 150"><path d="M34.51 111a51 51 0 010-72.06M40.36 94.06A32.74 32.74 0 0134.65 75a32.74 32.74 0 015.71-19.06" fill="none" stroke="#87b7fd" stroke-linecap="round" stroke-linejoin="round" stroke-width="4"/><path d="M27.16 131.05a79.26 79.26 0 010-112.1" fill="none" stroke="#4a93fb" stroke-linecap="round" stroke-linejoin="round" stroke-width="4"/><path d="M115.49 111a51 51 0 000-72.06M109.94 94.06a30.43 30.43 0 000-38.12" fill="none" stroke="#87b7fd" stroke-linecap="round" stroke-linejoin="round" stroke-width="4"/><path d="M122.84 131.05a79.26 79.26 0 000-112.1" fill="none" stroke="#4a93fb" stroke-linecap="round" stroke-linejoin="round" stroke-width="4"/><g fill="none" stroke-linecap="round" stroke-linejoin="round" stroke-width="4"><path d="M85.21 68.64v-9A10.17 10.17 0 0075 49.52h0A10.19 10.19 0 0064.83 59.7v6" stroke="#87b7fd"/><path d="M75 49.52h0a10.19 10.19 0 00-10.17 10.19v8.94" stroke="#4a93fb"/><path d="M90.31 100.46H59.75a3.41 3.41 0 01-3.4-3.41V73.26a3.4 3.4 0 013.4-3.4h30.56a3.4 3.4 0 013.34 3.42v23.8a3.41 3.41 0 01-3.34 3.38z" stroke="#0e6ffa"/><path d="M75 77.52a5.11 5.11 0 11-5.1 5.11 5.1 5.1 0 015.1-5.11z" stroke="#87b7fd"/><path stroke="#4a93fb" d="M75.02 87.71v5.11M75 87.71a5.07 5.07 0 01-5.08-5.08"/></g></svg>