<?xml version="1.0" encoding="utf-8"?>
<svg viewBox="0 0 165 80" xmlns="http://www.w3.org/2000/svg">
  <path d="M 160.38 17.09 C 162.377 17.095 163.995 18.713 164 20.71 L 164 70.47 C 163.995 72.467 162.377 74.085 160.38 74.09 L 32.62 74.09 C 30.623 74.085 29.005 72.467 29 70.47 L 29 20.71 C 29.005 18.713 30.623 17.095 32.62 17.09 L 160.38 17.09 M 160.38 16.09 L 32.62 16.09 C 30.068 16.09 28 18.158 28 20.71 L 28 70.47 C 28 73.022 30.068 75.09 32.62 75.09 L 160.38 75.09 C 162.932 75.09 165 73.022 165 70.47 L 165 20.71 C 165 18.158 162.932 16.09 160.38 16.09 Z" fill="#edeef0">
    <title>box</title>
  </path>
  <text font-size="13" fill="#384661" font-family="-OCFormatSans, -OC Format Sans" font-weight="500" font-style="oblique" style="white-space: pre;" x="79.59" y="39.82">powering our<tspan x="79.59" y="55.42">communities</tspan></text>
  <g>
    <title>bench</title>
    <path d="M 48.41 75.71 C 38.73 75.71 27.22 69.71 19.76 60.71 C 10.35 49.45 7.37 33.36 13.12 24.84 C 16.65 19.68 24.02 16.71 33.35 16.71 C 37.559 16.725 41.747 17.29 45.81 18.39 C 59.12 22 67.9 30.43 69.92 41.56 C 71.92 53.23 66.72 69.56 55.92 74.26 C 53.541 75.249 50.986 75.742 48.41 75.71 Z" fill="#aa61d4"/>
    <path d="M 33.35 17.71 C 37.471 17.726 41.573 18.281 45.55 19.36 C 58.47 22.84 67 31 68.93 41.73 C 69.895 48.028 69.135 54.47 66.73 60.37 C 64.19 66.68 60.21 71.29 55.55 73.37 C 53.289 74.309 50.859 74.776 48.41 74.74 C 39.01 74.74 27.81 68.86 20.53 60.11 C 11.38 49.16 8.43 33.61 13.94 25.44 C 17.29 20.55 24.36 17.74 33.35 17.74 M 33.35 15.74 C 24.58 15.74 16.35 18.32 12.29 24.31 C 6.29 33.31 9.22 49.69 18.99 61.39 C 26.59 70.52 38.34 76.74 48.41 76.74 C 51.13 76.775 53.828 76.254 56.34 75.21 C 67.4 70.32 73.07 53.79 70.9 41.39 C 68.73 28.99 58.64 20.82 46.08 17.39 C 41.929 16.266 37.65 15.688 33.35 15.67 Z" fill="#c696e3"/>
    <path d="M 71.08 51.81 L 0.63 51.81 C 0.214 51.81 -0.045 52.26 0.162 52.62 C 0.259 52.787 0.437 52.89 0.63 52.89 L 71.08 52.89 C 71.496 52.89 71.755 52.44 71.548 52.08 C 71.451 51.913 71.273 51.81 71.08 51.81 Z" fill="#ffca49"/>
    <path d="M 67.86 52.56 L 67.86 79.56 C 67.86 79.976 68.31 80.235 68.67 80.028 C 68.837 79.931 68.94 79.753 68.94 79.56 L 68.94 52.56 Z M 3.94 52.56 L 3.94 79.56 C 3.94 79.976 4.39 80.235 4.75 80.028 C 4.917 79.931 5.02 79.753 5.02 79.56 L 5.02 52.56 Z M 67.86 27.39 L 67.86 51.63 C 67.86 52.046 68.31 52.305 68.67 52.098 C 68.837 52.001 68.94 51.823 68.94 51.63 L 68.94 27.39 C 68.94 26.974 68.49 26.715 68.13 26.922 C 67.963 27.019 67.86 27.197 67.86 27.39 Z M 7 27.39 L 7 51.63 C 7.057 52.05 7.547 52.25 7.882 51.991 C 7.996 51.903 8.071 51.773 8.09 51.63 L 8.09 27.39 C 8.033 26.97 7.543 26.77 7.208 27.029 C 7.094 27.117 7.019 27.247 7 27.39 Z" fill="#ffca49"/>
    <rect x="4.63" y="21.83" width="66.86" height="16.52" rx="1.01" fill="#ffca49"/>
    <path fill="#fff" d="M 4.63 32.87 L 71.49 32.87 L 71.49 33.18 L 4.63 33.18 Z M 4.63 27 L 71.49 27 L 71.49 27.31 L 4.63 27.31 Z"/>
  </g>
  <g class="donut-hole" style="">
    <title>sitting-human</title>
    <path d="M38.83 35c3 .52 6 .89 9.06 1.22 3.92.42 7.84.77 11.75 1.24.9-9.19 1-20.06.48-22.61-1.13-5.5-9.71-4.42-9.71-4.42S39.1 13.77 39.1 14.22s-4.09 16.71-4.67 20c1.46.27 2.93.56 4.4.78z" fill="#607dcf"/>
    <path d="M22.27 70.4a34.06 34.06 0 01-3.78.37h-.89c1.82 6.45.43 5.37-2.34 5.79-3.71.56-3.38 3.59-3.38 3.59h15.4c-.26-4.11-.54-7.61-.82-10.58-1.4.3-2.79.59-4.19.83z" fill="#ad2823"/>
    <path d="M23.8 77.07c-1.91 0-3.65-1.36-5.53-1.31-.38.84-1.48.61-3 .85-3.71.56-3.38 3.59-3.38 3.59h15.4c-.08-1.32-.17-2.58-.25-3.79a8.55 8.55 0 01-3.24.66zM34.77 33a7.86 7.86 0 00-.29 1.79c.05 0 .77.23 1.92.61a115.12 115.12 0 01-11.48 4.45c-13.26 4.49-15.83 5-10.34 21.47a100 100 0 012.9 11.31c2.85-.48 7.22-1.14 10.09-1.54C26.2 56 23.69 53.45 23.69 53.45s0-.42 13-.79c18.22-.52 20.36.11 21.82-6.8a95.64 95.64 0 001.52-12.22c-8.39-.18-16.82-.64-25.26-.64z"/>
    <path d="M9.17 61.11c-1 5.76-1.56 4.17-4.15 3.39a4 4 0 00-5 2l13.89 6.65c1.48-3.46 2.68-6.4 3.67-8.92-2.83-1.03-5.58-2.1-8.41-3.12z" fill="#ad2823"/>
    <path d="M11.83 68.16c-.66-.74-1.24-1.55-1.92-2.27a5.6 5.6 0 00-1.66-1.18c-.66 1.2-1.5.31-3.23-.21a4 4 0 00-5 2l13.89 6.65c.4-.94.79-1.85 1.15-2.71a7.1 7.1 0 01-3.23-2.28zM46.33 36.28s2.15-1.21-11.81-2.28c-17.86-1.34-21.16-.93-23.94 16.56a472.3 472.3 0 01-1.85 10.95c2.75 1 7 3 9.78 3.91 5.26-13.27 3.49-15.73 3.68-18l4.23 1.72c1.7-.9 3.5-1.67 5.21-2.52 2.67-1.35 5.37-2.67 8.06-4s5.51-2.72 8.24-4.13z"/>
    <path d="M22.69 43.91v.18c0 1.49-.06 3-.18 4.46a57.76 57.76 0 01-3.64 16c0 .1-.19.06-.15 0 .55-1.44 1.05-2.91 1.49-4.4a57.86 57.86 0 002.33-16V44z" fill="#607dcf"/>
    <path d="M39.09 36.81c-1.35.44-2.7.91-4 1.41a83.77 83.77 0 00-12.37 5.87l-.15.09-1.14.67c-.09 0-.17-.08-.08-.13.4-.25.81-.49 1.22-.72l.15-.09c.8-.46 1.6-.9 2.41-1.34a85.11 85.11 0 0113.95-5.91.08.08 0 11.01.15zM23.45 53.27l-.54-.46c-.07-.06-.18 0-.11.11l.54.46c.08.07.19-.04.11-.11zM56 37.42c0-.09-.17-.05-.15 0a9.43 9.43 0 01-6.39 10.78c-.09 0-.05.18 0 .15A9.6 9.6 0 0056 37.42z" fill="#607dcf"/>
    <path d="M55.3 40.87a7 7 0 01-2.83-4.26c0-.1-.17-.06-.15 0a7.15 7.15 0 002.9 4.39c.08.06.16-.07.08-.13zM42 36.48l-1.85.18c-.1 0-.1.16 0 .15l1.85-.18c.1-.01.1-.16 0-.15z" fill="#607dcf"/>
    <path d="M32.17 24.42c-.86 4-1 4.92-1 4.92s-10.4.93-14 3.71c-1 .63-2.34 2.79-2.26 3.56 0 .18 0 .58.42.43.18.59.44.83.62.73a.68.68 0 001.27-.08c.27.54.94.87 2.16-1.39.08 0 2-.4 2.24-.42 1.08.33.16.89-.46 1.47-.25.23-.31.78 0 .81 1.2.11 3.13-1.7 3.9-2.4l13.8-.9 1.04-10.37c-2.58.06-5.15.11-7.73-.07z" fill="#ad2823"/>
    <path d="M50.41 10.47l-4 2.23-5.55 3.07-1 9.42c-2.58-.16-5.15-.39-7.73-.42.3-1.39.69-3.18 1.2-5.47 1.67-7.44 3.77-7.74 12.08-8.4 1.44-.12 3.11-.25 5-.43z" fill="#607dcf"/>
    <path d="M32.76 29.8l-1.24-.3c-.1 0-.14.13 0 .15l1.24.29c.05.06.09-.12 0-.14z" fill="#fff"/>
    <path d="M19.75 34.64A3.85 3.85 0 0017.41 37c0 .09.11.13.15 0a3.75 3.75 0 012.23-2.29c.09.04.05-.11-.04-.07zM19.06 33.88a4.87 4.87 0 00-2.95 3.38c0 .09.12.14.15 0A4.7 4.7 0 0119.1 34c.09 0 .05-.16-.04-.12zM17.62 33.5a5.39 5.39 0 00-2.22 3.18c0 .09.12.13.15 0a5.23 5.23 0 012.15-3.09c.08-.01 0-.15-.08-.09z" fill="#f14941"/>
    <path d="M40.38 15.42l-.3 4c0 .09.15.09.16 0l.3-4c.01-.1-.15-.1-.16 0z" fill="#fff"/>
    <path d="M40.12 25.21h-3.78a.55.55 0 01-.5-.33l-2.79-6.65a.53.53 0 01.5-.74h3.78a.52.52 0 01.49.32l2.79 6.65a.54.54 0 01-.49.75z"/>
    <path d="M37.14 17.92h-1.13a.07.07 0 100 .15h1.13c.1 0 .1-.15 0-.15zM36.79 18.85a.58.58 0 00-.63.43.57.57 0 00.55.56.54.54 0 00.09-1.07zm-.07.92a.43.43 0 01-.42-.41.38.38 0 01.76.06.36.36 0 01-.34.35zM39.08 22.16l-1.44-3.7c0-.09-.19-.05-.15 0l1.44 3.71a.08.08 0 00.15-.01z" fill="#fff"/>
    <circle cx="37.09" cy="20.44" r=".21" fill="#fff"/>
    <path d="M60.06 23.66c-1.49-.33-3-.66-4.46-1a24.56 24.56 0 00-2.79-.55l-.64 3.73s-8.54-1.68-9.78-1.84a10.89 10.89 0 00-1.31-3.4 3 3 0 00-1.63-1.28c-.65-.15-.42 1.15.3 1.51.1.2 0 2-1.14 1.81l-.79-.43a10.83 10.83 0 01-3.15-1.75c-.27-.17-.61-.63-1-.66a.53.53 0 00-.58.7 16.9 16.9 0 001.24 1.32 3.54 3.54 0 00.2 1.14 3.37 3.37 0 00.23 1.2c0 1.76 1.27 2.85 2.79 3.53.51.42 1.13.88 1.88 1.4 10.48 7.17 16.81 8.77 20.13 8 2.3-.53 3.7-7.14 3.71-12.45v-.24c-1.03-.26-2.12-.5-3.21-.74z" fill="#ad2823"/>
    <path d="M52.72 22.58l1.66-9.68-2.18-1.33-1.79-1.1c.75-.06 1.61-.13 2.49-.18 4.29-.25 9.5-.07 9.87 4 .19 2.15.56 6.27.55 10.33-3.55-.54-7.08-1.25-10.6-2.04z" fill="#607dcf"/>
    <path d="M53.61 26.8l-1.09-.8c-.08-.06-.16.07-.08.13l1.09.83c.08.04.16-.1.08-.16z" fill="#fff"/>
    <path d="M36.37 23.28L35 22.42c-.08-.05-.16.08-.08.13l1.39.87c.07.05.15-.08.06-.14zM36 24.11a2.07 2.07 0 01-1-.81c-.06-.09-.19 0-.14.07a2.32 2.32 0 001.09.89.08.08 0 10.05-.15zM35.81 25.25l-.76-.63c-.08-.06-.19 0-.11.11l.76.63c.07.06.18-.04.11-.11zM39.18 28.89A8.58 8.58 0 0135 25.41a.07.07 0 10-.13.07A8.76 8.76 0 0039.14 29c.1.08.14-.07.04-.11z" fill="#f14941"/>
    <path d="M53.17 16.11c-.21 1.91-.41 3.81-.62 5.71 0 .1.14.1.15 0l.63-5.71c.01-.11-.15-.11-.16 0z" fill="#fff"/>
    <path d="M50.41 10.47c-1.89.18-3.56.31-5 .43a3.13 3.13 0 001 1.8l.18.16a3.43 3.43 0 002.77.63 4.51 4.51 0 002.89-1.92 6.11 6.11 0 00.7-1.28c-.95.05-1.79.12-2.54.18z" fill="#ad2823"/>
    <path d="M52.43 11l-5.58 1.9-.73-1.47-.94-1.89-1.61-3.27 4-1.79c.2.41 4.86 6.52 4.86 6.52z" fill="#ad2823"/>
    <path d="M46.12 11.43v.08a4.71 4.71 0 001.18-2.77A7.86 7.86 0 0046.54 5l-3 1.32 1.61 3.27z"/>
    <path d="M47.25 1.07c-1.65-1.42-6.58.58-6.13 2.67.35 1.58 1.32 5.91 2.28 6.53 1.93 1.24 4.12-.36 4.72-2.26s.77-5.53-.87-6.94z" fill="#ad2823"/>
    <path d="M47.82 1.75a1.06 1.06 0 000-.77 1 1 0 00-1.28-.74 1.49 1.49 0 00-1.36-.41 1.21 1.21 0 00-.58.28.81.81 0 00-.41-.11.85.85 0 00-.73.39 1.2 1.2 0 00-1.12.61 1.59 1.59 0 00-.07.2c-.86-.28-1.89-.31-2 .69a1 1 0 00.07.55 1.27 1.27 0 00-.19.69.55.55 0 00.81.47l.23-.14a1.14 1.14 0 00.4.3 1.07 1.07 0 001.49-.7 2 2 0 001.59-.61.87.87 0 00.8.46 1.07 1.07 0 00.53-.09 1.55 1.55 0 001.57.85c.35-.08.7 1.23 1 1.21a6.38 6.38 0 00-.75-3.13zM44 6.49a1.22 1.22 0 01-.48.18c-.2 0-.46-.13-.39-.36S43 6.15 43 6.25a.43.43 0 00.27.53 1 1 0 00.81-.15c.08-.04.01-.18-.08-.14z"/>
    <path d="M42.93 5.23a1 1 0 11-2 .32c0-.1-.15-.12-.15 0a1.17 1.17 0 102.26-.37c-.04-.11-.14-.05-.11.05zM45.85 4.25a1 1 0 11-1.91.61c0-.09-.17-.09-.15 0A1.18 1.18 0 1046 4.17c-.07-.09-.2 0-.15.08z" fill="#b0d7fd"/>
    <path d="M43.93 5l-.93.38c-.09 0 0 .18.07.14l.9-.34z" fill="#b0d7fd"/>
    <path d="M44.69 4.6l.13.4c0 .14.25 0 .21-.09l-.13-.41c-.05-.14-.25-.04-.21.1zM41.88 5.23l.13.41c0 .13.25 0 .21-.1l-.14-.4c-.08-.14-.25-.05-.2.09zM42.22 4.24l-.49.1a.17.17 0 00-.1.2.18.18 0 00.2.1l.48-.11a.16.16 0 00.1-.19.15.15 0 00-.19-.1zM44.37 3.4l-.44.16c-.18.07-.06.35.13.28l.43-.16c.19-.07.06-.35-.12-.28zM46.13 7.91a1 1 0 01-.62.72c-.09 0 0 .18 0 .14a1.2 1.2 0 00.77-.77c.02-.14-.13-.18-.15-.09z"/>
    <path d="M48.19 3.15L46 4.33c-.09 0 0 .18.07.13l2.19-1.17c.09-.04.02-.18-.07-.14z" fill="#b0d7fd"/>
    <path d="M49.7 3.4a1.41 1.41 0 00-2.22.28c.25.79.48 1.6.7 2.4a2 2 0 001.69-.77 1.52 1.52 0 00-.17-1.91z" fill="#ad2823"/>
    <path d="M48.68 4.13l-.36.87c0 .09.1.14.15 0l.32-.77c.07-.14-.07-.23-.11-.1z"/>
  </g>
  <g data-name="Wi Fi">
    <title>wifi</title>
    <ellipse cx="30.03" cy="12.66" rx="1.93" ry="1.96" transform="rotate(-64.93 30.034 12.66)" fill="#2dd473"/>
    <path d="M31.7 6.94a5.07 5.07 0 00-7.45 3.18.34.34 0 00.65.18 4.39 4.39 0 016.46-2.78c.38.21.73-.37.34-.58z" fill="#60ffa0"/>
    <path d="M33 2.14a8.2 8.2 0 00-12.77 5.27c-.08.42.57.61.65.18a7.53 7.53 0 0111.76-4.87c.36.28.7-.33.36-.58z" fill="#99ffb8"/>
  </g>
</svg>