<svg viewBox="0 0 165 80" xmlns="http://www.w3.org/2000/svg" xmlns:xlink="http://www.w3.org/1999/xlink">
  <path d="M 160.49 17.16 C 162.487 17.165 164.105 18.783 164.11 20.78 L 164.11 70.53 C 164.11 72.531 162.491 74.154 160.49 74.16 L 32.73 74.16 C 30.729 74.154 29.11 72.531 29.11 70.53 L 29.11 20.78 C 29.11 18.781 30.731 17.16 32.73 17.16 L 160.49 17.16 M 160.49 16.16 L 32.73 16.16 C 30.178 16.16 28.11 18.228 28.11 20.78 L 28.11 70.53 C 28.104 73.085 30.175 75.16 32.73 75.16 L 160.49 75.16 C 163.045 75.16 165.116 73.085 165.11 70.53 L 165.11 20.78 C 165.11 18.228 163.042 16.16 160.49 16.16 Z" fill="#edeef0">
    <title>box</title>
  </path>
  <text font-size="13" fill="#384661" font-family="-OCFormatSans, -OC Format Sans" font-weight="500" font-style="oblique" style="white-space: pre;" x="74.45" y="33.86">driving the<tspan x="74.45" y="49.46">economic </tspan><tspan x="74.45" y="65.06">recovery</tspan></text>
  <g>
    <title>blob-1</title>
    <path d="M 36.64 74.26 C 25.16 74.26 12.15 67.77 7 59.48 C 0.63 49.28 5.88 36.16 13.91 27.68 C 20.79 20.37 30.1 15.84 38.19 15.84 C 40.547 15.816 42.888 16.237 45.09 17.08 C 54.68 20.77 61.73 33.33 61.51 46.3 C 61.27 60 53.29 71.22 42.1 73.7 C 40.305 74.082 38.475 74.269 36.64 74.26 Z" fill="#ffda44"/>
    <path d="M 38.19 17.34 L 38.19 17.34 C 40.366 17.32 42.526 17.706 44.56 18.48 C 53.43 21.89 60.22 34.1 60 46.27 C 59.81 57.21 53.49 69.64 41.78 72.27 C 40.086 72.623 38.36 72.797 36.63 72.79 C 25.63 72.79 13.16 66.61 8.26 58.72 C 2.32 49.19 7.36 36.8 14.99 28.72 C 21.6 21.72 30.49 17.35 38.18 17.35 M 38.18 14.35 C 29.38 14.35 19.75 19.29 12.81 26.66 C 3.77 36.21 -0.8 49.82 5.73 60.28 C 11.26 69.19 24.9 75.76 36.64 75.76 C 38.585 75.77 40.527 75.572 42.43 75.17 C 55.09 72.35 62.78 59.49 63 46.33 C 63.22 33.17 56 19.67 45.64 15.68 C 43.262 14.772 40.735 14.318 38.19 14.34 Z" fill="#ffe682" style=""/>
  </g>
  <g id="Woman" class="donut-hole">
    <title>standing-human</title>

    <g id="Hand">
      <path d="M23.83,18.71c-1.14,5.87,1.53,22.81,1.53,22.81l4-.16L28.19,19.57Z" fill="#b0d7fd"/>
      <path d="M24.44,34.75c.46,3.85.92,6.77.92,6.77l4-.16L29,35.12A42.93,42.93,0,0,0,24.44,34.75Z" fill="#e0ac69"/>
    </g>
    <g id="Legs">
      <path d="M31.57,40.06c-.11,11.08.41,39.57.41,39.57H27.63s-5.8-28.07-3.16-45.06c2.17-14,6.68-1.66,6.68-1.66Z" fill="#e0ac69"/>
      <path d="M32.24,67.82c-.14-9.17-.73-21.35-.67-27.76l-.42-7.15s-4.51-12.3-6.68,1.66c-1.53,9.86-.22,23.45,1.15,33.12C27.67,67.81,30.18,67.84,32.24,67.82Z" fill="#003567"/>
      <path d="M27.14,77.08c.3,1.62.49,2.55.49,2.55H32s0-1.12-.05-3A16.18,16.18,0,0,1,27.14,77.08Z" fill="#0051b5"/>
      <path d="M39.65,35.4c-.63,4.87,2.59,25.9,2.59,25.9s2.9,6.94,3.72,18.33H36.64a2.42,2.42,0,0,1,2-2.69c2.28-.52,2.69-1.35-.93-10.26S28.77,32,28.77,32Z" fill="#e0ac69"/>
      <path d="M37,68.44l6.93-1.71a43.89,43.89,0,0,0-1.69-5.43s-3.22-21-2.59-25.9L28.77,32s4,26,7.62,34.94Z" fill="#003567"/>
      <path d="M43.06,76.62a11,11,0,0,0-2.91-.52,2.17,2.17,0,0,1-1.54.84,2.42,2.42,0,0,0-2,2.69H46c-.07-1.08-.17-2.12-.28-3.11A4.55,4.55,0,0,1,43.06,76.62Z" fill="#0051b5"/>
      <path d="M29.33,76.62A7.43,7.43,0,0,0,27,76.11c-.27.48-1.35.66-2.08.83a2.4,2.4,0,0,0-2,2.69h9.32c-.08-1.08-.18-2.12-.29-3.11A4.54,4.54,0,0,1,29.33,76.62Z" fill="#0051b5"/>
      <path d="M31.62,47c0,.06-.09.06-.1,0-.24-1.92-.49-3.84-.73-5.76,0,0,0-.07,0-.11l.11,0s0,.07,0,.11Z"/>
      <path d="M30.9,41.28l-.11,0-1.35-.34c-.07,0,0-.12,0-.1l1.31.33.11,0S30.89,41.24,30.9,41.28Z"/>
    </g>
    <g id="Body">
      <path d="M39.65,35.4l-15.18-.83A45.18,45.18,0,0,1,25,20.9c1-4.51,2.87-4.74,7.12-4.15l2.1.31c.82.13,1.56.25,2.22.38C44,18.87,41.64,20.83,39.65,35.4Z" fill="#b0d7fd"/>
      <path d="M24.92,30,24.59,34c0,.06.1.06.1,0L25,30C25,29.94,24.92,29.94,24.92,30Z" fill="#fff"/>
    </g>
    <g id="Hand-2" data-name="Hand">
      <path d="M37,19.45a27.25,27.25,0,0,0-6.52,5s-2.89-12.23-4-12.83A9.61,9.61,0,0,0,23.79,11s-1-1.95-1.12-2a.28.28,0,0,0-.49,0c-.2.58.58,2.44.79,2.81a2.89,2.89,0,0,0,.73,3.57c.2,4.51.89,13.92,3.35,15.92,3.26,2.64,12.43-5.91,12.43-5.91Z" fill="#b0d7fd"/>
      <path d="M23.7,15.5c.06,1.35.16,3.13.34,5a6.88,6.88,0,0,0,5-1.77c-.89-3.29-2-6.84-2.53-7.16A9.61,9.61,0,0,0,23.79,11s-1-1.95-1.12-2a.28.28,0,0,0-.49,0c-.2.58.58,2.44.79,2.81A2.89,2.89,0,0,0,23.7,15.5Z" fill="#e0ac69"/>
      <path d="M30.94,24.42l-.42-1.18,0-.09c-.45-1.28-.91-2.56-1.37-3.84,0-.06.08-.09.1,0l1.37,3.83,0,.1c.15.39.29.79.43,1.18C31.06,24.45,31,24.48,30.94,24.42Z" fill="#fff"/>
      <path d="M35.19,21.49l-4.58,1.72-.09,0,0-.09.1,0,4.59-1.72C35.23,21.36,35.26,21.46,35.19,21.49Z" fill="#fff"/>
      <path d="M24.2,14.51a2,2,0,0,0-.3-.64,2.5,2.5,0,0,0-.22-.24c-.08-.08-.21-.14-.29-.22s0-.25,0-.38,0-.23,0-.36a2.15,2.15,0,0,0-.09-.61h-.1a2.2,2.2,0,0,1,0,1.32s0,0,0,.06a1.72,1.72,0,0,1,.86,1.09C24.11,14.61,24.21,14.58,24.2,14.51Z" fill="#9e7446"/>
      <path d="M24.34,13c-.92-.08-.69-1.12-.48-1.7a.05.05,0,0,0-.1,0,1.88,1.88,0,0,0-.16,1.25.83.83,0,0,0,.74.58C24.41,13.13,24.41,13,24.34,13Z" fill="#9e7446"/>
      <path d="M25.13,13.17a.69.69,0,0,1-.62-.78,2.34,2.34,0,0,1,.23-.82c0-.06-.07-.08-.1,0a1.82,1.82,0,0,0-.19,1.19.72.72,0,0,0,.68.53A.05.05,0,0,0,25.13,13.17Z" fill="#9e7446"/>
      <path d="M26.29,13.33a.62.62,0,0,1-.86-.47,2.08,2.08,0,0,1,.06-1c0-.06-.09-.09-.1,0a1.64,1.64,0,0,0,.07,1.32.68.68,0,0,0,.89.25C26.41,13.39,26.35,13.3,26.29,13.33Z" fill="#9e7446"/>
      <path d="M26.33,12.39c0-.07-.09-.09-.1,0l-.05.33c0,.07.09.09.1,0l0-.1h0Z" fill="#9e7446"/>
      <path d="M28.65,32a1.73,1.73,0,0,1-.47-.06c-2.23-.66-2.8-3.62-3.25-6-.12-.61-.23-1.17-.36-1.66a.07.07,0,0,1,0-.07s.06,0,.06,0c.13.49.24,1.06.36,1.67.45,2.35,1,5.27,3.18,5.91,2,.57,7.89-3.31,10.42-5,0,0,.06,0,.07,0a0,0,0,0,1,0,.07C36.32,28.55,31,32,28.65,32Z" fill="#fff"/>
    </g>
    <g id="Head">
      <path d="M34.26,17.06l-2.1-.31a.87.87,0,0,0-.1.24.81.81,0,0,0,0,.27A1.74,1.74,0,0,0,33.35,19a2.92,2.92,0,0,0,3.13-1.51C35.82,17.31,35.08,17.19,34.26,17.06Z" fill="#e0ac69"/>
      <path d="M32.52,9.3l-.09.06h0a.85.85,0,0,0-.54,1.57c.12.08.3-.09.21-.21v0a.12.12,0,0,0,0-.1,1.17,1.17,0,0,1,.31-.84l.09,0a.1.1,0,0,0,.08-.05.15.15,0,0,0,.12-.11l0-.1A.16.16,0,0,0,32.52,9.3Z" fill="#0e1f38"/>
      <path d="M33,18.25l.08.36a9.62,9.62,0,0,0,3.8-1.78c-.72-1.37-1.5-2.87-1.53-3l-3.23.69.56,2.38Z" fill="#e0ac69"/>
      <path d="M32.61,16.74l-.53-2.25,1.75-.34A4.7,4.7,0,0,1,32.61,16.74Z" fill="#9e7446"/>
      <path d="M36.37,10.72C36,9.32,32.44,8.66,31.94,10c-.37,1-1.39,3.82-1.07,4.52.64,1.39,2.46,1.28,3.48.42S36.79,12.1,36.37,10.72Z" fill="#e0ac69"/>
      <path d="M40.1,16.82a.68.68,0,0,0-.64-.4,1.37,1.37,0,0,0-2.27-1.35,6,6,0,0,0-1.08-2.49,2.78,2.78,0,0,0,.27-1.92C36,9.31,31.44,8.34,32,9.81c.46.87,1.48,1,2.35,1.15a3.94,3.94,0,0,0,1.07,2.32A5.07,5.07,0,0,0,35.33,15a1.18,1.18,0,0,0,.07,1.25,1,1,0,0,0,0,.9A1.62,1.62,0,0,0,36,18.48a1.67,1.67,0,0,0,1.7.26,2,2,0,0,0,2-.55A1.34,1.34,0,0,0,40.1,16.82Z" fill="#243147"/>
      <path d="M32.35,11.42l-.14.25c-.05.09.09.15.14.06l.14-.25A.08.08,0,0,0,32.35,11.42Z"/>
      <path d="M32.79,11l-.28-.14c-.12-.06-.2.13-.08.19l.28.14C32.83,11.24,32.91,11.05,32.79,11Z" fill="#243147"/>
      <path d="M32.45,13.41a.7.7,0,0,1-.57.29c-.06,0-.08.1,0,.1a.81.81,0,0,0,.66-.33C32.57,13.42,32.48,13.35,32.45,13.41Z" fill="#9e7446"/>
      <path d="M36,12.8a.93.93,0,0,0-1.35-.64c-.15.54-.31,1.08-.48,1.61a1.33,1.33,0,0,0,1.24.17A1,1,0,0,0,36,12.8Z" fill="#e0ac69"/>
      <path d="M35.24,12.88l-.51.34s0,.12.07.08l0,0h0L35.3,13C35.36,12.92,35.29,12.84,35.24,12.88Z" fill="#9e7446"/>
      <path d="M31.66,11.82a.19.19,0,0,0-.07-.15A.41.41,0,0,0,31,12a.4.4,0,0,0,.53.39.16.16,0,0,0,.18-.23A.27.27,0,0,0,31.66,11.82Z" fill="#e0ac69"/>
    </g>
  </g>
  <g id="Picture">
    <title>wifi</title>
    <path d="M16.87,11.26l-.58.57c-.13.13.07.33.21.2l.57-.57C17.2,11.33,17,11.12,16.87,11.26Z" fill="#99ffb8"/>
    <path d="M16.52,2.43,14.78.81c-.13-.12-.34.08-.2.2l1.73,1.62C16.45,2.76,16.65,2.55,16.52,2.43Z" fill="#99ffb8"/>
    <path d="M28.08.65l-2,1.62c-.14.12.06.32.2.21l2-1.63C28.43.73,28.22.53,28.08.65Z" fill="#99ffb8"/>
    <path d="M14.75,4.51l-1.14-.58c-.17-.08-.31.16-.15.25l1.15.58C14.77,4.84,14.92,4.6,14.75,4.51Z" fill="#99ffb8"/>
    <path d="M20.85,10.27h0a3.73,3.73,0,0,1-3.74-3.74h0A3.73,3.73,0,0,1,20.85,2.8h0a3.73,3.73,0,0,1,3.73,3.73h0A3.73,3.73,0,0,1,20.85,10.27Z" fill="#60ffa0"/>
  </g>
</svg>