<?xml version="1.0" encoding="utf-8"?>
<svg viewBox="0 0 165 80" xmlns="http://www.w3.org/2000/svg" xmlns:xlink="http://www.w3.org/1999/xlink">
  <path d="M 160.43 17.15 C 162.431 17.156 164.05 18.779 164.05 20.78 L 164.05 70.53 C 164.05 72.529 162.429 74.15 160.43 74.15 L 32.68 74.15 C 30.679 74.15 29.056 72.531 29.05 70.53 L 29.05 20.78 C 29.055 18.777 30.677 17.155 32.68 17.15 L 160.43 17.15 M 160.43 16.15 L 32.68 16.15 C 30.123 16.15 28.05 18.223 28.05 20.78 L 28.05 70.53 C 28.05 73.085 30.125 75.156 32.68 75.15 L 160.43 75.15 C 162.982 75.15 165.05 73.082 165.05 70.53 L 165.05 20.78 C 165.056 18.225 162.985 16.15 160.43 16.15 Z" fill="#edeef0">
    <title>box</title>
  </path>
  <text font-size="13" fill="#384661" font-family="-OCFormatSans, -OC Format Sans" font-weight="500" font-style="oblique" style="white-space: pre;" x="68.63" y="40.11">making society<tspan x="68.63" y="55.71">better</tspan></text>
  <g>
    <title>blob-2</title>
    <path d="M 25.59 73.28 C 21.693 73.327 17.86 72.288 14.52 70.28 C 5.57 64.82 -1.48 50.5 2.27 37.86 C 5.84 25.86 19.13 16.14 31.9 16.14 L 32.51 16.14 C 45.67 16.52 57.07 27.57 59.51 37.66 C 61.3 45.21 58.65 56.66 45.87 65.99 C 39.36 70.7 32.18 73.28 25.59 73.28 Z" fill="#17dd66"/>
    <path d="M 31.91 15.16 L 31.91 17.16 L 32.48 17.16 C 45.18 17.52 56.18 28.16 58.48 37.91 C 59.554 42.93 58.776 48.169 56.29 52.66 C 53.636 57.63 49.872 61.921 45.29 65.2 C 39 69.77 32 72.28 25.59 72.28 C 21.864 72.342 18.195 71.358 15 69.44 C 6.41 64.18 -0.39 50.36 3.23 38.17 C 6.62 26.78 19.75 17.17 31.9 17.17 L 31.9 15.17 M 31.9 15.17 C 18.87 15.16 5 25.21 1.31 37.6 C -2.44 50.24 4.26 65.21 14 71.15 C 17.497 73.251 21.511 74.335 25.59 74.28 C 32.7 74.28 40.16 71.36 46.41 66.83 C 56.2 59.65 63.04 48.48 60.41 37.46 C 57.78 26.44 45.7 15.55 32.53 15.17 Z" fill="#60ffa0" style=""/>
  </g>
  <g id="human-wifi" class="donut-hole" data-name="human-wifi">
    <title>human-wifi</title>
    <g id="Legs">
      <path d="M18.63,77.1c-.65-.33,1.2-4.74,2.88-9-2.08-.13-4.17-.17-6.24-.38-1,5.16-1.94,11.7-1.94,12.47C13.33,80.14,20.28,77.94,18.63,77.1Z" fill="#ffa89b"/>
      <path d="M14.76,69.07c1.28,0,6.64.18,7.35.2.54-2.2,1.35-6.22,1.68-8.09.6-3.46,3.64-28.4,4.08-31.61H17.36c-.09.56-.21,1.09-.26,1.59-.09,1-.17,1.91-.24,2.83-.67,8.51-.63,15.15-.3,27.93A55,55,0,0,0,14.76,69.07Z" fill="#f14941"/>
      <path d="M18.63,77.1l-.05,0a3.43,3.43,0,0,1-1.87.29,17.9,17.9,0,0,0-3-.34c-.24,1.64-.39,2.83-.39,3.13H21C21.18,78,20.28,77.94,18.63,77.1Z" fill="#0051b5"/>
      <path d="M35.8,76.83c-.63-.58-.25-4.53.09-8.75-2,.07-4.07.12-6.11,0,.27,5.23.95,12,.95,12h9.71C40.62,77,37.54,78.44,35.8,76.83Z" fill="#ffa89b"/>
      <path d="M29.14,69.48c2.4.06,4.93,0,7,.06a90.42,90.42,0,0,0,.06-9.09c-.33-7.74-2.22-19.56-3.39-26.62-.22-1.3-.41-2.43-.56-3.35L21.45,28.93C21.31,32.09,29.74,63,29.74,63,29.61,64.23,29.27,66.8,29.14,69.48Z" fill="#f14941"/>
      <path d="M35.91,76.93a9.94,9.94,0,0,1-2.18.37A24,24,0,0,1,30.44,77c.16,1.88.29,3.16.29,3.16h9.71C40.61,77.1,37.67,78.38,35.91,76.93Z" fill="#0051b5"/>
      <path d="M25.23,46.38c-.28-1.35-.56-2.7-.85-4a.4.4,0,0,0,0-.15l.15,0,0,.15.84,4C25.39,46.43,25.25,46.47,25.23,46.38Z"/>
      <path d="M24.53,42.36l-.15,0-3.6-.45c-.09,0-.09-.15,0-.14l3.57.44.15,0Z"/>
    </g>
    <g id="Head">
      <path d="M28.55,11.75c-.08.09-.83,4.19-.83,4.19l-3.39-1.58,2-3.48Z" fill="#ffa89b"/>
      <path d="M28.28,13a11.93,11.93,0,0,1,.27-1.24l-.83-.32A2,2,0,0,0,28.28,13Z"/>
      <path d="M25.25,7.16c.35-.89,2.06-1.31,3.18-1,.49.12.74-.21.85.19.25,1,1.09,4.2.72,4.94-.64,1.3-2.37,1-3.25.09S24.75,8.43,25.25,7.16Z" fill="#ffa89b"/>
      <path d="M29.14,5.5A1.89,1.89,0,0,0,27.58,6c-1,0-2.06.43-2.33,1.12-.33.85-2.55,2.58-1.95,4.19.36,1,2.89,2.09,3.84,1.37,1.13-.85.68-3.66.82-3.87A1.75,1.75,0,0,0,28,7a1.52,1.52,0,0,0,1.44-.59C29.63,5.78,29.3,5.54,29.14,5.5Z" fill="#607dcf"/>
      <path d="M26.49,9.52A1,1,0,0,1,28,8.85c.14.57.31,1.14.48,1.71a1.45,1.45,0,0,1-1.33.17A1,1,0,0,1,26.49,9.52Z" fill="#ffa89b"/>
      <path d="M30.09,8.62a.37.37,0,0,0-.52-.21.13.13,0,0,0,0,.18v0l-.06,0c-.13.11.06.3.19.19s0,0,0,0a.14.14,0,0,0,.07.25A.37.37,0,0,0,30.09,8.62Z" fill="#ffa89b"/>
      <path d="M29.12,7.06l-.31.21c-.15.1,0,.34.14.24l.31-.21C29.41,7.21,29.27,7,29.12,7.06Z" fill="#607dcf"/>
      <path d="M29.32,7.91l0,.38a.07.07,0,0,0,.14,0l0-.38A.07.07,0,0,0,29.32,7.91Z"/>
      <path d="M29.74,10.27a.41.41,0,0,1-.38-.26c0-.09-.16,0-.13,0a.55.55,0,0,0,.51.37A.07.07,0,0,0,29.74,10.27Z" fill="#f14941"/>
      <path d="M28,9.8l-.42-.35c-.07-.06-.17,0-.1.1l.42.34C27.93,10,28,9.85,28,9.8Z" fill="#f14941"/>
    </g>
    <g id="Body">
      <path d="M32.83,33.83c.25-3.1.48-7.76.65-11.41.36-7.67-2.42-8.15-7.4-8.11-7,0-7.4-.18-8.2,5.88C17.3,24.53,17,31,16.86,34,17.9,34.06,30.15,33.79,32.83,33.83Z" fill="#b0d7fd"/>
      <path d="M29.06,24.34a5.68,5.68,0,0,0,0,4,3.69,3.69,0,0,0,2.2,2.39c-.52-1.51-1.15-3-1.63-4.49C29.44,25.61,29.24,25,29.06,24.34Z"/>
    </g>
    <g id="Hand">
      <path d="M31.69,18.22l3.78-.8s3,6,2.85,6.07-3.61,1-3.72,1S31.69,18.22,31.69,18.22Z" fill="#b0d7fd"/>
      <path d="M35.47,17.42c1.35-.38,3.64-.9,3.64-.9a15.75,15.75,0,0,1,1.5-2.82,8.09,8.09,0,0,1,1.52-.85c2-.74.7,5.09.7,5.09s-5.21,4.55-5.28,4.44S35.47,17.42,35.47,17.42Z" fill="#ffa89b"/>
      <path d="M40.39,15.82a4,4,0,0,0-.27-1.37,3.53,3.53,0,0,0,.28-.79c0-.16-.15-.35-.31-.24a2.21,2.21,0,0,0-.67.8s0,0,0,0a4.61,4.61,0,0,0-.47,2.33.19.19,0,0,0,.17.19.22.22,0,0,0,.27,0,.2.2,0,0,0,.36,0,2.56,2.56,0,0,0,.11-.24.22.22,0,0,0,.12-.13,2.71,2.71,0,0,0,.12-.42A.22.22,0,0,0,40.39,15.82Z" fill="#ffa89b"/>
      <path d="M40.1,14.71c0-.08-.16,0-.12.07a3.11,3.11,0,0,1,.26,1.16.07.07,0,0,0,.14,0A3.45,3.45,0,0,0,40.1,14.71Z" fill="#f14941"/>
    </g>
    <g id="Wi_Fi" data-name="Wi Fi">
      <ellipse cx="42.09" cy="15.33" rx="2.21" ry="2.24" transform="translate(-2.53 19.3) rotate(-25.1)" fill="#2dd473"/>
      <path d="M47.77,11.52a5.83,5.83,0,0,0-8.91-2.68.39.39,0,0,0,.44.64A5,5,0,0,1,47,11.78C47.22,12.24,48,12,47.77,11.52Z" fill="#60ffa0"/>
      <path d="M52.42,8.23A9.41,9.41,0,0,0,37.31,3.49c-.38.32.06,1,.44.65A8.64,8.64,0,0,1,51.69,8.49C51.83,9,52.56,8.71,52.42,8.23Z" fill="#99ffb8"/>
    </g>
    <g id="Hand-2" data-name="Hand">
      <path d="M34.43,32.47c1.13-1.21,2.25-2.43,3.26-3.74a4.87,4.87,0,0,0-.11-.69s-1.31-4.19-3.16-9.59c-1.74-5.08-2.72-4.23-8.34-4.14,0,0,0,.34,0,.93A69.45,69.45,0,0,1,34.43,32.47Z" fill="#b0d7fd"/>
      <path d="M45.44,14.55c0-.32-.26-.55-.41-.42,0-.25-.44-.59-.59-.35,0-.2-.33-.37-.64,0a4.14,4.14,0,0,0-.42,1.23c-.07.1-.79.72-1,.9s-.25-1.4-.24-1.69c0-.46-.36-.76-.48-.49a6.33,6.33,0,0,0-.5,1.76,4.07,4.07,0,0,1-.79,2c-.79.64-1.71,1.46-2.61,2.3a42.37,42.37,0,0,0,1,7.6,60,60,0,0,0,4.94-8.19c.08-.08,1.16-1.61,1.2-1.65a5.05,5.05,0,0,0,.89-2.5C45.82,14.8,45.66,14.43,45.44,14.55Z" fill="#ffa89b"/>
      <path d="M43.76,15.93c-.06.06-.17,0-.11-.09a2.4,2.4,0,0,0,.7-1.88c0-.09.13-.11.14,0A2.58,2.58,0,0,1,43.76,15.93Z" fill="#f14941"/>
      <path d="M44.36,16.19a3,3,0,0,0,.55-1.89c0-.09.14-.08.14,0a3.18,3.18,0,0,1-.58,2A.07.07,0,0,1,44.36,16.19Z" fill="#f14941"/>
      <path d="M44.81,16.52a4,4,0,0,0,.59-1.81c0-.09.15-.07.14,0a4.28,4.28,0,0,1-.62,1.87C44.88,16.68,44.77,16.59,44.81,16.52Z" fill="#f14941"/>
      <path d="M38.57,19.13c-1.54,1.39-3.15,3-4.12,3.9-2,1.87-1.79,9.7-1.79,9.7,1.71,1.09,3.88-.14,9.54-8.61A45.72,45.72,0,0,1,38.57,19.13Z" fill="#b0d7fd"/>
      <path d="M41.11,16.31c0-.09-.15-.09-.14,0,0,.51-.5.94-.81,1.29l-1,1.1c-.06.07,0,.17.1.1l1.25-1.41A1.54,1.54,0,0,0,41.11,16.31Z" fill="#f14941"/>
      <path d="M35.82,22.4,35.64,22a.78.78,0,0,1,0-.14l-1.43-3.57c0-.08.1-.12.14,0,.46,1.16.93,2.33,1.39,3.5l.06.14.2.51C36,22.45,35.85,22.49,35.82,22.4Z" fill="#fff"/>
      <path d="M36.64,21l-.89.82-.11.1a.78.78,0,0,1,0-.14l.1-.1.85-.78C36.61,20.88,36.7,21,36.64,21Z" fill="#fff"/>
    </g>
  </g>
</svg>