<svg data-name="Layer 1" xmlns="http://www.w3.org/2000/svg" viewBox="0 0 26 26"><path d="M21.25 11.16h-4.09a.47.47 0 01-.47-.48.48.48 0 01.47-.48h3.62V6.32a.45.45 0 00-.45-.45H3.24a.45.45 0 00-.44.45v3.88h3.31a.49.49 0 01.48.48.48.48 0 01-.48.48H2.32a.48.48 0 01-.48-.48V6.32a1.4 1.4 0 011.4-1.4h17.09a1.4 1.4 0 011.4 1.4v4.36a.47.47 0 01-.48.48zm-6.29 0H8.31a.48.48 0 01-.48-.48.49.49 0 01.48-.48H15a.49.49 0 01.48.48.48.48 0 01-.48.48z" fill="#fff" opacity=".5"/><path d="M15.66 5.87H7.91a.48.48 0 01-.48-.48v-2a1.37 1.37 0 011.21-1.47h6.29a1.36 1.36 0 011.21 1.49v2a.47.47 0 01-.48.46zm-7.27-1h6.79V3.41c0-.35-.18-.53-.25-.53H8.64c-.07 0-.25.2-.25.53zM17.16 12.48H15a.49.49 0 01-.48-.48V9.36a.49.49 0 01.48-.48h2.2a.48.48 0 01.48.48V12a.48.48 0 01-.52.48zm-1.72-1h1.25V9.84h-1.25zM8.31 12.48h-2.2a.48.48 0 01-.48-.48V9.37a.47.47 0 01.48-.48h2.2a.47.47 0 01.48.48V12a.48.48 0 01-.48.48zm-1.72-1h1.24V9.84H6.59z" fill="#fff" opacity=".5"/><path d="M13.83 19.71H3.36a1.52 1.52 0 01-1.52-1.52v-7.51a.49.49 0 01.48-.48h3.79a.49.49 0 01.48.48.48.48 0 01-.48.48H2.8v7a.56.56 0 00.56.56h10.47a.49.49 0 01.48.48.48.48 0 01-.48.51zm7.42-4.56a.48.48 0 01-.47-.48v-3.51h-3.62a.47.47 0 01-.47-.48.48.48 0 01.47-.48h4.09a.48.48 0 01.48.48v4a.48.48 0 01-.48.47zm-6.29-4H8.31a.48.48 0 01-.48-.48.49.49 0 01.48-.48H15a.49.49 0 01.48.48.48.48 0 01-.48.49z" fill="#fff" opacity=".5"/><path d="M21.25 11.16h-4.09a.47.47 0 01-.47-.48.48.48 0 01.47-.48h3.62V6.32a.45.45 0 00-.45-.45H3.24a.45.45 0 00-.44.45v3.88h3.31a.49.49 0 01.48.48.48.48 0 01-.48.48H2.32a.48.48 0 01-.48-.48V6.32a1.4 1.4 0 011.4-1.4h17.09a1.4 1.4 0 011.4 1.4v4.36a.47.47 0 01-.48.48zm-6.29 0H8.31a.48.48 0 01-.48-.48.49.49 0 01.48-.48H15a.49.49 0 01.48.48.48.48 0 01-.48.48z" fill="#fff" opacity=".5"/><path d="M19.26 24.08h-1A1.14 1.14 0 0117.12 23v-.14h-.13l-.1.09a1.13 1.13 0 01-1.6 0l-.71-.71a1.13 1.13 0 010-1.6l.05-.06c0-.05-.05-.11-.07-.17h-.08a1.14 1.14 0 01-1.13-1.13v-1A1.14 1.14 0 0114.48 17c0-.07.05-.14.08-.2a1.12 1.12 0 010-1.6l.71-.71a1.12 1.12 0 01.8-.33 1.14 1.14 0 01.8.33l.21-.08a1.14 1.14 0 011.13-1.13h1a1.14 1.14 0 011.13 1.13v.08l.17.08.06-.06a1.15 1.15 0 011.6 0l.71.71a1.13 1.13 0 010 1.6l-.1.1.06.13H23a1.14 1.14 0 011.13 1.13v1A1.14 1.14 0 0123 20.31h-.18s0 .07-.05.1l.13.13a1.13 1.13 0 010 1.6l-.71.71a1.13 1.13 0 01-1.6 0l-.13-.13-.1.05V23a1.14 1.14 0 01-1.1 1.08zm-2.38-2.38a.43.43 0 01.22.06 3.41 3.41 0 00.63.24.49.49 0 01.35.46V23a.18.18 0 00.17.17h1a.18.18 0 00.17-.17v-.52a.49.49 0 01.34-.46 2.75 2.75 0 00.59-.25.49.49 0 01.57.09l.37.37a.18.18 0 00.24 0l.71-.71a.2.2 0 000-.25l-.37-.37a.5.5 0 01-.08-.57 2.83 2.83 0 00.25-.59.49.49 0 01.46-.34h.5a.18.18 0 00.17-.17v-1A.18.18 0 0023 18h-.49a.48.48 0 01-.46-.35 3.06 3.06 0 00-.25-.63.47.47 0 01.09-.55l.33-.34a.17.17 0 000-.24l-.71-.71c-.09-.09-.16-.09-.24 0l-.31.31a.48.48 0 01-.57.08 3.4 3.4 0 00-.65-.29.47.47 0 01-.34-.45v-.43a.18.18 0 00-.17-.17h-1a.18.18 0 00-.17.17v.39a.49.49 0 01-.35.46 3.41 3.41 0 00-.69.27.46.46 0 01-.56-.08l-.27-.26a.15.15 0 00-.12-.06s-.08 0-.12.05l-.72.72a.18.18 0 000 .24l.27.27a.47.47 0 01.08.56 4.15 4.15 0 00-.28.69.47.47 0 01-.46.35h-.38a.18.18 0 00-.17.17v1a.18.18 0 00.17.17h.41a.48.48 0 01.46.34 3.44 3.44 0 00.28.65.48.48 0 01-.07.58l-.31.3a.2.2 0 000 .25l.71.71a.2.2 0 00.25 0l.34-.34a.47.47 0 01.35-.13z" opacity=".6"/><path d="M18.76 21.27h-.09a2.5 2.5 0 01-2.5-2.66 2.6 2.6 0 01.83-1.82 2.53 2.53 0 011.86-.71 2.61 2.61 0 012.5 2.69 2.5 2.5 0 01-2.6 2.5zm0-4.23a1.62 1.62 0 00-1.62 1.6 1.53 1.53 0 001.57 1.67 1.56 1.56 0 001.68-1.57 1.65 1.65 0 00-.44-1.18 1.6 1.6 0 00-1.14-.56h-.06z" opacity=".6"/><path d="M17.16 12.48H15a.49.49 0 01-.48-.48V9.36a.49.49 0 01.48-.48h2.2a.48.48 0 01.48.48V12a.48.48 0 01-.52.48zm-1.72-1h1.25V9.84h-1.25zM8.31 12.48h-2.2a.48.48 0 01-.48-.48V9.37a.47.47 0 01.48-.48h2.2a.47.47 0 01.48.48V12a.48.48 0 01-.48.48zm-1.72-1h1.24V9.84H6.59z" fill="#fff" opacity=".5"/></svg>