<svg data-name="Layer 1" xmlns="http://www.w3.org/2000/svg" viewBox="0 0 200 200"><rect x="16.84" y="14.11" width="101.8" height="101.8" rx="50.9" transform="rotate(-84.74 67.746 65.01)" fill="#f7f8f8"/><rect x="85.41" y="75.66" width="101.8" height="101.8" rx="50.9" transform="rotate(-84.74 136.326 126.56)" fill="#edeef0"/><circle cx="129.15" cy="130.45" r="22.42" fill="none" stroke="#525b6c" stroke-linejoin="round" stroke-width="3.34"/><path d="M135.88 126c0 4.82-3 9-6.73 9s-6.73-4.15-6.73-9 3-6.73 6.73-6.73 6.73 1.88 6.73 6.73z" fill="none" stroke="#525b6c" stroke-linejoin="round" stroke-width="3.34"/><path d="M142.61 148.39V141a4.49 4.49 0 00-3.75-4.42l-9.71-1.62-9.71 1.62a4.48 4.48 0 00-3.74 4.42v7.41" fill="none" stroke="#525b6c" stroke-linejoin="round" stroke-width="3.34"/><circle cx="70.85" cy="130.45" r="22.42" fill="none" stroke="#525b6c" stroke-linejoin="round" stroke-width="3.34"/><path d="M77.58 126c0 4.82-3 9-6.73 9s-6.73-4.15-6.73-9 3-6.73 6.73-6.73 6.73 1.88 6.73 6.73z" fill="none" stroke="#525b6c" stroke-linejoin="round" stroke-width="3.34"/><path d="M84.3 148.39V141a4.48 4.48 0 00-3.74-4.42l-9.71-1.62-9.71 1.62a4.49 4.49 0 00-3.75 4.42v7.41" fill="none" stroke="#525b6c" stroke-linejoin="round" stroke-width="3.34"/><circle cx="129.15" cy="72.15" r="22.42" fill="none" stroke="#525b6c" stroke-linejoin="round" stroke-width="3.34"/><path d="M135.88 67.67c0 4.81-3 9-6.73 9s-6.73-4.16-6.73-9 3-6.73 6.73-6.73 6.73 1.91 6.73 6.73z" fill="none" stroke="#525b6c" stroke-linejoin="round" stroke-width="3.34"/><path d="M142.61 90.09v-7.41a4.51 4.51 0 00-3.75-4.43l-9.71-1.61-9.71 1.61a4.5 4.5 0 00-3.74 4.43v7.41" fill="none" stroke="#525b6c" stroke-linejoin="round" stroke-width="3.34"/><circle cx="70.85" cy="72.15" r="22.42" fill="none" stroke="#525b6c" stroke-linejoin="round" stroke-width="3.34"/><path d="M77.58 67.67c0 4.81-3 9-6.73 9s-6.73-4.16-6.73-9 3-6.73 6.73-6.73 6.73 1.91 6.73 6.73z" fill="none" stroke="#525b6c" stroke-linejoin="round" stroke-width="3.34"/><path d="M84.3 90.09v-7.41a4.5 4.5 0 00-3.74-4.43l-9.71-1.61-9.71 1.61a4.51 4.51 0 00-3.75 4.43v7.41M129.15 94.58v13.45M70.85 94.58v13.45M93.27 72.15h13.46M93.27 130.45h13.46" fill="none" stroke="#525b6c" stroke-linejoin="round" stroke-width="3.34"/></svg>