<svg data-name="Layer 1" xmlns="http://www.w3.org/2000/svg" viewBox="0 0 200 200"><path d="M99.07 88.42l45.16 36.11a2 2 0 01-.58 3.44l-54.41 19.55a2 2 0 01-2.64-2.21l9.25-55.66a2 2 0 013.22-1.23z" fill="#effcf4"/><rect x="110.47" y="27.37" width="55.09" height="55.09" rx="2" transform="rotate(-23.99 138 54.9)" fill="#abeec7"/><rect x="20.1" y="44.11" width="58.91" height="58.91" rx="2" transform="rotate(-8.12 49.573 73.609)" fill="#cdf5de"/><circle cx="127.93" cy="84.08" r="25.61" fill="none" stroke="#2dd473" stroke-linecap="round" stroke-linejoin="round" stroke-width="3"/><path d="M134.92 79.43c0 5-3.13 9.31-7 9.31s-7-4.31-7-9.31 3.13-7 7-7 7 2 7 7z" fill="none" stroke="#2dd473" stroke-linecap="round" stroke-linejoin="round" stroke-width="3"/><path d="M141.9 105V95a4.65 4.65 0 00-3.9-4.58l-10.08-1.68-10.07 1.68A4.64 4.64 0 00114 95v10" fill="none" stroke="#2dd473" stroke-linecap="round" stroke-linejoin="round" stroke-width="3"/><circle cx="72.07" cy="116.67" r="25.61" fill="none" stroke="#2dd473" stroke-linecap="round" stroke-linejoin="round" stroke-width="3"/><path d="M79.05 109.69c0 5-3.13 9.31-7 9.31s-7-4.31-7-9.31 3.13-7 7-7 7 2 7 7zM86 137.62v-12.35a4.65 4.65 0 00-3.89-4.59L72.07 119 62 120.68a4.66 4.66 0 00-3.89 4.59v12.35M117.68 117.42l-.29 20.8M127.93 127.97l-20.79-.3M78.28 57.72l-.29 20.8M88.53 68.27l-20.79-.3" fill="none" stroke="#2dd473" stroke-linecap="round" stroke-linejoin="round" stroke-width="3"/></svg>