<svg data-name="Layer 1" xmlns="http://www.w3.org/2000/svg" viewBox="0 0 200 200"><rect x="22.61" y="19.54" width="79.99" height="79.99" rx="2" fill="#fff2c0"/><path fill="#fffae6" d="M31.78 140.59l61.65-19.97-15.28 62.97-46.37-43z"/><rect x="108.21" y="89.37" width="71.87" height="71.87" rx="35.93" fill="#ffe682"/><path d="M63.47 63.47v-12.9h86v77.37l-21.49 21.49H63.47v-38.69" fill="none" stroke="#ffb206" stroke-linecap="round" stroke-linejoin="round" stroke-width="3"/><path fill="none" stroke="#ffb206" stroke-linecap="round" stroke-linejoin="round" stroke-width="3" d="M50.57 63.47h47.28v47.28H50.57z"/><path d="M80.66 80.66c0 4.61-2.89 8.6-6.45 8.6s-6.44-4-6.44-8.6 2.88-6.45 6.44-6.45 6.45 1.79 6.45 6.45zM87.11 102.15v-7.1a4.29 4.29 0 00-3.6-4.24l-9.3-1.55-9.3 1.55a4.29 4.29 0 00-3.59 4.24v7.1M127.94 149.43l21.49-21.49h-21.49v21.49zM125.49 67.77h13.19M108.6 67.77h8.59M108.6 78.51h23.63M129.79 89.26h8.89M108.6 89.26h12.89M108.6 100h30.08M108.6 110.74h19.34M106.15 121.49h13.19M74.21 121.49h23.64M97.55 132.23h13.19M74.21 132.23h15.05" fill="none" stroke="#ffb206" stroke-linecap="round" stroke-linejoin="round" stroke-width="3"/></svg>