<svg data-name="Layer 1" xmlns="http://www.w3.org/2000/svg" viewBox="0 0 26 26"><path d="M15.2 23.52a.5.5 0 01-.48-.39.49.49 0 01.38-.59 9.75 9.75 0 007.33-7.42.49.49 0 011 .21 10.72 10.72 0 01-8.08 8.17zm-4.4 0h-.11a10.72 10.72 0 01-8.08-8.17.48.48 0 01.39-.6.49.49 0 01.58.37 9.75 9.75 0 007.33 7.42.49.49 0 01.38.59.5.5 0 01-.49.39zm12.11-12.25a.49.49 0 01-.48-.39 9.75 9.75 0 00-7.33-7.42.49.49 0 01-.38-.59.49.49 0 01.59-.37 10.72 10.72 0 018.08 8.17.48.48 0 01-.38.58zm-19.82 0h-.1a.48.48 0 01-.38-.58 10.72 10.72 0 018.08-8.19.49.49 0 01.59.37.49.49 0 01-.38.59 9.75 9.75 0 00-7.33 7.42.49.49 0 01-.48.39z" fill="#fff" opacity=".5"/><path d="M16.8 17.28h-8a.49.49 0 01-.49-.5v-2.09a2.31 2.31 0 012.37-2.43h4.29a2.3 2.3 0 012.38 2.43v2.09a.5.5 0 01-.55.5zm-7.55-1h7.06v-1.6a1.32 1.32 0 00-1.39-1.44h-4.28a1.32 1.32 0 00-1.39 1.44z" opacity=".6"/><path d="M12.78 13.25a3 3 0 113-3 3 3 0 01-3 3zm0-5.05a2 2 0 102 2 2 2 0 00-2-2z" opacity=".6"/><path d="M15.26 10.45a.51.51 0 01-.31-.11c-.4-.32-.69-.27-1.21-.16a3.27 3.27 0 01-1.78 0c-1.5-.49-1.7-1.11-1.71-1.36a.49.49 0 01.46-.52.48.48 0 01.52.45 3.41 3.41 0 001 .49 2.32 2.32 0 001.28 0 2.15 2.15 0 012 .36.49.49 0 01.08.69.51.51 0 01-.33.16zM12.78 15.7a.49.49 0 01-.5-.49v-2.45a.5.5 0 111 0v2.45a.49.49 0 01-.5.49z" opacity=".6"/><path d="M13 5.47a2.74 2.74 0 112.71-2.73A2.73 2.73 0 0113 5.47zM13 1a1.75 1.75 0 101.72 1.75A1.73 1.73 0 0013 1zM13 26a2.74 2.74 0 112.71-2.74A2.73 2.73 0 0113 26zm0-4.48a1.75 1.75 0 101.72 1.74A1.73 1.73 0 0013 21.52zM23.15 15.73A2.73 2.73 0 1125.86 13a2.72 2.72 0 01-2.71 2.73zm0-4.48A1.75 1.75 0 1024.87 13a1.74 1.74 0 00-1.72-1.75zM2.85 15.73A2.73 2.73 0 115.56 13a2.72 2.72 0 01-2.71 2.73zm0-4.48a1.75 1.75 0 000 3.5 1.75 1.75 0 000-3.5z" fill="#fff" opacity=".5"/><path d="M13 5.47a2.74 2.74 0 112.71-2.73A2.73 2.73 0 0113 5.47zM13 1a1.75 1.75 0 101.72 1.75A1.73 1.73 0 0013 1zM13 26a2.74 2.74 0 112.71-2.74A2.73 2.73 0 0113 26zm0-4.48a1.75 1.75 0 101.72 1.74A1.73 1.73 0 0013 21.52zM23.15 15.73A2.73 2.73 0 1125.86 13a2.72 2.72 0 01-2.71 2.73zm0-4.48A1.75 1.75 0 1024.87 13a1.74 1.74 0 00-1.72-1.75zM2.85 15.73A2.73 2.73 0 115.56 13a2.72 2.72 0 01-2.71 2.73zm0-4.48a1.75 1.75 0 000 3.5 1.75 1.75 0 000-3.5z" fill="#fff" opacity=".5"/></svg>