<svg data-name="Layer 1" xmlns="http://www.w3.org/2000/svg" viewBox="0 0 26 26"><path d="M14.26 26h-2.52a2.27 2.27 0 01-2.27-2.26V23a10.2 10.2 0 01-1-.41l-.53.53a2.27 2.27 0 01-3.2 0L2.91 21.3a2.27 2.27 0 010-3.2l.44-.44a8.76 8.76 0 01-.49-1.13h-.59A2.27 2.27 0 010 14.26v-2.52a2.27 2.27 0 012.27-2.27h.5a11.5 11.5 0 01.49-1.22l-.35-.35a2.25 2.25 0 01-.66-1.6 2.29 2.29 0 01.66-1.6L4.7 2.92a2.26 2.26 0 011.6-.67 2.22 2.22 0 011.6.67l.35.34a11.5 11.5 0 011.22-.49v-.5A2.27 2.27 0 0111.74 0h2.52a2.27 2.27 0 012.27 2.27v.59a10.15 10.15 0 011.13.49l.44-.43a2.32 2.32 0 013.2 0l1.78 1.78a2.26 2.26 0 01.67 1.6 2.22 2.22 0 01-.67 1.6l-.52.53a10.2 10.2 0 01.41 1h.76A2.27 2.27 0 0126 11.74v2.52a2.27 2.27 0 01-2.27 2.27h-.85a10.2 10.2 0 01-.4 1l.6.61a2.25 2.25 0 010 3.2l-1.78 1.75a2.33 2.33 0 01-3.2 0l-.61-.61a9.77 9.77 0 01-1 .4v.86A2.27 2.27 0 0114.26 26zm-6-4.81a.55.55 0 01.28.07 9.56 9.56 0 001.69.66.63.63 0 01.45.6v1.22a1 1 0 001 1h2.52a1 1 0 001-1v-1.3a.61.61 0 01.43-.59 8.85 8.85 0 001.59-.68.64.64 0 01.74.11l.92.93a1.06 1.06 0 001.45 0l1.79-1.78a1.06 1.06 0 000-1.46l-.93-.92a.62.62 0 01-.11-.73 9.5 9.5 0 00.68-1.6.61.61 0 01.59-.43h1.29a1 1 0 001-1v-2.55a1 1 0 00-1-1h-1.12a.62.62 0 01-.6-.44 9.4 9.4 0 00-.66-1.69.61.61 0 01.11-.72l.84-.89a1 1 0 00.29-.72 1 1 0 00-.29-.72l-1.79-1.77a1.05 1.05 0 00-1.44 0l-.77.76a.61.61 0 01-.74.1 9 9 0 00-1.75-.75.62.62 0 01-.43-.6v-1a1 1 0 00-1-1h-2.55a1 1 0 00-1 1v1a.62.62 0 01-.46.59 9.12 9.12 0 00-1.84.75.61.61 0 01-.73-.11L7 3.79a.88.88 0 00-.73-.3 1.07 1.07 0 00-.72.3L3.79 5.58a1 1 0 00-.3.72 1 1 0 00.3.72l.67.67a.64.64 0 01.11.74 9.23 9.23 0 00-.75 1.84.62.62 0 01-.6.44h-1a1 1 0 00-1 1v2.52a1 1 0 001 1h1a.61.61 0 01.59.43 10.16 10.16 0 00.76 1.76.61.61 0 01-.1.74l-.68.84a1 1 0 000 1.45l1.79 1.78a1 1 0 001.45 0l.83-.84a.62.62 0 01.44-.2z" fill="#fff" opacity=".5"/><path d="M11.74 26a2.27 2.27 0 01-2.27-2.26V23a10.2 10.2 0 01-1-.41l-.53.53a2.27 2.27 0 01-3.2 0L2.91 21.3a2.27 2.27 0 010-3.2l.44-.44a8.76 8.76 0 01-.49-1.13h-.59A2.27 2.27 0 010 14.26v-2.52a2.27 2.27 0 012.27-2.27h.5a11.5 11.5 0 01.49-1.22l-.35-.35a2.25 2.25 0 01-.66-1.6 2.29 2.29 0 01.66-1.6L4.7 2.92a2.26 2.26 0 011.6-.67 2.22 2.22 0 011.6.67l.35.34a11.5 11.5 0 011.22-.49v-.5A2.27 2.27 0 0111.74 0a.62.62 0 01.62.62.62.62 0 01-.62.62 1 1 0 00-1 1v1a.62.62 0 01-.46.59 9.12 9.12 0 00-1.84.75.61.61 0 01-.73-.11L7 3.79a.88.88 0 00-.73-.3 1.07 1.07 0 00-.72.3L3.79 5.58a1 1 0 00-.3.72 1 1 0 00.3.72l.67.67a.64.64 0 01.11.74 9.23 9.23 0 00-.75 1.84.62.62 0 01-.6.44h-1a1 1 0 00-1 1v2.52a1 1 0 001 1h1a.61.61 0 01.59.43 10.16 10.16 0 00.76 1.76.61.61 0 01-.1.74l-.68.84a1 1 0 000 1.45l1.79 1.78a1 1 0 001.45 0l.83-.84a.62.62 0 01.72-.11 9.56 9.56 0 001.69.66.63.63 0 01.45.6v1.22a1 1 0 001 1 .62.62 0 110 1.24z" fill="#fff" opacity=".5"/><path d="M13 18.89A5.89 5.89 0 1118.89 13 5.89 5.89 0 0113 18.89zm0-10.54A4.65 4.65 0 1017.65 13 4.66 4.66 0 0013 8.35z" opacity=".6"/></svg>