<svg data-name="Layer 1" xmlns="http://www.w3.org/2000/svg" viewBox="0 0 200 200"><path d="M79 116.44l45.16 36.11a2 2 0 01-.57 3.44L69.2 175.54a2 2 0 01-2.65-2.21l9.25-55.66a2 2 0 013.2-1.23z" fill="#eedff7"/><rect x="7.78" y="57.27" width="71.87" height="71.87" rx="35.93" fill="#e2caf1"/><rect x="77.12" y="6.85" width="95.62" height="95.62" rx="47.81" fill="#f3eaf9"/><circle cx="93.61" cy="93.61" r="42.62" fill="none" stroke="#8d2cc6" stroke-linecap="round" stroke-linejoin="round" stroke-width="2.79"/><path fill="none" stroke="#8d2cc6" stroke-linecap="round" stroke-linejoin="round" stroke-width="2.79" d="M117.05 129.83l19.17 19.18 12.79-12.79-19.18-19.17M87.21 108.52c0 5.89-3.81 10.66-8.52 10.66s-8.52-4.77-8.52-10.66S74 100 78.69 100s8.52 2.64 8.52 8.52zM62.36 122.58a8.49 8.49 0 014.74-2.11l11.59-1.29M117.05 108.52c0 5.89-3.82 10.66-8.53 10.66s-8.52-4.77-8.52-10.66 3.82-8.52 8.52-8.52 8.53 2.64 8.53 8.52zM89.35 134.09v-5.15a8.51 8.51 0 017.58-8.47l11.59-1.29"/><path d="M124.85 122.58a8.42 8.42 0 00-4.73-2.11l-11.6-1.29M102.13 68c0 5.88-3.82 10.65-8.52 10.65S85.08 73.92 85.08 68s3.82-8.53 8.53-8.53 8.52 2.68 8.52 8.53zM74.43 95.74v-7.29A8.53 8.53 0 0182 80l11.6-1.29M82.95 89.35v6.39M112.79 95.74v-7.29A8.53 8.53 0 00105.2 80l-11.59-1.31M104.26 89.35v6.39" fill="none" stroke="#8d2cc6" stroke-linecap="round" stroke-linejoin="round" stroke-width="2.79"/></svg>