<svg data-name="Layer 1" xmlns="http://www.w3.org/2000/svg" viewBox="0 0 200 200"><path fill="#fef6f4" d="M76.4 136.76l61.65-19.97-15.28 62.98-46.37-43.01z"/><rect x="106.29" y="24.8" width="68.4" height="68.4" rx="34.2" transform="rotate(-84.74 140.496 58.994)" fill="#fbd0c5"/><rect x="15.84" y="52.51" width="68.4" height="68.4" rx="34.2" transform="rotate(-84.74 50.042 86.72)" fill="#ffefec"/><circle cx="100" cy="100" r="24.09" fill="none" stroke="#f1613c" stroke-linecap="round" stroke-linejoin="round" stroke-width="3"/><path d="M107.23 95.18c0 5.18-3.24 9.64-7.23 9.64s-7.23-4.46-7.23-9.64S96 88 100 88s7.23 2 7.23 7.18z" fill="none" stroke="#f1613c" stroke-linecap="round" stroke-linejoin="round" stroke-width="3"/><path d="M114.45 119.27v-8a4.8 4.8 0 00-4-4.75l-10.45-1.7-10.43 1.74a4.8 4.8 0 00-4 4.75v8M143.36 56.64l-21.68 21.68M128.91 56.64h14.45v14.45M56.64 56.64l21.68 21.68M56.64 71.09V56.64h14.45M56.64 143.36l21.68-21.68M71.09 143.36H56.64v-14.45M143.36 143.36l-21.68-21.68M143.36 128.91v14.45h-14.45M145.77 90.36l9.64 9.64-9.64 9.64M131.32 100H153M54.23 109.64L44.59 100l9.64-9.64M68.68 100H47M90.36 54.23l9.64-9.64 9.64 9.64M100 68.68V47M109.64 145.77l-9.64 9.64-9.64-9.64M100 131.32V153" fill="none" stroke="#f1613c" stroke-linecap="round" stroke-linejoin="round" stroke-width="3"/></svg>