<svg xmlns="http://www.w3.org/2000/svg" id="icn-icn-snap-2" viewBox="0 0 24 24"><title>snapchat</title><g class="nc-icon-wrapper"><path  d="M12 .58a6.63 6.63 0 0 1 6.57 6.57c0 .84 0 1.62.07 2.33a.83.83 0 0 0 .87.77h.14l1.11-.25a.62.62 0 0 1 .75.46.82.82 0 0 1-.53 1l-1.7.69a.91.91 0 0 0-.54 1.09c1.36 5 5.18 4.52 5.18 5.18 0 .83-2.88.95-3.14 1.21s0 1.52-.59 1.76a1.19 1.19 0 0 1-.46.06c-.43 0-1.05-.09-1.7-.09a4 4 0 0 0-1.68.31c-1.37.63-2.7 1.82-4.35 1.82s-3-1.26-4.35-1.89A4 4 0 0 0 6 21.29c-.65 0-1.27.09-1.7.09a1.19 1.19 0 0 1-.46-.06c-.58-.24-.33-1.5-.59-1.76S.08 19.18.08 18.35c0-.66 3.82-.13 5.18-5.18a.91.91 0 0 0-.54-1.09L3 11.39a.82.82 0 0 1-.53-1 .62.62 0 0 1 .77-.39l1.12.26a.82.82 0 0 0 1-.61.58.58 0 0 0 0-.14c0-.71.07-1.48.07-2.33A6.6 6.6 0 0 1 12 .58"/></g></svg>