<svg id="Layer_1" data-name="Layer 1" xmlns="http://www.w3.org/2000/svg" viewBox="0 0 200 200"><title>cloud_1</title><rect x="10.06" y="130.16" width="68.55" height="3" style="fill:#fff"/><rect x="74.22" y="140.41" width="68.55" height="3" style="fill:#fff"/><rect x="140.29" y="130.16" width="47.5" height="3" style="fill:#fff"/><path d="M188.51,121.86a13.56,13.56,0,0,0-13-9.53,15.11,15.11,0,0,0-2.93.4l-1.42.28-.35-1.41A23.2,23.2,0,0,0,148,93.74a22.81,22.81,0,0,0-12.57,3.64l-1.92,1.28-.39-2.28a43.83,43.83,0,0,0-85.68-4l-.29,1.12H44.71a22.09,22.09,0,0,0-22.06,22.06,23.77,23.77,0,0,0,.61,5.3l-2.92.65a26.1,26.1,0,0,1-.69-6A25.09,25.09,0,0,1,44.71,90.52h.15a46.82,46.82,0,0,1,90.82,3.23,26.52,26.52,0,0,1,37.64,15.78,12.62,12.62,0,0,1,2.14-.2A16.55,16.55,0,0,1,191.38,121Z" style="fill:#fff"/></svg>