<svg id="Layer_1" data-name="Layer 1" xmlns="http://www.w3.org/2000/svg" viewBox="0 0 200 200"><title>workforce</title><path d="M175.57,163l-42.43-42.43,58-15.53Zm-36.63-40.87L174,157.2l12.84-47.92Z" style="fill:#fff"/><path d="M28.93,124.31a73.86,73.86,0,0,1-1.36-14,73.08,73.08,0,0,1,31.3-59.9l1.72,2.46a70.09,70.09,0,0,0-30,57.44,71.13,71.13,0,0,0,1.3,13.46Z" style="fill:#fff"/><path d="M170,101.46A69.86,69.86,0,0,0,126,45.1l1.09-2.8A72.88,72.88,0,0,1,173,101.09Z" style="fill:#fff"/><path d="M100.56,183.27a72.44,72.44,0,0,1-28.95-6l1.19-2.75a70,70,0,0,0,81.45-19.38l2.3,1.92A72.84,72.84,0,0,1,100.56,183.27Z" style="fill:#fff"/><path d="M92.22,69.91a28.21,28.21,0,1,1,28.2-28.2A28.23,28.23,0,0,1,92.22,69.91Zm0-53.41a25.21,25.21,0,1,0,25.2,25.21A25.24,25.24,0,0,0,92.22,16.5Z" style="fill:#fff"/><path d="M35.23,187.07,9,145.26,50.76,119,77,160.79ZM13.09,146.2l23.09,36.73,36.73-23.08L49.82,123.12Z" style="fill:#fff"/></svg>