<svg class="icon icon-broadband-int" xmlns="http://www.w3.org/2000/svg" id="Layer_1" data-name="Layer 1" viewBox="0 0 216 216">
<style>.cl_base{fill:#0050BA}.cl_lightest{fill:#93B5E5}.cl_lighter{fill:#5C8FD3}.cl_accent{fill:#FFDA85}</style>
    <title>
        Internet Association Broadband Internet Access Icon
    </title>
  <g class="broadband-int">
   <g class="outer-circ">
      <path d="M54.4 108.8c-13.9 0-27.9-5.3-38.5-15.9-21.2-21.2-21.2-55.8 0-77 21.2-21.2 55.8-21.2 77 0 21.2 21.2 21.2 55.8 0 77-10.6 10.6-24.6 15.9-38.5 15.9zM54.4 2C41 2 27.6 7.1 17.3 17.3-3.1 37.8-3.1 71 17.3 91.5c20.4 20.4 53.7 20.4 74.2 0 20.4-20.4 20.4-53.7 0-74.2C81.3 7.1 67.8 2 54.4 2z" class="cl_base" transform="translate(16.161 16.161) scale(1.68821)"/>
      <path d="M92.2 93.2c-.3 0-.5-.1-.7-.3-.4-.4-.4-1 0-1.4 20.4-20.4 20.4-53.7 0-74.2C71-3.1 37.8-3.1 17.3 17.3c-.4.4-1 .4-1.4 0s-.4-1 0-1.4c21.2-21.2 55.8-21.2 77 0 21.2 21.2 21.2 55.8 0 77-.2.2-.5.3-.7.3z" class="cl_lighter" transform="translate(16.161 16.161) scale(1.68821)"/>
    </g>
    <g class="inner-section">
      <path class="cl_base pole" d="M108 163.77c-1.1 0-2-.9-2-2v-48.32c0-1.1.9-2 2-2s2 .9 2 2v48.32c0 1.1-.9 2-2 2z"/>
      <path class="cl_accent pole-light" d="M108 115.45c-3.96 0-7.18-3.22-7.18-7.18s3.22-7.18 7.18-7.18 7.18 3.22 7.18 7.18-3.22 7.18-7.18 7.18zm0-10.36c-1.75 0-3.18 1.43-3.18 3.18s1.43 3.18 3.18 3.18 3.18-1.43 3.18-3.18-1.43-3.18-3.18-3.18z"/>
<g class="outer-center-circ circ-turn">
      <path class="cl_lighter" d="M55.23 81.94C64.92 62.6 84.93 49.29 108 49.29c32.52 0 58.98 26.46 58.98 58.98 0 20.57-10.5 39.33-28.1 50.18a1.99 1.99 0 01-2.75-.65c-.58-.94-.29-2.17.65-2.75 16.4-10.12 26.2-27.6 26.2-46.78 0-30.32-24.67-54.98-54.98-54.98-21.25 0-39.72 12.12-48.87 29.8l-3.9-1.15z"/>
      <path class="cl_lightest" d="M55.74 81.06c6.56-12.55 17.53-22.68 31.22-27.91 1.03-.39 2.19.12 2.58 1.15s-.12 2.19-1.15 2.58C75.77 61.7 65.61 71 59.48 82.53l-3.74-1.47zM55.72 91.35a54.481 54.481 0 00-2.7 16.92c0 19.17 9.79 36.66 26.2 46.78.94.58 1.23 1.81.65 2.75-.38.61-1.03.95-1.7.95-.36 0-.72-.1-1.05-.3-17.59-10.85-28.1-29.61-28.1-50.18 0-6.42 1.06-12.69 3.05-18.6l3.65 1.68z"/>
      <path class="cl_lightest" d="M56 93.45c-3.96 0-7.18-3.22-7.18-7.18s3.22-7.18 7.18-7.18 7.18 3.22 7.18 7.18-3.22 7.18-7.18 7.18zm0-10.36c-1.75 0-3.18 1.43-3.18 3.18s1.43 3.18 3.18 3.18 3.18-1.43 3.18-3.18-1.43-3.18-3.18-3.18z"/>
</g>
<g class="center-circ circ-rev-turn">
      <path class="cl_lighter" d="M129.99 89.27C124.65 83.1 116.77 79.2 108 79.2c-16.04 0-29.08 13.05-29.08 29.08 0 10.14 5.18 19.39 13.86 24.74.94.58 1.23 1.81.65 2.75s-1.81 1.23-2.75.65c-9.87-6.08-15.76-16.61-15.76-28.15 0-18.24 14.84-33.08 33.08-33.08 9.95 0 18.89 4.41 24.96 11.39l-2.97 2.69z"/>
      <path class="cl_lightest" d="M137.94 94.18c2.03 4.31 3.14 9.1 3.14 14.1 0 11.54-5.89 22.06-15.76 28.15a1.99 1.99 0 01-2.75-.65c-.58-.94-.29-2.17.65-2.75 8.68-5.35 13.86-14.6 13.86-24.74 0-4.25-.92-8.33-2.59-12.03l3.45-2.08zM129.91 89.13a29.048 29.048 0 00-12.71-8.45 1.995 1.995 0 01-1.26-2.53 2.008 2.008 0 012.53-1.27 33.067 33.067 0 0114.42 9.57l-2.98 2.68z"/>
      <path class="cl_lightest" d="M134 98.45c-3.96 0-7.18-3.22-7.18-7.18s3.22-7.18 7.18-7.18 7.18 3.22 7.18 7.18-3.22 7.18-7.18 7.18zm0-10.36c-1.75 0-3.18 1.43-3.18 3.18s1.43 3.18 3.18 3.18 3.18-1.43 3.18-3.18-1.43-3.18-3.18-3.18z"/>
    </g>
    </g>
  </g>
</svg>
