<svg class="icon icon-cloud" xmlns="http://www.w3.org/2000/svg" width="150" height="150" viewBox="0 0 216 216">
  <style>.cl_base{fill:#0050BA}.cl_lightest{fill:#93B5E5}.cl_lighter{fill:#5C8FD3}.cl_accent{fill:#FFC34A}</style>

    <title>
        Internet Association Enterprise Cloud Icon
    </title>
  <g class="cloud">
       <g class="outer-circ">
      <path d="M54.4 108.8c-13.9 0-27.9-5.3-38.5-15.9-21.2-21.2-21.2-55.8 0-77 21.2-21.2 55.8-21.2 77 0 21.2 21.2 21.2 55.8 0 77-10.6 10.6-24.6 15.9-38.5 15.9zM54.4 2C41 2 27.6 7.1 17.3 17.3-3.1 37.8-3.1 71 17.3 91.5c20.4 20.4 53.7 20.4 74.2 0 20.4-20.4 20.4-53.7 0-74.2C81.3 7.1 67.8 2 54.4 2z" class="cl_base" transform="translate(16.161 16.161) scale(1.68821)"/>
      <path d="M92.2 93.2c-.3 0-.5-.1-.7-.3-.4-.4-.4-1 0-1.4 20.4-20.4 20.4-53.7 0-74.2C71-3.1 37.8-3.1 17.3 17.3c-.4.4-1 .4-1.4 0s-.4-1 0-1.4c21.2-21.2 55.8-21.2 77 0 21.2 21.2 21.2 55.8 0 77-.2.2-.5.3-.7.3z" class="cl_lighter" transform="translate(16.161 16.161) scale(1.68821)"/>
    </g>
    <g class="inner-element">
        <g id="cloud">
          <path class="cl_lightest" d="M151.4 87.4c-.2 0-.3 0-.5-.1-1-.3-1.5-1.3-1.2-2.2 2.5-8.5-2.9-17.2-12.2-19.9-4-1.3-8.4-1.1-12.2.7-3.7 1.9-6.4 5.2-7.4 9.2-.3 1-1.3 1.5-2.2 1.2-1-.3-1.5-1.3-1.2-2.2 3.1-10.5 13-15.6 24.1-12.4s17.7 14 14.6 24.4c-.3.8-1 1.3-1.8 1.3z"/>
          <path class="cl_lighter" d="M149.4 132.7h-16.9c-1 0-1.8-.8-1.8-1.8s.8-1.8 1.8-1.8h16.9c11.3 0 20.5-9.2 20.5-20.5s-9.2-20.5-20.5-20.5c-1.4 0-2.9.2-4.3.4-1 .2-1.9-.4-2.1-1.4-.2-1 .4-1.9 1.4-2.2 1.6-.4 3.3-.5 5-.5 13.3-.3 24.4 10.3 24.6 23.6s-10.3 24.4-23.6 24.6c-.4.1-.7.1-1 .1zM69.1 84.2c-1 0-1.8-.8-1.8-1.8-.2-6.8 2.3-13.3 7.1-18.2 4.8-4.8 11.2-7.6 18-7.7 14.2-.4 26.1 10.8 26.5 25.1 0 1-.7 1.8-1.7 1.9-1 0-1.8-.8-1.8-1.8-.3-12.3-10.5-21.9-22.8-21.6-5.8.1-11.4 2.5-15.5 6.6-4 4.1-6.2 9.7-6 15.5 0 1-.8 1.8-1.8 1.9h-.2z"/>
          <path class="cl_base" d="M82.3 131.6H67.1c-14.1 0-25.6-11.4-25.6-25.6 0-14.1 11.4-25.6 25.6-25.6 6 0 11.8 2.1 16.4 5.9.8.6 1 1.7.4 2.5s-1.7 1-2.5.4c-.1-.1-.2-.1-.3-.2-9.3-7.8-23.1-6.5-30.9 2.8S43.7 115.2 53 123c3.9 3.3 8.9 5.1 14 5.1h15.3c1 0 1.8.8 1.8 1.8 0 .9-.8 1.8-1.8 1.7z"/>
        </g>
        <g class="cloud-arrow-up">
          <path class="cl_accent" d="M114 127.6c-.9 0-1.6-.7-1.6-1.6v-17.5c0-.9.7-1.6 1.6-1.6s1.6.7 1.6 1.6V126c0 .9-.7 1.6-1.6 1.6z"/>
          <path class="cl_accent" d="M114 131.6c-.9 0-1.6-.7-1.6-1.6v-10.5c0-.9.7-1.6 1.6-1.6s1.6.7 1.6 1.6V130c0 .9-.7 1.6-1.6 1.6z"/>
          <path class="cl_accent" d="M122.6 113.4l-7.5-7s-.1 0-.1-.1l-.1-.1-.1-.1-.1-.1H114.4h-.4H113.7h-.1c-.1 0-.1 0-.2.1 0 0-.1 0-.1.1 0 0-.1 0-.1.1l-.1.1s-.1 0-.1.1l-7.4 7c-.6.6-.7 1.6-.1 2.3.3.3.7.5 1.2.5.4 0 .8-.1 1.1-.4l6.3-6 6.4 6c.3.3.7.4 1.1.4.4 0 .9-.2 1.2-.5.5-.8.4-1.8-.2-2.4z"/>
        </g>
        <g class="cloud-arrow-down">
          <path class="cl_accent" d="M102 132.6c-.9 0-1.6-.7-1.6-1.6v-11.5c0-.9.7-1.6 1.6-1.6s1.6.7 1.6 1.6V131c0 .9-.7 1.6-1.6 1.6z"/>
          <path class="cl_accent" d="M102 141.6c-.9 0-1.6-.7-1.6-1.6v-9.5c0-.9.7-1.6 1.6-1.6s1.6.7 1.6 1.6v9.5c0 .9-.7 1.6-1.6 1.6z"/>
          <path class="cl_accent" d="M110.7 133.5c-.6-.6-1.6-.7-2.3-.1l-6.4 6-6.3-6c-.6-.6-1.7-.6-2.3.1s-.6 1.7.1 2.3l7.4 7c.1.1.3.2.5.3.2.1.4.1.5.1.2 0 .4 0 .5-.1h.1c.2-.1.3-.2.5-.3l7.5-7c.7-.6.8-1.6.2-2.3z"/>
        </g>
        <g class="arrow-ring">
          <path class="cl_lighter" d="M108 151.1c-14.7 0-26.6-11.9-26.6-26.6S93.3 97.9 108 97.9s26.6 11.9 26.6 26.6-11.9 26.6-26.6 26.6zm0-50c-12.9 0-23.4 10.5-23.4 23.4s10.5 23.4 23.4 23.4 23.4-10.5 23.4-23.4-10.5-23.4-23.4-23.4z"/>
          <path class="cl_lightest" d="M108 151.1c-14.7 0-26.6-11.9-26.6-26.6 0-.9.7-1.6 1.6-1.6s1.6.7 1.6 1.6c0 12.9 10.5 23.4 23.4 23.4.9 0 1.6.7 1.6 1.6s-.7 1.6-1.6 1.6z"/>
        </g>

    </g>
  </g>
</svg>