<svg class="icon icon_int-property" xmlns="http://www.w3.org/2000/svg" width="150" height="150" viewBox="0 0 216.7 216.7">
  <defs>
      <style>.cl_base{fill:#0050BA}.cl_lightest{fill:#93B5E5}.cl_lighter{fill:#5C8FD3}.cl_accent{fill:#FFC34A}</style>

  </defs>
  <title>
    Internet Association Intellectual Property Icon
  </title>
       <g class="outer-circ">
      <path d="M54.4 108.8c-13.9 0-27.9-5.3-38.5-15.9-21.2-21.2-21.2-55.8 0-77 21.2-21.2 55.8-21.2 77 0 21.2 21.2 21.2 55.8 0 77-10.6 10.6-24.6 15.9-38.5 15.9zM54.4 2C41 2 27.6 7.1 17.3 17.3-3.1 37.8-3.1 71 17.3 91.5c20.4 20.4 53.7 20.4 74.2 0 20.4-20.4 20.4-53.7 0-74.2C81.3 7.1 67.8 2 54.4 2z" class="cl_base" transform="translate(16.161 16.161) scale(1.68821)"/>
      <path d="M92.2 93.2c-.3 0-.5-.1-.7-.3-.4-.4-.4-1 0-1.4 20.4-20.4 20.4-53.7 0-74.2C71-3.1 37.8-3.1 17.3 17.3c-.4.4-1 .4-1.4 0s-.4-1 0-1.4c21.2-21.2 55.8-21.2 77 0 21.2 21.2 21.2 55.8 0 77-.2.2-.5.3-.7.3z" class="cl_lighter" transform="translate(16.161 16.161) scale(1.68821)"/>
    </g>
  <g class="lower-bulb">
    <path d="M125.8 156.2H89.7c-1 0-1.7-.8-1.7-1.7 0-1 .8-1.7 1.7-1.7h36.1c1 0 1.7.8 1.7 1.7.1.9-.7 1.7-1.7 1.7z" class="cl_lighter"/>
    <path d="M125.8 156.2H89.7c-1 0-1.7-.8-1.7-1.7 0-1 .8-1.7 1.7-1.7h36.1c1 0 1.7.8 1.7 1.7.1.9-.7 1.7-1.7 1.7zM125.8 163.2H89.7c-1 0-1.7-.8-1.7-1.7 0-1 .8-1.7 1.7-1.7h36.1c1 0 1.7.8 1.7 1.7.1.9-.7 1.7-1.7 1.7z" class="cl_lighter"/>
    <path d="M125.8 163.2H89.7c-1 0-1.7-.8-1.7-1.7 0-1 .8-1.7 1.7-1.7h36.1c1 0 1.7.8 1.7 1.7.1.9-.7 1.7-1.7 1.7zM121.7 170H93.8c-1 0-1.7-.8-1.7-1.7 0-1 .8-1.7 1.7-1.7h27.9c1 0 1.7.8 1.7 1.7.1.9-.7 1.7-1.7 1.7z" class="cl_lighter"/>
    <path d="M121.7 170H93.8c-1 0-1.7-.8-1.7-1.7 0-1 .8-1.7 1.7-1.7h27.9c1 0 1.7.8 1.7 1.7.1.9-.7 1.7-1.7 1.7z" class="cl_lighter"/>
      <path d="M109.5 156.2H89.7c-1 0-1.7-.8-1.7-1.7 0-1 .8-1.7 1.7-1.7h19.8c1 0 1.7.8 1.7 1.7.1.9-.7 1.7-1.7 1.7z" class="cl_lightest"/>
      <path d="M109.5 170H93.8c-1 0-1.7-.8-1.7-1.7 0-1 .8-1.7 1.7-1.7h15.7c1 0 1.7.8 1.7 1.7.1.9-.7 1.7-1.7 1.7z" class="cl_lightest"/>
      <path d="M125.8 163.2h-21.1c-1 0-1.7-.8-1.7-1.7 0-1 .8-1.7 1.7-1.7h21.1c1 0 1.7.8 1.7 1.7.1.9-.7 1.7-1.7 1.7z" class="cl_lightest"/>
  </g>
  <g class="upper-bulb">
    <path d="M125.6 145.9c-1 0-1.7-.8-1.7-1.7v-.7c0-9.8 3.4-19.4 9.7-27.6 4.4-5.5 6.6-12.4 6.6-19.8 0-8.7-3.6-16.9-10.1-23-6.6-6.3-15.3-9.5-24.5-9C89.4 65 76.1 78.6 75.3 95c-.2 7.8 2.1 15.3 6.6 20.9 6.4 8.1 9.8 17.5 9.8 27.5v.7c0 1-.8 1.7-1.7 1.7-1 0-1.7-.8-1.7-1.7v-.7c0-9.1-3.1-17.9-9-25.3-5-6.3-7.6-14.5-7.4-23.2.9-18.2 15.7-33.3 33.7-34.5 10.1-.5 19.7 3 27.1 10 7.2 6.8 11.1 15.9 11.1 25.6 0 8.2-2.6 15.8-7.4 21.9-5.9 7.6-9 16.5-9 25.5v.7c-.1 1-.8 1.8-1.8 1.8z" class="cl_base"/>
  </g>
  <g class="upper-bulb-filament">
        <path d="M107.7 145.9c-1 0-1.7-.8-1.7-1.7v-34c0-1 .8-1.7 1.7-1.7 1 0 1.7.8 1.7 1.7v34c.1.9-.7 1.7-1.7 1.7z" class="cl_lighter"/>
      <path d="M107.7 145.9c-1 0-1.7-.8-1.7-1.7v-13.4c0-1 .8-1.7 1.7-1.7 1 0 1.7.8 1.7 1.7v13.4c.1.9-.7 1.7-1.7 1.7z" class="cl_lightest"/>
      <path d="M107.7 111.9c-4.8 0-8.7-3.9-8.7-8.7 0-4.8 3.9-8.7 8.7-8.7 4.8 0 8.7 3.9 8.7 8.7 0 4.8-3.9 8.7-8.7 8.7zm0-13.8c-2.8 0-5.2 2.3-5.2 5.2s2.3 5.2 5.2 5.2 5.2-2.3 5.2-5.2-2.3-5.2-5.2-5.2z" class="cl_accent"/>
  </g>
  <g class="outer-bulb">
    <path d="M139.8 162.3c-.2 0-.3 0-.5-.1-.9-.3-1.5-1.2-1.2-2.1l2.7-9.9c.2-.8.9-1.3 1.7-1.3h8.5v-8.8c0-.8.5-1.5 1.3-1.7l8.5-2.3-2.3-8.5c-.2-.8.1-1.6.8-2l7.5-4.3-4.2-7.5c-.4-.7-.3-1.5.3-2.1l6-6.3-6-6c-.6-.6-.7-1.4-.3-2.1l4.3-7.5-7.6-4.5c-.7-.4-1-1.2-.8-2l2.2-8.2-8.5-2.3c-.8-.2-1.3-.9-1.3-1.7v-8.8h-8.5c-.8 0-1.5-.5-1.7-1.3l-2.3-8.5-8.5 2.3c-.8.2-1.6-.1-2-.8l-4.2-7.5-7.5 4.5c-.7.4-1.6.3-2.1-.3l-6.3-6.3-6.3 6.3c-.6.6-1.4.7-2.1.3L92 46.6 87.8 54c-.4.7-1.2 1-2 .8l-8.5-2.3-2.3 8.6c-.2.8-.9 1.3-1.7 1.3h-8.5v8.8c0 .8-.5 1.5-1.3 1.7L55 75.2l2.2 8.2c.2.8-.1 1.6-.8 2l-7.6 4.5 4.3 7.5c.4.7.3 1.5-.3 2.1l-6 6 6 6.3c.5.6.6 1.4.3 2.1l-4.2 7.5 7.5 4.3c.7.4 1 1.2.8 2l-2.3 8.5 8.5 2.3c.8.2 1.3.9 1.3 1.7v8.8h8.5c.8 0 1.5.5 1.7 1.3l2.7 9.9c.3.9-.3 1.9-1.2 2.1-.9.3-1.9-.3-2.1-1.2l-2.4-8.6H63c-1 0-1.7-.8-1.7-1.7v-9.2l-8.9-2.4c-.9-.2-1.5-1.2-1.2-2.1l2.4-8.9-7.8-4.5c-.8-.5-1.1-1.5-.7-2.4l4.5-7.9-6.3-6.6c-.7-.7-.6-1.8 0-2.4l6.3-6.3-4.6-8c-.5-.8-.2-1.9.6-2.4l7.9-4.7-2.4-8.6c-.1-.4-.1-.9.2-1.3.2-.4.6-.7 1.1-.8l8.9-2.4v-9.2c0-1 .8-1.7 1.7-1.7h9l2.4-8.9c.2-.9 1.2-1.5 2.1-1.2l8.9 2.4 4.5-7.9c.2-.4.6-.7 1.1-.8.5-.1.9-.1 1.3.2l7.9 4.7 6.6-6.6c.7-.7 1.8-.7 2.5 0l6.6 6.6 7.9-4.7c.4-.2.9-.3 1.3-.2.5.1.8.4 1.1.8l4.5 7.9 8.9-2.4c.9-.2 1.9.3 2.1 1.2l2.4 8.9h8.9c1 0 1.7.8 1.7 1.7v9.2l8.9 2.4c.4.1.8.4 1.1.8.2.4.3.9.2 1.3l-2.4 8.6 7.9 4.7c.8.5 1.1 1.5.6 2.4l-4.5 7.9 6.3 6.3c.7.7.7 1.8 0 2.4l-6.3 6.6 4.5 7.9c.5.8.2 1.9-.7 2.4l-7.8 4.5 2.4 8.9c.2.9-.3 1.9-1.2 2.1l-8.9 2.4v9.2c0 1-.8 1.7-1.7 1.7h-8.9l-2.4 8.6c-.5.8-1.2 1.3-2 1.3z" class="cl_lightest"/>
    <path d="M76 162.3c-.8 0-1.5-.5-1.7-1.3l-2.4-8.6H63c-1 0-1.7-.8-1.7-1.7v-9.2l-8.9-2.4c-.9-.2-1.5-1.2-1.2-2.1l2.4-8.9-7.8-4.5c-.8-.5-1.1-1.5-.7-2.4l4.5-7.9-6.3-6.6c-.7-.7-.6-1.8 0-2.4l6.3-6.3-4.6-7.9c-.5-.8-.2-1.9.7-2.4.8-.5 1.9-.2 2.4.7l5.1 9c.4.7.3 1.5-.3 2.1l-6 6 6 6.3c.5.6.6 1.4.3 2.1l-4.2 7.5 7.5 4.3c.7.4 1 1.2.8 2l-2.3 8.5 8.5 2.3c.8.2 1.3.9 1.3 1.7v8.8h8.5c.8 0 1.5.5 1.7 1.3l2.7 9.9c.3.9-.3 1.9-1.2 2.1H76z" class="cl_lighter"/>
      <path d="M139.8 162.3c-.2 0-.3 0-.5-.1-.9-.3-1.5-1.2-1.2-2.1l2.7-9.9c.2-.8.9-1.3 1.7-1.3h8.5v-8.8c0-.8.5-1.5 1.3-1.7l8.5-2.3-2.3-8.5c-.2-.8.1-1.6.8-2l7.5-4.3-4.2-7.5c-.4-.7-.3-1.5.3-2.1l6-6.3-6-6c-.6-.6-.7-1.4-.3-2.1l5.1-9c.5-.8 1.5-1.1 2.4-.7.8.5 1.1 1.5.7 2.4l-4.5 7.9 6.3 6.3c.7.7.7 1.8 0 2.4l-6.3 6.6 4.5 7.9c.5.8.2 1.9-.7 2.4l-7.8 4.5 2.4 8.9c.2.9-.3 1.9-1.2 2.1l-8.9 2.4v9.2c0 1-.8 1.7-1.7 1.7H144l-2.4 8.6c-.3.9-1 1.4-1.8 1.4z" class="cl_lighter"/>
  </g>
</svg>