<svg class="icon icon-trade" xmlns="http://www.w3.org/2000/svg" width="150" height="150" viewBox="0 0 216.7 216.7">
  <defs>
  <style>.cl_base{fill:#0050BA}.cl_lightest{fill:#93B5E5}.cl_lighter{fill:#5C8FD3}.cl_accent{fill:#FFDA85}</style>

  </defs>
  <title>
    Internet Association Trade Icon
  </title>
  <g class="trade">
    <g class="inner-element">
      <path d="M109.2 171.4c-34.8 0-63.1-28.3-63.1-63.1s28.3-63.1 63.1-63.1c11.7 0 23.2 3.3 33.1 9.4 18.7 11.6 29.9 31.7 29.9 53.7.1 34.8-28.2 63.1-63 63.1zm0-122.1c-32.6 0-59.1 26.5-59.1 59.1s26.5 59.1 59.1 59.1 59.1-26.5 59.1-59.1c0-20.6-10.5-39.4-28-50.3-9.4-5.8-20.1-8.8-31.1-8.8z" class="cl_base"/>
      <path d="M109.2 167.6c-1.1 0-2-.9-2-2V51c0-1.1.9-2 2-2s2 .9 2 2v114.6c0 1.1-.9 2-2 2z" class="cl_lightest"/>
      <path d="M109.2 171.4c-9.8 0-19-6.7-25.7-18.9-6.6-11.8-10.2-27.5-10.2-44.1 0-34.8 16.1-63.1 35.9-63.1 19.8 0 35.9 28.3 35.9 63.1s-16.1 63-35.9 63zm0-122.1c-17.6 0-31.9 26.5-31.9 59.1s14.3 59.1 31.9 59.1 31.9-26.5 31.9-59.1-14.3-59.1-31.9-59.1z" class="cl_base"/>
      <path d="M109.2 167.4c-1.1 0-2-.9-2-2v-28.3c0-1.1.9-2 2-2s2 .9 2 2v28.3c0 1.1-.9 2-2 2zM109.2 81.5c-1.1 0-2-.9-2-2V51.2c0-1.1.9-2 2-2s2 .9 2 2v28.3c0 1.1-.9 2-2 2z" class="cl_lighter"/>
      <g class="trade-bottom-stripe">
        <path d="M156.1 139.2h-38.5c-1.1 0-2-.9-2-2s.9-2 2-2h38.5c1.1 0 2 .9 2 2s-.9 2-2 2z" class="cl_lightest"/>
        <path d="M125.3 139.2H60.5c-1.1 0-2-.9-2-2s.9-2 2-2h64.8c1.1 0 2 .9 2 2s-.9 2-2 2z" class="cl_lighter"/>
      </g>
      <g class="trade-middle-stripe">
        <path d="M118.1 110.3h-65c-1.1 0-2-.9-2-2s.9-2 2-2h65c1.1 0 2 .9 2 2s-.9 2-2 2z" class="cl_lighter"/>
        <path d="M156.6 110.3h-65c-1.1 0-2-.9-2-2s.9-2 2-2h65c1.1 0 2 .9 2 2s-.9 2-2 2z" class="cl_lightest"/>
      </g>
      <g class="trade-top-stripe">
        <path d="M125.7 81.5H60.9c-1.1 0-2-.9-2-2s.9-2 2-2h64.8c1.1 0 2 .9 2 2s-.8 2-2 2z" class="cl_lighter"/>
        <path d="M156.6 81.5h-38.5c-1.1 0-2-.9-2-2s.9-2 2-2h38.5c1.1 0 2 .9 2 2s-.9 2-2 2z" class="cl_lightest"/>
      </g>
    </g>
       <g class="outer-circ">
      <path d="M54.4 108.8c-13.9 0-27.9-5.3-38.5-15.9-21.2-21.2-21.2-55.8 0-77 21.2-21.2 55.8-21.2 77 0 21.2 21.2 21.2 55.8 0 77-10.6 10.6-24.6 15.9-38.5 15.9zM54.4 2C41 2 27.6 7.1 17.3 17.3-3.1 37.8-3.1 71 17.3 91.5c20.4 20.4 53.7 20.4 74.2 0 20.4-20.4 20.4-53.7 0-74.2C81.3 7.1 67.8 2 54.4 2z" class="cl_base" transform="translate(16.161 16.161) scale(1.68821)"/>
      <path d="M92.2 93.2c-.3 0-.5-.1-.7-.3-.4-.4-.4-1 0-1.4 20.4-20.4 20.4-53.7 0-74.2C71-3.1 37.8-3.1 17.3 17.3c-.4.4-1 .4-1.4 0s-.4-1 0-1.4c21.2-21.2 55.8-21.2 77 0 21.2 21.2 21.2 55.8 0 77-.2.2-.5.3-.7.3z" class="cl_lighter" transform="translate(16.161 16.161) scale(1.68821)"/>
    </g>
  </g>
</svg>