<svg id="Layer_1" data-name="Layer 1" xmlns="http://www.w3.org/2000/svg" viewBox="0 0 200 200"><title>algo</title><path d="M179.15,118.53a102.33,102.33,0,0,0,0-14.21c-.15-2-1.35-3.91-2.41-5.55l-.44-.68c-.52-.82-.51-.85-.36-1.27a28.41,28.41,0,0,0,.87-17c-2.14-8-4.63-15.7-7.72-24.84a35.68,35.68,0,0,0-3.74-7.24l-.39-.64a14.79,14.79,0,0,0-6.62-5.75,1.51,1.51,0,0,1-.38-.61c-.28-.83-.51-1.69-.75-2.6a23.24,23.24,0,0,0-1.76-5A46.62,46.62,0,0,0,139.7,16,15.37,15.37,0,0,0,129,13.25c-2.92-6.8-8.76-10-16.58-9.16A20.61,20.61,0,0,0,100,9.69a20.61,20.61,0,0,0-12.38-5.6C79.79,3.2,74,6.45,71,13.25A15.42,15.42,0,0,0,60.3,16,46.57,46.57,0,0,0,44.5,33.09a22.79,22.79,0,0,0-1.76,5c-.24.91-.47,1.77-.75,2.6a2.13,2.13,0,0,1-.33.59A14.82,14.82,0,0,0,35,47.06l-.39.64a35.68,35.68,0,0,0-3.74,7.24c-2.67,7.9-5.45,16.38-7.72,24.84a28.41,28.41,0,0,0,.87,17c.15.42.16.45-.36,1.27l-.44.68c-1.05,1.64-2.26,3.5-2.41,5.55a102.34,102.34,0,0,0,.05,14.21,13.21,13.21,0,0,0,5,9.38,17,17,0,0,0-1.31,9.49,21.24,21.24,0,0,0,8.57,14.51,2.19,2.19,0,0,1,.49.53,10.84,10.84,0,0,0,3.1,9.3c5.81,6.15,10.71,11.13,15.45,15.66,5.88,5.63,12.45,8.13,19.52,7.45a1.14,1.14,0,0,1,.09.26c1.57,5.31,5.29,8.72,11,10.15a15.66,15.66,0,0,0,3.79.46c4.23,0,8.65-1.69,13.39-5.12,6.17,4.46,11.8,6,17.18,4.66,5.76-1.43,9.48-4.84,11-10.15a1.14,1.14,0,0,1,.09-.26c7.08.68,13.64-1.82,19.52-7.45,4.73-4.53,9.64-9.51,15.45-15.66a10.84,10.84,0,0,0,3.1-9.3,2.19,2.19,0,0,1,.49-.53,21.28,21.28,0,0,0,8.58-14.51,17.08,17.08,0,0,0-1.32-9.49A13.21,13.21,0,0,0,179.15,118.53Zm-7.72,7.69-1,.71.48,1.1c1.57,3.57,2,6,1.56,8.93a18.13,18.13,0,0,1-7.4,12.54c-.69.51-1.94,1.83-1.7,3.18a7.86,7.86,0,0,1-2.28,7c-5.77,6.12-10.65,11.06-15.34,15.55-5.59,5.35-11.53,7.47-18.19,6.51l-1.18-.18-.43,1.11-.19.45a10.83,10.83,0,0,0-.43,1.14c-1.26,4.27-4.17,6.92-8.89,8.08-4.54,1.13-9.44-.31-15-4.36V183.2L114.57,159l6.24-2.11.66-.22h0l13-4.38a11.93,11.93,0,1,0-1.11-5,12.4,12.4,0,0,0,.2,2.13l-16.87,5.7,7-12.84h0l11-20.27A12,12,0,1,0,132,120.6l-19.74,36.45,1.31.72-1.32-.72L101.5,176.89V103.2l35.09-25.46a11.87,11.87,0,1,0-1.77-2.42l-23.71,17.2h0l-9.61,7V74.55L115.27,51a11.86,11.86,0,0,0,4.7,1,12,12,0,1,0-7.28-2.49L100,71.24l-13.75-22a12.05,12.05,0,1,0-2.55,1.59L98.5,74.57v51.05L81.65,114.09h0L74,108.81,67.9,85.55a11.93,11.93,0,1,0-4,.72c.38,0,.74,0,1.11-.06l5.78,22.21h-8a12,12,0,1,0,.22,3h9.3L80,116.58h0L98.15,129l.35-.52v38.61l-15.39-8.59-12-6.85a12.07,12.07,0,1,0-1.45,2.63l.06,0-.05.1,28.84,16.1,0-.06V188c-5.52,4.05-10.42,5.49-15,4.36-4.72-1.16-7.63-3.81-8.89-8.08a10.83,10.83,0,0,0-.43-1.14l-.19-.45-.43-1.11-1.18.18c-6.65,1-12.6-1.16-18.19-6.51-4.69-4.49-9.57-9.43-15.34-15.55a7.86,7.86,0,0,1-2.28-7c.24-1.35-1-2.67-1.71-3.18A18.16,18.16,0,0,1,27.51,137c-.43-2.94,0-5.36,1.56-8.93l.48-1.1-1-.71c-2.94-2.15-4.53-4.8-4.72-7.88a99.69,99.69,0,0,1-.06-13.8c.1-1.28,1-2.74,1.95-4.14l.45-.71a3.92,3.92,0,0,0,.64-3.88A25.46,25.46,0,0,1,26,80.56c2.25-8.38,5-16.8,7.66-24.66a33.17,33.17,0,0,1,3.45-6.62l.4-.64A11.79,11.79,0,0,1,42.89,44a4,4,0,0,0,1.94-2.35c.32-.93.57-1.88.81-2.8a20,20,0,0,1,1.51-4.37,43.53,43.53,0,0,1,14.79-16c3.32-2.18,6.49-2.87,9.7-2.12l1.31.31.45-1.26c2.24-6.27,7-9.17,13.89-8.39a17.69,17.69,0,0,1,11.6,5.78L100,14.06l1.11-1.21a17.69,17.69,0,0,1,11.6-5.78c6.85-.78,11.65,2.13,13.89,8.39l.45,1.26,1.31-.31c3.21-.75,6.38-.06,9.7,2.12a43.53,43.53,0,0,1,14.79,16,20,20,0,0,1,1.51,4.37c.24.92.49,1.87.81,2.8A4.07,4.07,0,0,0,157.11,44a11.79,11.79,0,0,1,5.34,4.62l.4.64a33.17,33.17,0,0,1,3.45,6.62c3.07,9.09,5.54,16.76,7.66,24.66a25.46,25.46,0,0,1-.79,15.25,3.92,3.92,0,0,0,.64,3.88l.46.71c.9,1.4,1.84,2.86,1.94,4.14a99.69,99.69,0,0,1-.06,13.8C176,121.42,174.37,124.07,171.43,126.22ZM136.34,147.3a9,9,0,1,1,9,9A9,9,0,0,1,136.34,147.3Zm-6.43-36.45a9,9,0,1,1,9,9A9,9,0,0,1,129.91,110.85Zm6.43-41.29a9,9,0,1,1,9,9A9,9,0,0,1,136.34,69.56ZM111,40a9,9,0,1,1,9,9A9,9,0,0,1,111,40Zm-32.35,9a9,9,0,1,1,9-9A9,9,0,0,1,78.65,48.93ZM63.86,83.27a9,9,0,1,1,9-9A9,9,0,0,1,63.86,83.27ZM60,110.85a9,9,0,1,1-9-9A9,9,0,0,1,60,110.85Zm0,45.42a9,9,0,1,1,9-9A9,9,0,0,1,59.94,156.27Z" style="fill:#fff"/></svg>