<svg class="icon icon-algo-ai" viewBox="0 0 216 216"><style>.cl_base{fill:#0050BA}.cl_lightest{fill:#93B5E5}.cl_lighter{fill:#5C8FD3}.cl_accent{fill:#FFDA85}</style>
   <g class="outer-circ">
      <path d="M54.4 108.8c-13.9 0-27.9-5.3-38.5-15.9-21.2-21.2-21.2-55.8 0-77 21.2-21.2 55.8-21.2 77 0 21.2 21.2 21.2 55.8 0 77-10.6 10.6-24.6 15.9-38.5 15.9zM54.4 2C41 2 27.6 7.1 17.3 17.3-3.1 37.8-3.1 71 17.3 91.5c20.4 20.4 53.7 20.4 74.2 0 20.4-20.4 20.4-53.7 0-74.2C81.3 7.1 67.8 2 54.4 2z" class="cl_base" transform="translate(16.161 16.161) scale(1.68821)"/>
      <path d="M92.2 93.2c-.3 0-.5-.1-.7-.3-.4-.4-.4-1 0-1.4 20.4-20.4 20.4-53.7 0-74.2C71-3.1 37.8-3.1 17.3 17.3c-.4.4-1 .4-1.4 0s-.4-1 0-1.4c21.2-21.2 55.8-21.2 77 0 21.2 21.2 21.2 55.8 0 77-.2.2-.5.3-.7.3z" class="cl_lighter" transform="translate(16.161 16.161) scale(1.68821)"/>
    </g>
<g class="inner-circ"><path d="M71.9 120.6c-1 0-1.8-.8-1.8-1.7 0-3.3 2.6-5.9 5.8-6h14.7c1 .1 1.7.9 1.6 1.9-.1.9-.8 1.6-1.6 1.6H76c-1.3.1-2.4 1.2-2.3 2.5 0 .9-.8 1.7-1.8 1.7z" class="cl_lighter"/><path d="M90.7 105.4H76c-3.3 0-5.9-2.7-5.8-6 .1-1 .9-1.7 1.9-1.6.9.1 1.6.8 1.6 1.6-.1 1.3.9 2.4 2.2 2.5h14.8c1 .1 1.7.9 1.6 1.9-.1.8-.7 1.5-1.6 1.6z" class="cl_lightest"/><path d="M90.7 116.3H81c-1 .1-1.8-.7-1.9-1.6s.7-1.8 1.6-1.9h10c1 .1 1.7.9 1.6 1.9 0 .8-.7 1.5-1.6 1.6z" class="cl_lighter"/><path d="M90.7 105.4H81c-1 .1-1.8-.7-1.9-1.6s.7-1.8 1.6-1.9h10c1 .1 1.7.9 1.6 1.9 0 .8-.7 1.5-1.6 1.6z" class="cl_base"/><path d="M94.7 46.7c6.5.6 11.7 7 11.7 14.4l.1 30.3c0 1-.8 1.8-1.8 1.8s-1.7-.8-1.7-1.8l-.1-30.3c0-5.6-3.7-10.4-8.5-10.9m51.6 70.4c-1 0-1.8-.8-1.8-1.7 0-1.3-1-2.5-2.3-2.5h-15.8c-1 .1-1.8-.7-1.9-1.6s.7-1.8 1.6-1.9h16c3.3.1 5.9 2.7 5.8 6 .1.8-.6 1.6-1.6 1.7z" class="cl_lightest"/><path d="M141.9 105.4h-15.7c-1 .1-1.8-.7-1.9-1.6s.7-1.8 1.6-1.9h16c1.3 0 2.3-1.1 2.3-2.4v-.1c.1-1 .9-1.7 1.9-1.6.9.1 1.6.8 1.6 1.6.1 3.3-2.5 5.9-5.8 6z" class="cl_lighter"/><path d="M135.9 116.3h-9.7c-1 .1-1.8-.7-1.9-1.6s.7-1.8 1.6-1.9h10c1 .1 1.7.9 1.6 1.9-.1.8-.7 1.5-1.6 1.6z" class="cl_base"/><path d="M135.9 105.4h-9.7c-1 .1-1.8-.7-1.9-1.6s.7-1.8 1.6-1.9h10c1 .1 1.7.9 1.6 1.9-.1.8-.7 1.5-1.6 1.6z" class="cl_lightest"/><path d="M125.5 140.2c-1 0-1.8-.8-1.8-1.7v-11c0-3.1 2.4-5.7 5.5-5.7h2.9c.9 0 2-1.4 2-2.8v-4.3c0-1 .8-1.7 1.8-1.7s1.7.8 1.7 1.8v4.4c-.1 2.9-2.4 6.1-5.5 6.1h-2.9c-1.2.1-2 1.1-2 2.2v11c0 .9-.8 1.7-1.7 1.7z" class="cl_base"/><path d="M136 105.3c-.9 0-1.7-.8-1.8-1.7v-3.4c0-1.3-1.1-2.7-2-2.7h-2.9c-3.1-.1-5.6-2.6-5.5-5.7v-8c-.1-1 .7-1.8 1.6-1.9s1.8.7 1.9 1.6v8.3c-.1 1.2.8 2.2 2 2.2h2.9c3.1 0 5.4 3.2 5.5 6.1v3.4c.1 1.1-.7 1.8-1.7 1.8zm-44.6 34.9c-1 0-1.8-.8-1.8-1.8v-11c0-1.2-.8-2.1-2-2.2h-2.9c-3.2 0-5.4-3.2-5.5-6.1v-4.4c0-1 .8-1.8 1.7-1.8 1 0 1.7.8 1.8 1.7v4.4c.1 1.3 1.1 2.7 2 2.7h2.9c3.1.1 5.6 2.6 5.6 5.7v11c-.1 1-.8 1.8-1.8 1.8z" class="cl_lightest"/><path d="M81 105.3c-1 0-1.7-.8-1.7-1.8v-3.4c.1-3 2.4-6.1 5.5-6.1h2.9c1.2-.1 2.1-1.1 2-2.2v-9c.1-1 .9-1.7 1.9-1.6.9.1 1.6.8 1.6 1.6v9c0 3.1-2.4 5.7-5.6 5.7h-2.9c-.9 0-2 1.4-2 2.8v3.3c0 1-.7 1.7-1.7 1.7z" class="cl_base"/><g id="brain"><path id="right-brain" d="M123.8 168.7c-.5 0-1 0-1.5-.1-6.5-.7-11.6-6.9-11.6-14.1v-26.7c.1-1 .9-1.7 1.9-1.6.9.1 1.6.8 1.6 1.6v26.7c0 5.4 3.7 10.1 8.4 10.6 2.7.3 5.3-.5 7.3-2.3 2-1.8 3-4.3 3-6.9v-.3c0-1 .8-1.8 1.8-1.8h2.4c8.4 0 16.4-8.1 16.4-16.6v-4.8c0-3.4 1.4-6.6 3.9-8.9 2.3-2 3.5-4.9 3.5-7.9v-12c0-3.1-1.3-6-3.5-8-2.5-2.2-3.9-5.4-3.9-8.7v-5c0-9-8.6-15.8-16.4-15.8h-2.4c-1 0-1.8-.8-1.8-1.8v-4c0-3-1.2-5.9-3.4-7.9-1.8-1.7-4.3-2.5-6.8-2.3-4.8.5-8.5 5.2-8.5 10.9l-.1 30.3c0 1-.8 1.8-1.8 1.8s-1.8-.8-1.8-1.8l.1-30.3c0-7.4 5.1-13.7 11.7-14.4 3.5-.3 6.9.8 9.5 3.2 2.9 2.7 4.6 6.5 4.6 10.5v2.1h.7c10.6 0 19.9 9 19.9 19.3v5c0 2.4.9 4.6 2.7 6.2 3 2.7 4.8 6.5 4.7 10.6v12c0 4-1.7 7.9-4.7 10.6-1.8 1.6-2.7 3.9-2.7 6.2v4.8c0 10.3-9.7 20.1-19.9 20.1h-.8c-.3 3.1-1.7 6-4 8.1-2.3 2.3-5.4 3.5-8.5 3.4z" class="cl_lighter"/><path id="left-brain" d="M104.5 61.1c-.9 0-1.6-.7-1.7-1.6-.6-4.9-4.1-8.9-8.4-9.3-2.5-.2-5 .6-6.8 2.3-2.2 2-3.4 4.9-3.4 7.9v3.9c0 1-.8 1.8-1.7 1.8H80c-7.7 0-16.4 6.8-16.4 15.8v5c0 3.4-1.4 6.6-3.9 8.9-2.3 2-3.6 4.9-3.5 8v12c0 3 1.3 5.9 3.5 7.9 2.5 2.3 3.9 5.5 3.9 8.9v4.8c0 8.5 8 16.6 16.4 16.6h2.4c1 0 1.8.8 1.8 1.7v.3c0 2.6 1.1 5.2 3 6.9 2 1.8 4.7 2.6 7.3 2.3 4.7-.5 8.4-5.1 8.4-10.6V128c0-.9.6-1.7 1.5-1.8 1-.1 1.8.5 2 1.5v26.9c0 7.2-5.1 13.4-11.6 14.1-.5 0-1 .1-1.5.1-3.2 0-6.2-1.1-8.6-3.2-2.3-2.1-3.7-5-4-8.1H80c-10.2 0-19.9-9.8-19.9-20.1v-4.8c0-2.4-.9-4.6-2.7-6.2-3-2.7-4.8-6.5-4.7-10.6v-12c0-4.1 1.7-7.9 4.7-10.6 1.7-1.6 2.7-3.8 2.7-6.1v-5c0-10.3 9.3-19.3 19.9-19.3h.7v-2.2c0-4 1.6-7.8 4.6-10.5 2.6-2.4 6-3.5 9.5-3.2 5.9.6 10.7 5.8 11.5 12.4.1 1-.6 1.9-1.5 2-.1-.2-.2-.2-.3-.2z" class="cl_base"/><path d="M131.1 164.1c.6.7.6 1.8-.1 2.4-.1.1-.2.1-.2.2-2.1 1.3-4.5 2-6.9 2-.5 0-1 0-1.5-.1-6.5-.7-11.6-6.9-11.6-14.1V128c0-.9.6-1.7 1.5-1.8 1-.1 1.9.5 2 1.5v26.9c0 5.4 3.7 10.1 8.4 10.6 2.1.2 4.3-.2 6.1-1.3.6-.6 1.6-.4 2.3.2z" class="cl_lightest"/></g><g id="cpu"><path d="M115.5 120.3h-14.8c-2 0-3.6-1.6-3.7-3.7v-14.8c0-2 1.6-3.7 3.7-3.7h14.8c2 0 3.7 1.6 3.7 3.7v14.8c0 2-1.6 3.7-3.7 3.7zm-14.8-19.1c-.3 0-.6.2-.6.6v14.8c0 .3.2.6.6.6h14.8c.3 0 .6-.2.6-.6v-14.8c0-.3-.2-.6-.6-.6h-14.8z" class="cl_base"/><path d="M110.4 112.6h-4.6c-.6 0-1.1-.5-1.1-1.1v-4.6c0-.6.5-1.1 1.1-1.1h4.6c.6 0 1.1.5 1.1 1.1v4.6c0 .6-.5 1.1-1.1 1.1z" class="cl_accent"/></g><g id="nodes"><path d="M71.8 100.9c-3.2 0-5.9-2.6-5.9-5.9s2.6-5.9 5.9-5.9c3.2 0 5.9 2.6 5.9 5.8-.1 3.3-2.7 6-5.9 6zm0-8.2c-1.3 0-2.4 1.1-2.4 2.4 0 1.3 1.1 2.4 2.4 2.4s2.4-1.1 2.4-2.4c-.1-1.4-1.2-2.4-2.4-2.4zm0 36.7c-3.2 0-5.9-2.6-5.9-5.9 0-3.2 2.6-5.9 5.9-5.9s5.9 2.6 5.9 5.9c-.1 3.3-2.7 5.9-5.9 5.9zm0-8.2c-1.3 0-2.4 1.1-2.4 2.4s1.1 2.4 2.4 2.4 2.4-1.1 2.4-2.4-1.1-2.4-2.4-2.4z" class="cl_lighter"/><path d="M146.1 100.9c-3.2 0-5.9-2.7-5.8-5.9 0-3.2 2.7-5.9 5.9-5.8 3.2 0 5.8 2.6 5.8 5.8 0 3.2-2.6 5.9-5.9 5.9zm0-8.2c-1.3 0-2.4 1.1-2.4 2.4 0 1.3 1.1 2.4 2.4 2.4s2.4-1.1 2.4-2.4c-.1-1.4-1.1-2.4-2.4-2.4z" class="cl_lightest"/><path d="M146.1 129.4c-3.2 0-5.9-2.6-5.9-5.9 0-3.2 2.6-5.9 5.9-5.9 3.2 0 5.9 2.6 5.9 5.9 0 3.3-2.7 5.9-5.9 5.9zm0-8.2c-1.3 0-2.4 1.1-2.4 2.4s1.1 2.4 2.4 2.4 2.4-1.1 2.4-2.4-1.1-2.4-2.4-2.4z" class="cl_lighter"/><path d="M125.6 148.5c-3.2 0-5.9-2.6-5.9-5.9 0-3.2 2.6-5.9 5.9-5.9 3.2 0 5.9 2.6 5.9 5.9 0 3.2-2.6 5.9-5.9 5.9zm0-8.3c-1.3 0-2.4 1.1-2.3 2.4s1.1 2.4 2.4 2.3c1.3 0 2.3-1.1 2.3-2.4 0-1.2-1.1-2.3-2.4-2.3zm0-55.4c-3.2 0-5.9-2.6-5.9-5.9 0-3.2 2.6-5.9 5.9-5.9 3.2 0 5.9 2.6 5.9 5.9 0 3.3-2.7 5.9-5.9 5.9zm0-8.2c-1.3 0-2.4 1.1-2.3 2.4 0 1.3 1.1 2.4 2.4 2.3 1.3 0 2.3-1 2.3-2.3 0-1.3-1-2.4-2.4-2.4.1 0 0 0 0 0z" class="cl_base"/><path d="M91.3 148.5c-3.2 0-5.9-2.6-5.9-5.9 0-3.2 2.6-5.9 5.9-5.9 3.2 0 5.9 2.6 5.9 5.9 0 3.2-2.7 5.9-5.9 5.9zm0-8.3c-1.3 0-2.4 1.1-2.4 2.4 0 1.3 1.1 2.4 2.4 2.4s2.4-1.1 2.4-2.4c-.1-1.3-1.1-2.4-2.4-2.4zm0-56.4c-3.2 0-5.9-2.6-5.9-5.9 0-3.2 2.6-5.9 5.9-5.9 3.2 0 5.9 2.6 5.9 5.9-.1 3.3-2.7 5.9-5.9 5.9zm0-8.2c-1.3 0-2.4 1.1-2.4 2.4 0 1.3 1.1 2.4 2.4 2.4 1.3 0 2.3-1 2.4-2.3 0-1.4-1.1-2.5-2.4-2.5z" class="cl_lightest"/></g></g></g></svg>