<svg class="icon" id="sharing-economy-icon" xmlns="http://www.w3.org/2000/svg" width="150" height="150" viewBox="0 0 216.7 216.7">
        <style>.cl_base{fill:#0050BA}.cl_lightest{fill:#93B5E5}.cl_lighter{fill:#5C8FD3}.cl_accent{fill:#FFC34A}</style>

    <title>
        Internet Association Sharing Economy Icon
    </title>
  <g class="sharing-econ">
    <g class="outer-circ">
      <path d="M54.4 108.8c-13.9 0-27.9-5.3-38.5-15.9-21.2-21.2-21.2-55.8 0-77 21.2-21.2 55.8-21.2 77 0 21.2 21.2 21.2 55.8 0 77-10.6 10.6-24.6 15.9-38.5 15.9zM54.4 2C41 2 27.6 7.1 17.3 17.3-3.1 37.8-3.1 71 17.3 91.5c20.4 20.4 53.7 20.4 74.2 0 20.4-20.4 20.4-53.7 0-74.2C81.3 7.1 67.8 2 54.4 2z" class="cl_base" transform="translate(16.161 16.161) scale(1.68821)"/>
      <path d="M92.2 93.2c-.3 0-.5-.1-.7-.3-.4-.4-.4-1 0-1.4 20.4-20.4 20.4-53.7 0-74.2C71-3.1 37.8-3.1 17.3 17.3c-.4.4-1 .4-1.4 0s-.4-1 0-1.4c21.2-21.2 55.8-21.2 77 0 21.2 21.2 21.2 55.8 0 77-.2.2-.5.3-.7.3z" class="cl_lighter" transform="translate(16.161 16.161) scale(1.68821)"/>
    </g>
    <g class="inner-element">
      <path class="cl_lighter" d="M 147.7 129.6 h -8.6 c -0.9 0 -1.7 -0.7 -1.7 -1.7 c 0 -0.9 0.7 -1.7 1.7 -1.7 h 8.6 c 0.9 0 1.7 0.7 1.7 1.7 c -0.1 0.9 -0.8 1.7 -1.7 1.7 z"/>
      <path class="cl_base" d="M 68.5 132.1 c -0.4 0 -0.8 -0.2 -1.2 -0.5 c -0.6 -0.6 -0.7 -1.7 0 -2.3 c 0.2 -0.2 0.3 -0.4 0.3 -0.7 v -2.4 c 0 -0.9 0.7 -1.7 1.6 -1.7 s 1.6 0.7 1.6 1.7 v 2.4 c 0 1.1 -0.4 2.2 -1.2 3 c -0.3 0.3 -0.7 0.5 -1.1 0.5 z M 120.3 150.5 c -1.7 0 -3.3 -0.6 -4.7 -1.9 L 102.7 136 c -0.7 -0.6 -0.7 -1.7 0 -2.3 c 0.6 -0.7 1.7 -0.7 2.3 0 l 12.9 12.6 c 1.4 1.3 3.5 1.3 4.9 -0.1 c 1.3 -1.2 1.3 -3.3 0.1 -4.5 l -0.1 -0.1 c -0.7 -0.6 -0.7 -1.7 -0.1 -2.3 c 0.6 -0.7 1.7 -0.7 2.3 -0.1 l 0.2 0.2 c 2.5 2.6 2.5 6.7 -0.1 9.2 c -1.3 1.2 -3 1.9 -4.8 1.9 z"/>
      <path class="cl_base" d="M 111.2 153.6 c -1.5 0 -2.9 -0.5 -4.1 -1.6 c -0.7 -0.6 -0.7 -1.7 -0.1 -2.3 c 0.6 -0.7 1.7 -0.7 2.3 -0.1 c 1.1 1 2.7 1 3.7 0 c 0.5 -0.4 0.7 -1.1 0.7 -1.7 s -0.2 -1.2 -0.7 -1.7 c -0.7 -0.6 -0.7 -1.7 -0.1 -2.4 s 1.6 -0.7 2.3 -0.1 l 0.2 0.2 c 1.1 1.1 1.6 2.5 1.6 4 s -0.6 3 -1.7 4 c -1.1 1.1 -2.6 1.7 -4.1 1.7 z"/>
      <path class="cl_lighter" d="M 102.7 155.1 h -0.4 c -1.4 0 -2.8 -0.5 -3.8 -1.4 c -1.3 -1 -2 -2.5 -2.2 -4.1 c -0.1 -1.6 0.3 -3.2 1.4 -4.4 l 1.8 -2.1 c 1 -1.2 2.5 -2 4.1 -2.2 h 0.6 c 1.4 0 2.7 0.5 3.8 1.4 c 1.2 1 2 2.5 2.2 4.1 c 0.2 1.6 -0.3 3.2 -1.3 4.4 l -1.8 2.1 c -1 1.2 -2.5 2 -4.1 2.2 h -0.3 z m 1.1 -10.9 c -0.8 0.1 -1.5 0.4 -1.9 1 l -1.8 2.2 c -0.5 0.6 -0.7 1.3 -0.6 2 s 0.4 1.4 1 1.8 c 0.5 0.4 1.1 0.6 1.8 0.6 h 0.3 c 0.7 -0.1 1.4 -0.4 1.8 -1 l 1.8 -2.2 c 0.5 -0.6 0.7 -1.3 0.6 -2 c -0.1 -0.7 -0.4 -1.4 -1 -1.8 c -0.5 -0.4 -1.1 -0.6 -1.7 -0.6 h -0.3 c 0.1 0 0.1 0 0 0 z"/>
      <path class="cl_base" d="M 78.9 127.3 h -9.7 c -0.9 0 -1.6 -0.7 -1.6 -1.7 V 89.8 c 0 -0.9 0.7 -1.6 1.6 -1.6 h 39.1 c 0.9 0 1.6 0.7 1.6 1.6 s -0.7 1.7 -1.6 1.7 H 70.8 V 124 h 8.1 c 0.9 0 1.6 0.7 1.6 1.7 s -0.7 1.6 -1.6 1.6 z M 134.7 136.9 c -1.7 0 -3.3 -0.6 -4.6 -1.7 l -15.4 -14 c -0.7 -0.6 -0.7 -1.7 -0.1 -2.3 c 0.6 -0.7 1.7 -0.7 2.3 -0.1 l 15.3 14 c 0.6 0.6 1.4 0.9 2.3 0.9 h 0.1 c 0.9 0 1.7 -0.3 2.3 -0.9 c 1.1 -1 1.2 -2.8 0.1 -3.9 l -0.2 -0.2 l -20.8 -19.1 c -0.7 -0.6 -0.7 -1.7 -0.1 -2.3 c 0.6 -0.7 1.7 -0.7 2.3 -0.1 l 20.8 19.1 l 0.4 0.4 c 2.3 2.4 2.2 6.3 -0.2 8.5 c -1.1 1.1 -2.7 1.7 -4.5 1.7 z"/>
      <path class="cl_base" d="M 131.3 147.1 c -1.7 0 -3.3 -0.6 -4.6 -1.8 L 111.4 131 c -0.7 -0.6 -0.7 -1.7 -0.1 -2.3 c 0.6 -0.7 1.7 -0.7 2.3 -0.1 l 15.3 14.3 c 1.4 1.3 3.4 1.2 4.8 -0.1 c 0.6 -0.6 0.9 -1.4 0.9 -2.3 c 0 -0.9 -0.3 -1.7 -0.9 -2.3 l -4.9 -4.3 c -0.7 -0.6 -0.8 -1.6 -0.2 -2.3 c 0.6 -0.7 1.6 -0.8 2.3 -0.2 l 5 4.3 l 0.1 0.1 c 1.2 1.3 1.9 2.9 1.9 4.6 c 0 1.7 -0.7 3.4 -1.9 4.6 c -1.3 1.4 -3 2.1 -4.7 2.1 z"/>
      <path class="cl_lighter" d="M 95.1 149.1 h -0.3 c -1.4 0 -2.7 -0.5 -3.7 -1.4 c -1.2 -1 -2 -2.5 -2.2 -4.1 c -0.2 -1.6 0.3 -3.2 1.3 -4.4 L 92 137 c 1.2 -1.4 2.8 -2.2 4.7 -2.2 h 0.3 c 1.3 0.1 2.5 0.5 3.5 1.4 c 2.6 2.1 2.9 5.9 0.8 8.5 l -1.8 2.1 c -1 1.2 -2.5 2 -4.1 2.2 c 0 0.1 -0.1 0.1 -0.3 0.1 z m 1.4 -10.9 c -0.7 0.1 -1.4 0.4 -1.9 1 l -1.8 2.1 c -0.5 0.6 -0.7 1.3 -0.6 2 s 0.4 1.4 1 1.8 c 0.5 0.4 1.1 0.6 1.7 0.6 H 95.2 c 0.7 -0.1 1.3 -0.4 1.8 -1 l 1.8 -2.2 c 1 -1.2 0.8 -2.9 -0.4 -3.8 c -0.5 -0.4 -1.1 -0.6 -1.7 -0.6 c 0 0.1 -0.1 0.1 -0.2 0.1 z"/>
      <path class="cl_lighter" d="M 87.6 143 c -1.4 0 -2.8 -0.5 -3.8 -1.4 c -1.3 -1 -2 -2.5 -2.2 -4.1 c -0.1 -1.6 0.3 -3.2 1.4 -4.4 l 1.7 -2.1 c 1 -1.2 2.5 -2 4.1 -2.2 h 0.5 c 1.4 0 2.7 0.5 3.8 1.3 c 2.6 2.1 2.9 5.9 0.8 8.5 l -1.8 2.1 c -1 1.5 -2.7 2.3 -4.5 2.3 z m 1.5 -10.8 c -0.7 0.1 -1.4 0.4 -1.8 1 l -1.7 2.1 c -0.5 0.6 -0.7 1.3 -0.6 2 s 0.4 1.4 1 1.8 c 0.5 0.4 1.1 0.6 1.7 0.6 c 0.8 0 1.6 -0.4 2.1 -1 l 1.8 -2.2 c 1 -1.2 0.8 -2.9 -0.4 -3.8 c -0.5 -0.4 -1.1 -0.6 -1.7 -0.6 h -0.4 z M 147.7 124.6 c -0.9 0 -1.7 -0.7 -1.7 -1.7 V 91.7 c 0 -0.8 -0.6 -1.4 -1.4 -1.4 h -29.5 c -4.4 0 -8.6 1.7 -11.7 4.8 l -16.3 16.1 c -0.9 0.9 -1.4 2.2 -1.2 3.4 c 0.2 0.9 0.7 1.7 1.4 2.2 c 0.8 0.5 1.7 0.7 2.6 0.6 c 0.4 -0.1 0.8 -0.2 1.1 -0.4 l 17.1 -9.6 c 0.8 -0.4 1.7 -0.7 2.5 -0.7 h 13.3 c 0.9 0 1.7 0.7 1.7 1.6 s -0.7 1.6 -1.7 1.6 h -13.4 c -0.3 0 -0.7 0.1 -0.9 0.2 l -17.1 9.6 c -0.7 0.4 -1.4 0.6 -2.2 0.8 c -1.8 0.3 -3.6 -0.1 -5.1 -1.1 c -1.5 -1 -2.5 -2.6 -2.8 -4.4 c -0.3 -2.4 0.5 -4.7 2.2 -6.3 l 16.2 -16 c 3.8 -3.7 8.8 -5.8 14.1 -5.8 h 29.5 c 2.6 0 4.7 2.1 4.7 4.7 v 31.2 c 0.2 1 -0.5 1.8 -1.4 1.8 z"/>
      <path class="cl_lighter" d="M 80.3 137 c -1.3 0 -2.7 -0.4 -3.8 -1.4 c -1.2 -1 -2 -2.5 -2.2 -4.1 c -0.2 -1.6 0.3 -3.2 1.3 -4.4 l 1.7 -2.2 c 1 -1.3 2.5 -2.1 4.2 -2.2 h 0.5 c 1.4 0 2.8 0.5 3.8 1.4 c 2.5 2.1 2.9 5.9 0.8 8.5 l -1.8 2.2 c -1 1.5 -2.8 2.2 -4.5 2.2 z m 1.4 -10.9 c -0.7 0.1 -1.4 0.4 -1.8 1 l -1.7 2.2 c -0.5 0.6 -0.7 1.3 -0.6 2 c 0.1 0.7 0.4 1.4 1 1.8 c 1.2 1 2.9 0.8 3.8 -0.4 l 1.8 -2.1 c 0.9 -1.2 0.8 -2.9 -0.4 -3.8 c -0.5 -0.4 -1.1 -0.6 -1.7 -0.6 h -0.4 z"/>
      <path class="cl_base" d="M 66.7 132.9 H 53.1 c -0.9 0 -1.6 -0.7 -1.6 -1.7 s 0.7 -1.7 1.6 -1.7 h 13.6 c 0.2 0 0.5 -0.1 0.6 -0.3 c 0.6 -0.6 1.7 -0.6 2.3 0 c 0.6 0.6 0.6 1.7 0 2.3 c -0.8 0.9 -1.8 1.3 -2.9 1.4 z M 69.2 91.4 c -0.9 0 -1.6 -0.7 -1.6 -1.6 v -3.2 c -0.1 0 -0.4 -0.1 -0.9 -0.1 H 53.1 c -0.9 0 -1.6 -0.7 -1.6 -1.6 s 0.7 -1.6 1.6 -1.6 h 13.6 c 3.1 0 4.2 1.8 4.2 3.4 v 3.2 c 0 0.8 -0.8 1.5 -1.7 1.5 z m -1.6 -4.8 z"/>
      <path class="cl_lighter" d="M 148.4 131.9 c -0.4 0 -0.9 -0.2 -1.2 -0.5 c -0.8 -0.8 -1.2 -1.9 -1.2 -3 V 126 c 0 -0.9 0.7 -1.7 1.7 -1.7 s 1.7 0.7 1.7 1.7 v 2.4 c 0 0.3 0.1 0.5 0.3 0.7 c 0.6 0.6 0.6 1.7 0 2.3 c -0.4 0.3 -0.9 0.5 -1.3 0.5 z"/>
      <path class="cl_lighter" d="M 147.7 127.1 c -0.9 0 -1.7 -0.7 -1.7 -1.7 V 89.5 c 0 -0.9 0.7 -1.6 1.7 -1.6 s 1.7 0.7 1.7 1.6 v 35.9 c -0.1 0.9 -0.8 1.7 -1.7 1.7 z M 162.9 132.6 h -12.7 c -1.1 0 -2.2 -0.5 -3 -1.2 c -0.6 -0.6 -0.6 -1.7 0 -2.3 c 0.6 -0.6 1.7 -0.6 2.3 0 c 0.2 0.2 0.4 0.3 0.6 0.3 h 12.6 c 0.9 0 1.7 0.7 1.7 1.7 s -0.6 1.5 -1.5 1.5 z"/>
      <path class="cl_lighter" d="M 147.7 91.2 c -0.9 0 -1.7 -0.7 -1.7 -1.6 v -3.2 c -0.1 -0.8 0.2 -1.6 0.7 -2.3 c 0.5 -0.7 1.3 -1.1 2.2 -1.2 h 14.4 c 0.9 0 1.7 0.7 1.7 1.6 s -0.7 1.6 -1.7 1.6 h -14 V 89.4 c 0 1.1 -0.7 1.8 -1.6 1.8 z"/>
    </g>
    <g class="arrow-rotate-right">
      <path class="cl_base" d="M 52.5 132.9 c -0.6 0 -1.3 -0.4 -1.5 -1 c -13.2 -31.5 1.7 -67.7 33.2 -80.9 c 22.3 -9.3 48.2 -4.7 65.9 11.8 c 0.7 0.6 0.7 1.7 0.1 2.3 c -0.6 0.7 -1.7 0.7 -2.3 0.1 c -16.8 -15.6 -41.3 -20 -62.4 -11.1 c -29.8 12.4 -43.9 46.7 -31.5 76.5 c 0.4 0.8 0 1.8 -0.9 2.2 c -0.2 0 -0.4 0.1 -0.6 0.1 z"/>
      <path class="cl_base" d="M 52.5 132.9 c -0.6 0 -1.3 -0.4 -1.5 -1 c -13.2 -31.5 1.7 -67.7 33.2 -80.9 c 22.3 -9.3 48.2 -4.7 65.9 11.8 c 0.7 0.6 0.7 1.7 0.1 2.3 c -0.6 0.7 -1.7 0.7 -2.3 0.1 c -16.8 -15.6 -41.3 -20 -62.4 -11.1 c -29.8 12.4 -43.9 46.7 -31.5 76.5 c 0.4 0.8 0 1.8 -0.9 2.2 c -0.2 0 -0.4 0.1 -0.6 0.1 z"/>
      <path class="cl_accent" d="M 149.2 65.8 h -16.3 c -0.9 0 -1.7 -0.7 -1.7 -1.6 s 0.7 -1.6 1.7 -1.6 h 16.3 c 0.9 0 1.7 0.7 1.7 1.6 s -0.8 1.6 -1.7 1.6 z"/>
      <path class="cl_accent" d="M 149.2 65.8 c -0.9 0 -1.7 -0.7 -1.7 -1.6 V 47.9 c 0 -0.9 0.7 -1.6 1.7 -1.6 s 1.7 0.7 1.7 1.6 v 16.3 c -0.1 0.9 -0.8 1.6 -1.7 1.6 z"/>

      <path class="cl_lighter" d="M 108 169.8 c -15.5 0 -30.7 -5.8 -42.4 -16.9 c -0.7 -0.6 -0.7 -1.7 -0.1 -2.3 c 0.6 -0.7 1.7 -0.7 2.3 -0.1 c 16.9 15.9 41.6 20.4 62.9 11.3 c 29.7 -12.6 43.7 -46.9 31.1 -76.7 c -0.4 -0.8 0 -1.8 0.9 -2.2 c 0.8 -0.4 1.8 0 2.2 0.9 c 13.3 31.4 -1.5 67.7 -32.9 81 c -7.7 3.4 -15.9 5 -24 5 z"/>
      <path class="cl_lighter" d="M 108 169.8 c -15.5 0 -30.7 -5.8 -42.4 -16.9 c -0.7 -0.6 -0.7 -1.7 -0.1 -2.3 c 0.6 -0.7 1.7 -0.7 2.3 -0.1 c 16.9 15.9 41.6 20.4 62.9 11.3 c 29.7 -12.6 43.7 -46.9 31.1 -76.7 c -0.4 -0.8 0 -1.8 0.9 -2.2 c 0.8 -0.4 1.8 0 2.2 0.9 c 13.3 31.4 -1.5 67.7 -32.9 81 c -7.7 3.4 -15.9 5 -24 5 z"/>
      <path class="cl_accent" d="M 82.6 152.7 H 66.3 c -0.9 0 -1.6 -0.7 -1.6 -1.7 s 0.7 -1.7 1.6 -1.7 h 16.3 c 0.9 0 1.6 0.7 1.6 1.7 s -0.7 1.7 -1.6 1.7 z"/>
      <path class="cl_accent" d="M 66.3 169 c -0.9 0 -1.6 -0.7 -1.6 -1.7 V 151 c 0 -0.9 0.7 -1.7 1.6 -1.7 s 1.6 0.7 1.6 1.7 v 16.3 c 0 1 -0.7 1.7 -1.6 1.7 z"/>
    </g>
  </g>
</svg>