<svg version="1.1" width="150" height="150" class="icon icon-int-liability" xmlns="http://www.w3.org/2000/svg" x="0" y="0" viewBox="0 0 216 216" xml:space="preserve">
  <style>.cl_base{fill:#0050BA}.cl_lightest{fill:#93B5E5}.cl_lighter{fill:#5C8FD3}.cl_accent{fill:#FFDA85}</style>

    <title>
        Internet Association Content Moderation Icon
    </title>
    <g class="int-liability">
   <g class="outer-circ">
      <path d="M54.4 108.8c-13.9 0-27.9-5.3-38.5-15.9-21.2-21.2-21.2-55.8 0-77 21.2-21.2 55.8-21.2 77 0 21.2 21.2 21.2 55.8 0 77-10.6 10.6-24.6 15.9-38.5 15.9zM54.4 2C41 2 27.6 7.1 17.3 17.3-3.1 37.8-3.1 71 17.3 91.5c20.4 20.4 53.7 20.4 74.2 0 20.4-20.4 20.4-53.7 0-74.2C81.3 7.1 67.8 2 54.4 2z" class="cl_base" transform="translate(16.161 16.161) scale(1.68821)"/>
      <path d="M92.2 93.2c-.3 0-.5-.1-.7-.3-.4-.4-.4-1 0-1.4 20.4-20.4 20.4-53.7 0-74.2C71-3.1 37.8-3.1 17.3 17.3c-.4.4-1 .4-1.4 0s-.4-1 0-1.4c21.2-21.2 55.8-21.2 77 0 21.2 21.2 21.2 55.8 0 77-.2.2-.5.3-.7.3z" class="cl_lighter" transform="translate(16.161 16.161) scale(1.68821)"/>
    </g>
   <g id="inner-circ">
   <g class="int-liability-left-chat">
		      <g id="chat-check">
      <path d="M80.1 102.2c-.5 0-.9-.2-1.2-.6l-9-10.1c-.6-.7-.5-1.7.1-2.3.7-.6 1.7-.5 2.3.1l9 10.1c.6.7.5 1.7-.1 2.3-.3.4-.7.5-1.1.5z" class="cl_accent"/>
      <path d="M80.1 102.2c-.4 0-.7-.1-1-.4-.7-.6-.8-1.6-.2-2.3l17.9-22.1c.6-.7 1.6-.8 2.3-.2.7.6.8 1.6.2 2.3l-17.9 22.1c-.3.4-.8.6-1.3.6z" class="cl_accent"/>
		</g>
	<path d="M64.9 124.6c-.4 0-.7-.1-1.1-.2-.9-.4-1.5-1.3-1.5-2.3v-8.4h-7.5c-1.6 0-2.9-1.3-2.9-2.9V68.5c0-1.6 1.3-2.9 2.9-2.9h58c1.6 0 2.9 1.3 2.9 2.9v42.3c0 1.6-1.3 2.9-2.9 2.9H79.2L66.5 124c-.5.4-1.1.6-1.6.6zm-9.6-14.2H64c.9 0 1.7.8 1.7 1.7v8.3l11.8-9.6c.3-.2.7-.4 1.1-.4h33.8V69H55.3v41.4zM112.9 69z" class="cl_base"/>
   </g>
    <g class="int-liability-right-chat">
      <path d="M101.4 113.6V144h33.8c.4 0 .7.1 1 .4L148 154v-8.3c0-.9.8-1.7 1.7-1.7h8.7v-41.4h-42.7c-.9 0-1.7-.7-1.7-1.7 0-.9.7-1.7 1.7-1.7h43.2c1.6 0 2.9 1.3 2.9 2.9v42.4c0 1.6-1.3 2.9-2.9 2.9h-7.5v8.2c0 1.4-1.1 2.5-2.5 2.6h-.1c-.6 0-1.1-.2-1.6-.6l-12.7-10.3h-33.7c-1.6 0-2.9-1.3-2.9-2.9v-30.9c0-.9.8-1.7 1.7-1.7 1 .1 1.8.9 1.8 1.8zm-.5-11z" class="cl_base"/>

       <g id="chat">
		<path d="M149.6 125H112c-.9.1-1.7-.6-1.8-1.5s.6-1.7 1.5-1.8h37.9c.9-.1 1.7.6 1.8 1.5s-.6 1.7-1.5 1.8h-.3z" class="cl_lightest"/>
		<path d="M131.3 125H112c-.9.1-1.7-.6-1.8-1.5s.6-1.7 1.5-1.8h19.6c.9-.1 1.7.6 1.8 1.5s-.6 1.7-1.5 1.8h-.3z" class="cl_lighter"/>
		<path d="M146.5 113.9h-27.7c-.9-.1-1.6-.9-1.5-1.8.1-.8.7-1.5 1.5-1.5h27.7c.9-.1 1.7.6 1.8 1.5s-.6 1.7-1.5 1.8h-.3zM146.5 136h-27.7c-.9-.1-1.6-.9-1.5-1.8.1-.8.7-1.5 1.5-1.5h27.7c.9-.1 1.7.6 1.8 1.5s-.6 1.7-1.5 1.8h-.3z" class="cl_lightest"/>
		<path d="M132.6 113.9h-13.9c-.9-.1-1.6-.9-1.5-1.8.1-.8.7-1.5 1.5-1.5h13.9c.9-.1 1.7.6 1.8 1.5s-.6 1.7-1.5 1.8h-.3zM132.6 136h-13.9c-.9-.1-1.6-.9-1.5-1.8.1-.8.7-1.5 1.5-1.5h13.9c.9-.1 1.7.6 1.8 1.5s-.6 1.7-1.5 1.8h-.3z" class="cl_lighter"/>
    </g>

  	</g>
    </g>
    </g>
</svg>