<svg class="icon icon-workforce" xmlns="http://www.w3.org/2000/svg" id="Layer_1" data-name="Layer 1" width="150" height="150" viewBox="0 0 216 216">
  <defs>
        <style>.cl_base{fill:#0050BA}.cl_lightest{fill:#93B5E5}.cl_lighter{fill:#5C8FD3}.cl_accent{fill:#0032A0}</style>

  </defs>
  <title>
    Internet Association Workforce Icon
  </title>
  <g class="workforce">
        <g class="outer-circ">
      <path d="M54.4 108.8c-13.9 0-27.9-5.3-38.5-15.9-21.2-21.2-21.2-55.8 0-77 21.2-21.2 55.8-21.2 77 0 21.2 21.2 21.2 55.8 0 77-10.6 10.6-24.6 15.9-38.5 15.9zM54.4 2C41 2 27.6 7.1 17.3 17.3-3.1 37.8-3.1 71 17.3 91.5c20.4 20.4 53.7 20.4 74.2 0 20.4-20.4 20.4-53.7 0-74.2C81.3 7.1 67.8 2 54.4 2z" class="cl_base" transform="translate(16.161 16.161) scale(1.68821)"/>
      <path d="M92.2 93.2c-.3 0-.5-.1-.7-.3-.4-.4-.4-1 0-1.4 20.4-20.4 20.4-53.7 0-74.2C71-3.1 37.8-3.1 17.3 17.3c-.4.4-1 .4-1.4 0s-.4-1 0-1.4c21.2-21.2 55.8-21.2 77 0 21.2 21.2 21.2 55.8 0 77-.2.2-.5.3-.7.3z" class="cl_lighter" transform="translate(16.161 16.161) scale(1.68821)"/>
    </g>
    <g class="inner-element">
      <path d="M56.8 116.1c-1 0-1.9-.8-2-1.9-.1-1.1-.1-2.1-.1-3.2 0-17.1 8.4-33.2 22.4-42.9.9-.6 2.2-.4 2.8.5.6.9.4 2.2-.5 2.8-13 9.1-20.7 23.9-20.7 39.7 0 1 0 2 .1 3 .1 1.1-.8 2.1-1.9 2.1 0-.1 0-.1-.1-.1z" class="cl_lightest"/>
      <path d="M56.8 116.1c-1 0-1.9-.8-2-1.9-.1-1.1-.1-2.1-.1-3.2 0-17.1 8.4-33.2 22.4-42.9.9-.6 2.2-.4 2.8.5.6.9.4 2.2-.5 2.8-13 9.1-20.7 23.9-20.7 39.7 0 1 0 2 .1 3 .1 1.1-.8 2.1-1.9 2.1 0-.1 0-.1-.1-.1zM157 106.7c-1 0-1.9-.7-2-1.8-1.9-15.3-11.2-28.9-24.8-36.4-1-.5-1.3-1.7-.8-2.7.5-1 1.7-1.3 2.7-.8 14.7 8 24.8 22.8 26.9 39.4.1 1.1-.6 2.1-1.7 2.2-.2.1-.2.1-.3.1z" class="cl_lightest"/>
      <path d="M157 106.7c-1 0-1.9-.7-2-1.8-1.9-15.3-11.2-28.9-24.8-36.4-1-.5-1.3-1.7-.8-2.7.5-1 1.7-1.3 2.7-.8 14.7 8 24.8 22.8 26.9 39.4.1 1.1-.6 2.1-1.7 2.2-.2.1-.2.1-.3.1zM107.1 163.4c-7.2 0-14.2-1.4-20.8-4.3-1-.4-1.5-1.6-1-2.6.4-1 1.6-1.5 2.6-1 6.1 2.6 12.5 4 19.2 4 11.9 0 23.4-4.4 32.2-12.3.8-.7 2.1-.7 2.8.2.7.8.7 2.1-.2 2.8-9.5 8.4-21.9 13.2-34.8 13.2z" class="cl_lightest"/>
      <path d="M107.1 163.4c-7.2 0-14.2-1.4-20.8-4.3-1-.4-1.5-1.6-1-2.6.4-1 1.6-1.5 2.6-1 6.1 2.6 12.5 4 19.2 4 11.9 0 23.4-4.4 32.2-12.3.8-.7 2.1-.7 2.8.2.7.8.7 2.1-.2 2.8-9.5 8.4-21.9 13.2-34.8 13.2z" class="cl_lightest"/>
      <g class="div-shapes">
      <path d="M105.4 78c-9.3 0-16.8-7.5-16.8-16.8s7.5-16.8 16.8-16.8 16.8 7.5 16.8 16.8S114.7 78 105.4 78zm0-29.7c-7.1 0-12.8 5.8-12.8 12.8S98.3 74 105.4 74c7.1 0 12.8-5.8 12.8-12.8s-5.7-12.9-12.8-12.9z" class="cl_base div-circle"/>
            <path d="M158.1 146.7c-1 0-1.9-.4-2.6-1.2l-17.6-20c-.8-.9-1.1-2.2-.7-3.4s1.4-2 2.6-2.3l26.1-5.2c1.2-.2 2.4.2 3.3 1.1.8.9 1.1 2.2.7 3.4l-8.5 25.2c-.4 1.2-1.4 2-2.6 2.3-.3.1-.5.1-.7.1zm-16.5-23l16.3 18.5 7.9-23.4-24.2 4.9zm24.7-7z" class="cl_base div-tri"/>
        <path d="M61.7 158.1c-.3 0-.6 0-.9-.1-.9-.2-1.6-.8-2.1-1.6l-11.9-20.7c-.5-.8-.6-1.7-.3-2.6.2-.9.8-1.6 1.6-2.1l20.7-11.9c.8-.5 1.7-.6 2.6-.3.9.2 1.6.8 2.1 1.6L85.3 141c.5.8.6 1.7.3 2.6-.2.9-.8 1.6-1.6 2.1l-20.7 11.9c-.5.3-1 .5-1.6.5zm-11.2-23.9l11.4 19.7 19.7-11.4-11.4-19.7-19.7 11.4zm31.5 8z" class="cl_base div-sq"/>
    </g>
      <g>
        <path d="M157 106.7c-1 0-1.9-.7-2-1.8-1-8-4.1-15.7-8.9-22.3-.6-.9-.5-2.1.4-2.8.9-.7 2.1-.5 2.8.4 5.2 7.1 8.5 15.5 9.6 24.2.1 1.1-.6 2.1-1.7 2.2-.1.1-.1.1-.2.1z" class="cl_lighter"/>
        <path d="M157 106.7c-1 0-1.9-.7-2-1.8-1-8-4.1-15.7-8.9-22.3-.6-.9-.5-2.1.4-2.8.9-.7 2.1-.5 2.8.4 5.2 7.1 8.5 15.5 9.6 24.2.1 1.1-.6 2.1-1.7 2.2-.1.1-.1.1-.2.1z" class="cl_lighter"/>
      </g>
      <g>
        <path d="M107.1 163.4c-7.2 0-14.2-1.4-20.8-4.3-1-.4-1.5-1.6-1-2.6.4-1 1.6-1.5 2.6-1 6.1 2.6 12.5 4 19.2 4 2.6 0 5.3-.2 7.9-.7 1.1-.2 2.1.6 2.3 1.6.2 1.1-.6 2.1-1.6 2.3-2.9.4-5.8.7-8.6.7z" class="cl_lighter"/>
        <path d="M107.1 163.4c-7.2 0-14.2-1.4-20.8-4.3-1-.4-1.5-1.6-1-2.6.4-1 1.6-1.5 2.6-1 6.1 2.6 12.5 4 19.2 4 2.6 0 5.3-.2 7.9-.7 1.1-.2 2.1.6 2.3 1.6.2 1.1-.6 2.1-1.6 2.3-2.9.4-5.8.7-8.6.7z" class="cl_lighter"/>
      </g>
      <g>
        <path d="M62.3 90c-.3 0-.6-.1-.9-.2-1-.5-1.4-1.7-.9-2.7 3.9-7.6 9.7-14.2 16.6-19 .9-.6 2.2-.4 2.8.5.6.9.4 2.2-.5 2.8-6.4 4.5-11.7 10.5-15.3 17.5-.4.7-1.1 1.1-1.8 1.1z" class="cl_lighter"/>
        <path d="M62.3 90c-.3 0-.6-.1-.9-.2-1-.5-1.4-1.7-.9-2.7 3.9-7.6 9.7-14.2 16.6-19 .9-.6 2.2-.4 2.8.5.6.9.4 2.2-.5 2.8-6.4 4.5-11.7 10.5-15.3 17.5-.4.7-1.1 1.1-1.8 1.1z" class="cl_lighter"/>
      </g>
    </g>
  </g>
</svg>