<svg id="Layer_1" data-name="Layer 1" xmlns="http://www.w3.org/2000/svg" viewBox="0 0 513.93 236.34">
  <g>
    <g>
      <path d="M42.7,145.11c-7.23-8.66-16.56-22-16.56-28.29a16.56,16.56,0,0,1,33.11,0C59.25,123.15,49.92,136.45,42.7,145.11Z" fill="none" stroke="#0e6ffa" stroke-linecap="round" stroke-linejoin="round" stroke-width="3"/>
      <path d="M52,117.15a9.27,9.27,0,1,1-9.26-9.27A9.27,9.27,0,0,1,52,117.15Z" fill="none" stroke="#87b7fd" stroke-linecap="round" stroke-linejoin="round" stroke-width="3"/>
      <path d="M33.43,117.15a9.27,9.27,0,1,1,18.53,0" fill="none" stroke="#4a93fb" stroke-linecap="round" stroke-linejoin="round" stroke-width="3"/>
      <line x1="17.68" y1="151.36" x2="67.7" y2="151.36" fill="none" stroke="#4a93fb" stroke-linecap="round" stroke-linejoin="round" stroke-width="3"/>
      <line x1="17.68" y1="91.92" x2="67.7" y2="91.92" fill="none" stroke="#4a93fb" stroke-linecap="round" stroke-linejoin="round" stroke-width="3"/>
      <line x1="17.68" y1="151.36" x2="43.42" y2="151.36" fill="none" stroke="#87b7fd" stroke-linecap="round" stroke-linejoin="round" stroke-width="3"/>
      <line x1="17.68" y1="91.92" x2="43.42" y2="91.92" fill="none" stroke="#87b7fd" stroke-linecap="round" stroke-linejoin="round" stroke-width="3"/>
      <rect x="17.37" y="80.63" width="50.64" height="89.71" rx="8.49" stroke-width="3" stroke="#0e6ffa" stroke-linecap="round" stroke-linejoin="round" fill="none"/>
      <circle cx="43.42" cy="160.67" r="3.06" fill="none" stroke="#0e6ffa" stroke-linecap="round" stroke-linejoin="round" stroke-width="3"/>
    </g>
    <line x1="431.56" y1="151.36" x2="481.58" y2="151.36" fill="none" stroke="#4a93fb" stroke-linecap="round" stroke-linejoin="round" stroke-width="3"/>
    <line x1="431.56" y1="91.92" x2="481.58" y2="91.92" fill="none" stroke="#4a93fb" stroke-linecap="round" stroke-linejoin="round" stroke-width="3"/>
    <line x1="431.56" y1="151.36" x2="457.3" y2="151.36" fill="none" stroke="#87b7fd" stroke-linecap="round" stroke-linejoin="round" stroke-width="3"/>
    <line x1="431.56" y1="91.92" x2="457.3" y2="91.92" fill="none" stroke="#87b7fd" stroke-linecap="round" stroke-linejoin="round" stroke-width="3"/>
    <rect x="431.25" y="80.63" width="50.64" height="89.71" rx="8.49" stroke-width="3" stroke="#0e6ffa" stroke-linecap="round" stroke-linejoin="round" fill="none"/>
    <circle cx="457.3" cy="160.67" r="3.06" fill="none" stroke="#0e6ffa" stroke-linecap="round" stroke-linejoin="round" stroke-width="3"/>
    <path d="M463.93,131.91c0-5.6-5.23-10.13-11.68-10.13" fill="none" stroke="#0e6ffa" stroke-linecap="round" stroke-linejoin="round" stroke-width="3"/>
    <line x1="452.25" y1="121.78" x2="440.19" y2="121.78" fill="none" stroke="#0e6ffa" stroke-linecap="round" stroke-linejoin="round" stroke-width="3"/>
    <line x1="463.93" y1="145.07" x2="463.93" y2="98.6" fill="none" stroke="#0e6ffa" stroke-linecap="round" stroke-linejoin="round" stroke-width="3"/>
    <line x1="457.3" y1="64.58" x2="457.3" y2="54.61" fill="none" stroke="#87b7fd" stroke-linecap="round" stroke-linejoin="round" stroke-width="3"/>
    <line x1="422.16" y1="79.32" x2="415.11" y2="72.27" fill="none" stroke="#87b7fd" stroke-linecap="round" stroke-linejoin="round" stroke-width="3"/>
    <line x1="438.09" y1="67.13" x2="434.35" y2="57.88" fill="none" stroke="#4a93fb" stroke-linecap="round" stroke-linejoin="round" stroke-width="3"/>
    <line x1="492.44" y1="79.32" x2="499.49" y2="72.27" fill="none" stroke="#87b7fd" stroke-linecap="round" stroke-linejoin="round" stroke-width="3"/>
    <line x1="476.51" y1="67.13" x2="480.25" y2="57.88" fill="none" stroke="#4a93fb" stroke-linecap="round" stroke-linejoin="round" stroke-width="3"/>
    <line x1="457.3" y1="185.48" x2="457.3" y2="195.45" fill="none" stroke="#87b7fd" stroke-linecap="round" stroke-linejoin="round" stroke-width="3"/>
    <line x1="422.16" y1="170.73" x2="415.11" y2="177.78" fill="none" stroke="#87b7fd" stroke-linecap="round" stroke-linejoin="round" stroke-width="3"/>
    <line x1="438.09" y1="182.93" x2="434.35" y2="192.17" fill="none" stroke="#4a93fb" stroke-linecap="round" stroke-linejoin="round" stroke-width="3"/>
    <line x1="492.44" y1="170.73" x2="499.49" y2="177.78" fill="none" stroke="#87b7fd" stroke-linecap="round" stroke-linejoin="round" stroke-width="3"/>
    <line x1="476.51" y1="182.93" x2="480.25" y2="192.17" fill="none" stroke="#4a93fb" stroke-linecap="round" stroke-linejoin="round" stroke-width="3"/>
    <g>
      <line x1="457.36" y1="105.75" x2="463.93" y2="98.6" fill="none" stroke="#87b7fd" stroke-linecap="round" stroke-linejoin="round" stroke-width="3"/>
      <line x1="470.5" y1="105.75" x2="463.93" y2="98.6" fill="none" stroke="#4a93fb" stroke-linecap="round" stroke-linejoin="round" stroke-width="3"/>
    </g>
    <g>
      <line x1="446.47" y1="128.35" x2="439.32" y2="121.78" fill="none" stroke="#87b7fd" stroke-linecap="round" stroke-linejoin="round" stroke-width="3"/>
      <line x1="446.47" y1="115.21" x2="439.32" y2="121.78" fill="none" stroke="#4a93fb" stroke-linecap="round" stroke-linejoin="round" stroke-width="3"/>
    </g>
    <line x1="83.49" y1="123.68" x2="178.08" y2="123.68" fill="none" stroke="#4a93fb" stroke-linecap="round" stroke-linejoin="round" stroke-width="3"/>
    <line x1="312.77" y1="123.68" x2="418.64" y2="123.68" fill="none" stroke="#0e6ffa" stroke-linecap="round" stroke-linejoin="round" stroke-width="3"/>
    <polygon points="102.87 123.69 96.75 120.16 96.75 127.21 102.87 123.69" fill="#3371e2" stroke="#3371e2" stroke-linecap="round" stroke-linejoin="round" stroke-width="3"/>
    <polygon points="134.03 123.68 127.92 120.16 127.92 127.21 134.03 123.68" fill="#3371e2" stroke="#3371e2" stroke-linecap="round" stroke-linejoin="round" stroke-width="3"/>
    <polygon points="165.2 123.88 159.09 120.35 159.09 127.41 165.2 123.88" fill="#3371e2" stroke="#3371e2" stroke-linecap="round" stroke-linejoin="round" stroke-width="3"/>
    <g>
      <polygon points="332.53 123.69 326.42 120.16 326.42 127.21 332.53 123.69" fill="none" stroke="#0e6ffa" stroke-linecap="round" stroke-linejoin="round" stroke-width="3"/>
      <polygon points="338.64 123.69 332.53 120.16 332.53 127.21 338.64 123.69" fill="#0047bb" stroke="#0047bb" stroke-linecap="round" stroke-linejoin="round" stroke-width="3"/>
    </g>
    <g>
      <polygon points="366.75 123.54 360.64 120.01 360.64 127.07 366.75 123.54" fill="none" stroke="#0e6ffa" stroke-linecap="round" stroke-linejoin="round" stroke-width="3"/>
      <polygon points="372.87 123.54 366.75 120.01 366.75 127.07 372.87 123.54" fill="#0047bb" stroke="#0047bb" stroke-linecap="round" stroke-linejoin="round" stroke-width="3"/>
    </g>
    <g>
      <polygon points="401.26 123.69 395.15 120.16 395.15 127.21 401.26 123.69" fill="none" stroke="#0e6ffa" stroke-linecap="round" stroke-linejoin="round" stroke-width="3"/>
      <polygon points="407.37 123.68 401.26 120.16 401.26 127.21 407.37 123.68" fill="#0047bb" stroke="#0047bb" stroke-linecap="round" stroke-linejoin="round" stroke-width="3"/>
    </g>
    <polyline points="306.06 187.5 306.06 176.28 245.87 176.28 245.87 176.28" fill="none" stroke="#4a93fb" stroke-linecap="round" stroke-linejoin="round" stroke-width="3"/>
    <polyline points="186.93 187.5 186.93 176.28 245.99 176.28 245.99 149.44" fill="none" stroke="#4a93fb" stroke-linecap="round" stroke-linejoin="round" stroke-width="3"/>
    <g>
      <polyline points="185.87 60.54 185.87 71.76 246.06 71.76 246.06 71.76" fill="none" stroke="#4a93fb" stroke-linecap="round" stroke-linejoin="round" stroke-width="3"/>
      <g>
        <line x1="295.4" y1="219.19" x2="315.57" y2="200.4" fill="none" stroke="#0e6ffa" stroke-linecap="round" stroke-linejoin="round" stroke-width="3"/>
        <circle cx="305.54" cy="209.85" r="13.78" fill="none" stroke="#87b7fd" stroke-linecap="round" stroke-linejoin="round" stroke-width="3"/>
        <path d="M315.65,200.5a13.78,13.78,0,1,1-20.24,18.71" fill="none" stroke="#4a93fb" stroke-linecap="round" stroke-linejoin="round" stroke-width="3"/>
      </g>
      <g>
        <g>
          <g>
            <polygon points="295.68 24.91 290.44 19.48 295.68 19.48 295.68 24.91" fill="#3371e2" stroke="#3371e2" stroke-linecap="round" stroke-linejoin="round" stroke-width="3"/>
            <polyline points="290.44 19.48 290.44 19.48 295.68 19.48" fill="none" stroke="#87b7fd" stroke-linecap="round" stroke-linejoin="round" stroke-width="3"/>
          </g>
          <g>
            <polygon points="295.68 36.34 290.44 30.92 295.68 30.92 295.68 36.34" fill="#3371e2" stroke="#3371e2" stroke-linecap="round" stroke-linejoin="round" stroke-width="3"/>
            <polyline points="290.44 30.92 290.44 30.92 295.68 30.92" fill="none" stroke="#87b7fd" stroke-linecap="round" stroke-linejoin="round" stroke-width="3"/>
          </g>
          <g>
            <polygon points="295.68 47.77 290.44 42.35 295.68 42.35 295.68 47.77" fill="#3371e2" stroke="#3371e2" stroke-linecap="round" stroke-linejoin="round" stroke-width="3"/>
            <polyline points="290.44 42.35 290.44 42.35 295.68 42.35" fill="none" stroke="#87b7fd" stroke-linecap="round" stroke-linejoin="round" stroke-width="3"/>
          </g>
        </g>
        <circle cx="304.78" cy="34.35" r="3.15" fill="none" stroke="#87b7fd" stroke-linecap="round" stroke-linejoin="round" stroke-width="3"/>
        <circle cx="304.78" cy="45.22" r="3.15" fill="none" stroke="#4a93fb" stroke-linecap="round" stroke-linejoin="round" stroke-width="3"/>
        <circle cx="304.78" cy="23.47" r="3.15" fill="none" stroke="#4a93fb" stroke-linecap="round" stroke-linejoin="round" stroke-width="3"/>
        <g>
          <g>
            <polygon points="313.88 24.91 319.12 19.48 313.88 19.48 313.88 24.91" fill="#3371e2" stroke="#3371e2" stroke-linecap="round" stroke-linejoin="round" stroke-width="3"/>
            <polyline points="319.12 19.48 319.12 19.48 313.88 19.48" fill="none" stroke="#87b7fd" stroke-linecap="round" stroke-linejoin="round" stroke-width="3"/>
          </g>
          <g>
            <polygon points="313.88 36.34 319.12 30.92 313.88 30.92 313.88 36.34" fill="#3371e2" stroke="#3371e2" stroke-linecap="round" stroke-linejoin="round" stroke-width="3"/>
            <polyline points="319.12 30.92 319.12 30.92 313.88 30.92" fill="none" stroke="#87b7fd" stroke-linecap="round" stroke-linejoin="round" stroke-width="3"/>
          </g>
          <g>
            <polygon points="313.88 47.77 319.12 42.35 313.88 42.35 313.88 47.77" fill="#3371e2" stroke="#3371e2" stroke-linecap="round" stroke-linejoin="round" stroke-width="3"/>
            <polyline points="319.12 42.35 319.12 42.35 313.88 42.35" fill="none" stroke="#87b7fd" stroke-linecap="round" stroke-linejoin="round" stroke-width="3"/>
          </g>
        </g>
        <rect x="295.68" y="16.66" width="18.2" height="35.37" stroke-width="3" stroke="#0e6ffa" stroke-linecap="round" stroke-linejoin="round" fill="none"/>
      </g>
      <g>
        <polygon points="186.77 196.18 171.64 222.39 201.91 222.39 186.77 196.18" fill="none" stroke="#4a93fb" stroke-linecap="round" stroke-linejoin="round" stroke-width="3"/>
        <line x1="186.77" y1="205.56" x2="186.77" y2="213.14" fill="none" stroke="#0e6ffa" stroke-linecap="round" stroke-linejoin="round" stroke-width="3"/>
        <line x1="186.77" y1="216.99" x2="186.77" y2="217.9" fill="none" stroke="#0e6ffa" stroke-linecap="round" stroke-linejoin="round" stroke-width="3"/>
        <polyline points="179.66 208.5 171.64 222.39 201.91 222.39" fill="none" stroke="#87b7fd" stroke-linecap="round" stroke-linejoin="round" stroke-width="3"/>
      </g>
      <g>
        <g>
          <polyline points="182.84 38.78 182.84 42.69 175.67 42.69 175.67 38.78" fill="#fff" stroke="#3371e2" stroke-linecap="round" stroke-linejoin="round" stroke-width="3"/>
          <polyline points="208.3 38.78 208.3 42.69 201.12 42.69 201.12 38.78" fill="#fff" stroke="#3371e2" stroke-linecap="round" stroke-linejoin="round" stroke-width="3"/>
          <line x1="182.84" y1="42.69" x2="178.28" y2="42.69" fill="none" stroke="#87b7fd" stroke-linecap="round" stroke-linejoin="round" stroke-width="3"/>
          <line x1="182.84" y1="38.78" x2="182.84" y2="42.69" fill="none" stroke="#87b7fd" stroke-linecap="round" stroke-linejoin="round" stroke-width="3"/>
          <line x1="208.3" y1="42.69" x2="203.73" y2="42.69" fill="none" stroke="#87b7fd" stroke-linecap="round" stroke-linejoin="round" stroke-width="3"/>
          <line x1="208.3" y1="38.78" x2="208.3" y2="42.69" fill="none" stroke="#87b7fd" stroke-linecap="round" stroke-linejoin="round" stroke-width="3"/>
          <path d="M205.87,27,203.68,18a1.19,1.19,0,0,0-1.17-.82H181.44a1.2,1.2,0,0,0-1.17.82L178.08,27" fill="#f2f6fd" stroke="#4a93fb" stroke-linecap="round" stroke-linejoin="round" stroke-width="3"/>
          <path d="M180.27,18,178.08,27" fill="none" stroke="#87b7fd" stroke-linecap="round" stroke-linejoin="round" stroke-width="3"/>
          <path d="M208.28,38.78H175.67v-8.6a1.4,1.4,0,0,1,.35-.92L178.08,27h27.79l2.06,2.23a1.35,1.35,0,0,1,.35.92Z" fill="#f2f6fd" stroke="#0e6ffa" stroke-linecap="round" stroke-linejoin="round" stroke-width="3"/>
          <circle cx="181.81" cy="32.91" r="1.96" fill="none" stroke="#4a93fb" stroke-linecap="round" stroke-linejoin="round" stroke-width="3"/>
          <path d="M181.44,17.15a1.2,1.2,0,0,0-1.17.82" fill="none" stroke="#87b7fd" stroke-linecap="round" stroke-linejoin="round" stroke-width="3"/>
          <path d="M187.19,17.15h-5.75" fill="none" stroke="#87b7fd" stroke-linecap="round" stroke-linejoin="round" stroke-width="3"/>
          <path d="M180.48,34.34a2,2,0,0,1,2.66-2.88" fill="none" stroke="#87b7fd" stroke-linecap="round" stroke-linejoin="round" stroke-width="3"/>
        </g>
        <g>
          <polyline points="177.64 42.17 177.64 46.09 170.47 46.09 170.47 42.17" fill="#fff" stroke="#3371e2" stroke-linecap="round" stroke-linejoin="round" stroke-width="3"/>
          <polyline points="203.09 42.17 203.09 46.09 195.92 46.09 195.92 42.17" fill="#fff" stroke="#3371e2" stroke-linecap="round" stroke-linejoin="round" stroke-width="3"/>
          <line x1="177.64" y1="46.09" x2="173.08" y2="46.09" fill="none" stroke="#87b7fd" stroke-linecap="round" stroke-linejoin="round" stroke-width="3"/>
          <line x1="177.64" y1="42.17" x2="177.64" y2="46.09" fill="none" stroke="#87b7fd" stroke-linecap="round" stroke-linejoin="round" stroke-width="3"/>
          <line x1="203.09" y1="46.09" x2="198.53" y2="46.09" fill="none" stroke="#87b7fd" stroke-linecap="round" stroke-linejoin="round" stroke-width="3"/>
          <line x1="203.09" y1="42.17" x2="203.09" y2="46.09" fill="none" stroke="#87b7fd" stroke-linecap="round" stroke-linejoin="round" stroke-width="3"/>
          <path d="M200.67,30.43l-2.19-9.07a1.2,1.2,0,0,0-1.17-.81H176.24a1.19,1.19,0,0,0-1.17.81l-2.19,9.07" fill="#f2f6fd" stroke="#4a93fb" stroke-linecap="round" stroke-linejoin="round" stroke-width="3"/>
          <path d="M175.07,21.36l-2.19,9.07" fill="none" stroke="#87b7fd" stroke-linecap="round" stroke-linejoin="round" stroke-width="3"/>
          <path d="M203.08,42.17H170.47V33.58a1.32,1.32,0,0,1,.35-.92l2.06-2.23h27.79l2.06,2.23a1.37,1.37,0,0,1,.35.92Z" fill="#f2f6fd" stroke="#0e6ffa" stroke-linecap="round" stroke-linejoin="round" stroke-width="3"/>
          <circle cx="176.61" cy="36.31" r="1.96" fill="none" stroke="#4a93fb" stroke-linecap="round" stroke-linejoin="round" stroke-width="3"/>
          <path d="M176.24,20.55a1.19,1.19,0,0,0-1.17.81" fill="none" stroke="#87b7fd" stroke-linecap="round" stroke-linejoin="round" stroke-width="3"/>
          <path d="M182,20.55h-5.75" fill="none" stroke="#87b7fd" stroke-linecap="round" stroke-linejoin="round" stroke-width="3"/>
          <path d="M175.28,37.73a2,2,0,1,1,2.66-2.87" fill="none" stroke="#87b7fd" stroke-linecap="round" stroke-linejoin="round" stroke-width="3"/>
        </g>
        <g>
          <polyline points="172.28 46.45 172.28 50.36 165.11 50.36 165.11 46.45" fill="#fff" stroke="#4a93fb" stroke-linecap="round" stroke-linejoin="round" stroke-width="3"/>
          <polyline points="197.74 46.45 197.74 50.36 190.56 50.36 190.56 46.45" fill="#fff" stroke="#87b7fd" stroke-linecap="round" stroke-linejoin="round" stroke-width="3"/>
          <line x1="172.28" y1="50.36" x2="167.72" y2="50.36" fill="none" stroke="#87b7fd" stroke-linecap="round" stroke-linejoin="round" stroke-width="3"/>
          <line x1="172.28" y1="46.45" x2="172.28" y2="50.36" fill="none" stroke="#87b7fd" stroke-linecap="round" stroke-linejoin="round" stroke-width="3"/>
          <line x1="197.74" y1="50.36" x2="193.17" y2="50.36" fill="none" stroke="#87b7fd" stroke-linecap="round" stroke-linejoin="round" stroke-width="3"/>
          <line x1="197.74" y1="46.45" x2="197.74" y2="50.36" fill="none" stroke="#87b7fd" stroke-linecap="round" stroke-linejoin="round" stroke-width="3"/>
          <path d="M195.31,34.71l-2.19-9.07a1.18,1.18,0,0,0-1.17-.81H170.88a1.19,1.19,0,0,0-1.17.81l-2.19,9.07" fill="#f2f6fd" stroke="#4a93fb" stroke-linecap="round" stroke-linejoin="round" stroke-width="3"/>
          <path d="M169.71,25.64l-2.19,9.07" fill="none" stroke="#87b7fd" stroke-linecap="round" stroke-linejoin="round" stroke-width="3"/>
          <path d="M197.72,46.45H165.11V37.86a1.37,1.37,0,0,1,.35-.92l2.06-2.23h27.79l2.06,2.23a1.32,1.32,0,0,1,.35.92Z" fill="#f2f6fd" stroke="#0e6ffa" stroke-linecap="round" stroke-linejoin="round" stroke-width="3"/>
          <path d="M170.88,24.83a1.19,1.19,0,0,0-1.17.81" fill="none" stroke="#87b7fd" stroke-linecap="round" stroke-linejoin="round" stroke-width="3"/>
          <path d="M176.63,24.83h-5.75" fill="none" stroke="#87b7fd" stroke-linecap="round" stroke-linejoin="round" stroke-width="3"/>
        </g>
        <circle cx="172.28" cy="40.58" r="2.38" fill="#3993ff"/>
        <circle cx="190.56" cy="40.58" r="2.38" fill="#3993ff"/>
      </g>
      <g>
        <path d="M184.06,106.14c0-1.82.62-2.89,2-2.89s2,1.07,2,2.89-.62,2.89-2,2.89S184.06,108,184.06,106.14Zm3.2.47v-.94c0-1.07-.34-1.76-1.2-1.76s-1.2.69-1.2,1.76v.94c0,1.07.34,1.76,1.2,1.76S187.26,107.68,187.26,106.61Zm-1.7-.38v-.18c0-.21.13-.38.5-.38s.5.17.5.38v.18c0,.21-.13.38-.5.38S185.56,106.44,185.56,106.23Z" fill="#3993ff"/>
        <path d="M189.15,108.93v-.66h1.58v-4.35h0l-1.36,1.34-.46-.46,1.45-1.45h1.2v4.92h1.41v.66Z" fill="#3993ff"/>
        <path d="M194,108.93v-.66h1.58v-4.35h-.05l-1.36,1.34-.46-.46,1.45-1.45h1.2v4.92h1.41v.66Z" fill="#3993ff"/>
        <path d="M198.46,106.14c0-1.82.62-2.89,2-2.89s2,1.07,2,2.89-.62,2.89-2,2.89S198.46,108,198.46,106.14Zm3.2.47v-.94c0-1.07-.34-1.76-1.2-1.76s-1.2.69-1.2,1.76v.94c0,1.07.34,1.76,1.2,1.76S201.66,107.68,201.66,106.61Zm-1.7-.38v-.18c0-.21.13-.38.5-.38s.5.17.5.38v.18c0,.21-.13.38-.5.38S200,106.44,200,106.23Z" fill="#3993ff"/>
        <path d="M203.26,106.14c0-1.82.62-2.89,2-2.89s2,1.07,2,2.89-.62,2.89-2,2.89S203.26,108,203.26,106.14Zm3.2.47v-.94c0-1.07-.34-1.76-1.2-1.76s-1.2.69-1.2,1.76v.94c0,1.07.34,1.76,1.2,1.76S206.46,107.68,206.46,106.61Zm-1.7-.38v-.18c0-.21.13-.38.5-.38s.5.17.5.38v.18c0,.21-.13.38-.5.38S204.76,106.44,204.76,106.23Z" fill="#3993ff"/>
        <path d="M208.06,106.14c0-1.82.62-2.89,2-2.89s2,1.07,2,2.89-.62,2.89-2,2.89S208.06,108,208.06,106.14Zm3.2.47v-.94c0-1.07-.34-1.76-1.2-1.76s-1.2.69-1.2,1.76v.94c0,1.07.34,1.76,1.2,1.76S211.26,107.68,211.26,106.61Zm-1.7-.38v-.18c0-.21.13-.38.5-.38s.49.17.49.38v.18c0,.21-.12.38-.49.38S209.56,106.44,209.56,106.23Z" fill="#3993ff"/>
        <path d="M212.86,106.14c0-1.82.62-2.89,2-2.89s2,1.07,2,2.89-.62,2.89-2,2.89S212.86,108,212.86,106.14Zm3.2.47v-.94c0-1.07-.34-1.76-1.2-1.76s-1.2.69-1.2,1.76v.94c0,1.07.34,1.76,1.2,1.76S216.06,107.68,216.06,106.61Zm-1.7-.38v-.18c0-.21.13-.38.5-.38s.49.17.49.38v.18c0,.21-.12.38-.49.38S214.36,106.44,214.36,106.23Z" fill="#3993ff"/>
        <path d="M218,108.93v-.66h1.58v-4.35h-.06l-1.35,1.34-.46-.46,1.45-1.45h1.2v4.92h1.41v.66Z" fill="#3993ff"/>
        <path d="M227.26,106.14c0-1.82.62-2.89,2-2.89s2,1.07,2,2.89-.62,2.89-2,2.89S227.26,108,227.26,106.14Zm3.2.47v-.94c0-1.07-.34-1.76-1.2-1.76s-1.2.69-1.2,1.76v.94c0,1.07.33,1.76,1.2,1.76S230.46,107.68,230.46,106.61Zm-1.7-.38v-.18c0-.21.13-.38.5-.38s.49.17.49.38v.18c0,.21-.12.38-.49.38S228.76,106.44,228.76,106.23Z" fill="#3371e2"/>
        <path d="M232.35,108.93v-.66h1.58v-4.35h-.06l-1.35,1.34-.46-.46,1.45-1.45h1.2v4.92h1.41v.66Z" fill="#3371e2"/>
        <path d="M237.15,108.93v-.66h1.58v-4.35h-.06l-1.35,1.34-.46-.46,1.45-1.45h1.2v4.92h1.41v.66Z" fill="#3371e2"/>
        <path d="M241.66,106.14c0-1.82.61-2.89,2-2.89s2,1.07,2,2.89-.62,2.89-2,2.89S241.66,108,241.66,106.14Zm3.2.47v-.94c0-1.07-.34-1.76-1.2-1.76s-1.2.69-1.2,1.76v.94c0,1.07.33,1.76,1.2,1.76S244.86,107.68,244.86,106.61Zm-1.7-.38v-.18c0-.21.13-.38.5-.38s.49.17.49.38v.18c0,.21-.12.38-.49.38S243.16,106.44,243.16,106.23Z" fill="#3371e2"/>
        <path d="M246.75,108.93v-.66h1.58v-4.35h-.06l-1.35,1.34-.46-.46,1.45-1.45h1.19v4.92h1.42v.66Z" fill="#3371e2"/>
        <path d="M251.55,108.93v-.66h1.58v-4.35h-.06l-1.35,1.34-.46-.46,1.45-1.45h1.19v4.92h1.42v.66Z" fill="#3371e2"/>
        <path d="M256.35,108.93v-.66h1.58v-4.35h-.06l-1.35,1.34-.46-.46,1.45-1.45h1.19v4.92h1.42v.66Z" fill="#3371e2"/>
        <path d="M260.86,106.14c0-1.82.61-2.89,2-2.89s2,1.07,2,2.89-.62,2.89-2,2.89S260.86,108,260.86,106.14Zm3.2.47v-.94c0-1.07-.34-1.76-1.2-1.76s-1.2.69-1.2,1.76v.94c0,1.07.33,1.76,1.2,1.76S264.06,107.68,264.06,106.61Zm-1.7-.38v-.18c0-.21.13-.38.5-.38s.49.17.49.38v.18c0,.21-.13.38-.49.38S262.36,106.44,262.36,106.23Z" fill="#3371e2"/>
        <path d="M270.46,106.14c0-1.82.61-2.89,2-2.89s2,1.07,2,2.89-.62,2.89-2,2.89S270.46,108,270.46,106.14Zm3.2.47v-.94c0-1.07-.34-1.76-1.2-1.76s-1.2.69-1.2,1.76v.94c0,1.07.33,1.76,1.2,1.76S273.66,107.68,273.66,106.61Zm-1.7-.38v-.18c0-.21.13-.38.5-.38s.49.17.49.38v.18c0,.21-.13.38-.49.38S272,106.44,272,106.23Z" fill="#3993ff"/>
        <path d="M275.26,106.14c0-1.82.61-2.89,2-2.89s2,1.07,2,2.89-.62,2.89-2,2.89S275.26,108,275.26,106.14Zm3.2.47v-.94c0-1.07-.34-1.76-1.2-1.76s-1.2.69-1.2,1.76v.94c0,1.07.33,1.76,1.2,1.76S278.46,107.68,278.46,106.61Zm-1.7-.38v-.18c0-.21.13-.38.5-.38s.49.17.49.38v.18c0,.21-.13.38-.49.38S276.76,106.44,276.76,106.23Z" fill="#3993ff"/>
        <path d="M280.34,108.93v-.66h1.59v-4.35h-.06l-1.35,1.34-.46-.46,1.44-1.45h1.2v4.92h1.42v.66Z" fill="#3993ff"/>
        <path d="M284.86,106.14c0-1.82.61-2.89,2-2.89s2,1.07,2,2.89-.61,2.89-2,2.89S284.86,108,284.86,106.14Zm3.19.47v-.94c0-1.07-.33-1.76-1.19-1.76s-1.2.69-1.2,1.76v.94c0,1.07.33,1.76,1.2,1.76S288.05,107.68,288.05,106.61Zm-1.69-.38v-.18c0-.21.13-.38.5-.38s.49.17.49.38v.18c0,.21-.13.38-.49.38S286.36,106.44,286.36,106.23Z" fill="#3993ff"/>
        <path d="M289.66,106.14c0-1.82.61-2.89,2-2.89s2,1.07,2,2.89-.61,2.89-2,2.89S289.66,108,289.66,106.14Zm3.19.47v-.94c0-1.07-.33-1.76-1.19-1.76s-1.2.69-1.2,1.76v.94c0,1.07.33,1.76,1.2,1.76S292.85,107.68,292.85,106.61Zm-1.69-.38v-.18c0-.21.13-.38.5-.38s.49.17.49.38v.18c0,.21-.13.38-.49.38S291.16,106.44,291.16,106.23Z" fill="#3993ff"/>
        <path d="M294.46,106.14c0-1.82.61-2.89,2-2.89s2,1.07,2,2.89-.61,2.89-2,2.89S294.46,108,294.46,106.14Zm3.19.47v-.94c0-1.07-.33-1.76-1.19-1.76s-1.2.69-1.2,1.76v.94c0,1.07.33,1.76,1.2,1.76S297.65,107.68,297.65,106.61Zm-1.69-.38v-.18c0-.21.13-.38.5-.38s.49.17.49.38v.18c0,.21-.13.38-.49.38S296,106.44,296,106.23Z" fill="#3993ff"/>
        <path d="M299.26,106.14c0-1.82.61-2.89,2-2.89s2,1.07,2,2.89-.61,2.89-2,2.89S299.26,108,299.26,106.14Zm3.19.47v-.94c0-1.07-.33-1.76-1.19-1.76s-1.2.69-1.2,1.76v.94c0,1.07.33,1.76,1.2,1.76S302.45,107.68,302.45,106.61Zm-1.69-.38v-.18c0-.21.13-.38.5-.38s.49.17.49.38v.18c0,.21-.13.38-.49.38S300.76,106.44,300.76,106.23Z" fill="#3993ff"/>
        <path d="M304.06,106.14c0-1.82.61-2.89,2-2.89s2,1.07,2,2.89-.61,2.89-2,2.89S304.06,108,304.06,106.14Zm3.19.47v-.94c0-1.07-.33-1.76-1.2-1.76s-1.19.69-1.19,1.76v.94c0,1.07.33,1.76,1.19,1.76S307.25,107.68,307.25,106.61Zm-1.69-.38v-.18c0-.21.13-.38.49-.38s.5.17.5.38v.18c0,.21-.13.38-.5.38S305.56,106.44,305.56,106.23Z" fill="#3993ff"/>
        <path d="M184.06,117.14c0-1.82.62-2.89,2-2.89s2,1.07,2,2.89-.62,2.89-2,2.89S184.06,119,184.06,117.14Zm3.2.47v-.94c0-1.07-.34-1.76-1.2-1.76s-1.2.69-1.2,1.76v.94c0,1.07.34,1.76,1.2,1.76S187.26,118.68,187.26,117.61Zm-1.7-.38v-.18c0-.21.13-.38.5-.38s.5.17.5.38v.18c0,.21-.13.38-.5.38S185.56,117.44,185.56,117.23Z" fill="#3371e2"/>
        <path d="M189.15,119.93v-.66h1.58v-4.35h0l-1.36,1.34-.46-.46,1.45-1.45h1.2v4.92h1.41v.66Z" fill="#3371e2"/>
        <path d="M194,119.93v-.66h1.58v-4.35h-.05l-1.36,1.34-.46-.46,1.45-1.45h1.2v4.92h1.41v.66Z" fill="#3371e2"/>
        <path d="M198.46,117.14c0-1.82.62-2.89,2-2.89s2,1.07,2,2.89-.62,2.89-2,2.89S198.46,119,198.46,117.14Zm3.2.47v-.94c0-1.07-.34-1.76-1.2-1.76s-1.2.69-1.2,1.76v.94c0,1.07.34,1.76,1.2,1.76S201.66,118.68,201.66,117.61Zm-1.7-.38v-.18c0-.21.13-.38.5-.38s.5.17.5.38v.18c0,.21-.13.38-.5.38S200,117.44,200,117.23Z" fill="#3371e2"/>
        <path d="M203.26,117.14c0-1.82.62-2.89,2-2.89s2,1.07,2,2.89-.62,2.89-2,2.89S203.26,119,203.26,117.14Zm3.2.47v-.94c0-1.07-.34-1.76-1.2-1.76s-1.2.69-1.2,1.76v.94c0,1.07.34,1.76,1.2,1.76S206.46,118.68,206.46,117.61Zm-1.7-.38v-.18c0-.21.13-.38.5-.38s.5.17.5.38v.18c0,.21-.13.38-.5.38S204.76,117.44,204.76,117.23Z" fill="#3371e2"/>
        <path d="M208.06,117.14c0-1.82.62-2.89,2-2.89s2,1.07,2,2.89-.62,2.89-2,2.89S208.06,119,208.06,117.14Zm3.2.47v-.94c0-1.07-.34-1.76-1.2-1.76s-1.2.69-1.2,1.76v.94c0,1.07.34,1.76,1.2,1.76S211.26,118.68,211.26,117.61Zm-1.7-.38v-.18c0-.21.13-.38.5-.38s.49.17.49.38v.18c0,.21-.12.38-.49.38S209.56,117.44,209.56,117.23Z" fill="#3371e2"/>
        <path d="M212.86,117.14c0-1.82.62-2.89,2-2.89s2,1.07,2,2.89-.62,2.89-2,2.89S212.86,119,212.86,117.14Zm3.2.47v-.94c0-1.07-.34-1.76-1.2-1.76s-1.2.69-1.2,1.76v.94c0,1.07.34,1.76,1.2,1.76S216.06,118.68,216.06,117.61Zm-1.7-.38v-.18c0-.21.13-.38.5-.38s.49.17.49.38v.18c0,.21-.12.38-.49.38S214.36,117.44,214.36,117.23Z" fill="#3371e2"/>
        <path d="M218,119.93v-.66h1.58v-4.35h-.06l-1.35,1.34-.46-.46,1.45-1.45h1.2v4.92h1.41v.66Z" fill="#3371e2"/>
        <path d="M227.26,117.14c0-1.82.62-2.89,2-2.89s2,1.07,2,2.89-.62,2.89-2,2.89S227.26,119,227.26,117.14Zm3.2.47v-.94c0-1.07-.34-1.76-1.2-1.76s-1.2.69-1.2,1.76v.94c0,1.07.33,1.76,1.2,1.76S230.46,118.68,230.46,117.61Zm-1.7-.38v-.18c0-.21.13-.38.5-.38s.49.17.49.38v.18c0,.21-.12.38-.49.38S228.76,117.44,228.76,117.23Z" fill="#3993ff"/>
        <path d="M232.35,119.93v-.66h1.58v-4.35h-.06l-1.35,1.34-.46-.46,1.45-1.45h1.2v4.92h1.41v.66Z" fill="#3993ff"/>
        <path d="M237.15,119.93v-.66h1.58v-4.35h-.06l-1.35,1.34-.46-.46,1.45-1.45h1.2v4.92h1.41v.66Z" fill="#3993ff"/>
        <path d="M241.66,117.14c0-1.82.61-2.89,2-2.89s2,1.07,2,2.89-.62,2.89-2,2.89S241.66,119,241.66,117.14Zm3.2.47v-.94c0-1.07-.34-1.76-1.2-1.76s-1.2.69-1.2,1.76v.94c0,1.07.33,1.76,1.2,1.76S244.86,118.68,244.86,117.61Zm-1.7-.38v-.18c0-.21.13-.38.5-.38s.49.17.49.38v.18c0,.21-.12.38-.49.38S243.16,117.44,243.16,117.23Z" fill="#3993ff"/>
        <path d="M246.75,119.93v-.66h1.58v-4.35h-.06l-1.35,1.34-.46-.46,1.45-1.45h1.19v4.92h1.42v.66Z" fill="#3993ff"/>
        <path d="M251.55,119.93v-.66h1.58v-4.35h-.06l-1.35,1.34-.46-.46,1.45-1.45h1.19v4.92h1.42v.66Z" fill="#3993ff"/>
        <path d="M256.06,117.14c0-1.82.61-2.89,2-2.89s2,1.07,2,2.89-.62,2.89-2,2.89S256.06,119,256.06,117.14Zm3.2.47v-.94c0-1.07-.34-1.76-1.2-1.76s-1.2.69-1.2,1.76v.94c0,1.07.33,1.76,1.2,1.76S259.26,118.68,259.26,117.61Zm-1.7-.38v-.18c0-.21.13-.38.5-.38s.49.17.49.38v.18c0,.21-.12.38-.49.38S257.56,117.44,257.56,117.23Z" fill="#3993ff"/>
        <path d="M260.86,117.14c0-1.82.61-2.89,2-2.89s2,1.07,2,2.89-.62,2.89-2,2.89S260.86,119,260.86,117.14Zm3.2.47v-.94c0-1.07-.34-1.76-1.2-1.76s-1.2.69-1.2,1.76v.94c0,1.07.33,1.76,1.2,1.76S264.06,118.68,264.06,117.61Zm-1.7-.38v-.18c0-.21.13-.38.5-.38s.49.17.49.38v.18c0,.21-.13.38-.49.38S262.36,117.44,262.36,117.23Z" fill="#3993ff"/>
        <path d="M270.46,117.14c0-1.82.61-2.89,2-2.89s2,1.07,2,2.89-.62,2.89-2,2.89S270.46,119,270.46,117.14Zm3.2.47v-.94c0-1.07-.34-1.76-1.2-1.76s-1.2.69-1.2,1.76v.94c0,1.07.33,1.76,1.2,1.76S273.66,118.68,273.66,117.61Zm-1.7-.38v-.18c0-.21.13-.38.5-.38s.49.17.49.38v.18c0,.21-.13.38-.49.38S272,117.44,272,117.23Z" fill="#3371e2"/>
        <path d="M275.55,119.93v-.66h1.58v-4.35h-.06l-1.35,1.34-.46-.46,1.44-1.45h1.2v4.92h1.42v.66Z" fill="#3371e2"/>
        <path d="M280.34,119.93v-.66h1.59v-4.35h-.06l-1.35,1.34-.46-.46,1.44-1.45h1.2v4.92h1.42v.66Z" fill="#3371e2"/>
        <path d="M284.86,117.14c0-1.82.61-2.89,2-2.89s2,1.07,2,2.89-.61,2.89-2,2.89S284.86,119,284.86,117.14Zm3.19.47v-.94c0-1.07-.33-1.76-1.19-1.76s-1.2.69-1.2,1.76v.94c0,1.07.33,1.76,1.2,1.76S288.05,118.68,288.05,117.61Zm-1.69-.38v-.18c0-.21.13-.38.5-.38s.49.17.49.38v.18c0,.21-.13.38-.49.38S286.36,117.44,286.36,117.23Z" fill="#3371e2"/>
        <path d="M289.66,117.14c0-1.82.61-2.89,2-2.89s2,1.07,2,2.89-.61,2.89-2,2.89S289.66,119,289.66,117.14Zm3.19.47v-.94c0-1.07-.33-1.76-1.19-1.76s-1.2.69-1.2,1.76v.94c0,1.07.33,1.76,1.2,1.76S292.85,118.68,292.85,117.61Zm-1.69-.38v-.18c0-.21.13-.38.5-.38s.49.17.49.38v.18c0,.21-.13.38-.49.38S291.16,117.44,291.16,117.23Z" fill="#3371e2"/>
        <path d="M294.74,119.93v-.66h1.59v-4.35h-.06l-1.35,1.34-.46-.46,1.44-1.45h1.2v4.92h1.42v.66Z" fill="#3371e2"/>
        <path d="M299.54,119.93v-.66h1.59v-4.35h-.06l-1.35,1.34-.46-.46,1.44-1.45h1.2v4.92h1.42v.66Z" fill="#3371e2"/>
        <path d="M304.34,119.93v-.66h1.59v-4.35h-.06l-1.35,1.34-.46-.46,1.44-1.45h1.2v4.92h1.42v.66Z" fill="#3371e2"/>
        <path d="M184.06,128.14c0-1.82.62-2.89,2-2.89s2,1.07,2,2.89-.62,2.89-2,2.89S184.06,130,184.06,128.14Zm3.2.47v-.94c0-1.07-.34-1.76-1.2-1.76s-1.2.69-1.2,1.76v.94c0,1.07.34,1.76,1.2,1.76S187.26,129.68,187.26,128.61Zm-1.7-.38v-.18c0-.21.13-.38.5-.38s.5.17.5.38v.18c0,.21-.13.38-.5.38S185.56,128.44,185.56,128.23Z" fill="#3993ff"/>
        <path d="M189.15,130.93v-.66h1.58v-4.35h0l-1.36,1.34-.46-.46,1.45-1.45h1.2v4.92h1.41v.66Z" fill="#3993ff"/>
        <path d="M194,130.93v-.66h1.58v-4.35h-.05l-1.36,1.34-.46-.46,1.45-1.45h1.2v4.92h1.41v.66Z" fill="#3993ff"/>
        <path d="M198.46,128.14c0-1.82.62-2.89,2-2.89s2,1.07,2,2.89-.62,2.89-2,2.89S198.46,130,198.46,128.14Zm3.2.47v-.94c0-1.07-.34-1.76-1.2-1.76s-1.2.69-1.2,1.76v.94c0,1.07.34,1.76,1.2,1.76S201.66,129.68,201.66,128.61Zm-1.7-.38v-.18c0-.21.13-.38.5-.38s.5.17.5.38v.18c0,.21-.13.38-.5.38S200,128.44,200,128.23Z" fill="#3993ff"/>
        <path d="M203.55,130.93v-.66h1.58v-4.35h0l-1.36,1.34-.46-.46,1.45-1.45h1.2v4.92h1.41v.66Z" fill="#3993ff"/>
        <path d="M208.35,130.93v-.66h1.58v-4.35h-.05l-1.36,1.34-.46-.46,1.45-1.45h1.2v4.92h1.41v.66Z" fill="#3993ff"/>
        <path d="M213.15,130.93v-.66h1.58v-4.35h0l-1.36,1.34-.46-.46,1.45-1.45h1.2v4.92h1.41v.66Z" fill="#3993ff"/>
        <path d="M218,130.93v-.66h1.58v-4.35h-.06l-1.35,1.34-.46-.46,1.45-1.45h1.2v4.92h1.41v.66Z" fill="#3993ff"/>
        <path d="M227.26,128.14c0-1.82.62-2.89,2-2.89s2,1.07,2,2.89-.62,2.89-2,2.89S227.26,130,227.26,128.14Zm3.2.47v-.94c0-1.07-.34-1.76-1.2-1.76s-1.2.69-1.2,1.76v.94c0,1.07.33,1.76,1.2,1.76S230.46,129.68,230.46,128.61Zm-1.7-.38v-.18c0-.21.13-.38.5-.38s.49.17.49.38v.18c0,.21-.12.38-.49.38S228.76,128.44,228.76,128.23Z" fill="#3371e2"/>
        <path d="M232.35,130.93v-.66h1.58v-4.35h-.06l-1.35,1.34-.46-.46,1.45-1.45h1.2v4.92h1.41v.66Z" fill="#3371e2"/>
        <path d="M237.15,130.93v-.66h1.58v-4.35h-.06l-1.35,1.34-.46-.46,1.45-1.45h1.2v4.92h1.41v.66Z" fill="#3371e2"/>
        <path d="M242,130.93v-.66h1.58v-4.35h-.06l-1.35,1.34-.46-.46,1.45-1.45h1.19v4.92h1.42v.66Z" fill="#3371e2"/>
        <path d="M246.46,128.14c0-1.82.61-2.89,2-2.89s2,1.07,2,2.89-.62,2.89-2,2.89S246.46,130,246.46,128.14Zm3.2.47v-.94c0-1.07-.34-1.76-1.2-1.76s-1.2.69-1.2,1.76v.94c0,1.07.33,1.76,1.2,1.76S249.66,129.68,249.66,128.61Zm-1.7-.38v-.18c0-.21.13-.38.5-.38s.49.17.49.38v.18c0,.21-.12.38-.49.38S248,128.44,248,128.23Z" fill="#3371e2"/>
        <path d="M251.26,128.14c0-1.82.61-2.89,2-2.89s2,1.07,2,2.89-.62,2.89-2,2.89S251.26,130,251.26,128.14Zm3.2.47v-.94c0-1.07-.34-1.76-1.2-1.76s-1.2.69-1.2,1.76v.94c0,1.07.33,1.76,1.2,1.76S254.46,129.68,254.46,128.61Zm-1.7-.38v-.18c0-.21.13-.38.5-.38s.49.17.49.38v.18c0,.21-.12.38-.49.38S252.76,128.44,252.76,128.23Z" fill="#3371e2"/>
        <path d="M256.35,130.93v-.66h1.58v-4.35h-.06l-1.35,1.34-.46-.46,1.45-1.45h1.19v4.92h1.42v.66Z" fill="#3371e2"/>
        <path d="M260.86,128.14c0-1.82.61-2.89,2-2.89s2,1.07,2,2.89-.62,2.89-2,2.89S260.86,130,260.86,128.14Zm3.2.47v-.94c0-1.07-.34-1.76-1.2-1.76s-1.2.69-1.2,1.76v.94c0,1.07.33,1.76,1.2,1.76S264.06,129.68,264.06,128.61Zm-1.7-.38v-.18c0-.21.13-.38.5-.38s.49.17.49.38v.18c0,.21-.13.38-.49.38S262.36,128.44,262.36,128.23Z" fill="#3371e2"/>
        <path d="M270.46,128.14c0-1.82.61-2.89,2-2.89s2,1.07,2,2.89-.62,2.89-2,2.89S270.46,130,270.46,128.14Zm3.2.47v-.94c0-1.07-.34-1.76-1.2-1.76s-1.2.69-1.2,1.76v.94c0,1.07.33,1.76,1.2,1.76S273.66,129.68,273.66,128.61Zm-1.7-.38v-.18c0-.21.13-.38.5-.38s.49.17.49.38v.18c0,.21-.13.38-.49.38S272,128.44,272,128.23Z" fill="#3993ff"/>
        <path d="M275.55,130.93v-.66h1.58v-4.35h-.06l-1.35,1.34-.46-.46,1.44-1.45h1.2v4.92h1.42v.66Z" fill="#3993ff"/>
        <path d="M280.34,130.93v-.66h1.59v-4.35h-.06l-1.35,1.34-.46-.46,1.44-1.45h1.2v4.92h1.42v.66Z" fill="#3993ff"/>
        <path d="M284.86,128.14c0-1.82.61-2.89,2-2.89s2,1.07,2,2.89-.61,2.89-2,2.89S284.86,130,284.86,128.14Zm3.19.47v-.94c0-1.07-.33-1.76-1.19-1.76s-1.2.69-1.2,1.76v.94c0,1.07.33,1.76,1.2,1.76S288.05,129.68,288.05,128.61Zm-1.69-.38v-.18c0-.21.13-.38.5-.38s.49.17.49.38v.18c0,.21-.13.38-.49.38S286.36,128.44,286.36,128.23Z" fill="#3993ff"/>
        <path d="M289.94,130.93v-.66h1.59v-4.35h-.06l-1.35,1.34-.46-.46,1.44-1.45h1.2v4.92h1.42v.66Z" fill="#3993ff"/>
        <path d="M294.46,128.14c0-1.82.61-2.89,2-2.89s2,1.07,2,2.89-.61,2.89-2,2.89S294.46,130,294.46,128.14Zm3.19.47v-.94c0-1.07-.33-1.76-1.19-1.76s-1.2.69-1.2,1.76v.94c0,1.07.33,1.76,1.2,1.76S297.65,129.68,297.65,128.61Zm-1.69-.38v-.18c0-.21.13-.38.5-.38s.49.17.49.38v.18c0,.21-.13.38-.49.38S296,128.44,296,128.23Z" fill="#3993ff"/>
        <path d="M299.26,128.14c0-1.82.61-2.89,2-2.89s2,1.07,2,2.89-.61,2.89-2,2.89S299.26,130,299.26,128.14Zm3.19.47v-.94c0-1.07-.33-1.76-1.19-1.76s-1.2.69-1.2,1.76v.94c0,1.07.33,1.76,1.2,1.76S302.45,129.68,302.45,128.61Zm-1.69-.38v-.18c0-.21.13-.38.5-.38s.49.17.49.38v.18c0,.21-.13.38-.49.38S300.76,128.44,300.76,128.23Z" fill="#3993ff"/>
        <path d="M304.34,130.93v-.66h1.59v-4.35h-.06l-1.35,1.34-.46-.46,1.44-1.45h1.2v4.92h1.42v.66Z" fill="#3993ff"/>
        <path d="M184.06,139.14c0-1.82.62-2.89,2-2.89s2,1.07,2,2.89-.62,2.89-2,2.89S184.06,141,184.06,139.14Zm3.2.47v-.94c0-1.07-.34-1.76-1.2-1.76s-1.2.69-1.2,1.76v.94c0,1.07.34,1.76,1.2,1.76S187.26,140.68,187.26,139.61Zm-1.7-.38v-.18c0-.21.13-.38.5-.38s.5.17.5.38v.18c0,.21-.13.38-.5.38S185.56,139.44,185.56,139.23Z" fill="#3371e2"/>
        <path d="M189.15,141.93v-.66h1.58v-4.35h0l-1.36,1.34-.46-.46,1.45-1.45h1.2v4.92h1.41v.66Z" fill="#3371e2"/>
        <path d="M194,141.93v-.66h1.58v-4.35h-.05l-1.36,1.34-.46-.46,1.45-1.45h1.2v4.92h1.41v.66Z" fill="#3371e2"/>
        <path d="M198.75,141.93v-.66h1.58v-4.35h-.05l-1.36,1.34-.46-.46,1.45-1.45h1.2v4.92h1.41v.66Z" fill="#3371e2"/>
        <path d="M203.26,139.14c0-1.82.62-2.89,2-2.89s2,1.07,2,2.89-.62,2.89-2,2.89S203.26,141,203.26,139.14Zm3.2.47v-.94c0-1.07-.34-1.76-1.2-1.76s-1.2.69-1.2,1.76v.94c0,1.07.34,1.76,1.2,1.76S206.46,140.68,206.46,139.61Zm-1.7-.38v-.18c0-.21.13-.38.5-.38s.5.17.5.38v.18c0,.21-.13.38-.5.38S204.76,139.44,204.76,139.23Z" fill="#3371e2"/>
        <path d="M208.35,141.93v-.66h1.58v-4.35h-.05l-1.36,1.34-.46-.46,1.45-1.45h1.2v4.92h1.41v.66Z" fill="#3371e2"/>
        <path d="M212.86,139.14c0-1.82.62-2.89,2-2.89s2,1.07,2,2.89-.62,2.89-2,2.89S212.86,141,212.86,139.14Zm3.2.47v-.94c0-1.07-.34-1.76-1.2-1.76s-1.2.69-1.2,1.76v.94c0,1.07.34,1.76,1.2,1.76S216.06,140.68,216.06,139.61Zm-1.7-.38v-.18c0-.21.13-.38.5-.38s.49.17.49.38v.18c0,.21-.12.38-.49.38S214.36,139.44,214.36,139.23Z" fill="#3371e2"/>
        <path d="M217.66,139.14c0-1.82.62-2.89,2-2.89s2,1.07,2,2.89-.62,2.89-2,2.89S217.66,141,217.66,139.14Zm3.2.47v-.94c0-1.07-.34-1.76-1.2-1.76s-1.2.69-1.2,1.76v.94c0,1.07.34,1.76,1.2,1.76S220.86,140.68,220.86,139.61Zm-1.7-.38v-.18c0-.21.13-.38.5-.38s.49.17.49.38v.18c0,.21-.12.38-.49.38S219.16,139.44,219.16,139.23Z" fill="#3371e2"/>
        <path d="M227.26,139.14c0-1.82.62-2.89,2-2.89s2,1.07,2,2.89-.62,2.89-2,2.89S227.26,141,227.26,139.14Zm3.2.47v-.94c0-1.07-.34-1.76-1.2-1.76s-1.2.69-1.2,1.76v.94c0,1.07.33,1.76,1.2,1.76S230.46,140.68,230.46,139.61Zm-1.7-.38v-.18c0-.21.13-.38.5-.38s.49.17.49.38v.18c0,.21-.12.38-.49.38S228.76,139.44,228.76,139.23Z" fill="#3993ff"/>
        <path d="M232.35,141.93v-.66h1.58v-4.35h-.06l-1.35,1.34-.46-.46,1.45-1.45h1.2v4.92h1.41v.66Z" fill="#3993ff"/>
        <path d="M237.15,141.93v-.66h1.58v-4.35h-.06l-1.35,1.34-.46-.46,1.45-1.45h1.2v4.92h1.41v.66Z" fill="#3993ff"/>
        <path d="M241.66,139.14c0-1.82.61-2.89,2-2.89s2,1.07,2,2.89-.62,2.89-2,2.89S241.66,141,241.66,139.14Zm3.2.47v-.94c0-1.07-.34-1.76-1.2-1.76s-1.2.69-1.2,1.76v.94c0,1.07.33,1.76,1.2,1.76S244.86,140.68,244.86,139.61Zm-1.7-.38v-.18c0-.21.13-.38.5-.38s.49.17.49.38v.18c0,.21-.12.38-.49.38S243.16,139.44,243.16,139.23Z" fill="#3993ff"/>
        <path d="M246.75,141.93v-.66h1.58v-4.35h-.06l-1.35,1.34-.46-.46,1.45-1.45h1.19v4.92h1.42v.66Z" fill="#3993ff"/>
        <path d="M251.26,139.14c0-1.82.61-2.89,2-2.89s2,1.07,2,2.89-.62,2.89-2,2.89S251.26,141,251.26,139.14Zm3.2.47v-.94c0-1.07-.34-1.76-1.2-1.76s-1.2.69-1.2,1.76v.94c0,1.07.33,1.76,1.2,1.76S254.46,140.68,254.46,139.61Zm-1.7-.38v-.18c0-.21.13-.38.5-.38s.49.17.49.38v.18c0,.21-.12.38-.49.38S252.76,139.44,252.76,139.23Z" fill="#3993ff"/>
        <path d="M256.06,139.14c0-1.82.61-2.89,2-2.89s2,1.07,2,2.89-.62,2.89-2,2.89S256.06,141,256.06,139.14Zm3.2.47v-.94c0-1.07-.34-1.76-1.2-1.76s-1.2.69-1.2,1.76v.94c0,1.07.33,1.76,1.2,1.76S259.26,140.68,259.26,139.61Zm-1.7-.38v-.18c0-.21.13-.38.5-.38s.49.17.49.38v.18c0,.21-.12.38-.49.38S257.56,139.44,257.56,139.23Z" fill="#3993ff"/>
        <path d="M260.86,139.14c0-1.82.61-2.89,2-2.89s2,1.07,2,2.89-.62,2.89-2,2.89S260.86,141,260.86,139.14Zm3.2.47v-.94c0-1.07-.34-1.76-1.2-1.76s-1.2.69-1.2,1.76v.94c0,1.07.33,1.76,1.2,1.76S264.06,140.68,264.06,139.61Zm-1.7-.38v-.18c0-.21.13-.38.5-.38s.49.17.49.38v.18c0,.21-.13.38-.49.38S262.36,139.44,262.36,139.23Z" fill="#3993ff"/>
        <path d="M270.46,139.14c0-1.82.61-2.89,2-2.89s2,1.07,2,2.89-.62,2.89-2,2.89S270.46,141,270.46,139.14Zm3.2.47v-.94c0-1.07-.34-1.76-1.2-1.76s-1.2.69-1.2,1.76v.94c0,1.07.33,1.76,1.2,1.76S273.66,140.68,273.66,139.61Zm-1.7-.38v-.18c0-.21.13-.38.5-.38s.49.17.49.38v.18c0,.21-.13.38-.49.38S272,139.44,272,139.23Z" fill="#3371e2"/>
        <path d="M275.55,141.93v-.66h1.58v-4.35h-.06l-1.35,1.34-.46-.46,1.44-1.45h1.2v4.92h1.42v.66Z" fill="#3371e2"/>
        <path d="M280.34,141.93v-.66h1.59v-4.35h-.06l-1.35,1.34-.46-.46,1.44-1.45h1.2v4.92h1.42v.66Z" fill="#3371e2"/>
        <path d="M284.86,139.14c0-1.82.61-2.89,2-2.89s2,1.07,2,2.89-.61,2.89-2,2.89S284.86,141,284.86,139.14Zm3.19.47v-.94c0-1.07-.33-1.76-1.19-1.76s-1.2.69-1.2,1.76v.94c0,1.07.33,1.76,1.2,1.76S288.05,140.68,288.05,139.61Zm-1.69-.38v-.18c0-.21.13-.38.5-.38s.49.17.49.38v.18c0,.21-.13.38-.49.38S286.36,139.44,286.36,139.23Z" fill="#3371e2"/>
        <path d="M289.94,141.93v-.66h1.59v-4.35h-.06l-1.35,1.34-.46-.46,1.44-1.45h1.2v4.92h1.42v.66Z" fill="#3371e2"/>
        <path d="M294.74,141.93v-.66h1.59v-4.35h-.06l-1.35,1.34-.46-.46,1.44-1.45h1.2v4.92h1.42v.66Z" fill="#3371e2"/>
        <path d="M299.26,139.14c0-1.82.61-2.89,2-2.89s2,1.07,2,2.89-.61,2.89-2,2.89S299.26,141,299.26,139.14Zm3.19.47v-.94c0-1.07-.33-1.76-1.19-1.76s-1.2.69-1.2,1.76v.94c0,1.07.33,1.76,1.2,1.76S302.45,140.68,302.45,139.61Zm-1.69-.38v-.18c0-.21.13-.38.5-.38s.49.17.49.38v.18c0,.21-.13.38-.49.38S300.76,139.44,300.76,139.23Z" fill="#3371e2"/>
        <path d="M304.34,141.93v-.66h1.59v-4.35h-.06l-1.35,1.34-.46-.46,1.44-1.45h1.2v4.92h1.42v.66Z" fill="#3371e2"/>
      </g>
      <polyline points="305 60.54 305 71.76 245.94 71.76 245.94 98.6" fill="none" stroke="#4a93fb" stroke-linecap="round" stroke-linejoin="round" stroke-width="3"/>
      <rect x="178.38" y="98.6" width="134.38" height="50.41" stroke-width="3" stroke="#0e6ffa" stroke-linecap="round" stroke-linejoin="round" fill="none"/>
    </g>
    <polygon points="286.71 176.26 292.83 179.79 292.83 172.74 286.71 176.26" fill="#3371e2" stroke="#3371e2" stroke-linecap="round" stroke-linejoin="round" stroke-width="3"/>
    <polygon points="258.63 176.26 264.74 179.79 264.74 172.74 258.63 176.26" fill="#3371e2" stroke="#3371e2" stroke-linecap="round" stroke-linejoin="round" stroke-width="3"/>
    <polygon points="245.97 159.3 242.44 165.41 249.49 165.41 245.97 159.3" fill="#3371e2" stroke="#3371e2" stroke-linecap="round" stroke-linejoin="round" stroke-width="3"/>
    <polygon points="205.23 176.26 199.12 179.79 199.12 172.74 205.23 176.26" fill="#3371e2" stroke="#3371e2" stroke-linecap="round" stroke-linejoin="round" stroke-width="3"/>
    <polygon points="233.32 176.26 227.21 179.79 227.21 172.74 233.32 176.26" fill="#3371e2" stroke="#3371e2" stroke-linecap="round" stroke-linejoin="round" stroke-width="3"/>
    <polygon points="205.31 71.7 199.2 68.18 199.2 75.23 205.31 71.7" fill="#3371e2" stroke="#3371e2" stroke-linecap="round" stroke-linejoin="round" stroke-width="3"/>
    <polygon points="233.4 71.7 227.29 68.18 227.29 75.23 233.4 71.7" fill="#3371e2" stroke="#3371e2" stroke-linecap="round" stroke-linejoin="round" stroke-width="3"/>
    <polygon points="246.06 88.67 249.59 82.56 242.53 82.56 246.06 88.67" fill="#3371e2" stroke="#3371e2" stroke-linecap="round" stroke-linejoin="round" stroke-width="3"/>
    <polygon points="286.79 71.7 292.9 68.18 292.9 75.23 286.79 71.7" fill="#3371e2" stroke="#3371e2" stroke-linecap="round" stroke-linejoin="round" stroke-width="3"/>
    <polygon points="258.71 71.7 264.82 68.18 264.82 75.23 258.71 71.7" fill="#3371e2" stroke="#3371e2" stroke-linecap="round" stroke-linejoin="round" stroke-width="3"/>
  </g>
</svg>
