<svg id="Layer_1" data-name="Layer 1" xmlns="http://www.w3.org/2000/svg" width="200" height="200" viewBox="0 0 200 200"><title>icon-int-liability</title><path d="M184.93,156.4V17.22L110.56,51.54H37.14V62.69a24.22,24.22,0,0,0,0,48.24v11.15H48.86l32.77,52.8a17.25,17.25,0,0,0,11,7.55,17.54,17.54,0,0,0,3.44.35,17,17,0,0,0,16.44-13.37,17.06,17.06,0,0,0-2.44-12.89L87.2,122.08h23.36Zm-4.33-6.76-67.4-31.11V55.09L180.6,24ZM19.4,86.81A19.94,19.94,0,0,1,37.14,67V106.6A19.93,19.93,0,0,1,19.4,86.81Zm87.08,72.1a12.71,12.71,0,0,1,1.81,9.61,12.09,12.09,0,0,1-5.37,7.82,12.23,12.23,0,0,1-9.41,1.85,12.88,12.88,0,0,1-8.23-5.62L54,122.08H82Zm2.39-41.16H41.47V55.87h67.4Z" fill="#fff"/></svg>