<svg id="Layer_1" data-name="Layer 1" xmlns="http://www.w3.org/2000/svg" width="200" height="200" viewBox="0 0 200 200"><title>icon-immigration-reform</title><path d="M163.12,190H36.88a2.08,2.08,0,0,1-2.07-2.08V12.08A2.08,2.08,0,0,1,36.88,10H163.12a2.08,2.08,0,0,1,2.07,2.08V187.92A2.08,2.08,0,0,1,163.12,190ZM39,185.85H161V14.15H39Z" fill="#fff"/><rect x="61.63" y="154.13" width="76.74" height="4.15" fill="#fff"/><path d="M138.37,94.24a40.21,40.21,0,0,0,0-24.49V68.43h-.45a40.27,40.27,0,0,0-75.84,0h-.45v1.32a40.21,40.21,0,0,0,0,24.49v1.32h.45a40.27,40.27,0,0,0,75.84,0h.45ZM100,118.12c-4.76,0-9.92-8.81-12-22.56h24.1C109.92,109.31,104.76,118.12,100,118.12ZM63.87,82a36.14,36.14,0,0,1,1.25-9.41h18.1c-.28,3-.43,6.15-.43,9.41s.15,6.41.43,9.41H65.12A36,36,0,0,1,63.87,82ZM100,45.87c4.76,0,9.92,8.81,12,22.56H88C90.08,54.68,95.24,45.87,100,45.87ZM113.06,82a93.06,93.06,0,0,1-.48,9.41H87.42a92.48,92.48,0,0,1,0-18.82h25.16A93.37,93.37,0,0,1,113.06,82Zm3.72,9.41c.28-3,.43-6.14.43-9.41s-.15-6.4-.43-9.41h18.1a36,36,0,0,1,0,18.82Zm16.7-23h-17.2c-1.32-9.27-4-16.81-7.55-21.49A36.26,36.26,0,0,1,133.48,68.43ZM91.27,46.94C87.73,51.62,85,59.16,83.72,68.43H66.52A36.26,36.26,0,0,1,91.27,46.94ZM66.52,95.56h17.2c1.32,9.27,4,16.81,7.55,21.49A36.26,36.26,0,0,1,66.52,95.56Zm42.21,21.49c3.54-4.68,6.23-12.22,7.55-21.49h17.2A36.26,36.26,0,0,1,108.73,117.05Z" fill="#fff"/></svg>