<svg id="Layer_1" data-name="Layer 1" xmlns="http://www.w3.org/2000/svg" width="200" height="200" viewBox="0 0 200 200"><title>icon-patents</title><rect x="98.46" y="93.38" width="3.09" height="45.16" fill="#fff"/><path d="M100,94.93A13.43,13.43,0,1,1,113.44,81.5,13.45,13.45,0,0,1,100,94.93Zm0-23.77A10.34,10.34,0,1,0,110.35,81.5,10.35,10.35,0,0,0,100,71.16Z" fill="#fff"/><rect x="67.93" y="161.95" width="66.55" height="3.09" fill="#fff"/><rect x="67.93" y="175.02" width="66.55" height="3.09" fill="#fff"/><rect x="76.24" y="186.91" width="49.91" height="3.09" fill="#fff"/><path d="M131.27,148.05h-3.1v-1.18c0-16.05,5.52-31.68,16-45.2a54.65,54.65,0,0,0-5.82-73.12A55.89,55.89,0,0,0,96.53,13.18c-27.77,1.71-50.61,25-52,53.08C44.18,79.64,48.21,92.34,55.87,102a71.71,71.71,0,0,1,16,44.88v1.18h-3.1v-1.18a68.55,68.55,0,0,0-15.31-42.95c-8.11-10.23-12.37-23.64-12-37.78C42.9,36.51,67,11.9,96.35,10.09a58.94,58.94,0,0,1,44.09,16.22,57.72,57.72,0,0,1,6.13,77.26c-10,13-15.3,27.94-15.3,43.3Z" fill="#fff"/></svg>