<svg id="Layer_1" data-name="Layer 1" xmlns="http://www.w3.org/2000/svg" width="200" height="200" viewBox="0 0 200 200"><title>icon-internet-gov</title><path d="M48.41,173.76c5.68-4.2,10-14.87,10-14.87s4.9-3.4,6.44-7.75.08-10.26.08-10.26,4.35-12.75,2.3-16.33-10.73-5.88-10.73-5.88-3.58-6.65-11-7.93c-4.86-.51-9.72-3.84-9.72-10.74s6.91-18.15,6.91-18.15,7.15-3.5,8.18-6.06,1.37-8.51,1.37-8.51,6.81-12,3-18.93c-1.22-2.2-6.9-3.83-6.9-3.83l-8-12" fill="none" stroke="#fff" stroke-miterlimit="10" stroke-width="3"/><path d="M171,155.28c-8.69-4.16-23.88-7.64-23.88-7.64s-11.1-12.36-18.39-11.33-14.7,9.2-14.7,9.2.51,15.09-1.79,15.86-8.44-3.33-12.27-.26-1.62,11.72-1.62,11.72S90,175.43,89,178.24s3,9.08,3.81,11.48" fill="none" stroke="#fff" stroke-miterlimit="10" stroke-width="3"/><path d="M100.69,10H100a90,90,0,1,0,78,45" fill="none" stroke="#fff" stroke-miterlimit="10" stroke-width="3"/><circle cx="138.41" cy="70.38" r="8.16" fill="none" stroke="#fff" stroke-miterlimit="10" stroke-width="3"/><path d="M157.45,56.78a26.28,26.28,0,0,0-38.07,0l-7.62-7.61a36.8,36.8,0,0,1,53.31,0Z" fill="none" stroke="#fff" stroke-miterlimit="10" stroke-width="3"/><path d="M138.41,13.27A62.2,62.2,0,0,0,94.9,30.67l7.61,7.62a51.49,51.49,0,0,1,35.9-14.14,49.71,49.71,0,0,1,35.9,14.68l7.62-8.16A62.22,62.22,0,0,0,138.41,13.27Z" fill="none" stroke="#fff" stroke-miterlimit="10" stroke-width="3"/></svg>