<svg id="Layer_1" data-name="Layer 1" xmlns="http://www.w3.org/2000/svg" width="200" height="200" viewBox="0 0 200 200"><title>icon-net-neutrality</title><path d="M100,73.76a8.63,8.63,0,0,1-8.62-8.61V18.62a8.62,8.62,0,0,1,17.24,0V65.15A8.63,8.63,0,0,1,100,73.76Zm0-60.35a5.21,5.21,0,0,0-5.21,5.21V65.15a5.21,5.21,0,0,0,10.42,0V18.62A5.21,5.21,0,0,0,100,13.41Z" fill="#fff"/><path d="M75.35,84a8.56,8.56,0,0,1-6.09-2.51l-32.9-32.9A8.62,8.62,0,0,1,48.55,36.36l32.9,32.9a8.63,8.63,0,0,1,0,12.19h0A8.57,8.57,0,0,1,75.35,84ZM42.45,37.25a5.21,5.21,0,0,0-3.68,8.89L71.67,79A5.21,5.21,0,0,0,79,71.67l-32.9-32.9A5.18,5.18,0,0,0,42.45,37.25Z" fill="#fff"/><path d="M65.15,108.62H18.62a8.62,8.62,0,1,1,0-17.24H65.15a8.62,8.62,0,0,1,0,17.24ZM18.62,94.79a5.21,5.21,0,0,0,0,10.42H65.15a5.21,5.21,0,0,0,0-10.42Z" fill="#fff"/><path d="M42.45,166.16a8.62,8.62,0,0,1-6.09-14.71l32.9-32.9a8.63,8.63,0,0,1,12.19,0h0a8.63,8.63,0,0,1,0,12.19l-32.9,32.9A8.6,8.6,0,0,1,42.45,166.16Zm32.9-46.73A5.17,5.17,0,0,0,71.67,121l-32.9,32.9a5.21,5.21,0,1,0,7.37,7.37L79,128.33a5.22,5.22,0,0,0-3.69-8.9Z" fill="#fff"/><path d="M100,190a8.63,8.63,0,0,1-8.62-8.62V134.85a8.62,8.62,0,0,1,17.24,0v46.53A8.63,8.63,0,0,1,100,190Zm0-60.36a5.22,5.22,0,0,0-5.21,5.21v46.53a5.21,5.21,0,1,0,10.42,0V134.85A5.22,5.22,0,0,0,100,129.64Z" fill="#fff"/><path d="M157.55,166.16a8.6,8.6,0,0,1-6.1-2.52l-32.9-32.9a8.66,8.66,0,0,1,0-12.19h0a8.66,8.66,0,0,1,12.19,0l32.9,32.9a8.62,8.62,0,0,1-6.09,14.71Zm-32.9-46.72A5.18,5.18,0,0,0,121,121h0a5.22,5.22,0,0,0,0,7.37l32.9,32.9a5.21,5.21,0,1,0,7.37-7.37L128.33,121A5.17,5.17,0,0,0,124.65,119.44Z" fill="#fff"/><path d="M181.38,108.62H134.85a8.62,8.62,0,0,1,0-17.24h46.53a8.62,8.62,0,0,1,0,17.24ZM134.85,94.79a5.21,5.21,0,0,0,0,10.42h46.53a5.21,5.21,0,1,0,0-10.42Z" fill="#fff"/><path d="M124.65,84a8.57,8.57,0,0,1-6.1-2.51h0a8.66,8.66,0,0,1,0-12.19l32.9-32.9a8.62,8.62,0,0,1,12.19,12.19l-32.9,32.9A8.56,8.56,0,0,1,124.65,84Zm32.9-46.72a5.19,5.19,0,0,0-3.69,1.53L121,71.67A5.22,5.22,0,0,0,121,79h0a5.23,5.23,0,0,0,7.37,0l32.9-32.9a5.22,5.22,0,0,0-3.68-8.9Z" fill="#fff"/></svg>