<svg id="Layer_1" data-name="Layer 1" xmlns="http://www.w3.org/2000/svg" width="200" height="200" viewBox="0 0 200 200"><title>icon-privacy</title><path d="M176,34c-27.81,0-54-8.21-73.62-23.21a4.21,4.21,0,0,0-4.8,0C78,25.75,51.79,34,24,34a4,4,0,0,0-4,4C20,115.78,57.19,156.59,97.4,189.2a4.62,4.62,0,0,0,5.2,0C142.81,156.59,180,115.78,180,38A4,4,0,0,0,176,34Z" fill="none" stroke="#fff" stroke-miterlimit="10" stroke-width="3"/><path d="M75,79.77a27.16,27.16,0,0,0,1.26,2.8A26,26,0,0,0,89.84,94.74l-.06,13,6.39,6.38-6.44,6.44-.11,25.77,9.5,7.29,9.58-7.38.06-13.55-5.12-5.12,5.16-5.16.12-27.71a26.44,26.44,0,0,0,16.73-24.42,25.86,25.86,0,0,0-26-26A26.43,26.43,0,0,0,73.33,70.47" fill="none" stroke="#fff" stroke-linecap="round" stroke-linejoin="round" stroke-width="3"/><path d="M88.94,67.39a9.51,9.51,0,0,1,9.58-9.58,9.74,9.74,0,0,1,9.68,9.67,9.53,9.53,0,0,1-9.59,9.58A9.73,9.73,0,0,1,88.94,67.39Z" fill="none" stroke="#fff" stroke-miterlimit="10" stroke-width="3"/></svg>