<svg id="Layer_1" data-name="Layer 1" xmlns="http://www.w3.org/2000/svg" width="200" height="200" viewBox="0 0 200 200"><title>icon-trade</title><path d="M131.48,46a63.14,63.14,0,1,0,29.94,53.71A63.05,63.05,0,0,0,131.48,46ZM37.91,101.05H62.65a102.87,102.87,0,0,0,4.11,28.09H45.57A60.06,60.06,0,0,1,37.91,101.05ZM99.65,67.54V39.34c11.17.83,20.92,11.89,26.54,28.2Zm27.42,2.71a101.31,101.31,0,0,1,4.18,28.09H99.65V70.25ZM97,67.54H70.41C76,51.23,85.78,40.17,97,39.34Zm0,2.71V98.34H65.35a101.31,101.31,0,0,1,4.18-28.09ZM62.65,98.34H37.91a60.06,60.06,0,0,1,7.66-28.09H66.76A102.87,102.87,0,0,0,62.65,98.34Zm2.7,2.71H97v28.09H69.53A101.31,101.31,0,0,1,65.35,101.05ZM97,131.85v28.2c-11.17-.83-20.92-11.89-26.54-28.2Zm2.7,0h26.54c-5.62,16.31-15.37,27.37-26.54,28.2Zm0-2.71V101.05h31.6a101.31,101.31,0,0,1-4.18,28.09ZM134,101.05h24.73A59.94,59.94,0,0,1,151,129.14H129.84A102.87,102.87,0,0,0,134,101.05Zm0-2.71a102.87,102.87,0,0,0-4.11-28.09h21.28a60.25,60.25,0,0,1,7.56,28.09Zm-3.89-50.06a60.5,60.5,0,0,1,19.43,19.26H129c-4.13-12.28-10.54-21.89-18.19-27A60.16,60.16,0,0,1,130.06,48.28ZM85.8,40.58c-7.65,5.09-14,14.69-18.18,27H47.18A60.62,60.62,0,0,1,85.8,40.58ZM47.18,131.85H67.62c4.13,12.27,10.53,21.87,18.18,27A60.62,60.62,0,0,1,47.18,131.85Zm63.62,27c7.65-5.09,14-14.69,18.18-27h20.44A60.62,60.62,0,0,1,110.8,158.81Z" fill="#fff"/><path d="M40.59,40.44a82.51,82.51,0,0,0-25.08,54L8.44,85.83,6.35,87.55l10.3,12.55L28.42,88.92l-1.86-2-8.38,8A80.27,80.27,0,0,1,98.3,19.8V17.1A82.56,82.56,0,0,0,40.59,40.44Z" fill="#fff"/><path d="M193.65,112.45,183.35,99.9l-11.77,11.18,1.86,2,8.38-8A80.27,80.27,0,0,1,101.7,180.2v2.7a83,83,0,0,0,82.79-77.35l7.07,8.62Z" fill="#fff"/></svg>