<svg id="Layer_1" data-name="Layer 1" xmlns="http://www.w3.org/2000/svg" width="200" height="200" viewBox="0 0 200 200"><title>icon-data-security</title><path d="M25.25,50.27a89.69,89.69,0,0,0-13.46,67.87" fill="none" stroke="#fff" stroke-miterlimit="10" stroke-width="3"/><path d="M140.92,20.25A90,90,0,0,0,38.28,34.87" fill="none" stroke="#fff" stroke-miterlimit="10" stroke-width="3"/><path d="M188.16,82.58A89.65,89.65,0,0,0,157.27,31" fill="none" stroke="#fff" stroke-miterlimit="10" stroke-width="3"/><path d="M190,102.17a89.76,89.76,0,0,0-1.77-19.6" fill="none" stroke="#fff" stroke-miterlimit="10" stroke-width="3"/><path d="M11.84,118.13c.26,1.29.55,2.57.86,3.84" fill="none" stroke="#fff" stroke-miterlimit="10" stroke-width="3"/><path d="M76.75,187.28A101.11,101.11,0,0,0,100,100.35" fill="none" stroke="#fff" stroke-miterlimit="10" stroke-width="3"/><path d="M102.85,190.27c18.21-26.61,26.47-64.72,19.2-94.36-3.3-13.65-14.32-20.11-26.53-17.65S75.49,92,78,104.8A78.88,78.88,0,0,1,54.49,178" fill="none" stroke="#fff" stroke-miterlimit="10" stroke-width="3"/><path d="M56.9,116.69A56.36,56.36,0,0,1,36.35,164" fill="none" stroke="#fff" stroke-miterlimit="10" stroke-width="3"/><path d="M146.51,108.51a146,146,0,0,0-2.41-17.05h0a45,45,0,0,0-88.95,4.63" fill="none" stroke="#fff" stroke-miterlimit="10" stroke-width="3"/><path d="M132.25,184.33A145.8,145.8,0,0,0,146.76,129" fill="none" stroke="#fff" stroke-miterlimit="10" stroke-width="3"/><path d="M79.38,36.08a67.5,67.5,0,0,0-45.56,77.61h0a33.82,33.82,0,0,1-11.31,32.5" fill="none" stroke="#fff" stroke-miterlimit="10" stroke-width="3"/><path d="M163.84,163.72a168,168,0,0,0,2.3-76.7h0A67.51,67.51,0,0,0,100,32.85" fill="none" stroke="#fff" stroke-miterlimit="10" stroke-width="3"/></svg>