<svg id="Layer_1" data-name="Layer 1" xmlns="http://www.w3.org/2000/svg" width="200" height="200" viewBox="0 0 200 200"><title>icon-sharing-economy</title><path d="M127.42,181a80.61,80.61,0,0,1-88.88-21.83c.41-.39.81-.79,1.18-1.22a15.72,15.72,0,1,0-11.92,5.44c.39,0,.77,0,1.16,0a15.58,15.58,0,0,0,6.51-2,84.24,84.24,0,0,0,126.35.29L159,159.16A79.56,79.56,0,0,1,127.42,181ZM28.69,159.56A12,12,0,0,1,27,135.7l.87,0a12,12,0,0,1,.86,23.89Z" fill="#fff"/><path d="M20,122.41A80.53,80.53,0,0,1,70.12,30.5c2.33-.89,4.81-1.68,7.37-2.38a15.66,15.66,0,1,0-.13-3.87A86.21,86.21,0,0,0,68.78,27a84.31,84.31,0,0,0-52.47,96.21ZM93,13.77a12,12,0,1,1-12,12A12,12,0,0,1,93,13.77Z" fill="#fff"/><path d="M181.07,123.83a84.23,84.23,0,0,0-61.31-99.7l-.94,3.65a80.49,80.49,0,0,1,58.78,94.27,15.67,15.67,0,1,0,3.47,1.78Zm-8.89,24.92a12,12,0,1,1,12-11.95A12,12,0,0,1,172.18,148.75Z" fill="#fff"/></svg>