<svg data-name="Layer 1" xmlns="http://www.w3.org/2000/svg" viewBox="0 0 186.4 82"><defs><linearGradient id="a" x1="11.04" y1="42.45" x2="2.61" y2="27.25" gradientTransform="matrix(1 0 0 -1 0 84)" gradientUnits="userSpaceOnUse"><stop offset="0" stop-color="#d23434"/><stop offset="1" stop-color="#ff5a5a"/></linearGradient><linearGradient id="b" x1="14.24" y1="51.69" x2="23.73" y2="37.08" gradientTransform="matrix(1 0 0 -1 0 84)" gradientUnits="userSpaceOnUse"><stop offset="0" stop-color="#ff5a5a"/><stop offset="1" stop-color="#de3232"/></linearGradient></defs><path d="m4.81 54.41 5-20.67 6.19 8.8L5.73 54.78a.59.59 0 0 1-.62.13.48.48 0 0 1-.3-.5z" fill="url(#a)"/><path d="m9.84 33.73 10.25-3.57L31.9 47.67l-11.39 6.12z" fill-rule="evenodd" fill="url(#b)"/><path d="M34.31 27.32 20.48 53.79l11.58-6.2 3.31-19.8a.56.56 0 0 0-.37-.69.6.6 0 0 0-.69.22z" fill="#ff5a5a"/><path d="M54.44 32.79a1.4 1.4 0 0 0-1.38 1.41v9.18L45.88 33.3a1.39 1.39 0 0 0-2.52.9v13.59a1.4 1.4 0 1 0 2.8 0v-9.26l7.1 10a.76.76 0 0 0 .13.17 1.41 1.41 0 0 0 1 .52 1.44 1.44 0 0 0 1.41-1.43V34.2a1.42 1.42 0 0 0-1.36-1.41zM69.09 35.65a1.42 1.42 0 0 0 0-2.84h-7.54a1.4 1.4 0 0 0-1.41 1.41v13.61a1.41 1.41 0 0 0 1.41 1.41h7.54a1.43 1.43 0 0 0 0-2.85H63v-4h5.23a1.42 1.42 0 0 0 0-2.84H63v-3.9zM93 33.67a1.38 1.38 0 0 0-.74-.76 1.41 1.41 0 0 0-1.87.77L87.2 44.07l-2.82-6.78a1.47 1.47 0 0 0-1.38-.87 1.42 1.42 0 0 0-1.33.87l-2.82 6.78-3.25-10.4a1.37 1.37 0 0 0-.76-.77 1.33 1.33 0 0 0-1.07 0 1.36 1.36 0 0 0-.76.73 1.45 1.45 0 0 0 0 1.1l4.49 13.5a1.39 1.39 0 0 0 1.3 1 1.41 1.41 0 0 0 1.3-.93v-.12l2.9-6.76 2.89 6.89a1.41 1.41 0 0 0 1.29.92 1.43 1.43 0 0 0 1.3-.94.14.14 0 0 0 0-.06L93 34.75a1.44 1.44 0 0 0 0-1.08zM106.53 42.35a5.21 5.21 0 0 0-2.3-1.92 12.8 12.8 0 0 0-3.16-1 7.75 7.75 0 0 1-2.75-1 2 2 0 0 1-.57-.54 1 1 0 0 1-.14-.56 1.69 1.69 0 0 1 .8-1.3 4.14 4.14 0 0 1 2.43-.74 6.36 6.36 0 0 1 3.54 1.42 1.26 1.26 0 0 0 1 .18 1.2 1.2 0 0 0 .8-.56 1.29 1.29 0 0 0-.35-1.79h-.06a8.81 8.81 0 0 0-4.91-1.78 6.79 6.79 0 0 0-4 1.22A4.25 4.25 0 0 0 95 37.41a3.6 3.6 0 0 0 .54 1.91 5 5 0 0 0 2.15 1.81 11.93 11.93 0 0 0 3 .89 8.89 8.89 0 0 1 3 1 1.89 1.89 0 0 1 .63.63 1.15 1.15 0 0 1 .18.64 1.85 1.85 0 0 1-.91 1.5 4.68 4.68 0 0 1-2.72.81 7.17 7.17 0 0 1-4.2-1.7 1.29 1.29 0 0 0-1.83.18A1.32 1.32 0 0 0 95 47a9.84 9.84 0 0 0 5.84 2.28 7.18 7.18 0 0 0 4.23-1.31 4.46 4.46 0 0 0 2-3.59 3.77 3.77 0 0 0-.54-2.03zM118.15 40.05a4.19 4.19 0 0 0 1.27-3 4.26 4.26 0 0 0-4.23-4.28h-3.54a.85.85 0 0 0-.83.84v14.86a.82.82 0 0 0 .83.83h4.54a4.84 4.84 0 0 0 2-9.25zm-5.65-.46v-5.13h2.69a2.57 2.57 0 0 1 0 5.13zm6.83 4.86a3.14 3.14 0 0 1-3.14 3.16h-3.69V41.3h3.69a3.18 3.18 0 0 1 3.14 3.15zM135.9 47.93a.86.86 0 0 0-.75-.55 1.72 1.72 0 0 1-.09-.19 6.1 6.1 0 0 1-.19-1.76 4.32 4.32 0 0 0-2.05-3.68 4.85 4.85 0 0 0-2.5-9h-4.58a.86.86 0 0 0-.76.84v14.89a.85.85 0 0 0 1.69 0v-6h3.6a4.77 4.77 0 0 1 1.71.74 2.58 2.58 0 0 1 1.18 2.19 6 6 0 0 0 .47 2.75 1.54 1.54 0 0 0 1.27.89h.1a.88.88 0 0 0 .33 0 .89.89 0 0 0 .54-1.06zm-2.43-10.31a3.17 3.17 0 0 1-3.05 3.16h-3.74v-6.32h3.65a3.16 3.16 0 0 1 3.14 3.16zM148.94 34.46a.83.83 0 0 0 .83-.85.82.82 0 0 0-.83-.83h-8.17a.84.84 0 0 0-.83.83v14.86a.82.82 0 0 0 .78.83h8.22a.83.83 0 0 0 .83-.83.84.84 0 0 0-.83-.86h-7.32v-5.72H148a.84.84 0 0 0 0-1.68h-6.37v-5.75zM165.6 48.16l-5.51-14.78a.84.84 0 0 0-.81-.54.89.89 0 0 0-.81.53L153 48.15a.82.82 0 0 0 0 .65.88.88 0 0 0 .45.46h.31a.84.84 0 0 0 .79-.55l1.34-3.58h6.85l1.34 3.58a.86.86 0 0 0 .79.55h.31a.85.85 0 0 0 .45-.46.86.86 0 0 0-.03-.64zm-3.51-4.67h-5.61L159.3 36zM181.84 48a.86.86 0 0 0-.77-.55l-.08-.12-5.89-7.15 5.9-5.93a.89.89 0 0 0 .26-.63.82.82 0 0 0-.26-.57.74.74 0 0 0-.52-.23.91.91 0 0 0-.65.23l-9.14 9.14v-8.53a.84.84 0 1 0-1.68 0v14.76a.84.84 0 0 0 1.68 0v-3.86l3.2-3.2 5.77 7c.35.41.63.72 1 .73h.34a.74.74 0 0 0 .26 0h.06a.89.89 0 0 0 .52-1.09z" fill="#274464"/></svg>