<svg id="Layer_1" data-name="Layer 1" xmlns="http://www.w3.org/2000/svg" width="1000" height="1000" viewBox="0 0 1000 1000"><title>stop-sopa</title><polygon points="298.11 984 699.89 984 984 699.89 984 298.11 699.89 14 298.11 14 14 298.11 14 699.89 298.11 984" style="fill:#4daf4e"/><path d="M322.55,73H675.46L925,322.55V675.46L675.45,925H322.55L73,675.45V322.55L322.55,73m-8.28-20L53,314.26V683.74L314.26,945H683.74L945,683.74V314.26L683.74,53Z" style="fill:#fff"/><path d="M199.27,300.66c2.58,2.58,5.84,5,10.94,5,5.3,0,9.51-3.87,9.51-9.92s-3.67-9.51-9.24-9.51c-3,0-4.82,1-7.4,2.65l-3-1.9,1.43-20.86h21.67v4.82H206.4l-1.15,12.84A13.31,13.31,0,0,1,211.9,282c7.4,0,13.45,4.21,13.45,13.59s-7.06,14.67-14.61,14.67a19,19,0,0,1-14.2-5.91Z" style="fill:#fff"/><path d="M243.83,269.62H230.31v-4.76H263v4.76H249.47v39.81h-5.64Z" style="fill:#fff"/><path d="M270.6,264.86h5.71v18.68H297V264.86h5.64v44.56H297v-21H276.3v21H270.6Z" style="fill:#fff"/><path d="M348.65,295.84H332.42l-4.28,13.59h-5.77l15.08-44.56h6.39l15.08,44.56h-6Zm-1.43-4.55-2.11-6.79c-1.56-5-3-9.85-4.42-15h-.27c-1.43,5.16-2.85,10.05-4.42,15l-2.17,6.79Z" style="fill:#fff"/><path d="M364.82,264.86h5.84l16.17,28,4.82,9.24h.27c-.27-4.48-.75-9.51-.75-14.2v-23h5.37v44.56H390.7l-16.1-28.06-4.82-9.17h-.27c.27,4.48.68,9.24.68,13.93v23.3h-5.37Z" style="fill:#fff"/><path d="M408.43,264.86h5.84l16.17,28,4.82,9.24h.27c-.27-4.48-.75-9.51-.75-14.2v-23h5.37v44.56h-5.84l-16.1-28.06-4.82-9.17h-.27c.27,4.48.68,9.24.68,13.93v23.3h-5.37Z" style="fill:#fff"/><path d="M452,264.86h5.71v44.56H452Z" style="fill:#fff"/><path d="M463.53,264.86h6l7.2,24c1.56,5.3,2.65,9.51,4.28,14.74h.27c1.63-5.23,2.79-9.44,4.28-14.74l7.13-24h5.77l-14.13,44.56h-6.59Z" style="fill:#fff"/><path d="M504.22,264.86H529.9v4.76h-20v14h16.85v4.82H509.93V304.6h20.65v4.82H504.22Z" style="fill:#fff"/><path d="M564.13,309.43,553.4,290.61h-8v18.82h-5.71V264.86h14c9,0,15.56,3.26,15.56,12.5,0,6.93-3.94,11.07-10,12.64l11.34,19.43ZM545.39,286h7.47c6.93,0,10.73-2.85,10.73-8.63s-3.8-7.95-10.73-7.95h-7.47Z" style="fill:#fff"/><path d="M578.06,299.71a17.33,17.33,0,0,0,12.29,5.57c5.84,0,9.31-2.92,9.31-7.27,0-4.55-3.26-6-7.47-7.88l-6.39-2.79c-4.14-1.77-9-5-9-11.48,0-6.79,6-11.82,14.06-11.82a18.21,18.21,0,0,1,13.11,5.5l-3,3.67A14.33,14.33,0,0,0,590.83,269c-5,0-8.36,2.51-8.36,6.52,0,4.28,3.94,5.91,7.41,7.4l6.38,2.72c5.16,2.24,9.17,5.3,9.17,11.89,0,7.06-5.84,12.7-15.22,12.7a21.45,21.45,0,0,1-15.56-6.59Z" style="fill:#fff"/><path d="M634.17,295.84H617.94l-4.28,13.59h-5.77L623,264.86h6.39l15.08,44.56h-6Zm-1.43-4.55-2.11-6.79c-1.56-5-3-9.85-4.42-15H626c-1.43,5.16-2.85,10.05-4.42,15l-2.17,6.79Z" style="fill:#fff"/><path d="M674.8,309.43l-10.73-18.82h-8v18.82h-5.71V264.86h14c9,0,15.56,3.26,15.56,12.5,0,6.93-3.94,11.07-10,12.64l11.34,19.43ZM656,286h7.47c6.93,0,10.73-2.85,10.73-8.63s-3.8-7.95-10.73-7.95H656Z" style="fill:#fff"/><path d="M695.79,292.17l-13.45-27.31h6.11l5.71,12.57c1.43,3.26,2.79,6.39,4.35,9.71h.27c1.49-3.33,3.06-6.45,4.42-9.71L709,264.86h5.84l-13.38,27.31v17.25h-5.64Z" style="fill:#fff"/><path d="M731.66,286.94c0-14.27,7.88-22.89,19.09-22.89s19,8.7,19,22.89-7.88,23.3-19,23.3S731.66,301.27,731.66,286.94Zm32.27,0c0-11.07-5.23-17.93-13.18-17.93s-13.25,6.86-13.25,17.93,5.23,18.34,13.25,18.34S763.93,298.08,763.93,286.94Z" style="fill:#fff"/><path d="M779,264.86h25.75v4.76h-20V284.7h17v4.76h-17v20H779Z" style="fill:#fff"/><path d="M214.37,459.74C226.93,470.65,243.3,478.3,258,478.3c16.65,0,24.84-6.55,24.84-17.19,0-11.19-10.1-14.74-25.66-21.29L234.3,430c-18.56-7.37-36-22.65-36-48.58,0-29.48,26.47-52.95,63.32-52.95,20.47,0,42,8.19,57.32,23.47l-20.2,25.38c-11.74-9-22.93-14.19-37.12-14.19-13.65,0-22.65,6-22.65,16.1,0,10.92,11.74,14.74,27.29,21l22.65,9.28c21.56,8.73,35.21,23.2,35.21,48.31,0,29.48-24.56,55.13-66.87,55.13a98.62,98.62,0,0,1-66-25.66Z" style="fill:#fff"/><path d="M383.31,365.57H334.19V331.73h138.1v33.84H423.44V509.68H383.31Z" style="fill:#fff"/><path d="M483.75,419.89c0-58.13,33-91.43,80.79-91.43,48,0,80.79,33.57,80.79,91.43,0,58.14-32.75,93.07-80.79,93.07C516.77,513,483.75,478,483.75,419.89Zm120.36,0c0-35.48-15.28-56.77-39.58-56.77-24,0-39.58,21.29-39.58,56.77,0,35.75,15.56,58.41,39.58,58.41C588.83,478.3,604.11,455.64,604.11,419.89Z" style="fill:#fff"/><path d="M678.62,331.73h65c38.76,0,69.6,14.19,69.6,57.32,0,41.76-31.93,60.32-69.6,60.32H719v60.32H678.62Zm62.5,85.7c22.11,0,32.75-9.83,32.75-28.39s-11.46-25.38-32.75-25.38H719v53.77Z" style="fill:#fff"/><path d="M214.37,665c12.56,10.92,28.93,18.56,43.67,18.56,16.65,0,24.84-6.55,24.84-17.19,0-11.19-10.1-14.74-25.66-21.29l-22.93-9.83c-18.56-7.37-36-22.65-36-48.58,0-29.48,26.47-52.95,63.32-52.95,20.47,0,42,8.19,57.32,23.47l-20.2,25.38c-11.74-9-22.93-14.19-37.12-14.19-13.65,0-22.65,6-22.65,16.1,0,10.92,11.74,14.74,27.29,21l22.65,9.28c21.56,8.73,35.21,23.2,35.21,48.31,0,29.48-24.56,55.13-66.87,55.13a98.62,98.62,0,0,1-66-25.66Z" style="fill:#fff"/><path d="M345.37,625.11c0-58.14,33-91.43,80.79-91.43,48,0,80.79,33.57,80.79,91.43,0,58.13-32.75,93.07-80.79,93.07C378.4,718.18,345.37,683.25,345.37,625.11Zm120.36,0c0-35.48-15.28-56.77-39.58-56.77-24,0-39.58,21.29-39.58,56.77,0,35.75,15.56,58.41,39.58,58.41C450.45,683.52,465.74,660.86,465.74,625.11Z" style="fill:#fff"/><path d="M540.24,537h65c38.76,0,69.6,14.19,69.6,57.32,0,41.76-31.93,60.32-69.6,60.32H580.64v60.32H540.24Zm62.5,85.7c22.11,0,32.75-9.83,32.75-28.38S624,568.89,602.75,568.89H580.64v53.77Z" style="fill:#fff"/><path d="M775.51,672.6H720.92L710,714.91H669.07l56-178h48l56,178H786.43Zm-8.19-31.39L763,624.84c-4.91-17.74-9.55-38.76-14.46-57.32H747.4c-4.09,18.83-9,39.58-13.92,57.32l-4.37,16.38Z" style="fill:#fff"/></svg>