<svg data-name="Layer 1" xmlns="http://www.w3.org/2000/svg" viewBox="0 0 500.25 336"><path fill="none" stroke="#d3d7df" stroke-linejoin="round" d="M38.43 4.22h456.72M38.43 30.29h456.72M38.43 56.35h456.72M38.43 82.42h456.72M38.43 110.02h456.72M38.43 136.09h456.72M38.43 162.15h456.72M38.43 189.75h456.72M38.43 215.82h456.72M37.71 242.65h456.73"/><text transform="translate(18.13 245.76)" font-size="10" fill="#394762" font-family="IBMPlexSans, IBM Plex Sans">0%</text><text transform="translate(12.14 219.26)" font-size="10" fill="#394762" font-family="IBMPlexSans, IBM Plex Sans">10%</text><text transform="translate(12.14 192.77)" font-size="10" fill="#394762" font-family="IBMPlexSans, IBM Plex Sans">20%</text><text transform="translate(12.14 166.28)" font-size="10" fill="#394762" font-family="IBMPlexSans, IBM Plex Sans">30%</text><text transform="translate(12.14 139.79)" font-size="10" fill="#394762" font-family="IBMPlexSans, IBM Plex Sans">40%</text><text transform="translate(12.14 113.3)" font-size="10" fill="#394762" font-family="IBMPlexSans, IBM Plex Sans">50%</text><text transform="translate(12.14 86.81)" font-size="10" fill="#394762" font-family="IBMPlexSans, IBM Plex Sans">60%</text><text transform="translate(12.14 60.31)" font-size="10" fill="#394762" font-family="IBMPlexSans, IBM Plex Sans">70%</text><text transform="translate(12.14 33.82)" font-size="10" fill="#394762" font-family="IBMPlexSans, IBM Plex Sans">80%</text><text transform="translate(12.14 7.33)" font-size="10" fill="#394762" font-family="IBMPlexSans, IBM Plex Sans">90%</text><text transform="translate(68.42 262.73)" font-size="10" fill="#394762" font-family="IBMPlexSans, IBM Plex Sans">Sharing data with a <tspan x="88.1" y="0" font-family="IBMPlexSans-Bold, IBM Plex Sans" font-weight="700">G</tspan><tspan x="95.29" y="0" font-family="IBMPlexSans-Bold, IBM Plex Sans" font-weight="700" letter-spacing="-.01em">P</tspan><tspan x="101.75" y="0" font-family="IBMPlexSans-Bold, IBM Plex Sans" font-weight="700">S </tspan><tspan font-family="IBMPlexSans-Bold, IBM Plex Sans" font-weight="700"><tspan x="-2.27" y="12">or t</tspan><tspan x="13.6" y="12" letter-spacing="-.01em">r</tspan><tspan x="17.5" y="12">a</tspan><tspan x="23.19" y="12" letter-spacing="0em">f</tspan><tspan x="26.84" y="12">fic n</tspan><tspan x="46.8" y="12" letter-spacing="-.01em">a</tspan><tspan x="52.39" y="12">vi</tspan><tspan x="60.63" y="12" letter-spacing="0em">g</tspan><tspan x="66.13" y="12" letter-spacing="-.01em">a</tspan><tspan x="71.76" y="12">tion app</tspan><tspan x="110.26" y="12" font-family="IBMPlexSans, IBM Plex Sans" font-weight="400"> </tspan></tspan><tspan x="6.62" y="24" letter-spacing="0em">t</tspan><tspan x="10.09" y="24">o find near</tspan><tspan x="57.74" y="24" letter-spacing="0em">b</tspan><tspan x="63.49" y="24">y </tspan><tspan x="70.84" y="24" letter-spacing="-.01em">s</tspan><tspan x="75.64" y="24" letter-spacing="0em">t</tspan><tspan x="79.11" y="24">o</tspan><tspan x="84.71" y="24" letter-spacing="0em">r</tspan><tspan x="88.33" y="24">e</tspan><tspan x="93.82" y="24" letter-spacing="0em">s</tspan><tspan x="98.64" y="24">, </tspan><tspan x="4.18" y="36" letter-spacing="0em">r</tspan><tspan x="7.8" y="36">e</tspan><tspan x="13.29" y="36" letter-spacing="-.01em">s</tspan><tspan x="18.09" y="36">tau</tspan><tspan x="32.62" y="36" letter-spacing="0em">r</tspan><tspan x="36.25" y="36">ant</tspan><tspan x="50.78" y="36" letter-spacing="0em">s</tspan><tspan x="55.6" y="36">, and other </tspan><tspan x="-.6" y="48">location-based se</tspan><tspan x="79.39" y="48" letter-spacing=".01em">r</tspan><tspan x="83.16" y="48">vi</tspan><tspan x="90.58" y="48" letter-spacing="-.01em">c</tspan><tspan x="95.55" y="48">e</tspan><tspan x="101.04" y="48" letter-spacing="0em">s</tspan><tspan x="105.86" y="48">.</tspan></text><text transform="translate(220.96 262.71)" font-size="10" fill="#394762" font-family="IBMPlexSans, IBM Plex Sans">Sharing data <tspan x="58.67" y="0" font-family="IBMPlexSans-Bold, IBM Plex Sans" font-weight="700">if it wi</tspan><tspan x="87.82" y="0" font-family="IBMPlexSans-Bold, IBM Plex Sans" font-weight="700" letter-spacing="-.01em">l</tspan><tspan x="90.77" y="0" font-family="IBMPlexSans-Bold, IBM Plex Sans" font-weight="700">l </tspan><tspan font-family="IBMPlexSans-Bold, IBM Plex Sans" font-weight="700"><tspan x=".92" y="12">a</tspan><tspan x="6.61" y="12" letter-spacing="-.01em">l</tspan><tspan x="9.56" y="12">l</tspan><tspan x="12.59" y="12" letter-spacing="-.01em">o</tspan><tspan x="18.13" y="12">w busine</tspan><tspan x="60.42" y="12" letter-spacing="-.01em">s</tspan><tspan x="65.39" y="12">ses </tspan><tspan x="83.45" y="12" letter-spacing="0em">t</tspan><tspan x="87.24" y="12">o </tspan><tspan x="-.96" y="24">p</tspan><tspan x="5.13" y="24" letter-spacing="0em">r</tspan><tspan x="9.12" y="24" letter-spacing="-.01em">o</tspan><tspan x="14.68" y="24">vide be</tspan><tspan x="48.68" y="24" letter-spacing="0em">t</tspan><tspan x="52.46" y="24" letter-spacing="0em">t</tspan><tspan x="56.25" y="24">e</tspan><tspan x="61.87" y="24" letter-spacing="-.08em">r</tspan><tspan x="65.11" y="24">, mo</tspan><tspan x="85.15" y="24" letter-spacing="0em">r</tspan><tspan x="89.14" y="24">e </tspan><tspan x="-6.53" y="36">cu</tspan><tspan x="4.6" y="36" letter-spacing="-.01em">s</tspan><tspan x="9.56" y="36" letter-spacing="0em">t</tspan><tspan x="13.35" y="36">omi</tspan><tspan x="30.79" y="36" letter-spacing="-.01em">z</tspan><tspan x="35.85" y="36">ed se</tspan><tspan x="60.57" y="36" letter-spacing=".01em">r</tspan><tspan x="64.68" y="36">vi</tspan><tspan x="72.92" y="36" letter-spacing="0em">c</tspan><tspan x="78.04" y="36">es</tspan><tspan x="88.7" y="36" font-family="IBMPlexSans, IBM Plex Sans" font-weight="400"> or </tspan></tspan><tspan x="2.76" y="48">p</tspan><tspan x="8.56" y="48" letter-spacing="0em">r</tspan><tspan x="12.18" y="48">oducts tailo</tspan><tspan x="64.7" y="48" letter-spacing="0em">r</tspan><tspan x="68.32" y="48">ed </tspan><tspan x="81.97" y="48" letter-spacing="0em">t</tspan><tspan x="85.44" y="48">o </tspan><tspan x="7.1" y="60">their p</tspan><tspan x="36.11" y="60" letter-spacing="0em">r</tspan><tspan x="39.73" y="60">e</tspan><tspan x="45.22" y="60" letter-spacing="0em">f</tspan><tspan x="48.42" y="60">e</tspan><tspan x="53.91" y="60" letter-spacing="0em">r</tspan><tspan x="57.53" y="60">en</tspan><tspan x="68.7" y="60" letter-spacing="-.01em">c</tspan><tspan x="73.67" y="60">e</tspan><tspan x="79.16" y="60" letter-spacing="0em">s</tspan><tspan x="83.98" y="60">.</tspan></text><text transform="translate(359.34 262.71)" font-size="10" fill="#394762" font-family="IBMPlexSans, IBM Plex Sans">A <tspan x="8.77" y="0" letter-spacing="-.01em">c</tspan><tspan x="13.74" y="0">ompa</tspan><tspan x="39.21" y="0" letter-spacing="-.01em">n</tspan><tspan x="44.81" y="0">y - with whom </tspan><tspan x="-5.03" y="12">th</tspan><tspan x="4.15" y="12" letter-spacing="0em">e</tspan><tspan x="9.59" y="12" letter-spacing=".04em">y</tspan><tspan x="14.98" y="12" letter-spacing="-.01em">’</tspan><tspan x="17.56" y="12" letter-spacing="-.01em">v</tspan><tspan x="22.4" y="12">e sha</tspan><tspan x="46.14" y="12" letter-spacing="0em">r</tspan><tspan x="49.76" y="12">ed their data - </tspan><tspan font-family="IBMPlexSans-Bold, IBM Plex Sans" font-weight="700"><tspan x="-4.71" y="24">ano</tspan><tspan x="12.58" y="24" letter-spacing="-.01em">n</tspan><tspan x="18.46" y="24">ymizing and sharing </tspan><tspan x="-12.51" y="36">th</tspan><tspan x="-2.72" y="36" letter-spacing="-.01em">a</tspan><tspan x="2.91" y="36">t d</tspan><tspan x="15.18" y="36" letter-spacing="-.01em">a</tspan><tspan x="20.81" y="36">ta with a </tspan><tspan x="64.15" y="36" letter-spacing="-.01em">g</tspan><tspan x="69.61" y="36" letter-spacing="-.01em">ov</tspan><tspan x="80.47" y="36">ernment </tspan><tspan x="-8.25" y="48">or nonp</tspan><tspan x="27.44" y="48" letter-spacing="0em">r</tspan><tspan x="31.43" y="48" letter-spacing="-.01em">o</tspan><tspan x="37.01" y="48">fit</tspan><tspan x="47.31" y="48" font-family="IBMPlexSans, IBM Plex Sans" font-weight="400"> o</tspan><tspan x="55.27" y="48" font-family="IBMPlexSans, IBM Plex Sans" font-weight="400" letter-spacing="-.02em">r</tspan><tspan x="58.71" y="48" font-family="IBMPlexSans, IBM Plex Sans" font-weight="400" letter-spacing="0em">g</tspan><tspan x="63.96" y="48" font-family="IBMPlexSans, IBM Plex Sans" font-weight="400">anization </tspan><tspan x="107.1" y="48" font-family="IBMPlexSans, IBM Plex Sans" font-weight="400" letter-spacing="0em">t</tspan><tspan x="110.57" y="48" font-family="IBMPlexSans, IBM Plex Sans" font-weight="400">o </tspan></tspan><tspan x="-14.93" y="60">help mana</tspan><tspan x="32.2" y="60" letter-spacing="-.01em">g</tspan><tspan x="37.42" y="60">e a public hea</tspan><tspan x="99.37" y="60" letter-spacing="0em">l</tspan><tspan x="102.04" y="60">th or </tspan><tspan x="26.03" y="72">sa</tspan><tspan x="36.24" y="72" letter-spacing="0em">f</tspan><tspan x="39.44" y="72">ety crisi</tspan><tspan x="74.36" y="72" letter-spacing="0em">s</tspan><tspan x="79.18" y="72">.</tspan></text><path data-name="70" fill="#f1613c" d="M369.93 57.12h86.75v185.52h-86.75z"/><path data-name="70" fill="#24b35a" d="M224.48 57.12h86.75v185.53h-86.75z"/><path data-name="78" fill="#436db5" d="M79.04 35.65h86.75v207H79.04z"/><text transform="translate(102.15 74.74)" font-size="28" fill="#fff" font-family="-OCFormatSans-Dm, -OC Format Sans">78</text><text transform="matrix(.58 0 0 .58 132.98 66.31)" font-size="28" fill="#fff" font-family="-OCFormatSans-Dm, -OC Format Sans">%</text><text transform="translate(245.16 94.12)" font-size="28" fill="#fff" font-family="-OCFormatSans-Dm, -OC Format Sans"><tspan letter-spacing="-.03em">7</tspan><tspan x="15.37" y="0">0</tspan></text><text transform="matrix(.58 0 0 .58 277.22 85.69)" font-size="28" fill="#fff" font-family="-OCFormatSans-Dm, -OC Format Sans">%</text><text transform="translate(390.6 94.12)" font-size="28" fill="#fff" font-family="-OCFormatSans-Dm, -OC Format Sans"><tspan letter-spacing="-.03em">7</tspan><tspan x="15.37" y="0">0</tspan></text><text transform="matrix(.58 0 0 .58 422.66 85.69)" font-size="28" fill="#fff" font-family="-OCFormatSans-Dm, -OC Format Sans">%</text></svg>