<svg data-name="Layer 1" xmlns="http://www.w3.org/2000/svg" viewBox="0 0 186 186"><path d="m57.98 90.68 5.57 7.17h-4l-5.1-6.69v6.69h-3.36V84.19h3.36v6.1l4.94-6.1h3.98l-5.39 6.49z"/><path data-name="Path" d="M68.42 95.03h6.51v2.82h-9.86V84.19h9.55v2.83h-6.2v2.46h5.6v2.77h-5.6v2.78zM76.29 84.19v2.83h4.16v10.83h3.35V87.02h4.14v-2.83H76.29z"/><path data-name="Path" d="M76.29 84.19v2.83h4.16v10.83h3.35V87.02h4.14v-2.83H76.29z"/><path d="m16.06 92.59 4.11 5.26h-3.85l-4.92-6.59v6.59H8.05V84.22h6.15c2.93 0 5 1.81 5 4.42a4 4 0 0 1-3.14 3.95zm-.21-4a1.77 1.77 0 0 0-2-1.72h-2.42v3.45h2.46a1.72 1.72 0 0 0 1.96-1.68z"/><g data-name="Path"><path d="M28.25 86.89a4.34 4.34 0 0 1 4.4 4.47 4.75 4.75 0 0 1-2.38 4.19l1.88 2.51a7.89 7.89 0 0 0 3.8-6.7 7.4 7.4 0 0 0-7.7-7.4 7.41 7.41 0 0 0-7.69 7.4 7.9 7.9 0 0 0 3.79 6.7l1.89-2.51a4.75 4.75 0 0 1-2.38-4.19 4.35 4.35 0 0 1 4.39-4.47z" fill="#c8102e"/><path d="m47.72 94.09 1.75 2.38a7 7 0 0 1-4.81 1.62 7.07 7.07 0 1 1 0-14.13 7.49 7.49 0 0 1 4.79 1.49l-1.83 2.49a4.52 4.52 0 0 0-3-1 4.13 4.13 0 0 0 .05 8.24 4.94 4.94 0 0 0 3.05-1.09z"/></g><path data-name="Path" d="M93.41 84.19h2.19l4.4 6.36 4.42-6.36h2.25v13.66h-1.94V87.02l-4.42 6.36h-.63l-4.34-6.36v10.83h-1.93V84.19z"/><path data-name="Shape" d="M108.35 93a5.1 5.1 0 1 1 5.1 5.05 4.9 4.9 0 0 1-5.1-5.05zm8.34 0a3.23 3.23 0 1 0-3.24 3.32 3.13 3.13 0 0 0 3.24-3.32z"/><path data-name="Path" d="M125.48 88.15v1.67h-.76c-1.85 0-2.66 1.34-2.66 3.3v4.71h-1.81v-9.71h1.81v1.7a2.82 2.82 0 0 1 2.69-1.7h.73zM128.34 94.14v-4.37h-1.68v-1.65h1.68v-2.8l1.83-.6v3.37h2.72v1.65h-2.72v4.11c0 1.62.86 2.3 2.43 2.3h.18l-.28 1.78h-.08c-2.75.07-4.08-1.12-4.08-3.79z"/><path data-name="Shape" d="M144 88.15v9c0 3.19-1.94 4.92-5 4.92a5.28 5.28 0 0 1-4.55-2.09l1.49-1a3.78 3.78 0 0 0 3.14 1.42 2.86 2.86 0 0 0 3.12-3.17v-1.2a3.87 3.87 0 0 1-3.51 1.8 4.94 4.94 0 0 1 0-9.86 4 4 0 0 1 3.51 1.8v-1.6h1.83zm-1.78 4.73a3.23 3.23 0 0 0-3.22-3.29 3.32 3.32 0 1 0 3.19 3.29zM155.65 88.15v9.7h-1.83v-1.7a3.79 3.79 0 0 1-3.53 1.85 4.7 4.7 0 0 1-4.69-5c0-3 2-5.05 4.69-5.05a3.93 3.93 0 0 1 3.53 1.86v-1.64h1.83zM153.92 93a3.22 3.22 0 0 0-3.27-3.35 3.36 3.36 0 0 0 0 6.7 3.24 3.24 0 0 0 3.27-3.35zM167.32 88.15v9c0 3.19-1.93 4.92-5 4.92a5.25 5.25 0 0 1-4.55-2.09l1.49-1a3.78 3.78 0 0 0 3.14 1.42 2.85 2.85 0 0 0 3.11-3.17v-1.2a3.87 3.87 0 0 1-3.51 1.8 4.94 4.94 0 0 1 0-9.83 4 4 0 0 1 3.51 1.8v-1.63h1.83zm-1.78 4.73a3.22 3.22 0 0 0-3.19-3.29 3.32 3.32 0 1 0 3.19 3.29zM178.55 93.51h-7.72a3 3 0 0 0 3.09 2.93 3.8 3.8 0 0 0 2.82-1.2l1.26.94a5.05 5.05 0 0 1-4.11 1.82 4.74 4.74 0 0 1-4.89-5 4.81 4.81 0 0 1 4.84-5c2.8 0 4.71 2.07 4.71 5.31v.21zm-1.91-1.33a2.74 2.74 0 0 0-2.78-2.73 3 3 0 0 0-3 2.73z"/></svg>