<svg xmlns="http://www.w3.org/2000/svg" xmlns:xlink="http://www.w3.org/1999/xlink" viewBox="0 0 1791.59 1053.49"><defs><linearGradient id="linear-gradient" x1="433.4" y1="525.92" x2="938.51" y2="525.92" gradientTransform="translate(30.77 -8.22)" gradientUnits="userSpaceOnUse"><stop offset="0" stop-color="#dceeff" stop-opacity="0"/><stop offset="1" stop-color="#dceeff"/></linearGradient><linearGradient id="linear-gradient-2" x1="735.29" y1="391.82" x2="1155.84" y2="391.82" gradientTransform="translate(62.02 97.99)" xlink:href="#linear-gradient"/><linearGradient id="linear-gradient-3" x1="1426.29" y1="674.2" x2="1424.26" y2="784.32" gradientUnits="userSpaceOnUse"><stop offset="0" stop-color="#1c1c82"/><stop offset="1" stop-color="#2f3bb2"/></linearGradient><linearGradient id="linear-gradient-4" x1="620.49" y1="674.2" x2="618.46" y2="784.32" xlink:href="#linear-gradient-3"/><linearGradient id="linear-gradient-5" x1="985.73" y1="796.25" x2="983.51" y2="706.94" gradientUnits="userSpaceOnUse"><stop offset="0" stop-color="#171787" stop-opacity="0"/><stop offset="0.83" stop-color="#2f3bb2"/></linearGradient></defs><title>404-page</title><g id="Layer_2" data-name="Layer 2"><circle cx="484.16" cy="135.21" r="36.55" fill="#cce3ff"/><circle cx="1505.68" cy="519.9" r="36.55" fill="#cce3ff"/><circle cx="1679.55" cy="135.21" r="36.55" fill="#dceeff"/><circle cx="116.41" cy="468.9" r="36.55" fill="#dceeff"/><path d="M867,735.78A36.52,36.52,0,0,1,835,772.06a37,37,0,0,1-4.49.27,36.55,36.55,0,0,1-.12-73.1h.12A36.54,36.54,0,0,1,867,735.78Z" fill="#cce3ff"/><path d="M866.67,740.93A36.57,36.57,0,0,1,835,772.06a25.5,25.5,0,0,1,31.7-31.13Z" fill="#dceeff"/><path d="M830.48,701.23a16.85,16.85,0,0,1-28.73,11.94,36.52,36.52,0,0,1,28.61-13.94A16.4,16.4,0,0,1,830.48,701.23Z" fill="#dceeff"/><circle cx="827.6" cy="715.83" r="6.51" fill="#dceeff"/><rect x="464.17" y="487.68" width="505.11" height="60.04" transform="translate(244.07 -229.5) rotate(21.84)" fill="url(#linear-gradient)"/><rect x="797.31" y="465.28" width="420.55" height="49.08" transform="translate(254.58 -339.72) rotate(21.84)" fill="url(#linear-gradient-2)"/><circle cx="1202.77" cy="568.05" r="24.54" fill="#dceeff"/><circle cx="951.15" cy="611.66" r="30.02" fill="#dceeff"/><circle cx="951.15" cy="611.66" r="17.29" fill="#b6d4ff"/><circle cx="1202.77" cy="568.05" r="13.2" fill="#b6d4ff"/><ellipse cx="474.59" cy="568.46" rx="12.52" ry="37.99" fill="#dceeff"/><circle cx="252.22" cy="649.83" r="9.03" fill="#cce3ff"/><circle cx="660.41" cy="628.96" r="9.03" fill="#cce3ff"/><circle cx="572.94" cy="333.71" r="15.28" fill="#b6d4ff"/><circle cx="695.16" cy="107.59" r="9.03" fill="#dceeff"/><circle cx="474.59" cy="198.43" r="9.03" fill="#dceeff"/><circle cx="99.43" cy="113.23" r="9.03" fill="#dceeff"/><circle cx="1633.97" cy="86.14" r="9.03" fill="#dceeff"/><circle cx="1741.03" cy="241.76" r="9.03" fill="#dceeff"/><circle cx="1272.82" cy="365.64" r="9.03" fill="#dceeff"/><circle cx="1301.9" cy="104.2" r="9.03" fill="#dceeff"/><circle cx="1688.58" cy="657.67" r="9.03" fill="#cce3ff"/><ellipse cx="839.46" cy="113.23" rx="14.99" ry="45.49" fill="#ecf6ff"/><ellipse cx="1310.93" cy="666.7" rx="18.14" ry="55.04" fill="#ecf6ff"/><ellipse cx="596.7" cy="772.33" rx="16.68" ry="50.6" fill="#dceeff"/><ellipse cx="1726.8" cy="463.45" rx="14.22" ry="43.15" fill="#dceeff"/><circle cx="1026.02" cy="803.19" r="7.73" fill="#dceeff"/><circle cx="921.18" cy="263.64" r="10.94" fill="#dceeff"/><circle cx="754.05" cy="208.83" r="6.75" fill="#cce3ff"/><circle cx="1024.28" cy="123.94" r="19.79" fill="#dceeff"/><circle cx="1552.2" cy="810.92" r="9.97" fill="#b6d4ff"/><circle cx="413.62" cy="789.2" r="6.27" fill="#b6d4ff"/><circle cx="1087.49" cy="396.68" r="6.27" fill="#b6d4ff"/><circle cx="813.33" cy="463.45" r="6.27" fill="#dceeff"/><circle cx="604.41" cy="355.66" r="6.27" fill="#dceeff"/><circle cx="116.41" cy="695.4" r="6.27" fill="#dceeff"/><circle cx="539.78" cy="463.45" r="6.27" fill="#dceeff"/><circle cx="268.86" cy="506.59" r="7.61" fill="#dceeff"/><circle cx="275.18" cy="209.72" r="158.77" fill="#dceeff"/><circle cx="334.77" cy="118.88" r="24.04" fill="#ecf6ff"/><circle cx="334.68" cy="169.98" r="9.58" fill="#ecf6ff"/><circle cx="227.46" cy="296.45" r="9.58" fill="#ecf6ff"/><path d="M175.49,236.18c49.59,40.35,89.61-21.24,89.61-21.24-68.56,21-87.54-44.73-7.87-70.8C306.64,128,301,83.24,289.57,51.61a158.8,158.8,0,0,0-161.82,217.1,55.82,55.82,0,0,0,7.18-12.77C140.72,239.82,139.18,206.65,175.49,236.18Z" fill="#cce3ff"/><path d="M255,367.2A158.85,158.85,0,0,0,426,160c-5.18,8.52-15.43,16.6-34.79,5.93-33-18.19-39.78,32.74-13,50.6,15.1,10.08,28.44,28.53,9.77,42-20.51,14.77-55.67-50.25-88.2-26.36-43.7,32.1,32.92,80.31,3.68,94.71-18.27,9-31.38-16.24-31.38-16.24s-39.94,37.18-76.11,6.17c-12-10.32-28.71-11.52-37.48.59A158.09,158.09,0,0,0,255,367.2Z" fill="#cce3ff"/><circle cx="1441.35" cy="263.64" r="159.47" fill="#dceeff"/><path d="M1600.8,259.93c-34.23,6.78-119.24,18.45-185.93-15.13-62.6-31.53-68.84-62.07-99-79.56a156.83,156.83,0,0,1,16.38-17.86A261.21,261.21,0,0,1,1469.13,195c44.88,31.49,93.11,37.45,128.37,36.15A158.43,158.43,0,0,1,1600.8,259.93Z" fill="#ecf6ff"/><path d="M1390.77,271.91c-2.34.93-45.71,17.49-108.92-7.34a161.09,161.09,0,0,1,11-59.23C1315.4,229.6,1366.63,280.71,1390.77,271.91Z" fill="#ecf6ff"/><path d="M1590.16,321A158.31,158.31,0,0,1,1563,366.75C1523.2,352,1447.59,329,1390.87,342a274.09,274.09,0,0,1-85,5.67,159.43,159.43,0,0,1-18.11-41.14c34.19-.46,99.34-3.44,153.63-18.12C1497.05,273.38,1550.83,306,1590.16,321Z" fill="#ecf6ff"/><path d="M1535.73,392.19a159.38,159.38,0,0,1-22,13.53c-39.25-15.77-89.49-32.8-116.6-28C1400.53,377,1457,365.61,1535.73,392.19Z" fill="#ecf6ff"/><path d="M1586.69,198c-30.55-2.08-93.56-12.12-144.4-57.79-28-25.14,22.56-20.21,93.23-5.27A160.25,160.25,0,0,1,1586.69,198Z" fill="#ecf6ff"/><path d="M1459.29,422.14a159.74,159.74,0,0,1-131.64-46.68C1355.27,377.25,1410.79,385.59,1459.29,422.14Z" fill="#ecf6ff"/><path d="M1406.93,135.12c-5.07-.46-25.71-2.79-41.55-11.69a159.45,159.45,0,0,1,25.7-11.16C1396.84,123.3,1403.15,133.76,1406.93,135.12Z" fill="#ecf6ff"/><path d="M1408.1,135.21a2,2,0,0,1-1.15-.09Z" fill="#ecf6ff"/><path d="M1641.53,265.74c69,22.19,111.56,45.34,108.6,62.58-5.2,30.23-148.52,30.81-320.12,1.31S1123.5,251.71,1128.7,221.49c3-17.71,53.49-25.25,129.25-22.52" fill="none" stroke="#b6d4ff" stroke-linecap="round" stroke-miterlimit="10" stroke-width="28"/></g><g id="Man"><ellipse cx="891.79" cy="1027.82" rx="623.08" ry="2.35" fill="#8d2cc6"/><path d="M562.1,704.23H358.79V635.08l207-339.77h93v321h63.85v88H658.79V820.74H562.1Zm13.64-88V431.37L464.16,616.28Z" fill="#2f3bb2"/><path d="M841.34,799.32q-43.7-32.7-67.25-94.71T750.53,558.4q0-84.93,23.25-146.58t66.94-94.71Q884.42,284,943.92,284t102.9,33.08q43.38,33.09,66.63,94.71T1136.7,558.4q0,84.2-23.56,146.21t-66.94,94.71Q1002.81,832,943.92,832T841.34,799.32Zm174.49-116.89q25.39-44.34,25.41-122.52,0-78.93-25.1-124t-72.22-45.11q-47.11,0-72.21,45.11t-25.1,124q0,78.18,25.41,122.52t71.9,44.35Q990.42,726.78,1015.83,682.43Z" fill="#2f3bb2"/><path d="M1367.89,704.23H1164.58V635.08l207-339.77h93v321h63.84v88h-63.84V820.74h-96.7Zm13.64-88V431.37L1270,616.28Z" fill="#2f3bb2"/><rect x="862.72" y="284.03" width="82.38" height="547.99" fill="#2f3bb2"/><path d="M562.1,704.23H358.79V635.08l207-339.77h93v321h63.85v88H658.79V820.74H562.1Zm13.64-88V431.37L464.16,616.28Z" fill="#0a53bb"/><path d="M1367.89,704.23H1164.58V635.08l207-339.77h93v321h63.84v88h-63.84V820.74h-96.7Zm13.64-88V431.37L1270,616.28Z" fill="#0a53bb"/><rect x="1384.74" y="704.23" width="79.85" height="116.51" fill="url(#linear-gradient-3)"/><rect x="578.94" y="704.23" width="79.85" height="116.51" fill="url(#linear-gradient-4)"/><path d="M1136.69,558.4q0,84.2-23.55,146.2t-67,94.72Q1002.8,832,943.92,832H862.71V812.87a162.37,162.37,0,0,1-21.37-13.55q-43.71-32.7-67.26-94.72T750.53,558.4q0-84.93,23.24-146.58t67-94.71a160.4,160.4,0,0,1,22-14V284h81.21q59.51,0,102.89,33.08t66.64,94.71Q1136.69,473.47,1136.69,558.4Z" fill="#0a53bb"/><path d="M961.39,559.9q0,78.2-25.41,122.53t-71.91,44.35q-46.49,0-71.9-44.35T766.76,559.9q0-78.91,25.1-124t72.21-45.1q47.1,0,72.22,45.1T961.39,559.9Z" fill="#101014"/><path d="M855.85,427.91c-3.64,0-6.59,7.25-6.59,16.18,0-8.93-3-16.18-6.6-16.18,3.64,0,6.6-7.25,6.6-16.18C849.26,420.66,852.21,427.91,855.85,427.91Z" fill="#fff"/><path d="M906.8,460.65c-6,0-10.84,11.91-10.84,26.61,0-14.7-4.86-26.61-10.84-26.61,6,0,10.84-11.92,10.84-26.61C896,448.73,900.81,460.65,906.8,460.65Z" fill="#fff"/><path d="M839.88,527.86c-4.46,0-8.07,8.87-8.07,19.81,0-10.94-3.61-19.81-8.07-19.81,4.46,0,8.07-8.86,8.07-19.8C831.81,519,835.42,527.86,839.88,527.86Z" fill="#fff"/><path d="M937.28,531.2c-2.7,0-4.9,5.39-4.9,12,0-6.64-2.19-12-4.9-12,2.71,0,4.9-5.39,4.9-12C932.38,525.81,934.58,531.2,937.28,531.2Z" fill="#fff"/><path d="M886.8,648.7c-5.3,0-9.61,10.56-9.61,23.6,0-13-4.3-23.6-9.61-23.6,5.31,0,9.61-10.56,9.61-23.59C877.19,638.14,881.5,648.7,886.8,648.7Z" fill="#fff"/><path d="M807.1,591.45c-4.07,0-7.36,8.09-7.36,18.08,0-10-3.3-18.08-7.36-18.08,4.06,0,7.36-8.09,7.36-18.07C799.74,583.36,803,591.45,807.1,591.45Z" fill="#fff"/><path d="M482.25,704.23H278.94V635.08L486,295.31h93v321h63.84v88H579V820.74h-96.7Zm13.64-88V431.37L384.32,616.28Z" fill="#0e6ffa"/><path d="M1033.6,411.82Q1010.37,350.2,967,317.11T864.07,284q-59.51,0-103.2,33.08t-66.94,94.71Q678,454.09,673,507.3q-2.29,24.41-2.3,51.1a512.56,512.56,0,0,0,3.91,64.93q5.68,44.52,19.65,81.27,23.55,62,67.25,94.72T864.07,832q58.89,0,102.28-32.7t66.94-94.72q23.55-62,23.56-146.2Q1056.85,473.47,1033.6,411.82ZM936,682.43q-25.43,44.36-71.91,44.35t-71.9-44.35q-25.42-44.34-25.41-122.53,0-78.91,25.1-124t72.21-45.1q47.1,0,72.22,45.1t25.1,124Q961.39,638.1,936,682.43Z" fill="#0e6ffa"/><path d="M1288,704.23h-203.3V635.08l207-339.77h93v321h63.85v88h-63.85V820.74H1288Zm13.64-88V431.37L1190.11,616.28Z" fill="#0e6ffa"/><polygon points="964.72 720.08 971.03 807.57 1004.49 781.88 995.74 629.21 964.72 720.08" fill="url(#linear-gradient-5)"/><polygon points="579.07 1001.45 591.09 969.71 615.79 985.31 602.5 1013.72 579.07 1001.45" fill="#cf3e83"/><path d="M580.48,997.41,570,1027.59l106.49.23s-18.87-20.82-68-26.79Z" fill="#0d0b6d"/><polygon points="654.19 655.96 643 821.2 573.75 990.8 620.4 996.41 696.8 845.32 729.2 673.27 654.19 655.96" fill="#1a1a1e"/><path d="M708.84,480,825,456.7s6.36.83,8.49,8.3-1.22,11.78-1.22,11.78l-119.54,49.1Z" fill="#e576c6"/><polygon points="696.43 512.01 768.69 533.12 784.42 482.35 800.9 488.65 790.2 573.38 689.03 556.81 696.43 512.01" fill="#e576c6"/><polygon points="711.51 476.78 633.63 497.19 727.12 520.41 711.51 476.78" fill="#eabd00"/><polyline points="591.58 384.35 598.13 401.1 592.24 405.49 577.81 395.62" fill="none" stroke="#0d0b6d" stroke-miterlimit="10" stroke-width="9"/><path d="M687.77,381.76s32.23,24.32,2.33,41.42Z" fill="#0d0b6d"/><path d="M617.32,444.5c-4.27-6.29-28.08-9.06-28.91,7.92-1.08,21.9,40,21.88,40,21.88L635.17,504l36.58-4.76-7.09-26.1s34.64-6.74,40.7-12.38c0,0-3.77-34.56-15.38-56.6l-34.79-17.44-44,15.74Z" fill="#e576c6"/><path d="M597.32,440.62s-24.26-2.84-6.12-36.17,44.56-25.95,44.56-25.95-1-28.56,16.68-33.37c25.22-6.86,39.87,31,39.87,31s6.84-24.68,14.9-23.65,27.7,71.28-82,64.74c0,0,14,17-7.89,27.3C617.32,444.5,611,437.33,597.32,440.62Z" fill="#0d0b6d"/><path d="M667.07,456.87c-1.43-3.2,2.8-8.13,9.15-8.9,9.4-1.14,15.7,5.79,12.41,10.86-3.15,4.85-9.35-.08-14.63.89C671.13,460.25,668.16,459.31,667.07,456.87Z" fill="#fff"/><polygon points="664.66 473.11 641.03 474.49 667.38 483.35 664.66 473.11" fill="#cf3e83"/><polygon points="681.15 425.93 694.08 442.65 684.87 445.32 681.15 425.93" fill="#405fd3"/><polygon points="736.91 515.94 712.35 479.12 726.03 520.41 736.91 515.94" fill="#cf3e83"/><polygon points="738.06 564.84 730.4 521.94 728.66 563.3 738.06 564.84" fill="#cf3e83"/><circle cx="669.08" cy="430.42" r="4.84" fill="#0d0b6d"/><circle cx="692.33" cy="424.71" r="4.84" fill="#0d0b6d"/><path d="M653.47,663.7s-76.69-113.22-19.84-166.51c13.24-12.41,97.09,17.21,97.09,17.21l-2.8,66.65-16.41-3.41,31.62,49.64,17.21,44s-44.06-9.94-93.29-7.22C663.66,664.26,653.47,663.7,653.47,663.7Z" fill="#ffcd05"/><polygon points="958.27 713.31 939.62 693.1 961.39 670.55 976.42 696.75 958.27 713.31" fill="#cf3e83"/><path d="M964.72,664.49l-88.59-102.7a30.82,30.82,0,0,0-44.44-.92l-88.56,66.41s-12.56,34.5-83.57,37.37c0,0,26.94,62.07,89.39,40.07,28.13-9.91,107.74-78.05,107.74-78.05l89.55,86.84Z" fill="#313135"/><line x1="664.24" y1="416.67" x2="655.87" y2="424.35" fill="none" stroke="#0d0b6d" stroke-miterlimit="10" stroke-width="7"/><line x1="686.69" y1="411.59" x2="700.39" y2="413.79" fill="none" stroke="#0d0b6d" stroke-miterlimit="10" stroke-width="7"/><path d="M958.27,713.31l18.15,19.05,19.32-103.15s-14.09,19.49-26.68,50.7Z" fill="#0d0b6d"/><polygon points="711.51 577.64 672.15 567.74 720.77 592.17 711.51 577.64" fill="#eabd00"/><path d="M802.84,458a14.23,14.23,0,0,0-1.47,3.18,72.94,72.94,0,0,0-16.16,18.92c-6.71,11.58,13.61,16.05,13.61,16.05s6.27,1.12,8.07-.42,4-.78,5.32-1.61,2.3-5.19,5.65-7.08,1.07-8.57-.38-9.7-10.3-3.95-8.21-11C811.15,460.08,806.36,453.93,802.84,458Z" fill="#e576c6"/><path d="M780.72,498.48l5-16.71s0-10.13,16.9-20.35" fill="none" stroke="#cf3e83" stroke-miterlimit="10" stroke-width="3"/><path d="M809,459.9s1.48,2.25,0,7.84,6.44,7.65,8.49,9.62a6.86,6.86,0,0,1,2,4.66" fill="none" stroke="#cf3e83" stroke-miterlimit="10" stroke-width="3"/><line x1="799.87" y1="496.9" x2="800.9" y2="487.81" fill="none" stroke="#cf3e83" stroke-miterlimit="10" stroke-width="3"/></g></svg>