<svg data-name="Layer 1" xmlns="http://www.w3.org/2000/svg" viewBox="0 0 1500 800"><path fill="#fff" d="M1280.12 517.47l-.51-4.51-1.36.3 1.87 4.21z"/><path opacity=".03" d="M1096.17 426.61l-1.48.02 1.52 2.07-.04-2.09z"/><path d="M1170.33 487.1l2.76 20q.29-12.18 1-23.35zM923.36 471.89l.6-11.54-1.1-.13.24 11.65.26.02z" fill="#fff"/><path d="M922.42 439.7l.24 11.29 1.77.24.6-11.63-2.54-.41c-.02.17-.04.34-.07.51zM1309.4 538.93l2.49-.44-2.33-4.67-.16 5.11z" fill="#222" opacity=".2"/><path d="M1170.54 464.29c0-.41.08-.83.13-1.24l-.81.22zM983.45 417.96l-3.74-4.21.22 4.69 3.52-.48z" fill="#fff"/><path d="M1180.14 418l-.51.25.83 2.55.12-.58z" fill="#222" opacity=".2"/><path d="M1012.92 585.92c-.1-.88-.21-1.74-.31-2.63l-3 .52 1.19.76z" fill="#fff"/><path d="M1243.1 639.82l.92.29c-.12-.46-.25-.93-.37-1.4l-.44-.23z" opacity=".1"/><path opacity=".03" d="M982.44 481.16l-1.33-5.74-1.14.57 2.39 5.17.14.3.01.04-.05-.23-.02-.11z"/><path d="M1259.87 490l-.52.2.42 1.62c.03-.64.06-1.25.1-1.82zM1224 568.86l1.18-.27-2.23-4.73z" fill="#fff"/><path d="M1263.35 396.59l.89.81-.59-1.9z" opacity=".03"/><path d="M1249.29 383.85l1.08 1 5.52 5 .6-1.87-6-3.43z" fill="#222" opacity=".2"/><path d="M1185.31 733l2.1-.83v-.1l-2.09.76z" opacity=".1"/><path fill="#fff" d="M1192.29 699.21l-14.95-17.29 12.61 21.96 2.34-4.67z"/><path d="M1072.14 346.77h1.72l1-4.66h-1.78l-.39.16z" fill="#222" opacity=".2"/><path d="M1122.39 688.41l.74 8c.11.26.23.51.34.77v-1.14l-.18-5.51c-.29-.7-.61-1.41-.9-2.12z" fill="#fff"/><path d="M1368 483.83l-2.1-2.09-1.13.46.66 2.73z" fill="#222" opacity=".2"/><path fill="#fff" d="M1217.63 602.61l.82.36.93-7.95-1.75 7.59z"/><path d="M1336.19 377.31l-.73-1c-.12.37-.25.74-.38 1.11zM1362.87 378.87c-.56 1.66-1.12 3.34-1.66 5l2.2 8.68c.87-2.88 1.75-5.71 2.66-8.49l-.45-7.72z" fill="#222" opacity=".2"/><path d="M1230.73 360.08l-1.07 5.06 2.79-.64-.53-4.69z" opacity=".1"/><path fill="#fff" d="M1228.35 455.81l1.78-2.35-3.27.94 1.49 1.41z"/><path d="M1394.59 535.69l2.33-4.67-.26-8.2-2.07.67zM1394.59 509.25l1.61-.54-.46-14.49-1.15.37zM1394.59 465.7v14.66l.69-.23-.47-14.51z" fill="#222" opacity=".2"/><path fill="#fff" d="M1408.82 751.71l2.59-1.11-3.74-3.73 1.15 4.84z"/><path fill="#222" opacity=".2" d="M1385.24 786.58l-.55-.44.55 2.77v-2.33zM1460.07 424.6l-1.67 4.22.24 1.62 2-5.91z"/><path d="M1330.2 321.79l-2.13-5.2-1 .47 2.46 8.39 2-.47z" fill="#fff"/><path d="M1324 306.76l.86 2.93.29-.13z" fill="#222" opacity=".2"/><path fill="#fff" d="M1046.52 330.59l-.2-.05 1.13 5.19-.62-3.42-.31-1.72z"/><path d="M1090 752.33v.45c.2.47.41.92.61 1.39l-.19-5.44-.42 3.27z" opacity=".03"/><path d="M1351.91 710.51l.51 1.6 1.52 4.86-.2-5.92v-1.31zM1353.42 701.33l-.41-12.4-6.54 4.21 3.1 9.9z" fill="#222" opacity=".2"/><path d="M1442.24 570.26l-2.8 2.34 5 10.57 1.88-.32z" fill="#fff"/><path fill="#222" opacity=".2" d="M1327.31 692.2l9.34-23.82-11.68 26.63 2.34-2.81z"/><path d="M1491.37 724.23l.77-.06-.16-.47z" fill="#fff"/><path d="M1461.65 805.83c12.24-1.67 25.37-2.93 39.58-3.68v-2.34c-14 .73-26.91 2-39 3.57z" fill="#222" opacity=".2"/><path d="M1437.8 780.91a430.63 430.63 0 0150.53-6.83l.16-2 .24 2q6.11-.46 12.5-.79v-2.34a447.68 447.68 0 00-63.86 7.68zM1419.39 785q5-1.26 10.25-2.42l.93-2.6q-3.58.78-7.08 1.6z" fill="#fff"/><path d="M1463.65 747.76c11.65-1.54 24.15-2.68 37.58-3.39V742c-12.18.64-23.59 1.64-34.3 3z" fill="#222" opacity=".2"/><path d="M1494.19 95.9h1.17c.26-7.11.41-14.46.41-22.13 0-32.49-2.42-59.87-6.43-83.76h-1.19c4 23.87 6.45 51.26 6.45 83.76 0 7.67-.15 15.02-.41 22.13z" fill="#fff"/><path d="M1465.3 95.9h1.16c.26-7.11.41-14.46.41-22.13a532.5 532.5 0 00-3.78-65.53l-1 1.71a535.44 535.44 0 013.58 63.82c.03 7.67-.12 15.02-.37 22.13zM1499.16 419.11q1-4.51 2.07-8.85v-4.74c-.85 3.3-1.68 6.66-2.47 10.11.13 1.16.24 2.37.4 3.48zM1491.28 351.55l.15 1.25c3.19-7.73 6.48-15.19 9.8-22.54v-2.83c-3.4 7.5-6.79 15.11-10.08 23 .04.37.09.75.13 1.12z" fill="#222" opacity=".2"/><path d="M1485.43 301.42c5.49-12.29 10.87-25 15.8-38.76v-3.51c-5 14.28-10.45 27.37-16.06 40 .09.76.17 1.52.26 2.27z" opacity=".1"/><path d="M1494.6 113.63c0 54.22-6.71 94.26-16.44 127.41.12 1 .23 1.93.35 2.89 6.9-22.87 12.37-49 15.18-80.85l-1 .72 1.27-4c1.16-14.2 1.8-29.49 1.8-46.14 0-6.09-.09-12-.26-17.73h-1.16c.17 5.71.26 11.61.26 17.7z" fill="#fff"/><path d="M1465.7 113.63c0 7.74-.15 15.15-.41 22.33l.87 7c0-.89.09-1.76.13-2.66l-.22.15.22-.2c.18-4.06.31-8.23.41-12.47l-1.1-2.28 1.15.06c.07-3.9.12-7.86.12-11.92 0-6.09-.09-12-.26-17.73h-1.16c.16 5.73.25 11.63.25 17.72zM1498.77 191.83l-3.73.93 1.55 1.83 2.18-2.76z" fill="#222" opacity=".2"/><path opacity=".1" d="M1471.21 137.17l-.39-.81-4.75 4.08.22-.15 4.92-3.12z"/><path fill="#fff" d="M1347.4 264.25l2.8-2.34-11.21-23.83 8.41 26.17zM1209.39 233.48l1 20.9c.09-.28.17-.56.27-.85l-1.19-20.28-.34-5.91z"/><path d="M1126.58 160.11l-1.1 1.35h1c.03-.46.07-.9.1-1.35z" opacity=".1"/><path d="M1377.51 199.79l.36-2.09-1.94-1.49-6.35-4.89-.16-.13v.23l.16.16 4.17 4.3zM1379.17 32.51l-1.09-.34-.31 2.68 1.4-2.34z" fill="#222" opacity=".2"/><path fill="#fff" d="M1378.77 154.81l.4.58.11-.54 1.02-5.14-4.4 1.01 2.87 4.09z"/><path d="M1112.93 286.08l-.07.12-.13 1h.61l.18-1.17z" opacity=".03"/><path d="M1222.23 143l.36-3.65c-1.4.28-2.83.55-4.26.82l.42 3 .07.5zM1275.79 155.83l2-1.84-.77-2.36c-1.79.67-3.59 1.34-5.42 2l.07 3.71zM1349 176.66l-2.53.69 2.23 1.78z" fill="#fff"/><path d="M1251.2 176.17c-.13 1.1-.26 2.2-.4 3.28l.36-.7zM1080.66 142.69h-.58l-4.29 14h.21z" opacity=".03"/><path d="M1085.94 95.9l-.49-2.21h-1.55v.49l.54 1.72z" fill="#fff"/><path fill="#222" opacity=".2" d="M1158.03 95.9h1.9l1.99-2.65-3.36-5.42-.62 8.07h.09z"/><path d="M1038.37 8.15l2.54-2.73v-.58l-3.91-.32-1 3.48zM1015.68 12.89l-1.79 5.49 2.73.12-.94-5.61z" fill="#fff"/><path d="M987 272.13l.47.64c.1-.39.21-.76.3-1.15l-.54.05c-.05.15-.12.33-.23.46zM1414.21 116.61l-1.24 4.77 4.04.37-2.8-5.14zM1398.76 50.51l-.31-3.6-2.39.77.74 3.45zM1340.3 49.51l-.84-.64 1.4 2.8-.56-2.16zM1447.5 342.68l-.12.52.23-.54z" fill="#222" opacity=".2"/><path d="M1453.3 316.4c1.86-.29 3.73-.58 5.63-.85l1.58-3.77q-3.24.45-6.4.94z" fill="#fff"/><path d="M1499.84 424.93c-.2-1.77-.42-3.55-.62-5.33l-5.22-1.14q-1.24 5.71-2.32 11.46l6.89 1.29c.43-2.1.84-4.21 1.27-6.28z" fill="#222" opacity=".2"/><path d="M1497.44 404.33c-.44 1.7-.92 3.39-1.34 5.1l2 .49c-.22-1.87-.45-3.73-.66-5.59z" opacity=".1"/><path fill="#fff" d="M1484.61 492.3l7 .34.68-11.47-6.99-.49-.69 11.62z"/><path d="M1487.2 459.86c-.43 3.86-.83 7.72-1.17 11.6l7 .62q.51-5.73 1.16-11.43z" opacity=".1"/><path d="M1489.15 445.27l2.61 5.39h-3.41a.19.19 0 000 .08l6.94.94q.78-5.7 1.69-11.36l-6.91-1.13c-.35 2.02-.62 4.05-.92 6.08z" fill="#fff"/><path opacity=".03" d="M1491.78 554.57l-.51-11.48-7 .23.49 11.3 4.67-8.18-2.64 8.4 4.99-.27z"/><path fill="#222" opacity=".2" d="M1484.03 534.1l7-.13-.11-11.51-7.01.01.12 11.63z"/><path fill="#fff" d="M1483.96 513.31l7.01.09.26-11.5-7-.22-.27 11.63z"/><path d="M1490.23 605.8q.94 5.76 2.08 11.49l.68-.13.18-.18-.15.18 6.17-1.22c-.73-3.75-1.42-7.51-2-11.29z" fill="#222" opacity=".2"/><path d="M1494.28 584.27l-7 .8c.45 3.86.94 7.72 1.5 11.57l6.93-1q-.77-5.64-1.43-11.37z" opacity=".03"/><path fill="#fff" d="M1493.33 575.27l-.96-11.45-6.99.51.97 11.61 6.98-.67zM1501.23 653.25v-7l-1.89.53c.66 2.22 1.24 4.32 1.89 6.47z"/><path d="M1501 625l-6 4.69c.63 2.73 1.25 5.46 2 8.18l4.28-1.09v-11.12l-.15-.66zM1482.78 360.6c-1.12 2.88-2.24 5.77-3.3 8.68l6.58 2.41q2-5.4 4.09-10.73l-3.34-1.32 1.22 4.59zM1491.15 350.42c-.31-2.63-.61-5.27-.92-7.9l-3.12 7.3 4.17 1.73c-.04-.37-.09-.75-.13-1.13z" fill="#222" opacity=".2"/><path d="M1465.11 418.46q-1.24 5.71-2.32 11.46l6.89 1.29q1-5.64 2.28-11.25z" opacity=".1"/><path d="M1476.92 400l-6.75-1.88q-1.58 5.63-3 11.31l6.8 1.67c.96-3.72 1.92-7.41 2.95-11.1z" fill="#fff"/><path d="M1476.35 378.16q-1.89 5.54-3.59 11.12l6.7 2.05q1.68-5.47 3.52-10.92z" fill="#222" opacity=".2"/><path fill="#fff" d="M1456.4 480.68l-.69 11.62 7 .34.68-11.47-6.99-.49zM1465.27 460.65l-7-.79c-.44 3.86-.84 7.72-1.17 11.6l7 .62q.52-5.73 1.17-11.43z"/><path d="M1468.08 440.32l-6.92-1.13c-.63 3.84-1.19 7.69-1.72 11.55l7 .94q.72-5.68 1.64-11.36zM1455.88 554.95l7-.38-.5-11.48-7.01.23.51 11.63zM1456.34 522.47l.51 11.6 5.28-.1-.11-11.51-5.68.01z" opacity=".03"/><path fill="#222" opacity=".2" d="M1455.42 501.68l.51 11.64 6.15.08.26-11.5-6.92-.22z"/><path d="M1466.7 616.65l-2.7-11.29-2.67.44q.95 5.76 2.08 11.49zM1469.32 610.54l-1.87 6 2.85-.56c-.36-1.83-.65-3.64-.98-5.44z" fill="#fff"/><path d="M1465.39 584.27l-7 .8c.45 3.86.94 7.72 1.5 11.57l1-.15v-.06l4.91-8.63c-.1-1.18-.28-2.35-.41-3.53z" fill="#222" opacity=".2"/><path opacity=".1" d="M1463.47 563.82l-6.99.51.98 11.61 6.97-.67-.96-11.45z"/><path d="M1476.69 666.79q1.89 5.52 3.94 11l1-.38-.15-.61.7.41 5-1.88q-2-5.37-3.88-10.8z" opacity=".03"/><path d="M1480.47 655.87q-1.73-5.46-3.28-11l-2.39.67-3.83 3c.91 3.15 1.83 6.29 2.82 9.42z" fill="#fff"/><path d="M1474.84 636.16q-1.41-5.56-2.66-11.16l-6.83 1.52q1.26 5.7 2.71 11.37z" opacity=".1"/><path fill="#222" opacity=".2" d="M1492.08 705.73l4.73 10.59 4.42-2v-5.29l-2.73-6.12-6.42 2.82zM1492.79 695.48l2.12-.89-.77-1.88-1.35 2.77z"/><path d="M1481.52 314.67l4.34-9.57c0-.41-.09-.81-.14-1.22l-3.47-1.56-.76 1.64.67-1.68-2.26-1-4.75 10.49z" opacity=".1"/><path d="M1484.25 291.43l-.65 1.51.87.38c-.07-.63-.15-1.26-.22-1.89zM1452.44 370l3.82-1.53.54 3.13.36.13q2-5.4 4.09-10.73l-6.52-2.58q-2.14 5.42-4.15 10.9z" fill="#222" opacity=".2"/><path opacity=".03" d="M1458.21 349.82l6.47 2.69 4.52-10.58-6.42-2.81-4.57 10.7z"/><path fill="#fff" d="M1466.49 330.77l6.39 2.87 4.77-10.5-6.38-2.92-4.78 10.55zM1443.06 420l-6.85-1.5q-1.24 5.71-2.32 11.46l6.89 1.29q1.05-5.68 2.28-11.25zM1438.31 409.43l6.8 1.67c.92-3.72 1.89-7.41 2.91-11.1l-6.75-1.88q-1.57 5.63-2.96 11.31zM1450.56 391.33q1.68-5.47 3.52-10.92l-6.63-2.25q-1.89 5.54-3.59 11.12z"/><path fill="#222" opacity=".2" d="M1426.82 492.3l6.99.34.68-11.47-6.99-.49-.68 11.62z"/><path d="M1428.24 471.46l7 .62q.49-5.73 1.15-11.43l-7-.79q-.64 5.79-1.15 11.6z" opacity=".03"/><path d="M1430.54 450.74l7 .94q.77-5.7 1.69-11.36l-6.92-1.13c-.68 3.81-1.24 7.69-1.77 11.55z" opacity=".1"/><path fill="#fff" d="M1426.98 554.95l7-.38-.5-11.48-6.18.2 2.79 9.22-3.2.4.09 2.04z"/><path fill="#222" opacity=".2" d="M1426.23 534.1l7-.13-.1-11.51-7.01.01.11 11.63z"/><path fill="#fff" d="M1426.17 513.31l7.01.09.26-11.5-7-.22-.27 11.63z"/><path d="M1441.4 615.94q-1.11-5.62-2.05-11.29l-6.91 1.15q.94 5.76 2.08 11.49z" fill="#222" opacity=".2"/><path d="M1438 595.65c-.55-3.79-1-7.58-1.47-11.38l-7 .8c.45 3.86.94 7.72 1.5 11.57z" opacity=".1"/><path fill="#222" opacity=".2" d="M1434.57 563.82l-6.99.51.98 11.61 6.97-.67-.96-11.45z"/><path d="M1458.3 675.32q-2-5.37-3.88-10.8l-6.63 2.27q1.89 5.52 4 11zM1448.29 644.88l-6.75 1.9q1.59 5.63 3.35 11.2l6.69-2.11q-1.74-5.46-3.29-10.99zM1446 636.16c-.22-.83-.39-1.67-.6-2.5l-.44 2.76z" opacity=".03"/><path d="M1443.48 636.79l-6.73-10.34-.3.07q1.26 5.7 2.71 11.37z" fill="#222" opacity=".2"/><path d="M1478.09 721.76l-6.38 2.91 4.8 10.5 4.38-2 .07-.06-2.28-3.07 2.68-1.13z" fill="#fff"/><path fill="#222" opacity=".2" d="M1472.88 710.26l-6.05 3.63 1.08 2.43 6.39-2.89-1.42-3.17z"/><path fill="#fff" d="M1463.18 705.73l2.64 5.89-1.05-6.59-1.59.7z"/><path fill="#222" opacity=".2" d="M1455.13 686.55l4.43 10.77 3.75-1.59-.04-.26.17.21 2.57-1.09-4.37-10.63-6.51 2.59z"/><path d="M1476.39 256.94c.93-2.76 1.81-5.54 2.68-8.32-.12-1-.25-2.09-.37-3.13l-5.44-1.67q-1.66 5.46-3.51 10.86z" opacity=".03"/><path d="M1476.93 230.85c-.38 1.43-.73 2.87-1.13 4.29l1.7.47z" fill="#222" opacity=".2"/><path opacity=".03" d="M1446.25 311.76l6.37 2.91 2.06-4.55.64-2.89.72-.09 1.36-3-6.39-2.87-4.76 10.49z"/><path fill="#fff" d="M1454.71 292.94l6.42 2.8 4.55-10.66-6.47-2.69-4.5 10.55z"/><path d="M1462.61 274l6.52 2.58q2.13-5.4 4.14-10.85l-6.58-2.41q-1.96 5.4-4.08 10.68z" opacity=".03"/><path d="M1424.15 362.8l5.76 4.57c.81-2.14 1.6-4.29 2.44-6.41l-6.52-2.58c-.58 1.46-1.12 2.95-1.68 4.42z" opacity=".1"/><path fill="#222" opacity=".2" d="M1429.31 349.82l6.47 2.69 4.52-10.58-6.42-2.81-4.57 10.7zM1437.59 330.77l6.39 2.87 4.77-10.5-6.38-2.92-4.78 10.55zM1405 429.92l6.89 1.29q1-5.64 2.28-11.25l-6.85-1.5q-1.25 5.71-2.32 11.46z"/><path d="M1409.41 409.43l6.81 1.67c.46-1.89 1-3.76 1.47-5.63l-.21-1.06.71-.86c.32-1.18.6-2.37.93-3.55l-6.75-1.88q-1.56 5.63-2.96 11.31zM1415 389.28l6.7 2.05q1.68-5.47 3.52-10.92l-6.63-2.25q-1.93 5.54-3.59 11.12zM1397.92 492.3l6.99.34.69-11.47-6.99-.49-.69 11.62z" fill="#fff"/><path d="M1399.34 471.46l7 .62c.33-3.82.73-7.63 1.15-11.43l-7-.79q-.64 5.79-1.15 11.6z" fill="#222" opacity=".2"/><path d="M1401.64 450.74l6.95.94q.77-5.7 1.69-11.36l-6.92-1.13c-.07.43-.12.85-.19 1.28l2.63 3.65-3.09-.52c-.36 2.4-.71 4.75-1.07 7.14zM1397.57 543.32l.51 11.63 7-.38-.5-11.48-7.01.23z" fill="#fff"/><path opacity=".1" d="M1397.33 534.1l7.01-.13-.11-11.51-7.01.01.11 11.63zM1397.27 513.31l7.01.09.26-11.5-7-.22-.27 11.63z"/><path d="M1403.54 605.8q.95 5.76 2.08 11.49l6.88-1.35q-1.11-5.62-2-11.29z" opacity=".03"/><path d="M1409.06 595.65q-.81-5.68-1.47-11.38l-7 .8c.45 3.86.94 7.72 1.5 11.57z" opacity=".1"/><path opacity=".03" d="M1406.63 575.27l-.96-11.45-6.99.51.98 11.61 6.97-.67z"/><path d="M1429.4 675.32q-2-5.37-3.88-10.8l-6.63 2.27q1.89 5.52 3.95 11zM1419.39 644.88l-6.75 1.9c.23.81.49 1.61.73 2.42l.84-2.78-.17 5c.64 2.18 1.27 4.36 2 6.53l6.69-2.11q-1.79-5.43-3.34-10.96z" fill="#fff"/><path d="M1417.05 636.16q-1.42-5.56-2.66-11.16l-6.84 1.52q1.26 5.7 2.71 11.37z" fill="#222" opacity=".2"/><path fill="#fff" d="M1449.19 721.76l-6.37 2.91 4.8 10.5 6.37-2.9-4.8-10.51z"/><path fill="#222" opacity=".2" d="M1445.4 713.43l-4.7-10.52-6.42 2.82 4.73 10.59 6.39-2.89z"/><path fill="#fff" d="M1434.74 688.81l-3.71 4.33-2.81-2.81 5.37-4.31-.85-2.06-6.51 2.59 4.43 10.77 6.45-2.73-2.37-5.78z"/><path d="M1451.44 743.63l4.63 10.51h.09l5.5-4.66-3.82-8.68zM1463.58 122.36h-1.88l-.27 11.46 3.6.12q-.72-5.8-1.45-11.58z" fill="#222" opacity=".2"/><path d="M1462.44 113.24c-.25-2-.5-3.93-.74-5.9l.06 5.9z" opacity=".03"/><path d="M1464.33 184.75l-6.95-.94q-.77 5.67-1.68 11.3l6.92 1.13q.93-5.73 1.71-11.49z" opacity=".1"/><path d="M1466.64 164.06l-7-.62c-.34 3.79-.73 7.59-1.15 11.37l7 .8q.64-5.78 1.15-11.55z" fill="#222" opacity=".2"/><path d="M1467.46 153.31c-.41-3.34-.84-6.69-1.25-10l-5.15-.26-.68 11.43 7 .5z" opacity=".03"/><path d="M1451.06 245.88l-6.7-2.06q-1.66 5.46-3.51 10.86l6.64 2.26c1.24-3.67 2.44-7.36 3.57-11.06zM1456.6 225.78l-6.8-1.67q-1.36 5.53-2.9 11l6.75 1.88q1.58-5.56 2.95-11.21zM1461 205.47l-6.89-1.29q-1 5.59-2.27 11.17l6.85 1.51q1.24-5.68 2.31-11.39zM1417.35 311.76l6.37 2.91 4.78-10.53-6.39-2.87-4.76 10.49zM1426.59 291.11l.22 2.26 5.42 2.37 4.55-10.66-6.47-2.69-3.72 8.72z" fill="#fff"/><path d="M1440.23 276.62q2.13-5.4 4.14-10.85l-6.58-2.41q-2 5.36-4.08 10.68z" opacity=".03"/><path d="M1392.78 369.28l6.58 2.41q2-5.4 4.09-10.73l-6.52-2.58q-2.14 5.42-4.15 10.9z" fill="#fff"/><path fill="#222" opacity=".2" d="M1411.4 341.93l-6.39-2.8-.14 4.07 1.4.94-4.32 2.07-1.54 3.61 6.47 2.69 4.52-10.58zM1408.69 330.77l6.4 2.87 4.76-10.5-6.38-2.92-4.78 10.55z"/><path d="M1385.26 420l-6.85-1.5q-1.25 5.71-2.32 11.46l6.89 1.29c.71-3.8 1.46-7.55 2.28-11.25z" fill="#fff"/><path d="M1380.51 409.43l6.81 1.67c.91-3.72 1.88-7.41 2.9-11.1l-6.74-1.88q-1.57 5.63-2.97 11.31z" fill="#222" opacity=".2"/><path d="M1386.06 389.28l3.06.94-1.69-5.2c-.43 1.42-.93 2.83-1.37 4.26z" fill="#fff"/><path d="M1390.51 390.64l2.25.69q1.68-5.47 3.52-10.92l-6.63-2.25z" opacity=".1"/><path opacity=".03" d="M1369.02 492.3l7 .34.68-11.47-6.99-.49-.69 11.62z"/><path d="M1370.44 471.46l7 .62c.33-3.82.73-7.63 1.16-11.43l-6.45-.74.5 3.36-1.22-1.37c-.37 3.18-.71 6.37-.99 9.56z" fill="#222" opacity=".2"/><path d="M1372.74 450.74l7 .94q.78-5.7 1.69-11.36l-6.92-1.13c-.68 3.81-1.24 7.69-1.77 11.55z" opacity=".03"/><path fill="#fff" d="M1376.18 554.57l-.5-11.48-5.45.18-1.15 9.26.11 2.42 6.99-.38z"/><path fill="#222" opacity=".2" d="M1368.43 534.1l1.48-.03 1.78-2.58-.31 2.55 4.06-.07-.11-11.51-7.01.01.11 11.63z"/><path fill="#fff" d="M1368.37 513.31l7.01.09.26-11.5-6.21-.2 1.33 5.49-2.21-1.55-.18 7.67z"/><path d="M1383.6 615.94q-1.11-5.62-2-11.29l-6.91 1.15q.94 5.76 2.08 11.49zM1380.16 595.65q-.81-5.68-1.47-11.38l-7 .8c.45 3.86.94 7.72 1.5 11.57z" fill="#222" opacity=".2"/><path opacity=".1" d="M1377.74 575.27l-.97-11.45-6.99.51.98 11.61 6.98-.67z"/><path d="M1393.94 677.78l6.56-2.46q-2-5.37-3.88-10.8l-6.62 2.27q1.88 5.52 3.94 10.99zM1383.74 646.78q1.59 5.63 3.35 11.2l6.69-2.11q-1.74-5.46-3.29-11z" fill="#fff"/><path d="M1387.05 636.44l.42-3.11c-.68-2.77-1.36-5.54-2-8.33l-6.84 1.52q1.26 5.7 2.71 11.37z" opacity=".03"/><path d="M1387.48 633.34l-.43 3.1 1.1-.28c-.24-.94-.44-1.88-.67-2.82z" opacity=".1"/><path fill="#222" opacity=".2" d="M1425.09 732.27l-4.8-10.51-6.37 2.91 4.8 10.5 6.37-2.9z"/><path fill="#fff" d="M1411.8 702.91l-2.83 1.24-2.49 4.03 3.63 8.14 6.39-2.89-4.7-10.52zM1408.21 694.59l-4.37-10.63-6.51 2.59 4.43 10.77 1.31-.56-.07-1.29 1.26.79 3.95-1.67zM1430.69 762.45l3.26 8.11 1.28-3.6.77 4.19 4.28-3.62-3.11-7.76z"/><path fill="#222" opacity=".2" d="M1428.94 740.76l-6.4 2.87 4.63 10.51 6.44-2.78-4.67-10.6z"/><path fill="#fff" d="M1439.81 122.43l-7.01-.1-.26 11.46 7 .23.27-11.59z"/><path opacity=".03" d="M1437.55 101.68l-4.8.09.11 11.47 7.01-.01-.04-4.35-2.28-7.2z"/><path d="M1435.43 184.75l-6.94-.94c-.52 3.78-1.07 7.55-1.68 11.3l6.91 1.13q.93-5.73 1.71-11.49zM1429.61 174.81l7 .8q.66-5.78 1.17-11.55l-7-.62c-.35 3.79-.78 7.56-1.17 11.37z" fill="#222" opacity=".2"/><path fill="#fff" d="M1431.48 154.45l6.99.5.69-11.58-7-.34-.68 11.42zM1422.17 245.88l-6.7-2.06c-1.11 3.64-2.29 7.26-3.51 10.86l6.63 2.26q1.88-5.5 3.58-11.06zM1427.71 225.78l-6.81-1.67q-1.37 5.53-2.89 11l6.75 1.88q1.56-5.56 2.95-11.21z"/><path d="M1432.1 205.47l-6.89-1.29q-1.05 5.59-2.27 11.17l6.85 1.51q1.21-5.68 2.31-11.39z" opacity=".03"/><path fill="#222" opacity=".2" d="M1394.83 314.67l4.77-10.53-6.39-2.87-4.76 10.49 6.38 2.91zM1403.33 295.74l4.56-10.66-6.47-2.69-4.51 10.55 6.42 2.8z"/><path d="M1404.82 274l6.51 2.58q2.14-5.4 4.14-10.85l-6.58-2.41q-1.97 5.4-4.07 10.68z" fill="#fff"/><path d="M1366.17 363.27l.85 7-.2.06 3.65 1.33q2-5.4 4.09-10.73l-6.52-2.58c-.64 1.65-1.24 3.29-1.87 4.92z" opacity=".1"/><path fill="#fff" d="M1371.52 349.82l6.47 2.69 4.52-10.58-6.42-2.81-4.57 10.7zM1379.79 330.77l6.4 2.87 4.76-10.5-6.37-2.92-4.79 10.55zM1356.36 420l-6.84-1.5q-1.24 5.71-2.33 11.46l6.89 1.29q1.07-5.68 2.28-11.25z"/><path d="M1351.62 409.43l6.8 1.67c.92-3.72 1.88-7.41 2.91-11.1l-6.75-1.88q-1.58 5.63-2.96 11.31z" fill="#222" opacity=".2"/><path d="M1357.16 389.28l5.87 1.8-2.55-10 2.39-2.17-2.12-.72q-1.87 5.51-3.59 11.09zM1366.09 384.44c.44-1.34.84-2.69 1.3-4l-1.57-.53z" opacity=".03"/><path fill="#222" opacity=".2" d="M1340.15 491.81l.07.49 6.9.34.68-11.47-6.99-.49-.66 11.13z"/><path d="M1341.55 471.46l7 .62q.49-5.73 1.15-11.43l-7-.79c-.42 3.86-.82 7.72-1.15 11.6zM1343.85 450.74l7 .94q.77-5.7 1.69-11.36l-6.92-1.13q-.99 5.76-1.77 11.55z" fill="#fff"/><path fill="#222" opacity=".2" d="M1347.29 554.57l-.51-11.48-7 .23.51 11.63 7-.38z"/><path fill="#fff" d="M1339.54 534.1l7.01-.13-.08-7.26-5.23-4.24h-1.82l.12 11.63z"/><path opacity=".1" d="M1339.59 508.58l7.11-4.68.05-2-7.01-.22-.15 6.9z"/><path d="M1354.7 615.94c-.73-3.75-1.42-7.51-2-11.29l-6.92 1.15q1 5.76 2.09 11.49zM1351.27 595.65c-.55-3.79-1-7.58-1.47-11.38l-7 .8q.68 5.79 1.5 11.57z" fill="#222" opacity=".2"/><path fill="#fff" d="M1348.84 575.27l-.96-11.45-6.99.51.41 4.94 1.89-.41-1.17 7.07 6.82-.66z"/><path d="M1367.73 664.52l-6.63 2.27q1.89 5.52 3.94 11l6.56-2.46q-2.01-5.33-3.87-10.81z" opacity=".1"/><path d="M1364.88 655.87q-1.73-5.46-3.28-11l-1.1.31-3 10.47c.23.77.45 1.55.69 2.32z" opacity=".03"/><path d="M1355 646.75h-.13v.11z" fill="#fff"/><path d="M1356.59 625l-6.84 1.52q1.27 5.7 2.71 11.37l6.79-1.73q-1.43-5.56-2.66-11.16z" fill="#222" opacity=".2"/><path fill="#fff" d="M1396.2 732.27l-4.8-10.51-6.38 2.91 4.8 10.5 6.38-2.9z"/><path fill="#222" opacity=".2" d="M1381.82 716.04l5.78-2.61-4.69-10.52-6.42 2.82 4.67 10.46.66-.15z"/><path opacity=".1" d="M1379.32 694.59l-4.38-10.63-6.51 2.59 4.43 10.77 6.46-2.73zM1418.21 786c-.78-2.29-1.55-4.58-2.37-6.85l-6.59 2.39c1.12 3.07 2.18 6.16 3.22 9.26z"/><path fill="#fff" d="M1407.67 762.75l-1.59-2.07-4.28 1.77.64 1.61 5.23-1.31z"/><path fill="#222" opacity=".2" d="M1410.06 771.52l-6.42-4.49 2.42 6.04 4-1.55z"/><path fill="#fff" d="M1404.71 751.36l-4.67-10.6-6.4 2.87 4.64 10.51 6.43-2.78zM1403.91 122.33l-.13 5.42 6.22 1.94-2.69-7.31-3.4-.05z"/><path fill="#222" opacity=".2" d="M1403.64 133.79l.74.03-.68-2.38-.06 2.35z"/><path fill="#fff" d="M1410.64 134.02l.1-3.99-1.03 3.96.93.03zM1403.85 101.77l.12 11.47 7-.01-.11-11.59-7.01.13zM1403 196l1.82.29q.93-5.73 1.71-11.49l-6.13-.83z"/><path d="M1400.72 174.81l7 .8q.66-5.78 1.17-11.55l-7-.62c-.36 3.79-.74 7.56-1.17 11.37z" fill="#222" opacity=".2"/><path opacity=".1" d="M1402.59 154.45l6.99.5.69-11.58-2.94-.15-.13.49-.14-.5-3.79-.18-.68 11.42z"/><path d="M1388.8 244.51l-2.23-.69q-1.66 5.46-3.51 10.86l4.6 1.56zM1390.06 231.53c-.32 1.2-.61 2.41-1 3.61l.58.16z" fill="#fff"/><path fill="#222" opacity=".2" d="M1359.56 311.76l6.37 2.91 4.78-10.53-6.39-2.87-4.76 10.49zM1368.02 292.94l6.42 2.8 4.55-10.66-6.46-2.69-4.51 10.55zM1382.44 276.62c1.42-3.6 2.81-7.21 4.14-10.85l-6.58-2.41q-2 5.36-4.08 10.68zM1341.57 371.69q2-5.4 4.09-10.73l-6.52-2.58c-.94 2.39-1.84 4.8-2.74 7.21l2.12-.9-3.52 4.61z"/><path opacity=".1" d="M1353.61 341.93l-6.42-2.81-4.57 10.7 6.47 2.69 4.52-10.58zM1350.9 330.77l6.4 2.87 4.76-10.5-6.38-2.92-4.78 10.55z"/><path d="M1318.3 429.92l6.89 1.29c.71-3.76 1.46-7.51 2.28-11.25l-6.85-1.5q-1.24 5.71-2.32 11.46zM1332.43 400l-6.74-1.88q-1.57 5.63-3 11.31l6.81 1.67c.94-3.72 1.91-7.41 2.93-11.1zM1328.27 389.28l6.7 2.05q1.68-5.47 3.52-10.92l-6.63-2.25q-1.86 5.54-3.59 11.12z" fill="#222" opacity=".2"/><path fill="#fff" d="M1311.46 488.4l6.04-6.9-.4 11.09 1.13.05.68-11.47-6.99-.49-.46 7.72z"/><path d="M1312.65 471.46l7 .62c.33-3.82.73-7.63 1.16-11.43l-7-.79c-.42 3.86-.81 7.72-1.16 11.6z" opacity=".1"/><path d="M1315 450.74l6.94.94q.78-5.7 1.69-11.36l-6.91-1.13q-.98 5.76-1.72 11.55z" fill="#fff"/><path fill="#222" opacity=".2" d="M1310.89 543.32l.51 11.63 7-.38-.51-11.48-7 .23zM1310.64 534.1l7.01-.13-.11-11.51-7.01.01.11 11.63z"/><path opacity=".03" d="M1310.59 513.31l7 .09.26-11.5-1.08-.03-.1 2.75.36.24-.47 2.8.11-3.04-4.33-2.9-1.49-.04-.26 11.63z"/><path d="M1325.81 615.94c-.73-3.75-1.42-7.51-2-11.29l-6.92 1.15q.95 5.76 2.08 11.49zM1322.37 595.65q-.81-5.68-1.47-11.38l-7 .8c.45 3.86.94 7.72 1.5 11.57z" opacity=".1"/><path opacity=".03" d="M1318.98 563.82l-6.99.51.98 11.61 6.98-.67-.97-11.45z"/><path d="M1338.84 664.52l-6.63 2.27c.74 2.16 1.53 4.3 2.31 6.45l2.13-4.86-2 5.16c.51 1.41 1 2.83 1.52 4.24l6.56-2.46q-2.03-5.32-3.89-10.8z" fill="#fff"/><path d="M1336 655.87q-1.74-5.46-3.29-11l-6.74 1.9q1.57 5.63 3.34 11.2z" fill="#222" opacity=".2"/><path d="M1330.36 636.16q-1.42-5.56-2.66-11.16l-6.84 1.52q1.26 5.7 2.71 11.37z" fill="#fff"/><path opacity=".03" d="M1367.3 732.27l-4.8-10.51-6.37 2.91 4.8 10.5 6.37-2.9z"/><path fill="#222" opacity=".2" d="M1358.71 713.43l-4.7-10.52-.53.23.22 6.6.04 1.31.15 4.55 4.82-2.17z"/><path opacity=".03" d="M1350.07 704.64l-2.47 1.09 4.72 10.59 1.24-.56-1.14-3.65-.51-1.6-1.84-5.87z"/><path fill="#fff" d="M1346.05 683.96l-6.51 2.59 4.43 10.77 3.36-1.42-.87-2.76 2.66-1.71-3.07-7.47z"/><path d="M1384.1 792.35l6.65-2.2q-1.82-5.53-3.81-11l-3.4 1.23 1.15 5.74.55.44v2.33l-.55-2.77-3.79-3c1.1 3.07 2.18 6.14 3.2 9.23z" fill="#222" opacity=".2"/><path opacity=".03" d="M1381.51 770.23l.21 1.08 1.98-.77-4.32-10.77-6.48 2.68 4.15 10.32 4.46-2.54z"/><path fill="#fff" d="M1371.15 740.76l-6.4 2.87 4.63 10.51 6.44-2.78-4.67-10.6z"/><path d="M1395.3 805.09c-.57-2-1.11-4-1.71-6l-6.71 2c.89 2.94 1.72 5.9 2.53 8.86q2.96-2.41 5.89-4.86z" opacity=".03"/><path fill="#222" opacity=".2" d="M1382.02 122.43l-7.01-.1-.27 11.46 7.01.23.27-11.59z"/><path opacity=".03" d="M1374.95 101.77l.12 11.47 7.01-.01-.12-11.59-7.01.13z"/><path d="M1373.71 195.88l-4.17-4.3c-.18 1.17-.34 2.36-.53 3.53z" opacity=".1"/><path d="M1377.64 184.75l-6.94-.94c-.35 2.51-.74 5-1.12 7.51l6.35 4.89c.62-3.82 1.19-7.63 1.71-11.46zM1371.82 174.81l7 .8q.66-5.78 1.17-11.55l-7-.62c-.35 3.79-.74 7.56-1.17 11.37z" opacity=".03"/><path fill="#222" opacity=".2" d="M1373.69 154.45l5.08.36-2.87-4.09 4.4-1.01.98-4.88.09-1.46-7-.34-.68 11.42z"/><path fill="#222" opacity=".2" d="M1380.68 154.95l.32-5.39-.7.15-1.02 5.14 1.4.1zM1364.37 245.88l-6.7-2.06q-1.67 5.46-3.5 10.86l6.63 2.26q1.88-5.5 3.57-11.06zM1369.92 225.78l-6.81-1.67q-1.36 5.53-2.89 11L1367 237q1.54-5.57 2.92-11.22z"/><path d="M1374.3 205.47l-6.88-1.29c-.71 3.73-1.46 7.46-2.28 11.17l6.85 1.51q1.25-5.68 2.31-11.39zM1330.66 311.76l6.37 2.91 4.78-10.53-6.39-2.87-4.76 10.49z" fill="#fff"/><path opacity=".1" d="M1343.63 282.39l-4.51 10.55 6.42 2.8 4.56-10.66-6.47-2.69z"/><path d="M1347 274l6.51 2.58c1.42-3.6 2.81-7.21 4.14-10.85l-6.58-2.41q-1.93 5.4-4.07 10.68zM1306.09 369.28l6.58 2.41q2-5.4 4.09-10.73l-6.52-2.58q-2.15 5.42-4.15 10.9z" fill="#fff"/><path opacity=".1" d="M1313.72 349.82l6.47 2.69 4.52-10.58-6.41-2.81-4.58 10.7z"/><path fill="#fff" d="M1326.79 320.22l-2.99 6.58 5.72-1.35-1.35-4.59-1.38-.64z"/><path fill="#222" opacity=".2" d="M1322 330.77l6.4 2.87.02-.05-4.72-6.56-1.7 3.74zM1330.2 321.79l1.31 3.19-1.99.47 1.02 3.47 2.62-5.78-2.96-1.35z"/><path d="M1298.57 420l-6.85-1.5q-1.24 5.71-2.32 11.46l6.89 1.29c.71-3.8 1.46-7.55 2.28-11.25z" opacity=".03"/><path d="M1293.82 409.43l6.81 1.67c.91-3.72 1.88-7.41 2.91-11.1l-6.75-1.88q-1.57 5.63-2.97 11.31z" fill="#222" opacity=".2"/><path d="M1299.37 389.28l1.25.38-.85-1.63c-.13.42-.27.83-.4 1.25z" opacity=".1"/><path d="M1300.2 386.72l5.81 4.59h.06q1.68-5.47 3.52-10.92l-6.63-2.25c-.96 2.86-1.87 5.72-2.76 8.58z" fill="#222" opacity=".2"/><path opacity=".1" d="M1282.33 492.3l7 .34.68-11.47-6.99-.49-.69 11.62z"/><path d="M1283.75 471.46l7 .62q.51-5.73 1.16-11.43l-7-.79c-.26 2.29-.46 4.6-.69 6.9l2-.22-2 .8c-.22 1.37-.35 2.74-.47 4.12z" fill="#222" opacity=".2"/><path d="M1286.06 450.74l7 .94q.77-5.7 1.68-11.36l-6.91-1.13q-.99 5.76-1.77 11.55z" opacity=".03"/><path fill="#fff" d="M1289.5 554.57l-.51-11.48-7 .23.51 11.63 7-.38zM1281.74 534.1l7.01-.13-.11-11.51-7.01.01.11 11.63z"/><path opacity=".03" d="M1281.7 512.48l-.01.83 7 .09.26-11.5-6.38-.2 5.96 5.96v3.27l-6.83 1.55z"/><path d="M1296.91 615.94c-.22-1.14-.41-2.28-.62-3.43l-.28.27v-1.69c-.39-2.14-.81-4.28-1.16-6.44l-6.85 1.15q.94 5.76 2.09 11.49z" fill="#222" opacity=".2"/><path d="M1293.48 595.65q-.82-5.68-1.48-11.38l-7 .8c.45 3.86.94 7.72 1.5 11.57z" opacity=".03"/><path fill="#222" opacity=".2" d="M1291.05 575.27l-.96-11.45-6.99.51.97 11.61 6.98-.67z"/><path d="M1313.81 675.32q-2-5.37-3.87-10.8l-6.63 2.27q1.89 5.52 3.94 11z" fill="#fff"/><path d="M1307.09 655.87q-1.72-5.46-3.29-11l-2.45.69-3.15 5c.73 2.46 1.43 4.92 2.21 7.36z" opacity=".1"/><path d="M1301.22 635.14c-.85-3.37-1.67-6.75-2.42-10.14l-6.84 1.52q1.26 5.7 2.71 11.37l.78-.2 1.49-9.49-.93 6.07zM1332.03 735.17l6.37-2.9-4.8-10.51-6.36 2.91 3.34 4.44-1.19.29 2.64 5.77z" fill="#222" opacity=".2"/><path fill="#fff" d="M1329.81 713.43l-4.7-10.52-6.41 2.82 3.48 7.79-.94-7.3 6.2 8.28 2.37-1.07z"/><path opacity=".1" d="M1317.15 683.96l-6.51 2.59 4.43 10.77 6.46-2.73-4.38-10.63z"/><path d="M1358 779.17l-6.58 2.39q1.77 4.88 3.4 9.8l1.42-3.38-1.32 3.68c.08.23.17.45.24.69l6.65-2.2q-1.81-5.53-3.81-10.98z" fill="#222" opacity=".2"/><path opacity=".1" d="M1344.01 762.45l.18.47.51-.76-.69.29z"/><path fill="#222" opacity=".2" d="M1350.48 759.77l-5.18 2.15-1.01 1.24 3.98 9.91 6.54-2.53-4.33-10.77zM1342.25 740.76l-6.4 2.87 4.63 10.51 6.44-2.78-4.67-10.6zM1358 801.11q1.65 5.46 3.13 11l6.77-1.82q-1.5-5.62-3.19-11.18z"/><path opacity=".03" d="M1352.85 134.02l.14-6.38-2.27 6.31 2.13.07zM1345.84 133.79l4.61.15 2.64-10.22.03-1.29-7.01-.1-.27 11.46z"/><path fill="#222" opacity=".2" d="M1346.05 101.77l.12 11.47 7.01-.01-.12-11.59-7.01.13z"/><path d="M1347 196.24q.93-5.73 1.71-11.49l-6.94-.94q-.78 5.67-1.69 11.3z" opacity=".03"/><path d="M1342.92 174.81l7 .8c.37-3.25.69-6.51 1-9.76v-1.81l-6.77-.6c-.41 3.79-.8 7.56-1.23 11.37z" opacity=".1"/><path fill="#fff" d="M1344.79 154.45l5.89.42-.01-.42.32.44.79.06.69-11.58-7-.34-.68 11.42z"/><path d="M1335.47 245.88l-6.69-2.06q-1.68 5.46-3.51 10.86l6.63 2.26q1.88-5.5 3.57-11.06z" opacity=".03"/><path d="M1341 225.78l-6.81-1.67q-1.37 5.53-2.89 11l6.75 1.88q1.58-5.56 2.95-11.21z" fill="#222" opacity=".2"/><path d="M1341.33 214.26l.93-1.87h1.74c.47-2.31 1-4.61 1.41-6.92l-6.89-1.29c-.71 3.73-1.46 7.46-2.28 11.17l5.94 1.31z" opacity=".1"/><path fill="#222" opacity=".2" d="M1301.76 311.76l6.37 2.91 4.78-10.53-6.39-2.87-4.76 10.49zM1310.22 292.94l6.42 2.8 4.56-10.66-6.47-2.69-4.51 10.55z"/><path d="M1324.64 276.62q2.14-5.4 4.14-10.85l-6.58-2.41q-2 5.36-4.07 10.68zM1279 364.57l.32 5.49 4.47 1.63q2-5.4 4.08-10.73l-6.52-2.58c-.82 2.05-1.58 4.12-2.35 6.19z" fill="#fff"/><path opacity=".03" d="M1284.82 349.82l6.47 2.69 4.53-10.58-6.42-2.81-4.58 10.7z"/><path fill="#222" opacity=".2" d="M1293.1 330.77l6.4 2.87 4.76-10.5-6.37-2.92-4.79 10.55zM1260.5 429.92l6.89 1.29q1.06-5.64 2.28-11.25l-6.85-1.5q-1.24 5.71-2.32 11.46z"/><path d="M1264.92 409.43l6.81 1.67c.91-3.72 1.88-7.41 2.91-11.1l-6.75-1.88q-1.58 5.63-2.97 11.31zM1270.47 389.28l6.7 2.05q1.68-5.47 3.53-10.92l-6.64-2.25q-1.87 5.54-3.59 11.12zM1260.03 489.9l.28 2.74h.12l.68-11.47-4.2-.3 2.44 9.3.52-.2.16-.07z" fill="#fff"/><path fill="#222" opacity=".2" d="M1259.99 492.62l-.22-.83-.42-1.62-5.49 2.15 6.13.3z"/><path d="M1263 460.65l-7-.79q-.66 5.79-1.18 11.6l7 .62q.52-5.73 1.18-11.43zM1257.16 450.74l6.95.94q.77-5.7 1.68-11.36l-6.37-1 2.95 6.71-4.63.84c-.19 1.26-.4 2.56-.58 3.87z" fill="#fff"/><path opacity=".1" d="M1260.6 554.57l-.51-11.48-6.75.22-.2 1.11.46 10.53 7-.38z"/><path fill="#222" opacity=".2" d="M1252.85 534.1l2.19-.04 2.13-11.59h-4.44l.12 11.63z"/><path opacity=".1" d="M1257.28 522.47l1.88 11.51.69-.01-.11-11.51-2.46.01z"/><path fill="#fff" d="M1252.79 513.31l7.01.09.26-11.5-7.01-.22-.26 11.63z"/><path d="M1268 615.94c0-.26-.09-.52-.14-.78l-3.92-10.16-4.88.81q.95 5.76 2.08 11.49zM1264.58 595.65c-.55-3.79-1-7.58-1.48-11.38l-7 .8c.45 3.86.94 7.72 1.5 11.57zM1262.15 575.27l-.96-11.45-6.99.51.97 11.61 6.98-.67z" opacity=".1"/><path d="M1281 664.52l-6.63 2.27q1.89 5.52 3.94 11l6.56-2.46q-1.97-5.33-3.87-10.81zM1278.19 655.87q-1.73-5.46-3.28-11l-6.75 1.9q1.59 5.63 3.35 11.2z" opacity=".03"/><path d="M1272.56 636.16q-1.43-5.56-2.66-11.16l-6.84 1.52c.85 3.8 1.74 7.59 2.71 11.37zM1309.5 732.27l-4.8-10.51-6.37 2.91 4.8 10.5 6.37-2.9zM1300.91 713.43l-4.7-10.52-1.36.6 1.16 9.25-2.42-8.7-3.79 1.67 4.73 10.59 6.38-2.89z" fill="#222" opacity=".2"/><path opacity=".1" d="M1291.13 695.22l-2.13-7.69.65-.16-1.4-3.41-6.51 2.59 4.43 10.77 4.96-2.1z"/><path d="M1329.15 779.17l-6 2.16-.07 1.87c1.09 3 2.16 6.08 3.17 9.15l6.65-2.2q-1.76-5.53-3.75-10.98z" opacity=".03"/><path fill="#fff" d="M1325.91 770.54l-2.12-5.27-.23 6.18 2.35-.91z"/><path fill="#222" opacity=".2" d="M1321.58 759.77l-6.47 2.68 4.26 10.62 2.46-.95 1.36-8.35-1.61-4z"/><path opacity=".03" d="M1313.35 740.76l-6.4 2.87 4.63 10.51 6.44-2.78-4.67-10.6z"/><path d="M1329.08 801.11q1.65 5.46 3.14 11l6.76-1.82q-1.5-5.62-3.19-11.18z" fill="#fff"/><path fill="#222" opacity=".2" d="M1324.22 122.43l-7.01-.1-.27 11.46 7.01.23.27-11.59zM1317.15 101.77l.12 11.47 7.01-.01-.12-11.59-7.01.13z"/><path d="M1318.15 196.09l-3.46-2.86 3.71 1.2c.51-3.22 1-6.45 1.44-9.68l-6.94-.94c-.52 3.78-1.07 7.55-1.69 11.3l6.92 1.13a.77.77 0 00.02-.15zM1314 174.81l7 .8q.66-5.78 1.17-11.55l-7-.62c-.33 3.79-.72 7.56-1.17 11.37zM1315.89 154.45l6.99.5.43-7.18-3.01-.79 1.7-3.69-5.43-.26-.68 11.42z" opacity=".03"/><path d="M1306.57 245.88l-6.69-2.06q-1.68 5.46-3.51 10.86l6.63 2.26q1.88-5.5 3.57-11.06z" fill="#222" opacity=".2"/><path d="M1312.12 225.78l-6.81-1.67q-1.36 5.53-2.89 11l6.75 1.88q1.56-5.56 2.95-11.21zM1316.51 205.47l-6.89-1.29q-1.06 5.59-2.27 11.17l6.84 1.51q1.25-5.68 2.32-11.39z" fill="#fff"/><path fill="#222" opacity=".2" d="M1272.86 311.76l6.38 2.91 4.77-10.53-6.39-2.87-4.76 10.49z"/><path fill="#fff" d="M1281.32 292.94l6.42 2.8 4.56-10.66-6.47-2.69-4.51 10.55z"/><path d="M1295.74 276.62q2.15-5.4 4.14-10.85l-6.58-2.41q-2 5.36-4.07 10.68z" fill="#222" opacity=".2"/><path d="M1248.29 369.28l6.59 2.41q2-5.4 4.08-10.73l-6.52-2.58q-2.13 5.42-4.15 10.9z" opacity=".1"/><path opacity=".03" d="M1259.97 340.36l4.27 2.38-5.06-.54-3.25 7.62 6.47 2.69 4.52-10.58-6.42-2.81-.53 1.24z"/><path fill="#fff" d="M1264.2 330.77l6.4 2.87 4.76-10.5-6.37-2.92-4.79 10.55zM1231.6 429.92l6.89 1.29q1.07-5.64 2.28-11.25l-6.84-1.5q-1.26 5.71-2.33 11.46z"/><path d="M1236.49 407.65l1.12.49-1.08 1.41 6.3 1.55c.91-3.72 1.88-7.41 2.91-11.1l-6.75-1.88c-.88 3.16-1.7 6.34-2.5 9.53z" fill="#222" opacity=".2"/><path d="M1241.57 389.28l6.7 2.05c.67-2.17 1.4-4.33 2.1-6.5l-1.08-1 1.18.68c.45-1.37.86-2.75 1.33-4.12l-6.64-2.25q-1.87 5.56-3.59 11.14z" opacity=".1"/><path fill="#fff" d="M1224.53 492.3l7 .34.68-11.47-6.99-.49-.69 11.62z"/><path d="M1234.09 460.65l-.69-.08.64.6c.02-.17.03-.35.05-.52z" opacity=".03"/><path d="M1226 471.46l7 .62c.27-3.16.61-6.31 1-9.46l-7.19 1.43c-.37 2.47-.64 4.95-.81 7.41zM1236.9 440.32l-6.92-1.13q-.95 5.76-1.72 11.55l7 .94q.74-5.68 1.64-11.36z" fill="#fff"/><path fill="#222" opacity=".2" d="M1231.19 543.09l-7 .23.51 11.63 7-.38-.51-11.48z"/><path fill="#fff" d="M1223.95 534.1l7-.13-.02-2.32-4.51-9.18h-2.59l.12 11.63z"/><path fill="#222" opacity=".2" d="M1223.96 510.09l1.97.84 5.08-2.64.14-6.39-7-.22-.19 8.41z"/><path d="M1239.11 615.94c-.73-3.75-1.42-7.51-2-11.29l-6.91 1.15q.94 5.76 2.08 11.49z" opacity=".1"/><path d="M1235.68 595.65c-.55-3.79-1-7.58-1.48-11.38l-7 .8q.66 5.79 1.49 11.57zM1228.55 575.72l4.7-.45-.96-11.45-6.99.51.46 5.45 2.79 5.94z" fill="#222" opacity=".2"/><path d="M1252.14 664.52l-6.63 2.27q1.89 5.52 3.94 11l6.56-2.46q-2.01-5.33-3.87-10.81z" opacity=".1"/><path d="M1249.29 655.87q-1.72-5.46-3.28-11l-3.44 1-.29 3.37-1.59-2.84-1.43.4q1.59 5.63 3.35 11.2z" fill="#222" opacity=".2"/><path d="M1243.66 636.16q-1.42-5.56-2.66-11.16l-6.84 1.52c.85 3.8 1.74 7.59 2.71 11.37z" fill="#fff"/><path opacity=".03" d="M1280.6 732.27l-4.79-10.51-6.38 2.91 4.8 10.5 6.37-2.9z"/><path fill="#222" opacity=".2" d="M1270.22 709.41l-2.91-6.5-6.41 2.82 3.81 8.54 5.51-4.86zM1270.54 710.14l-3.05 5.33 4.52-2.04-1.47-3.29zM1263.73 694.59l-4.38-10.63-6.51 2.59 4.43 10.77 6.46-2.73zM1300.25 779.17l-6.59 2.39q2 5.37 3.74 10.79l6.66-2.2q-1.83-5.53-3.81-10.98z"/><path opacity=".1" d="M1292.68 759.77l-6.47 2.68 4.26 10.62 6.54-2.53-4.33-10.77z"/><path fill="#222" opacity=".2" d="M1284.45 740.76l-6.4 2.87 4.63 10.51 6.44-2.78-4.67-10.6z"/><path d="M1306.89 799.08l-6.71 2q1.66 5.46 3.14 11l6.76-1.82q-1.5-5.62-3.19-11.18zM1295.32 122.43l-7-.1-.27 11.46 7 .23.27-11.59z" opacity=".03"/><path fill="#222" opacity=".2" d="M1288.27 101.77l.1 11.47 7.01-.01-.11-11.59-7 .13z"/><path d="M1291 184.75l-7-.94q-.76 5.67-1.68 11.3l6.92 1.13q.93-5.73 1.76-11.49zM1285.13 174.81l7 .8q.66-5.78 1.17-11.55l-7-.62c-.36 3.79-.75 7.56-1.17 11.37zM1287 154.45l6.99.5.68-11.58-6.99-.34-.68 11.42zM1277.68 245.88l-5.35-1.64-1.81 1c-1 3.16-2 6.3-3 9.43l6.64 2.26c1.19-3.66 2.39-7.35 3.52-11.05z" fill="#fff"/><path d="M1273.52 235.14l6.75 1.88q1.57-5.6 3-11.24l-6.8-1.67q-1.42 5.54-2.95 11.03z" opacity=".03"/><path d="M1287.61 205.47l-6.89-1.29q-1 5.59-2.27 11.17l6.85 1.51q1.25-5.68 2.31-11.39z" fill="#222" opacity=".2"/><path opacity=".03" d="M1243.97 311.76l6.37 2.91 4.78-10.53-6.39-2.87-4.76 10.49z"/><path fill="#fff" d="M1252.43 292.94l6.42 2.8 4.55-10.66-6.46-2.69-4.51 10.55z"/><path d="M1266.85 276.62q2.13-5.4 4.14-10.85l-6.58-2.41q-2 5.36-4.08 10.68zM1219.4 369.28l6.58 2.41q2-5.4 4.09-10.73l-6.52-2.58q-2.15 5.42-4.15 10.9z" opacity=".1"/><path opacity=".03" d="M1227.03 349.82l6.47 2.69 4.52-10.58-6.42-2.81-4.57 10.7z"/><path opacity=".1" d="M1235.31 330.77l6.39 2.87 4.77-10.5-6.38-2.92-4.78 10.55z"/><path d="M1202.71 429.92l6.89 1.29c.71-3.76 1.46-7.51 2.28-11.25l-6.85-1.5q-1.24 5.71-2.32 11.46zM1216.84 400l-6.74-1.88q-1.57 5.63-3 11.31l6.81 1.67c.94-3.72 1.91-7.41 2.93-11.1zM1216.27 378.16q-1.89 5.54-3.59 11.12l6.7 2.05q1.68-5.47 3.52-10.92z" fill="#222" opacity=".2"/><path fill="#fff" d="M1195.64 492.3l2.81.14 3.57-7.51-.02-.14-1.77.44.48-4.25-4.38-.3-.69 11.62z"/><path fill="#fff" d="M1202.02 484.93l.82 4.25.37-6.2-1.58-.08.37 1.89.1-.03-.08.17z"/><path d="M1197.06 471.46l4.69.41.82-7.19 1.77 4.43c.27-2.82.54-5.64.85-8.46l-7-.79q-.62 5.79-1.13 11.6z" opacity=".03"/><path d="M1199.36 450.74l.86.11-.52-2.35c-.11.74-.23 1.5-.34 2.24zM1200.47 443.32l.18 7.59 5.66.77q.76-5.7 1.69-11.36l-6.92-1.13c-.22 1.37-.4 2.75-.61 4.13z" fill="#fff"/><path fill="#222" opacity=".2" d="M1195.29 543.32l.52 11.63 4.65-.25 1.84-11.47v-.14l-7.01.23zM1195.05 534.1l7.01-.13-.11-11.51-7.01.01.11 11.63zM1194.99 513.31l7.01.09.26-11.5-7-.22-.27 11.63z"/><path d="M1210.22 615.94q-1.11-5.62-2-11.29l-6.91 1.15q.95 5.76 2.08 11.49z" fill="#fff"/><path d="M1206.78 595.65c-.54-3.79-1-7.58-1.47-11.38l-7 .8c.45 3.86.94 7.72 1.5 11.57z" opacity=".03"/><path fill="#fff" d="M1198.93 564.14l-2.53.19.86 10.2 1.67-10.39zM1204.36 575.27l-.93-10.95-3.17 11.34 4.1-.39zM1223.24 664.52l-1.81.62-.43 12.47 6.12-2.29q-2.01-5.32-3.88-10.8z"/><path d="M1219.06 666l-2.45.84c.4 1.14.83 2.27 1.23 3.41z" fill="#222" opacity=".2"/><path d="M1217.11 644.88l-6.75 1.9q1.59 5.63 3.35 11.2l6.69-2.11q-1.74-5.46-3.29-10.99z" opacity=".03"/><path d="M1212.11 625l-6.84 1.52q1.26 5.7 2.71 11.37l6.79-1.73q-1.43-5.56-2.66-11.16zM1251.71 732.27l-4.8-10.51-6.37 2.91 4.8 10.5 6.37-2.9z" fill="#222" opacity=".2"/><path opacity=".1" d="M1243.11 713.43l-4.69-10.52-6.42 2.82 4.73 10.59 6.38-2.89z"/><path fill="#fff" d="M1234.83 694.59l-4.37-10.63-6.51 2.59 4.43 10.77 6.45-2.73zM1271.35 779.17l-6.59 2.39q2 5.37 3.75 10.79l6.65-2.2c-1.16-3.69-2.49-7.35-3.81-10.98zM1263.79 759.77l-6.48 2.68.98 2.43 4.13 3.16-.99-2.95 1.41 3.27-.42-.32 1.39 4.17 4.3-1.67-4.32-10.77zM1255.56 740.76l-6.4 2.87 4.63 10.51 6.43-2.78-4.66-10.6z"/><path d="M1279.19 809.94l1.6-1.06c-.89-3.28-1.81-6.55-2.8-9.8l-6.7 2q1.65 5.46 3.13 11l6.77-1.82-.18-.63z" fill="#222" opacity=".2"/><path fill="#fff" d="M1261.75 122.43l-7.01-.1-.26 11.46 7 .23.27-11.59zM1254.69 101.77l.11 11.47 7.01-.01-.11-11.59-7.01.13zM1257.38 184.75l-7-.94q-.77 5.67-1.68 11.3l6.92 1.13q.98-5.73 1.76-11.49zM1251.55 174.81l7 .8c.43-3.85.83-7.7 1.17-11.55l-7-.62c-.35 3.79-.72 7.56-1.17 11.37z"/><path fill="#222" opacity=".2" d="M1253.42 154.45l6.99.5.69-11.58-6.99-.34-.69 11.42z"/><path d="M1244.11 245.88l-6.7-2.06q-1.67 5.46-3.51 10.86l6.64 2.26c1.24-3.67 2.46-7.36 3.57-11.06z" opacity=".03"/><path d="M1249.65 225.78l-6.81-1.67q-1.35 5.53-2.89 11l6.75 1.88q1.56-5.56 2.95-11.21zM1254 205.47l-6.89-1.29q-1.05 5.59-2.27 11.17l6.85 1.51c.86-3.79 1.64-7.58 2.31-11.39z" fill="#fff"/><path opacity=".03" d="M1210.4 311.76l6.37 2.91 4.78-10.53-6.4-2.87-4.75 10.49z"/><path fill="#fff" d="M1229.83 285.08l-6.46-2.69-4.51 10.55 6.42 2.8 4.55-10.66zM1236.07 269.29l-5.83-4.38c-1.13 3-2.28 6.1-3.48 9.13l6.52 2.58c.96-2.43 1.87-4.88 2.79-7.33z"/><path d="M1185.83 369.28l6.58 2.41q2-5.4 4.09-10.73l-6.52-2.58q-2.14 5.42-4.15 10.9z" opacity=".03"/><path fill="#fff" d="M1193.46 349.82l6.47 2.69 4.52-10.58-6.42-2.81-4.57 10.7zM1201.74 330.77l6.39 2.87 4.77-10.5-6.38-2.92-4.78 10.55z"/><path d="M1171.79 418.54l-.33-.08q-1.24 5.71-2.32 11.46l6.89 1.29q1-5.64 2.28-11.25l-1.52-.33-5.06 2.53z" fill="#222" opacity=".2"/><path d="M1175 404l2 6.26 3.34.82c.91-3.72 1.88-7.41 2.9-11.1l-6.75-1.88c-.49 1.98-1 3.95-1.49 5.9z" opacity=".03"/><path d="M1185.81 391.33q1.68-5.47 3.52-10.92l-6.63-2.25q-1.89 5.54-3.59 11.12z" fill="#222" opacity=".2"/><path fill="#fff" d="M1162.07 492.3l6.99.34.68-11.47-6.99-.49-.68 11.62zM1163.49 471.46l7 .62c.2-2.29.45-4.57.69-6.86l-1.3-2 .81-.22.73-.2c.08-.73.14-1.47.22-2.2l-7-.79q-.64 5.84-1.15 11.65zM1167.51 439.19c-.63 3.84-1.19 7.69-1.72 11.55l6.28.84-.34-8.86 1.87 3.15c.28-1.85.53-3.7.83-5.55zM1166.59 547.84l2.21 6.76.43-.03-.5-11.48-7.01.23.51 11.63 3.77-.2.59-6.91z"/><path fill="#222" opacity=".2" d="M1161.48 534.1l7.01-.13-.11-11.51-7.01.01.11 11.63z"/><path opacity=".03" d="M1161.42 513.31l7.01.09.26-11.5-7-.22-.27 11.63z"/><path d="M1174.6 604.65l-6.91 1.15q.94 5.76 2.08 11.49l6.88-1.35q-1.11-5.62-2.05-11.29z" fill="#fff"/><path d="M1173.21 595.65c-.55-3.79-1-7.58-1.47-11.38l-4.63.53-1.38 7.66c.19 1.39.34 2.79.55 4.18z" fill="#222" opacity=".2"/><path fill="#fff" d="M1164.18 575.9l1.01-11.74-2.36.17.98 11.61.37-.04z"/><path fill="#222" opacity=".2" d="M1170.79 575.27l-.3-3.47-1.1.33-.59 3.33 1.99-.19z"/><path d="M1193.55 675.32q-2-5.37-3.88-10.8l-6.63 2.27q1.89 5.52 4 11zM1186.83 655.87q-1.74-5.46-3.29-11l-.52.15-3.35 4.66.68-3.91-3.56 1q1.59 5.63 3.35 11.2z" opacity=".1"/><path d="M1181.2 636.16q-1.42-5.56-2.66-11.16l-6.84 1.52q1.26 5.7 2.71 11.37z" opacity=".03"/><path fill="#fff" d="M1213.34 721.76l-6.38 2.91 4.81 10.5 6.37-2.9-4.8-10.51z"/><path fill="#222" opacity=".2" d="M1204.78 715.58l2.25-7.8-2.18-4.87-6.42 2.82 4.73 10.59 1.62-.74z"/><path opacity=".1" d="M1208.24 710.51l-1.85 4.34 3.15-1.42-1.3-2.92z"/><path fill="#fff" d="M1201.26 694.59l-4.37-10.63-6.51 2.59 4.43 10.77 6.45-2.73z"/><path d="M1237.78 779.17l-6.59 2.39c.87 2.38 1.67 4.77 2.49 7.17l3 3 4.88-1.61c-1.18-3.66-2.46-7.32-3.78-10.95z" fill="#222" opacity=".2"/><path fill="#fff" d="M1230.22 759.77l-6.48 2.68 4.26 10.62 6.54-2.53-4.32-10.77z"/><path opacity=".03" d="M1226.4 750.78l-4.42-10.02-6.39 2.87 4.63 10.51 4.03-1.74 2.15-1.62z"/><path d="M1237.72 801.11q1.65 5.46 3.13 11l6.77-1.82q-1.51-5.62-3.2-11.18zM1223.28 132.35l-.16 1.67h.12l.04-1.67zM1223.51 122.43l-7-.1-.27 11.46 1.88.07 5.23-4.43.16-7z" fill="#fff"/><path opacity=".1" d="M1216.45 101.77l.12 11.47 7-.01-.11-11.59-7.01.13z"/><path d="M1218.16 191.32l-1.11-4.16-2.34 4.2-1.81-7.45-.71-.1q-.76 5.67-1.68 11.3l6.92 1.13c.26-1.64.48-3.24.73-4.92z" fill="#fff"/><path d="M1213.38 174.18l7 .26c.38-3.45.74-6.92 1-10.38l-7-.62c-.23 3.56-.6 7.17-1 10.74z" fill="#222" opacity=".2"/><path opacity=".03" d="M1221.07 154.87l1.11.08.69-11.58-.67-.03-1.13 11.53z"/><path fill="#222" opacity=".2" d="M1215.19 154.45l5.19.37-1.56-11.15-.07-.5-2.88-.14-.68 11.42z"/><path d="M1205.87 245.88l-6.7-2.06q-1.67 5.46-3.51 10.86l6.64 2.26c1.24-3.67 2.44-7.36 3.57-11.06z" opacity=".03"/><path d="M1209.39 233.48l-.28-6.14.34 5.91c.67-2.49 1.35-5 2-7.47l-6.8-1.67q-1.36 5.53-2.9 11l6.75 1.88c.29-1.14.58-2.33.89-3.51zM1215.8 205.47l-6.89-1.29q-1 5.59-2.27 11.17l6.85 1.51q1.24-5.68 2.31-11.39z" opacity=".1"/><path fill="#fff" d="M1183.31 304.14l-1.08-.48.31 2.17.77-1.69z"/><path fill="#222" opacity=".2" d="M1172.16 311.76l.51.23.89-3.32-1.4 3.09z"/><path fill="#fff" d="M1180.71 292.98l6.33 2.76 4.55-10.66-6.47-2.69-4.44 10.4.03.19z"/><path d="M1199.18 265.77l-6.58-2.41q-2 5.36-4.08 10.68l6.52 2.58q2.13-5.4 4.14-10.85z" fill="#222" opacity=".2"/><path d="M1158.26 361l-6.52-2.58q-2.15 5.42-4.15 10.9l6.58 2.41q1.98-5.44 4.09-10.73z" fill="#fff"/><path fill="#222" opacity=".2" d="M1155.22 349.82l6.47 2.69 4.52-10.58-6.42-2.81-4.57 10.7zM1168.28 320.22l-4.78 10.55 6.39 2.87 3.91-8.62-5.34 2.77 1.78-6.67-1.96-.9z"/><path d="M1130.9 429.92l6.89 1.29c.71-3.76 1.46-7.51 2.28-11.25l-6.85-1.5q-1.22 5.71-2.32 11.46z" opacity=".1"/><path d="M1145 400l-6.74-1.88q-1.57 5.63-3 11.31l6.81 1.67c.93-3.72 1.93-7.41 2.93-11.1z" fill="#222" opacity=".2"/><path d="M1140.87 389.28l6.7 2.05c.38-1.26.81-2.5 1.21-3.75l-7-1.28c-.26.99-.61 1.98-.91 2.98z" fill="#fff"/><path d="M1148.29 379.46l1 6.47c.6-1.84 1.16-3.69 1.78-5.52z" opacity=".1"/><path fill="#222" opacity=".2" d="M1131.51 481.17l-6.99-.49-.69 11.62 7 .34.68-11.47z"/><path d="M1126.42 459.86q-.66 5.79-1.17 11.6l4.68.41 2.33-11.35zM1127.55 450.74l6.54.88 1.54-7.54c.19-1.25.36-2.51.56-3.76l-6.92-1.13c-.63 3.81-1.19 7.69-1.72 11.55z" fill="#fff"/><path fill="#222" opacity=".2" d="M1130.99 554.57l-.5-11.48-7.01.23.52 11.63 6.99-.38z"/><path opacity=".1" d="M1130.25 533.97l-.11-11.51-7.01.01.11 11.63 7.01-.13z"/><path fill="#fff" d="M1123.18 513.31l7.01.09.26-11.5-7-.22-.27 11.63z"/><path d="M1138.41 615.94q-1.11-5.62-2.05-11.29l-2.21.37-.26 2.15.2-2.14-4.64.77q.94 5.76 2.08 11.49z" fill="#222" opacity=".2"/><path d="M1135 595.65v-.08q-.81-5.64-1.46-11.3l-7 .8c.45 3.86.94 7.72 1.5 11.57z" fill="#fff"/><path opacity=".03" d="M1132.55 575.27l-.97-11.45-6.99.51.98 11.61 6.98-.67z"/><path d="M1151 676.93l-.54-12.08-5.65 1.94q1.88 5.52 3.94 11z" fill="#222" opacity=".2"/><path d="M1148.59 655.87q-1.74-5.46-3.29-11l-6.75 1.9q1.59 5.63 3.35 11.2zM1143 636.16q-1.43-5.56-2.66-11.16l-6.84 1.52q1.26 5.7 2.71 11.37zM1175.1 721.76l-6.37 2.91 4.8 10.5 6.37-2.9-4.8-10.51zM1171.31 713.43l-4.7-10.52-6.42 2.82 4.73 10.59 6.39-2.89zM1159.07 696.26l3.95-1.67-2.27-5.52-1.68 7.19z" fill="#fff"/><path d="M1199.54 779.17l-6.59 2.39q2 5.37 3.75 10.79l6.65-2.2c-1.21-3.69-2.49-7.35-3.81-10.98z" fill="#222" opacity=".2"/><path opacity=".1" d="M1191.98 759.77l-6.48 2.68 4.27 10.62 6.53-2.53-4.32-10.77z"/><path fill="#222" opacity=".2" d="M1186.31 746.58l-7.98-3.39-.98.44 4.63 10.51 6.44-2.78-2.11-4.78z"/><path d="M1199.48 801.11q1.65 5.46 3.13 11l6.77-1.82q-1.5-5.62-3.2-11.18z" fill="#fff"/><path opacity=".1" d="M1129.53 124.18l-7.01-.09-.26 11.46 7 .23.27-11.6z"/><path fill="#222" opacity=".2" d="M1129.01 105.64l-2.6-2.11.15-.08-4.09.07.11 11.47 7.01-.01-.01-1.07-.37.36-.2-8.63z"/><path fill="#fff" d="M1129.47 103.39l-.52.01.06 2.24.49.4-.03-2.65z"/><path d="M1122.21 195.1l.26 2.73 1 .16q.93-5.73 1.71-11.48l-6.94-.94q-.76 5.66-1.68 11.29l5.68.93z" opacity=".1"/><path d="M1119.33 176.56l7 .8c.43-3.84.83-7.69 1.16-11.55l-7-.62q-.49 5.7-1.16 11.37zM1121.2 156.2l6.99.5.12-2.02-1.43-2.1 1.6-.67.4-6.79-7-.34-.68 11.42zM1102 256.55l6.27 2.14q1.88-5.5 3.58-11.06l-6.7-2c-1 3.26-2.06 6.5-3.15 9.74z" fill="#222" opacity=".2"/><path d="M1117.43 227.53l-6.81-1.67q-1.36 5.53-2.89 11l6.75 1.88q1.52-5.56 2.95-11.21z" opacity=".03"/><path d="M1121 211.46l-5.11-5.36-.92-.17q-1 5.61-2.27 11.18l6.85 1.5c.45-2.38.93-4.77 1.45-7.15z" opacity=".1"/><path d="M1102 270.48v2.81l.92.09c.75-1.95 1.52-3.89 2.23-5.86l-3.15-1.15v4.11z" fill="#222" opacity=".2"/><path d="M1106.32 791.72l2 .51 1-.33q-1.83-5.52-3.81-11l-3.51 1.3v9.95c.22.65.46 1.3.68 2l3.74-1.24z" opacity=".03"/><path opacity=".1" d="M1102.04 772.4l.28-.11-.28-.69v.8z"/><path fill="#fff" d="M1187.51 136.36l.27-11.59-7.01-.1-.26 11.46 7 .23z"/><path fill="#222" opacity=".2" d="M1180.72 104.11l.11 11.46h6.55l-4.9-9.24.75-2.27-2.51.05z"/><path d="M1181.92 186.89l-5.46-.74c-.52 3.77-1.07 7.54-1.68 11.3l4.44.72z" fill="#fff"/><path d="M1177.58 177.15l6.5.74.82-3.42c.28-2.69.58-5.38.81-8.08l-7-.62q-.47 5.7-1.13 11.38z" opacity=".1"/><path fill="#fff" d="M1179.45 156.79l6.99.49.69-11.58-7-.34-.68 11.43zM1166.56 259.27c.27-.77.5-1.55.75-2.32l-2.12-.18 2.25-9.38-4-1.23c-1.11 3.64-2.29 7.26-3.51 10.86zM1172.25 227.27l-3.38-.83q-1.36 5.55-2.89 11l3.59 1zM1177.05 207.24l-3.87-.73q-1 5.61-2.27 11.18l3.46.76z"/><path fill="#222" opacity=".2" d="M1136.42 314.09l6.38 2.92 4.78-10.53-6.4-2.88-4.76 10.49z"/><path opacity=".03" d="M1155.86 287.42l-6.09-2.53v6.45l-2.39-1.9-2.5 5.83 6.42 2.81 4.56-10.66z"/><path d="M1152.79 276.37l6.51 2.59q2.15-5.4 4.14-10.85l-6.58-2.42q-1.96 5.37-4.07 10.68z" fill="#222" opacity=".2"/><path d="M1122.53 363.29l-6.52-2.57q-2.15 5.41-4.16 10.9l6.59 2.41q1.97-5.4 4.09-10.74z" fill="#fff"/><path opacity=".1" d="M1130.48 344.27l-6.42-2.81-4.57 10.69 6.47 2.7 4.52-10.58zM1127.76 333.1l6.4 2.87 1.59-3.51 2.81-7.01.29.2.07-.17-6.37-2.92-4.79 10.54z"/><path d="M1102.05 433.54q1.07-5.64 2.29-11.24l-2.3-.5v11.74zM1109.3 402.34l-6.75-1.88c-.18.64-.33 1.3-.51 1.94v10l4.35 1.06c.92-3.74 1.88-7.46 2.91-11.12zM1108.72 380.5q-1.87 5.52-3.59 11.12l6.71 2.05q1.67-5.49 3.52-10.92z" fill="#222" opacity=".2"/><path d="M1102 618.4l.63-.12c-.22-1.16-.41-2.34-.63-3.5v3.62z" opacity=".03"/><path d="M1115.7 666.85l-6.63 2.28q1.89 5.52 3.94 11l6.56-2.46q-2.01-5.39-3.87-10.82z" fill="#222" opacity=".2"/><path d="M1106.17 660.32l6.68-2.11q-1.72-5.48-3.28-11l-6.56 1.85.91 3.72c.74 2.52 1.46 5.04 2.25 7.54z" fill="#fff"/><path d="M1107.22 638.49q-1.42-5.55-2.66-11.16l-2.52.56v11.93z" fill="#222" opacity=".2"/><path opacity=".03" d="M1144.17 734.6l-4.8-10.51-6.38 2.92 4.8 10.5 6.38-2.91z"/><path fill="#222" opacity=".2" d="M1135.58 715.76l-4.7-10.51-6.42 2.81 4.73 10.59 6.39-2.89zM1122.22 686.57l-5.82 2.32 4.43 10.76 2.51-1.05-.21-2.19-.74-8-.17-1.84z"/><path opacity=".1" d="M1127.29 696.92l-4.16-10.11.12 3.72.18 5.51.08 2.48 3.78-1.6z"/><path d="M1163.81 781.5l-6.59 2.4q2 5.36 3.75 10.78l6.65-2.2q-1.83-5.48-3.81-10.98z" fill="#222" opacity=".2"/><path fill="#fff" d="M1156.24 762.11l-5.09 2.1-.73 2.2 3.61 9 6.54-2.53-4.33-10.77z"/><path fill="#222" opacity=".2" d="M1148.01 743.1l-6.39 2.86 4.63 10.52 1.33-.58-.14-8.1 4.22 3.58-3.65-8.28z"/><path fill="#fff" d="M1151.05 129.63l2.67 1.33.37.01 4.04-4.17.17-7.29-7.01-.1-.24 10.22z"/><path opacity=".1" d="M1157.81 98.73l-.1.13.01-.13-6.49.12.12 11.47 7.01-.01-.12-11.59-.43.01z"/><path d="M1153.92 181.83l-6.94-.94q-.78 5.67-1.69 11.3l6.92 1.13q.93-5.73 1.71-11.49zM1148.1 171.89l7 .8c.06-.48.09-1 .15-1.44l.17-3.72.18.21c.23-2.2.48-4.4.67-6.6l-7-.62c-.35 3.79-.74 7.59-1.17 11.37z" fill="#222" opacity=".2"/><path fill="#fff" d="M1149.97 151.53l6.99.5.69-11.58-7-.35-.68 11.43z"/><path d="M1140.65 243l-6.65-2.1q-1.68 5.46-3.51 10.86l6.63 2.26q1.88-5.5 3.53-11.02z" opacity=".03"/><path d="M1146.2 222.86l-6.81-1.67q-1.37 5.53-2.89 11l6.74 1.88q1.58-5.56 2.96-11.21z" fill="#fff"/><path d="M1150.59 202.55l-6.89-1.29c-.71 3.73-1.46 7.46-2.28 11.17l6.85 1.51q1.24-5.68 2.32-11.39z" fill="#222" opacity=".2"/><path fill="#fff" d="M1109.71 310.1l1.37-10.39-4.14 9.13 2.77 1.26z"/><path opacity=".1" d="M1111.53 298.73l-1.8 11.38 3.59 1.64 4.77-10.53-6.39-2.87-.17.38z"/><path fill="#fff" d="M1115.4 290.02l6.42 2.8 4.56-10.66-6.47-2.69-4.51 10.55z"/><path d="M1129.82 273.7q2.15-5.4 4.14-10.85l-6.58-2.41q-2 5.35-4.07 10.68z" opacity=".1"/><path fill="#fff" d="M1102.04 319.57V329.54l2.64 1.18 4.76-10.5-6.37-2.92-1.03 2.27z"/><path opacity=".1" d="M1114.68 729.35l-4.8-10.51-6.37 2.91 4.8 10.5 6.37-2.9z"/><path fill="#222" opacity=".2" d="M1102.04 708.97v3.37l4.05-1.83-4.05-9.07V708.97zM1134.33 776.25l-6.59 2.39q2 5.37 3.74 10.79l6.65-2.2q-1.81-5.53-3.8-10.98z"/><path opacity=".03" d="M1126.76 756.85l-6.47 2.68 4.26 10.62 6.54-2.53-4.33-10.77z"/><path fill="#222" opacity=".2" d="M1112.13 740.71l4.63 10.51 3.39-1.46-3.56-11.05-4.46 2z"/><path d="M1141 796.16l-6.71 2q1.5 4.95 2.84 9.94l5.67-5.67c-.63-2.07-1.2-4.18-1.8-6.27z" opacity=".03"/><path opacity=".1" d="M1432.63 56.87l7.01-.19-.42-11.59-7.01.33.42 11.45z"/><path fill="#fff" d="M1431.5 33.53l.46 1.79-.32.13.07.9 6.99-.45-.87-11.57-6.98.61.65 8.59zM1437 15.23q-.6-5.77-1.38-11.53l-6.94.92q.75 5.66 1.35 11.35z"/><path fill="#222" opacity=".2" d="M1434.65 95.9H1439.46l.28-9.15-7.01-.14-.28 9.29h2.2zM1432.85 77.58l7.01.04-.04-11.59-7 .08.03 11.47z"/><path opacity=".1" d="M1403.74 56.87l7.01-.19-.43-11.59-7 .33.42 11.45z"/><path opacity=".03" d="M1402.82 36.35l6.99-.45-.87-11.57-6.98.61.86 11.41z"/><path d="M1408.06 15.23q-.61-5.77-1.38-11.53l-1.09.14 1.14 6.71-4.2.47V4.25l-2.8.37q.76 5.66 1.36 11.35z" fill="#fff"/><path opacity=".1" d="M1405.91 95.9H1410.57l.27-9.15-7-.14-.28 9.29h2.35z"/><path fill="#222" opacity=".2" d="M1403.95 77.58l7.01.04-.04-11.59-7 .08.03 11.47z"/><path fill="#fff" d="M1374.7 52.98l4.47 1.96-.66 1.83 3.34-.09-.43-11.59-7 .33.28 7.56zM1379.17 32.51l-1.4 2.34.31-2.68-4.59-1.45.43 5.63 6.99-.45-.87-11.57-1.08.09-.88 7.75 1.09.34zM1376.84 15.47l1.86-4.05c-.29-2.57-.58-5.15-.92-7.72l-7 .92q.76 5.66 1.36 11.35z"/><path fill="#222" opacity=".2" d="M1377.01 95.9H1381.67l.27-9.15-7-.14-.28 9.29h2.35z"/><path opacity=".1" d="M1375.02 66.46l.03 11.12 7.01.04-.04-11.59-6.87.08-.13.35z"/><path fill="#222" opacity=".2" d="M1345.64 48.78l3.16 4.29-1.4 1.87-1.57-1.2.11 3.13 7.01-.19-.43-11.59-7 .33.12 3.36zM1345.02 36.35l6.99-.45-.87-11.57-6.98.61.86 11.41z"/><path d="M1350.26 15.23q-.62-5.77-1.38-11.53l-7 .92q.77 5.66 1.36 11.35zM1347.71 95.9H1352.77l.27-9.15-7-.14-.28 9.29h1.95z" fill="#fff"/><path opacity=".1" d="M1346.15 77.58l7.01.04-.03-11.59-7.01.08.03 11.47z"/><path fill="#fff" d="M1317.05 56.87l7-.19-.43-11.59-7 .33.43 11.45zM1321 24.43l-5.74.51.86 11.41 6.99-.45-.79-10.58-1.08.65-.24-1.54z"/><path d="M1319.63 15.41L1318 4.48l3 10.79h.38c-.4-3.85-.87-7.69-1.38-11.53l-7 .92q.77 5.66 1.36 11.35z" opacity=".1"/><path opacity=".03" d="M1319.21 95.9h4.66l.27-9.15-7-.14-.28 9.29H1319.21z"/><path fill="#fff" d="M1317.24 72.51l1.19 3.45-1.18.85.01.77 7 .04-.03-11.59-7.01.08.02 6.4z"/><path fill="#222" opacity=".2" d="M1288.15 56.87l7-.19-.43-11.59-6.99.33.42 11.45z"/><path opacity=".03" d="M1286.71 29.51l.51 6.84 7-.45-.87-11.57-5.87.51-.77 4.67zM1286.37 24.94l.23 3.14.81-3.23-1.04.09z"/><path d="M1292.47 15.23q-.62-5.77-1.38-11.53l-6.95.92q.77 5.66 1.36 11.35z" fill="#fff"/><path fill="#222" opacity=".2" d="M1290.16 95.9H1294.98l.27-9.15-7-.14-.28 9.29h2.19z"/><path fill="#fff" d="M1288.36 77.58l7.01.04-.04-11.59-7 .08.03 11.47z"/><path opacity=".1" d="M1254.15 45.42l.43 11.45h.09l.21-11.49-.73.04z"/><path opacity=".03" d="M1261.57 56.25l-.42-11.16-5.85.28 6.27 10.88z"/><path fill="#fff" d="M1253.65 36.35l7-.45-.87-11.57-6.98.61.85 11.41zM1258.9 15.23q-.62-5.77-1.38-11.53l-7 .92q.77 5.66 1.35 11.35zM1256.74 95.9H1261.41l.27-9.15-7.01-.14-.27 9.29h2.34zM1254.79 77.58l7.01.04-.04-11.59-7 .08.03 11.47zM1216.34 56.87l7.01-.19-.43-11.59-7 .33.42 11.45z"/><path fill="#222" opacity=".2" d="M1215.41 36.35l7-.45-.87-11.57-6.98.61.85 11.41z"/><path d="M1220.66 15.23q-.62-5.77-1.38-11.53l-7 .92q.76 5.66 1.36 11.35z" opacity=".1"/><path fill="#fff" d="M1218.51 95.9H1223.17l.24-8.31-7.05 1.6-.2 6.71h2.35zM1216.55 77.58l3.81.02 1.36-1.17-.21 1.18 2.05.01-.04-11.59-7 .08.03 11.47zM1122.35 58.62l4.63-.12-1.97-2.63 4.25-.25-.28-7.36-.7-1.26.65-.09v-.07l-7 .33.42 11.45zM1121.43 38.1l7-.45-.88-11.57-6.98.61.86 11.41z"/><path d="M1126.67 17q-.6-5.77-1.37-11.53l-7 .92c.5 3.78 1 7.56 1.35 11.35z" fill="#222" opacity=".2"/><path opacity=".1" d="M1129.46 88.5l-7.01-.14-.22 7.54H1128.77l-.02-.78.5.25.21-6.87z"/><path fill="#222" opacity=".2" d="M1122.57 79.33l7.01.04-.04-11.59-7 .08.03 11.47z"/><path opacity=".03" d="M1180.61 59.21l7-.19-.42-11.59-7.01.33.43 11.45z"/><path fill="#fff" d="M1179.68 38.68l6.99-.44-.87-11.58-6.98.61.86 11.41zM1184.92 17.56q-.6-5.77-1.37-11.53l-7 .93c.5 3.77 1 7.56 1.35 11.34z"/><path opacity=".03" d="M1180.49 95.9H1187.5l.21-6.81-7.01-.15-.21 6.96z"/><path fill="#fff" d="M1180.82 79.92l7.01.03-.04-11.59-7 .09.03 11.47zM1151.13 53.95l7-.19-.43-11.59-7 .33.43 11.45z"/><path opacity=".1" d="M1150.2 33.43l6.99-.45-.87-11.57-6.98.61.86 11.41zM1148.47 13.05l7-.74q-.62-5.77-1.38-11.53l-7 .92q.79 5.66 1.38 11.35z"/><path fill="#fff" d="M1156.06 83.79l-4.84-.1-.34 11.45 7 .28.25-8.3-2.07-3.33zM1151.33 74.66l7.01.04-.03-11.59-7.01.08.03 11.47zM1102.04 45.13l-6.22.29.43 11.45 5.79-.16V45.13z"/><path fill="#222" opacity=".2" d="M1095.32 36.35l6.72-.43v-3.66l-.59-7.93-6.99.61.86 11.41z"/><path d="M1100.56 15.23q-.6-5.77-1.37-11.53l-1.64.22-.57 5.7-4.41-2.2c.36 2.85.72 5.69 1 8.55z" opacity=".03"/><path d="M1092.42 4.6h-.18v.28z" fill="#222" opacity=".2"/><path opacity=".03" d="M1102.04 86.72l-5.7-.11-.28 9.29H1102.04v-9.18zM1102.04 66.05l-5.62.06.04 11.47 5.58.03V66.05z"/><path fill="#fff" d="M1067.35 56.87l7-.19-.42-11.59-7.01.33.43 11.45z"/><path fill="#222" opacity=".2" d="M1065.57 24.94l.09 1.29 1.38-1.42-1.47.13z"/><path fill="#fff" d="M1065.76 27.5l.66 8.85 7-.45-.87-11.57-3.4.29-3.39 2.88z"/><path d="M1071.67 15.23q-.62-5.77-1.38-11.53l-7 .92q.77 5.66 1.35 11.35zM1069.94 95.9h4.23l.28-9.15-7.01-.14-.27 9.29h2.77z" opacity=".1"/><path fill="#fff" d="M1067.56 77.58l7.01.04-.04-11.59-7 .08.03 11.47z"/><path opacity=".1" d="M1038.15 48.57l2.3 6.37-2.06.35.06 1.58 7.01-.19-.43-11.59-7 .33.12 3.15z"/><path opacity=".03" d="M1037.53 36.35l6.99-.45-.87-11.57-6.98.61.86 11.41z"/><path d="M1038.37 8.15l-3.1 3.35c.17 1.49.37 3 .53 4.47l7-.74q-.62-5.77-1.38-11.53h-.35l-.07 1.14v.58z" opacity=".1"/><path d="M1036 8l1-3.43.08-.25-2.68.35c.28 2.06.5 4.12.74 6.18z" fill="#fff"/><path fill="#222" opacity=".2" d="M1041.05 95.9H1045.28l.28-9.15-7.01-.14-.28 9.29H1041.05z"/><path opacity=".03" d="M1038.66 77.58l7.01.04-.03-11.59-7.01.08.03 11.47z"/><path fill="#fff" d="M1016.14 45.09l-7 .33.42 11.45 7-.19-.42-11.59z"/><path opacity=".1" d="M1011.86 24.58l-3.34 10.23.11 1.54 7-.45-.87-11.57-2.9.25z"/><path d="M1013.88 15.23q-.61-5.77-1.38-11.53l-7 .92q.76 5.66 1.36 11.35z" fill="#222" opacity=".2"/><path fill="#fff" d="M1011.72 95.9h4.67l.27-9.15-7-.14-.28 9.29h2.34zM1009.77 77.58l7.01.04-.04-11.59-7 .08.03 11.47zM1102 421.8V419l-2.22-.49c-.4 1.85-.75 3.71-1.13 5.57h2l-2.69 3.3c-.17.86-.37 1.72-.53 2.59l4.54.85v-9z"/><path d="M1101.92 409.43h.12V409z" opacity=".1"/><path fill="#fff" d="M1098.11 481.17l-6.99-.49-.69 11.62 7 .34.68-11.47z"/><path d="M1100 460.65l-7-.79q-.66 5.79-1.17 11.6l7 .62q.5-5.73 1.17-11.43zM1102 445.35v-5.15l-6.17-1c-.63 3.84-1.19 7.69-1.71 11.55l6.94.94c.33-2.13.67-4.23.94-6.34z" opacity=".1"/><path opacity=".03" d="M1097.59 554.57l-.5-11.48-7 .23.51 11.63 6.99-.38z"/><path fill="#fff" d="M1096.85 533.97l-.12-11.51-7 .01.11 11.63 7.01-.13zM1089.78 513.31l7.01.09.26-11.5-7-.22-.27 11.63z"/><path d="M1098.91 605.33l-2.86.47c.27 1.64.59 3.26.89 4.89z" fill="#222" opacity=".2"/><path d="M1102 616.53v-9.87l-5 4.68c.36 2 .69 4 1.08 5.95zM1101.58 595.65q-.82-5.68-1.48-11.38l-7 .8c.45 3.86.94 7.72 1.5 11.57z" opacity=".1"/><path fill="#222" opacity=".2" d="M1099.15 575.27l-.97-11.45-6.99.51.98 11.61 6.98-.67z"/><path d="M1102 627.89v-1.81l-2 .44c.62 2.78 1.3 5.55 2 8.32v-7zM1096 361l-6.51-2.58q-2.15 5.42-4.16 10.9l6.59 2.41q1.93-5.44 4.08-10.73z" opacity=".1"/><path fill="#fff" d="M1092.93 349.82l6.47 2.69 2.64-6.19v-5.21l-4.54-1.99-4.57 10.7zM1102.04 328.93l-.84 1.84.84.37v-2.21zM1077.77 420l-6.84-1.5q-1.25 5.71-2.33 11.46l6.89 1.29q1.07-5.68 2.28-11.25zM1082.74 400l-6.75-1.88q-1.58 5.63-3 11.31l6.8 1.67c.96-3.72 1.92-7.41 2.95-11.1z"/><path d="M1082.16 378.16q-1.87 5.54-3.59 11.12l6.7 2.05c1.1-3.57 2.25-7.14 3.45-10.68l-.15-.07.2-.18z" opacity=".03"/><path fill="#222" opacity=".2" d="M1069.21 481.17l-6.99-.49-.69 11.62 7 .34.68-11.47z"/><path d="M1071.09 460.65l-5.32-.61-1.5 1.37-.23-.7c-.4 3.58-.77 7.16-1.08 10.75l7 .62q.48-5.73 1.13-11.43z" opacity=".1"/><path d="M1073.9 440.32l-6.92-1.13q-.95 5.76-1.72 11.55l7 .94q.74-5.68 1.64-11.36z" fill="#fff"/><path fill="#222" opacity=".2" d="M1061.7 554.95l7-.38-.51-11.48-7 .23.23 5.28.05-.3-.04.42.27 6.23z"/><path opacity=".03" d="M1067.95 533.97l-.11-11.51-7.01.01.12 11.63 7-.13z"/><path opacity=".1" d="M1060.89 513.31l7.01.09.26-11.5-7.01-.22-.26 11.63z"/><path d="M1076.11 615.94c-.73-3.75-1.42-7.51-2-11.29l-6.92 1.15q1 5.76 2.09 11.49z" fill="#fff"/><path d="M1072.68 595.65c-.55-3.79-1-7.58-1.48-11.38l-7 .8q.66 5.79 1.49 11.57zM1070.25 575.27l-.96-11.45-6.99.51.98 11.61 6.97-.67zM1089.14 664.52l-6.63 2.27q1.89 5.52 3.94 11l6.56-2.46q-2.01-5.33-3.87-10.81z" fill="#222" opacity=".2"/><path d="M1086.29 655.87q-1.72-5.46-3.29-11l-6.74 1.9q1.59 5.63 3.35 11.2z" fill="#fff"/><path d="M1080.66 636.16c-.41-1.61-.77-3.24-1.15-4.86l-5.89.63 5.52-2.16c-.37-1.59-.78-3.18-1.14-4.77l-6.84 1.52q1.27 5.7 2.71 11.37z" opacity=".1"/><path fill="#222" opacity=".2" d="M1102.04 715V703.9l-2.32 1.03.93 6.96 1.39 3.11zM1100.73 694.59l-4.38-10.63-6.51 2.59 4.43 10.77 4.18-1.77-.07-.54.4.4 1.95-.82zM1080.96 311.76l6.38 2.91 4.78-10.53-6.4-2.87-4.76 10.49zM1089.42 292.94l6.42 2.8 4.56-10.66-6.47-2.69-4.51 10.55z"/><path d="M1102 273.29v-9.7l-.64-.23c-1.16 3.17-2.38 6.33-3.61 9.48z" fill="#fff"/><path d="M1067.07 361l-6.52-2.58q-2.15 5.42-4.15 10.9l6.58 2.41q1.97-5.44 4.09-10.73zM1068.6 339.12l-4.57 10.7 6.47 2.69 1.33-3.12.85-7.12.39-.15 1.24-.5-5.71-2.5z" fill="#222" opacity=".2"/><path fill="#fff" d="M1074.77 342.51l.25-.58-.12-.05-.13.63z"/><path opacity=".03" d="M1072.31 330.77l6.39 2.87 4.76-10.5-6.37-2.92-4.78 10.55z"/><path d="M1048.88 420l-6.44-1.41-.48.24q-1.2 5.55-2.25 11.13l6.88 1.29q1.07-5.68 2.29-11.25z" opacity=".1"/><path d="M1053.84 400l-6.75-1.88q-1.58 5.63-3 11.31l6.8 1.67c.96-3.72 1.92-7.41 2.95-11.1zM1053.27 378.16q-1.89 5.54-3.6 11.12l6.71 2.05q1.66-5.47 3.52-10.92z" opacity=".03"/><path fill="#222" opacity=".2" d="M1040.31 481.17l-6.99-.49-.69 11.62 7 .34.68-11.47z"/><path d="M1042.19 460.65l-7-.79c-.39 3.4-.72 6.81-1 10.23l7.18-1.42c.27-2.67.52-5.35.82-8.02z" fill="#fff"/><path d="M1045 440.32l-6.92-1.13c-.63 3.84-1.19 7.69-1.72 11.55l7 .94q.71-5.68 1.64-11.36z" fill="#222" opacity=".2"/><path fill="#fff" d="M1039.8 554.57l-.5-11.48-6.41.21-.55 1.07.46 10.58 7-.38z"/><path fill="#222" opacity=".2" d="M1035.01 534.04l3.95-10.26-.02-1.32-7.01.01.12 11.63 2.96-.06z"/><path opacity=".03" d="M1039.05 533.97l-.02-2.44-1.28 2.46 1.3-.02z"/><path fill="#fff" d="M1032.26 501.68l-.27 11.63 7.01.09.26-11.5-7-.22z"/><path d="M1047.21 615.94c-.73-3.75-1.42-7.51-2-11.29l-6.91 1.15q.95 5.76 2.08 11.49z" fill="#222" opacity=".2"/><path d="M1043.78 595.65c-.55-3.79-1-7.58-1.47-11.38l-7 .8q.68 5.79 1.49 11.57zM1041.35 575.27l-.96-11.45-6.99.51.98 11.61 6.97-.67zM1060.24 664.52l-6.63 2.27q1.89 5.52 3.94 11l6.56-2.46q-2.01-5.33-3.87-10.81z" fill="#fff"/><path d="M1057.39 655.87c-.9-2.85-1.74-5.73-2.57-8.61l-4.45 9.59c.12.38.22.76.34 1.13zM1052.59 650.16l2.11-3.31c-.19-.66-.41-1.31-.59-2l-6.75 1.9c.12.42.25.83.37 1.25z" opacity=".1"/><path d="M1051.76 636.16q-1.42-5.56-2.66-11.16l-6.83 1.52q1.26 5.7 2.7 11.37zM1088.71 732.27l-4.8-10.51-6.38 2.91 4.8 10.5 6.38-2.9zM1080.12 713.43l-4.7-10.52-6.42 2.82 4.73 10.59 6.39-2.89z" fill="#fff"/><path opacity=".1" d="M1071.83 694.59l-4.38-10.63-6.51 2.59 4.43 10.77 6.46-2.73z"/><path d="M1102 781.46l-.28.1c.1.26.18.54.28.8v-.9z" fill="#222" opacity=".2"/><path fill="#fff" d="M1102.04 771.6v-8.7l-1.26-3.13-6.47 2.68 4.26 10.62 3.47-1.34v-.13z"/><path fill="#222" opacity=".2" d="M1092.55 740.76l-6.39 2.87 3.83 8.7-.02-.33.47-3.26.18 5.01.17.39 6.43-2.78-4.67-10.6zM1096.15 133.79l5.89.2v-11.58l-5.63-.08-.26 11.46z"/><path opacity=".1" d="M1102.04 101.66l-5.68.11.11 11.47 5.57-.01v-11.57z"/><path d="M1099.05 184.75l-7-.94q-.76 5.67-1.68 11.3l6.91 1.13q1-5.73 1.77-11.49zM1093.22 174.81l7 .8q.66-5.78 1.18-11.55l-7-.62c-.4 3.79-.75 7.56-1.18 11.37z" opacity=".03"/><path opacity=".1" d="M1095.09 154.45l6.95.49v-11.61l-6.27-.3-.68 11.42z"/><path d="M1085.78 245.88l-6.68-2c-.72 2.38-1.51 4.74-2.29 7.1l1 1.63-1.49-.25c-.26.78-.49 1.58-.76 2.36l6.64 2.26q1.87-5.54 3.58-11.1z" fill="#222" opacity=".2"/><path d="M1091.32 225.78l-6.81-1.67q-1.35 5.53-2.89 11l6.75 1.88q1.56-5.56 2.95-11.21z" fill="#fff"/><path d="M1095.71 205.47l-6.89-1.29q-1 5.59-2.27 11.17l6.84 1.51q1.25-5.68 2.32-11.39z" fill="#222" opacity=".2"/><path fill="#fff" d="M1052.07 311.76l6.37 2.91 4.78-10.53-6.4-2.87-4.75 10.49zM1060.52 292.94l6.42 2.8 4.56-10.66-6.47-2.69-4.51 10.55z"/><path d="M1075 276.62q2.13-5.4 4.13-10.85l-6.57-2.41q-2 5.36-4.08 10.68z" fill="#222" opacity=".2"/><path d="M1038.17 361l-6.52-2.58q-2.14 5.42-4.15 10.9l6.58 2.41q1.92-5.44 4.09-10.73z" opacity=".03"/><path fill="#222" opacity=".2" d="M1035.13 349.82l6.47 2.69 4.52-10.58-6.42-2.81-4.57 10.7zM1043.41 330.77l3.28 1.47-.37-1.7-2.52-.63-.39.86z"/><path fill="#fff" d="M1045.4 326.37l.92 4.17.2.05.31 1.72 2.97 1.33 4.77-10.5-6.38-2.92-2.79 6.15zM1020 420l-6.85-1.5q-1.25 5.71-2.32 11.46l6.89 1.29q1.03-5.68 2.28-11.25z"/><path d="M1024.94 400l-6.75-1.88q-1.58 5.63-3 11.31l6.8 1.67c1.01-3.72 1.92-7.41 2.95-11.1z" opacity=".03"/><path d="M1024.37 378.16q-1.89 5.54-3.59 11.12l6.7 2.05q1.68-5.47 3.52-10.92z" fill="#222" opacity=".2"/><path fill="#fff" d="M1004.42 480.68l-.69 11.62.93.05 4.47-11.34-4.71-.33z"/><path d="M1013.29 460.65l-7-.79q-.66 5.79-1.17 11.6l7 .62q.52-5.73 1.17-11.43z" opacity=".1"/><path d="M1016.1 440.32l-6.92-1.13c-.63 3.84-1.19 7.69-1.72 11.55l6.95.94q.77-5.68 1.69-11.36z" fill="#222" opacity=".2"/><path fill="#fff" d="M1010.9 554.57l-.5-11.48-7.01.23.51 11.63 7-.38z"/><path opacity=".1" d="M1003.15 534.1l7-.13-.11-11.51-7 .01.11 11.63z"/><path fill="#fff" d="M1003.09 513.31l7.01.09.26-11.5-7-.22-.27 11.63zM1018.32 615.94q-1.11-5.62-2.05-11.29l-6.91 1.15q.95 5.76 2.08 11.49z"/><path d="M1008 596.64l6.93-1c-.44-3.08-.82-6.16-1.2-9.25l-.76-.48-2.12-1.35-4.35.5c.4 3.87.89 7.73 1.5 11.58z" opacity=".03"/><path opacity=".1" d="M1011.49 563.82l-6.99.51.98 11.61 6.97-.67-.96-11.45z"/><path d="M1031.34 664.52l-6.63 2.27q1.89 5.52 3.94 11l6.57-2.46q-2.03-5.33-3.88-10.81z" fill="#fff"/><path d="M1028.5 655.87q-1.74-5.46-3.29-11l-6.75 1.9q1.59 5.63 3.35 11.2z" fill="#222" opacity=".2"/><path d="M1015.14 634c.32 1.3.6 2.62.94 3.92l6.78-1.73c-.56-2.21-1.06-4.44-1.58-6.66l-4.86 2.7-.73 1.6zM1013.37 626.52c.48 2.18 1 4.34 1.55 6.51l1.5-.83 3.26-7.09z" opacity=".1"/><path fill="#222" opacity=".2" d="M1059.81 732.27l-4.8-10.51-6.38 2.91 4.8 10.5 6.38-2.9z"/><path fill="#fff" d="M1044.83 716.32l6.39-2.89-4.7-10.52-4.85 2.13 1.21 6.92 1.95 4.36z"/><path opacity=".03" d="M1040.17 705.87l-.04-.16-.03.02.07.14z"/><path opacity=".1" d="M1038.56 683.96l-6.51 2.59 4.42 10.77 1.78-.75-.61-2.96 1.87-.94.55 3.13 2.87-1.21-4.37-10.63z"/><path d="M1079.45 779.17l-6.59 2.39q2 5.37 3.75 10.79l6.65-2.2c-1.21-3.69-2.49-7.35-3.81-10.98z" fill="#fff"/><path fill="#222" opacity=".2" d="M1071.88 759.77l-6.47 2.68 4.26 10.62 6.54-2.53-4.33-10.77z"/><path opacity=".03" d="M1063.65 740.76l-6.39 2.87 4.63 10.51 6.44-2.78-4.68-10.6zM1079.39 801.11c.86 2.84 1.65 5.7 2.44 8.57l1.13-2.54.49.94 1.69 3.29 4.15-1.11q-1.51-5.62-3.2-11.18z"/><path fill="#222" opacity=".2" d="M1074.52 122.43l-7.01-.1-.26 11.46 7 .23.27-11.59zM1067.46 101.77l.11 11.47 7.01-.01-.11-11.59-7.01.13zM1070.15 184.75l-7-.94q-.77 5.67-1.68 11.3l6.92 1.13q.98-5.73 1.76-11.49zM1064.32 174.81l7 .8c.43-3.85.83-7.7 1.17-11.55l-7-.62c-.35 3.79-.74 7.56-1.17 11.37z"/><path fill="#fff" d="M1066.19 154.45l6.99.5.69-11.58-6.99-.34-.69 11.42z"/><path d="M1056.88 245.88l-5.21-1.6-3.38 10.95 5 1.71c1.26-3.67 2.46-7.36 3.59-11.06z" opacity=".1"/><path d="M1062.42 225.78l-4.69-1.15-3.38 11 5.12 1.43q1.53-5.63 2.95-11.28z" fill="#fff"/><path d="M1066.81 205.47l-6.89-1.29q-1.05 5.59-2.27 11.17l6.84 1.51q1.24-5.68 2.32-11.39zM1023.17 311.76l6.37 2.91 4.78-10.53-6.4-2.87-4.75 10.49z" fill="#222" opacity=".2"/><path opacity=".1" d="M1036.13 282.39l-4.5 10.55 6.41 2.8 4.56-10.66-3.13-1.3-.89 2.89.45-3.07-2.9-1.21z"/><path d="M1050.19 265.77l-4.63-1.7-3.4 11 3.89 1.54q2.13-5.39 4.14-10.84z" fill="#222" opacity=".2"/><path d="M1039.53 274l.84.33.61-4.12c-.49 1.3-.98 2.57-1.45 3.79zM998.6 369.28l6.58 2.41q2-5.4 4.09-10.73l-6.52-2.58q-2.14 5.42-4.15 10.9zM1006.23 349.82l6.47 2.69 4.52-10.58-6.42-2.81-4.57 10.7z" fill="#fff"/><path opacity=".1" d="M1014.51 330.77l6.39 2.87 4.77-10.5-6.38-2.92-4.78 10.55z"/><path d="M991.08 420l-6.85-1.5q-1.25 5.71-2.32 11.46l6.89 1.29q1.05-5.68 2.28-11.25z" fill="#222" opacity=".2"/><path d="M986.33 409.43l6.81 1.67c.91-3.72 1.88-7.41 2.9-11.1l-6.75-1.88q-1.57 5.63-2.96 11.31z" fill="#fff"/><path d="M991.88 389.28l6.7 2.05q1.68-5.47 3.52-10.92l-6.63-2.25q-1.89 5.54-3.59 11.12z" opacity=".1"/><path fill="#fff" d="M982.36 481.16l-6.84-.48-.68 11.62 6.99.34.67-11.18-.14-.3zM982.51 481.17l-.07-.01.02.11.04.16.01-.26z"/><path d="M984.39 460.65l-7-.79c-.33 2.9-.6 5.81-.88 8.71l1.4 3 5.29.47q.54-5.69 1.19-11.39z" fill="#222" opacity=".2"/><path d="M987.2 440.32l-6.27-1 .18 3.88-1.19-1.58c-.47 3-.94 6.08-1.36 9.14l7 .94q.72-5.7 1.64-11.38z" fill="#fff"/><path fill="#222" opacity=".2" d="M982 554.57l-.5-11.48-7.01.23.51 11.63 7-.38z"/><path opacity=".03" d="M981.25 533.97l-.11-11.51-7 .01.11 11.63 7-.13z"/><path fill="#222" opacity=".2" d="M974.19 513.31l7.01.09.26-11.5-7-.22-.27 11.63zM989.42 615.94q-1.11-5.62-2-11.29l-6.91 1.15q.94 5.76 2.08 11.49z"/><path d="M984.51 584.27l-7 .8c.45 3.86.94 7.72 1.5 11.57l4.52-.64-3.39-1.91 5.06-4.14c-.2-1.9-.47-3.79-.69-5.68z" fill="#fff"/><path fill="#222" opacity=".2" d="M983.55 575.27l-.96-11.45-6.99.51.98 11.61 6.97-.67zM1006.32 675.32q-2-5.37-3.88-10.8l-6.63 2.27q1.89 5.52 4 11z"/><path d="M999.6 655.87q-1.74-5.46-3.29-11l-6.75 1.9q1.59 5.63 3.35 11.2zM987.18 637.89l6.79-1.73q-1.43-5.56-2.66-11.16l-6.84 1.52q1.26 5.7 2.71 11.37z" fill="#fff"/><path opacity=".03" d="M1030.91 732.27l-4.8-10.51-6.37 2.91 4.8 10.5 6.37-2.9z"/><path fill="#222" opacity=".2" d="M1022.32 713.43l-4.7-10.52-6.42 2.82 4.73 10.59 6.39-2.89z"/><path fill="#fff" d="M1009.66 683.96l-6.51 2.59 4.43 10.77 6.45-2.73-4.37-10.63zM1050.55 779.17l-6.59 2.39q1.95 5.37 3.75 10.79l6.65-2.2c-1.21-3.69-2.49-7.35-3.81-10.98z"/><path opacity=".1" d="M1042.99 759.77l-6.48 2.68 4.26 10.62 6.54-2.53-4.32-10.77zM1034.76 740.76l-6.4 2.87 4.63 10.51 6.44-2.78-4.67-10.6z"/><path d="M1050.49 801.11q1.65 5.46 3.13 11l6.77-1.82q-1.52-5.62-3.2-11.18z" fill="#fff"/><path fill="#222" opacity=".2" d="M1045.44 130.68l-1.33-8.27-5.49-.08-.27 11.46 7.01.23.08-3.34zM1038.57 101.77l.11 11.47 7.01-.01-.12-11.59-7 .13z"/><path d="M1041.25 184.75l-6.94-.94c-.52 3.78-1.07 7.55-1.69 11.3l6.92 1.13q.93-5.73 1.71-11.49z" opacity=".1"/><path d="M1035.43 174.81l7 .8q.66-5.78 1.17-11.55l-7-.62c-.35 3.79-.74 7.56-1.17 11.37z" opacity=".03"/><path opacity=".1" d="M1037.3 154.45l6.99.5.69-11.58-7-.34-.68 11.42z"/><path d="M1028 245.88l-6.69-2.06q-1.68 5.46-3.51 10.86l6.63 2.26q1.86-5.5 3.57-11.06zM1033.53 225.78l-6.81-1.67q-1.37 5.53-2.89 11l6.75 1.88q1.56-5.56 2.95-11.21z" fill="#fff"/><path d="M1037.92 205.47l-6.89-1.29q-1.07 5.59-2.27 11.17l6.84 1.51q1.25-5.68 2.32-11.39z" opacity=".1"/><path opacity=".03" d="M994.27 311.76l6.38 2.91 4.77-10.53-6.39-2.87-4.76 10.49z"/><path fill="#222" opacity=".2" d="M1002.73 292.94l6.42 2.8 4.56-10.66-6.47-2.69-4.51 10.55zM1017.15 276.62q2.15-5.4 4.14-10.85l-6.58-2.41q-2 5.36-4.07 10.68z"/><path d="M973.17 365.63l4.91 1.34c.76-2 1.5-4 2.29-6l-6.52-2.58q-2.13 5.42-4.15 10.9l3.16 1.16z" opacity=".1"/><path fill="#fff" d="M977.34 349.82l6.46 2.69 4.53-10.58-6.42-2.81-4.57 10.7z"/><path fill="#222" opacity=".2" d="M987.5 326.6l4.22 6.91.29.13 4.76-10.5-6.37-2.92-2.9 6.38zM959.9 431.21q1.07-5.64 2.28-11.25l-6.84-1.5q-1.26 5.71-2.33 11.46z"/><path d="M967.15 400l-6.75-1.88q-1.57 5.63-3 11.31l6.81 1.67c.94-3.72 1.91-7.41 2.94-11.1zM968.5 382.45l3.74-2.34-5.67-1.92q-1.87 5.54-3.59 11.12l6.7 2.05c.92-3 1.9-6 2.9-9z" fill="#fff"/><path fill="#222" opacity=".2" d="M945.94 492.3l1.77.09 2.51-11.46-3.59-.25-.69 11.62z"/><path fill="#fff" d="M952.94 492.64l.24-4-.57-.14-1.8 4.04 2.13.1z"/><path d="M947.36 471.46l7 .62q.49-5.73 1.15-11.43l-7-.79q-.63 5.79-1.15 11.6z" fill="#222" opacity=".2"/><path d="M949.67 450.74l7 .94q.76-5.7 1.69-11.36l-6.92-1.13c-.07.4-.12.8-.18 1.19l4.21 1.4-4.86 3c-.35 1.97-.67 3.96-.94 5.96z" fill="#fff"/><path fill="#222" opacity=".2" d="M946.11 554.95l7-.38-.51-11.48-7 .23.28 6.4 2.06.45-2.02.41.19 4.37zM945.36 534.1l7.01-.13-.12-11.51-7.01.01.12 11.63z"/><path fill="#fff" d="M945.3 513.31l7.01.09.26-11.5-5.87-.19-1.2 2.69-.2 8.91z"/><path fill="#222" opacity=".2" d="M945.55 502.25l.12-.57h-.11l-.01.57zM960.52 615.94c-.73-3.75-1.42-7.51-2-11.29l-6.92 1.15q1 5.76 2.09 11.49z"/><path d="M957.09 595.65c-.55-3.79-1-7.58-1.48-11.38l-7 .8q.66 5.79 1.49 11.57zM954.66 575.27l-.96-11.45-6.99.51.97 11.61 6.98-.67z" opacity=".1"/><path d="M973.55 664.52l-6.63 2.27q1.89 5.52 3.94 11l6.56-2.46q-2.01-5.33-3.87-10.81z" fill="#222" opacity=".2"/><path d="M970.7 655.87q-1.73-5.46-3.28-11l-6.75 1.9q1.59 5.63 3.35 11.2z" fill="#fff"/><path d="M965.07 636.16q-1.43-5.56-2.66-11.16l-6.84 1.52c.85 3.8 1.74 7.59 2.71 11.37zM1002.01 732.27l-1.41-3.09-5-.54 4.91.33-3.3-7.21-6.37 2.91 4.8 10.5 6.37-2.9z" fill="#222" opacity=".2"/><path opacity=".1" d="M987.04 716.32l6.38-2.89-4.69-10.52-4.93 2.16.58 5.29 2.66 5.96z"/><path fill="#fff" d="M985.14 694.59l-3.38-8.21 1 9.21 2.38-1z"/><path fill="#222" opacity=".2" d="M980.74 696.45l.76-10.69-.74-1.8-6.51 2.59 4.43 10.77 2.06-.87z"/><path d="M1021.66 779.17l-6.17 2.23 3 2.37-2.77-.32c1.06 2.95 2.11 5.92 3.09 8.9l6.66-2.2q-1.83-5.53-3.81-10.98zM1014.09 759.77l-6.47 2.68 4.26 10.62 6.54-2.53-4.33-10.77z" fill="#fff"/><path fill="#222" opacity=".2" d="M1010.53 751.36l-4.67-10.6-6.4 2.87 4.63 10.51 6.44-2.78z"/><path d="M1021.59 801.11q1.65 5.46 3.14 11l6.76-1.82q-1.5-5.62-3.19-11.18z" opacity=".1"/><path fill="#fff" d="M1016.73 122.43l-7-.1-.27 11.46 7 .23.27-11.59zM1009.67 101.77l.11 11.47 7.01-.01-.11-11.59-7.01.13z"/><path d="M1012.36 184.75l-7-.94q-.76 5.67-1.68 11.3l6.92 1.13q.98-5.73 1.76-11.49z" opacity=".03"/><path d="M1006.54 174.81l7 .8q.66-5.78 1.17-11.55l-7-.62c-.36 3.79-.71 7.56-1.17 11.37zM1015.4 154.95l.69-11.58-7-.34-.68 11.42 6.99.5zM999.09 245.88l-6.7-2.06q-1.67 5.46-3.51 10.86l6.64 2.26c1.24-3.67 2.48-7.36 3.57-11.06z" fill="#222" opacity=".2"/><path d="M1004.63 225.78l-6.8-1.67q-1.37 5.53-2.9 11l6.75 1.88q1.58-5.56 2.95-11.21z" fill="#fff"/><path d="M1009 205.47l-6.89-1.29q-1.05 5.59-2.27 11.17l6.84 1.51q1.27-5.68 2.32-11.39z" opacity=".1"/><path fill="#222" opacity=".2" d="M965.38 311.76l6.37 2.91 4.78-10.53-6.39-2.87-4.76 10.49z"/><path fill="#fff" d="M973.84 292.94l6.42 2.8 4.55-10.66-6.47-2.69-4.5 10.55z"/><path d="M981.74 274l6.52 2.58c.25-.63.47-1.26.72-1.89l-1.48-2-.47-.64-.31-.41.54-.05.54-.05h.43l-2.59-7.76c-1.26 3.46-2.55 6.87-3.9 10.22z" opacity=".03"/><path d="M990.25 271.4l-2 .18.91 2.73c.36-.97.72-1.94 1.09-2.91z" fill="#fff"/><path d="M940.81 369.28l6.58 2.41q2-5.4 4.09-10.73l-6.48-2.58q-2.18 5.42-4.19 10.9zM959.17 342.56l.26-.63-6.42-2.81-4.57 10.7 3.29 1.37 7.44-8.63z" fill="#222" opacity=".2"/><path fill="#fff" d="M954.91 352.51l3.56-8.33-5.17 7.66 1.61.67zM956.72 330.77l6.39 2.87 4.77-10.5-6.38-2.92-4.78 10.55z"/><path d="M931 431.21c.71-3.76 1.46-7.51 2.28-11.25l-4.6-1L930 431z" opacity=".03"/><path d="M926 420.59c-.66 3.1-1.3 6.21-1.89 9.33l1.39.26z" fill="#222" opacity=".2"/><path d="M938.25 400l-6.75-1.88q-1.56 5.63-3 11.31l6.81 1.67c.95-3.72 1.92-7.41 2.94-11.1z" fill="#fff"/><path d="M934.09 389.28l6.58 2-.2-.44.43.13q1.64-5.31 3.41-10.58l-6.63-2.25q-1.89 5.56-3.59 11.14zM917.05 492.3l7 .34.68-11.47-6.99-.49-.69 11.62z" fill="#222" opacity=".2"/><path d="M925.45 472.08c.33-3.82.73-7.63 1.15-11.43l-2.64-.3-.6 11.54z" opacity=".1"/><path d="M918.47 471.46l4.63.41-.24-11.65-3.22-.36q-.64 5.79-1.17 11.6z" fill="#222" opacity=".2"/><path d="M927.72 451.68q.76-5.7 1.69-11.36l-4.41-.72-.6 11.63zM920.77 450.74l1.89.25-.24-11.29c-.6 3.67-1.14 7.35-1.65 11.04z" fill="#fff"/><path fill="#222" opacity=".2" d="M924.21 554.57l-.5-11.48-2.67.09-.66.92-.29-.89-3.39.11.52 11.63 6.99-.38zM916.38 525.85l3.46 8.18 3.63-.06-.11-11.51-7.01.01.03 3.38z"/><path fill="#fff" d="M917.17 534.08l-.73-2.26.02 2.28.71-.02zM916.4 513.31l7.01.09.26-11.5-7-.22-.27 11.63zM924.75 617.29l6.88-1.35q-1.11-5.62-2-11.29l-6.91 1.15q.9 5.76 2.03 11.49z"/><path d="M928.19 595.65q-.81-5.68-1.47-11.38l-7 .8c.45 3.86.94 7.72 1.5 11.57z" fill="#222" opacity=".2"/><path opacity=".03" d="M925.76 575.27l-.96-11.45-6.99.51.98 11.61 6.97-.67zM944.65 664.52l-6.65 2.27q1.89 5.52 4 11l6.56-2.46q-2.04-5.33-3.91-10.81z"/><path d="M941.81 655.87c-.7-2.19-1.32-4.39-2-6.6l-6.66 2.22c.64 2.17 1.26 4.34 1.94 6.49z" fill="#fff"/><path d="M933.66 646.25l-1.89.53c.25.87.52 1.72.77 2.58z" fill="#222" opacity=".2"/><path d="M936.18 636.16q-1.42-5.56-2.66-11.16l-6.84 1.52q1.26 5.7 2.71 11.37z" opacity=".03"/><path opacity=".1" d="M973.12 732.27l-4.8-10.51-6.37 2.91 4.8 10.5 6.37-2.9z"/><path fill="#222" opacity=".2" d="M964.53 713.43l-4.7-10.52-6.42 2.82 4.73 10.59 6.39-2.89zM956.24 694.59l-4.37-10.63-6.51 2.59 4.43 10.77 6.45-2.73zM992.76 779.17l-6.59 2.39q2 5.37 3.75 10.79l6.65-2.2c-1.21-3.69-2.49-7.35-3.81-10.98zM985.2 759.77l-6.48 2.68 4.26 10.62 6.54-2.53-4.32-10.77z"/><path fill="#fff" d="M976.97 740.76l-6.4 2.87 1.46 3.32 3.46 2.92 4.69-.2-5.34 3.64.36.83 6.44-2.78-4.67-10.6z"/><path fill="#222" opacity=".2" d="M974.65 752.88l2.26-1.81-1.42-1.2-2.13.1 1.29 2.91zM999.4 799.08l-6.7 2q1.65 5.46 3.13 11l6.77-1.82q-1.51-5.62-3.2-11.18z"/><path fill="#fff" d="M1412.81 238.08l-.56.52.09.42.47-.94z"/></svg>