<svg xmlns="http://www.w3.org/2000/svg" xmlns:xlink="http://www.w3.org/1999/xlink" viewBox="0 0 1600 500.17"><defs><linearGradient id="linear-gradient" x1="11779.24" y1="821.18" x2="13020.3" y2="821.18" gradientTransform="matrix(-0.28, 0.96, 0.96, 0.28, 3681.04, -12476.4)" gradientUnits="userSpaceOnUse"><stop offset="0" stop-color="#fff"/><stop offset="1" stop-color="#fff" stop-opacity="0"/></linearGradient></defs><title>bg</title><g style="isolation:isolate"><g id="dizajn"><circle cx="835.49" cy="13.79" r="533" opacity="0.5" fill="url(#linear-gradient)" style="mix-blend-mode:screen"/><path d="M1745.09,1193.58l221-536.83c-231.44-2.31-135.85-496.74-354.84-484-185.36,10.8-137.55,274-577.64,217.57-264.74-34-224.93,146-402.39,181.64-127,25.47-248.74-23.52-311.52-17.65-94.3,8.82-198.65,82.44-258.86,194.18Z" fill="#231f20" opacity="0.04"/><path d="M76.55-440.14-151.13,167C-2.26,175.19-96.45,349.35,46.12,345.69c120.68-3.1,120-206.11,397.09-150.59C609.92,228.5,604.84,89.48,723.26,67.16c84.75-16,157.6,25,198.73,22.2,61.77-4.13,137.42-57.62,189-141.56Z" fill="#1f1646" opacity="0.02"/></g></g></svg>