<svg data-name="Layer 1" xmlns="http://www.w3.org/2000/svg" viewBox="0 0 120 120"><path d="M20.67 35.05a4.33 4.33 0 00-4.46-4.28c-3 0-4 1.83-4.6 4.76a.25.25 0 01-.31.21L8.25 35a.29.29 0 01-.25-.28c.88-4.83 3.57-7.37 8.13-7.37a7.9 7.9 0 018.17 7.77c0 2.85-1 4.65-5.43 9.68l-4 4.61a.26.26 0 00.2.43H24a.27.27 0 01.27.27v3a.27.27 0 01-.27.27H8.8a.27.27 0 01-.26-.27v-1.58a.28.28 0 01.06-.18l7.93-9.21c3.24-3.74 4.14-5.36 4.14-7.09zM41.78 46.9l2.92-.83a.27.27 0 01.33.21c.53 2.62 1.77 4 4.51 4a4.45 4.45 0 004.61-4.54c0-3-1.85-4-5.43-4.1a.26.26 0 01-.26-.26v-2.87a.26.26 0 01.26-.26c3.42-.08 5-1.07 5-3.74a3.67 3.67 0 00-3.92-3.74c-2.34 0-3.29 1.18-4 3.74a.27.27 0 01-.31.19l-3-.74a.26.26 0 01-.19-.32c1-4.18 3.16-6.29 7.46-6.29 4.5 0 7.6 3 7.6 7.12A6.37 6.37 0 0155 39.69a.26.26 0 000 .42 6.85 6.85 0 012.83 5.77c0 4.54-3.45 7.89-8.35 7.89-4.42 0-7.31-2.43-7.89-6.57a.28.28 0 01.19-.3z" fill="#0e6ffa"/><path d="M75.59 29a35 35 0 11-30.42 52.44L75.52 64z" fill="none" stroke="#87b7fd" stroke-linecap="round" stroke-linejoin="round" stroke-width="2"/><path d="M94.29 93.55a35 35 0 01-49.08-12L75.52 64" fill="none" stroke="#3993ff" stroke-linecap="round" stroke-linejoin="round" stroke-width="2"/><path fill="none" stroke="#4a93fb" stroke-linecap="round" stroke-linejoin="round" stroke-width="2" d="M30.14 56.96l7.99-31.62"/><path fill="none" stroke="#87b7fd" stroke-linecap="round" stroke-linejoin="round" stroke-width="2" d="M30.12 57.04L34.2 40.9"/><path fill="none" stroke="#0e6ffa" stroke-linecap="round" stroke-linejoin="round" stroke-width="2" d="M34.13 62.7v13.34h53.6"/><path fill="none" stroke="#0e6ffa" stroke-linecap="round" stroke-linejoin="round" stroke-width="2" d="M81.24 69.56l6.49 6.48-6.49 6.48"/></svg>