<svg id="Слой_1" data-name="Слой 1" xmlns="http://www.w3.org/2000/svg" viewBox="0 0 1350 686.71"><g id="Chair_1" data-name="Chair 1"><path d="M490.28,585.32c-9.18-54.81-19-126.5-28.19-181.3-.78-4.67-7.88-2.69-7.1,2,9.18,54.81,19,126.5,28.19,181.3C484,591.94,491.06,590,490.28,585.32Z" fill="#d24a43"/><path d="M572.53,585.32Q558.76,503.1,545,420.91c-.78-4.66-7.88-2.68-7.1,2q13.77,82.2,27.55,164.4C566.21,591.94,573.31,590,572.53,585.32Z" fill="#d24a43"/><path d="M354,402.53c-6,55.67-11.37,128.23-17.38,183.89-.5,4.71,6.87,4.67,7.37,0,6-55.66,11.37-128.22,17.37-183.89C361.86,397.83,354.49,397.86,354,402.53Z" fill="#d24a43"/><path d="M440.07,268.9,430,217.05c-2.76-14.17-13.13-24.18-25.07-24.18H329.33c-16.65,0-28.93,19-25.07,38.76l10.11,51.84c2.77,14.18,13.14,24.18,25.07,24.18H415C431.65,307.65,443.93,288.67,440.07,268.9Z" fill="#d24a43"/><path d="M328.19,221.6a4.37,4.37,0,0,0-6,1.06l-.5.71a4.29,4.29,0,0,0,7,4.92l.5-.71A4.34,4.34,0,0,0,328.19,221.6Z" fill="#fff"/><path d="M332.53,246.09a4.38,4.38,0,0,0-6,1.06l-.49.71a4.3,4.3,0,1,0,7,4.93l.5-.71A4.36,4.36,0,0,0,332.53,246.09Z" fill="#fff"/><path d="M344.77,221.6a4.38,4.38,0,0,0-6,1.06l-.49.71a4.29,4.29,0,1,0,7,4.92l.49-.71A4.35,4.35,0,0,0,344.77,221.6Z" fill="#fff"/><path d="M336.86,270.59a4.37,4.37,0,0,0-6,1.06l-.5.71a4.29,4.29,0,0,0,7,4.92l.5-.71A4.34,4.34,0,0,0,336.86,270.59Z" fill="#fff"/><path d="M342.42,299.78a38.61,38.61,0,0,1-7.8-1.8q9.69,52.53,19.36,105,3.63-.55,7.29-.94Q351.84,350.93,342.42,299.78Z" fill="#d24a43"/><path d="M507.13,392.05H344c-6.06,0-6.07,20.25,0,20.25H507.13C513.19,412.3,513.2,392.05,507.13,392.05Z" fill="#d24a43"/></g><g id="Code"><rect x="893.38" y="56" width="110.69" height="85.32"/><path d="M975.83,73.8h-57.7a1.23,1.23,0,0,0,0,2.45h57.7A1.23,1.23,0,0,0,975.83,73.8Z" fill="#fff"/><path d="M975.83,88.53h-57.7a1.23,1.23,0,0,0,0,2.45h57.7A1.23,1.23,0,0,0,975.83,88.53Z" fill="#fff"/><path d="M975.83,103.26h-57.7a1.23,1.23,0,0,0,0,2.45h57.7A1.23,1.23,0,0,0,975.83,103.26Z" fill="#fff"/><path d="M960.19,118H917.82c-1.16,0-1.16,2.45,0,2.45h42.37C961.35,120.44,961.35,118,960.19,118Z" fill="#fff"/><path d="M912.92,81.78a1.23,1.23,0,0,1-.89-.38L905.89,75a1.22,1.22,0,0,1,0-1.71l6.14-6.14a1.22,1.22,0,0,1,1.73,1.73l-5.29,5.29,5.31,5.58a1.23,1.23,0,0,1,0,1.74A1.25,1.25,0,0,1,912.92,81.78Z" fill="#fff"/><path d="M965.7,127.5a1.24,1.24,0,0,1-.87-.36,1.22,1.22,0,0,1,0-1.73l5.29-5.29-5.31-5.58a1.23,1.23,0,1,1,1.78-1.69l6.14,6.44a1.23,1.23,0,0,1,0,1.72l-6.14,6.13A1.22,1.22,0,0,1,965.7,127.5Z" fill="#fff"/><path d="M885.83,50.24,871.05,33.71c-1-1.18-2.78.56-1.73,1.74L884.09,52C885.15,53.16,886.88,51.42,885.83,50.24Z" fill="#bcd7fd"/><path d="M1020.38,39.78l-11.66,11c-1.15,1.09.59,2.83,1.74,1.74l11.66-11C1023.27,40.43,1021.53,38.7,1020.38,39.78Z" fill="#bcd7fd"/><path d="M890.2,142.85l-9.9,12.21c-1,1.22.74,3,1.73,1.74l9.91-12.21C892.92,143.37,891.2,141.63,890.2,142.85Z" fill="#bcd7fd"/></g><g id="Chair_2" data-name="Chair 2"><path d="M914,586.63,882,382.6a47.24,47.24,0,0,1-7,2.92q15.83,100.71,31.66,201.41C907.41,591.57,914.77,591.3,914,586.63Z" fill="#d24a43"/><path d="M892.59,388H729.46c-6.06,0-6.07,20.26,0,20.26H892.59C898.65,408.21,898.66,388,892.59,388Z" fill="#d24a43"/></g><g id="Man_1" data-name="Man 1"><g id="Body"><path d="M777.17,94.46c-45-4.91-56.88-11.87-66.29,29.05S693.69,243,693.69,243l69.15,38.05H894.6S898.7,91.19,850.41,91.6C814.58,91.9,777.17,94.46,777.17,94.46Z" fill="#d24a43"/></g><g id="Hand"><path d="M829.44,231.85c-44.5,7.67-71.1,20.56-80.92,24.65l.41,24.14,120.3.41C862.58,261.31,846.93,241.67,829.44,231.85Z" fill="#dd9950"/><path d="M832.64,149.68a.62.62,0,0,0-1.23,0q-.93,39.18-1.85,78.34a.62.62,0,0,0,1.14.31C831.13,227.66,832.64,149.68,832.64,149.68Z" fill="#fff"/></g><g id="Hand-2" data-name="Hand"><path d="M756.4,232.77c-.64-1.43-45.16-69.75-78.61-103.47a1.37,1.37,0,0,0-.23-.4,66,66,0,0,0-16.32-14.54c-1.28-.79-2.68-1.64-4.16-2.47-3.14-2.34-6.19-4.78-9.15-7.35-2.33-2-7.22-8.91-11.06-7.78a3,3,0,0,0-1.6,1.1l-.14.22a5.52,5.52,0,0,0-.25,4.42,13.66,13.66,0,0,0,4.76,6.38c3.52,4.51,1.67,7.58-1.65,6.27a36.12,36.12,0,0,0-9.64-4.18c-1.2-.51-2.43-1-3.69-1.36-3.43-6.89-8.71-16.17-11.44-14.33A11.7,11.7,0,0,0,610,106.63c-2.15,1.54-1.31,7.39-.31,10.13,2.94,8,4.41,11.35,10.13,17.8,6,6.76,21.1,9.3,28.54,13.81,8,6.45,52.06,96.61,49.72,96.06C698.09,244.43,758,236.35,756.4,232.77Z" fill="#dd9950"/><path d="M653.19,129a26.31,26.31,0,0,1-9.77-14.27.61.61,0,0,0-1.18.33,27.61,27.61,0,0,0,10.33,15C653.2,130.48,653.82,129.42,653.19,129Z" fill="#952c28"/><path d="M628,124.28a11.48,11.48,0,0,0-5.2-2.42c-1.55-.37-1.12.22-1.52-1.36-.21-.84-.24-1.76-.41-2.61A28.53,28.53,0,0,0,615,105.68c-.49-.61-1.36.26-.87.87a27.27,27.27,0,0,1,6,15.92.62.62,0,0,0,.61.62,8.33,8.33,0,0,1,6.33,2.06C627.71,125.66,628.58,124.79,628,124.28Z" fill="#952c28"/><path d="M629.74,117a7.22,7.22,0,0,0-6.12-1.88,26.1,26.1,0,0,0-9.47-15.69c-.61-.48-1.48.38-.86.87A25.13,25.13,0,0,1,622.56,116a.61.61,0,0,0,.75.43,5.94,5.94,0,0,1,5.56,1.46C629.46,118.37,630.33,117.5,629.74,117Z" fill="#952c28"/><path d="M624.94,130c-1.36-2.74-4.67-3-6-5.93-1.88-4-3.18-8.38-4.74-12.52-.27-.73-1.46-.41-1.18.33,1.58,4.2,2.95,8.57,4.78,12.67a6.81,6.81,0,0,0,1.9,2.73c1.44,1.2,3.33,1.53,4.22,3.34C624.23,131.29,625.29,130.67,624.94,130Z" fill="#952c28"/><path d="M735.29,136.71q-1,22.71-2,45.42c0,.79,1.19.79,1.23,0q1-22.71,2-45.42C736.55,135.92,735.32,135.92,735.29,136.71Z" fill="#fff"/></g><g id="Legs"><path d="M850.08,588.31c.76-26.2,1.15-58.82,1.15-82.61-20.24,3.26-40.05,1.83-60.56,2.46,10.23,46.64,10.64,50.73-1.64,54-13.85,3.69-13.12,19.87-12.28,26.14Z" fill="#dd9950"/><path d="M762.61,588.31c1.7-24.92,2.66-58.87,1.87-83-7.92.21-56.05-1-58.92-.82,8.34,33.77,12.32,55.52-5.32,59.34-13.94,3-12.41,18.4-11.22,24.5Z" fill="#dd9950"/><path d="M850.08,588.31c.49-16.94.83-36.55,1-54.74-22.76,2.11-41.15,2.13-55.05,0,4.41,23,2.53,26.06-7,28.6-13.85,3.69-13.12,19.87-12.28,26.14Z" fill="#0083f9"/><path d="M762.61,588.31c1.1-16.16,1.89-36.11,2.1-54.74-17.64,2.32-35.3,1.92-53,0,2.44,17,.36,27.67-11.5,30.24-13.94,3-12.41,18.4-11.22,24.5Z" fill="#0083f9"/><path d="M850.08,588.31c.27-9.29.49-19.37.67-29.59-6.45,3.61-13.28,5.34-21.21,2.22-5.4-2.13-11.42-7.36-17.3-7.89a24.63,24.63,0,0,0-15,3.86c-1.36,2.94-4.06,4.15-8.23,5.26-13.85,3.69-13.12,19.87-12.28,26.14Z"/><path d="M762.61,588.31c.53-7.79,1-16.46,1.34-25.43q-9,2.91-19.56-1.63c-9.71-4.16-24-14.38-33.52-4.41a6.13,6.13,0,0,1-1.37,1.09c-2,3-5,5-9.26,5.88-13.94,3-12.41,18.4-11.22,24.5Z"/><path d="M690.57,279.87c-17.32,11.29-26.36,35.87-14.47,106.75,11.12,66.36,19.39,104.06,25,127.67,4.65,0,52.3.8,66.29.82a913.84,913.84,0,0,0-6.14-116.21c57-2.14,48.59-64.84,37.58-119Z" fill="#2252b2"/><path d="M757.12,374.8c2.16,12.53,4.09,24.1,4.09,24.1,30.29-1.14,42.1-19.39,44.87-44.38C790,362,774,369.8,757.12,374.8Z"/><path d="M768.31,279.87c-7.62,14.6-8.7,43.31-1.07,98.06,8.72,62.57,13.44,109.81,16.06,136,20.27-.12,49.75.79,70-.41,4-64.48-.41-112.12-.41-112.12,19.7-.73,31.18-9,37.29-21.68,11.55-24,3.85-64.11-3.74-99.8Z" fill="#2252b2"/><path d="M814.68,279.87c18.11,19.66,48.64,25.44,75.91,20.52-1.3-6.91-2.74-13.79-4.17-20.52Z"/><path d="M771.82,279.87h-2.16c-8.93,6.75-9.5,20.78-9.54,31.39a326,326,0,0,0,3.93,51.37c.12.78,1.31.47,1.19-.3a325.87,325.87,0,0,1-3.88-46.27C761.23,304.37,760.41,286.61,771.82,279.87Z"/><path d="M870.67,382.47a61.38,61.38,0,0,1-17.8-6v24.85c17.42-.65,28.4-7.17,34.94-17.46A83.42,83.42,0,0,1,870.67,382.47Z"/><path d="M756.42,371.17,754,365.45c-.31-.73-1.37-.1-1.06.62l2.46,5.72C755.67,372.52,756.73,371.89,756.42,371.17Z" fill="#fff"/><path d="M851.43,365.76c-.09-.78-1.32-.79-1.22,0l.81,6.54c.1.78,1.33.79,1.23,0Q851.85,369,851.43,365.76Z" fill="#fff"/><path d="M757.93,505.9h-54a.62.62,0,0,0,0,1.23h54A.62.62,0,0,0,757.93,505.9Z" fill="#fff"/><path d="M842.64,505.9h-54a.62.62,0,0,0,0,1.23h54A.62.62,0,0,0,842.64,505.9Z" fill="#fff"/></g><g id="Head"><path d="M780,123.72c6.32,4.39,12.25,4.39,17.35,1.93,2.1-13.09,4.81-29.33,5.35-29.89L774.5,84.52l-7.86,11C767.57,105.06,772.17,118.32,780,123.72Z" fill="#dd9950"/><path d="M798.72,116.91c1.75-10.64,3.5-20.71,3.93-21.15l-15.18-5.43C786.25,99.69,791.74,109.49,798.72,116.91Z"/><path d="M756.26,52.83c3.06-10.15,21.45-16.27,34-14.26,5.46.88,7.94-3,9.44,1.28,3.74,10.65,16.38,43.37,12.44,53.66-5.7,14.9-25.17,13-35.61,3.89S751.89,67.26,756.26,52.83Z" fill="#dd9950"/><path d="M797.52,31c-5.68-1.23-13.53,3.69-16.68,7.41-11.55-1.75-23.55,4.15-25.91,11.95-14.35,5.08-2.2,35.35,10.78,34.68,3.56-2.69,3.86-6.64,6.28-11.15,11.16-7.86,8.59-18.14,7.85-23.56,3.81,1.29,19.63-5.45,21.3-10C803.06,33.75,799.28,31.42,797.52,31Z" fill="#952c28"/><path d="M792.25,65.91l-1.11-4.64c-.2-.83-1.47-.48-1.28.35L791,66.26C791.16,67.09,792.44,66.74,792.25,65.91Z"/><path d="M804.4,62.15l-1.11-4.64c-.2-.83-1.47-.47-1.28.36l1.11,4.64C803.32,63.34,804.59,63,804.4,62.15Z"/><path d="M805.9,70c-.38-.77-1.52-.09-1.15.67a2.21,2.21,0,0,1-1.07,2.7,8.32,8.32,0,0,1-3,1c-.84.16-.48,1.44.35,1.28,1.53-.29,3.24-.65,4.31-1.89A3.35,3.35,0,0,0,805.9,70Z" fill="#952c28"/><path d="M799.62,89.37a3.12,3.12,0,0,1-2.87-1c-.58-.63-1.52.31-.94.94A4.5,4.5,0,0,0,800,90.65C800.81,90.51,800.45,89.23,799.62,89.37Z" fill="#952c28"/><path d="M788.91,54.72l-2.18,1.36c-1.45.91-.12,3.2,1.34,2.29L790.25,57C791.7,56.11,790.37,53.81,788.91,54.72Z" fill="#952c28"/><path d="M803.33,52.57a1.34,1.34,0,0,0-1.81-.48l-2,1.54a1.37,1.37,0,0,0-.48,1.81,1.34,1.34,0,0,0,1.82.48l2-1.54A1.37,1.37,0,0,0,803.33,52.57Z" fill="#952c28"/><path d="M796.33,60c-.44-.71-1.65-.18-1.21.55,2.29,3.76,1.36,8.79-2.85,10.74-4.44,2-9.19-.84-10.17-5.43-.18-.83-1.49-.63-1.31.21,1.09,5.09,6.09,8.53,11.23,6.74A8.63,8.63,0,0,0,796.33,60Z" fill="#fff"/><path d="M813.56,53.08c-.43-.72-1.65-.19-1.21.54,2.29,3.76,1.37,8.8-2.85,10.74-4.44,2-9.18-.84-10.17-5.43-.17-.83-1.49-.63-1.31.21,1.1,5.1,6.09,8.53,11.23,6.74A8.62,8.62,0,0,0,813.56,53.08Z" fill="#fff"/><path d="M799.12,60.87l-2,1c-.77.38-.1,1.52.67,1.14l2-1C800.55,61.64,799.88,60.49,799.12,60.87Z" fill="#fff"/><path d="M782.22,68.83c-5.48,1.26-12.11,3.66-17.59,4.92-.83.2-.48,1.47.36,1.28,5.61-1.29,12.37-3.72,18-5A5.66,5.66,0,0,1,782.22,68.83Z" fill="#fff"/><path d="M756.43,82.58c.25-6,7.81-11.66,15.56-8.65,2.14,6.18,4.47,12.28,6.89,18.36-2.79,2.59-9.6,4.88-14.52,3C758.75,93.24,756.16,89,756.43,82.58Z" fill="#dd9950"/><path d="M765.89,81.83c-.76-.38-1.44.77-.67,1.15l6.16,3.09a.68.68,0,0,0,1-.75C772.3,85.11,767.61,82.7,765.89,81.83Z" fill="#952c28"/></g></g><g id="Man_2" data-name="Man 2"><g id="Head-2" data-name="Head"><path d="M1067.87,96.94c1.3.49,28.78,40.89,28.78,40.89l28.81-32.91-37.61-28Z" fill="#952c28"/><path d="M1076.73,108.93c-4.65-6.63-8.4-11.82-8.86-12l7.43-7.46C1078.3,95.56,1079.39,103.25,1076.73,108.93Z"/><path d="M1081.58,32.05c-8-7.93-28.3-4.34-39,3.91-4.66,3.59-9,1.19-8.18,6,1.91,11.85,8.17,50.24,15.58,56.46,13,10.92,30.13-.58,35.26-14.41S1093,43.33,1081.58,32.05Z" fill="#952c28"/><path d="M1030.94,40.52c2,9.53,19.49,4.55,28.44.06,2.43,10.24,9.61,35.47,29.7,36.87,8.05-18.11,7.34-45.27-4.4-44.44-10.72-14.95-31.4-5.3-42.11,3C1037.56,31.36,1031.53,32.38,1030.94,40.52Z"/><path d="M1082.36,56.15c-3.27-5.49-13.21-6.94-18.92-.19,1.13,6.85,2,13.74,2.86,20.65,3.92,1,11.45-.31,15.12-4.52C1085.61,67.29,1085.89,62.06,1082.36,56.15Z" fill="#952c28"/><path d="M1035.47,70a4.44,4.44,0,0,1,4.59-4.75,1.57,1.57,0,0,1,1.38,1.74,1.29,1.29,0,0,1-.07.21,3.56,3.56,0,0,1,.78.14c1.94.56.79,3.48-1.14,2.92,0,0-.13.06.06.08a1.59,1.59,0,0,1,.45,3A4.4,4.4,0,0,1,1035.47,70Z" fill="#952c28"/><path d="M1042.75,57.77c-.33,1.45-.67,2.91-1,4.37-.2.84,1.1,1.2,1.29.35.34-1.45.67-2.91,1-4.36C1044.24,57.28,1043,56.92,1042.75,57.77Z"/><path d="M1075,59.29l-2.67,3.35h0l-.72.91c-.54.67.41,1.62,1,1,1.13-1.43,2.27-2.85,3.4-4.27C1076.47,59.57,1075.52,58.61,1075,59.29Z"/><path d="M1059.15,85.66c-.12-.86-1.42-.49-1.29.35a6.76,6.76,0,0,1-3,6.64c-.72.47,0,1.64.68,1.16A8.14,8.14,0,0,0,1059.15,85.66Z"/><path d="M1045.78,50.6l-3.36-.67a1.38,1.38,0,0,0-1.66.94,1.36,1.36,0,0,0,.94,1.65l3.36.67a1.34,1.34,0,0,0,.72-2.59Z"/></g><g id="Hand-3" data-name="Hand"><path d="M1086.92,152.57c-26.73,36-33.71,54.89-33.71,54.89s-29.21-59.64-41-71.83c0,0-34.51-12.42-38.81-6.06s-2.5,18.66.06,26.11,12.7,11.5,22.38,10.53c0,0,22.33,103.17,41.95,107.48s39.29,1.94,41.66,1.65c13.17-1.65,64.63-99,64.73-102.31S1086.92,152.57,1086.92,152.57Z" fill="#841e1e"/><path d="M1056.21,213.58l-2.14-5.22c-.3-.72-1.49-.4-1.19.33.72,1.74,1.43,3.48,2.15,5.21C1055.33,214.62,1056.51,214.31,1056.21,213.58Z" fill="#fff"/><g id="Cup"><rect x="977.4" y="123.61" width="29.46" height="37.65" transform="translate(33.83 -151.27) rotate(8.87)" fill="#2252b2"/><path d="M989.31,129.72q-1.63,11.06-3.25,22.1c-.23,1.55,2.14,2.22,2.37.66l3.24-22.1C991.9,128.83,989.54,128.16,989.31,129.72Z" fill="#fff"/><path d="M999.12,101.11a12.26,12.26,0,0,0-6.33,14.57c.46,1.5,2.83.86,2.36-.65a9.84,9.84,0,0,1,5.21-11.8C1001.78,102.55,1000.54,100.44,999.12,101.11Z" fill="#bcd7fd"/><path d="M1002.46,105.34a10.31,10.31,0,0,0-4.68,10.31c.22,1.56,2.58.9,2.37-.65a7.74,7.74,0,0,1,3.55-7.54C1005,106.62,1003.8,104.49,1002.46,105.34Z" fill="#bcd7fd"/></g><path d="M978.32,129c-1.17-.42-1.8,1-1.3,1.81a3.59,3.59,0,0,0-2.16.76,4,4,0,0,0,.36,6.32,1.11,1.11,0,0,0,.7.22,10.35,10.35,0,0,0,.66,3l-.14.38a3.38,3.38,0,0,0-2.07,1.22,6.09,6.09,0,0,0-1.13,2.44c-2,2.7-4.27,6.24-2.6,9.7a4.81,4.81,0,0,0,5.47,2.73c3.31-.92,4.28-4.63,3.32-7.58a5.58,5.58,0,0,0,.18-.58c.12-.27.22-.53.31-.78a10.5,10.5,0,0,0,.41-1.79,6.48,6.48,0,0,0,1.76-4.62,8.79,8.79,0,0,0,2.08-3.7C985.23,134.18,982.32,130.42,978.32,129Zm-1.84,4.46a2.68,2.68,0,0,0,0,.49,2.3,2.3,0,0,0,.15.72,3,3,0,0,0-.42.81A1.51,1.51,0,0,1,976.48,133.47Z" fill="#841e1e"/><path d="M980.81,139.5a8.27,8.27,0,0,1-6.07-6.57c-.12-.64-1.08-.37-1,.26a9.23,9.23,0,0,0,6.77,7.27A.5.5,0,0,0,980.81,139.5Z"/><path d="M977.8,145.9a5.68,5.68,0,0,1-4.26-4,.5.5,0,0,0-1,.27,6.69,6.69,0,0,0,4.95,4.7C978.16,147,978.43,146.05,977.8,145.9Z"/><path d="M977.45,153.32a5.06,5.06,0,0,1-4-4.07c-.11-.64-1.08-.37-1,.26a6,6,0,0,0,4.64,4.78C977.81,154.42,978.08,153.46,977.45,153.32Z"/><path d="M1023.6,153.47c-.31-5.91-3.1-13.57-8.1-17.85-13.88-8.94-15.69-9.89-17.38-8.44-3.44,2.95-.45,6.74,2.58,8.85a23,23,0,0,0,3.45,3.77c.19.83,6,13.53,7.66,15.63a1.37,1.37,0,0,0,2.14-.06,3.68,3.68,0,0,0,2.88-.64,5.19,5.19,0,0,0,3.9-2.53c.16.56.32,1.12.47,1.68A1.23,1.23,0,0,0,1023.6,153.47Z" fill="#841e1e"/><path d="M1011.52,153.26l-3.4-6.3c-.31-.56-1.17-.06-.86.51l3.4,6.3C1011,154.33,1011.83,153.83,1011.52,153.26Z"/></g><g id="Legs-2" data-name="Legs"><path d="M1062.23,588.31c-4.56-20.53-36.67-162.67-62.46-212.73l-28.65-4.91,55,217.64Z" fill="#841e1e"/><path d="M1062.23,588.31c-1-4.7-3.52-15.71-7-30.52a77,77,0,0,1-35.27,6l6.21,24.56Z" fill="#2252b2"/><path d="M1043.34,509.75c-12.49-48.47-29-105.95-43.57-134.17l-28.65-4.91,36,142.19C1019.17,512,1031.27,511,1043.34,509.75Z"/><path d="M1206.15,278.48c-38.84-.65-77.71-2.71-116.49-1.36.57,7.6.95,12.12.95,12.12s-19.64,2.45-98.21,8.59-100.66,25.78-63.83,139.94,55.65,120.31,32.73,126c-29.49,7.37-32.51,19.34-32.32,24.5h103.33c-9.93-133.37-33.77-200.87-33.77-200.87l70,1.23C1232.11,391.54,1214.41,339.78,1206.15,278.48Z" fill="#952c28"/><path d="M1206.15,278.48c-38.84-.65-77.71-2.71-116.49-1.36.57,7.6.95,12.12.95,12.12s-19.64,2.45-98.21,8.59-100.66,25.78-63.83,139.94c14.7,45.57,26.52,73.92,34,91.91,21-3.32,42.05-5.61,63.16-7.89-11.25-89.27-27.17-134.35-27.17-134.35l70,1.23C1232.11,391.54,1216.64,378,1206.15,278.48Z"/><path d="M1032.31,588.31q-1-13.2-2.13-25.53a61.12,61.12,0,0,1-18.86,2.35c-13.51-.52-27-5.59-40.57-6.63-1.15,2.65-4.2,4-9.45,5.31-29.49,7.37-32.51,19.34-32.32,24.5Z" fill="#2252b2"/><path d="M995.16,384.48a565.18,565.18,0,0,1,19.19,90.06c.1.77,1.33.78,1.23,0a568.73,568.73,0,0,0-19.14-90.09Z" fill="#fff"/><path d="M1113.53,291l-18,.59a.62.62,0,0,0,0,1.23l18-.59C1114.32,292.24,1114.33,291,1113.53,291Z" fill="#fff"/><path d="M1035,567.05c-.1-.77-1.33-.78-1.22,0q1.26,9.81,2.53,19.63c.1.77,1.32.78,1.22,0Q1036.25,576.87,1035,567.05Z" fill="#fff"/></g><g id="Body-2" data-name="Body"><path d="M1206.11,278.19H1089.59c-.15-1.51-.3-3.14-.44-4.91-.58-6.47-1.27-14.59-2-23.73-.13-1.61-.26-3.24-.38-4.91q-.27-3.21-.52-6.56c-.11-1.6-.23-3.24-.36-4.91-.56-7.6-1.1-15.59-1.62-23.73-.1-1.63-.21-3.26-.3-4.91q-.2-3.25-.38-6.54c-.09-1.63-.19-3.28-.27-4.91-.39-7.18-.73-14.33-1-21.29-.06-1.64-.12-3.29-.17-4.91q-.11-3.31-.19-6.54c0-1.66-.08-3.29-.12-4.91-.18-9.65-.17-18.56.13-26.18.07-1.71.14-3.34.24-4.91.06-1,.13-1.94.2-2.88a35.87,35.87,0,0,1,.48-3.68,32.64,32.64,0,0,1,1.23-4.91c5.14-15.61,19.94-23.24,28.17-18.82,5.31,2.86,14.31,9.42,14.31,9.42a129.14,129.14,0,0,1,11.28,9.4c1.73,1.6,3.42,3.23,5,4.91,2.07,2.12,4.09,4.31,6,6.56q2.1,2.4,4.08,4.91a181.55,181.55,0,0,1,17.33,26.18c.89,1.62,1.76,3.25,2.6,4.91,1.13,2.16,2.21,4.35,3.24,6.54.78,1.64,1.55,3.27,2.27,4.91,3.12,6.94,5.92,14.06,8.45,21.29.57,1.63,1.14,3.27,1.68,4.91q1.08,3.25,2.1,6.54c.49,1.64,1,3.27,1.46,4.91,2.29,7.87,4.31,15.8,6.07,23.73.38,1.64.74,3.27,1.08,4.91.47,2.19.91,4.37,1.34,6.56.32,1.64.63,3.28.93,4.91,1.5,8,2.75,16,3.84,23.73.19,1.37.38,2.72.56,4.09C1206,277.64,1206.07,277.92,1206.11,278.19Z" fill="#feca55"/><path d="M1111,194.66l-5.25-46.53c-.09-.78-1.31-.78-1.23,0q2.64,23.26,5.26,46.53Z" fill="#fff"/><path d="M1206.11,278.19H1089.59c-.15-1.51-.3-3.14-.44-4.91h116.29c.19,1.37.38,2.72.56,4.09C1206,277.64,1206.07,277.92,1206.11,278.19Z" fill="#fff"/><path d="M1199.33,238.08H1086.25c-.11-1.6-.23-3.24-.36-4.91h112.36C1198.63,234.81,1199,236.44,1199.33,238.08Z" fill="#fff"/><path d="M1201.6,249.55H1087.15c-.13-1.61-.26-3.24-.38-4.91h113.9C1201,246.28,1201.3,247.92,1201.6,249.55Z" fill="#fff"/><path d="M1142.94,117.78h-60a32.64,32.64,0,0,1,1.23-4.91h53.76C1139.62,114.47,1141.31,116.1,1142.94,117.78Z" fill="#fff"/><path d="M1153.05,129.25H1082c.07-1.71.14-3.34.24-4.91H1149Q1151.07,126.74,1153.05,129.25Z" fill="#fff"/><path d="M1173,160.34h-91c0-1.66-.08-3.29-.12-4.91h88.53C1171.27,157.05,1172.14,158.68,1173,160.34Z" fill="#fff"/><path d="M1178.49,171.79h-96.16c-.06-1.64-.12-3.29-.17-4.91h94.06C1177,168.52,1177.77,170.15,1178.49,171.79Z" fill="#fff"/><path d="M1188.62,198h-105c-.09-1.63-.19-3.28-.27-4.91h103.62C1187.51,194.71,1188.08,196.35,1188.62,198Z" fill="#fff"/></g><g id="Hand-4" data-name="Hand"><path d="M1173.47,207.6c-.58-1.46-46.44-3.18-61.18-.2l1,10.64c-50.25.83-82.78,9.52-101.43,16.77-12.21,2.89-32.13,6.79-37.6,13-6.5,7.39-11.63,11.94-6.59,16.57-.65,1.07,1.6,5.65,4,4.45-.49.79,1,3.19,4.91,3.37,2.93,2.52,8.9-.76,12.43-6.13,3.06-.92,6.83-1.64,9.66-5.37,0,0,14.58,7.05,33-3.38,0,0,38.56,21,114.17,14.12C1193.11,267.14,1188.2,245,1173.47,207.6Z" fill="#952c28"/><path d="M1119.63,218.32l-4.3-.63c-.77-.11-1.11,1.07-.33,1.19l4.3.63C1120.07,219.62,1120.4,218.44,1119.63,218.32Z" fill="#fff"/><path d="M987,257.69a52.86,52.86,0,0,0-9.84,12.67.61.61,0,0,0,1.06.62,51.7,51.7,0,0,1,9.65-12.42C988.39,258,987.52,257.15,987,257.69Z"/><path d="M981.85,252.9a39.67,39.67,0,0,0-9.6,15c-.27.74.92,1.06,1.18.32a38.46,38.46,0,0,1,9.28-14.49C983.28,253.21,982.41,252.34,981.85,252.9Z"/><path d="M979.26,248.72c-7,1.29-9.55,8.2-11.37,14.21-.23.76,1,1.08,1.19.33,1.69-5.6,4-12.15,10.51-13.35C980.36,249.77,980,248.58,979.26,248.72Z"/><path id="Stripe" d="M1192.18,209.44H1084.27c-.1-1.63-.21-3.26-.3-4.91h106.75C1191.21,206.17,1191.7,207.8,1192.18,209.44Z" fill="#fff"/></g></g><g id="Chair_3" data-name="Chair 3"><path d="M1169.16,391.53H1017a3.68,3.68,0,0,1,0-7.36h152.21a38.13,38.13,0,0,0,37.07-29l55.12-221.91a3.68,3.68,0,1,1,7.15,1.77L1213.38,357A45.48,45.48,0,0,1,1169.16,391.53Z" fill="#d24a43"/><path d="M1035.63,388.81q-15.36,98.51-30.7,197c-.72,4.64,6.37,6.64,7.1,2q15.5-99.42,31-198.84Q1039.3,389,1035.63,388.81Z" fill="#d24a43"/><path d="M1220.32,586.63l-32.07-204a47.24,47.24,0,0,1-7,2.92q15.83,100.71,31.66,201.41C1213.69,591.57,1221.06,591.3,1220.32,586.63Z" fill="#d24a43"/></g><g id="Notebook"><path d="M967.25,272.23c-13.56-32.31-21-48.9-34.59-81.2-.6-1.43-3-.8-2.37.65,13.56,32.31,21,48.9,34.59,81.2C965.48,274.31,967.86,273.68,967.25,272.23Z"/><path d="M1055.31,272.2H967.54a1.23,1.23,0,0,0,0,2.46h87.77A1.23,1.23,0,0,0,1055.31,272.2Z"/><path d="M961.06,169.54l-13.1,18c-.93,1.28,1.19,2.5,2.12,1.24l13.1-18C964.11,169.5,962,168.27,961.06,169.54Z" fill="#feca55"/><path d="M968.84,186.25l-16.37,9c-1.38.76-.14,2.88,1.24,2.12l16.37-9C971.47,187.6,970.23,185.48,968.84,186.25Z" fill="#feca55"/></g><g id="Notebook-2" data-name="Notebook"><rect x="683.05" y="152.98" width="20.46" height="49.92" fill="#697ccc"/><rect x="657.68" y="165.25" width="20.46" height="49.92" fill="#697ccc"/><rect x="708.42" y="179.16" width="20.46" height="49.92" fill="#bcd7fd"/><path d="M781.83,166.27l-12.27,17.18c-.92,1.29,1.21,2.52,2.12,1.24L784,167.51C784.87,166.22,782.75,165,781.83,166.27Z" fill="#feca55"/><path d="M794.55,187.1q-9,5.33-18,10.64a1.23,1.23,0,0,0,1.24,2.12q9-5.31,18-10.64A1.23,1.23,0,0,0,794.55,187.1Z" fill="#feca55"/><path d="M757.16,169.84,754.7,178a1.23,1.23,0,0,0,2.37.65l2.46-8.18A1.23,1.23,0,0,0,757.16,169.84Z" fill="#feca55"/><polygon points="782.49 280.64 659.11 280.64 637.63 190.42 761 190.42 782.49 280.64"/><path d="M806.53,272.2H718.75a1.23,1.23,0,0,0,0,2.46h87.78A1.23,1.23,0,0,0,806.53,272.2Z"/><path d="M690.89,238.15l-7.59-13a1.23,1.23,0,0,0-2.12,1.24l7.59,13A1.23,1.23,0,0,0,690.89,238.15Z" fill="#fff"/><path d="M697.94,238.34l-7.37-12.28a1.23,1.23,0,0,0-2.12,1.24l7.37,12.28A1.23,1.23,0,0,0,697.94,238.34Z" fill="#fff"/></g><g id="Woman"><g id="Body-3" data-name="Body"><path d="M566,272.46,506,269l-124.14-7.16,6.54-106.4L424,139.62,454.72,126c3.75-.12,7.26-.27,10.55-.42,42-1.84,49-3.78,68,47.07C553.75,227.45,566,272.46,566,272.46Z" fill="#bcd7fd"/><path d="M500.61,222.11,498.07,241c-.1.78,1.13.77,1.23,0l2.53-18.87C501.94,221.33,500.71,221.34,500.61,222.11Z" fill="#fff"/><path d="M505.73,197.17a177.28,177.28,0,0,0-9.66-33.25c-.29-.73-1.47-.41-1.18.32a178.53,178.53,0,0,1,8.53,27.68c1.08,4.93,2,9.92,2.6,14.93.62,5.19.57,11.17-4.3,14.37-.66.43,0,1.49.62,1.06C510.47,216.94,507.18,205,505.73,197.17Z" fill="#fff"/><path d="M514.39,211.81a30.76,30.76,0,0,0-10.06,24.65c0,.78,1.27.79,1.22,0a29.62,29.62,0,0,1,9.7-23.78C515.84,212.15,515,211.28,514.39,211.81Z" fill="#fff"/></g><g id="Palm"><path d="M562.84,243.69c5.35-4.85,10.13-12,4.92-18.83a20.75,20.75,0,0,0-8.66-6.26c-6.07-3.84-13-6.27-20.3-4.64-6.92,1.54-16,10.15-17.38,16.76-1.85,4.59,4.19,6.74,6,11.53C539.25,242.47,551.14,241.9,562.84,243.69Zm-28.76-14.17,3.66-3.4h.13c.11.71.18,1.42.24,2.13a32.79,32.79,0,0,1-1.69,7.25c-.29.45-.57.9-.84,1.34a58.69,58.69,0,0,0-2.39-6.72A3.53,3.53,0,0,0,534.08,229.52Z" fill="#ffa79b"/><path d="M548.05,227.61q-2.65,6.15-5.29,12.29c-.31.72.75,1.35,1.06.62q2.64-6.14,5.29-12.29C549.41,227.51,548.36,226.89,548.05,227.61Z" fill="#d24a43"/><ellipse cx="553.93" cy="236.23" rx="373.92" ry="0.61" transform="translate(89.11 619.1) rotate(-62.57)" fill="#d24a43"/><path d="M564.84,232.14q-2.58,5.15-5.18,10.29c-.35.71.71,1.33,1.06.62q2.6-5.15,5.18-10.3C566.26,232.05,565.2,231.43,564.84,232.14Z" fill="#d24a43"/><path d="M544.1,195.12c-.16,1.19-.32,2.39-.46,3.58-.07.41-.11.83-.18,1.23Q541.23,217,539,234.12a45.8,45.8,0,0,0-3.51,6,53.51,53.51,0,0,0-2.41-7.72q2.15-16.26,4.28-32.51c.06-.4.11-.82.17-1.23.14-1.19.3-2.39.46-3.58a3.26,3.26,0,0,1,2.23-2.7,3.58,3.58,0,0,1,2.48,0A2.37,2.37,0,0,1,544.1,195.12Z" fill="#2252b2"/><path d="M540.77,188.27l-1.41,9.93c-.22,1.56,2.18,2.07,2.4.5q.71-5,1.42-9.93C543.4,187.21,541,186.7,540.77,188.27Z" fill="#2252b2"/><path d="M543.64,198.7c-.07.41-.11.83-.18,1.23h-6.13c.06-.4.11-.82.17-1.23Z"/></g><g id="Hand-5" data-name="Hand"><path d="M517.73,275.73H339.33c1.63-15.55-1.63-63,11.45-108.85,10.43-36.45,21.88-40.27,64.45-40.73,10.94-.12,23.93,0,39.49-.18l-18.06,33.11-36,65.92c33.89,5.55,83.09,31.5,105.32,44C513.34,273.08,517.73,275.73,517.73,275.73Z" fill="#bcd7fd"/><path d="M517.74,275.73s-47.62-28.67-89.62-43.35c-12.09,12.24-20.53,27.63-28,43.35Z" fill="#ffa79b"/><path d="M424.93,230.08a122.29,122.29,0,0,0-21.77-7.34c-.4-.1-.82-.2-1.24-.28a121.44,121.44,0,0,0-16.35-2.57c-.78-.07-.78-1.3,0-1.23a126.16,126.16,0,0,1,16.32,2.54l1.22.29A125,125,0,0,1,425.54,229C426.27,229.34,425.64,230.4,424.93,230.08Z" fill="#fff"/><path d="M403.16,222.74c-.4-.1-.82-.2-1.24-.28l0-1.26-1.53-42.86a.62.62,0,0,1,1.23,0q.77,21.56,1.52,43.15C403.14,221.9,403.15,222.32,403.16,222.74Z" fill="#fff"/></g><g id="Head-3" data-name="Head"><path d="M465.27,125.55l-13,57.5-15.61-24L424,139.62l-8.77-13.47c10.94-.12,23.93,0,39.49-.18C458.47,125.85,462,125.7,465.27,125.55Z" fill="#ffa79b"/><path d="M465,108.37c-.91.8-10.86,42.17-10.86,42.17L420.5,132.6l22-34.41Z" fill="#ffa79b"/><path d="M461.44,120.86c1.74-6.82,3.2-12.21,3.53-12.49l-8.36-3.79C456,110.46,457.52,117.06,461.44,120.86Z"/><path d="M411.16,79.75C410,70,423.27,58,434.66,55c4.95-1.29,5.6-5.52,8.48-2.44,7.14,7.64,30.23,32.42,30.56,40.84.6,14.76-16.47,20.44-28.73,16.59S412.85,93.61,411.16,79.75Z" fill="#ffa79b"/><path d="M456.23,116.75c1.92-13.34-12.76-32.64-12.57-35,1.29-7.4-4-13.49-9.14-17,3.71-.33,10.32-7.86,10.05-12.33-.86-6.34-4.93-6.9-6.56-6.57-4,.83-7.77,5.14-9.89,9.06a6.16,6.16,0,0,0-4.2.54C416.88,59,410,65.3,408,73.15a14.7,14.7,0,0,0-.45,3.9c-3.16,3.7-4.63,8.47-2.57,13.8,0,0,0,0,0,.07a14.71,14.71,0,0,0-4.33,3.51,13.12,13.12,0,0,0-2.3,12.3,12.48,12.48,0,0,0,3.69,5.63c-1.4,6.68.51,13.82,7.2,17.33a12.55,12.55,0,0,0,8.56,1.12,12,12,0,0,0,14.67,7,11.33,11.33,0,0,0,4.85-3.09c6.58,3.11,16.39.4,19.61-6.6A12,12,0,0,0,456.23,116.75Z" fill="#d24a43"/><path d="M433.69,94.91c-2-5.18,2.28-12.8,10-13.14,4.11,4.44,8.37,8.75,12.69,13-1.4,3.24-6.32,7.72-11.18,8C439.64,103.08,435.88,100.49,433.69,94.91Z" fill="#ffa79b"/><path d="M461.73,69.31a3.85,3.85,0,0,0-5.71.63,1.37,1.37,0,0,0,.46,1.87,1.07,1.07,0,0,0,.19.07,3.51,3.51,0,0,0-.33.6c-.64,1.64,2,2.41,2.62.78,0,0,.11-.06,0,.08a1.38,1.38,0,0,0,1.82,1.91A3.82,3.82,0,0,0,461.73,69.31Z" fill="#ffa79b"/><path d="M447.16,64.25,445.64,67c-.76,1.38,1.36,2.62,2.12,1.24l1.52-2.77C450.05,64.1,447.93,62.86,447.16,64.25Z" fill="#952c28"/><path d="M446.89,91.31l-5.83,1.23c-.78.16-.45,1.35.32,1.18l5.83-1.22C448,92.33,447.66,91.15,446.89,91.31Z" fill="#d24a43"/><path d="M464.27,89.58a3.43,3.43,0,0,1-3.51.41c-.73-.3-1.05.89-.33,1.19a4.55,4.55,0,0,0,4.46-.54C465.52,90.18,464.91,89.11,464.27,89.58Z" fill="#d24a43"/><path d="M454.19,70.35l-3.09-2.43c-.61-.48-1.48.38-.86.87l3.08,2.43C453.94,71.7,454.81,70.84,454.19,70.35Z"/></g><g id="Legs-3" data-name="Legs"><path d="M570.82,588.31c-.52-4.56-3.41-20-18.71-24.91-16.72-5.32-30.8,4.54,6.8-90.77-9.53-1.32-19-3-28.47-4.82-10.78-2.07-21.49-4.15-32.35-5.73-2.85-.41-5.7-.84-8.53-1.31-6,27.12-10.73,68-8.69,127.54Z" fill="#ffa79b"/><path d="M702.9,588.31c-7.59-29.63-22.93-19.15-46-32.69-11-6.46-14.08-48.93-17.88-96.32-22.75,5.18-45.87,8.75-68.41,14.77,14.73,50.42,31.67,102.4,35.55,114.24Z" fill="#ffa79b"/><path d="M525.1,313.38l-41.73-3.27,5.9-32.28H351c-8,107.16-16.55,126.39,120.12,119l33.55-2.45s-18,43.37-26.59,76.52c21.78,1.95,80.37,15.4,81,16C563,476.68,614.18,320.37,525.1,313.38Z" fill="#0083f9"/><path d="M394.14,307.22a133.86,133.86,0,0,0,33.64-29.39H351c-1.25,16.92-2.53,31.64-3.24,44.42C364,322.4,380.28,315.82,394.14,307.22Z"/><path d="M570.82,588.31c-.52-4.56-3.41-20-18.71-24.91-3.62-1.16-7.11-1.6-10-2.55-7.81,1.78-15.53,4.22-23.57,5.61a91.44,91.44,0,0,1-23.89.67c-4.76-.42-9.51-.94-14.25-.94q.07,10.6.46,22.12Z" fill="#952c28"/><path d="M646.22,467.24c-6.54-42.56-14.42-83.43-22.09-114.58-13.91-56.47-49.11-49.1-155.9-59.74,0,0,38,61.38,79,81-.37,15.23,5.71,63.45,19.23,109.25C566.43,483.19,624,471.78,646.22,467.24Z" fill="#0083f9"/><path d="M702.9,588.31c-7.36-28.75-22-19.74-44-31.55-8.45,3.93-16.5,8.86-25.59,11.19-11.21,2.87-22.49.43-33.76.08,3.09,9.6,5.42,16.73,6.58,20.28Z" fill="#952c28"/><path d="M601.09,330.13c-3.29-7.73-9.51-14.22-17.85-16.21-.77-.18-1.1,1-.33,1.19,8.25,2,14.32,8.53,17.37,16.25,3.57,9,2.77,19.14,1,28.49-3.53,18.77-9.32,37.3-16.17,55.1q-6,15.6-13.43,30.57c-.35.7.71,1.33,1.06.62a361,361,0,0,0,22.69-57.79,254.08,254.08,0,0,0,7.53-31C604.44,348.32,604.75,338.71,601.09,330.13Z" fill="#fff"/><path d="M481.74,295l-28.65-.48a.61.61,0,0,0,0,1.22l28.65.49A.62.62,0,0,0,481.74,295Z" fill="#fff"/><path d="M509.12,386.6l-3.27,4.09c-.49.61.37,1.49.86.87l3.28-4.09C510.48,386.86,509.61,386,509.12,386.6Z" fill="#fff"/></g></g><g id="Pad"><path d="M492.38,227.43l-15.93-18c-1.05-1.18-2.78.56-1.74,1.74l15.93,18C491.69,230.36,493.42,228.61,492.38,227.43Z" fill="#d24a43"/><path d="M517.24,198c0-1.58-2.51-1.59-2.46,0q.48,16.16,1,32.32a1.23,1.23,0,0,0,2.45,0Z" fill="#d24a43"/><path d="M482.82,232l-13.55-10.57c-1.23-1-3,.76-1.74,1.73l13.56,10.58C482.32,234.72,484.07,233,482.82,232Z" fill="#d24a43"/><path d="M443.67,275.73H577l19.26-30.05a4,4,0,0,0-3.37-6.16H472.51a10.3,10.3,0,0,0-8.66,4.74Z"/><path d="M496.06,274.49l-18.4-18.42a1.22,1.22,0,0,0-1.73,1.73q9.19,9.22,18.4,18.43A1.23,1.23,0,0,0,496.06,274.49Z" fill="#2252b2"/><path d="M603.68,274.49l-18.4-18.42a1.23,1.23,0,0,0-1.74,1.73l18.4,18.43A1.23,1.23,0,0,0,603.68,274.49Z" fill="#2252b2"/><path d="M467.49,244.61q-3.6,6-7.22,12a.61.61,0,0,0,1.06.62l7.22-12A.61.61,0,0,0,467.49,244.61Z" fill="#fff"/></g><g id="Cup-2" data-name="Cup"><rect x="626.58" y="238.29" width="30.08" height="37.44" fill="#feca55"/><path d="M631.69,266.91c-5.83,4.86-13-.35-14.08-6.72-1.07-6.08,4-15.79,11.11-10.63,1.29.93,2.51-1.2,1.24-2.12-8.74-6.34-16.17,5.05-14.8,13.09,1.45,8.53,11,14.19,18.26,8.12C634.64,267.63,632.89,265.9,631.69,266.91Z" fill="#feca55"/><path d="M638.2,223.54c1.17-1.07-.57-2.8-1.74-1.74a9.93,9.93,0,0,0-.32,14.11c1.11,1.13,2.84-.6,1.74-1.73A7.43,7.43,0,0,1,638.2,223.54Z" fill="#bcd7fd"/><path d="M643.85,224c1.16-1.07-.58-2.8-1.74-1.73a9.92,9.92,0,0,0-.32,14.11c1.1,1.13,2.84-.61,1.73-1.74A7.44,7.44,0,0,1,643.85,224Z" fill="#bcd7fd"/></g><g id="Ornament"><path d="M334.12,94.35l-23-24.81c-1.08-1.16-2.81.58-1.74,1.74l23.05,24.81C333.47,97.25,335.2,95.51,334.12,94.35Z" fill="#dee7ff"/><path d="M325.69,110.6,304.82,82.36c-.93-1.25-3.06,0-2.12,1.24l20.87,28.24C324.5,113.09,326.63,111.87,325.69,110.6Z" fill="#dee7ff"/><path d="M599.48,194l-8.7,19.59c-.64,1.43,1.48,2.68,2.12,1.24l8.7-19.59C602.23,193.78,600.12,192.53,599.48,194Z" fill="#dee7ff"/><path d="M276.05,476.61c-.33-1.55-2.7-.89-2.37.65,3.57,16.68-26.16,8.5-34.49,13.34-5.67,3.29-8,11.28-2.83,16,1.16,1.07,2.9-.66,1.74-1.74-4.1-3.8-1.92-9.62,2.33-12.18,3.09-1.86,6.92-2,10.42-2,5.07,0,10.21,1,15.22-.23C272.53,488.93,277.5,483.41,276.05,476.61Z" fill="#dee7ff"/><path d="M282.19,486.43c-.33-1.55-2.7-.89-2.37.65,3.57,16.68-26.16,8.5-34.5,13.34-5.66,3.29-8,11.28-2.82,16,1.16,1.07,2.9-.66,1.74-1.74-4.11-3.8-1.92-9.62,2.32-12.18,3.1-1.86,6.93-2,10.43-2,5.07,0,10.21,1,15.22-.23C278.67,498.75,283.64,493.23,282.19,486.43Z" fill="#dee7ff"/><path d="M428.35,535.34,411.42,517.9c-1.1-1.14-2.83.6-1.73,1.74l16.92,17.44C427.71,538.21,429.45,536.48,428.35,535.34Z" fill="#dee7ff"/><path d="M436,530.2l-9.82-8.59c-1.19-1-2.93.69-1.74,1.73l9.82,8.6C435.4,533,437.14,531.24,436,530.2Z" fill="#dee7ff"/><path d="M662.27,379.41l-8.59,14.73a1.23,1.23,0,0,0,2.12,1.24q4.29-7.36,8.59-14.73A1.23,1.23,0,0,0,662.27,379.41Z" fill="#dee7ff"/><path d="M926.11,515.64q-3,6.76-6.11,13.52c-.64,1.43,1.47,2.68,2.12,1.24q3.06-6.76,6.11-13.52C928.88,515.45,926.76,514.2,926.11,515.64Z" fill="#dee7ff"/><path d="M1134.42,516.85l-22.15,15.88c-1.27.91,0,3,1.24,2.12L1135.66,519C1136.94,518.05,1135.71,515.92,1134.42,516.85Z" fill="#dee7ff"/><path d="M1141.54,530l-22.1,11c-1.41.7-.17,2.82,1.24,2.12l22.1-11C1144.19,531.42,1143,529.3,1141.54,530Z" fill="#dee7ff"/><path d="M1223.53,132.81l-10.83,19.76c-.76,1.39,1.36,2.63,2.12,1.24l10.83-19.76C1226.41,132.66,1224.29,131.42,1223.53,132.81Z" fill="#dee7ff"/><path d="M1244.05,488.1a1,1,0,0,1-.52-.12l-82.25-39.28a1.22,1.22,0,0,1-.69-.95,1.25,1.25,0,0,1,.43-1.1c2.51-2.1,61.47-51.63,65.17-54.09a1.23,1.23,0,0,1,1.89.8l17.18,93.29a1.22,1.22,0,0,1-1.21,1.45Zm-80-40.79,78.35,37.42-16.39-89C1218.05,402.07,1183.75,430.78,1164.06,447.31Z" fill="#dee7ff"/><path d="M245.58,196.35a1.16,1.16,0,0,1-.62-.17,1.23,1.23,0,0,1-.6-1c-.19-2.38-4.51-58.47-3.68-68.28a1.2,1.2,0,0,1,.62-1,1.23,1.23,0,0,1,1.15,0L315,162.14a1.23,1.23,0,0,1,.68,1.12,1.21,1.21,0,0,1-.71,1.09l-68.9,31.89A1.19,1.19,0,0,1,245.58,196.35ZM243,129c-.25,12.11,2.93,55,3.63,64.29l65-30.07Z" fill="#dee7ff"/><path d="M1258.15,8c-.33-1.54-2.7-.89-2.37.65,1.62,7.76-6.12,11.67-12.58,11.72-4.58,0-9-1.45-13.38-2.45-5.54-1.26-11-1.82-16.48.13a25.83,25.83,0,0,0-16.9,22c-.14,1.58,2.32,1.57,2.46,0A23.29,23.29,0,0,1,1212,21.26c9-4.35,17.52-.23,26.62,1.14C1247.89,23.8,1260.59,19.71,1258.15,8Z" fill="#dee7ff"/><path d="M1262.56,27.67c-.32-1.55-2.69-.9-2.37.65,1.62,7.75-6.11,11.67-12.57,11.72-4.58,0-9-1.45-13.39-2.46-5.54-1.26-11-1.82-16.47.14a25.8,25.8,0,0,0-16.9,22c-.14,1.57,2.31,1.56,2.45,0a23.32,23.32,0,0,1,13.07-18.8c9-4.35,17.52-.23,26.63,1.15C1252.3,43.48,1265,39.38,1262.56,27.67Z" fill="#dee7ff"/></g><g id="Shadow"><path d="M749.11,588H37.55c-2.06,0-2.07,2.38,0,2.38H749.11C751.17,590.33,751.18,588,749.11,588Z" fill="#697ccc"/><path d="M1268.66,588H771.52c-2.06,0-2.07,2.38,0,2.38h497.14C1270.71,590.33,1270.72,588,1268.66,588Z" fill="#697ccc"/></g><path id="Table" d="M1096.34,274.51H339.12c-.35,0-1.07,4.93-.86,7.34l.25,0h757.83C1101.08,281.87,1101.08,274.51,1096.34,274.51Z" fill="#d24a43"/><g id="Notebook-3" data-name="Notebook"><path d="M467,184.08q-14.88,45.4-29.77,90.81c-.69,2.12,2.65,3,3.34.92L470.36,185C471.06,182.88,467.72,182,467,184.08Z"/><path d="M438,274.08H382.05a1.73,1.73,0,0,0,0,3.46H438A1.73,1.73,0,0,0,438,274.08Z"/></g><g id="Cup-3" data-name="Cup"><rect x="358.21" y="221.88" width="33.74" height="44.41" fill="#697ccc"/><path d="M403,230.89c-2.62-4.66-8.35-2-12.47-3.25-2.14-.64-3,2.7-.92,3.34s6.68-.29,8.39.51c4.33,2,2.57,19.63,2,22.88-1.08,6.44-6.53,6.11-11.58,5.79-2.22-.15-2.21,3.31,0,3.46,4.28.27,9,.41,12.53-2.49C405.05,257.76,405.46,235.25,403,230.89Z" fill="#697ccc"/><path d="M371.35,201a10.71,10.71,0,0,0-.69,12.9c.83,1.22,2.83.07,2-1.16a8.37,8.37,0,0,1,.34-10.11C373.92,201.48,372.3,199.84,371.35,201Z" fill="#bcd7fd"/><path d="M376.54,201a10.71,10.71,0,0,0-.69,12.9c.83,1.22,2.83.07,2-1.16a8.37,8.37,0,0,1,.34-10.11C379.11,201.48,377.49,199.84,376.54,201Z" fill="#bcd7fd"/></g><g id="Woman-2" data-name="Woman"><g id="Legs-4" data-name="Legs"><path d="M332.54,406.44C286.4,462.38,301.4,588.11,301.4,588.11H413.29s-.58-27.68-36.91-31.14-6.93-38.07,39.21-147.65Z" fill="#952c28"/><path d="M376.38,557c-22.11-2.11-19.88-15.75-4.34-50.79a494.49,494.49,0,0,1-71.13-4.6,454.54,454.54,0,0,0,.49,86.53H413.29S412.71,560.43,376.38,557Z" fill="#bcd7fd"/><path d="M510.56,558.5c-46.35-9.8-36.14-35-47.87-113.23-12-80.18-15.75-94.93-79.87-101C370,377.1,357.68,410.3,349,444.48c16.61-.76,26.82-1.52,26.82-1.52s-2.31,12.89,56.13,145.15H540.17S544.21,565.62,510.56,558.5Z" fill="#952c28"/><path d="M510.56,558.5c-34.18-7.22-37.6-22.83-41.75-61.9a379.34,379.34,0,0,1-68.63,17.15c7.82,19.21,18.14,43.54,31.75,74.36H540.17S544.21,565.62,510.56,558.5Z" fill="#bcd7fd"/><path d="M300.05,339.15c-20.7-1.2-40.75-1.15-59.57-2.34-1.24-7.08-2.26-18.11-3.06-30.18-43.1,1.24-86.13,4.53-129.07,8.39q-1.26,11.53-2.08,23.75C97.43,472.57,216.21,446,282.37,446c35.23,0,65.67-1.42,81.59-2.33,9.51-32.66,16.83-66.06,26.21-98.7h0C368.72,342.53,339.77,341.46,300.05,339.15Z" fill="#feca55"/><path d="M510.56,558.5c-12-2.54-20.22-6.11-26-11.38-6.89,3.54-13.78,7-20.87,10.15a121.57,121.57,0,0,1-40.83,10.14c2.85,6.56,5.87,13.44,9.07,20.7H540.17S544.21,565.62,510.56,558.5Z" fill="#0083f9"/><path d="M376.38,557c-5.27-.5-9.14-1.66-11.8-3.61-6.66,3.75-13.42,7.32-20.92,9.38-14.31,3.93-29.24,3.46-44,3.33.69,13.54,1.7,22,1.7,22H413.29S412.71,560.43,376.38,557Z" fill="#0083f9"/><path d="M385,470.6l-7.53-22.77c-.24-.7-1.35-.4-1.12.31l7.53,22.77C384.1,471.61,385.21,471.31,385,470.6Z"/><path d="M346.93,366.88q-34.18-1.45-68.33-4-17.06-1.29-34.1-2.86c-5.41-.5-10.84-.94-16.23-1.59-5.09-.62-10.34-1.59-14.79-4.27-9.27-5.58-11.45-17.05-13.11-26.89-.12-.73-1.23-.42-1.11.31,1.38,8.22,3,17.25,8.83,23.64,6.38,7,16.16,8,25,8.87q36.33,3.57,72.78,5.82,20.49,1.28,41,2.14C347.67,368.06,347.67,366.91,346.93,366.88Z" fill="#fff"/><path d="M159.08,414.41c-.38-1-2.29-2.41-3-3.2q-1.47-1.63-2.88-3.31-3.09-3.69-5.85-7.62a118.18,118.18,0,0,1-15.87-32.09.6.6,0,0,0-.71-.41l-16.39,2.92c-.73.13-.42,1.24.31,1.11L130.54,369a117.49,117.49,0,0,0,24.39,42.67c.9,1,2.49,2.21,2.8,3.49s-.38,3.14-.67,4.51l-2.22,10.54c-.15.73,1,1,1.12.31l2.1-10C158.41,418.85,159.68,416,159.08,414.41Z" fill="#fff"/><path d="M236.81,337.23l-8.66-.87c-.73-.07-.73,1.08,0,1.16l8.66.86C237.54,338.46,237.54,337.3,236.81,337.23Z" fill="#fff"/></g><g id="Head-4" data-name="Head"><path d="M251.3,134c-1.34.43-31,39.71-31,39.71l-27.36-34.55,39.26-26.33Z" fill="#952c28"/><path d="M241.78,145.62c5-6.43,9.05-11.47,9.52-11.62l-7.11-7.88C240.87,132.09,239.39,139.78,241.78,145.62Z"/><path d="M214.93,75.83c4.29-10.52,24.51-15.23,37.7-11.83,5.74,1.49,8.77-2.43,9.95,2.3,2.92,11.74,12.32,49.8,7.92,58.5-7.71,15.26-28.15,11.4-38.38.61S208.84,90.79,214.93,75.83Z" fill="#952c28"/><path d="M261.14,56.69c-5.95-1.88-14.81,2.59-18.54,6.24-11.68.18-24.37,4.82-27.67,12.9-4.07,10-21,22.62-14.05,41.66,4.2,11.77,25.71,17.75,37,9.43,13.45-9.89,7.11-28.28,8.76-30.76,5.47-6.76,3.6-15.87.32-22.33,3.94,1.76,14.86-2.14,17.1-6.81C266.78,60.13,263,57.27,261.14,56.69Z"/><path d="M252.17,116.43c-3.24,2.49-10.73,4.25-15.8,1.8-5.78-2.79-8.11-7.53-7.19-14.4.65-4.81,5.73-9,11.6-9h0a12.7,12.7,0,0,1,4.51.79c.45.17.9.36,1.35.58C248.31,103,250.19,109.71,252.17,116.43Z" fill="#952c28"/><path d="M273.09,95.38A4.48,4.48,0,0,0,267,92.8a1.61,1.61,0,0,0-.59,2.16c0,.07.11.11.15.17a3.93,3.93,0,0,0-.66.43c-1.58,1.29.64,3.54,2.21,2.26,0,0,.14,0,0,.1a1.59,1.59,0,0,0,.77,3A4.43,4.43,0,0,0,273.09,95.38Z" fill="#952c28"/><path d="M246.46,108l-6.34-4.2a.66.66,0,0,0-.71,1.11l6.34,4.2C246.45,109.56,247.16,108.46,246.46,108Z"/><path d="M266.81,111.18l-3-.35c-.84-.1-.91,1.21-.08,1.31l3,.36C267.58,112.6,267.65,111.28,266.81,111.18Z"/><path d="M263.1,87c0,1.5.07,3,.11,4.51,0,.84,1.33.92,1.31.07,0-1.5-.07-3-.11-4.51C264.39,86.23,263.08,86.16,263.1,87Z"/><path d="M262.35,81.68l-2.05,1A1.32,1.32,0,0,0,261.52,85l2.05-1A1.32,1.32,0,0,0,262.35,81.68Z"/><path d="M270.19,86l-1.54,10.07c-.13.83-1.44.76-1.31-.07l.48-3.15c-6.07.68-15.24,1.86-22.52,2.74a12.7,12.7,0,0,0-4.51-.79c7.84-.89,19.75-2.45,27.23-3.29.28-1.86.58-3.73.86-5.58C269,85.08,270.32,85.14,270.19,86Z" fill="#fff"/></g><g id="Book"><path d="M206.31,320.69c10.67-.51,21.34-1.28,32-2.13-2.63-30.4-3.63-76.3-3.63-76.3L221.06,165s-.21-35.73-18.28-34.58C168.07,132.59,119,199.67,107.44,324,140.4,323.06,173.37,322.29,206.31,320.69Z" fill="#697ccc"/><path d="M180.74,246.34c-8.69,44.93,36.34,59.1,51,57.07A97.32,97.32,0,0,0,243.58,301c-2.39-33.34-3.31-79.84-3.31-79.84l-5.4-33.73a145.16,145.16,0,0,0-26,19.7C197.39,217.93,183.17,233.8,180.74,246.34Z"/></g><g id="Hand-6" data-name="Hand"><path d="M398.11,243.32c-2.29-7.68-14.58-4.84-21.45-3.56.14-.44,2.87-1.68,2.92-2.14a22.28,22.28,0,0,0,8.77-2.68c3.24-1.77,4-6.29.86-6.71a89,89,0,0,0-27.39.55,72.81,72.81,0,0,0-18.55,6.56,5.82,5.82,0,0,0-1.76,1.33c-19.51-1.76-41.68-.8-58.84.57-1.24,20.57-1.12,41.35,1.86,61.69,26-6.83,53-14.77,69-19.58,6.77,0,13.54-.12,20.3-.61,8-.58,16.69-2.12,20.75-9.88,2-3.75,2.21-8.16,2.71-12.28S399.32,247.37,398.11,243.32Z" fill="#952c28"/><path d="M290.47,236.67c-20.79,1.36-36.65,3.67-36.65,3.67-15.57-93.43-23.55-105.93-48.54-109.78,0,0-13.17,9.42-14.33,75.46s1.73,105,28.55,105.83c12,.39,42.9-6.94,73.44-15.16C291.81,276.7,291.11,256.69,290.47,236.67Z" fill="#697ccc"/><path d="M251.36,240.36l-7.5,1.73c-.72.16-.42,1.28.31,1.11l7.5-1.73C252.39,241.3,252.08,240.19,251.36,240.36Z" fill="#fff"/><path d="M189.86,204.72,189.68,235a.58.58,0,0,0,1.15,0q.09-15.13.19-30.28A.58.58,0,0,0,189.86,204.72Z"/><path d="M394.78,247.77l-2.69,1.63c-.63.39-.06,1.39.58,1l2.69-1.63C396,248.38,395.42,247.38,394.78,247.77Z" fill="#d24a43"/><path d="M394.68,255.75,392,257.38a.58.58,0,0,0,.59,1l2.69-1.64A.58.58,0,0,0,394.68,255.75Z" fill="#d24a43"/><path d="M392.76,266.13l-2.69,1.63c-.63.39-.05,1.39.58,1l2.69-1.64A.57.57,0,0,0,392.76,266.13Z" fill="#d24a43"/></g><g id="Points"><path d="M185,147.9a2.47,2.47,0,0,1-2.53,2.53,2.53,2.53,0,0,1,0-5.06A2.44,2.44,0,0,1,185,147.9Z" fill="#fff"/><path d="M223.34,147.9a2.45,2.45,0,0,1-2.53,2.53,2.53,2.53,0,0,1,0-5.06A2.43,2.43,0,0,1,223.34,147.9Z" fill="#fff"/><path d="M146.57,184.81a2.46,2.46,0,0,1-2.54,2.52,2.57,2.57,0,0,1-.73-.1c.77-1.5,1.55-3,2.35-4.42A2.8,2.8,0,0,1,146.57,184.81Z" fill="#fff"/><path d="M185,184.81a2.47,2.47,0,0,1-2.53,2.53,2.53,2.53,0,0,1,0-5.06A2.44,2.44,0,0,1,185,184.81Z" fill="#fff"/><path d="M223.34,184.81a2.45,2.45,0,0,1-2.53,2.53,2.53,2.53,0,0,1,0-5.06A2.43,2.43,0,0,1,223.34,184.81Z" fill="#fff"/><path d="M146.57,221.72a2.47,2.47,0,0,1-2.53,2.53,2.53,2.53,0,0,1,0-5.06A2.45,2.45,0,0,1,146.57,221.72Z" fill="#fff"/><path d="M185,221.72a2.47,2.47,0,0,1-2.53,2.53,2.53,2.53,0,0,1,0-5.06A2.45,2.45,0,0,1,185,221.72Z" fill="#fff"/><path d="M223.34,221.72a2.45,2.45,0,0,1-2.53,2.53,2.53,2.53,0,0,1,0-5.06A2.44,2.44,0,0,1,223.34,221.72Z" fill="#fff"/><path d="M146.57,258.63a2.46,2.46,0,0,1-2.53,2.53,2.53,2.53,0,1,1,0-5.06A2.45,2.45,0,0,1,146.57,258.63Z" fill="#fff"/><path d="M223.34,258.63a2.45,2.45,0,0,1-2.53,2.53,2.53,2.53,0,0,1,0-5.06A2.44,2.44,0,0,1,223.34,258.63Z" fill="#fff"/><path d="M261.73,258.63a2.45,2.45,0,0,1-2.53,2.53,2.53,2.53,0,1,1,0-5.06A2.44,2.44,0,0,1,261.73,258.63Z" fill="#fff"/><path d="M146.57,295.55a2.47,2.47,0,0,1-2.53,2.53,2.53,2.53,0,0,1,0-5.06A2.44,2.44,0,0,1,146.57,295.55Z" fill="#fff"/><path d="M185,295.55a2.47,2.47,0,0,1-2.53,2.53,2.53,2.53,0,0,1,0-5.06A2.44,2.44,0,0,1,185,295.55Z" fill="#fff"/><path d="M223.34,295.55a2.45,2.45,0,0,1-2.53,2.53,2.53,2.53,0,0,1,0-5.06A2.43,2.43,0,0,1,223.34,295.55Z" fill="#fff"/><path d="M261.73,295.55a2.46,2.46,0,0,1-2.53,2.53,2.53,2.53,0,1,1,0-5.06A2.43,2.43,0,0,1,261.73,295.55Z" fill="#fff"/></g></g><g id="Chair"><path d="M110.54,443.79q-3-28.46-6-56.92c-.39-3.65-6.16-3.69-5.77,0l6,56.92C105.16,447.44,110.94,447.48,110.54,443.79Z" fill="#697ccc"/><path d="M183,445.51a5.35,5.35,0,0,1-2.49.58l-.58,0V577c0,3.71,5.77,3.72,5.77,0V445.4Z" fill="#697ccc"/><path d="M240.32,571.41a73,73,0,0,0-55.8-30.13c-23-.86-45.51,10.34-59.37,28.52-2.22,2.92,1.94,6.92,4.19,4,12.66-16.62,32.56-27,53.59-26.77,20.63.22,40.4,10.86,52.49,27.45C237.59,577.43,242.52,574.42,240.32,571.41Z" fill="#697ccc"/><path d="M135.88,576.58c.63,7.29-5.94,13.26-13.27,13.26a13.27,13.27,0,0,1,0-26.53C129.94,563.31,135.11,567.73,135.88,576.58Z" fill="#0083f9"/><path d="M127.38,576.58a4.62,4.62,0,0,1-4.76,4.75,4.76,4.76,0,0,1,0-9.51C125.25,571.82,127.11,573.4,127.38,576.58Z" fill="#fff"/><path d="M195.66,576.58c.64,7.29-5.93,13.26-13.26,13.26a13.27,13.27,0,1,1,0-26.53C189.73,563.31,194.9,567.73,195.66,576.58Z" fill="#0083f9"/><path d="M249.88,576.58c.63,7.29-5.94,13.26-13.27,13.26a13.27,13.27,0,0,1,0-26.53C243.94,563.31,249.11,567.73,249.88,576.58Z" fill="#0083f9"/><path d="M107.5,390.73Q97.27,303.48,87,216.23c-.47-4.06-3.11-7.45-7.5-7.5-3.69,0-8,3.48-7.49,7.5L92.5,390.73c.48,4.06,3.11,7.45,7.5,7.5C103.69,398.27,108,394.75,107.5,390.73Z" fill="#0083f9"/><path d="M261.22,441.62H110.5c-9.65,0-9.67,15,0,15H261.22C270.87,456.61,270.89,441.62,261.22,441.62Z" fill="#0083f9"/><path d="M187.08,576.58a4.63,4.63,0,0,1-4.76,4.75,4.76,4.76,0,1,1,0-9.51C184.94,571.82,186.8,573.4,187.08,576.58Z" fill="#fff"/><path d="M241,576.58a4.62,4.62,0,0,1-4.76,4.75,4.76,4.76,0,1,1,0-9.51C238.87,571.82,240.72,573.4,241,576.58Z" fill="#fff"/></g></svg>