<svg id="Слой_1" data-name="Слой 1" xmlns="http://www.w3.org/2000/svg" viewBox="0 0 1179 513"><g id="Window_2" data-name="Window 2"><rect x="386.83" y="65.02" width="372.37" height="200.77" fill="#2252b2"/><rect x="423.01" y="97.96" width="128.89" height="66.29" fill="#d24a43"/><path d="M423,120.71v43.54h39.55C456,145.49,441,129.39,423,120.71Z" fill="#fff"/><path d="M551.9,109V98H535A48.46,48.46,0,0,0,551.9,109Z" fill="#fff"/><path d="M465.46,124.11c-15.73-.76-27.2,11.63-31.32,25.77a1.23,1.23,0,0,0,2.37.65c3.4-11.68,11.76-22.06,24.44-23.74,13.43-1.77,26.34,8.83,23.53,23-.31,1.54,2.06,2.21,2.37.65C489.55,136.79,479.08,124.77,465.46,124.11Z" fill="#fff"/><path d="M516.12,132.72a9.67,9.67,0,1,1,0-19.33c5.53,0,9.14,3.57,9.66,9.56h0a8.53,8.53,0,0,1-2.3,6.54A10,10,0,0,1,516.12,132.72Zm0-16.88a7.22,7.22,0,0,0,0,14.43,7.61,7.61,0,0,0,5.55-2.44,6.05,6.05,0,0,0,1.66-4.67h0C522.92,118.44,520.36,115.84,516.12,115.84Z" fill="#fff"/><path d="M471.68,122.9a9.67,9.67,0,0,1,0-19.33c5.53,0,9.14,3.57,9.66,9.56h0a8.49,8.49,0,0,1-2.29,6.54A10,10,0,0,1,471.68,122.9Zm0-16.88a7.22,7.22,0,0,0,0,14.43,7.64,7.64,0,0,0,5.56-2.44,6.09,6.09,0,0,0,1.66-4.67h0C478.49,108.62,475.93,106,471.68,106Z" fill="#fff"/><path d="M536.64,152.88c-3.06-9.39-10.94-16.69-21-17.75a25.42,25.42,0,0,0-14.8,3c-3.64,2-3.88,2.9-8.12,1l-10.32-4.72a.14.14,0,0,0,0,.06c.07.14.13.29.2.44a7.13,7.13,0,0,1,.78,2.65l13,5.93a1.28,1.28,0,0,0,1.49-.19,22.52,22.52,0,0,1,36.37,10.27C534.76,155,537.13,154.39,536.64,152.88Z" fill="#fff"/><path d="M413.22,114.46a1.23,1.23,0,0,1-1.23-1.23V88.68a1.22,1.22,0,0,1,1.23-1.22H439a1.23,1.23,0,0,1,0,2.45H414.45v23.32A1.23,1.23,0,0,1,413.22,114.46Z" fill="#fff"/><path d="M438.38,174.82H413.83a1.23,1.23,0,0,1-1.23-1.23V147.81a1.23,1.23,0,0,1,2.46,0v24.55h23.32a1.23,1.23,0,1,1,0,2.46Z" fill="#fff"/><path d="M562.16,174.82H536.38a1.23,1.23,0,0,1,0-2.46h24.56V149a1.23,1.23,0,1,1,2.45,0v24.55A1.23,1.23,0,0,1,562.16,174.82Z" fill="#fff"/><path d="M561.55,115.69a1.23,1.23,0,0,1-1.23-1.23V89.91H537a1.23,1.23,0,1,1,0-2.45h24.55a1.22,1.22,0,0,1,1.23,1.22v25.78A1.23,1.23,0,0,1,561.55,115.69Z" fill="#fff"/><path d="M704.36,102h-117a1.23,1.23,0,0,0,0,2.46h117A1.23,1.23,0,0,0,704.36,102Z" fill="#feca55"/><path d="M704.36,119.71h-117a1.23,1.23,0,0,0,0,2.46h117A1.23,1.23,0,0,0,704.36,119.71Z" fill="#feca55"/><path d="M704.36,137.44h-117a1.23,1.23,0,0,0,0,2.46h117A1.23,1.23,0,0,0,704.36,137.44Z" fill="#feca55"/><path d="M704.36,155.18h-117a1.23,1.23,0,0,0,0,2.45h117A1.23,1.23,0,0,0,704.36,155.18Z" fill="#feca55"/><rect x="665.89" y="170.32" width="36.83" height="36.83" fill="#feca55"/><path d="M540.69,137.64a2.63,2.63,0,0,0-2.61-.14.92.92,0,0,0-.46.17,3.16,3.16,0,0,0-.61.6,3.5,3.5,0,0,0-1,1.89c-.34,2.25,2.22,4.43,4.31,3.1a2.54,2.54,0,0,0,1.43-1.21A3.52,3.52,0,0,0,540.69,137.64Z" fill="#fff"/><path d="M402.66,45.51c.29,3.34-2.71,6.06-6.06,6.06a6.06,6.06,0,0,1,0-12.12C400,39.45,402.31,41.47,402.66,45.51Z" fill="#feca55"/><path d="M423.56,45.51c.29,3.34-2.71,6.06-6.06,6.06a6.06,6.06,0,0,1,0-12.12C420.85,39.45,423.21,41.47,423.56,45.51Z" fill="#feca55"/></g><g id="Code"><rect x="776.38" y="375.32" width="110.69" height="85.32"/><path d="M858.83,393.12h-57.7a1.23,1.23,0,0,0,0,2.46h57.7A1.23,1.23,0,0,0,858.83,393.12Z" fill="#fff"/><path d="M858.83,407.85h-57.7a1.23,1.23,0,0,0,0,2.46h57.7A1.23,1.23,0,0,0,858.83,407.85Z" fill="#fff"/><path d="M858.83,422.58h-57.7a1.23,1.23,0,0,0,0,2.46h57.7A1.23,1.23,0,0,0,858.83,422.58Z" fill="#fff"/><path d="M843.19,437.31H800.82c-1.16,0-1.16,2.46,0,2.46h42.37C844.35,439.77,844.35,437.31,843.19,437.31Z" fill="#fff"/><path d="M795.92,401.1a1.23,1.23,0,0,1-.89-.38l-6.14-6.44a1.23,1.23,0,0,1,0-1.72l6.14-6.14a1.23,1.23,0,1,1,1.73,1.74l-5.29,5.29L796.8,399a1.22,1.22,0,0,1,0,1.73A1.2,1.2,0,0,1,795.92,401.1Z" fill="#fff"/><path d="M848.7,446.83a1.23,1.23,0,0,1-.87-2.1l5.29-5.29-5.31-5.58a1.23,1.23,0,0,1,1.78-1.69l6.14,6.45a1.22,1.22,0,0,1,0,1.71l-6.14,6.14A1.22,1.22,0,0,1,848.7,446.83Z" fill="#fff"/><path d="M768.83,369.57,754.05,353c-1-1.18-2.78.57-1.73,1.74l14.77,16.53C768.15,372.48,769.88,370.74,768.83,369.57Z" fill="#bcd7fd"/><path d="M903.38,359.11l-11.66,11.05c-1.15,1.09.59,2.82,1.74,1.73l11.66-11C906.27,359.76,904.53,358,903.38,359.11Z" fill="#bcd7fd"/><path d="M773.2,462.18l-9.9,12.21c-1,1.21.74,3,1.73,1.73l9.91-12.21C775.92,462.7,774.2,461,773.2,462.18Z" fill="#bcd7fd"/></g><g id="Triangles"><polygon points="726.05 24.05 816.57 114.57 726.05 205.1 726.05 24.05" fill="#ffa79b"/><polygon points="375.55 301.53 324.8 250.79 375.55 200.04 375.55 301.53" fill="#ffa79b"/></g><g id="Pointers"><path d="M477.24,171.31,441.92,422.13q-5,35.75-10.06,71.5c-.22,1.54,2.15,2.21,2.37.65l35.31-250.83q5-35.74,10.06-71.49C479.82,170.42,477.46,169.75,477.24,171.31Z" fill="#bcd7fd"/><path d="M437.64,495.18a4.71,4.71,0,0,1-4.85,4.85,4.86,4.86,0,0,1,0-9.71C435.47,490.32,437.36,491.94,437.64,495.18Z" fill="#bcd7fd"/><path d="M785.89,354.45A4.71,4.71,0,0,1,781,359.3a4.85,4.85,0,1,1,0-9.7C783.72,349.6,785.61,351.22,785.89,354.45Z" fill="#bcd7fd"/><path d="M782.09,354q-39.2-62.89-78.37-125.8c-.83-1.34-3-.1-2.12,1.24q39.18,62.91,78.37,125.8C780.8,356.55,782.92,355.32,782.09,354Z" fill="#bcd7fd"/><path d="M581.5,442.23a4.72,4.72,0,0,1-4.85,4.85,4.86,4.86,0,0,1,0-9.71C579.33,437.37,581.22,439,581.5,442.23Z" fill="#bcd7fd"/><path d="M578.08,441.33q-15.44-73.63-30.86-147.28c-.33-1.54-2.69-.89-2.37.66Q560.29,368.35,575.71,442C576,443.53,578.4,442.87,578.08,441.33Z" fill="#bcd7fd"/></g><g id="Clock"><path d="M838.66,265a52.91,52.91,0,1,1,0-105.82c30.7,0,50,19.25,52.91,52.81h0c1.11,12.79-3.3,25.32-12.43,35.28A55.79,55.79,0,0,1,838.66,265Zm0-103.36a50.46,50.46,0,1,0,0,100.91,53.27,53.27,0,0,0,38.67-16.94c8.66-9.44,12.84-21.31,11.79-33.41h0C886.33,180,867.93,161.6,838.66,161.6Z" fill="#697ccc"/><path d="M839.24,180.54a1.23,1.23,0,0,0-2.45,0l.72,29.06a1.23,1.23,0,0,0,2.46,0Z" fill="#697ccc"/><path d="M861.08,213.69H841.44a1.23,1.23,0,0,0,0,2.46h19.64A1.23,1.23,0,0,0,861.08,213.69Z" fill="#697ccc"/></g><g id="Ornament"><path d="M688,46.75c-12.19-.31-25.69-7.87-36.28-11.26-12.31-3.94-28-3.53-35.56,8.58-.84,1.35,1.28,2.58,2.12,1.24,11.6-18.6,36-6,51-.27,12.56,4.8,28.71,7,38.5-4.38,1-1.19-.7-2.93-1.73-1.74A21.91,21.91,0,0,1,688,46.75" fill="#dee7ff"/><path d="M688,32.83c-12.19-.3-25.69-7.87-36.28-11.25-12.31-3.94-28-3.53-35.56,8.58-.84,1.34,1.28,2.58,2.12,1.24,11.6-18.6,36-6,51-.27,12.56,4.8,28.71,7,38.5-4.38,1-1.19-.7-2.94-1.73-1.74A21.87,21.87,0,0,1,688,32.83" fill="#dee7ff"/><path d="M820,36.42,790.51,67.74c-1.08,1.15.65,2.89,1.74,1.73l29.44-31.32C822.77,37,821,35.26,820,36.42Z" fill="#dee7ff"/><path d="M823.54,51.06,801.45,75c-1.07,1.16.66,2.9,1.73,1.73q11.05-12,22.1-23.93C826.35,51.64,824.62,49.9,823.54,51.06Z" fill="#dee7ff"/><path d="M350.17,264.22l-12.28,16c-1,1.25,1.17,2.47,2.12,1.24l12.28-16C353.25,264.21,351.12,263,350.17,264.22Z" fill="#dee7ff"/><path d="M217.12,413.68l-23-24.81c-1.08-1.16-2.81.57-1.74,1.73l23,24.81C216.47,416.57,218.2,414.83,217.12,413.68Z" fill="#dee7ff"/><path d="M208.69,429.92l-20.87-28.23c-.93-1.26-3.06,0-2.12,1.24l20.87,28.23C207.5,432.42,209.63,431.19,208.69,429.92Z" fill="#dee7ff"/><path d="M1106.53,452.14,1095.7,471.9c-.76,1.39,1.36,2.63,2.12,1.24l10.83-19.77C1109.41,452,1107.29,450.75,1106.53,452.14Z" fill="#dee7ff"/><path d="M122,175.17c-.17-1.55-2.63-1.57-2.45,0C120.74,186,103,176.82,98.46,177c-3.42.16-6.34,1.63-7.73,4.84-.62,1.43,1.5,2.68,2.12,1.24,3.86-8.93,15.7,1.06,22.07.08C119.07,182.56,122.48,179.51,122,175.17Z" fill="#dee7ff"/><path d="M121.38,186.84c-.17-1.55-2.63-1.57-2.45,0,1.19,10.81-16.52,1.65-21.09,1.87-3.42.16-6.34,1.63-7.73,4.84-.62,1.43,1.5,2.68,2.12,1.24,3.86-8.93,15.7,1.06,22.07.08C118.45,194.23,121.86,191.18,121.38,186.84Z" fill="#dee7ff"/><path d="M1020.86,224.5,1000,234.32c-1.42.67-.18,2.79,1.24,2.12l20.87-9.82C1023.53,226,1022.29,223.83,1020.86,224.5Z" fill="#dee7ff"/><path d="M952.74,192.41a1,1,0,0,1-.24,0l-38-7.37a1.2,1.2,0,0,1-.93-.81,1.26,1.26,0,0,1,.25-1.22c.51-.55,12.43-13.64,16.19-16.15a1.22,1.22,0,0,1,1.57.18l22.1,23.32a1.22,1.22,0,0,1-.89,2.07ZM917.07,183l32.15,6.22L930.5,169.5C927.2,172.17,920.15,179.71,917.07,183Z" fill="#dee7ff"/><path d="M37.87,367.54a1.26,1.26,0,0,1-.62-.17,1.2,1.2,0,0,1-.6-1c-.19-2.39-4.51-58.47-3.68-68.29a1.2,1.2,0,0,1,.62-1,1.23,1.23,0,0,1,1.15,0l72.58,36.2a1.23,1.23,0,0,1,0,2.21l-68.9,31.89A1.35,1.35,0,0,1,37.87,367.54Zm-2.54-67.37c-.25,12.11,2.93,55,3.63,64.28l65-30.06Z" fill="#dee7ff"/><path d="M229.4,106.2a1.23,1.23,0,0,1-1.21-1.46c.05-.25,4.91-25.41,5.19-29a1.22,1.22,0,0,1,2-.85L256.25,92a1.22,1.22,0,0,1,.44,1.11,1.2,1.2,0,0,1-.7,1l-26.08,12A1.34,1.34,0,0,1,229.4,106.2Zm6.13-28c-.88,5.8-3.43,19.24-4.48,24.71l22.13-10.18Z" fill="#dee7ff"/><path d="M214,265.65l-9.84-29.46c-.5-1.49-2.87-.85-2.36.66q4.9,14.72,9.83,29.45C212.1,267.79,214.47,267.15,214,265.65Z" fill="#dee7ff"/><path d="M1149.14,208.92c-.32-1.55-2.69-.89-2.37.65,1.62,7.75-6.11,11.67-12.57,11.72-4.58,0-9-1.45-13.39-2.46-5.54-1.25-11-1.82-16.48.14a25.81,25.81,0,0,0-16.89,22c-.15,1.57,2.31,1.56,2.45,0a23.34,23.34,0,0,1,13.07-18.8c9-4.35,17.52-.23,26.62,1.15C1138.88,224.73,1151.59,220.64,1149.14,208.92Z" fill="#dee7ff"/><path d="M1153.55,228.59c-.32-1.55-2.69-.89-2.36.65,1.62,7.76-6.12,11.67-12.58,11.72-4.58,0-9-1.45-13.38-2.45-5.54-1.26-11-1.82-16.48.13a25.83,25.83,0,0,0-16.9,22c-.14,1.57,2.32,1.56,2.46,0a23.32,23.32,0,0,1,13.07-18.8c9-4.34,17.52-.22,26.62,1.15C1143.3,244.4,1156,240.31,1153.55,228.59Z" fill="#dee7ff"/><path d="M1124.71,57.51l-14.45,16.22c-1,1.18.69,2.92,1.74,1.73l14.44-16.21C1127.49,58.07,1125.76,56.33,1124.71,57.51Z" fill="#dee7ff"/><path d="M1127.41,71.24l-7.36,7.37a1.22,1.22,0,0,0,1.73,1.73l7.37-7.36A1.23,1.23,0,0,0,1127.41,71.24Z" fill="#dee7ff"/></g><g id="Window_1" data-name="Window 1"><rect x="488.71" y="185.05" width="171.04" height="133.4" fill="#bcd7fd"/><rect x="510.81" y="273.51" width="45.42" height="18.26" fill="#fff"/><path d="M613.93,293H566.05V272.28h47.88Zm-45.42-2.46h43v-15.8h-43Z" fill="#003865"/><polygon points="603.49 283.25 606.56 304.12 623.13 293.07 603.49 283.25" fill="#fff"/><path d="M620.09,304.43l-7.87-10.51c-.94-1.25-3.07,0-2.12,1.24q3.93,5.25,7.87,10.51C618.91,306.92,621,305.7,620.09,304.43Z" fill="#fff"/><rect x="510.81" y="215.74" width="117.85" height="8.59" fill="#d24a43"/><path d="M615.11,235.38H512a1.23,1.23,0,0,0,0,2.45H615.11A1.23,1.23,0,0,0,615.11,235.38Z" fill="#003865"/><path d="M615.11,248.27H512a1.23,1.23,0,0,0,0,2.45H615.11A1.23,1.23,0,0,0,615.11,248.27Z" fill="#003865"/><path d="M649.72,203.27l-9.84-9.81a1.23,1.23,0,0,0-1.73,1.74L648,205A1.22,1.22,0,0,0,649.72,203.27Z"/><path d="M639.9,205l9.8-9.84a1.23,1.23,0,0,0-1.73-1.74l-9.8,9.85A1.22,1.22,0,0,0,639.9,205Z"/><path d="M506.8,314.56c.65,7.38-6,13.42-13.42,13.42a13.43,13.43,0,0,1,0-26.85C500.79,301.13,506,305.61,506.8,314.56Z" fill="#697ccc"/><path d="M628.57,199.37c.29,3.33-2.71,6.06-6.06,6.06a6.06,6.06,0,1,1,0-12.12C625.86,193.31,628.22,195.33,628.57,199.37Z" fill="#d24a43"/><path d="M492.17,309v11.05a1.23,1.23,0,0,0,2.46,0V309A1.23,1.23,0,0,0,492.17,309Z" fill="#dee7ff"/></g></svg>