<svg data-name="Layer 1" xmlns="http://www.w3.org/2000/svg" viewBox="0 0 100 100"><path d="M34.25 81.2a31.2 31.2 0 010-62.4 1.08 1.08 0 011.09 1.08v29.49h29a1.06 1.06 0 01.77.32 1.1 1.1 0 01.32.78A31.33 31.33 0 0134.25 81.2zM33.16 21a29 29 0 1030.07 30.54h-29a1.08 1.08 0 01-1.09-1.08z" fill="#4a93fb"/><path d="M34.25 81.2a31.29 31.29 0 01-27-15.6 1.07 1.07 0 01.39-1.48 1.09 1.09 0 011.49.39 29 29 0 0054.12-13h-29a1.09 1.09 0 110-2.17h30.11a1.06 1.06 0 01.77.32 1.1 1.1 0 01.32.78 31.33 31.33 0 01-31.2 30.76z" fill="#87b7fd"/><g fill="#0e6ffa"><path d="M49 42.11v2.11h-2.68v-2a7.35 7.35 0 01-4.88-2.46l2.25-2a5.11 5.11 0 003.72 1.65c1.58 0 2.86-1 2.86-2.18s-1.49-2-3.65-2.51c-3.18-.84-4.6-2.4-4.6-4.63 0-2.56 1.86-4.28 4.3-4.76v-2H49v2a8 8 0 014.26 2.14l-2 2.18A5.12 5.12 0 0047.81 28c-1.4 0-2.56.81-2.56 1.95 0 1.33 1.58 1.81 3.28 2.28 3.65 1 4.95 2.46 4.95 4.86 0 2.79-1.86 4.53-4.48 5.02zM56.4 32.56l5.14-7.18h3.6l-3.81 5.29a5.71 5.71 0 015.53 5.7 5.93 5.93 0 01-11.86.09 6.9 6.9 0 011.4-3.9zm4.6 6.85a3 3 0 002.88-2.93A2.91 2.91 0 1061 39.41zM74.69 25.19c3.76 0 6.13 3.7 6.13 8.48s-2.37 8.6-6.13 8.6-6.16-3.76-6.16-8.64c0-4.7 2.47-8.44 6.16-8.44zm3.16 8.53c0-3.21-1.14-5.69-3.19-5.69s-3.16 2.48-3.16 5.64 1.12 5.74 3.19 5.74 3.16-2.53 3.16-5.69zM88.91 25.38c3.43 0 5.48 1.81 5.48 4.81a4 4 0 01-.93 2.74 4.51 4.51 0 012.3 4c0 3.07-2.23 5-5.86 5h-6.85V25.38zm2.53 4.83c0-1.35-.68-1.93-2.28-1.93h-3.09v3.86h3c1.65 0 2.37-.63 2.37-1.93zM92.79 37c0-1.42-1-2.09-3.23-2.09h-3.49v4.2h3.72c2.02-.05 3-.77 3-2.11z"/></g><path d="M74.94 65.46H38a1.09 1.09 0 010-2.18h35.85v-15a1.09 1.09 0 012.18 0v16.09a1.09 1.09 0 01-1.09 1.09z" fill="#4a93fb"/><path d="M44.93 72.42a1.09 1.09 0 01-.77-.32l-7-7a1.08 1.08 0 010-1.54l7-7a1.09 1.09 0 111.54 1.54l-6.19 6.19 6.19 6.19a1.1 1.1 0 010 1.54 1.13 1.13 0 01-.77.4z" fill="#0e6ffa"/></svg>