<svg data-name="Layer 1" xmlns="http://www.w3.org/2000/svg" viewBox="0 0 50 50"><path d="M13.51 40.75h-7.9a.54.54 0 01-.54-.54v-4.3a.54.54 0 01.54-.54.54.54 0 01.54.54v3.76H13v-3.76a.54.54 0 011.08 0v4.3a.54.54 0 01-.54.54M44.39 40.75h-7.9a.54.54 0 01-.54-.54v-4.3a.54.54 0 011.08 0v3.76h6.82v-3.76a.54.54 0 01.54-.54.54.54 0 01.54.54v4.3a.54.54 0 01-.54.54M41.51 23.52a.52.52 0 01-.52-.43L38.39 11a.9.9 0 00-.87-.66h-25a.9.9 0 00-.87.67L9 23.09a.54.54 0 11-1-.22l2.6-12.11a2 2 0 011.92-1.51h25a2 2 0 011.92 1.49L42 22.87a.54.54 0 01-.41.64h-.12M12.08 32.14a2.7 2.7 0 112.69-2.7 2.7 2.7 0 01-2.69 2.7m0-4.31a1.62 1.62 0 101.61 1.61 1.62 1.62 0 00-1.61-1.61M37.92 32.14a2.7 2.7 0 112.7-2.7 2.7 2.7 0 01-2.7 2.7m0-4.31a1.62 1.62 0 000 3.23 1.62 1.62 0 100-3.23" fill="#cfe2fe"/><path d="M25 18.4a3.31 3.31 0 113.3-3.3 3.3 3.3 0 01-3.3 3.3m0-5.53a2.23 2.23 0 102.22 2.23A2.22 2.22 0 0025 12.87M34.09 21a3.3 3.3 0 113.3-3.3 3.31 3.31 0 01-3.3 3.3m0-5.52a2.22 2.22 0 102.22 2.22 2.23 2.23 0 00-2.22-2.22M15.91 21a3.3 3.3 0 113.31-3.3 3.3 3.3 0 01-3.31 3.3m0-5.52a2.22 2.22 0 102.23 2.22 2.23 2.23 0 00-2.23-2.22" fill="#fff"/><path d="M8.49 23.52h-.12a.54.54 0 01-.37-.65l2.6-12.11a.54.54 0 111 .23L9 23.09a.52.52 0 01-.52.43" fill="#cfe2fe"/><path d="M11.09 11.41H11a.55.55 0 01-.4-.66 2 2 0 011.92-1.49.54.54 0 01.54.54.54.54 0 01-.54.54.9.9 0 00-.87.68.53.53 0 01-.52.4" fill="#cfe2fe"/><path d="M19.31 10.33h-6.83a.54.54 0 01-.54-.54.54.54 0 01.54-.54h6.83a.54.54 0 01.54.54.54.54 0 01-.54.54" fill="#cfe2fe"/><path d="M13.51 40.75h-5a.54.54 0 01-.51-.54.54.54 0 01.54-.54h5a.54.54 0 01.54.54.54.54 0 01-.54.54" fill="#fff"/><path d="M13.51 40.75a.54.54 0 01-.54-.54v-4.3a.54.54 0 011.08 0v4.3a.54.54 0 01-.54.54M44.39 40.75h-5a.54.54 0 01-.54-.54.54.54 0 01.54-.54h5a.55.55 0 01.54.54.54.54 0 01-.54.54" fill="#fff"/><path d="M44.39 40.75a.54.54 0 01-.54-.54v-4.3a.54.54 0 01.54-.54.54.54 0 01.54.54v4.3a.54.54 0 01-.54.54" fill="#fff"/><path d="M44.39 36.45H5.61a.55.55 0 01-.54-.54v-9.46a2 2 0 01.58-1.4L8.1 22.6a.57.57 0 01.39-.16h33a.57.57 0 01.39.16l2.45 2.45a2 2 0 01.58 1.4v9.46a.55.55 0 01-.54.54M6.15 35.37h37.7v-8.92a.91.91 0 00-.27-.64l-2.29-2.29H8.71l-2.29 2.29a.91.91 0 00-.27.64z" fill="#fff"/><path d="M10.61 31.55a.59.59 0 01-.37-.14 2.7 2.7 0 013.67-3.95.54.54 0 010 .76.55.55 0 01-.77 0 1.6 1.6 0 00-2.28.09 1.62 1.62 0 00.14 2.31.54.54 0 010 .76.56.56 0 01-.4.17M36.46 31.55a.59.59 0 01-.37-.14 2.7 2.7 0 013.67-3.95.54.54 0 01-.74.79 1.61 1.61 0 00-2.19 2.37.54.54 0 010 .76.56.56 0 01-.4.17" fill="#fff"/></svg>