<svg data-name="Layer 1" xmlns="http://www.w3.org/2000/svg" viewBox="0 0 150 150"><path d="M76 141.26a2.08 2.08 0 01-.88-.19C39.54 124.64 16 82.92 15.17 34.8a2.09 2.09 0 012-2.12c16.55-.29 40.26-10.35 55.14-23.39a2.08 2.08 0 012.69 0c15.39 12.47 39.43 21.71 56 21.4a2.11 2.11 0 012.12 2.05c.84 48.12-21.21 90.63-56.18 108.3a2.09 2.09 0 01-.94.22zM19.39 36.77C20.8 82 42.82 121 75.93 136.86c32.55-17 53.19-56.73 53-102-17-.41-39.56-9.09-55.17-21.29-15.15 12.73-37.38 22.19-54.37 23.2z" fill="#0f6ffa"/><path d="M127.68 116.8a73.26 73.26 0 01-13.88-1.5c-16.27-3.19-35.69-11.1-54.69-22.3C23.62 72.16-7.25 40.65 2.52 24.05c5.86-10 24.93-10.48 51-1.37a2.08 2.08 0 11-1.37 3.93c-23.34-8.15-41.42-8.32-46-.44C-.4 37.24 20.19 65.3 61.23 89.43c18.6 10.94 37.56 18.67 53.37 21.78 14.89 2.92 25.35 1.32 28.7-4.37 4.17-7.09-2.69-20.69-17.89-35.49a2.08 2.08 0 012.9-3c17.16 16.7 23.94 31.49 18.59 40.59-3.05 5.2-9.7 7.86-19.22 7.86z" fill="#87b7fd"/><path d="M21.63 118.69c-8.14 0-14.39-2.21-17.59-7.25-5.66-8.9.59-23.92 17.16-41.21a2.09 2.09 0 013 2.89C9.53 88.44 3.15 102.27 7.56 109.2c6.89 10.85 41.25 5.29 81.42-20.26s59.77-54.3 52.87-65.14c-4.9-7.71-23-6.91-46 2.05a2.09 2.09 0 01-1.5-3.85c25.74-10 44.82-10.16 51-.4C155.71 37.81 126 70.37 91.22 92.46c-23.97 15.25-51.46 26.23-69.59 26.23z" fill="#4a93fb"/><g fill="#0f6ffa"><path d="M17.29 36.85l-.07-4.17c16.55-.29 40.26-10.35 55.14-23.39l2.75 3.13C59.32 26.27 35 36.54 17.29 36.85zM75.1 141.07c-26.84-12.4-46.49-38-55.32-72.2l4-1c8.51 32.92 27.34 57.59 53 69.45z"/></g><g fill="#0f6ffa"><path d="M130.2 34.87c-17.64 0-41.77-9.33-57.78-22.4l2.63-3.23C90.39 21.76 114.43 31 131 30.69l.07 4.17zM76.92 141L75 137.32c25.26-12.76 43.22-38.07 50.58-71.27l4.07.9c-7.6 34.45-26.34 60.76-52.73 74.05z"/></g></svg>