<svg data-name="Layer 1" xmlns="http://www.w3.org/2000/svg" viewBox="0 0 120 120"><g data-name="Layer 1-2" fill="none" stroke-linecap="round" stroke-linejoin="round" stroke-width="2"><path stroke="#0e6ffa" d="M35.07 48.58H14.3M70.39 48.58H49.62M105.7 48.58H84.93M35.07 71.42H14.3M70.39 71.42H49.62M105.7 71.42H84.93"/><path stroke="#87b7fd" d="M24.68 48.58H14.3M35.07 71.42H24.68M60 71.42H49.62M70.39 48.58H60M95.32 48.58H84.93M105.7 71.42H95.32"/><path stroke="#4a93fb" d="M64.38 103.17l13.16 13.16 13.17-13.16"/><path stroke="#0e6ffa" d="M77.55 115.53V31.38"/><circle cx="77.55" cy="18.21" r="13.17" stroke="#87b7fd"/><path stroke="#0e6ffa" d="M77.55 25.66v-8.82"/><circle cx="77.55" cy="12.2" r=".67" stroke="#0e6ffa"/><path stroke="#0e6ffa" d="M41.75 5.05v84.14"/><circle cx="41.75" cy="102.36" r="13.17" stroke="#87b7fd"/><path stroke="#0e6ffa" d="M41.75 109.82v-8.83"/><circle cx="41.75" cy="96.35" r=".67" stroke="#0e6ffa"/><path stroke="#4a93fb" d="M54.91 16.82L41.75 3.67 28.58 16.84"/></g></svg>