<svg data-name="Layer 1" xmlns="http://www.w3.org/2000/svg" viewBox="0 0 150 150"><path d="M106.29 48.9a5.14 5.14 0 01-3.67-1.52 5.2 5.2 0 010-7.35l35.76-35.76a5.2 5.2 0 117.35 7.35L110 47.38a5.18 5.18 0 01-3.71 1.52zM7.94 147.25a5.14 5.14 0 01-3.67-1.52 5.2 5.2 0 010-7.35L40 102.62a5.2 5.2 0 017.38 7.38l-35.76 35.73a5.18 5.18 0 01-3.68 1.52zM43.71 48.9A5.18 5.18 0 0140 47.38L4.27 11.62a5.2 5.2 0 017.35-7.35L47.38 40a5.2 5.2 0 010 7.35 5.14 5.14 0 01-3.67 1.55zM142.06 147.25a5.18 5.18 0 01-3.68-1.52L102.62 110a5.2 5.2 0 017.35-7.35l35.76 35.76a5.2 5.2 0 010 7.35 5.14 5.14 0 01-3.67 1.49z" fill="#4a93fb"/><circle cx="75" cy="75" r="17.88" fill="#87b7fd"/><path d="M142.06 57.84a5.19 5.19 0 01-5.2-5.19V13.14H97.35a5.2 5.2 0 010-10.39h44.71a5.19 5.19 0 015.19 5.19v44.71a5.19 5.19 0 01-5.19 5.19zM52.65 147.25H7.94a5.19 5.19 0 01-5.19-5.19V97.35a5.2 5.2 0 0110.39 0v39.51h39.51a5.2 5.2 0 010 10.39zM7.94 57.84a5.19 5.19 0 01-5.19-5.19V7.94a5.19 5.19 0 015.19-5.19h44.71a5.2 5.2 0 010 10.39H13.14v39.51a5.19 5.19 0 01-5.2 5.19zM142.06 147.25H97.35a5.2 5.2 0 010-10.39h39.51V97.35a5.2 5.2 0 0110.39 0v44.71a5.19 5.19 0 01-5.19 5.19z" fill="#0e6ffa"/></svg>