<svg data-name="Layer 1" xmlns="http://www.w3.org/2000/svg" viewBox="0 0 120 120"><g data-name="Layer 1-2" fill="none" stroke-linecap="round" stroke-linejoin="round" stroke-width="3"><path d="M105.15 100.4a9.49 9.49 0 009.51-9.47V24.34a9.49 9.49 0 00-9.49-9.49H43.35l-9.49-9.51H10.08a4.76 4.76 0 00-4.74 4.74v80.83a9.49 9.49 0 009.49 9.49h47.55" stroke="#0e6ffa"/><path d="M114.66 29.07H5.34v-19a4.76 4.76 0 014.74-4.74h23.74l9.49 9.51h61.84a9.49 9.49 0 019.51 9.47v4.75z" stroke="#4a93fb"/><path d="M96 66.83a12 12 0 00-24 0v9" stroke="#87b7fd"/><path d="M71.94 66.83v8m12-20a12 12 0 00-12 12" stroke="#4a93fb"/><path d="M100.4 114.66H67.13a4.72 4.72 0 01-4.75-4.7V81.39a4.72 4.72 0 014.71-4.74h33.31a4.72 4.72 0 014.75 4.7v28.57a4.72 4.72 0 01-4.7 4.74h-.05z" stroke="#0e6ffa"/><path d="M81.39 105.15h4.75v-7.77a4.75 4.75 0 00-2.36-8.86" stroke="#87b7fd"/><path d="M82.77 88.51a4.75 4.75 0 00-2.38 8.87v7.77h2.55" stroke="#4a93fb"/><path d="M5.34 10.08a4.76 4.76 0 014.74-4.74h23.74l9.49 9.51h61.84" stroke="#87b7fd"/></g></svg>