<svg data-name="Layer 1" xmlns="http://www.w3.org/2000/svg" width="40" height="40"><g fill="none" stroke-linecap="round" stroke-linejoin="round" stroke-width="1.85"><path stroke="#b7d4fe" d="M3.11 12.68H16.1"/><path stroke="#dfecfb" d="M3.11 17.19h20.75M7.62 21.13h5.63M25.63 19.71v5.36H3.11V7.05h22.52v3.38"/><path d="M30.13 21.69a7.26 7.26 0 01-6.75-6.76H20a4.49 4.49 0 01-4.5-4.5h10.13a11.26 11.26 0 0111.26 11.26h0A11.26 11.26 0 0125.63 33H13.25a3.38 3.38 0 01-3.38-3.38v-1.18H20" stroke="#f9fbfe"/><path d="M9.87 28.44h0a3.37 3.37 0 01-3.38-3.37h0" stroke="#dfecfb"/></g></svg>