<svg data-name="Layer 1" xmlns="http://www.w3.org/2000/svg" viewBox="0 0 120 120"><path d="M101.55 77H63.92a1.68 1.68 0 010-3.36h37.63a1.68 1.68 0 110 3.36z" fill="#4a93fb"/><path d="M83.28 77H63.92a1.68 1.68 0 010-3.36h19.36a1.68 1.68 0 010 3.36z" fill="#87b7fd"/><path d="M98.5 65.94H70.76a1.68 1.68 0 010-3.36H98.5a1.68 1.68 0 010 3.36zM98.5 88H70.76a1.68 1.68 0 110-3.35H98.5a1.68 1.68 0 010 3.35z" fill="#4a93fb"/><path d="M84.63 65.94H70.76a1.68 1.68 0 010-3.36h13.87a1.68 1.68 0 010 3.36zM84.63 88H70.76a1.68 1.68 0 110-3.35h13.87a1.68 1.68 0 010 3.35z" fill="#87b7fd"/><path d="M16.85 76.62a2.63 2.63 0 01-1.09-.25 2.53 2.53 0 01-1.45-2.29v-8.36H6.85A2.9 2.9 0 014 62.83V20.54a2.89 2.89 0 012.89-2.88h58a2.89 2.89 0 012.89 2.88v42.29a2.9 2.9 0 01-2.89 2.89H31.16L18.45 76.05a2.59 2.59 0 01-1.6.57zM7.32 62.36H16A1.68 1.68 0 0117.67 64v8.31l11.83-9.57a1.66 1.66 0 011.06-.38H64.4V21H7.32zM64.87 21z" fill="#0e6ffa"/><path d="M53.38 65.6V96h33.84a1.71 1.71 0 011.06.37l11.83 9.63v-8.32a1.68 1.68 0 011.68-1.68h8.68V54.65H67.69A1.67 1.67 0 0166 53a1.67 1.67 0 011.67-1.7h43.24a2.88 2.88 0 012.89 2.88v42.29a2.89 2.89 0 01-2.89 2.89h-7.46v8.25a2.63 2.63 0 01-1.06 2.17 2.58 2.58 0 01-1.48.48 2.48 2.48 0 01-1.59-.57l-12.7-10.33H52.91A2.88 2.88 0 0150 96.47V65.6a1.67 1.67 0 011.67-1.67 1.68 1.68 0 011.71 1.67zm-.48-10.95z" fill="#0e6ffa"/><path fill="#4a93fb" opacity=".5" stroke-linecap="round" stroke-linejoin="round" stroke-width="3.3" stroke="#87b7fd" d="M23.1 42.46l9 10.1"/><path fill="#4a93fb" opacity=".5" stroke-linecap="round" stroke-linejoin="round" stroke-width="3.3" stroke="#4a93fb" d="M50.03 30.44L32.1 52.56"/></svg>