<svg data-name="Layer 1" xmlns="http://www.w3.org/2000/svg" viewBox="0 0 120 120"><g data-name="Layer 1-2" fill="none" stroke-linecap="round" stroke-linejoin="round" stroke-width="3"><path d="M80.84 31.38L54.09 4.68A2.32 2.32 0 0052.36 4H8.42a2.34 2.34 0 00-2.34 2.29v43.94A2.35 2.35 0 006.8 52l63.34 63.3a2.35 2.35 0 003.3.13l.13-.13 30.37-30.37" stroke="#87b7fd"/><circle cx="36.64" cy="34.14" r="9.53" stroke="#87b7fd"/><path d="M80.84 31.38L54.09 4.68A2.32 2.32 0 0052.36 4H8.42a2.34 2.34 0 00-2.34 2.29v43.94" stroke="#4a93fb"/><path d="M93.78 37.41a20.14 20.14 0 1020.14 20.13h0a20.15 20.15 0 00-20.14-20.13z" stroke="#0e6ffa"/><path d="M43.19 41.06a9.53 9.53 0 01-14-12.85" stroke="#4a93fb"/><path stroke="#0e6ffa" d="M93.78 49.95v15.19"/><path stroke="#4a93fb" d="M86.19 57.54h15.18"/></g></svg>