<svg data-name="Layer 1" xmlns="http://www.w3.org/2000/svg" viewBox="0 0 64 64"><path d="M32 51.5a1.5 1.5 0 01-1.5-1.5V14a1.5 1.5 0 013 0v36a1.5 1.5 0 01-1.5 1.5z" fill="#fff" opacity=".7"/><path d="M31.56 46.72a30.6 30.6 0 01-9.88-1.85 1.5 1.5 0 111-2.83c4.69 1.7 11.14 2.55 14.19.41a4.42 4.42 0 001.82-4c0-2.74-2.58-3.73-6.77-5.13s-9.6-3.18-9.6-9a6.34 6.34 0 013.18-5.74c4.75-2.79 13-1.13 16 .6a1.5 1.5 0 01-1.44 2.63c-2.51-1.38-9.53-2.71-13-.65a3.36 3.36 0 00-1.75 3.15c0 3.45 2.85 4.65 7.54 6.21 4.14 1.37 8.83 2.93 8.83 8a7.39 7.39 0 01-3.08 6.36 12.28 12.28 0 01-7.04 1.84z" fill="#fff" opacity=".95"/><path d="M18.53 5A30.12 30.12 0 116.92 15.25" fill="none" stroke="#fff" stroke-linecap="round" stroke-miterlimit="10" stroke-width="3" opacity=".8"/><path d="M10.88 10.46a31.4 31.4 0 013-2.56" fill="none" stroke="#fff" stroke-linecap="round" stroke-miterlimit="10" stroke-width="3" opacity=".6"/></svg>