<svg data-name="Layer 1" xmlns="http://www.w3.org/2000/svg" width="40" height="40"><g fill="none" stroke-linecap="round" stroke-linejoin="round" stroke-width="1.85"><path d="M26.85 13.72v-4A6.85 6.85 0 0020 2.87h0a6.85 6.85 0 00-6.85 6.85v4" stroke="#b7d4fe"/><path d="M30.28 37.13H9.72a2.29 2.29 0 01-2.28-2.29v-16a2.29 2.29 0 012.28-2.29h20.56a2.29 2.29 0 012.28 2.29v16a2.29 2.29 0 01-2.28 2.29z" stroke="#f9fbfe"/><circle cx="20" cy="25.14" r="3.43" stroke="#b7d4fe"/><path d="M20 2.87h0a6.85 6.85 0 00-6.85 6.85v4M20 28.56v3.43M20 28.56a3.43 3.43 0 01-3.43-3.42" stroke="#dfecfb"/></g></svg>