<svg data-name="Layer 1" xmlns="http://www.w3.org/2000/svg" viewBox="0 0 50 50"><g fill="none" stroke-linecap="round" stroke-linejoin="round"><path stroke="#fff" d="M36.19 33.3h6.24"/><path stroke="#cfe2fe" d="M29.96 36.86V24.83M30.44 17.26h4A1.78 1.78 0 0136.19 19v4.5l5.34 3.05a1.78 1.78 0 01.9 1.54V39a1.77 1.77 0 01-.82 1.5L36.19 44H30v-2.69"/><circle cx="29.96" cy="39.09" r="2.23" stroke="#fff"/><circle cx="29.96" cy="22.61" r="2.23" stroke="#fff"/><path stroke="#cfe2fe" d="M36.19 23.5v20.49"/><g><circle cx="15.26" cy="19.42" r="2.56" stroke="#fff"/><path d="M15.26 44.78l3.62-3.62v-15a7.58 7.58 0 001.81-1.31 7.69 7.69 0 10-10.87 0 7.79 7.79 0 001.81 1.31v5.34l3.63 3.62-3.63 3.62v2.42z" stroke="#cfe2fe"/></g><path d="M14.87 16.73a8.38 8.38 0 119.76 5" stroke="#fff"/></g></svg>