<svg data-name="Layer 1" xmlns="http://www.w3.org/2000/svg" viewBox="0 0 60 60"><path d="M14.18 35.43a.76.76 0 01-.77-.77A2.62 2.62 0 0116 32h6.5a.78.78 0 010 1.56H16a1.07 1.07 0 00-1 1.11.77.77 0 01-.82.76z" fill="#0e6ffa"/><path d="M22.5 28.72H16a2.61 2.61 0 01-2.57-2.64.77.77 0 01.77-.78.78.78 0 01.78.78 1 1 0 001 1.09h6.52a.78.78 0 010 1.55zM22.5 33.55h-4.3a.78.78 0 110-1.56h4.3a.78.78 0 010 1.56z" fill="#4a93fb"/><path d="M22.5 28.72h-4.3a.78.78 0 110-1.55h4.3a.78.78 0 010 1.55zM14.13 26.74a2.6 2.6 0 112.59-2.6 2.61 2.61 0 01-2.59 2.6zm0-3.64a1 1 0 101 1 1 1 0 00-1-1zM14.13 39.36a2.59 2.59 0 112.59-2.59 2.6 2.6 0 01-2.59 2.59zm0-3.63a1 1 0 101 1 1 1 0 00-1-1zM24.29 2.8c2.89.28 5.16 3.07 5.16 6.35v13.4a.78.78 0 01-.78.77.77.77 0 01-.77-.77V9.15c0-2.49-1.65-4.61-3.76-4.81" fill="#87b7fd"/><path d="M46.94 35.43a.76.76 0 01-.77-.77 1.07 1.07 0 00-1-1.11h-7a.78.78 0 010-1.56h7a2.63 2.63 0 012.58 2.67.77.77 0 01-.81.77z" fill="#4a93fb"/><path d="M45.14 28.72h-7a.78.78 0 010-1.55h7a1 1 0 001-1.09.77.77 0 01.77-.78.78.78 0 01.78.78 2.62 2.62 0 01-2.55 2.64z" fill="#0e6ffa"/><path d="M42.48 33.55h-4.3a.78.78 0 010-1.56h4.3a.78.78 0 010 1.56z" fill="#87b7fd"/><path d="M42.48 28.72h-4.3a.78.78 0 010-1.55h4.3a.78.78 0 110 1.55z" fill="#4a93fb"/><path d="M47 26.74a2.6 2.6 0 112.59-2.6 2.6 2.6 0 01-2.59 2.6zm0-3.64a1 1 0 101 1 1 1 0 00-1-1z" fill="#87b7fd"/><path d="M47 39.36a2.59 2.59 0 112.59-2.59A2.59 2.59 0 0147 39.36zm0-3.63a1 1 0 101 1 1 1 0 00-1-1z" fill="#0e6ffa"/><path d="M37.13 56.74a4.87 4.87 0 01-.66 0 6.08 6.08 0 01-5.11-6.21V38.69a.78.78 0 111.55 0v11.8a4.53 4.53 0 003.72 4.67 4.14 4.14 0 003.24-1 4.07 4.07 0 001.31-3.07V51a.78.78 0 01.77-.77H43a7.68 7.68 0 007.24-7.35v-2.1A5.2 5.2 0 0152 36.8a4.63 4.63 0 001.56-3.51V28A4.67 4.67 0 0052 24.49a5.17 5.17 0 01-1.71-3.92v-2.23c0-4-3.82-7-7.24-7H42a.78.78 0 01-.77-.77v-1.7a4.73 4.73 0 00-1.51-3.51 3.83 3.83 0 00-3-1c-2.11.2-3.76 2.32-3.76 4.81v13.4a.77.77 0 01-.78.77.77.77 0 01-.77-.77V9.17c0-3.28 2.26-6.07 5.16-6.35a5.36 5.36 0 014.19 1.41 6.28 6.28 0 012 4.66v.94H43a8.89 8.89 0 018.79 8.53v2.23A3.62 3.62 0 0053 23.32 6.2 6.2 0 0155.09 28v5.28A6.22 6.22 0 0153 38a3.61 3.61 0 00-1.19 2.76v2.1c0 4.58-4.27 8.9-8.79 8.9h-.32a5.52 5.52 0 01-5.57 5z" fill="#0e6ffa"/><path d="M33.49 35.3h-6.57a1.61 1.61 0 01-1.61-1.61v-6.56a1.62 1.62 0 011.61-1.62h6.57a1.62 1.62 0 011.61 1.62v6.56a1.61 1.61 0 01-1.61 1.61zm-6.57-8.44a.27.27 0 00-.26.27v6.56a.26.26 0 00.26.26h6.57a.26.26 0 00.26-.26v-6.56a.27.27 0 00-.26-.27zM40.36 54.7a.77.77 0 01-.17 1.16 5.61 5.61 0 01-3.06.88 4.87 4.87 0 01-.66 0 6.08 6.08 0 01-5.11-6.21v-11.8a.8.8 0 01.64-.8.77.77 0 01.91.76v11.8a4.53 4.53 0 003.72 4.67 4.17 4.17 0 002.69-.59.8.8 0 011 .12zM37.89 44.11a.78.78 0 01-.78-.78v-4.85A2.49 2.49 0 0139.56 36h1.28c.41 0 .88-.63.9-1.22V32.8a.78.78 0 111.55 0v2a2.75 2.75 0 01-2.45 2.7h-1.28a1 1 0 00-.9 1v4.85a.78.78 0 01-.77.76z" fill="#87b7fd"/><path d="M42.51 28.71a.77.77 0 01-.77-.75v-1.52c0-.57-.49-1.19-.9-1.19h-1.28a2.5 2.5 0 01-2.45-2.54v-3.52a.78.78 0 011.55 0v3.52a1 1 0 00.9 1h1.28a2.75 2.75 0 012.45 2.7v1.53a.78.78 0 01-.76.78zM37.94 47.78a2.6 2.6 0 112.6-2.6 2.6 2.6 0 01-2.6 2.6zm0-3.64a1 1 0 000 2.08 1 1 0 000-2.08z" fill="#4a93fb"/><path d="M37.94 19.64a2.6 2.6 0 112.6-2.6 2.6 2.6 0 01-2.6 2.6zm0-3.64a1 1 0 000 2.08 1 1 0 000-2.08z" fill="#87b7fd"/><path d="M22.82 44.11a.78.78 0 01-.78-.78v-4.85a.94.94 0 00-.9-1h-1.27a2.72 2.72 0 01-2.45-2.71v-2a.78.78 0 01.76-.78.78.78 0 01.78.77v1.94c0 .57.48 1.2.9 1.2h1.27a2.49 2.49 0 012.46 2.53v4.85a.78.78 0 01-.77.83z" fill="#4a93fb"/><path d="M18.19 28.71a.77.77 0 01-.76-.79v-1.51a2.72 2.72 0 012.45-2.71h1.27a.94.94 0 00.9-1v-4a.78.78 0 011.56 0v4a2.5 2.5 0 01-2.46 2.54h-1.28c-.42 0-.88.62-.9 1.22v1.47a.79.79 0 01-.78.78zM22.76 47.78a2.6 2.6 0 112.6-2.6 2.6 2.6 0 01-2.6 2.6zm0-3.64a1 1 0 101 1 1 1 0 00-1-1z" fill="#87b7fd"/><path d="M22.76 19.19a2.6 2.6 0 112.6-2.59 2.59 2.59 0 01-2.6 2.59zm0-3.63a1 1 0 101 1 1 1 0 00-1-1z" fill="#4a93fb"/><path d="M31.21 31.91h-2a.5.5 0 01-.5-.5v-2a.5.5 0 01.5-.5h2a.5.5 0 01.5.5v2a.5.5 0 01-.5.5z" fill="#0e6ffa"/><path d="M28.62 9.15a.78.78 0 01-.77-.7 4.47 4.47 0 00-3.71-4.11 3.83 3.83 0 00-3 1 4.73 4.73 0 00-1.51 3.51v1.72a.78.78 0 01-.78.77h-1.07c-3.42 0-7.24 3-7.24 7v2.23a5.18 5.18 0 01-1.72 3.92A4.67 4.67 0 007.26 28v5.28a4.63 4.63 0 001.56 3.52 5.21 5.21 0 011.72 3.93v2.1a7.68 7.68 0 007.24 7.35h1.07a.78.78 0 01.78.77v.14a4 4 0 001.31 3.07 4.1 4.1 0 003.23 1 4.53 4.53 0 003.73-4.67V38.73a.8.8 0 01.64-.8.77.77 0 01.91.76v11.8a6.07 6.07 0 01-5.12 6.21 4.73 4.73 0 01-.65 0 5.52 5.52 0 01-5.57-5h-.33c-4.52 0-8.79-4.32-8.79-8.9v-2.1A3.65 3.65 0 007.8 38a6.2 6.2 0 01-2.09-4.68V28a6.2 6.2 0 012.09-4.68A3.63 3.63 0 009 20.57v-2.23a8.89 8.89 0 018.79-8.53h.3v-.94a6.25 6.25 0 012-4.66 5.35 5.35 0 014.2-1.41 6 6 0 015.1 5.47.78.78 0 01-.77.88z" fill="#0e6ffa"/></svg>