<svg data-name="Layer 1" xmlns="http://www.w3.org/2000/svg" viewBox="0 0 60 60"><g fill="none" stroke-linecap="round" stroke-linejoin="round" stroke-width="2.25"><g stroke="#0e6ffa"><circle cx="35.77" cy="7.78" r="4.95"/><circle cx="35.77" cy="52.22" r="4.95"/></g><g stroke="#0e6ffa"><circle cx="11.17" cy="17.65" r="4.95"/><circle cx="11.17" cy="42.35" r="4.95"/></g><circle cx="48.83" cy="30" r="4.95" stroke="#0e6ffa"/><path stroke="#4a93fb" d="M11.17 25.71v8.64M19.07 14.48l9.12-3.66M44.48 22.59l-4.6-7.82M39.97 45.08l4.51-7.67M19.17 45.56l8.73 3.5M16.12 24.6l14.43 20.27M16.12 35.63l15.44-20.99M35.84 43.77l.24-27.75"/><path stroke="#87b7fd" d="M35.84 43.77l.12-13.87M30.55 44.87L19.17 28.88M22.22 27.34l-6.1 8.29M19.17 45.56l4.67 1.87M23.33 12.77l4.86-1.95"/></g></svg>