<svg data-name="Layer 1" xmlns="http://www.w3.org/2000/svg" viewBox="0 0 120 120"><g data-name="Layer 1-2" fill="none" stroke-linecap="round" stroke-linejoin="round" stroke-width="2"><path stroke="#0e6ffa" d="M6.04 91.56l1.28-2.15"/><path stroke-dasharray="4.2 4.2" stroke="#0e6ffa" d="M9.46 85.8l3.21-5.42"/><path stroke="#0e6ffa" d="M13.74 78.58l1.28-2.16 1.61 1.91"/><path stroke-dasharray="3.9 3.9" stroke="#0e6ffa" d="M19.15 81.31l3.79 4.47"/><path stroke="#0e6ffa" d="M24.2 87.27l1.61 1.9"/><path stroke-dasharray="5" stroke="#0e6ffa" d="M90.71 57.31l18.33-19.75M51.45 76.56l14.97-21.21 9.41 11.76"/><path d="M61.75 22.56H43a1.34 1.34 0 00-1.33 1.33h0V66.1m42.8-12.74V23.9a1.33 1.33 0 00-1.33-1.34H61.75M54.66 97.4h16.78" stroke="#0e6ffa"/><path d="M94.29 97.4h12.28a1.32 1.32 0 001.34-1.32V58.65a1.33 1.33 0 00-1.3-1.34H77.17a1.33 1.33 0 00-1.33 1.32v37.43a1.33 1.33 0 001.34 1.34h12.28M49.13 73.69v-3.06c0-.33-.44-.59-1-.59h-20.3c-.53 0-1 .26-1 .59v3.06M25.9 83.27v13.17a1 1 0 001 1h13a.48.48 0 00.49-.49v-7.78h4.83v7.74a.48.48 0 00.49.49h3.39a1 1 0 001-1V83.27m-15 7.85a.47.47 0 01-.45.48h-3.91a.48.48 0 01-.48-.47h0v-3.89a.49.49 0 01.49-.48h3.87a.47.47 0 01.49.47h0z" stroke="#87b7fd"/><path d="M52.89 78.22l-3.63-4.53H26.73l-3.63 4.53a.59.59 0 00-.06.34 3.88 3.88 0 006.53 2.82 3.87 3.87 0 002.66 1.06 3.81 3.81 0 002.9-1.32 3.87 3.87 0 005.45.36 4.08 4.08 0 00.36-.36 3.87 3.87 0 005.45.36l.12-.1A3.87 3.87 0 0053 78.56a.48.48 0 00-.11-.34zM94.29 97.4h12.28a1.32 1.32 0 001.34-1.32V58.65a1.33 1.33 0 00-1.3-1.34H77.17a1.33 1.33 0 00-1.33 1.32v0" stroke="#4a93fb"/><path stroke="#0e6ffa" d="M103.8 33.05h9.15v9.17"/><rect x="46.84" y="27.4" width="4.84" height="4.84" rx=".48" stroke="#0e6ffa"/><rect x="56.05" y="27.4" width="4.84" height="4.84" rx=".48" stroke="#0e6ffa"/><rect x="65.28" y="27.4" width="4.84" height="4.84" rx=".48" stroke="#0e6ffa"/><rect x="74.5" y="27.4" width="4.84" height="4.84" rx=".48" stroke="#0e6ffa"/><rect x="46.84" y="37.19" width="4.84" height="4.84" rx=".48" stroke="#0e6ffa"/><rect x="56.05" y="37.19" width="4.84" height="4.84" rx=".48" stroke="#0e6ffa"/><rect x="65.28" y="37.19" width="4.84" height="4.84" rx=".48" stroke="#0e6ffa"/><rect x="74.5" y="37.19" width="4.84" height="4.84" rx=".48" stroke="#0e6ffa"/><rect x="46.84" y="46.98" width="4.84" height="4.84" rx=".48" stroke="#0e6ffa"/><rect x="46.84" y="56.76" width="4.84" height="4.84" rx=".48" stroke="#0e6ffa"/><rect x="56.05" y="46.98" width="4.84" height="4.84" rx=".48" stroke="#0e6ffa"/><path d="M63.22 97c0 .2-.21.35-.48.35h-3.86c-.28 0-.5-.15-.5-.35V85.83c0-.2.22-.35.5-.35h3.86c.27 0 .48.15.48.35z" stroke="#0e6ffa"/><path d="M67.89 97c0 .2-.22.35-.49.35h-3.87c-.27 0-.47-.15-.47-.35V85.83c0-.2.2-.35.47-.35h3.87c.27 0 .49.15.49.35z" stroke="#0e6ffa"/><rect x="65.28" y="46.98" width="4.84" height="4.84" rx=".48" stroke="#0e6ffa"/><rect x="56.05" y="76.18" width="4.84" height="4.84" rx=".48" stroke="#0e6ffa"/><rect x="65.28" y="76.18" width="4.84" height="4.84" rx=".48" stroke="#0e6ffa"/><rect x="65.28" y="66.23" width="4.84" height="4.84" rx=".48" stroke="#0e6ffa"/><rect x="80.18" y="61.61" width="4.4" height="4.4" rx=".44" stroke="#87b7fd"/><rect x="89.67" y="61.61" width="4.4" height="4.4" rx=".44" stroke="#87b7fd"/><rect x="99.15" y="61.61" width="4.4" height="4.4" rx=".44" stroke="#87b7fd"/><rect x="80.18" y="70.52" width="4.4" height="4.4" rx=".44" stroke="#87b7fd"/><rect x="89.67" y="70.52" width="4.4" height="4.4" rx=".44" stroke="#87b7fd"/><rect x="99.15" y="70.52" width="4.4" height="4.4" rx=".44" stroke="#87b7fd"/><rect x="80.18" y="79.42" width="4.4" height="4.4" rx=".44" stroke="#87b7fd"/><rect x="89.67" y="79.42" width="4.4" height="4.4" rx=".44" stroke="#87b7fd"/><rect x="99.15" y="79.42" width="4.4" height="4.4" rx=".44" stroke="#87b7fd"/><rect x="80.18" y="88.33" width="4.4" height="4.4" rx=".44" stroke="#87b7fd"/><rect x="99.15" y="88.33" width="4.4" height="4.4" rx=".44" stroke="#87b7fd"/><rect x="74.5" y="46.98" width="4.84" height="4.84" rx=".48" stroke="#0e6ffa"/><path stroke="#87b7fd" d="M94.29 88.33v9.07M89.46 88.33h4.83M89.46 97.4v-9.07"/><path d="M35.09 91.12a.47.47 0 01-.45.48h-3.9a.48.48 0 01-.48-.47h0v-3.89a.49.49 0 01.49-.48M84.58 65.56a.43.43 0 01-.44.44h-3.52a.44.44 0 01-.44-.44h0v-3.5a.46.46 0 01.44-.45M94 65.56a.43.43 0 01-.44.44h-3.45a.44.44 0 01-.44-.44h0v-3.5a.44.44 0 01.43-.44h0M103.56 65.56a.44.44 0 01-.45.44H99.6a.44.44 0 01-.45-.44h0v-3.5a.46.46 0 01.45-.45M84.58 74.48a.42.42 0 01-.41.44h0-3.55a.44.44 0 01-.44-.44h0V71a.44.44 0 01.44-.44h0M94 74.48a.43.43 0 01-.44.44h-3.45a.43.43 0 01-.44-.41V71a.44.44 0 01.44-.44h0M103.56 74.48a.43.43 0 01-.42.44h0-3.54a.44.44 0 01-.45-.44h0V71a.44.44 0 01.45-.44h0M84.58 83.4a.43.43 0 01-.44.43h-3.52a.44.44 0 01-.44-.43h0v-3.54a.44.44 0 01.44-.44h0M94 83.4a.43.43 0 01-.44.43h-3.45a.44.44 0 01-.44-.43h0v-3.54a.44.44 0 01.44-.44h0M103.56 83.4a.44.44 0 01-.45.43H99.6a.44.44 0 01-.45-.43h0v-3.54a.45.45 0 01.45-.44h0M84.58 92.3a.44.44 0 01-.43.44h-3.53a.44.44 0 01-.44-.44h0v-3.53a.44.44 0 01.44-.44h0M103.56 92.3a.44.44 0 01-.44.44H99.6a.45.45 0 01-.45-.44h0v-3.53a.44.44 0 01.44-.44h0" stroke="#4a93fb"/></g></svg>