<svg data-name="Layer 1" xmlns="http://www.w3.org/2000/svg" viewBox="0 0 120 120"><path d="M60.5 96.37A36.38 36.38 0 1196.87 60 36.42 36.42 0 0160.5 96.37zm0-70.43A34 34 0 1078.4 31a34.1 34.1 0 00-17.9-5.06z" fill="#0e6ffa"/><path d="M60.5 94.21a1.15 1.15 0 01-1.15-1.16V27a1.15 1.15 0 112.3 0v66.1a1.15 1.15 0 01-1.15 1.11z" fill="#87b7fd"/><path d="M60.5 96.37c-5.66 0-10.93-3.87-14.84-10.91-3.79-6.82-5.88-15.86-5.88-25.46 0-20 9.3-36.37 20.72-36.37S81.22 40 81.22 60 71.93 96.37 60.5 96.37zm0-70.43c-10.15 0-18.41 15.28-18.41 34.06s8.26 34.06 18.41 34.06S78.91 78.78 78.91 60 70.65 25.94 60.5 25.94z" fill="#0e6ffa"/><path d="M60.5 94.08a1.15 1.15 0 01-1.15-1.16V76.63a1.15 1.15 0 012.3 0v16.29a1.15 1.15 0 01-1.15 1.16zM60.5 44.52a1.14 1.14 0 01-1.15-1.15V27.08a1.15 1.15 0 112.3 0v16.29a1.14 1.14 0 01-1.15 1.15z" fill="#4a93fb"/><path d="M87.57 77.78H65.35a1.15 1.15 0 110-2.3h22.22a1.15 1.15 0 110 2.3z" fill="#87b7fd"/><path d="M69.79 77.78H32.41a1.15 1.15 0 110-2.3h37.38a1.15 1.15 0 110 2.3zM65.61 61.15H28.13a1.15 1.15 0 010-2.3h37.48a1.15 1.15 0 110 2.3z" fill="#4a93fb"/><path d="M87.83 61.15H50.35a1.15 1.15 0 010-2.3h37.48a1.15 1.15 0 110 2.3z" fill="#87b7fd"/><path d="M70 44.52H32.66a1.15 1.15 0 010-2.3H70a1.15 1.15 0 110 2.3z" fill="#4a93fb"/><path d="M87.83 44.52H65.61a1.15 1.15 0 110-2.3h22.22a1.15 1.15 0 110 2.3z" fill="#87b7fd"/><path d="M60.5 113A53 53 0 018.08 67.86a1.15 1.15 0 112.28-.34 50.72 50.72 0 0075.21 36.55 1.16 1.16 0 011.14 2A53 53 0 0160.5 113zM110.87 48.81a1.16 1.16 0 01-1.12-.88A50.73 50.73 0 0035.66 15.8a1.16 1.16 0 01-1.14-2A53 53 0 01112 47.38a1.15 1.15 0 01-.85 1.39.84.84 0 01-.28.04z" fill="#0e6ffa"/><path d="M111.05 49.29a1.14 1.14 0 01-.59-.16l-9.23-5.52a1.15 1.15 0 011.18-2l8.24 4.93 4.93-8.24a1.15 1.15 0 112 1.18L112 48.73a1.16 1.16 0 01-.95.56z" fill="#87b7fd"/><path d="M111.05 49.29a1.14 1.14 0 01-.59-.16l-9.23-5.52a1.15 1.15 0 011.18-2l9.23 5.52a1.15 1.15 0 01.4 1.58 1.16 1.16 0 01-.99.58z" fill="#4a93fb"/><path d="M111.05 49.29a1.14 1.14 0 01-.59-.16l-9.23-5.52a1.15 1.15 0 011.18-2l9.23 5.52a1.15 1.15 0 01.4 1.58 1.16 1.16 0 01-.99.58z" fill="#3371e2"/><path d="M3.43 77.56a1.15 1.15 0 01-1-1.74L8 66.59a1.15 1.15 0 012 1.18L4.42 77a1.16 1.16 0 01-.99.56z" fill="#87b7fd"/><path d="M18.18 73.85a1.14 1.14 0 01-.59-.16l-9.23-5.52a1.15 1.15 0 011.18-2l9.23 5.52a1.15 1.15 0 01.4 1.58 1.16 1.16 0 01-.99.58z" fill="#3371e2"/><path d="M18.18 73.85a1.14 1.14 0 01-.59-.16l-9.23-5.52a1.15 1.15 0 011.18-2l9.23 5.52a1.15 1.15 0 01.4 1.58 1.16 1.16 0 01-.99.58z" fill="#4a93fb"/></svg>