<svg data-name="Layer 1" xmlns="http://www.w3.org/2000/svg" viewBox="0 0 120 120"><path fill="none" stroke="#0e6ffa" stroke-linecap="round" stroke-linejoin="round" stroke-width="2" d="M54.07 23.58H33.3M66.93 60H87.7M33.3 94.42h20.77M71.3 23.42h-4.37"/><path fill="none" stroke="#4a93fb" stroke-linecap="round" stroke-linejoin="round" stroke-width="2" d="M79.37 23.41H76"/><path fill="none" stroke="#87b7fd" stroke-linecap="round" stroke-linejoin="round" stroke-width="2" d="M43.68 23.58H33.3M33.3 94.42h10.39M77.31 60H87.7M90.4 23.41H87"/><path fill="none" stroke="#0e6ffa" stroke-linecap="round" stroke-linejoin="round" stroke-width="2" d="M49.03 60h4.37"/><path fill="none" stroke="#4a93fb" stroke-linecap="round" stroke-linejoin="round" stroke-width="2" d="M40.96 60h3.37"/><path fill="none" stroke="#87b7fd" stroke-linecap="round" stroke-linejoin="round" stroke-width="2" d="M30.93 60h3.4"/><path fill="none" stroke="#0e6ffa" stroke-linecap="round" stroke-linejoin="round" stroke-width="2" d="M71.3 94.42h-4.37"/><path fill="none" stroke="#4a93fb" stroke-linecap="round" stroke-linejoin="round" stroke-width="2" d="M79.37 94.42H76"/><path fill="none" stroke="#87b7fd" stroke-linecap="round" stroke-linejoin="round" stroke-width="2" d="M89.4 94.42H86"/><path fill="none" stroke="#0e6ffa" stroke-linecap="round" stroke-linejoin="round" stroke-width="2" d="M66.55 114.19V5.05"/><circle cx="101.55" cy="60" r="13.17" fill="none" stroke="#87b7fd" stroke-linecap="round" stroke-linejoin="round" stroke-width="2"/><path fill="none" stroke="#0e6ffa" stroke-linecap="round" stroke-linejoin="round" stroke-width="2" d="M101.55 67.41v-8.82"/><circle cx="101.55" cy="54" r=".67" fill="none" stroke="#0e6ffa" stroke-linecap="round" stroke-linejoin="round" stroke-width="2"/><path fill="none" stroke="#0e6ffa" stroke-linecap="round" stroke-linejoin="round" stroke-width="2" d="M54.75 5.05v109.14"/><circle cx="19.75" cy="23.36" r="13.17" fill="none" stroke="#87b7fd" stroke-linecap="round" stroke-linejoin="round" stroke-width="2"/><path fill="none" stroke="#0e6ffa" stroke-linecap="round" stroke-linejoin="round" stroke-width="2" d="M19.75 30.82v-8.83"/><circle cx="19.75" cy="17.35" r=".67" fill="none" stroke="#0e6ffa" stroke-linecap="round" stroke-linejoin="round" stroke-width="2"/><circle cx="18.75" cy="94.36" r="13.17" fill="none" stroke="#87b7fd" stroke-linecap="round" stroke-linejoin="round" stroke-width="2"/><path fill="none" stroke="#0e6ffa" stroke-linecap="round" stroke-linejoin="round" stroke-width="2" d="M18.75 101.82v-8.83"/><circle cx="18.75" cy="88.35" r=".67" fill="none" stroke="#0e6ffa" stroke-linecap="round" stroke-linejoin="round" stroke-width="2"/></svg>