<svg data-name="Layer 1" xmlns="http://www.w3.org/2000/svg" viewBox="0 0 150 150"><path d="M92.36 99.26a1.5 1.5 0 01-.37 0 5.92 5.92 0 00-1.44-.26 1.53 1.53 0 01-1.47-1.94 5.46 5.46 0 00.22-1.44 1.51 1.51 0 011.52-1.49 1.52 1.52 0 011.5 1.55v.44l.42.09a1.53 1.53 0 01-.36 3zM90 94.07a1.52 1.52 0 01-1.33-.78 4.79 4.79 0 00-2.24-2.05 1.52 1.52 0 011.23-2.79 7.83 7.83 0 013.68 3.35 1.53 1.53 0 01-.6 2.08 1.51 1.51 0 01-.74.19zm-10-1.88a1.53 1.53 0 01-1-2.73 8.25 8.25 0 013.73-1.64 1.53 1.53 0 01.51 3 5.19 5.19 0 00-2.35 1 1.52 1.52 0 01-.89.37z" fill="#87b7fd"/><path d="M78.14 95.08A1.52 1.52 0 0176.69 94a6.87 6.87 0 00-.62-1.39 1.52 1.52 0 01.56-2.08 1.5 1.5 0 011.53 0 1.52 1.52 0 012 2.17 4.72 4.72 0 00-.55 1.3 1.52 1.52 0 01-1.44 1.11zM62.54 93.93a1.57 1.57 0 01-.72-.18 1.54 1.54 0 01-.63-2.07 10.31 10.31 0 013.19-3.6 1.53 1.53 0 011.75 2.5 7.35 7.35 0 00-2.24 2.53 1.53 1.53 0 01-1.35.82zm12.17-3.5a1.53 1.53 0 01-.82-.24 6 6 0 00-3.81-.92 1.53 1.53 0 11-.29-3 9 9 0 015.75 1.39 1.53 1.53 0 01-.83 2.81z" fill="#87b7fd"/><path d="M61.74 97.67H59.9a1.53 1.53 0 110-3h.4c0-.21.06-.41.1-.62a1.53 1.53 0 013 .6 6.43 6.43 0 00-.13 1.51 1.51 1.51 0 01-.44 1.1 1.49 1.49 0 01-1.09.41zM89.29 114.64h-4.71a1.53 1.53 0 110-3h4.71a1.53 1.53 0 010 3zm-9.41 0h-4.7a1.53 1.53 0 110-3h4.7a1.53 1.53 0 110 3zm-9.41 0h-4.7a1.53 1.53 0 110-3h4.7a1.53 1.53 0 110 3zm-9.41 0H60a10 10 0 01-4.15-1 1.53 1.53 0 011.33-2.76 6.82 6.82 0 002.85.68h1.06a1.53 1.53 0 110 3zm32.82-.74a1.53 1.53 0 01-.65-2.91 6.24 6.24 0 002.77-2.51 1.53 1.53 0 012.62 1.52 9.36 9.36 0 01-4.09 3.74 1.49 1.49 0 01-.65.16zM53 110.73a1.51 1.51 0 01-1.29-.71 9.91 9.91 0 01-1.54-5.27 1.53 1.53 0 011.53-1.53 1.53 1.53 0 011.53 1.52 6.81 6.81 0 001.06 3.65 1.52 1.52 0 01-.47 2.1 1.47 1.47 0 01-.82.24zm45.33-4.46a1.54 1.54 0 01-1.53-1.42 6.24 6.24 0 00-1.36-3.47 1.53 1.53 0 012.39-1.91 9.32 9.32 0 012 5.16 1.52 1.52 0 01-1.41 1.63zm-45.46-4.49a1.53 1.53 0 01-1.32-2.3 10 10 0 014-3.78A1.52 1.52 0 1157 98.39a6.92 6.92 0 00-2.79 2.61 1.55 1.55 0 01-1.32.78z" fill="#87b7fd"/><path d="M107.88 83.54h-.18a9.19 9.19 0 00-1.66-.09 1.54 1.54 0 01-1.23-.62 1.52 1.52 0 01-.23-1.35 10.86 10.86 0 00.34-1.58 1.53 1.53 0 013 .42v.18h.15a1.53 1.53 0 01-.19 3.05zM106.41 77.57a1.53 1.53 0 01-1.51-1.28 11.05 11.05 0 00-1.56-4.11 1.53 1.53 0 112.58-1.63 14.15 14.15 0 012 5.25 1.52 1.52 0 01-1.25 1.75 1.1 1.1 0 01-.26.02zM82.92 72a1.5 1.5 0 01-.87-.28 1.52 1.52 0 01-.38-2.12l.17-.24a1.53 1.53 0 112.47 1.8l-.13.18a1.53 1.53 0 01-1.26.66zm18.25-2.75a1.5 1.5 0 01-.87-.28 11.25 11.25 0 00-3.3-1.56l-.72-.19a1.53 1.53 0 11.7-3c.29.06.57.14.86.22a14.19 14.19 0 014.25 2 1.53 1.53 0 01-.88 2.78zm-14.35-.78a1.53 1.53 0 01-.75-2.86 14.33 14.33 0 015.33-1.71 1.53 1.53 0 11.36 3 11.15 11.15 0 00-4.2 1.35 1.54 1.54 0 01-.74.24z" fill="#4a93fb"/><path d="M81.28 75.49a1.53 1.53 0 01-1.46-1.06 12.9 12.9 0 00-.59-1.54 1.53 1.53 0 01.77-2 1.5 1.5 0 011.26 0 1.49 1.49 0 011.29 0 1.52 1.52 0 01.76 2 10.62 10.62 0 00-.57 1.51 1.5 1.5 0 01-1.44 1.1zM49.84 73.76a1.5 1.5 0 01-.62-.13 1.52 1.52 0 01-.78-2 17.24 17.24 0 013-4.56 1.53 1.53 0 012.26 2.06 14.13 14.13 0 00-2.45 3.74 1.51 1.51 0 01-1.41.89zm28.8-3.45a1.55 1.55 0 01-1.27-.67 13.23 13.23 0 00-3.08-3.21A1.53 1.53 0 1176.11 64a16.49 16.49 0 013.79 3.94 1.53 1.53 0 01-.41 2.06 1.5 1.5 0 01-.85.31zM56.4 66.49a1.55 1.55 0 01-1.32-.75 1.53 1.53 0 01.53-2.09 20.34 20.34 0 015-2.11 1.53 1.53 0 01.81 2.95 16.94 16.94 0 00-4.19 1.78 1.51 1.51 0 01-.83.22zm14.39-2a1.44 1.44 0 01-.46-.08 13.37 13.37 0 00-4.4-.6 1.53 1.53 0 11-.1-3.06 16.24 16.24 0 015.41.75 1.53 1.53 0 01-.45 3zM48.54 80.67h-1.85a1.53 1.53 0 010-3H47v-.41a1.53 1.53 0 013.05.18 15.32 15.32 0 000 1.66 1.5 1.5 0 01-.41 1.14 1.51 1.51 0 01-1.1.43zM102.21 114.64a1.53 1.53 0 110-3h4.35a1.54 1.54 0 011.62 1.43 1.52 1.52 0 01-1.43 1.62h-.72zm-4.49 0h-4.49a1.53 1.53 0 110-3h4.49a1.53 1.53 0 110 3zm-9 0h-4.47a1.53 1.53 0 110-3h4.49a1.53 1.53 0 110 3zm-9 0h-4.45a1.53 1.53 0 110-3h4.49a1.53 1.53 0 110 3zm-9 0h-4.43a1.53 1.53 0 110-3h4.49a1.53 1.53 0 110 3zm-9 0h-4.41a1.53 1.53 0 110-3h4.49a1.53 1.53 0 110 3zm-9 0h-4.39a1.53 1.53 0 110-3h4.49a1.53 1.53 0 110 3zm-9-.07h-.02a18.32 18.32 0 01-4.7-1.1 1.53 1.53 0 111-2.86 15.47 15.47 0 004 .91 1.53 1.53 0 01-.14 3zm67.23-.88a1.53 1.53 0 01-.53-3 13.87 13.87 0 003.55-1.92 1.53 1.53 0 111.82 2.45 17.06 17.06 0 01-4.32 2.34 1.58 1.58 0 01-.39.13zm-75.54-2.24a1.48 1.48 0 01-.89-.29 18.44 18.44 0 01-3.55-3.34 1.52 1.52 0 112.36-1.93 15.11 15.11 0 003 2.79 1.53 1.53 0 01-.89 2.77zm82.64-3a1.58 1.58 0 01-.92-.3A1.54 1.54 0 01117 106a14.41 14.41 0 002-3.54 1.53 1.53 0 112.86 1.07 16.87 16.87 0 01-2.37 4.3 1.51 1.51 0 01-1.31.58zm-88.25-3.84a1.52 1.52 0 01-1.39-.91 18.48 18.48 0 01-1.26-4.7 1.53 1.53 0 013-.48 15.18 15.18 0 001.16 3.91 1.54 1.54 0 01-.78 2 1.5 1.5 0 01-.6.14zm91.36-4.45h-.11a1.53 1.53 0 01-1.42-1.63V97.2a14.53 14.53 0 00-.32-2.71 1.53 1.53 0 113-.66 17.51 17.51 0 01.4 3.31V98.73a1.53 1.53 0 01-1.42 1.39zM28.55 95.8h-.16A1.53 1.53 0 0127 94.11a18.89 18.89 0 011.16-4.74A1.53 1.53 0 1131 90.48a15.4 15.4 0 00-1 4 1.53 1.53 0 01-1.45 1.32zm90.83-4.33a1.52 1.52 0 01-1.34-.79 14.13 14.13 0 00-2.43-3.22 1.52 1.52 0 112.14-2.17 17.24 17.24 0 013 3.92 1.53 1.53 0 01-1.34 2.26zm-87.6-3.94a1.52 1.52 0 01-1.23-2.43 18.44 18.44 0 013.38-3.51 1.53 1.53 0 111.9 2.41A15.66 15.66 0 0033 86.91a1.52 1.52 0 01-1.22.62zm81.3-2.28a1.57 1.57 0 01-.72-.18 14.12 14.12 0 00-3.08-1.22 1.52 1.52 0 11.77-2.95 17.09 17.09 0 013.75 1.47 1.53 1.53 0 01.63 2.07 1.55 1.55 0 01-1.35.81zM38.72 82a1.53 1.53 0 01-.6-2.93 18.93 18.93 0 014.69-1.33 1.53 1.53 0 01.44 3 15.43 15.43 0 00-3.92 1.1 1.49 1.49 0 01-.61.16z" fill="#4a93fb"/><path d="M121.57 114.64H29.93a27 27 0 010-54h3.79C34.16 47.2 45 36.5 59.64 35.44c14.85-1.07 22 9.18 24.76 14.89a18.8 18.8 0 017.6-7.81 22.36 22.36 0 0117-1.65l.29.08a20.67 20.67 0 0114.24 23.84 25 25 0 01-1.94 49.85zm-91.63-51a24 24 0 000 47.91h91.62a21.91 21.91 0 000-43.82 1.52 1.52 0 01-1.46-2 17.59 17.59 0 00-11.72-21.92l-.27-.08a19.34 19.34 0 00-14.61 1.46 15.69 15.69 0 00-7.62 9.62 1.53 1.53 0 01-1.47 1.11 1.53 1.53 0 01-1.47-1.11c-.2-.72-5.24-17.62-23.08-16.33-13.73 1-23.45 10.94-23.1 23.63a1.52 1.52 0 01-1.53 1.57z" fill="#0f6ffa"/></svg>