<svg id="Layer_1" data-name="Layer 1" xmlns="http://www.w3.org/2000/svg" viewBox="0 0 150 150">
  <g>
    <g>
      <path d="M82.87,143.68a4,4,0,0,1-2.82-1.17L5.15,67.61A4,4,0,0,1,4,64.79V28.47a4,4,0,0,1,1.17-2.83L23.3,7.49a4,4,0,0,1,2.83-1.17H62.45a4,4,0,0,1,2.82,1.17L101.81,44a4,4,0,1,1-5.65,5.65L60.79,14.3h-33L12,30.12v33L82.87,134l8.06-8a4,4,0,0,1,5.65,5.64L85.7,142.51A4,4,0,0,1,82.87,143.68Z" fill="#0e6ffa"/>
      <path d="M42,57.43A13.08,13.08,0,1,1,55.09,44.36,13.09,13.09,0,0,1,42,57.43Zm0-18.16a5.09,5.09,0,1,0,5.08,5.09A5.09,5.09,0,0,0,42,39.27Z" fill="#0e6ffa"/>
    </g>
    <g>
      <path d="M115.79,130.51a4,4,0,0,1-4-4V44.36a4,4,0,1,1,8,0v82.16A4,4,0,0,1,115.79,130.51Z" fill="#4a93fb"/>
      <path d="M115.79,130.51a4,4,0,0,1-2.82-1.17L86.73,103.1a4,4,0,0,1,5.65-5.64l23.41,23.41,23.42-23.41a4,4,0,0,1,5.64,5.64l-26.23,26.24A4,4,0,0,1,115.79,130.51Z" fill="#87b7fd"/>
    </g>
  </g>
</svg>
