<svg data-name="Layer 1" xmlns="http://www.w3.org/2000/svg" viewBox="0 0 150 150"><path d="M46.15 53a2.25 2.25 0 01-2.25-2.25V33.88a31.17 31.17 0 0162.33-.05v16.89a2.25 2.25 0 01-4.5 0V33.83a26.67 26.67 0 00-53.33.05v16.88A2.25 2.25 0 0146.15 53z" fill="#87b7fd"/><path d="M118.48 147.29H31.71a11.94 11.94 0 01-11.87-11.92V67.83A11.88 11.88 0 0131.71 56h86.75a11.91 11.91 0 0111.7 12v67.52a11.87 11.87 0 01-11.66 11.83zm-.06-86.83H31.71a7.38 7.38 0 00-7.37 7.37v67.54a7.43 7.43 0 007.38 7.42h86.71a7.38 7.38 0 007.23-7.35V67.92a7.4 7.4 0 00-7.24-7.46z" fill="#0f6ffa"/><path d="M75.06 111.16a16.73 16.73 0 1116.73-16.73 16.75 16.75 0 01-16.73 16.73zm0-29a12.23 12.23 0 1012.23 12.27A12.25 12.25 0 0075.06 82.2z" fill="#87b7fd"/><path d="M46.15 53a2.25 2.25 0 01-2.25-2.25V33.88A31.2 31.2 0 0175.06 2.71a2.25 2.25 0 010 4.5A26.69 26.69 0 0048.4 33.88v16.88A2.25 2.25 0 0146.15 53zM75.06 125.59a2.24 2.24 0 01-2.24-2.24v-14.48a2.25 2.25 0 114.49 0v14.48a2.24 2.24 0 01-2.25 2.24z" fill="#4a93fb"/><path d="M75.06 111.12a16.7 16.7 0 01-16.68-16.69 2.25 2.25 0 014.5 0 12.2 12.2 0 0012.18 12.19 2.25 2.25 0 010 4.5z" fill="#4a93fb"/></svg>