<svg data-name="Layer 1" xmlns="http://www.w3.org/2000/svg" viewBox="0 0 50 50"><g fill="none" stroke-linecap="round" stroke-linejoin="round"><path d="M36.39 31.52L40.63 29a3 3 0 014 .94h0a3 3 0 01-.63 3.91l-7.57 5.86a4 4 0 01-1.49.72l-13.57 3.4a4 4 0 01-3.16-.53l-9.97-6.42H4.89V26.16L11.56 25a4.08 4.08 0 012.59.44l6.15 3.36 10 .52a2.9 2.9 0 012.7 2.93h0a2.9 2.9 0 01-2.61 2.88l-10.8 1.08" stroke="#cfe2fe"/><path stroke="#fff" d="M33.04 6.05l-8.72 6.7v10.73h6.04v-6.03h5.36v6.03h6.03V12.75l-8.71-6.7zM18.17 43.3l-9.93-6.42H4.89V26.16L11.56 25a4.08 4.08 0 012.59.44l6.15 3.36 10 .52a2.9 2.9 0 012.7 2.93h0a2.9 2.9 0 01-2.61 2.88l-10.8 1.08"/></g></svg>