<svg id="Layer_1" data-name="Layer 1" xmlns="http://www.w3.org/2000/svg" viewBox="0 0 150 150">
  <g>
    <path d="M114.42,134.31a3.63,3.63,0,0,1-3.63-3.63v-9.82a3.63,3.63,0,0,1,7.26,0v9.82A3.62,3.62,0,0,1,114.42,134.31Z" fill="#87b7fd"/>
    <path d="M74.13,112.21a17.07,17.07,0,1,1,12.7-28.46,3.63,3.63,0,1,1-5.41,4.85,9.8,9.8,0,1,0-7.29,16.34,3.64,3.64,0,0,1,0,7.27Z" fill="#0e6ffa"/>
    <path d="M109,64a3.63,3.63,0,0,1-2.57-1.07,45.6,45.6,0,0,0-64.5,0,3.63,3.63,0,0,1-5.14-5.13,52.87,52.87,0,0,1,74.78,0A3.64,3.64,0,0,1,109,64Z" fill="#0e6ffa"/>
    <path d="M135.07,39a3.62,3.62,0,0,1-2.57-1.06,82.54,82.54,0,0,0-116.74,0,3.63,3.63,0,0,1-5.13-5.14,89.81,89.81,0,0,1,127,0,3.63,3.63,0,0,1,0,5.14A3.58,3.58,0,0,1,135.07,39Z" fill="#0e6ffa"/>
    <path d="M114.42,124.5a9.23,9.23,0,1,1,9.23-9.23A9.24,9.24,0,0,1,114.42,124.5Zm0-11.2a2,2,0,1,0,2,2A2,2,0,0,0,114.42,113.3Z" fill="#4a93fb"/>
    <path d="M136.8,143.54H92a3.62,3.62,0,0,1-3.63-3.63V100.44A3.63,3.63,0,0,1,92,96.81H136.8a3.63,3.63,0,0,1,3.63,3.63v39.47A3.62,3.62,0,0,1,136.8,143.54Zm-41.13-7.26h37.5V104.07H95.67Z" fill="#87b7fd"/>
    <path d="M125.64,104.07a3.63,3.63,0,0,1-3.63-3.63V87.18c0-3.48-3.4-6.31-7.59-6.31s-7.59,2.83-7.59,6.31v13.26a3.63,3.63,0,1,1-7.26,0V87.18c0-7.48,6.66-13.57,14.85-13.57s14.85,6.09,14.85,13.57v13.26A3.62,3.62,0,0,1,125.64,104.07Z" fill="#4a93fb"/>
    <path d="M125.63,104.07a3.62,3.62,0,0,1-3.63-3.63V87.18c0-3.48-3.41-6.31-7.59-6.31a3.63,3.63,0,1,1,0-7.26c8.19,0,14.85,6.09,14.85,13.57v13.26A3.63,3.63,0,0,1,125.63,104.07Z" fill="#87b7fd"/>
    <path d="M92,143.54a3.62,3.62,0,0,1-3.63-3.63V100.44A3.63,3.63,0,0,1,92,96.81h22.37a3.63,3.63,0,1,1,0,7.26H95.67v35.84A3.63,3.63,0,0,1,92,143.54Z" fill="#4a93fb"/>
  </g>
</svg>
