<svg data-name="Layer 1" xmlns="http://www.w3.org/2000/svg" width="40" height="40"><g fill="none" stroke-linecap="round" stroke-linejoin="round" stroke-width="1.85"><path d="M31.32 33.76c-.22-3.87-2.42-5.09-5.65-6.17-2.31-.77-3.05-3.1-3.29-4.52M17.61 23.07c-.23 1.42-1 3.75-3.28 4.52-3.23 1.08-5.46 2.29-5.68 6.16" stroke="#f9fbfe"/><path d="M20 23.56h0a5.94 5.94 0 01-5.94-5.94v-2.37A5.94 5.94 0 0120 9.31h0a5.94 5.94 0 015.94 5.94v2.37A5.94 5.94 0 0120 23.56z" stroke="#f9fbfe"/><circle cx="20" cy="20" r="17.82" stroke="#dfecfb"/></g></svg>