<?xml version="1.0" encoding="UTF-8" standalone="no"?>
<!DOCTYPE svg PUBLIC "-//W3C//DTD SVG 1.1//EN" "http://www.w3.org/Graphics/SVG/1.1/DTD/svg11.dtd">
<svg width="100%" height="100%" viewBox="0 0 100 75" version="1.1" xmlns="http://www.w3.org/2000/svg" xmlns:xlink="http://www.w3.org/1999/xlink" xml:space="preserve" xmlns:serif="http://www.serif.com/" style="fill-rule:evenodd;clip-rule:evenodd;stroke-linejoin:round;stroke-miterlimit:2;">
    <g id="gears">
        <g id="left-cog">
            <g opacity="0.8">
                <path d="M39.8,63.5C39.3,63.5 38.8,63.4 38.4,63.2C38,63 37.6,62.8 37.2,62.4C36.5,61.7 36.1,60.7 36.1,59.7L36.1,58.4C34.7,58 33.3,57.4 32,56.7L31,57.6C29.5,59 27.2,59 25.7,57.6L23.5,55.4C22.8,54.7 22.4,53.7 22.4,52.7C22.4,51.7 22.8,50.6 23.6,49.9L24.6,49C23.9,47.7 23.4,46.4 23,45L21.6,45C19.6,45 18,43.4 17.9,41.4L17.9,38.2C17.9,36.2 19.5,34.5 21.5,34.5L23,34.5C23.4,33.1 24,31.8 24.7,30.5L23.7,29.5C22.3,28 22.3,25.7 23.7,24.2L25.9,22C26.6,21.3 27.6,20.9 28.6,20.9C29.6,20.9 30.6,21.3 31.3,22L32.2,22.9C33.5,22.2 34.8,21.6 36.2,21.3L36.2,20C36.2,19 36.5,18 37.3,17.3C38,16.6 39,16.2 40,16.2L43.1,16.2C44.1,16.2 45.1,16.6 45.8,17.3C46.5,18 46.9,19 46.9,20L46.9,22.8C46.9,23.3 46.5,23.6 46.1,23.6C45.6,23.6 45.3,23.2 45.3,22.8L45.3,20C45.3,19.4 45.1,18.9 44.6,18.4C44.2,18 43.7,17.8 43.1,17.8L40,17.8C39.4,17.8 38.9,18 38.5,18.4C38.1,18.8 37.9,19.3 37.9,19.9L37.9,21.9C37.9,22.3 37.6,22.6 37.3,22.7C35.6,23.1 34.1,23.8 32.6,24.7C32.3,24.9 31.9,24.8 31.6,24.6L30.2,23.2C29.8,22.8 29.3,22.5 28.7,22.6C28.1,22.6 27.5,22.8 27.1,23.2L25,25.4C24.2,26.2 24.2,27.6 25,28.4L26.4,29.8C26.7,30.1 26.7,30.5 26.5,30.8C25.6,32.3 24.9,33.9 24.5,35.6C24.4,36 24.1,36.2 23.7,36.2L21.6,36.2C21.1,36.2 20.5,36.4 20.1,36.8C19.7,37.2 19.5,37.7 19.5,38.3L19.5,41.5C19.5,42.6 20.4,43.5 21.5,43.5L23.5,43.5C23.9,43.5 24.2,43.7 24.3,44.1C24.7,45.8 25.4,47.3 26.3,48.8C26.5,49.1 26.4,49.5 26.2,49.8L24.8,51.2C24.4,51.6 24.2,52.1 24.2,52.7C24.2,53.3 24.4,53.8 24.8,54.3L27,56.5C27.8,57.3 29.2,57.3 30,56.5L31.4,55.2C31.7,54.9 32.1,54.9 32.4,55.1C33.9,56 35.5,56.7 37.2,57.1C37.6,57.2 37.8,57.5 37.8,57.9L37.8,59.8C37.8,60.4 38,61 38.4,61.4C38.6,61.6 38.8,61.7 39.1,61.8C39.4,61.9 39.6,62 39.9,62L42.9,62C43.5,62 44,61.8 44.5,61.4C44.9,61 45.1,60.5 45.1,59.9L45.1,57.9C45.1,57.5 45.4,57.2 45.7,57.1C47.4,56.7 48.9,56 50.4,55.1C50.7,54.9 51.1,55 51.4,55.2L52.8,56.6C53.2,57 53.7,57.2 54.3,57.2C54.9,57.2 55.5,57 55.9,56.6L58.2,54.3C58.9,53.5 58.9,52.2 58.1,51.5L56.1,49.5C55.8,49.2 55.8,48.7 56.1,48.3C56.4,47.9 56.9,48 57.3,48.3L59.3,50.3C60.8,51.7 60.8,54 59.4,55.4L59.2,55.6L57,57.7C56.3,58.4 55.3,58.8 54.3,58.8C53.3,58.8 52.3,58.4 51.6,57.7L50.7,56.7C49.4,57.4 48.1,57.9 46.7,58.3L46.7,59.7C46.7,60.7 46.3,61.7 45.6,62.4C44.9,63.1 43.9,63.5 42.9,63.5L39.8,63.5Z" style="fill:#0e6ffa;fill-rule:nonzero;"/>
            </g>
            <g opacity="0.5">
                <path d="M41.4,50C40.2,50 38.9,49.8 37.7,49.3L37.5,49.3C32.3,47.2 29.8,41.2 31.9,36C34,30.8 40,28.3 45.2,30.4C45.6,30.5 45.8,31 45.7,31.4C45.5,31.8 45.1,32 44.6,31.9C40.2,30.1 35.2,32.1 33.4,36.5C31.6,40.9 33.6,45.9 38,47.7L38.2,47.7C42.6,49.4 47.5,47.3 49.4,43C49.6,42.6 50.1,42.4 50.5,42.6C50.9,42.8 51,43.2 50.9,43.6C49.3,47.5 45.5,50 41.4,50Z" style="fill:#0e6ffa;fill-rule:nonzero;"/>
            </g>
        </g>
        <g id="right-cog">
            <g opacity="0.5">
                <path d="M65.3,38C61.1,38 57.7,34.6 57.7,30.3C57.7,26 61.1,22.7 65.3,22.7C69.5,22.7 73,26.1 73,30.4C72.9,34.6 69.5,38 65.3,38ZM65.3,24.4C62,24.4 59.3,27.1 59.3,30.4C59.3,33.7 62,36.4 65.3,36.4C68.6,36.4 71.3,33.7 71.3,30.4C71.3,27 68.6,24.4 65.3,24.4Z" style="fill:#0e6ffa;fill-rule:nonzero;"/>
            </g>
            <g opacity="0.5">
                <path d="M69.7,47.5C68.4,47.5 67.2,46.7 66.6,45.5L66.4,44.9C65.6,45 64.8,45 64,44.9L63.8,45.4C63.1,47.1 61.2,47.9 59.6,47.3L57.4,46.4C55.7,45.7 54.9,43.8 55.6,42.1L55.8,41.6C55.2,41.1 54.6,40.5 54.1,39.9L53.7,40.1C52.9,40.5 51.9,40.5 51.1,40.1C50.3,39.8 49.7,39.1 49.3,38.3L48.5,36.2C47.8,34.6 48.6,32.7 50.2,32L50.3,32L50.8,31.8C50.7,31 50.7,30.2 50.8,29.3L50.3,29C49.5,28.7 48.9,28 48.5,27.2C48.2,26.4 48.2,25.5 48.5,24.7L49.4,22.6C50.1,20.9 52,20.1 53.7,20.8L54.2,21C54.7,20.4 55.3,19.8 56,19.3L55.8,18.8C55.1,17.2 55.8,15.3 57.4,14.6L57.6,14.5L59.6,13.7C61.3,13 63.2,13.8 63.9,15.5L64,16C64.8,15.9 65.6,15.9 66.5,16L66.7,15.5C67.4,13.8 69.3,13 71,13.6L73.1,14.5C73.9,14.8 74.6,15.5 74.9,16.3C75.2,17.1 75.2,18 74.9,18.8L74.7,19.3C75.3,19.8 75.9,20.4 76.4,21L76.9,20.8C77.7,20.5 78.6,20.5 79.4,20.8C80.2,21.1 80.9,21.8 81.2,22.6L82,24.7C82.3,25.5 82.3,26.4 82,27.2C81.7,28 81,28.7 80.2,29.1L79.6,29.3C79.7,30.1 79.7,30.9 79.6,31.8L80.1,32C81.7,32.7 82.4,34.6 81.7,36.2L80.9,35.9L81.7,36.2L80.8,38.3C80.5,39.1 79.8,39.7 79.1,40.1C78.3,40.4 77.4,40.4 76.6,40.1L76.1,39.9C75.6,40.5 75,41.1 74.3,41.7L74.5,42.3C74.8,43.1 74.8,44 74.5,44.8C74.2,45.6 73.5,46.2 72.7,46.6L70.7,47.4C70.6,47.4 70.1,47.5 69.7,47.5ZM67,43.1C67.4,43.1 67.7,43.3 67.8,43.7L68.2,44.9C68.6,45.7 69.6,46.1 70.4,45.7L72.4,44.9C72.8,44.7 73.1,44.4 73.3,44C73.5,43.6 73.5,43.2 73.3,42.8L72.9,41.6C72.8,41.3 72.9,40.9 73.2,40.7C74.1,40 74.8,39.2 75.5,38.4C75.7,38.1 76.1,38 76.5,38.2L77.6,38.6C78,38.8 78.5,38.8 78.9,38.6C79.3,38.4 79.6,38.1 79.8,37.7L80.7,35.6C80.9,35.2 80.9,34.8 80.7,34.4C80.6,34 80.2,33.7 79.9,33.5L78.6,33C78.3,32.9 78.1,32.5 78.1,32.2C78.2,31.1 78.2,30 78.1,28.9C78.1,28.5 78.3,28.2 78.6,28L79.7,27.5C80.1,27.3 80.4,27 80.6,26.6C80.8,26.2 80.8,25.8 80.6,25.4L79.8,23.4C79.6,23 79.3,22.7 78.9,22.5C78.5,22.3 78,22.3 77.6,22.5L76.5,23C76.1,23.2 75.7,23 75.5,22.7C74.8,21.8 74.1,21 73.2,20.3C72.9,20.1 72.8,19.7 73,19.3L73.4,18.3C73.6,17.9 73.6,17.4 73.4,17C73.2,16.6 72.9,16.3 72.5,16.1L70.4,15.2C69.6,14.9 68.6,15.3 68.3,16.1L67.8,17.2C67.7,17.5 67.3,17.7 67,17.7C65.9,17.6 64.8,17.6 63.7,17.7C63.3,17.7 63,17.5 62.8,17.2L62.3,16C62.1,15.6 61.8,15.3 61.4,15.1C61,14.9 60.5,14.9 60.1,15.1L58.1,15.9L58,16C57.2,16.4 56.9,17.3 57.2,18.1L57.7,19.2C57.9,19.6 57.7,20 57.4,20.2C56.5,20.9 55.7,21.6 55,22.5C54.8,22.8 54.4,22.9 54,22.7L53,22.3C52.2,22 51.2,22.4 50.9,23.2L50,25.3C49.6,26.1 50,27.1 50.9,27.4L52,27.9C52.3,28 52.5,28.4 52.5,28.8C52.4,29.9 52.4,31 52.5,32.2C52.6,32.6 52.4,32.9 52,33.1L50.9,33.6L50.8,33.6C50,34 49.7,34.9 50,35.6L50.8,37.7C51,38.1 51.3,38.4 51.7,38.6C52.1,38.8 52.5,38.8 52.9,38.6L53.8,38.1C54.1,37.9 54.6,38 54.8,38.3C55.5,39.2 56.3,40 57.1,40.7C57.4,40.9 57.5,41.3 57.3,41.6L56.9,42.7C56.6,43.5 57,44.5 57.8,44.8L59.9,45.7C60.7,46 61.7,45.6 62,44.8L62.5,43.7C62.6,43.4 63,43.2 63.3,43.2C64.7,43.3 65.8,43.3 67,43.1Z" style="fill:#0e6ffa;fill-rule:nonzero;"/>
            </g>
            <path d="M69.7,47.5C68.4,47.5 67.2,46.7 66.6,45.5L66.4,44.9C65.6,45 64.8,45 64,44.9L63.8,45.4C63.1,47.1 61.2,47.9 59.6,47.3L57.4,46.4C57,46.2 56.8,45.7 56.9,45.3C57.1,44.9 57.6,44.7 58,44.8L60.1,45.7C60.9,46 61.9,45.6 62.2,44.8L62.7,43.7C62.8,43.4 63.2,43.2 63.5,43.2C64.6,43.3 65.7,43.3 66.8,43.2C67.2,43.2 67.5,43.4 67.7,43.7L68.1,44.9C68.5,45.7 69.5,46.1 70.3,45.7L72.3,44.9C72.7,44.7 73,44.4 73.2,44C73.4,43.6 73.4,43.2 73.2,42.8L72.8,41.7C72.7,41.4 72.8,41 73.1,40.8C74,40.1 74.7,39.3 75.4,38.5C75.6,38.2 76,38.1 76.4,38.3L77.5,38.7C78.3,39 79.3,38.6 79.6,37.8L80.5,35.7C80.9,34.9 80.5,34 79.8,33.6L78.6,33C78.3,32.9 78.1,32.5 78.1,32.2C78.2,31.1 78.2,30 78.1,28.9C78.1,28.5 78.3,28.2 78.6,28L79.7,27.5C80.1,27.3 80.4,27 80.6,26.6C80.8,26.2 80.8,25.8 80.6,25.4L79.8,23.4C79.6,23 79.3,22.7 78.9,22.5C78.5,22.3 78.1,22.3 77.7,22.5L76.6,23C76.2,23.2 75.8,23 75.6,22.7C74.9,21.8 74.2,21 73.3,20.3C73,20.1 72.9,19.7 73.1,19.3L73.5,18.3C73.8,17.5 73.4,16.5 72.6,16.2L70.5,15.3C70.1,15.1 69.9,14.6 70,14.2C70.2,13.8 70.7,13.6 71.1,13.7L73.2,14.6C74,14.9 74.7,15.6 75,16.4C75.3,17.2 75.3,18.1 75,18.9L74.8,19.4C75.4,19.9 76,20.5 76.6,21.1L77.1,20.9C77.9,20.6 78.8,20.6 79.6,20.9C80.4,21.2 81.1,21.9 81.4,22.7L82.2,24.8C82.5,25.6 82.5,26.5 82.2,27.3C81.9,28.1 81.2,28.8 80.4,29.2L79.8,29.4C79.9,30.2 79.9,31 79.8,31.9L80.3,32.1C81.9,32.8 82.7,34.7 82,36.3L81.1,38.4C80.8,39.2 80.1,39.8 79.3,40.2C78.5,40.5 77.6,40.5 76.8,40.2L76.3,40C75.8,40.6 75.2,41.2 74.6,41.7L74.8,42.3C75.1,43.1 75.1,44 74.8,44.8C74.4,45.6 73.8,46.3 73,46.6L71,47.4C70.6,47.4 70.1,47.5 69.7,47.5Z" style="fill:#0e6ffa;fill-rule:nonzero;"/>
            <g opacity="0.6">
                <path d="M65.3,38C64.8,38 64.5,37.6 64.5,37.2C64.5,36.7 64.9,36.4 65.3,36.4C68.6,36.4 71.3,33.7 71.3,30.4C71.3,27.1 68.6,24.4 65.3,24.4C64.8,24.3 64.5,23.9 64.6,23.5C64.6,23.1 64.9,22.8 65.3,22.8C69.5,22.8 73,26.2 73,30.4C73,34.6 69.5,38 65.3,38Z" style="fill:#0e6ffa;fill-rule:nonzero;"/>
            </g>
        </g>
        <g id="right-arrow">
            <g opacity="0.6">
                <path d="M90.5,31L88.9,30.8C90.5,20.6 83.5,11 73.3,9.4C72.8,9.3 72.5,8.9 72.6,8.5C72.7,8 73.1,7.7 73.5,7.8C84.7,9.5 92.3,19.9 90.5,31Z" style="fill:#0e6ffa;fill-rule:nonzero;"/>
            </g>
            <g opacity="0.8">
                <path d="M89.8,33.4C89.6,33.4 89.3,33.3 89.2,33.1L85.5,28.7C85.2,28.4 85.3,27.8 85.6,27.5C85.9,27.2 86.5,27.3 86.8,27.6L90,31.4L93.8,28.2C94.1,27.9 94.7,27.9 95,28.3C95.3,28.6 95.2,29.2 94.9,29.5L90.5,33.2C90.1,33.3 89.9,33.4 89.8,33.4Z" style="fill:#0e6ffa;fill-rule:nonzero;"/>
            </g>
        </g>
        <g id="left-arrow">
            <g opacity="0.6">
                <path d="M25.1,67.2L25,67.2C14.5,65.5 7.4,55.7 9,45.2C9.1,44.8 9.5,44.4 9.9,44.5C10.3,44.6 10.7,45 10.6,45.4L10.6,45.5C9.2,55.1 15.7,64 25.3,65.5C25.7,65.6 26,66 25.9,66.5C25.8,66.9 25.5,67.1 25.1,67.2Z" style="fill:#0e6ffa;fill-rule:nonzero;"/>
            </g>
            <g opacity="0.8">
                <path d="M13.5,48.7C13.3,48.7 13.1,48.6 12.9,48.4L9.8,45L6.4,48.2C6.1,48.6 5.6,48.6 5.2,48.3C4.8,48 4.8,47.5 5.1,47.1C5.1,47 5.2,47 5.3,47L9.3,43.3C9.6,43 10.1,43 10.5,43.3L14.2,47.3C14.5,47.6 14.5,48.1 14.2,48.5C14,48.6 13.8,48.7 13.5,48.7Z" style="fill:#0e6ffa;fill-rule:nonzero;"/>
            </g>
        </g>
    </g>
</svg>
