<?xml version="1.0" encoding="UTF-8" standalone="no"?>
<!DOCTYPE svg PUBLIC "-//W3C//DTD SVG 1.1//EN" "http://www.w3.org/Graphics/SVG/1.1/DTD/svg11.dtd">
<svg width="100%" height="100%" viewBox="0 0 100 75" version="1.1" xmlns="http://www.w3.org/2000/svg" xmlns:xlink="http://www.w3.org/1999/xlink" xml:space="preserve" xmlns:serif="http://www.serif.com/" style="fill-rule:evenodd;clip-rule:evenodd;stroke-linejoin:round;stroke-miterlimit:2;">
    <path d="M62.4,13.8C61.8,13.8 61.4,13.4 61.4,12.8L61.4,3.3C61.4,2.7 61.8,2.3 62.4,2.3C63,2.3 63.4,2.7 63.4,3.3L63.4,12.9C63.4,13.4 63,13.8 62.4,13.8Z" style="fill:#0e6ffa;fill-opacity:0.75;fill-rule:nonzero;"/>
    <path d="M75.7,44.1L62.4,44.1C61.8,44.1 61.4,43.7 61.4,43.1L61.4,29.9C61.4,29.3 61.8,28.9 62.4,28.9C63,28.9 63.4,29.3 63.4,29.9L63.4,42.2L75.7,42.2C76.3,42.2 76.7,42.6 76.7,43.2C76.7,43.8 76.3,44.2 75.7,44.1Z" style="fill:#0e6ffa;fill-opacity:0.5;fill-rule:nonzero;"/>
    <path d="M62.4,70.7C47.2,70.7 34.8,58.4 34.8,43.1C34.8,27.8 47.1,15.5 62.4,15.5C77.6,15.5 90,27.9 90,43.1C90,58.4 77.6,70.7 62.4,70.7ZM62.4,17.6C48.3,17.6 36.8,29 36.8,43.2C36.8,57.3 48.2,68.8 62.4,68.8C76.5,68.7 88,57.3 88,43.2C88,29 76.5,17.6 62.4,17.6Z" style="fill:#0e6ffa;fill-opacity:0.8;fill-rule:nonzero;"/>
    <path d="M71.3,4.3L53.6,4.3C53,4.3 52.6,3.9 52.6,3.3C52.6,2.7 53,2.3 53.6,2.3L71.3,2.3C71.9,2.3 72.3,2.7 72.3,3.3C72.3,3.9 71.8,4.3 71.3,4.3Z" style="fill:#0e6ffa;fill-opacity:0.9;fill-rule:nonzero;"/>
    <path d="M83.7,22.9C83.4,22.9 83.2,22.8 83,22.6C82.6,22.2 82.6,21.6 83,21.2L86.1,18.1C86.5,17.7 87.1,17.7 87.5,18.1C87.9,18.5 87.9,19.1 87.5,19.5L84.4,22.6C84.2,22.8 84,22.9 83.7,22.9Z" style="fill:#0e6ffa;fill-opacity:0.75;fill-rule:nonzero;"/>
    <path d="M89,22C88.7,22 88.5,21.9 88.3,21.7L83.9,17.3C83.5,16.9 83.5,16.3 83.9,15.9C84.3,15.5 84.9,15.5 85.3,15.9L89.7,20.3C90.1,20.7 90.1,21.3 89.7,21.7C89.5,21.9 89.3,22 89,22Z" style="fill:#0e6ffa;fill-opacity:0.9;fill-rule:nonzero;"/>
    <path d="M62.4,44.1C61.8,44.1 61.4,43.7 61.4,43.1L61.4,29.9C61.4,29.3 61.8,28.9 62.4,28.9C63,28.9 63.4,29.3 63.4,29.9L63.4,43.2C63.4,43.7 63,44.1 62.4,44.1Z" style="fill:#0e6ffa;fill-opacity:0.5;fill-rule:nonzero;"/>
    <g>
        <path d="M33.2,25.7L20.6,25.7C20,25.7 19.6,25.3 19.6,24.7C19.6,24.1 20,23.7 20.6,23.7L33.2,23.7C33.8,23.7 34.2,24.1 34.2,24.7C34.2,25.3 33.8,25.7 33.2,25.7Z" style="fill:#0e6ffa;fill-opacity:0.4;fill-rule:nonzero;"/>
        <path d="M24.3,44.1L11,44.1C10.4,44.1 10,43.7 10,43.1C10,42.5 10.4,42.1 11,42.1L24.3,42.1C24.9,42.1 25.3,42.5 25.3,43.1C25.3,43.7 24.9,44.1 24.3,44.1Z" style="fill:#0e6ffa;fill-opacity:0.75;fill-rule:nonzero;"/>
        <path d="M28.2,34.9L15.5,34.9C14.9,34.9 14.5,34.5 14.5,33.9C14.5,33.3 14.9,32.9 15.5,32.9L28.1,32.9C28.7,32.9 29.1,33.3 29.1,33.9C29.1,34.5 28.7,34.9 28.2,34.9Z" style="fill:#0e6ffa;fill-opacity:0.55;fill-rule:nonzero;"/>
        <path d="M33.2,62.6L20.6,62.6C20,62.6 19.6,62.2 19.6,61.6C19.6,61 20,60.6 20.6,60.6L33.2,60.6C33.8,60.6 34.2,61 34.2,61.6C34.2,62.2 33.8,62.6 33.2,62.6Z" style="fill:#0e6ffa;fill-opacity:0.6;fill-rule:nonzero;"/>
        <path d="M28.2,53.4L15.5,53.4C14.9,53.4 14.5,53 14.5,52.4C14.5,51.8 14.9,51.4 15.5,51.4L28.1,51.4C28.7,51.4 29.1,51.8 29.1,52.4C29.1,53 28.7,53.4 28.2,53.4Z" style="fill:#0e6ffa;fill-opacity:0.9;fill-rule:nonzero;"/>
    </g>
</svg>
