<svg xmlns="http://www.w3.org/2000/svg" xmlns:xlink="http://www.w3.org/1999/xlink" viewBox="0 0 1749.02 1020.24"><defs><linearGradient id="a" x1="412.12" y1="495.33" x2="917.23" y2="495.33" gradientTransform="translate(30.77 -8.22)" gradientUnits="userSpaceOnUse"><stop offset="0" stop-color="#dceeff" stop-opacity="0"/><stop offset="1" stop-color="#dceeff"/></linearGradient><linearGradient id="b" x1="714" y1="361.23" x2="1134.56" y2="361.23" gradientTransform="translate(62.02 97.99)" xlink:href="#a"/><linearGradient id="c" x1="964.45" y1="765.65" x2="962.23" y2="676.34" gradientUnits="userSpaceOnUse"><stop offset="0" stop-color="#171787" stop-opacity="0"/><stop offset=".83" stop-color="#2f3bb2"/></linearGradient></defs><g data-name="Layer 2"><circle cx="462.88" cy="104.62" r="36.55" fill="#cce3ff"/><circle cx="1484.4" cy="489.31" r="36.55" fill="#cce3ff"/><circle cx="1658.27" cy="104.62" r="36.55" fill="#dceeff"/><circle cx="95.13" cy="438.31" r="36.55" fill="#dceeff"/><path d="M845.75 705.19a36.52 36.52 0 01-32.06 36.28 37 37 0 01-4.49.27 36.55 36.55 0 01-.12-73.1h.12a36.54 36.54 0 0136.55 36.55z" fill="#cce3ff"/><path d="M845.39 710.34a36.57 36.57 0 01-31.7 31.13 25.5 25.5 0 0131.7-31.13zM809.2 670.64a16.85 16.85 0 01-28.73 11.94 36.52 36.52 0 0128.61-13.94 16.4 16.4 0 01.12 2z" fill="#dceeff"/><circle cx="806.32" cy="685.24" r="6.51" fill="#dceeff"/><path transform="rotate(21.84 695.526 487.182)" fill="url(#a)" d="M442.89 457.08H948v60.04H442.89z"/><path transform="rotate(21.84 986.426 459.31)" fill="url(#b)" d="M776.03 434.68h420.55v49.08H776.03z"/><circle cx="1181.48" cy="537.46" r="24.54" fill="#dceeff"/><circle cx="929.87" cy="581.07" r="30.02" fill="#dceeff"/><circle cx="929.87" cy="581.07" r="17.29" fill="#b6d4ff"/><circle cx="1181.48" cy="537.46" r="13.2" fill="#b6d4ff"/><ellipse cx="453.31" cy="537.87" rx="12.52" ry="37.99" fill="#dceeff"/><circle cx="230.94" cy="619.24" r="9.03" fill="#cce3ff"/><circle cx="639.13" cy="598.36" r="9.03" fill="#cce3ff"/><circle cx="551.66" cy="303.12" r="15.28" fill="#b6d4ff"/><circle cx="673.88" cy="77" r="9.03" fill="#dceeff"/><circle cx="453.31" cy="167.83" r="9.03" fill="#dceeff"/><circle cx="78.15" cy="82.64" r="9.03" fill="#dceeff"/><circle cx="1612.68" cy="55.55" r="9.03" fill="#dceeff"/><circle cx="1719.74" cy="211.17" r="9.03" fill="#dceeff"/><circle cx="1251.54" cy="335.05" r="9.03" fill="#dceeff"/><circle cx="1280.62" cy="73.61" r="9.03" fill="#dceeff"/><circle cx="1667.3" cy="627.08" r="9.03" fill="#cce3ff"/><ellipse cx="818.18" cy="82.64" rx="14.99" ry="45.49" fill="#ecf6ff"/><ellipse cx="1289.65" cy="636.11" rx="18.14" ry="55.04" fill="#ecf6ff"/><ellipse cx="575.42" cy="741.74" rx="16.68" ry="50.6" fill="#dceeff"/><ellipse cx="1705.52" cy="432.86" rx="14.22" ry="43.15" fill="#dceeff"/><circle cx="1004.73" cy="772.6" r="7.73" fill="#dceeff"/><circle cx="899.9" cy="233.05" r="10.94" fill="#dceeff"/><circle cx="732.76" cy="178.24" r="6.75" fill="#cce3ff"/><circle cx="1003" cy="93.35" r="19.79" fill="#dceeff"/><circle cx="1530.92" cy="780.32" r="9.97" fill="#b6d4ff"/><circle cx="392.34" cy="758.61" r="6.27" fill="#b6d4ff"/><circle cx="1066.21" cy="366.09" r="6.27" fill="#b6d4ff"/><circle cx="792.05" cy="432.86" r="6.27" fill="#dceeff"/><circle cx="583.13" cy="325.06" r="6.27" fill="#dceeff"/><circle cx="95.13" cy="664.8" r="6.27" fill="#dceeff"/><circle cx="518.49" cy="432.86" r="6.27" fill="#dceeff"/><circle cx="247.58" cy="476" r="7.61" fill="#dceeff"/><circle cx="253.9" cy="179.13" r="158.77" fill="#dceeff"/><circle cx="313.48" cy="88.29" r="24.04" fill="#ecf6ff"/><circle cx="313.4" cy="139.39" r="9.58" fill="#ecf6ff"/><circle cx="206.18" cy="265.85" r="9.58" fill="#ecf6ff"/><path d="M154.21 205.59c49.58 40.34 89.61-21.24 89.61-21.24-68.57 21-87.54-44.73-7.87-70.81 49.41-16.17 43.76-60.89 32.34-92.54a158.82 158.82 0 00-161.83 217.1 56.12 56.12 0 007.19-12.77c5.78-16.1 4.25-49.28 40.56-19.74zM233.7 336.61a158.83 158.83 0 00171-207.16c-5.17 8.52-15.42 16.6-34.78 5.93-33-18.19-39.79 32.74-13 50.6 15.11 10.07 28.45 28.53 9.78 42-20.51 14.77-55.67-50.26-88.21-26.36-43.69 32.09 32.93 80.31 3.69 94.7-18.28 9-31.38-16.24-31.38-16.24s-39.94 37.19-76.11 6.17c-12-10.31-28.71-11.51-37.48.6a158.14 158.14 0 0096.49 49.76z" fill="#cce3ff"/><circle cx="1420.07" cy="233.05" r="159.47" fill="#dceeff"/><path d="M1579.52 229.34c-34.23 6.78-119.24 18.45-185.93-15.13-62.6-31.53-68.84-62.07-99-79.56a156.83 156.83 0 0116.38-17.86 261.21 261.21 0 01136.93 47.57c44.88 31.49 93.11 37.45 128.37 36.15a158.43 158.43 0 013.25 28.83zM1369.49 241.32c-2.34.93-45.71 17.49-108.92-7.34a161.09 161.09 0 0111-59.23c22.55 24.25 73.78 75.37 97.92 66.57zM1568.88 290.45a158.31 158.31 0 01-27.13 45.71c-39.83-14.75-115.44-37.71-172.16-24.72a274.09 274.09 0 01-85 5.67 159.43 159.43 0 01-18.15-41.11c34.19-.46 99.34-3.44 153.63-18.12 55.7-15.09 109.48 17.55 148.81 32.57zM1514.45 361.6a159.38 159.38 0 01-22 13.53c-39.25-15.77-89.49-32.8-116.6-28 3.4-.75 59.87-12.13 138.6 14.47zM1565.41 167.38c-30.55-2.08-93.56-12.12-144.4-57.79-28-25.14 22.56-20.21 93.23-5.27a160.25 160.25 0 0151.17 63.06zM1438 391.55a159.74 159.74 0 01-131.64-46.68c27.64 1.79 83.15 10.13 131.64 46.68zM1385.65 104.53c-5.07-.46-25.71-2.79-41.55-11.69a159.45 159.45 0 0125.7-11.16c5.76 11.03 12.07 21.49 15.85 22.85zM1386.82 104.62a2 2 0 01-1.15-.09z" fill="#ecf6ff"/><path d="M1620.24 235.15c69 22.19 111.57 45.34 108.61 62.57-5.2 30.23-148.52 30.82-320.13 1.32s-306.5-77.92-301.3-108.15c3-17.7 53.48-25.24 129.25-22.52" fill="none" stroke="#b6d4ff" stroke-linecap="round" stroke-miterlimit="10" stroke-width="28"/></g><ellipse cx="870.51" cy="997.22" rx="623.08" ry="2.35" fill="#767987"/><path d="M540.82 673.64H337.51v-69.16l207-339.76h93v321h63.85v87.95h-63.85v116.48h-96.69zm13.63-87.95V400.77L442.88 585.69zM820.06 768.73Q776.35 736 752.8 674t-23.55-146.2q0-84.93 23.24-146.58t67-94.71q43.69-33.07 103.2-33.08t102.89 33.08q43.38 33.08 66.64 94.71t23.24 146.58q0 84.2-23.55 146.2t-66.94 94.72q-43.4 32.7-102.28 32.7t-102.63-32.69zm174.48-116.89Q1020 607.5 1020 529.31q0-78.93-25.11-124t-72.21-45.1q-47.11 0-72.21 45.1t-25.1 124q0 78.2 25.41 122.53t71.9 44.35q46.45 0 71.86-44.35zM1346.61 673.64H1143.3v-69.16l207-339.76h93v321h63.85v87.95h-63.85v116.48h-96.69zm13.63-87.95V400.77l-111.57 184.92z" fill="#2f3bb2"/><path fill="#2f3bb2" d="M841.44 253.44h82.38v547.99h-82.38z"/><path d="M540.82 673.64H337.51v-69.16l207-339.76h93v321h63.85v87.95h-63.85v116.48h-96.69zm13.63-87.95V400.77L442.88 585.69zM1346.61 673.64H1143.3v-69.16l207-339.76h93v321h63.85v87.95h-63.85v116.48h-96.69zm13.63-87.95V400.77l-111.57 184.92z" fill="#0a53bb"/><path fill="#0a53bb" d="M1363.46 673.64h79.85v116.51h-79.85zM557.66 673.64h79.85v116.51h-79.85zM1115.41 527.81q0 84.2-23.55 146.2t-66.95 94.72q-43.4 32.7-102.27 32.7h-81.21v-19.15a162.37 162.37 0 01-21.37-13.55Q776.35 736 752.8 674t-23.55-146.2q0-84.93 23.24-146.58t67-94.71a160.4 160.4 0 0122-14v-19.07h81.21q59.51 0 102.89 33.08t66.64 94.71q23.18 61.65 23.18 146.58z"/><path d="M940.11 529.31q0 78.2-25.41 122.53t-71.91 44.35q-46.49 0-71.9-44.35t-25.41-122.53q0-78.91 25.1-124t72.21-45.1q47.1 0 72.22 45.1t25.1 124z" fill="#101014"/><path d="M834.56 397.32c-3.64 0-6.59 7.24-6.59 16.18 0-8.94-3-16.18-6.59-16.18 3.64 0 6.59-7.25 6.59-16.19.03 8.94 2.95 16.19 6.59 16.19zM885.51 430.05c-6 0-10.84 11.92-10.84 26.62 0-14.7-4.85-26.62-10.83-26.62 6 0 10.83-11.91 10.83-26.61 0 14.7 4.86 26.61 10.84 26.61zM818.59 497.27c-4.45 0-8.06 8.87-8.06 19.8 0-10.93-3.62-19.8-8.07-19.8 4.45 0 8.07-8.87 8.07-19.81 0 10.94 3.61 19.81 8.06 19.81zM916 500.61c-2.71 0-4.9 5.39-4.9 12 0-6.64-2.2-12-4.9-12 2.7 0 4.9-5.39 4.9-12 0 6.61 2.19 12 4.9 12zM865.52 618.11c-5.31 0-9.61 10.56-9.61 23.59 0-13-4.3-23.59-9.61-23.59 5.31 0 9.61-10.57 9.61-23.6 0 13.03 4.3 23.6 9.61 23.6zM785.82 560.86c-4.07 0-7.37 8.09-7.37 18.07 0-10-3.29-18.07-7.36-18.07 4.07 0 7.36-8.1 7.36-18.08 0 9.98 3.3 18.08 7.37 18.08z" fill="#fff"/><path d="M461 673.64H257.66v-69.16l207-339.76h93v321h63.84v87.95h-63.83v116.48H461zm13.64-87.95V400.77L363 585.69zM1012.32 381.23q-23.24-61.62-66.63-94.71t-102.9-33.08q-59.5 0-103.2 33.08t-66.94 94.71q-15.95 42.27-20.95 95.48-2.3 24.41-2.3 51.1a512.56 512.56 0 003.91 64.93Q659 637.26 673 674q23.55 62 67.25 94.72t102.58 32.7q58.89 0 102.28-32.7T1012 674q23.55-62 23.56-146.2.01-84.92-23.24-146.57zM914.7 651.84q-25.43 44.35-71.91 44.35t-71.9-44.35q-25.42-44.34-25.41-122.53 0-78.91 25.1-124t72.21-45.1q47.1 0 72.22 45.1t25.1 124q0 78.2-25.41 122.53zM1266.76 673.64h-203.31v-69.16l207-339.76h93v321h63.84v87.95h-63.84v116.48h-96.7zm13.64-87.95V400.77l-111.57 184.92z" fill="#0e6ffa"/><path fill="url(#c)" d="M943.44 689.48l6.3 87.49 33.47-25.69-8.75-152.66-31.02 90.86z"/><path fill="#cf3e83" d="M557.79 970.85l12.02-31.74 24.7 15.6-13.29 28.42-23.43-12.28z"/><path d="M559.2 966.82L548.72 997l106.48.23s-18.87-20.81-68-26.78z" fill="#0d0b6d"/><path fill="#1a2133" d="M632.91 625.36L621.72 790.6l-69.25 169.61 46.65 5.6 76.4-151.08 32.4-172.05-75.01-17.32z"/><path d="M687.56 449.39l116.14-23.28s6.35.82 8.49 8.29-1.19 11.79-1.19 11.79l-119.57 49.09z" fill="#e576c6"/><path fill="#e576c6" d="M675.15 481.42l72.25 21.11 15.74-50.77 16.48 6.3-10.7 84.72-101.17-16.56 7.4-44.8z"/><path fill="#e2791a" d="M690.23 446.19l-77.88 20.41 93.49 23.21-15.61-43.62z"/><path fill="none" stroke="#0d0b6d" stroke-miterlimit="10" stroke-width="9" d="M570.3 353.76l6.55 16.74-5.89 4.4-14.43-9.87"/><path d="M666.48 351.17s32.24 24.32 2.34 41.41z" fill="#0d0b6d"/><path d="M596 413.9c-4.27-6.28-28.08-9.06-28.92 7.92-1.07 21.9 40 21.88 40 21.88l6.74 29.66 36.57-4.75-7.08-26.1s34.64-6.74 40.7-12.38c0 0-3.78-34.57-15.38-56.61l-34.8-17.44-44 15.74z" fill="#e576c6"/><path d="M576 410s-24.27-2.84-6.13-36.17 44.57-25.94 44.57-25.94-1-28.56 16.68-33.38c25.22-6.86 39.87 31 39.87 31s6.84-24.68 14.9-23.65 27.7 71.27-82 64.74c0 0 14 17-7.89 27.29 0 .01-6.26-7.15-20-3.89z" fill="#0d0b6d"/><path d="M645.79 426.28c-1.43-3.2 2.8-8.13 9.15-8.9 9.4-1.14 15.7 5.79 12.41 10.85-3.15 4.85-9.36-.08-14.63.9-2.87.53-5.85-.42-6.93-2.85z" fill="#fff"/><path fill="#cf3e83" d="M643.38 442.51l-23.63 1.39 26.35 8.85-2.72-10.24z"/><path fill="#405fd3" d="M659.87 395.34l12.92 16.71-9.2 2.68-3.72-19.39z"/><path fill="#cf3e83" d="M715.63 485.34l-24.57-36.82 13.69 41.29 10.88-4.47zM716.77 534.24l-7.65-42.89-1.74 41.36 9.39 1.53z"/><circle cx="647.8" cy="399.82" r="4.84" fill="#0d0b6d"/><circle cx="671.04" cy="394.11" r="4.84" fill="#0d0b6d"/><path d="M632.19 633.11S555.5 519.88 612.35 466.6c13.24-12.41 97.09 17.21 97.09 17.21l-2.8 66.64-16.41-3.4 31.62 49.63 17.21 44s-44.06-9.94-93.29-7.23c-3.39.22-13.58-.34-13.58-.34z" fill="#ffcd05"/><path fill="#cf3e83" d="M936.99 682.72l-18.65-20.21 21.77-22.56 15.03 26.21-18.15 16.56z"/><path d="M943.44 633.9l-88.59-102.71a30.84 30.84 0 00-44.44-.92l-88.56 66.41s-12.56 34.5-83.57 37.37c0 0 26.93 62.08 89.39 40.08 28.13-9.91 107.74-78.06 107.74-78.06L925 682.92z" fill="#384661"/><path fill="none" stroke="#0d0b6d" stroke-miterlimit="10" stroke-width="7" d="M642.95 386.08l-8.37 7.67M665.4 380.99l13.71 2.21"/><path d="M937 682.72l18.15 19 19.32-103.15s-14.1 19.49-26.69 50.7z" fill="#0d0b6d"/><path fill="#e2791a" d="M690.23 547.05l-39.36-9.91 48.61 24.44-9.25-14.53z"/><path d="M781.55 427.43a14 14 0 00-1.47 3.18 72.8 72.8 0 00-16.15 18.92c-6.71 11.57 13.61 16 13.61 16s6.27 1.13 8.07-.41 4-.79 5.31-1.62 2.3-5.19 5.65-7.07 1.08-8.57-.37-9.7-10.3-3.95-8.21-11c1.87-6.24-2.91-12.4-6.44-8.3z" fill="#e576c6"/><path d="M759.44 467.88l5-16.7s0-10.13 16.9-20.35M787.71 429.31s1.47 2.25 0 7.84 6.44 7.65 8.49 9.62a6.86 6.86 0 012 4.66M778.58 466.3l1.04-9.08" fill="none" stroke="#cf3e83" stroke-miterlimit="10" stroke-width="3"/></svg>