<svg xmlns="http://www.w3.org/2000/svg" viewBox="0 0 2415.13 1343.44"><title>bg</title><g style="isolation:isolate"><g id="background"><rect x="-266.01" y="-632.13" width="3000" height="2000" fill="#317fff"/></g><g id="graphic"><g opacity="0.01" style="mix-blend-mode:multiply"><path d="M-928.69,931h-33L537.1-427.87l472.4-428.27h2.22L547.33-428.44Z"/><path d="M-1092.2,1154.33h-36.89l1449.85-1360L776.1-632.75h6.07L329.64-201.3Z"/><path d="M-850.79,1199h-37.65L381.11-160.16Q581-374.12,780.82-588.09h6.84L395.91-160.8Q-227.43,519.11-850.79,1199Z"/><path d="M-966.65,1422.38h-41.51L212.33,61.94,595.07-364.7h10.69L226.14,66.75Z"/><path d="M-779,1026.13h-17.34Q-139.85,348.32,516.68-329.5L934.57-760.95h1.93L522.32-329.5Q-128.35,348.32-779,1026.13Z"/><path d="M-296.83,484.52h-45.89L663-504.48,980.8-817H986Z"/><path d="M72.27,317H31.61Q591.4-333.79,1151.16-984.57h0Z"/><path d="M-338.83,931h-33L708-427.25l341-428.89h2.21Q884.73-642,718.19-427.94Z"/><path d="M-433.56,1154.33h-36.88L560.32-205.24,884.44-632.75h6.06Q731.17-417.68,571.82-202.62,69.14,475.86-433.56,1154.33Z"/><path d="M-178.39,1199H-216L634.12-158.79q134.4-214.65,268.79-429.3h6.84L646.61-155.92Q234.11,521.54-178.39,1199Z"/><path d="M-225.46,1422.38H-267L531.75,66.75,786-364.7h10.69L552,63.06Z"/><path d="M-159.87,1026.13h-17.34L721.17-333.7q141.14-213.62,282.26-427.25h1.93L725-330.91Z"/><path d="M155.55,484.52H109.67L1032.39-817h5.24Z"/><path d="M473.06,317H432.41Q791.78-333.79,1151.16-984.57h0Q812.12-333.79,473.06,317Z"/><path d="M-1502.84,1199h-37.65L137.84-162.52,662.43-588.09h6.83l-522,429.47Z"/><path d="M-1685.41,1422.38h-41.51l1624-1358.13L410-364.7h10.69L-84.23,63.72Z"/><path d="M-1379.47,1026.13h-17.34l1724-1360.44L867.8-760.95h1.93L330.36-332.4Z"/><path d="M-735.53,484.52h-45.88L519.86-504.67,930.78-817H936L533.07-503.28Z"/><path d="M-316.4,317h-40.66L788.23-671.36l362.93-313.21h0L798.62-671.9Z"/><path d="M830.23,931h-33L1127.43-856.14h2.22Q979.93,37.41,830.23,931Z"/><path d="M871.84,1154.33H835q132.1-893.53,264.2-1787.08h6.07Q988.54,260.79,871.84,1154.33Z"/><path d="M1154.26,1199h-37.65q14.15-893.54,28.28-1787.08h6.84Q1153,305.46,1154.26,1199Z"/><path d="M1243.52,1422.38H1202q-18.88-893.54-37.76-1787.08H1175Q1209.24,528.84,1243.52,1422.38Z"/><path d="M1067.28,1026.13h-17.34l90-1787.08h1.92Z"/><path d="M1052.15,484.52h-45.89Q1070.46-166.25,1134.64-817h5.23Z"/><path d="M1267.41,317h-40.65l-75.6-1301.56h0Z"/><path d="M1420.08,931h-33Q1277,37.4,1167-856.14h2.21Z"/><path d="M1530.48,1154.33H1493.6L1207.49-632.75h6.07Z"/><path d="M1826.67,1199H1789L1267-588.09h6.84Q1550.24,305.46,1826.67,1199Z"/><path d="M1984.71,1422.38h-41.5q-294-893.54-588.07-1787.08h10.69Z"/><path d="M1686.45,1026.13h-17.34Q1438.94,132.6,1208.77-760.95h1.92Q1448.57,132.59,1686.45,1026.13Z"/><path d="M1504.53,484.52h-45.88Q1322.44-166.25,1186.23-817h5.23Q1348-166.25,1504.53,484.52Z"/><path d="M1668.21,317h-40.66Q1389.37-333.79,1151.16-984.57h0Z"/><path d="M258.22,931h-33Q657.13,37.4,1089.08-856.14h2.21Z"/><path d="M233.12,1154.33H196.24L994.09-632.75h6.07Z"/><path d="M502.21,1199H464.56L1026.49-588.09h6.84Z"/><path d="M524.76,1422.38h-41.5L979.16-364.7h10.69Z"/><path d="M466.85,1026.13H449.51L1073.13-760.95h1.93Q771,132.59,466.85,1026.13Z"/><path d="M613.45,484.52H567.57L1084.61-817h5.23Q851.66-166.25,613.45,484.52Z"/><path d="M878.74,317H838.09Q994.63-333.79,1151.16-984.57h0Q1015-333.79,878.74,317Z"/><path d="M2589.14,931h-33L1562.79-423.35,1245.36-856.14h2.22L1570.47-426Z"/><path d="M2835.88,1154.33H2799L1754.09-202,1422.2-632.75h6.07Q1598.19-417,1768.1-201.3,2302,476.52,2835.88,1154.33Z"/><path d="M3159.32,1199h-37.66l-1225-1357.42L1509-588.09h6.83l393,427.29Z"/><path d="M3453.7,1422.38h-41.51L2135.43,63.23l-402-427.93h10.69l410,428.55Q2803.89,743.11,3453.7,1422.38Z"/><path d="M2913.6,1026.13h-17.34L1717-332.57,1345.24-760.95h1.93L1725.35-329.5Q2319.47,348.32,2913.6,1026.13Z"/><path d="M2401.13,484.52h-45.89L1288.47-817h5.24Z"/><path d="M2462.56,317H2421.9L1151.16-984.57h0Z"/><path d="M3179,931h-33L1731.34-427.44l-446.43-428.7h2.21l454.45,429.28Z"/><path d="M3494.52,1154.33h-36.88Q2725.84,475.71,1994.05-202.92L1530.54-632.75h6.07l471.52,430.39Z"/><path d="M3831.72,1199h-37.66L2153.26-156.63,1631.05-588.09h6.83l524.81,427.51Z"/><path d="M4194.89,1422.38h-41.51L2461.27,65.78,1924.33-364.7H1935L2474.53,61.94Z"/><path d="M3532.77,1026.13h-17.34L1920.22-330.52,1414.1-760.95H1416l507.44,428.42Z"/><path d="M2853.51,484.52h-45.88l-1115-988.89L1340.06-817h5.24l362.93,313.2Z"/><path d="M2863.35,317H2822.7L1554.1-670.82,1151.16-984.57h0L1562.08-672.2Z"/><path d="M2017.13,931h-33L1207-856.14h2.21Q1613.19,37.41,2017.13,931Z"/><path d="M2197.16,1154.33h-36.88Q1738.71,260.8,1317.15-632.75h6.06Q1760.19,260.79,2197.16,1154.33Z"/><path d="M2507.26,1199h-37.65L1649.32-159.53Q1519.95-373.8,1390.56-588.09h6.84L1664-158.79Z"/><path d="M2734.94,1422.38h-41.51L1823.9,65.34l-275.55-430H1559L1840.17,62.55Q2287.55,742.47,2734.94,1422.38Z"/><path d="M2313.17,1026.13h-17.34L1522-333.19,1278.46-760.95h1.93L1527.6-333.19Q1920.38,346.48,2313.17,1026.13Z"/><path d="M1962.43,484.52h-45.88Q1577.49-166.25,1238.45-817h5.23Z"/><path d="M2073.89,317h-40.65L1151.16-984.57h0Z"/></g><g opacity="0.03"><path d="M-928.69,392.41h-33L537.1-567.16,1009.5-869.6h2.22l-464.39,302Z" fill="#fff"/><path d="M-1092.2,550.16h-36.89L320.76-410.23,776.1-711.85h6.07L329.64-407.17Z" fill="#fff"/><path d="M-850.79,581.7h-37.65L381.11-378.11l399.71-302.2h6.84L395.91-378.57Q-227.43,101.58-850.79,581.7Z" fill="#fff"/><path d="M-966.65,739.45h-41.51L212.33-221.27,595.07-522.56h10.69L226.14-217.87Z" fill="#fff"/><path d="M-779,459.63h-17.34L516.68-497.7,934.57-802.39h1.93L522.32-497.7Z" fill="#fff"/><path d="M-296.83,77.15h-45.89L663-621.27,980.8-842H986Z" fill="#fff"/><path d="M-338.83,392.41h-33L708-566.73l341-302.87h2.21L718.19-567.21Z" fill="#fff"/><path d="M-433.56,550.16h-36.88L560.32-409.95l324.12-301.9h6.06L571.82-408.1Z" fill="#fff"/><path d="M-178.39,581.7H-216L634.12-377.14q134.4-151.59,268.79-303.17h6.84L646.61-375.12Q234.11,103.29-178.39,581.7Z" fill="#fff"/><path d="M-225.46,739.45H-267L531.75-217.87,786-522.56h10.69L552-220.48Z" fill="#fff"/><path d="M-159.87,459.63h-17.34L721.17-500.66l282.26-301.73h1.93L725-498.69Z" fill="#fff"/><path d="M155.55,77.15H109.67L1032.39-842h5.24Z" fill="#fff"/><path d="M-1502.84,581.7h-37.65L137.84-379.78,662.43-680.31h6.83L147.27-377Z" fill="#fff"/><path d="M-1685.41,739.45h-41.51l1624-959.09L410-522.56h10.69L-84.23-220Z" fill="#fff"/><path d="M-1379.47,459.63h-17.34l1724-960.73L867.8-802.39h1.93L330.36-499.75Z" fill="#fff"/><path d="M-735.53,77.15h-45.88L519.86-621.4,930.78-842H936L533.07-620.42Z" fill="#fff"/><path d="M830.23,392.41h-33l330.24-1262h2.22Q979.93-238.6,830.23,392.41Z" fill="#fff"/><path d="M871.84,550.16H835q132.1-631,264.2-1262h6.07Q988.54-80.85,871.84,550.16Z" fill="#fff"/><path d="M1154.26,581.7h-37.65q14.15-631,28.28-1262h6.84Q1153-49.31,1154.26,581.7Z" fill="#fff"/><path d="M1243.52,739.45H1202q-18.88-631-37.76-1262H1175Q1209.24,108.44,1243.52,739.45Z" fill="#fff"/><path d="M1067.28,459.63h-17.34l90-1262h1.92Z" fill="#fff"/><path d="M1052.15,77.15h-45.89q64.2-459.57,128.38-919.14h5.23Z" fill="#fff"/><path d="M1420.08,392.41h-33q-110-631-220.07-1262h2.21Z" fill="#fff"/><path d="M1530.48,550.16H1493.6l-286.11-1262h6.07Z" fill="#fff"/><path d="M1826.67,581.7H1789l-522-1262h6.84Q1550.24-49.31,1826.67,581.7Z" fill="#fff"/><path d="M1984.71,739.45h-41.5q-294-631-588.07-1262h10.69Z" fill="#fff"/><path d="M1686.45,459.63h-17.34q-230.17-631-460.34-1262h1.92Q1448.57-171.37,1686.45,459.63Z" fill="#fff"/><path d="M1504.53,77.15h-45.88Q1322.44-382.42,1186.23-842h5.23Q1348-382.42,1504.53,77.15Z" fill="#fff"/><path d="M258.22,392.41h-33l863.89-1262h2.21Z" fill="#fff"/><path d="M233.12,550.16H196.24l797.85-1262h6.07Z" fill="#fff"/><path d="M502.21,581.7H464.56l561.93-1262h6.84Z" fill="#fff"/><path d="M524.76,739.45h-41.5l495.9-1262h10.69Z" fill="#fff"/><path d="M466.85,459.63H449.51q311.81-631,623.62-1262h1.93Q771-171.37,466.85,459.63Z" fill="#fff"/><path d="M613.45,77.15H567.57l517-919.14h5.23Q851.66-382.42,613.45,77.15Z" fill="#fff"/><path d="M2589.14,392.41h-33L1562.79-564,1245.36-869.6h2.22l322.89,303.75Z" fill="#fff"/><path d="M2835.88,550.16H2799L1754.09-407.63,1422.2-711.85h6.07L1768.1-407.17Z" fill="#fff"/><path d="M3159.32,581.7h-37.66l-1225-958.59L1509-680.31h6.83l393,301.74Z" fill="#fff"/><path d="M3453.7,739.45h-41.51L2135.43-220.36l-402-302.2h10.69l410,302.64Z" fill="#fff"/><path d="M2913.6,459.63h-17.34L1717-499.87,1345.24-802.39h1.93L1725.35-497.7Z" fill="#fff"/><path d="M2401.13,77.15h-45.89L1288.47-842h5.24Z" fill="#fff"/><path d="M3179,392.41h-33L1731.34-566.87,1284.91-869.6h2.21l454.45,303.14Z" fill="#fff"/><path d="M3494.52,550.16h-36.88L1994.05-408.31,1530.54-711.85h6.07l471.52,303.93Z" fill="#fff"/><path d="M3831.72,581.7h-37.66L2153.26-375.62,1631.05-680.31h6.83l524.81,301.9Q2997.2,101.65,3831.72,581.7Z" fill="#fff"/><path d="M4194.89,739.45h-41.51l-1692.11-958-536.94-304H1935l539.51,301.29Z" fill="#fff"/><path d="M3532.77,459.63h-17.34l-1595.21-958-506.12-304H1416l507.44,302.55Z" fill="#fff"/><path d="M2853.51,77.15h-45.88l-1115-698.34L1340.06-842h5.24l362.93,221.18Z" fill="#fff"/><path d="M2017.13,392.41h-33L1207-869.6h2.21Q1613.19-238.6,2017.13,392.41Z" fill="#fff"/><path d="M2197.16,550.16h-36.88l-843.13-1262h6.06Z" fill="#fff"/><path d="M2507.26,581.7h-37.65L1649.32-377.67,1390.56-680.31h6.84L1664-377.14Q2085.65,102.28,2507.26,581.7Z" fill="#fff"/><path d="M2734.94,739.45h-41.51L1823.9-218.87,1548.35-522.56H1559l281.13,301.72Q2287.55,259.31,2734.94,739.45Z" fill="#fff"/><path d="M2313.17,459.63h-17.34L1522-500.3,1278.46-802.39h1.93L1527.6-500.3Z" fill="#fff"/><path d="M1962.43,77.15h-45.88L1238.45-842h5.23Z" fill="#fff"/></g></g></g></svg>