<svg xmlns="http://www.w3.org/2000/svg" viewBox="0 0 670 603"><defs><style>.cls-1,.cls-7{opacity:0.2;}.cls-1,.cls-2,.cls-7,.cls-9{isolation:isolate;}.cls-2{opacity:0.05;}.cls-3{fill:#ffc629;}.cls-10,.cls-13,.cls-14,.cls-3,.cls-4,.cls-5,.cls-6,.cls-8{opacity:0.7;}.cls-4{fill:#0e6ffa;}.cls-5{fill:#f1613c;}.cls-6{fill:#2bbb66;}.cls-9{opacity:0.4;}.cls-10{fill:#8d2cc6;}.cls-11{opacity:0.2;}.cls-12{opacity:0.4;}.cls-13{fill:#ffce0b;}.cls-14{fill:#09b859;}</style></defs><g id="Layer_1" data-name="Layer 1"><path class="cls-1" d="M54.52,222.36a2,2,0,0,1-1.9-1.22,1.93,1.93,0,0,0,1.33,1.3,10.94,10.94,0,0,1,6.45,4.91,10.67,10.67,0,0,1,1.33,3.7,10.54,10.54,0,0,1,0,3.5v-.05a1.82,1.82,0,0,1,1.71-1.36A2,2,0,0,1,65.56,235a1.47,1.47,0,0,1,0,.21,14.35,14.35,0,0,0-1.86-9.65,15.33,15.33,0,0,0-7-6.13L56.26,221A1.88,1.88,0,0,1,54.52,222.36ZM65.47,236a.79.79,0,0,1,.07-.4,3.26,3.26,0,0,1-.14.6Zm9.89,131.55a2,2,0,0,0,.14.34,1.83,1.83,0,0,0,2.49.75h0a1.93,1.93,0,0,0,1.18-2.09c-1.67-7.23-9.83-11.77-18-10.23a1.94,1.94,0,0,0-.83.33,1.9,1.9,0,0,0-.49,2.63l0,0a2,2,0,0,0,2,.75C68,358.74,74.15,362.11,75.36,367.51ZM198,59.1a1.82,1.82,0,0,1-.23,1,1.69,1.69,0,0,1-.45.51h.12a14.38,14.38,0,0,0,6.41-8.42,15.11,15.11,0,0,0-.34-9.26l-1.26.65a1.95,1.95,0,0,1-2.3-3.06l-.18.13a1.87,1.87,0,0,0-.37,2.27,10.82,10.82,0,0,1-3.87,14.33l-.08.08a1.71,1.71,0,0,1,.49-.14A2,2,0,0,1,198,59.1Z"/><path class="cls-2" d="M100,131.5l.1-.1a1.4,1.4,0,0,0,.15-.3c0,.1-.11.2-.17.3Z"/><path class="cls-1" d="M43,303.08a1.92,1.92,0,0,0,1.91-1.91l.36-14.26a1.93,1.93,0,0,0-1.8-2,2,2,0,0,0-2.11,1.81L41,301.17A2,2,0,0,0,43,303.08Zm3.15,24.85-.82-10.76a2.32,2.32,0,0,0-.13-.58,2,2,0,0,0-2.49-1.09,1.86,1.86,0,0,0-1.24,1.89l.8,10.92a2,2,0,0,0,3.88-.38ZM69.87,263.8l-1.24,9.7-.76,9.77a1.48,1.48,0,0,0,.17.85,1.89,1.89,0,0,0,1.32.94,2.08,2.08,0,0,0,2.13-.84,1.36,1.36,0,0,0,.21-.68c.16-3.25.46-6.49.77-9.74l1.24-9.7a2,2,0,0,0-1.43-1.61,2,2,0,0,0-2.16.68A1.44,1.44,0,0,0,69.87,263.8Zm-2.43,29-.2,9.8.25,9.8a1.43,1.43,0,0,0,.26.83,1.9,1.9,0,0,0,1.4.79,2,2,0,0,0,2-1.06,1.43,1.43,0,0,0,.15-.7l-.25-9.74.2-9.78a2,2,0,0,0-1.59-1.51,2,2,0,0,0-2.08.91,1.44,1.44,0,0,0-.15.65ZM83,264.38l-.84,6.68a1.36,1.36,0,0,0,.13.82,1.86,1.86,0,0,0,1.28,1,2.08,2.08,0,0,0,2.16-.68,1.26,1.26,0,0,0,.24-.64L86.8,265a1.35,1.35,0,0,0-.14-.86,2,2,0,0,0-1.27-1,2,2,0,0,0-2.15.62A1.47,1.47,0,0,0,83,264.38Zm-23.74,6.68,1.4-10.92a1.62,1.62,0,0,0-.13-.87,2,2,0,0,0-1.22-1.1,2,2,0,0,0-2.2.71,1.64,1.64,0,0,0-.25.71l-1.4,11.07a1.72,1.72,0,0,0,.12.9,2,2,0,0,0,1.27,1,2,2,0,0,0,2.18-.8,1.6,1.6,0,0,0,.25-.7ZM56.2,310.18l.26-.07a1.82,1.82,0,0,0,1.31-1.76l-.18-6.93.4-13.85.52-6.9a1.81,1.81,0,0,0-.07-.52,1.94,1.94,0,0,0-2.38-1.37l-.07,0a1.8,1.8,0,0,0-1.45,1.63l-.52,7-.36,14,.18,7A1.81,1.81,0,0,0,54,309a1.94,1.94,0,0,0,1.53,1.22h.36a2.06,2.06,0,0,1,.35,0Zm25.27-32.5-.83,11-.28,11a1.72,1.72,0,0,0,.11.5,1.87,1.87,0,0,0,2.36,1.09,1.72,1.72,0,0,0,1.37-1.56l.27-10.88.8-10.84v-.24a2,2,0,0,0-2.38-1.53h0A1.65,1.65,0,0,0,81.47,277.68Zm2.73,28.81a2,2,0,0,0-2.54-1.24h0a1.68,1.68,0,0,0-1.28,1.6l.17,7.4a1.4,1.4,0,0,0,.09.29,2,2,0,0,0,2.58,1.15,1.66,1.66,0,0,0,1.22-1.63l-.17-7.3A2.68,2.68,0,0,0,84.2,306.49ZM72.43,353.67a1.85,1.85,0,0,0,2.57.59h0a1.81,1.81,0,0,0,1-1.87c-.79-5.43-2.06-10.78-2.6-16.25a1.5,1.5,0,0,0-.15-.42,2,2,0,0,0-2.58-.89,1.78,1.78,0,0,0-1.11,1.81c.53,5.55,1.7,11,2.65,16.5A1.91,1.91,0,0,0,72.43,353.67ZM98,395a1.4,1.4,0,0,0,.3.42,1.92,1.92,0,0,0,2.7.07,1.65,1.65,0,0,0,.66-1.94c-1.16-3.22-2.58-6.35-3.58-9.63a1.76,1.76,0,0,0-.23-.37,1.91,1.91,0,0,0-2.69-.28,1.7,1.7,0,0,0-.77,1.92A99.89,99.89,0,0,0,98,395ZM86.4,356.83a2.22,2.22,0,0,0,.2.41,1.91,1.91,0,0,0,2.65.58,1.66,1.66,0,0,0,.94-1.81c-.88-3.22-1.4-6.5-2-9.78l-1.6-9.87a1.52,1.52,0,0,0-.16-.42,1.91,1.91,0,0,0-2.57-.79h0a1.67,1.67,0,0,0-1.12,1.74c.32,3.36,1,6.67,1.6,10s1.2,6.66,2,9.94Zm19.08-165.95-4.33,9.45a2.18,2.18,0,0,0-.09.51,1.86,1.86,0,0,0,1.78,1.94h0a1.72,1.72,0,0,0,1.86-.9L109,192.5v.05a1.72,1.72,0,0,0,.11-.5,1.86,1.86,0,0,0-1.69-2A1.72,1.72,0,0,0,105.48,190.88ZM92.8,222.75a1.87,1.87,0,0,0,2,1.75h0a1.72,1.72,0,0,0,1.78-1c1.48-4.32,2.84-8.7,4.62-12.9h-.06a2.9,2.9,0,0,0,.06-.41,1.92,1.92,0,0,0-1.86-2h0a1.67,1.67,0,0,0-1.81,1c-1.8,4.27-3.2,8.7-4.7,13.1a3.53,3.53,0,0,0,0,.46ZM226.45,32.35a2.11,2.11,0,0,0,.5-.1c4.4-1.75,8.81-3.52,13.33-5a1.87,1.87,0,0,0,1.28-1.83,2,2,0,0,0-2.06-1.92,2.67,2.67,0,0,0-.48.08c-4.64,1.28-9,3.3-13.52,5.05a1.87,1.87,0,0,0-1.19,1.87,2,2,0,0,0,2.14,1.84Z"/><path class="cls-2" d="M256.47,22.1a2.14,2.14,0,0,0,.62-.06l5.56-1.55,5.63-1.3c3.76-.8,7.48-1.83,11.3-2.45a1.84,1.84,0,0,0,1.52-1.62,2,2,0,0,0-2.27-2.19c-3.83.56-7.63,1.57-11.45,2.44l-5.7,1.3-5.63,1.6a1.9,1.9,0,0,0-1.4,1.78,2,2,0,0,0,1.82,2.06Z"/><path class="cls-1" d="M224.7,46.75a1.62,1.62,0,0,0,.58-.12c4.26-1.77,8.56-3.42,12.83-5.16s8.72-3,13.07-4.5A2,2,0,0,0,250,33.26l-13.25,4.57c-4.37,1.65-8.75,3.31-13,5.23A1.84,1.84,0,0,0,222.7,45,1.91,1.91,0,0,0,224.7,46.75Zm28,16.35a1.91,1.91,0,0,0-1.82-2h-.08a1.55,1.55,0,0,0-.43,0c-3.5,1.07-6.86,2.6-10.3,3.9s-6.8,2.75-10.1,4.33a1.64,1.64,0,0,0-.88,1.85A1.94,1.94,0,0,0,231.17,73h.4c3.28-1.5,6.56-3,10-4.26s6.67-2.78,10.13-3.84a1.62,1.62,0,0,0,1-1.74Zm5.64-.53c2.27-.84,4.65-1.33,7-2.08a1.68,1.68,0,0,0,1.14-1.71,1.92,1.92,0,0,0-1.81-2h-.4l-7.06,2.1a1.7,1.7,0,0,0-1.08,1.78,1.9,1.9,0,0,0,1.84,1.94,3.13,3.13,0,0,0,.43,0ZM154.4,72.82a1.89,1.89,0,0,0,2.24-.07l5.62-4.36,5.8-4.12a1.82,1.82,0,0,0,.34-.34,2,2,0,0,0-.34-2.81h0a1.86,1.86,0,0,0-2.24,0L160,65.27l-5.7,4.4a2.24,2.24,0,0,0-.42.45,2,2,0,0,0,.53,2.69Zm-49,49.34a1.9,1.9,0,0,0,2.15-.59l5.28-6.53a1.86,1.86,0,0,0,.55-.66,2,2,0,1,0-3.39-2.12c0,.08-.09.16-.13.24-1.9,2.1-3.56,4.42-5.35,6.63a1.76,1.76,0,0,0-.29.54,2,2,0,0,0,1.16,2.48Zm18.84-21.78a1.89,1.89,0,0,0,2.2-.39l4-4.16,4.18-4c2.8-2.65,5.56-5.31,8.5-7.84a1.61,1.61,0,0,0,.31-.38,1.92,1.92,0,0,0-2.88-2.47c-3,2.52-5.78,5.25-8.6,7.94l-4.24,4c-1.4,1.36-2.74,2.78-4.07,4.22a1.56,1.56,0,0,0-.27.4,2,2,0,0,0,.88,2.68Zm78.28-59.64a2,2,0,0,1,.29.41,13.92,13.92,0,0,1,.73,1.74l7.1-3.54,8.5-3.85a1.62,1.62,0,0,0,.41-.27,2,2,0,0,0,.23-2.82h0a1.86,1.86,0,0,0-2.19-.47l-8.63,3.9-8.48,4.25a2.28,2.28,0,0,0-.5.38,1.92,1.92,0,0,1,2.53.27Z"/><path class="cls-1" d="M52.6,220.08a1.92,1.92,0,0,1,2.34-1.33l.05,0a14,14,0,0,1,1.77.67l2-6.45v-.05a1.94,1.94,0,1,0-3.7-1.19l-2.44,8.16a1.73,1.73,0,0,0-.07.64,2,2,0,0,0,.15.59A1.92,1.92,0,0,1,52.6,220.08Z"/><path class="cls-1" d="M63.05,196.72a1.89,1.89,0,0,0,1.89-1.22c2.71-7.22,6-14.16,9.25-21.16a1.95,1.95,0,1,0-3.37-2c0,.08-.08.16-.12.24-3.13,7.15-6.61,14.15-9.37,21.45a1.91,1.91,0,0,0-.13.63,1.93,1.93,0,0,0,1.84,2Z"/><path class="cls-2" d="M45,267.57a2,2,0,0,0,2.17-1.66c1.32-12.5,4-24.81,6.9-37a1.9,1.9,0,0,0-1.35-2.28A2,2,0,0,0,50.31,228c-2.93,12.38-5.72,24.83-7,37.5A1.91,1.91,0,0,0,45,267.56Z"/><path class="cls-1" d="M191.17,75.56a1.61,1.61,0,0,0-.58.66,2,2,0,0,0,.95,2.66,2,2,0,0,0,1,.19,1.45,1.45,0,0,0,.67-.23c5.29-3.58,11-6.61,16.6-9.8a1.55,1.55,0,0,0,.6-.59,2,2,0,0,0,.1-1.6,2,2,0,0,0-1.78-1.45,1.22,1.22,0,0,0-.7.17c-5.63,3.31-11.43,6.35-16.85,10ZM178.5,88.9l9.22-6.54a1.4,1.4,0,0,0,.61-.64,2.06,2.06,0,0,0-2.06-2.79,1.68,1.68,0,0,0-.68.24l-9.34,6.62a1.56,1.56,0,0,0-.54.68,1.88,1.88,0,0,0,.13,1.6,2.13,2.13,0,0,0,2,1.1A1.59,1.59,0,0,0,178.5,88.9Zm-4.85,3.42a2.17,2.17,0,0,0,.09-.84,2,2,0,0,0-2.29-1.81,1.34,1.34,0,0,0-.65.3c-3,2.44-6.06,4.65-8.9,7.2a1.7,1.7,0,0,0-.48.73,2.06,2.06,0,0,0,1.49,2.5,2,2,0,0,0,.84,0,1.42,1.42,0,0,0,.63-.33c2.78-2.53,5.82-4.76,8.77-7.1A1.56,1.56,0,0,0,173.65,92.32Zm40.11-15a1.3,1.3,0,0,0-.58.6,2,2,0,0,0-.19.72,2.12,2.12,0,0,0,1.93,2.28h0a1.47,1.47,0,0,0,.65-.18l5.9-3a1.32,1.32,0,0,0,.58-.63,2,2,0,0,0,.09-1.6,2,2,0,0,0-1.75-1.42,1.49,1.49,0,0,0-.66.16Zm-28.12-14.2a1.74,1.74,0,0,0-.61.68,2,2,0,0,0,0,1.7,2,2,0,0,0,2,1.19,1.61,1.61,0,0,0,.7-.26c3-2,6.3-3.75,9.44-5.65a.81.81,0,0,0,.14-.12,1.92,1.92,0,0,1-2.46-.93,1.66,1.66,0,0,1-.14-.37,1.84,1.84,0,0,1,.74-2l-.22.09C192,59.25,188.76,61.09,185.64,63.12Z"/><path class="cls-2" d="M178.9,67.5c-3.94,2.5-7.7,5.32-11.47,8.07s-7.36,5.77-11.06,8.64a1.89,1.89,0,0,0-.14,2.67h0a1.86,1.86,0,0,0,2.6.29c3.63-2.86,7.13-5.84,10.9-8.5l11.3-8a1.88,1.88,0,0,0,.46-2.55,1.92,1.92,0,0,0-2.61-.61Z"/><path class="cls-1" d="M189.23,92.78a1.92,1.92,0,0,0,.48,2.67,1.67,1.67,0,0,0,2,.18c2.86-2.17,6-4,9-6l4.58-2.93L210,84a1.78,1.78,0,0,0,.35-.32,1.93,1.93,0,0,0-.22-2.71,1.65,1.65,0,0,0-2-.37l-4.78,2.74-4.65,3c-3.1,2-6.23,3.9-9.18,6.1a3.11,3.11,0,0,0-.29.33Zm-12.65,14a1.88,1.88,0,0,0-.74-2.56,1.73,1.73,0,0,0-2.08-.06l-5.6,4.8a2,2,0,0,0-.3.42,1.91,1.91,0,0,0,.8,2.58h0a1.71,1.71,0,0,0,2,0l5.53-4.74A2.32,2.32,0,0,0,176.58,106.81ZM139.53,124a1.93,1.93,0,0,0-1-2.5,1.7,1.7,0,0,0-2.11.32A232.41,232.41,0,0,0,107,160.89a1.6,1.6,0,0,0-.19.53,1.88,1.88,0,0,0,1.46,2.21h0a1.79,1.79,0,0,0,2-.69,262.26,262.26,0,0,1,29-38.55A1.48,1.48,0,0,0,139.53,124Z"/><path class="cls-2" d="M223.34,62.3a327.87,327.87,0,0,1,45.28-16.36,1.83,1.83,0,0,0,.49-.23,1.91,1.91,0,0,0,.51-2.65,1.73,1.73,0,0,0-1.94-.9,247,247,0,0,0-46,16.6,1.7,1.7,0,0,0-.45.35,1.9,1.9,0,0,0,0,2.66h0A1.78,1.78,0,0,0,223.34,62.3Z"/><path class="cls-1" d="M75.46,235.5a2,2,0,0,0,2.09,1.9,1.7,1.7,0,0,0,1.66-1.27A286.42,286.42,0,0,1,95.39,190.8a1.4,1.4,0,0,0,.09-.29,2,2,0,0,0-1.73-2.24h0a1.71,1.71,0,0,0-1.88.94,254,254,0,0,0-16.41,46A1.41,1.41,0,0,0,75.46,235.5ZM94.2,161.13a1.8,1.8,0,0,0,2-.82c4.66-7.79,9.7-15.44,15.06-22.8a2.09,2.09,0,0,0,.19-.4,2,2,0,0,0-1.25-2.54h0a1.79,1.79,0,0,0-2.07.63c-5.42,7.49-10.57,15.18-15.3,23.13a2,2,0,0,0,.94,2.67,2,2,0,0,0,.41.14Zm32-42.25c3.9-4.75,8.35-9,12.52-13.5l10-9.52,3.5-3a2,2,0,0,0-2.57-2.94L146.13,93,136,102.63c-4.23,4.56-8.7,8.88-12.7,13.7a2,2,0,0,0,2.92,2.57ZM65.56,235.5a.81.81,0,0,0,0-.22.78.78,0,0,1,0,.33A.37.37,0,0,1,65.56,235.5Zm-2.4,1.8a1.89,1.89,0,0,1-1.48-2.23l.1-.5c-1.15,5.1-2.39,10.2-3.28,15.35a1.67,1.67,0,0,0,0,.63,1.92,1.92,0,0,0,2.23,1.55h0a1.79,1.79,0,0,0,1.61-1.45c.88-4.87,2-9.72,3.07-14.5a1.88,1.88,0,0,1-2.26,1.15Z"/><path class="cls-1" d="M72.3,200.88a2.34,2.34,0,0,0-.12.64,1.88,1.88,0,0,0,1.88,1.91,1.82,1.82,0,0,0,1.87-1.13l3.37-8.57L85,181.16l6.32-12.3a1.47,1.47,0,0,0,.17-.62,1.91,1.91,0,0,0-1.6-2.14,1.87,1.87,0,0,0-2,.87l-6.4,12.45-5.77,12.77Zm57.8-50.78-5,7.05a1.83,1.83,0,0,0-.18.46,1.88,1.88,0,0,0,1.38,2.27,1.75,1.75,0,0,0,2-.52l4.93-6.94.1-.26a2,2,0,0,0-1.25-2.54h0a1.6,1.6,0,0,0-2,.48ZM63.4,366.38a1.83,1.83,0,0,0-.45-3.63,1.94,1.94,0,0,0-.33.07l-.22.05a1.83,1.83,0,0,0,1,3.51Z"/><path class="cls-1" d="M70.07,322.23a1.75,1.75,0,0,0,0-3.5,2,2,0,0,0-.34,0A1.81,1.81,0,0,0,68,320.61v0A1.86,1.86,0,0,0,70.07,322.23Zm.63,7.34a1.88,1.88,0,0,0,1.76-1.92,1.8,1.8,0,0,0-2-1.5,1.89,1.89,0,0,0-1.81,1.92A1.82,1.82,0,0,0,70.7,329.57Zm12.5-6.33a1.84,1.84,0,0,0,1.81-1.8A1.81,1.81,0,0,0,83,320a1.51,1.51,0,0,0-.52,0,1.67,1.67,0,0,0,.78,3.25Zm-1.45,5.63v0Z"/><path class="cls-1" d="M81.75,328.87v0Zm3.85-.5a.13.13,0,0,0,0-.06v.06Z"/><path class="cls-1" d="M85.6,328.37a.13.13,0,0,0,0-.06v.06ZM88,257.65a1.27,1.27,0,0,0,0-.39,2,2,0,0,1,0,.35Zm20.63-73a2,2,0,0,0,3.48,1.79,1.85,1.85,0,0,0-1-2.37A1.81,1.81,0,0,0,108.63,184.65Zm4-3.56a1.89,1.89,0,0,0,2.53-.49,1.81,1.81,0,0,0-.9-2.32,1.85,1.85,0,0,0-2.53.49A1.76,1.76,0,0,0,112.65,181.09Z"/><path class="cls-3" d="M134.1,144.94a1.8,1.8,0,0,0,.52,2.48,1.67,1.67,0,1,0,1.6-2.93,1.67,1.67,0,0,0-2.11.43Z"/><path class="cls-4" d="M138.75,142.2a1.76,1.76,0,0,0,2.49-.07h0a1.81,1.81,0,0,0-.41-2.46,1.85,1.85,0,0,0-2.58,0A1.88,1.88,0,0,0,138.75,142.2Z"/><path class="cls-1" d="M178.9,100.23a1.81,1.81,0,0,0-.11,2.55,1.83,1.83,0,0,0,2.5.52,1.86,1.86,0,0,0,.09-2.57A1.79,1.79,0,0,0,178.9,100.23Zm-15.75,13.2a1.86,1.86,0,0,0,.12,2.58,1.77,1.77,0,0,0,2.48.31l0,0a1.87,1.87,0,0,0-.1-2.57A1.82,1.82,0,0,0,163.15,113.43Zm21.07-17.27a1.79,1.79,0,0,0-.18,2.51,1.88,1.88,0,0,0,2.5.61,1.79,1.79,0,0,0,.18-2.51A1.86,1.86,0,0,0,184.22,96.16ZM226.3,75.3l.06-.07a1.78,1.78,0,0,0,.64-2.42h0a1.68,1.68,0,0,0-3.09,1.32l.09.18a1.75,1.75,0,0,0,2.27,1Zm-151,169.3A1.9,1.9,0,0,0,73,245.9v.1a1.81,1.81,0,0,0,1.53,2,1.9,1.9,0,0,0,2.29-1.29,1.81,1.81,0,0,0-1.46-2.09h0Zm-2.08,10.66a1.85,1.85,0,0,0,2.22-1.36,1.88,1.88,0,0,0-1.62-2.06,1.83,1.83,0,0,0-2.2,1.36A1.85,1.85,0,0,0,73.25,255.26Z"/><path class="cls-5" d="M101.72,173.93a1.84,1.84,0,0,0-2.53.62h0a1.89,1.89,0,0,0,.93,2.47,1.82,1.82,0,0,0,2.5-.62h0A1.9,1.9,0,0,0,101.72,173.93Z"/><path class="cls-3" d="M98.3,180.5a1.86,1.86,0,0,0-2.53.67h0a1.82,1.82,0,0,0,1,2.37,1.72,1.72,0,1,0,1.53-3Z"/><path class="cls-6" d="M105.42,167.5a1.73,1.73,0,0,0-2,2.86,2,2,0,0,0,.25.14,1.85,1.85,0,0,0,2.55-.53A1.89,1.89,0,0,0,105.42,167.5Z"/><path class="cls-5" d="M87.94,241.75a2,2,0,0,0,3.74.91,1.85,1.85,0,0,0-1.49-2.06A1.79,1.79,0,0,0,87.94,241.75Z"/><path class="cls-3" d="M86.3,248.6v.05a1.76,1.76,0,0,0,1.53,1.95,1.86,1.86,0,0,0,2.28-1.2,1.79,1.79,0,0,0-1.53-2h0A1.86,1.86,0,0,0,86.3,248.6Z"/><path class="cls-6" d="M89.64,234.9A1.79,1.79,0,0,0,91.06,237a1.86,1.86,0,0,0,2.33-1.07A1.78,1.78,0,0,0,92,233.83a1.83,1.83,0,0,0-2.36,1.07Z"/><path class="cls-1" d="M143.62,117.1A1.84,1.84,0,0,0,141,117h0a2,2,0,1,0,2.81.3A2.09,2.09,0,0,0,143.62,117.1Zm8-8a1.85,1.85,0,0,0,2.59.22,1.9,1.9,0,0,0-.09-2.63,1.83,1.83,0,0,0-2.58-.2A1.85,1.85,0,0,0,151.65,109.12Zm7.65-7a1.89,1.89,0,0,0-2.62-.31,1.81,1.81,0,0,0,0,2.55h0a1.9,1.9,0,0,0,2.61.32A1.84,1.84,0,0,0,159.3,102.1Zm55.2-39.73a2,2,0,0,0,1.76,3.46,1.89,1.89,0,0,0,.66-2.54,1.84,1.84,0,0,0-2.42-.92ZM71.72,208a1.85,1.85,0,0,0-2.4,1.09,1.88,1.88,0,0,0,1.22,2.39h0A1.87,1.87,0,0,0,73,210.43a.14.14,0,0,1,0-.07A1.92,1.92,0,0,0,71.72,208Zm-4.92,8.5a1.84,1.84,0,0,0,1.31,2.25h0a2,2,0,0,0,2.42-1.15,1.88,1.88,0,0,0-1.27-2.29A2,2,0,0,0,66.8,216.5Zm51.32-91a1.89,1.89,0,0,0,2.62-.21,1.86,1.86,0,0,0-.33-2.61h0a1.9,1.9,0,0,0-2.67.16A2,2,0,0,0,118.12,125.5ZM116,131.33a1.95,1.95,0,0,0-3.08-2.37,1.88,1.88,0,0,0,.42,2.6A1.94,1.94,0,0,0,116,131.33Zm95.2-78.1a1.94,1.94,0,0,0,.74-2.59,1.83,1.83,0,0,0-3.38,1.4,1.59,1.59,0,0,0,.15.29,1.87,1.87,0,0,0,2.49.9ZM217.92,50h0Z"/><path class="cls-1" d="M217.92,50h0Z"/><path class="cls-1" d="M218.76,47.5a1.92,1.92,0,0,0-2.48-1,1.85,1.85,0,0,0-.8,2.49,1.92,1.92,0,0,0,2.46,1A1.88,1.88,0,0,0,218.76,47.5ZM265.3,28.88A1.88,1.88,0,0,0,264,31.2v0a1.91,1.91,0,0,0,2.25,1.43,1.86,1.86,0,0,0,1.25-2.29A2,2,0,0,0,265.3,28.88Zm9.7-.24a1.91,1.91,0,0,0-2.21-1.48,2,2,0,0,0,.86,3.8A2,2,0,0,0,275,28.64ZM257.83,31a2,2,0,1,0,1.85,1A2,2,0,0,0,257.83,31Zm-209.17,317a2,2,0,0,0-2.25-1.56h-.07a1.86,1.86,0,0,0-1.51,2.15v0a2,2,0,0,0,2.26,1.57A1.88,1.88,0,0,0,48.66,348Zm-2.88-6.18a1.69,1.69,0,1,0-2.17-1.61,1.92,1.92,0,0,0,2.17,1.61Z"/><path class="cls-3" d="M43.25,312.28a1.91,1.91,0,1,0-.1-3.82,1.92,1.92,0,0,0-1.87,2h0A1.89,1.89,0,0,0,43.25,312.28Z"/><path class="cls-6" d="M43.72,281.73A2,2,0,0,0,45.8,280a1.92,1.92,0,0,0-1.73-2h-.18a1.91,1.91,0,0,0-.17,3.81Z"/><path class="cls-4" d="M44.3,274.55h.05a1.87,1.87,0,0,0,2-1.71,2,2,0,0,0-1.74-2.1h-.06a1.89,1.89,0,0,0-2.06,1.7.13.13,0,0,0,0,.06A2,2,0,0,0,44.3,274.55Z"/><path class="cls-1" d="M59.3,205.2a1.88,1.88,0,0,0,2.4-1.13v0a2,2,0,0,0-1.27-2.49,1.87,1.87,0,0,0-2.37,1.16v0A2,2,0,0,0,59.3,205.2Zm16.6-38.26a1.88,1.88,0,0,0,2.54-.77l0,0a2,2,0,0,0-.85-2.64,1.87,1.87,0,0,0-2.53.76l0,0A2,2,0,0,0,75.9,166.94Z"/><path class="cls-3" d="M117.2,110a2,2,0,0,0-.22-2.74,1.91,1.91,0,0,0-2.7.17h0A2,2,0,0,0,117.2,110Z"/><path class="cls-1" d="M121.66,105a1.89,1.89,0,0,0-.14-2.67h0a2,2,0,0,0-2.74.06,1.89,1.89,0,0,0,.14,2.67h0A2,2,0,0,0,121.66,105Zm52.42-44.86a1.88,1.88,0,0,0,.54-2.63v0a2,2,0,0,0-2.69-.59h-.06a1.88,1.88,0,0,0-.46,2.62h0A2,2,0,0,0,174.08,60.12Z"/><path class="cls-3" d="M179.73,56.5a2,2,0,0,0,.56-2.69,1.88,1.88,0,0,0-2.65-.5,1.91,1.91,0,0,0,2.09,3.19Z"/><path class="cls-1" d="M185.5,52.83a1.86,1.86,0,0,0,.65-2.57h0a2,2,0,0,0-2.66-.72,1.89,1.89,0,0,0-.62,2.6h0A2,2,0,0,0,185.5,52.83Zm3.17-4a1.92,1.92,0,0,0,2.61.74h0a2,2,0,0,0,.69-2.65,1.91,1.91,0,1,0-3.34,1.86ZM246.3,23.23a1.89,1.89,0,0,0,3.61-1.13v0a1.91,1.91,0,1,0-3.7,1,1.72,1.72,0,0,0,.07.21ZM149.72,78.3a2,2,0,0,0,.18-2.69V75.5a1.89,1.89,0,0,0-2.67-.22h0A2,2,0,0,0,147,78a1.93,1.93,0,0,0,2.69.27ZM451.07,45.24l.18.08a1.81,1.81,0,0,1,1,1.92,2,2,0,0,1-2.08,1.69A14.82,14.82,0,0,0,467,43.14l-1.46-.74a1.95,1.95,0,0,1,.91-3.62,1.92,1.92,0,0,0-1.87,1.07,11,11,0,0,1-6,5.39A10.35,10.35,0,0,1,451.07,45.24ZM319.35,35.4A2,2,0,0,1,318.26,38h0l-.23.07a2.29,2.29,0,0,0,.37,0,13.93,13.93,0,0,0,9.47-4.88,16.46,16.46,0,0,0,3.83-9.09h-1.8a1.8,1.8,0,0,1-1.75-1.28,1.94,1.94,0,0,1,.79-2.31,2,2,0,0,0-1,1.75,12.29,12.29,0,0,1-2.8,8.14,10.51,10.51,0,0,1-7.07,3.72h-.17a1.72,1.72,0,0,1,1.44,1.27Z"/><path class="cls-1" d="M329.4,20.4h0Zm-.33.1a.47.47,0,0,0-.12.09,1.38,1.38,0,0,1,.27-.14Zm271.76,189a1.62,1.62,0,0,0-.1-.18,1.59,1.59,0,0,1,.06.65,2,2,0,0,1-3.22,1.25,1.65,1.65,0,0,1-.46-.68v.24a14,14,0,0,0,7.11,7.84,15.22,15.22,0,0,0,9.17,1.4l-.4-1.4a2,2,0,0,1,1.89-2.11h0a2,2,0,0,1,1.67.78,1.81,1.81,0,0,0-2.12-1.41l-.24.07A10.74,10.74,0,0,1,600.83,209.5Z"/><path class="cls-2" d="M388.9,16.4c4.7.77,9.29,2.06,13.92,3a2,2,0,0,0,2.32-1.53,1.9,1.9,0,0,0-1.41-2.29h0c-4.7-1-9.38-2.15-14.12-3a1.94,1.94,0,0,0-.78,3.81Zm-67.4-4.7,11.93-.3a2.43,2.43,0,0,0,.47-.08,2,2,0,0,0,1.34-2.49,1.85,1.85,0,0,0-1.82-1.32l-12.1.3a1.69,1.69,0,0,0-.63.13,1.91,1.91,0,0,0-1.07,2.48,2,2,0,0,0,1.87,1.27Z"/><path class="cls-1" d="M362.42,12.68c3.6.24,7.12.89,10.7,1.24a2,2,0,0,0,2.16-1.83,2,2,0,0,0,0-.49,1.86,1.86,0,0,0-1.63-1.54c-3.6-.41-7.2-1-10.84-1.26a1.4,1.4,0,0,0-.5,0,2,2,0,0,0-1.56,2.36h0a1.87,1.87,0,0,0,1.7,1.52Z"/><path class="cls-2" d="M421.83,50.5a2,2,0,0,0-.25-2.26,1.61,1.61,0,0,0-.61-.38c-6.15-2.22-12.46-3.78-18.73-5.7a1.44,1.44,0,0,0-.87,0,2,2,0,0,0-.69,3.37,1.71,1.71,0,0,0,.63.32c6.28,1.78,12.55,3.47,18.67,5.7a1.85,1.85,0,0,0,1.85-1.06Z"/><path class="cls-1" d="M372.55,40a1.56,1.56,0,0,0,.66.25c3.24.38,6.4,1.1,9.62,1.62l4.8.85,4.76,1.07a1.83,1.83,0,0,0,1.76-1.26,2,2,0,0,0-.5-2.23A1.31,1.31,0,0,0,393,40c-3.16-.8-6.37-1.4-9.6-1.92l-9.65-1.6a1.51,1.51,0,0,0-.86.13,1.89,1.89,0,0,0-.66.53,2.06,2.06,0,0,0,.3,2.88Z"/><path class="cls-2" d="M417.5,64.27A2.12,2.12,0,0,0,418,64a2.19,2.19,0,0,0,.49-3,1.38,1.38,0,0,0-.58-.37l-6.38-2.17a1.31,1.31,0,0,0-.83,0,2,2,0,0,0-1.18,1.1,2,2,0,0,0,.27,2.23,1.48,1.48,0,0,0,.58.37l6.28,2.14A1.5,1.5,0,0,0,417.5,64.27Z"/><path class="cls-1" d="M415.83,36c3.53,1,7,2.3,10.45,3.45a1.72,1.72,0,0,0,.9,0,2.08,2.08,0,0,0,1.3-1,1.92,1.92,0,0,0-.28-2.27,1.49,1.49,0,0,0-.65-.39c-3.55-1.08-7-2.46-10.6-3.5a1.6,1.6,0,0,0-.92,0,2,2,0,0,0-1.37,2.47,1.88,1.88,0,0,0,.51.87,1.49,1.49,0,0,0,.65.36ZM379.5,27.65c4.53.86,9.14,1.45,13.6,2.54s9,2,13.45,3.23a2.81,2.81,0,0,0,.58,0,2,2,0,0,0,1.77-2,1.87,1.87,0,0,0-1.32-1.76c-4.48-1.33-9.08-2.22-13.64-3.27s-9.2-1.7-13.8-2.57a1.95,1.95,0,0,0-.64,3.83Zm25,32.7a2,2,0,0,0,1.84-2,1.65,1.65,0,0,0-1.14-1.7,102.76,102.76,0,0,0-10.64-2.8c-3.59-.74-7.11-1.82-10.75-2.35a1.27,1.27,0,0,0-.39,0,1.92,1.92,0,0,0-1.61,2.2v0a1.63,1.63,0,0,0,1.29,1.58c3.58.54,7,1.54,10.58,2.3s7,1.77,10.47,2.78ZM369.1,49.15a1.9,1.9,0,0,0-1.44,2.3A1.62,1.62,0,0,0,369,53L376.19,54a2,2,0,0,0,.49,0,1.89,1.89,0,0,0,1.5-2.22h0a1.69,1.69,0,0,0-1.32-1.59,72.59,72.59,0,0,0-7.3-1.08A1.42,1.42,0,0,0,369.1,49.15ZM309.28,34.83l-8.3,1a2,2,0,0,0-.58.21,1.9,1.9,0,0,0-.73,2.6,1.74,1.74,0,0,0,1.8,1.11l8.18-1,8.2-.62.18-.05a2,2,0,0,1-.25-3.82h-.18Z"/><path class="cls-1" d="M349.87,37.83a1.9,1.9,0,0,0,1.3-2.32h0a1.77,1.77,0,0,0-1.57-1.45c-5.57-.15-11.15-.4-16.72-.35a1.55,1.55,0,0,0-.36.08,2,2,0,0,0-1.29,2.52h0a1.72,1.72,0,0,0,1.66,1.28c5.47,0,11,.43,16.47.34A1.82,1.82,0,0,0,349.87,37.83Zm-62.33,17.3c3.4-.48,6.75-1.26,10.14-1.77a1.85,1.85,0,0,0,.44-.18,1.89,1.89,0,0,0,.74-2.55,1.73,1.73,0,0,0-1.75-1.12c-3.45.52-6.86,1.22-10.3,1.8a2.67,2.67,0,0,0-.46.2,1.89,1.89,0,0,0-.6,2.58A1.69,1.69,0,0,0,287.54,55.13Z"/><path class="cls-2" d="M280.25,25.65a2,2,0,0,0,1.31,3.59C286,28.5,290.5,27.5,295,27l13.6-1.62a1.67,1.67,0,0,0,.54-.15,1.93,1.93,0,0,0,.95-2.53,1.86,1.86,0,0,0-1.82-1.15c-4.62.31-9.2,1.07-13.78,1.64s-9.1,1.57-13.66,2.32a1.67,1.67,0,0,0-.57.19Z"/><path class="cls-1" d="M329.3,20.4h-.08l.17-.06Zm2.32,1a2.18,2.18,0,0,1,.17.87l-.1,1.83,2.82-.08,13.8.33,9.18.66,9.18.86a2.1,2.1,0,0,0,.56-.08,1.92,1.92,0,0,0,1.45-2.24,1.82,1.82,0,0,0-1.57-1.54c-3.09-.43-6.2-.67-9.3-.88l-9.3-.66-14-.33-4.67.12a2,2,0,0,0-.35.08,1.91,1.91,0,0,1,2.11,1.07Z"/><path class="cls-2" d="M318,51.17a2,2,0,0,0,1.13-2.59,1.64,1.64,0,0,0-1.66-1.2A124,124,0,0,0,305,48.52a1.32,1.32,0,0,0-.39.15,2,2,0,0,0-.87,2.6,1.67,1.67,0,0,0,1.71,1.12c4.07-.64,8.2-.77,12.28-1.13A1.43,1.43,0,0,0,318,51.17Z"/><path class="cls-1" d="M348.36,48.4A1.61,1.61,0,0,0,346.85,47l-10.17-.26c-3.4-.1-6.78.18-10.17.18a3,3,0,0,0-.43.12,1.89,1.89,0,0,0-1,2.48h0a1.66,1.66,0,0,0,1.61,1.29c3.33,0,6.67-.27,10-.18l10,.26a1.36,1.36,0,0,0,.29-.06A2,2,0,0,0,348.36,48.4Zm135.4,51.1.27.1a2,2,0,0,0,2.53-1.26,1.64,1.64,0,0,0-.49-2l-8.52-6.06-.23-.1a2,2,0,0,0-2.52,1.29h0a1.64,1.64,0,0,0,.57,2l8.4,6Zm-16.3-11a2,2,0,0,0,.41.15,1.91,1.91,0,0,0,2.28-1.48,1.68,1.68,0,0,0-.62-2c-11.56-7.78-24.2-13.67-37-19.07a2.32,2.32,0,0,0-.38-.06,1.93,1.93,0,0,0-2,1.84h0a1.64,1.64,0,0,0,.94,1.8A285.36,285.36,0,0,1,467.46,88.5ZM596,174.74l3,6.47a2,2,0,0,0,2.7.85,2.33,2.33,0,0,0,.38-.26,1.89,1.89,0,0,0,.46-2.2l-3-6.56-3.3-6.42a2,2,0,0,0-3.46,1.78ZM559.3,117.5a1.94,1.94,0,0,0,3-2.47l-5.55-6.46a1.95,1.95,0,0,0-2.94,2.55l5.5,6.38Zm18.78,25.7c2,3.28,4.26,6.43,6.15,9.8a2,2,0,0,0,3.34-2c-1.83-3.45-4.2-6.6-6.23-9.92s-4.32-6.5-6.6-9.67a1.88,1.88,0,0,0-.44-.45,1.94,1.94,0,0,0-2.7.45,1.89,1.89,0,0,0,0,2.24l6.48,9.56Zm37.65,76.2a2.06,2.06,0,0,1-.48.21,14.21,14.21,0,0,1-1.83.4l2.15,7.6,2.17,9.1a2.39,2.39,0,0,0,.18.44,2,2,0,0,0,2.73.75h0a1.88,1.88,0,0,0,.89-2.06l-2.2-9.22-2.6-9.1a1.84,1.84,0,0,0-.17-.22,2,2,0,0,1-.85,2.11Z"/><path class="cls-1" d="M468,41.55a15.89,15.89,0,0,1-.95,1.59l6,3.08a2,2,0,0,0,1.86-3.42l-7.57-3.9a1.91,1.91,0,0,0-.85-.15,1.76,1.76,0,0,1,.67.18,1.91,1.91,0,0,1,.87,2.56Z"/><path class="cls-1" d="M489,55.63c3.22,2.1,6.53,4.08,9.68,6.3l9.42,6.7a1.82,1.82,0,0,0,.54.27A1.94,1.94,0,0,0,511,67.67a1.87,1.87,0,0,0-.65-2.16l-9.54-6.8c-3.15-2.23-6.5-4.23-9.8-6.4a1.95,1.95,0,0,0-2.07,3.3Z"/><path class="cls-2" d="M423.1,25c5.93,2,11.92,3.92,17.72,6.34,2.9,1.21,5.87,2.23,8.72,3.55l8.62,3.92a2,2,0,0,0,2.59-1v-.06a1.87,1.87,0,0,0-.92-2.48l-8.72-3.95c-2.9-1.33-5.9-2.37-8.84-3.58-5.9-2.42-12-4.36-18-6.42h-.1a1.86,1.86,0,0,0-2.3,1.26h0A2,2,0,0,0,423.09,25Z"/><path class="cls-1" d="M587.1,210.88l-3.52-9.14a1.57,1.57,0,0,0-.53-.69,1.92,1.92,0,0,0-1.6-.27,2.06,2.06,0,0,0-1.55,1.69,1.57,1.57,0,0,0,.1.71l3.47,9,3.1,9.13a1.54,1.54,0,0,0,.5.7,2,2,0,0,0,.77.37,2.06,2.06,0,0,0,2.47-1.52,1.6,1.6,0,0,0-.07-.72Zm-10.8-25.66a1.61,1.61,0,0,0-.6-.64,2.17,2.17,0,0,0-.75-.22,2.07,2.07,0,0,0-2.26,1.84h0a1.46,1.46,0,0,0,.17.68l4.7,10.28a1.41,1.41,0,0,0,.48.65,2,2,0,0,0,1.63.23,1.93,1.93,0,0,0,1.48-1.7,1.54,1.54,0,0,0-.14-.7Zm-5.7-11.17-2.85-5a1.58,1.58,0,0,0-.62-.61,2.14,2.14,0,0,0-2.78,1.19,2,2,0,0,0-.15.68,1.64,1.64,0,0,0,.21.68l2.8,4.9,2.56,5a1.51,1.51,0,0,0,.6.65,2.08,2.08,0,0,0,3-1.68,1.4,1.4,0,0,0-.18-.7Zm7,49.6a1.46,1.46,0,0,0-.49-.68,2,2,0,0,0-1.58-.34,2,2,0,0,0-1.66,1.51,1.38,1.38,0,0,0,0,.67c.77,2.08,1.32,4.22,1.92,6.36a1.48,1.48,0,0,0,.41.69,2.14,2.14,0,0,0,3-.47,2.25,2.25,0,0,0,.3-.6,1.38,1.38,0,0,0,0-.7Zm21-15.32.34-.05a1.73,1.73,0,0,1,1.78,1v-.1c-1.12-3.55-2.5-7-3.88-10.47a1.71,1.71,0,0,0-.54-.73,2,2,0,0,0-3.16,1.39,1.89,1.89,0,0,0,.12.74c1.34,3.41,2.72,6.82,3.82,10.32v.07A2,2,0,0,1,598.6,208.33Z"/><path class="cls-2" d="M578.94,165.4a1.85,1.85,0,0,0-.78,2.51c2.19,4,4.38,8.13,6.38,12.28s3.76,8.41,5.74,12.57a1.94,1.94,0,0,0,2.56.91,1.86,1.86,0,0,0,1-2.42c-1.82-4.32-3.67-8.6-5.83-12.75s-4.07-8.44-6.46-12.46a1.9,1.9,0,0,0-2.61-.64Z"/><path class="cls-1" d="M554.63,172.68a1.89,1.89,0,0,0-2.66.3h0a1.72,1.72,0,0,0-.37,2l3.63,6.3a1.47,1.47,0,0,0,.29.32,2,2,0,0,0,2.72-.16,1.63,1.63,0,0,0,.42-2L555,173A2.53,2.53,0,0,0,554.63,172.68ZM512.3,104.2a1.7,1.7,0,0,0,.34,2.06,270.32,270.32,0,0,1,32.53,35.61,1.85,1.85,0,0,0,.37.31,2,2,0,0,0,2.77-.56,1.71,1.71,0,0,0,0-2.1,277.63,277.63,0,0,0-33-36.13,2.31,2.31,0,0,0-.48-.28,1.93,1.93,0,0,0-2.52,1.06Zm-68-47.1a1.92,1.92,0,0,0-2,1.77,1.76,1.76,0,0,0,1,1.89A298.12,298.12,0,0,1,488,86.44a1.18,1.18,0,0,0,.41.19,1.92,1.92,0,0,0,2.38-1.31v0a1.73,1.73,0,0,0-.58-2,239.88,239.88,0,0,0-45.35-26.06,3.12,3.12,0,0,0-.53-.11Zm66,61.5a1.65,1.65,0,0,0-.22-2L506.38,113l-4-3.42a1.79,1.79,0,0,0-.39-.2,1.93,1.93,0,0,0-2.48,1.11h0a1.68,1.68,0,0,0,.31,2l3.9,3.38,3.73,3.56a2.38,2.38,0,0,0,.41.23,1.89,1.89,0,0,0,2.49-1l0,0Zm7-27.83a1.8,1.8,0,0,0,.42,2.14c3.42,3,6.64,6.2,10,9.26s6.42,6.47,9.6,9.74h0a1.66,1.66,0,0,0,.34.25,2,2,0,0,0,2.73-.74h0a1.8,1.8,0,0,0-.23-2.17c-3.18-3.34-6.37-6.7-9.72-9.88S524,93,520.42,90a1.47,1.47,0,0,0-.47-.27,2,2,0,0,0-2.52,1.06Zm56.37,69.58a2,2,0,0,0,3.35-2A209.39,209.39,0,0,0,556,127.6a1.86,1.86,0,0,0-2.63-.23h0A1.9,1.9,0,0,0,553,130C560.32,139.84,567.43,149.85,573.8,160.35ZM448.28,46.1a1.87,1.87,0,0,1,2.45-1l.34.13-7-3.15-7.33-2.9a1.54,1.54,0,0,0-.56-.1,1.91,1.91,0,0,0-2,1.82v0a1.83,1.83,0,0,0,1.13,1.87l7.23,2.84,7.07,3.16a2,2,0,0,0,.35.09h.2l-1.06-.38a1.89,1.89,0,0,1-.82-2.43Z"/><path class="cls-1" d="M480.3,65.17a335.78,335.78,0,0,1,30,21.33,1.7,1.7,0,0,0,.35.19,2,2,0,0,0,2.61-1.09h0a1.77,1.77,0,0,0-.52-2.11,288.7,288.7,0,0,0-30.4-21.63,1.82,1.82,0,0,0-.56-.22,1.9,1.9,0,0,0-2.24,1.46A1.84,1.84,0,0,0,480.3,65.17ZM519,130.92a2,2,0,0,0,2.72-.8h0a1.67,1.67,0,0,0-.12-2l-6-6.26a1.67,1.67,0,0,0-.4-.25,1.91,1.91,0,0,0-2.52,1v0a1.73,1.73,0,0,0,.16,2l5.87,6.16A2.1,2.1,0,0,0,519,130.92ZM552.18,145c-.27-.3.76,1.7-1.18,2.47-1.2.48-2.7-.2-2.2-1.85a1.71,1.71,0,0,0,.12,1.67c2.67,4,1.88,9.3-2,12.8-1.73-2.63-3.66-5.13-5.42-7.73-2.1-3.12-4.52-6-6.84-9a1.89,1.89,0,0,0-3,.36,1.7,1.7,0,0,0-.08,2.06c4.23,5.16,8,10.65,11.84,16.1l1.25,1.87a2.06,2.06,0,0,0,.3.29c-1-.7.74,1.24,2.22.12,6.55-4,9.64-12.6,5-19.16ZM323.1,20.5a1.86,1.86,0,0,0-1.69,2,2,2,0,0,0,1.91,1.9,1.9,1.9,0,0,0,1.74-2,2,2,0,0,0-1.9-1.9Z"/><path class="cls-2" d="M373.14,26.82a2,2,0,0,0,2.09-1.74A1.88,1.88,0,0,0,373.67,23a2,2,0,0,0-.53,3.86Z"/><path class="cls-2" d="M373.14,26.82a2,2,0,0,0,2.09-1.74A1.88,1.88,0,0,0,373.67,23a2,2,0,0,0-.53,3.86Z"/><path class="cls-1" d="M315.64,24.9a1.91,1.91,0,0,0,1.68-2.07v-.06A1.86,1.86,0,0,0,315.37,21h0a2,2,0,0,0,.27,3.88ZM367,37.64a1.86,1.86,0,0,0-1.47-2.14,1.81,1.81,0,0,0-1.89,1.71,1.92,1.92,0,0,0,1.5,2.16A1.84,1.84,0,0,0,367,37.64Zm-9.15,1a1.89,1.89,0,0,0,1.9-1.87h0a1.81,1.81,0,0,0-1.57-2,2,2,0,0,0-.33,3.87Z"/><path class="cls-3" d="M363.53,50.3A1.89,1.89,0,0,0,362,48.15a1.79,1.79,0,0,0-1.8,1.76A1.87,1.87,0,0,0,361.65,52a1.79,1.79,0,0,0,1.88-1.7Z"/><path class="cls-1" d="M354.37,47.5a2,2,0,0,0,.38,4,1.84,1.84,0,0,0,1.8-1.81,2.29,2.29,0,0,0,0-.37,2,2,0,0,0-2.16-1.82Zm71.46,18a1.84,1.84,0,0,0-.85-2.43,1.76,1.76,0,0,0-2.18,1.21h0a1.87,1.87,0,0,0,.84,2.43A1.78,1.78,0,0,0,425.83,65.55Zm65.6,35.15a1.67,1.67,0,0,0-2.32.43h0a1.65,1.65,0,1,0,2.2,2.46,1.6,1.6,0,0,0,.36-.46,1.57,1.57,0,0,0,.44-.58A1.66,1.66,0,0,0,491.43,100.7Zm3,7.07a1.79,1.79,0,0,0,2.45-.39,1.61,1.61,0,0,0,.39-.47,1.68,1.68,0,0,0-2.94-1.63A1.77,1.77,0,0,0,494.4,107.77Zm30.66,27.93A2,2,0,0,0,526,133h0a1.79,1.79,0,0,0-2.53,0,1.87,1.87,0,0,0-.38,2.54A2,2,0,0,0,525.06,135.7Zm4.94,4.8a1.77,1.77,0,0,0,.37-2.46,1.87,1.87,0,0,0-2.58,0,1.8,1.8,0,0,0-.4,2.49A1.88,1.88,0,0,0,530,140.5Zm29.18,44.14a1.85,1.85,0,0,0-1,2.36,1.67,1.67,0,1,0,1-2.36ZM549,167a1.76,1.76,0,0,0-.75,2.37v0a1.85,1.85,0,0,0,2.58.35,1.77,1.77,0,0,0,.71-2.39A1.85,1.85,0,0,0,549,167Zm12.2,25.92a1.77,1.77,0,0,0,2.42.66h0a1.85,1.85,0,0,0,.45-.21,1.68,1.68,0,1,0-1.88-2.79,1.81,1.81,0,0,0-1,2.32Z"/><g class="cls-7"><path id="O" class="cls-8" d="M578.7,234.3a1.79,1.79,0,0,0-1.42,2.09,1.88,1.88,0,0,0,2.35,1.09,1.79,1.79,0,0,0,1.41-2.09A1.87,1.87,0,0,0,578.7,234.3Z"/></g><path class="cls-1" d="M438.85,56.68a1.81,1.81,0,0,0-.88-2.4,1.92,1.92,0,0,0-2.37,1.17,1.83,1.83,0,0,0,.86,2.43h0A1.91,1.91,0,0,0,438.85,56.68Z"/><path class="cls-6" d="M431.57,54.3a2,2,0,0,0-.51-2.78,1.83,1.83,0,0,0-2.3,1.18,1.87,1.87,0,0,0,.92,2.45A2,2,0,0,0,431.57,54.3Z"/><path class="cls-1" d="M503.4,95.8a1.82,1.82,0,0,0-.17-2.57h0a1.9,1.9,0,0,0-2.59.44,1.84,1.84,0,0,0,.15,2.59A1.91,1.91,0,0,0,503.4,95.8Zm-5.85-4.57a1.86,1.86,0,0,0-.18-2.62,1.82,1.82,0,0,0-2.51.5,1.91,1.91,0,0,0,.18,2.61A1.82,1.82,0,0,0,497.55,91.23Z"/><path class="cls-1" d="M508.65,100.83A2,2,0,0,0,509,98a1.83,1.83,0,0,0-2.55.36h0a1.89,1.89,0,0,0,0,2.62A2,2,0,0,0,508.65,100.83Z"/><path class="cls-9" d="M549,145.3a1.74,1.74,0,0,0-.18.33,1.83,1.83,0,0,0,.17,1.53,2,2,0,0,0,2.81-.29,2,2,0,0,0,.35-1.89,1.85,1.85,0,0,0-.4-.34A2,2,0,0,0,549,145.3Z"/><path class="cls-1" d="M562.24,162.6a2,2,0,0,0-1.32,2.5,1.81,1.81,0,0,0,2.5.49h0a1.89,1.89,0,0,0,.8-2.51A2,2,0,0,0,562.24,162.6Z"/><path class="cls-1" d="M589.89,226.05a1.86,1.86,0,0,0-1.39,2.2,1.84,1.84,0,0,0,2.34,1.13l.33-.1a1.74,1.74,0,0,0-1.24-3.26l0,0Z"/><path class="cls-1" d="M474.93,60.28a1.67,1.67,0,1,0-2.6-1.52,2,2,0,0,0,.56,2.08A2,2,0,0,0,474.93,60.28Z"/><path class="cls-1" d="M468.76,56.2v-.06a1.85,1.85,0,0,0-.73-2.51,2,2,0,0,0-2.55.88,1.83,1.83,0,0,0,.69,2.48l0,0A1.92,1.92,0,0,0,468.76,56.2Z"/><path class="cls-1" d="M548,120.85a1.87,1.87,0,0,0-.3,2.63,1.94,1.94,0,0,0,2.74.09,1.81,1.81,0,0,0,.26-2.56l0,0a1.88,1.88,0,0,0-2.67-.14Z"/><path class="cls-1" d="M542.7,117.68a1.86,1.86,0,0,0,2.62.06,1.92,1.92,0,0,0,.26-2.68,1.89,1.89,0,0,0-2.64-.08,2,2,0,0,0-.26,2.68Z"/><path class="cls-1" d="M603.18,223.34a1.88,1.88,0,0,0-1.37,2.29,1.8,1.8,0,0,0,2.15,1.29,1.83,1.83,0,0,0-.78-3.58Z"/><path class="cls-6" d="M605.25,228.83a1.93,1.93,0,0,0-1.42,2.24,1.87,1.87,0,0,0,2.26,1.26,2,2,0,0,0,1.48-2.26A1.9,1.9,0,0,0,605.25,228.83Zm8.3,51a1.9,1.9,0,0,0-1.78,1.94,1.94,1.94,0,0,0,2.09,1.7,1.88,1.88,0,0,0,1.77-2A1.94,1.94,0,0,0,613.55,279.83Z"/><path class="cls-1" d="M613,273.9a1.94,1.94,0,0,0-1.8,2,1.9,1.9,0,0,0,2.07,1.64,2,2,0,0,0,1.8-2v0a1.85,1.85,0,0,0-2.07-1.59ZM342.3,11.56a2,2,0,0,0,2-1.9,1.13,1.13,0,0,0,0-.26,1.91,1.91,0,0,0-3.82.16A1.94,1.94,0,0,0,342.3,11.56Zm8.36.26a1.87,1.87,0,0,0,2-1.75v0A2,2,0,0,0,350.86,8a1.89,1.89,0,0,0-2,1.8v.05A2,2,0,0,0,350.66,11.82Zm29.26,3a1.88,1.88,0,0,0,2.16-1.56A2,2,0,0,0,380.5,11a1.94,1.94,0,0,0-.58,3.83Zm29.6,6.28h.05a1.88,1.88,0,0,0,2.28-1.38h0a2,2,0,0,0-1.33-2.4h-.07a1.89,1.89,0,0,0-2.27,1.39A2,2,0,0,0,409.52,21.1Z"/><path class="cls-10" d="M416.46,23.05a2,2,0,0,0,2.38-1.38,1.89,1.89,0,0,0-1.3-2.35,2,2,0,0,0-2.41,1.33A1.91,1.91,0,0,0,416.42,23Z"/><path class="cls-1" d="M481.18,50.93a2,2,0,0,0,2.65-.74l.05-.1a2,2,0,1,0-2.7.84Zm34.15,23.41a2,2,0,0,0,2.72-.36,1.89,1.89,0,0,0-.29-2.67h0a1.94,1.94,0,0,0-2.42,3Zm48.1,48.45a1.94,1.94,0,1,0,.26-2.5A1.93,1.93,0,0,0,563.43,122.79Zm4.17,5.31a1.87,1.87,0,0,0,2.62.35l.14-.1a1.95,1.95,0,1,0-2.8-.29ZM602,187.88a2,2,0,0,0,2.57,1,1.9,1.9,0,0,0,1-2.5h0a2,2,0,0,0-2.57-1,1.9,1.9,0,0,0-1,2.5Zm2.46,6.22V194a1.94,1.94,0,0,0,3.61-1.44,1.91,1.91,0,0,0-2.49-1A2,2,0,0,0,604.46,194.1Z"/><path class="cls-3" d="M607,200.4a2,2,0,0,0,2.5,1.09h.07a1.86,1.86,0,0,0,1-2.42,2,2,0,0,0-2.52-1.09A1.85,1.85,0,0,0,607,200.4Z"/><path class="cls-1" d="M609.17,206.75a1.94,1.94,0,0,0,3.67-1.27,1.9,1.9,0,0,0-2.44-1.13A2,2,0,0,0,609.17,206.75Zm15.58,58.95a1.9,1.9,0,0,0-1.69,2.11h0a2,2,0,0,0,2.17,1.66h.06a1.86,1.86,0,0,0,1.63-2.08v0A2,2,0,0,0,624.75,265.7Zm-33.5-104.43a1.88,1.88,0,0,0,.72-2.56v0a2,2,0,0,0-2.65-.7,1.92,1.92,0,0,0-.74,2.6A2,2,0,0,0,591.25,161.27ZM616,380.57a10.67,10.67,0,0,1-7.77-8.61,10.16,10.16,0,0,1,.06-4v-.06l-.14.6a1.77,1.77,0,0,1-1.68,1.37,2,2,0,0,1-2.11-1.83,14.21,14.21,0,0,0,1.87,9.41,15.21,15.21,0,0,0,7,6.12l.44-1.54a1.91,1.91,0,0,1,1.77-1.36,2,2,0,0,1,2.07,1.81v.1A1.89,1.89,0,0,0,616,380.57ZM594.64,235.5a2.13,2.13,0,0,0-.14-.35,1.84,1.84,0,0,0-2.51-.75h0a2,2,0,0,0-1.2,2.11c1.67,7.23,9.79,11.57,18,10.23a2.23,2.23,0,0,0,.82-.32,1.9,1.9,0,0,0,.52-2.65l0,0a2,2,0,0,0-2-.75c-6.1,1.27-12.26-2.1-13.47-7.5ZM472,543.92a1.92,1.92,0,0,1,.23-1,1.74,1.74,0,0,1,.52-.56l-.18.06a14.45,14.45,0,0,0-6.41,8.42,15.14,15.14,0,0,0,.35,9.27l1.28-.66a1.92,1.92,0,0,1,2.23.36,2,2,0,0,1,.11,2.66,1.93,1.93,0,0,0,.51-2.36,10.9,10.9,0,0,1,3.87-14.32l.1-.1a1.63,1.63,0,0,1-.56.16,2,2,0,0,1-2.05-1.94Z"/><path class="cls-1" d="M627,299.92a1.91,1.91,0,0,0-1.9,1.9l-.36,14.26a1.91,1.91,0,0,0,1.78,2,1.94,1.94,0,0,0,2.06-1.81l.42-14.44A2,2,0,0,0,627,299.92Zm-30.7,38.95a1.85,1.85,0,0,0,1.43,1.67,2,2,0,0,0,2.15-.67,1.48,1.48,0,0,0,.25-.67l1.24-9.72.77-9.77a1.58,1.58,0,0,0-.18-.85,1.82,1.82,0,0,0-1.32-.93,2,2,0,0,0-2.12.84,1.48,1.48,0,0,0-.22.68l-.77,9.74Zm4-27a2,2,0,0,0,2.08-.9,1.73,1.73,0,0,0,.18-.7l.2-9.8-.25-9.8a1.43,1.43,0,0,0-.26-.83,1.89,1.89,0,0,0-1.41-.79,2,2,0,0,0-2,1.07,1.43,1.43,0,0,0-.15.7l.26,9.78-.2,9.78a1.88,1.88,0,0,0,1.56,1.5ZM587,338.63l.84-6.7a1.36,1.36,0,0,0-.13-.82,2,2,0,0,0-1.28-1,2.05,2.05,0,0,0-2.16.69,1.29,1.29,0,0,0-.25.63l-.83,6.6a1.47,1.47,0,0,0,.14.85,2.13,2.13,0,0,0,3.42.39A1.48,1.48,0,0,0,587,338.63Zm23.73-6.7-1.38,10.94a1.8,1.8,0,0,0,.12.86,1.92,1.92,0,0,0,1.22,1.09,2,2,0,0,0,2.21-.7,1.64,1.64,0,0,0,.25-.71l1.4-11.08a1.54,1.54,0,0,0-.12-.9,1.9,1.9,0,0,0-1.27-1,2,2,0,0,0-2.17.8A1.75,1.75,0,0,0,610.73,331.93Zm1.35-16.5-.5,6.9a2.41,2.41,0,0,0,.07.37,2,2,0,0,0,2.38,1.53h0a1.82,1.82,0,0,0,1.46-1.64l.52-7,.35-14-.18-7a1.81,1.81,0,0,0-.12-.56,1.92,1.92,0,0,0-2.48-1.11h0a1.81,1.81,0,0,0-1.31,1.74l.17,6.92Zm-23.48,9.9.83-11,.27-11a1.58,1.58,0,0,0-.12-.52,1.85,1.85,0,0,0-2.37-1.07h0a1.73,1.73,0,0,0-1.37,1.55l-.27,10.88-.8,10.84v.26a2,2,0,0,0,2.39,1.51,1.61,1.61,0,0,0,1.47-1.46Zm-1.8-38a1.65,1.65,0,0,0-1.22,1.62l.15,7.3a1.4,1.4,0,0,0,.1.39,2,2,0,0,0,2.5,1.14h0a1.7,1.7,0,0,0,1.29-1.6l-.18-7.4a2.13,2.13,0,0,0-.13-.43,1.91,1.91,0,0,0-2.51-1ZM568.93,402.14a1.87,1.87,0,0,0-1.79-1.95h0a1.76,1.76,0,0,0-1.87.91L561,410.5v.06a1.8,1.8,0,0,0-.1.46,1.87,1.87,0,0,0,1.69,2,1.73,1.73,0,0,0,1.91-.82l4.28-9.5a1.67,1.67,0,0,0,.15-.54Zm8.27-21.88a1.89,1.89,0,0,0-2-1.79h0a1.67,1.67,0,0,0-1.76,1.07c-1.6,4.29-2.84,8.68-4.63,12.9h.07a2.9,2.9,0,0,0-.06.41,1.92,1.92,0,0,0,1.86,2h0a1.67,1.67,0,0,0,1.81-1c1.81-4.28,3.2-8.7,4.7-13.1a1.93,1.93,0,0,0,0-.48ZM443.57,570.66a1.84,1.84,0,0,0-.52.1c-4.48,1.59-8.81,3.52-13.34,5a1.86,1.86,0,0,0-1.27,1.84,2,2,0,0,0,2.08,1.92h0a1.94,1.94,0,0,0,.48,0c4.62-1.36,9-3.27,13.5-5a1.9,1.9,0,0,0,1.19-1.9,2,2,0,0,0-2.07-1.93Z"/><path class="cls-2" d="M413.34,581h-.44l-5.56,1.58-5.62,1.3c-3.77.8-7.49,1.82-11.3,2.45a1.85,1.85,0,0,0-1.53,1.62,2,2,0,0,0,1.77,2.21h0a2.09,2.09,0,0,0,.5,0c3.88-.53,7.63-1.66,11.44-2.48l5.7-1.32,5.63-1.6a1.88,1.88,0,0,0,1.4-1.77,2,2,0,0,0-2-2h0Z"/><path class="cls-1" d="M445.2,556.27a2.05,2.05,0,0,0-.48.1c-4.2,1.87-8.56,3.42-12.83,5.16s-8.72,3-13.07,4.5a1.95,1.95,0,0,0,1.18,3.7l13.26-4.57c4.38-1.65,8.79-3.21,13-5.23a1.81,1.81,0,0,0,1-1.93,1.91,1.91,0,0,0-2.06-1.74Zm-26-14.35h.05a1.48,1.48,0,0,0,.42,0c3.5-1.08,6.85-2.6,10.28-3.9s6.81-2.72,10.12-4.33a1.64,1.64,0,0,0,.88-1.85,1.94,1.94,0,0,0-2.09-1.76h0a1.7,1.7,0,0,0-.39,0c-3.3,1.5-6.57,3-10,4.27s-6.67,2.77-10.13,3.83a1.66,1.66,0,0,0-1,1.75,1.92,1.92,0,0,0,1.85,2Zm-13.8,4.3h.4l7.07-2.12a1.7,1.7,0,0,0,1.07-1.78,1.91,1.91,0,0,0-1.85-1.93h-.42c-2.27.85-4.65,1.32-6.95,2.08a1.68,1.68,0,0,0-1.13,1.71,1.92,1.92,0,0,0,1.79,2Zm110.2-16a1.88,1.88,0,0,0-2.23.07l-5.63,4.36-5.8,4.13a2.28,2.28,0,0,0-.38.38,2,2,0,0,0,.37,2.8,1.85,1.85,0,0,0,2.25,0l5.88-4.18,5.7-4.42a1.81,1.81,0,0,0,.41-.46,1.94,1.94,0,0,0-.56-2.67Zm49.06-49.32a1.9,1.9,0,0,0-2.16.6L557.2,488a2,2,0,0,0,3,2.51c1.9-2.1,3.6-4.39,5.36-6.63a1.18,1.18,0,0,0,.21-.4,2,2,0,0,0-1.11-2.6Zm-18.84,21.76a1.87,1.87,0,0,0-2.2.38l-4,4.16-4.2,4c-2.8,2.66-5.56,5.31-8.5,7.84a1.91,1.91,0,0,0-.31.38,1.94,1.94,0,0,0,.61,2.66h0a1.91,1.91,0,0,0,2.25-.19c3-2.54,5.78-5.24,8.6-7.94l4.24-4c1.4-1.36,2.71-2.79,4.06-4.2a2,2,0,0,0,.35-.51,2,2,0,0,0-.94-2.58Zm-78.6,59.23a15.45,15.45,0,0,1-.73-1.73l-7.07,3.54-8.52,3.84a2.36,2.36,0,0,0-.42.28,2,2,0,0,0-.21,2.82,1.83,1.83,0,0,0,2.18.47l8.64-3.9c2.87-1.25,5.67-2.78,8.47-4.25a2.18,2.18,0,0,0,.49-.37l.06-.07-.32.2a1.91,1.91,0,0,1-2.57-.82Z"/><path class="cls-1" d="M615.24,384.29l-.2-.06a12.74,12.74,0,0,1-1.78-.67l-2,6.47v.06a1.94,1.94,0,0,0,3.7,1.19l2.44-8.16a2.48,2.48,0,0,0,.06-.54,1.13,1.13,0,0,1,0,.26A1.89,1.89,0,0,1,615.24,384.29Z"/><path class="cls-1" d="M607,406.28a1.89,1.89,0,0,0-1.9,1.19c-2.78,7.19-6,14.18-9.24,21.17a2.21,2.21,0,0,0-.17.57,1.91,1.91,0,0,0,1.65,2.14h0a2,2,0,0,0,2-1c3.3-7.08,6.65-14.15,9.37-21.46a2.15,2.15,0,0,0,.13-.61A2,2,0,0,0,607,406.28Z"/><path class="cls-2" d="M625,335.4a2,2,0,0,0-2.17,1.66c-1.33,12.52-4,24.8-6.9,37a1.88,1.88,0,0,0,1.37,2.26,2,2,0,0,0,2.4-1.35c2.93-12.38,5.76-24.82,7-37.5A1.9,1.9,0,0,0,625,335.4Z"/><path class="cls-1" d="M478.84,527.4a1.56,1.56,0,0,0,.57-.65,2,2,0,0,0-1.94-2.83,1.36,1.36,0,0,0-.67.24c-5.31,3.64-11,6.62-16.6,9.84a1.35,1.35,0,0,0-.65.6,1.89,1.89,0,0,0-.1,1.61,2,2,0,0,0,1.84,1.37,1.43,1.43,0,0,0,.7-.18C467.7,534.22,473.36,531,478.84,527.4Zm4.89-3.33a1.36,1.36,0,0,0,.67-.24l9.34-6.63a1.63,1.63,0,0,0,.55-.67,2,2,0,0,0-.14-1.61,2.1,2.1,0,0,0-2-1.1,1.74,1.74,0,0,0-.66.27l-9.2,6.54a1.55,1.55,0,0,0-.62.65,1.89,1.89,0,0,0,.06,1.61A2,2,0,0,0,483.73,524.07Zm14.79-10.74a1.44,1.44,0,0,0,.65-.3c3-2.43,6-4.73,8.9-7.2a1.45,1.45,0,0,0,.48-.73,2.15,2.15,0,0,0,0-.8,2.09,2.09,0,0,0-2.36-1.74,1.49,1.49,0,0,0-.62.33c-2.8,2.5-5.83,4.76-8.77,7.1a1.67,1.67,0,0,0-.51.72,2,2,0,0,0,1.24,2.54A2,2,0,0,0,498.52,513.33Zm-42.24,12.35a1.25,1.25,0,0,0,.58-.6,2.07,2.07,0,0,0,.19-.74,2.12,2.12,0,0,0-1.94-2.26,1.47,1.47,0,0,0-.65.18l-5.92,3a1.41,1.41,0,0,0-.59.64,2.28,2.28,0,0,0-.18.63,2.1,2.1,0,0,0,1.84,2.35h0a1.3,1.3,0,0,0,.67-.16Zm28,14.23a1.67,1.67,0,0,0,.61-.68,1.92,1.92,0,0,0,.18-1,2,2,0,0,0-2.13-1.86,1.48,1.48,0,0,0-.7.25c-3,2-6.27,3.82-9.45,5.66l-.1.1a2,2,0,0,1,2.43.93,2.86,2.86,0,0,1,.15.41,1.83,1.83,0,0,1-.72,2l.16-.07Z"/><path class="cls-2" d="M491.1,535.5c4-2.5,7.74-5.25,11.47-8.07s7.37-5.77,11.06-8.64a1.94,1.94,0,0,0,.16-2.68,1.91,1.91,0,0,0-2.63-.32c-3.65,2.82-7.1,5.84-10.9,8.52l-11.32,8a1.84,1.84,0,0,0-.45,2.56,1.9,1.9,0,0,0,2.6.64Z"/><path class="cls-1" d="M496.22,498.8c2-1.5,3.74-3.2,5.61-4.8a1.94,1.94,0,0,0,.31-.44,1.89,1.89,0,0,0-.81-2.55h0a1.65,1.65,0,0,0-2.06,0l-5.52,4.73a1.67,1.67,0,0,0-.34.45,1.88,1.88,0,0,0,.7,2.55h0A1.68,1.68,0,0,0,496.22,498.8ZM530.46,479a1.9,1.9,0,0,0,1,2.52h0a1.72,1.72,0,0,0,2.1-.32A235.51,235.51,0,0,0,563,442.11a1.63,1.63,0,0,0,.19-.52,1.88,1.88,0,0,0-1.46-2.21h0a1.79,1.79,0,0,0-2,.68,261.82,261.82,0,0,1-29,38.56A2.06,2.06,0,0,0,530.46,479Z"/><path class="cls-2" d="M446.66,540.7C432,547.22,416.94,553,401.37,557.06a1.88,1.88,0,0,0-.45.22,1.9,1.9,0,0,0-.51,2.64h0a1.71,1.71,0,0,0,1.93.9,247,247,0,0,0,46-16.59,2,2,0,0,0,.43-.33,1.89,1.89,0,0,0,0-2.66h0A1.78,1.78,0,0,0,446.66,540.7Z"/><path class="cls-1" d="M594.57,367.43a2,2,0,0,0-2.13-1.86,1.68,1.68,0,0,0-1.65,1.27,260.88,260.88,0,0,1-16.18,45.36,2,2,0,0,0-.06.34,2,2,0,0,0,1.73,2.24h0a1.71,1.71,0,0,0,1.88-.95,261.33,261.33,0,0,0,16.41-46A2.67,2.67,0,0,0,594.57,367.43ZM545.8,437.37a1.71,1.71,0,0,0-.13.38,2,2,0,0,0,1.43,2.34,1.64,1.64,0,0,0,2-.6c1.91-2.92,3.85-5.82,5.5-8.9a2.25,2.25,0,0,0,.13-.42,1.93,1.93,0,0,0-1.56-2.25,1.68,1.68,0,0,0-1.92.68c-1.63,3-3.6,5.87-5.43,8.78Zm30,4.5a1.82,1.82,0,0,0-2,.83q-7,11.74-15.06,22.8a2.32,2.32,0,0,0-.18.39,2,2,0,0,0,1.24,2.54,1.78,1.78,0,0,0,2.08-.63c5.4-7.49,10.57-15.13,15.28-23.13a1.9,1.9,0,0,0,.14-.4,2,2,0,0,0-1.5-2.4Zm-32.06,42.25c-3.9,4.76-8.35,9-12.52,13.5l-10,9.5-3.48,3v-.06A2,2,0,0,0,520.3,513l3.54-3,10.16-9.6c4.24-4.56,8.7-8.88,12.7-13.68a2,2,0,0,0-2.93-2.58Zm63.1-118.4a1.89,1.89,0,0,1,1.49,2.17c1.1-4.93,2.35-9.82,3.14-14.8a1.75,1.75,0,0,0,0-.56,1.94,1.94,0,0,0-2.2-1.61,1.76,1.76,0,0,0-1.61,1.46c-.9,5.1-2.1,10.13-3.24,15.18a1.55,1.55,0,0,0,0,.43,8.33,8.33,0,0,1,.16-1,1.86,1.86,0,0,1,2.26-1.26Z"/><path class="cls-1" d="M597.7,402.14a1.77,1.77,0,0,0,.11-.6A1.91,1.91,0,0,0,596,399.6a1.84,1.84,0,0,0-1.88,1.13l-3.37,8.57L585,421.88l-6.3,12.28a1.8,1.8,0,0,0-.19.55,1.91,1.91,0,0,0,1.6,2.19,1.87,1.87,0,0,0,2-.87l6.4-12.46,5.77-12.75Zm-57.8,50.72,5-7a2,2,0,0,0,.19-.48,1.88,1.88,0,0,0-1.39-2.25,1.72,1.72,0,0,0-2,.52l-4.93,6.93-.1.2a2,2,0,0,0,1.22,2.55,1.6,1.6,0,0,0,2-.48ZM606.43,236.4a2,2,0,0,0-1.31,2.43,1.89,1.89,0,0,0,2.3,1.31h.13a2,2,0,1,0-.29-4A2.05,2.05,0,0,0,606.43,236.4Z"/><path class="cls-4" d="M613.83,286.3a2,2,0,0,0-1.86,1.92,1.89,1.89,0,0,0,2,1.72,2,2,0,0,0,1.9-1.92,1.87,1.87,0,0,0-2-1.72Z"/><path class="cls-1" d="M600.42,281a2,2,0,0,0-2.3,1.65h0a1.88,1.88,0,0,0,2.09,1.59,1.83,1.83,0,0,0,1.79-1.87h0A2,2,0,0,0,600.42,281Zm-1.1-7.56a1.88,1.88,0,0,0-1.76,1.91,1.83,1.83,0,0,0,2.07,1.53,1.9,1.9,0,0,0,1.8-1.93v-.05A1.82,1.82,0,0,0,599.32,273.44Zm-12.53,6.32a1.66,1.66,0,1,0-.32,3.3,1.57,1.57,0,0,0,.57,0,1.88,1.88,0,0,0,.58,0,1.68,1.68,0,0,0-.83-3.26Zm-1,66a1.7,1.7,0,0,0-1.63-1.72,1.86,1.86,0,0,0-2.21,1.3,1.83,1.83,0,0,0,1.63,2,2.1,2.1,0,0,0,.5.09,1.66,1.66,0,0,0,1.71-1.63Zm-24.46,72.6a2,2,0,0,0-3.45-1.78,1.85,1.85,0,0,0,1,2.36A1.81,1.81,0,0,0,561.33,418.37Zm-5.64,6.4a1.85,1.85,0,0,0,2.53-.49,1.77,1.77,0,0,0-.89-2.34h0a1.9,1.9,0,0,0-2.53.49A1.8,1.8,0,0,0,555.69,424.77Z"/><path class="cls-3" d="M533.08,457.75a2,2,0,0,0,2.81.32,1.82,1.82,0,0,0-.51-2.5,1.86,1.86,0,0,0-2.56.1A2,2,0,0,0,533.08,457.75Z"/><path class="cls-4" d="M531.27,460.8a1.76,1.76,0,0,0-2.49.08h0a1.8,1.8,0,0,0,.43,2.47,1.67,1.67,0,0,0,2.54-2.17,1.78,1.78,0,0,0-.45-.37Z"/><path class="cls-1" d="M488.7,499.7a1.83,1.83,0,0,0-.11,2.55,1.6,1.6,0,0,0,.25.27,2,2,0,0,0,2.83-.14,2,2,0,0,0-3-2.68Z"/><path class="cls-1" d="M443.68,527.7a1.77,1.77,0,0,0-.66,2.42h0a1.85,1.85,0,0,0,.21.45,1.68,1.68,0,1,0,3-1.58,1.45,1.45,0,0,0-.19-.29A1.79,1.79,0,0,0,443.68,527.7ZM593.14,356.3a1.82,1.82,0,0,0,1.52,2.07,1.89,1.89,0,0,0,2.3-1.29V357a1.78,1.78,0,0,0-1.52-2A1.93,1.93,0,0,0,593.14,356.3Zm1.36-7.17a1.88,1.88,0,0,0,1.61,2.05,1.85,1.85,0,0,0,2.22-1.36,2,2,0,0,0-3.83-.69Z"/><path class="cls-5" d="M568.27,429.06a1.8,1.8,0,0,0,2.49-.59l0,0a1.9,1.9,0,0,0-.92-2.47,1.82,1.82,0,0,0-2.48.64A1.87,1.87,0,0,0,568.27,429.06Z"/><path class="cls-3" d="M574.23,421.8a1.83,1.83,0,0,0-1-2.38,1.9,1.9,0,0,0-2.53.67,2,2,0,0,0,.67,2,2,2,0,0,0,2.82-.24Z"/><path class="cls-6" d="M563.74,433a1.75,1.75,0,1,0,2.55-.54A1.87,1.87,0,0,0,563.74,433Z"/><path class="cls-5" d="M582.1,361.26a1.84,1.84,0,0,0-1.52-2.06,1.8,1.8,0,0,0-2.26,1.14,1.86,1.86,0,0,0,1.53,2.07A1.79,1.79,0,0,0,582.1,361.26Z"/><path class="cls-3" d="M583.7,354.4a1.78,1.78,0,0,0-1.51-2h0a1.87,1.87,0,0,0-2.28,1.2,1.8,1.8,0,0,0,1.54,2A1.87,1.87,0,0,0,583.7,354.4Z"/><path class="cls-6" d="M580.33,368.1A1.79,1.79,0,0,0,578.9,366h0a1.9,1.9,0,0,0-2.33,1.08,1.8,1.8,0,0,0,1.43,2.09A1.85,1.85,0,0,0,580.33,368.1Z"/><path class="cls-1" d="M526.68,486.2a1.76,1.76,0,0,0,2.09-2.82,1.9,1.9,0,0,0-2.61-.09,1.86,1.86,0,0,0,.21,2.6A1.52,1.52,0,0,0,526.68,486.2Zm-8.18,8.2a2,2,0,0,0-2.73-.74h0a1.91,1.91,0,0,0,.08,2.63,1.84,1.84,0,0,0,2.58.21A2,2,0,0,0,518.5,494.4Zm-5.17,6.8a1.81,1.81,0,0,0,0-2.55h0a1.92,1.92,0,0,0-2.61-.32.08.08,0,0,0-.09,0,1.8,1.8,0,0,0,.09,2.53h0A1.89,1.89,0,0,0,513.33,501.2Zm-57.85,39.44a2,2,0,0,0-1.75-3.47,1.89,1.89,0,0,0-.67,2.54,1.84,1.84,0,0,0,2.42.93ZM598.3,395a1.84,1.84,0,0,0,2.38-1.08v0a2,2,0,0,0-3.67-1.28A1.92,1.92,0,0,0,598.3,395Zm4.9-8.5a1.85,1.85,0,0,0-1.31-2.27h0a2,2,0,0,0-2.42,1.15,1.9,1.9,0,0,0,1.27,2.32A2,2,0,0,0,603.2,386.5Zm-51.33,91a1.85,1.85,0,0,0-2.61.21h0a1.88,1.88,0,0,0,.3,2.62,2,2,0,0,0,2.69-.15A2,2,0,0,0,551.87,477.5Z"/><path class="cls-1" d="M554.27,473.74a2,2,0,0,0,2.81.31,1.86,1.86,0,0,0-.43-2.6h0a1.94,1.94,0,0,0-2.66.24A2,2,0,0,0,554.27,473.74Zm-96.2,78.68a1.82,1.82,0,0,0,2.43.86l0,0a1.95,1.95,0,0,0-1.73-3.48,1.94,1.94,0,0,0-.74,2.62ZM452,553a1.91,1.91,0,0,0-.81,2.5,2,2,0,0,0,2.49,1,1.87,1.87,0,0,0,.79-2.49A2,2,0,0,0,452,553Zm-47.3,21.12a1.88,1.88,0,0,0,1.26-2.34,1.82,1.82,0,1,0-3.6.56c0,.1.05.21.08.31A2,2,0,0,0,404.71,574.12Zm-9.62.32a1.95,1.95,0,1,0,1.34-2.43h0a1.9,1.9,0,0,0-1.32,2.3Zm16.92-2.6a1.83,1.83,0,0,0,1.4-2.14v0a1.87,1.87,0,0,0-2.28-1.37h0a1.83,1.83,0,0,0,.9,3.55ZM621.33,255.1a2,2,0,0,0,2.24,1.56h.08a1.87,1.87,0,0,0,1.52-2.18,2,2,0,0,0-2.26-1.57,1.89,1.89,0,0,0-1.58,2.17Zm2.87,6.14a2,2,0,0,0-1.69,2.12,1.95,1.95,0,0,0,3.86-.51,1.92,1.92,0,0,0-2.17-1.61Z"/><path class="cls-3" d="M626.73,290.72a1.94,1.94,0,0,0-1.88,2h0a1.91,1.91,0,1,0,1.93-2Z"/><path class="cls-6" d="M626.28,321.27a1.91,1.91,0,1,0-.29,3.81,1.91,1.91,0,0,0,.29-3.81Z"/><path class="cls-4" d="M625.7,328.5a1.88,1.88,0,0,0-2.05,1.72h0a2,2,0,0,0,1.73,2.09h.08a1.86,1.86,0,0,0,2-1.72A2,2,0,0,0,625.7,328.5Z"/><path class="cls-1" d="M610.67,397.78a1.9,1.9,0,0,0-2.42,1.17,2,2,0,0,0,1.2,2.49h.08a1.87,1.87,0,0,0,2.36-1.2A2,2,0,0,0,610.67,397.78Zm-16.5,38.28a1.9,1.9,0,0,0-2.59.79,2,2,0,0,0,.91,2.64,1.88,1.88,0,0,0,2.53-.82h0A2,2,0,0,0,594.17,436.06Z"/><path class="cls-3" d="M552.8,493a2,2,0,0,0,.22,2.74,1.91,1.91,0,0,0,2.7-.17h0A2,2,0,0,0,552.8,493Z"/><path class="cls-1" d="M548.34,498a1.89,1.89,0,0,0,.13,2.67h0a2,2,0,0,0,2.75-.06v-.05a1.87,1.87,0,0,0-.17-2.64h0A2,2,0,0,0,548.34,498ZM495.9,542.9a1.92,1.92,0,0,0-.5,2.64,2,2,0,0,0,2.69.59h.06a1.88,1.88,0,0,0,.45-2.62A2,2,0,0,0,495.9,542.9Z"/><path class="cls-3" d="M490.26,546.5a2,2,0,0,0-.55,2.69,1.92,1.92,0,0,0,2.64.59,1.95,1.95,0,0,0-2.09-3.28Z"/><path class="cls-1" d="M307.57,590.32c-3.58-.24-7.12-.82-10.7-1.24a1.93,1.93,0,0,0-.48,0,2,2,0,0,0-1.66,2.29,1.86,1.86,0,0,0,1.62,1.54c3.62.42,7.21.91,10.85,1.27a1.93,1.93,0,0,0,.48,0,2,2,0,0,0,1.53-2.38h0a1.88,1.88,0,0,0-1.65-1.48Z"/><path class="cls-2" d="M249,555.15c6.14,2.24,12.49,3.77,18.73,5.67a1.44,1.44,0,0,0,.87,0,2,2,0,0,0,.69-.45,2.06,2.06,0,0,0,0-2.91,1.81,1.81,0,0,0-.63-.33c-6.25-1.79-12.55-3.42-18.67-5.66a1.87,1.87,0,0,0-1.9,1.08,2,2,0,0,0,.26,2.25A1.47,1.47,0,0,0,249,555.15Z"/><path class="cls-1" d="M277,563l9.59,1.92,9.65,1.62a1.45,1.45,0,0,0,.87-.13,1.79,1.79,0,0,0,.64-.52,2.08,2.08,0,0,0-.28-2.91,1.59,1.59,0,0,0-.67-.24c-3.23-.37-6.4-1.1-9.62-1.62l-4.8-.85-4.76-1.08a1.84,1.84,0,0,0-1.77,1.26,2,2,0,0,0,.5,2.23A1.72,1.72,0,0,0,277,563Z"/><path class="cls-2" d="M252.5,538.7a2.49,2.49,0,0,0-.58.31,2.1,2.1,0,0,0-.41,3l0,0a1.35,1.35,0,0,0,.57.43l6.38,2.18a1.43,1.43,0,0,0,.82,0,2.09,2.09,0,0,0,.59-.35,2.14,2.14,0,0,0,.32-3,1.65,1.65,0,0,0-.57-.37l-6.28-2.13A1.48,1.48,0,0,0,252.5,538.7Z"/><path class="cls-1" d="M254.17,567c-3.53-1-7-2.39-10.45-3.44a1.68,1.68,0,0,0-.89,0,2.07,2.07,0,0,0-1.31,1,1.9,1.9,0,0,0,.29,2.26,1.63,1.63,0,0,0,.64.39c3.54,1.15,7,2.52,10.6,3.5a1.76,1.76,0,0,0,.91,0,2,2,0,0,0,1.37-2.47,1.92,1.92,0,0,0-.5-.86A1.51,1.51,0,0,0,254.17,567Zm36.3,8.38c-4.52-.87-9.15-1.44-13.6-2.54s-9-2.11-13.44-3.23a2.25,2.25,0,0,0-.58-.07,1.91,1.91,0,0,0-1.76,2.05h0a1.84,1.84,0,0,0,1.33,1.75c4.49,1.29,9.1,2.22,13.64,3.27s9.18,1.8,13.78,2.58a2.08,2.08,0,0,0,.61,0,1.85,1.85,0,0,0,1.48-2.2h0a1.85,1.85,0,0,0-1.47-1.62Zm-4.32-23.86a1.41,1.41,0,0,0,.41,0,1.94,1.94,0,0,0,1.59-2.22,1.62,1.62,0,0,0-1.28-1.57c-3.58-.55-7-1.56-10.58-2.32s-7-1.76-10.48-2.77h-.35a2,2,0,0,0-1.83,2,1.65,1.65,0,0,0,1.14,1.71c3.5,1.09,7.06,2,10.64,2.8A96.86,96.86,0,0,0,286.15,551.5Zm14.77,2.37a1.91,1.91,0,0,0,1.45-2.28h0a1.65,1.65,0,0,0-1.37-1.51L293.8,549a2,2,0,0,0-.49,0,1.89,1.89,0,0,0-1.5,2.22h0a1.69,1.69,0,0,0,1.33,1.59,62.06,62.06,0,0,0,7.3,1.08,1.47,1.47,0,0,0,.47,0ZM360.7,568.1l8.3-1a1.62,1.62,0,0,0,.48-.17,1.94,1.94,0,0,0,.84-2.58,1.76,1.76,0,0,0-1.8-1.11l-8.18,1-8.32.62a1.85,1.85,0,0,1,1.5,1.46,1.92,1.92,0,0,1-1.24,2.36Z"/><path class="cls-1" d="M320.45,569l16.7.35a1.55,1.55,0,0,0,.36-.08,2,2,0,0,0,1.27-2.53h0a1.7,1.7,0,0,0-1.65-1.28c-5.48,0-11-.33-16.48-.34a1.82,1.82,0,0,0-.52.08,1.89,1.89,0,0,0-1.27,2.35,1.78,1.78,0,0,0,1.58,1.45Zm52.43-15.47c3.44-.5,6.85-1.2,10.3-1.8a2.28,2.28,0,0,0,.45-.2,1.86,1.86,0,0,0,.62-2.57v0a1.72,1.72,0,0,0-1.79-1l-10.13,1.76a1.33,1.33,0,0,0-.43.17,1.87,1.87,0,0,0-.75,2.54h0a1.69,1.69,0,0,0,1.74,1.1Z"/><path class="cls-2" d="M389.77,577.36a1.9,1.9,0,0,0,.66-2.59,1.87,1.87,0,0,0-2-1c-4.42.78-8.95,1.73-13.43,2.28s-9,1.26-13.58,1.63a1.9,1.9,0,0,0-.46.15,1.93,1.93,0,0,0-1,2.56,1.91,1.91,0,0,0,1.87,1.15c4.61-.31,9.17-1.08,13.76-1.65s9.13-1.47,13.66-2.32A1.83,1.83,0,0,0,389.77,577.36Z"/><path class="cls-1" d="M338.25,580.67a13.57,13.57,0,0,1,.09-1.8l-2.86.08c-1.54,0-3.07-.1-4.6-.1l-9.2-.23-9.2-.65-9.17-.87a2.62,2.62,0,0,0-.56,0,1.94,1.94,0,0,0-1.44,2.29,1.91,1.91,0,0,0,1.57,1.54c3.08.46,6.2.66,9.3.87l9.3.67,14,.33,4.67-.13a1.75,1.75,0,0,0,.55-.12,1.88,1.88,0,0,0,.69-.45,1.9,1.9,0,0,1-2.69-.23,2,2,0,0,1-.45-1.24Z"/><path class="cls-2" d="M352.5,555.62c4.16-.23,8.33-.5,12.46-1.14a1.74,1.74,0,0,0,.38-.14,2,2,0,0,0,.88-2.6,1.65,1.65,0,0,0-1.7-1.12c-4.07.63-8.2.76-12.28,1.12a1.43,1.43,0,0,0-.27.09,2,2,0,0,0-1.13,2.59A1.63,1.63,0,0,0,352.5,555.62Z"/><path class="cls-1" d="M343.92,555.94a1.87,1.87,0,0,0,1-2.47,1.7,1.7,0,0,0-1.61-1.29c-3.32,0-6.66.28-10,.18l-10-.25a1.27,1.27,0,0,0-.28.06,2,2,0,0,0-1.41,2.45,1.6,1.6,0,0,0,1.51,1.37l10.16.24c3.4.1,6.78-.18,10.17-.18A1.82,1.82,0,0,0,343.92,555.94Zm-260-225.72a1.87,1.87,0,0,1-2.12-1.35l.57,4.4a1.7,1.7,0,0,0,1.51,1.4,2,2,0,0,0,2.28-1.52,1.09,1.09,0,0,0,0-.36l-.56-4.35a1.79,1.79,0,0,1-1.68,1.79Z"/><path class="cls-1" d="M83.4,326.93h.06a1.87,1.87,0,0,1,2.1,1.38l-.26-2.75a1.62,1.62,0,0,0-1.44-1.44,2,2,0,0,0-2.39,1.51v.3l.26,2.75A1.78,1.78,0,0,1,83.4,326.93Z"/><path class="cls-1" d="M74,428.26l-3-6.46a2,2,0,0,0-2.69-.86,2,2,0,0,0-.39.26,1.88,1.88,0,0,0-.46,2.21l3,6.56,3.33,6.42a2.28,2.28,0,0,0,.38.5,1.94,1.94,0,0,0,2.73-.07,1.9,1.9,0,0,0,.35-2.21Zm36.7,57.24a1.85,1.85,0,0,0-.47-.41,1.89,1.89,0,0,0-2.6.6h0a2,2,0,0,0,.1,2.28l5.55,6.46a1.72,1.72,0,0,0,.49.4,2,2,0,0,0,2.63-.72,1.9,1.9,0,0,0-.19-2.23l-5.5-6.4ZM91.9,459.77c-2-3.28-4.19-6.47-6.14-9.8a1.53,1.53,0,0,0-.35-.41,1.93,1.93,0,0,0-3,2.41c1.93,3.4,4.17,6.58,6.2,9.9s4.31,6.51,6.6,9.67a2,2,0,0,0,.43.43,1.93,1.93,0,0,0,2.71-2.67c-2.19-3.14-4.44-6.27-6.47-9.54Zm-37.53-76.2a1.8,1.8,0,0,1,.38-.16,14.21,14.21,0,0,1,1.83-.4l-2.16-7.6-2.17-9.1a2.39,2.39,0,0,0-.18-.44,2,2,0,0,0-2.73-.75h0a1.86,1.86,0,0,0-.88,2.06l2.2,9.23,2.6,9.1a1.93,1.93,0,0,0,.27.56,2,2,0,0,1,.85-2.5Z"/><path class="cls-1" d="M202.9,564.05a1.91,1.91,0,0,1-.84-2.56l0,0a14.12,14.12,0,0,1,.94-1.59l-6-3.1a1.74,1.74,0,0,0-.58-.2,2,2,0,0,0-1.28,3.62l7.6,3.88a1.92,1.92,0,0,0,1.54.09A1.84,1.84,0,0,1,202.9,564.05Z"/><path class="cls-1" d="M181,547.38c-3.22-2.1-6.53-4.1-9.67-6.32l-9.42-6.7a1.72,1.72,0,0,0-.52-.27,2,2,0,0,0-2.46,1.22,1.87,1.87,0,0,0,.65,2.16l9.54,6.8c3.2,2.25,6.53,4.29,9.8,6.4a1.94,1.94,0,0,0,2.07-3.29Z"/><path class="cls-2" d="M246.87,578c-5.9-2.1-11.93-3.92-17.73-6.34-2.9-1.21-5.88-2.22-8.72-3.54l-8.64-3.9a2,2,0,0,0-2.63,1v.08a1.88,1.88,0,0,0,1,2.46l8.7,3.94c2.84,1.34,5.9,2.38,8.84,3.58,5.9,2.42,12,4.37,18,6.43h.07a1.87,1.87,0,0,0,2.32-1.26A2,2,0,0,0,246.87,578Z"/><path class="cls-1" d="M82.92,392.14c1,3.12,2.33,6.08,3.52,9.13A1.57,1.57,0,0,0,87,402a1.91,1.91,0,0,0,1.61.25,2,2,0,0,0,1.55-1.71,1.39,1.39,0,0,0-.1-.7l-3.47-9-3.1-9.13A1.58,1.58,0,0,0,83,381a2.07,2.07,0,0,0-1.6-.38,2,2,0,0,0-1.65,1.54,1.89,1.89,0,0,0,.07.71ZM93.7,417.77a1.51,1.51,0,0,0,.6.65,1.91,1.91,0,0,0,.73.21,2.07,2.07,0,0,0,2.25-1.84,1.63,1.63,0,0,0-.17-.69l-4.66-10.27a1.5,1.5,0,0,0-.56-.66,2,2,0,0,0-1.63-.22,2,2,0,0,0-1.45,1.69,1.68,1.68,0,0,0,.14.7Zm5.68,11.08,2.85,5a1.61,1.61,0,0,0,.63.61,2,2,0,0,0,2.7-.86,2,2,0,0,0,.22-1,1.49,1.49,0,0,0-.2-.68l-2.8-4.87-2.56-5a1.73,1.73,0,0,0-.59-.72,2.08,2.08,0,0,0-3,1.68,1.57,1.57,0,0,0,.17.7Zm-7-49.5a1.57,1.57,0,0,0,.48.68,2.25,2.25,0,0,0,.61.28h0a2.12,2.12,0,0,0,2.62-1.47h0a1.39,1.39,0,0,0-.06-.67c-.75-2.08-1.34-4.21-1.92-6.36a1.29,1.29,0,0,0-.45-.69,2.11,2.11,0,0,0-3.27,1.07,1.28,1.28,0,0,0,0,.7Zm-21,15.3-.36.06a1.81,1.81,0,0,1-1.79-1v.1c1.2,3.53,2.53,7,3.88,10.47a1.74,1.74,0,0,0,.54.74,2,2,0,0,0,3.15-1.4,1.41,1.41,0,0,0-.11-.73c-1.43-3.4-2.72-6.83-3.83-10.33a2,2,0,0,1-1.48,2.08Z"/><path class="cls-2" d="M91.05,437.6a1.87,1.87,0,0,0,.78-2.51c-2.18-4.06-4.37-8.12-6.37-12.28s-3.82-8.4-5.75-12.58a2,2,0,0,0-3.58,1.53c2,4.2,3.7,8.62,5.88,12.76L88.47,437A2,2,0,0,0,91.05,437.6Z"/><path class="cls-1" d="M115.36,430.3A1.88,1.88,0,0,0,118,430a1.71,1.71,0,0,0,.37-2l-3.63-6.3a2.35,2.35,0,0,0-.26-.29,1.93,1.93,0,0,0-2.74.13,1.66,1.66,0,0,0-.41,2L115,430A2.2,2.2,0,0,0,115.36,430.3Zm42.34,68.5a1.73,1.73,0,0,0-.34-2.07,285.7,285.7,0,0,1-32.54-35.6,1.69,1.69,0,0,0-.36-.3,2,2,0,0,0-2.77.55,1.71,1.71,0,0,0,0,2.1,277.54,277.54,0,0,0,33,36.12,1.94,1.94,0,0,0,3-.79Zm68,47.1a1.89,1.89,0,0,0,2-1.76,1.75,1.75,0,0,0-1-1.9A295.39,295.39,0,0,1,182,516.57a1.11,1.11,0,0,0-.39-.16,1.94,1.94,0,0,0-2.36,1.38,1.71,1.71,0,0,0,.57,2,233.35,233.35,0,0,0,45.35,26A1.93,1.93,0,0,0,225.7,545.9Zm-55.2-53.35a1.68,1.68,0,0,0-.31-2l-3.9-3.37-3.73-3.6a1.75,1.75,0,0,0-.35-.2,1.94,1.94,0,0,0-2.54,1,1.69,1.69,0,0,0,.23,2.06l3.78,3.62,4,3.42a1.44,1.44,0,0,0,.41.21,1.91,1.91,0,0,0,2.42-1.15Zm-17.87,19.67a1.8,1.8,0,0,0-.43-2.13c-3.44-3-6.68-6.2-10.06-9.26s-6.36-6.53-9.6-9.74a1.66,1.66,0,0,0-.34-.25,2,2,0,0,0-2.73.74h0a1.81,1.81,0,0,0,.23,2.16c3.17,3.36,6.36,6.7,9.72,9.88s6.69,6.39,10.2,9.4a1.86,1.86,0,0,0,.49.29,2,2,0,0,0,2.5-1.08ZM96.18,442.65a1.85,1.85,0,0,0-2.55-.59h0a1.89,1.89,0,0,0-.77,2.57A197.29,197.29,0,0,0,114,475.4a1.86,1.86,0,0,0,2.62.24l0,0A1.89,1.89,0,0,0,117,473C109.67,463.14,102.63,453.1,96.18,442.65ZM221.72,556.9a1.87,1.87,0,0,1-2.45,1l-.27-.1,6.95,3.12,7.33,2.88a1.71,1.71,0,0,0,.59.11,1.9,1.9,0,0,0,1.94-1.84v0a1.84,1.84,0,0,0-1.12-1.87l-7.23-2.85-6.46-2.9a1.91,1.91,0,0,1,.72,2.48Z"/><path class="cls-1" d="M220.38,554.15a1.8,1.8,0,0,0-.4-.1l.84.3Z"/><path class="cls-1" d="M159.7,516.5a1.53,1.53,0,0,0-.3-.19,2,2,0,0,0-2.61,1.09h0a1.76,1.76,0,0,0,.51,2.11,311.14,311.14,0,0,0,30.4,21.63,2,2,0,0,0,2-3.3A352,352,0,0,1,159.7,516.5Zm-35.1-74.8a10,10,0,0,0-1.54,1.2l5.42,7.73c2.1,3.12,4.52,6,6.84,9a2,2,0,0,0,.4.31,1.9,1.9,0,0,0,2.59-.66,1.73,1.73,0,0,0,.07-2.07c-4.23-5.16-8-10.65-11.84-16.1l-1.24-1.92a1.52,1.52,0,0,1,.28.7A2,2,0,0,1,124.6,441.7Z"/><path class="cls-1" d="M346.94,582.5a1.82,1.82,0,0,0,1.62-2,1.94,1.94,0,0,0-1.9-1.9,1.87,1.87,0,0,0-1.71,2,1.93,1.93,0,0,0,1.91,1.9Z"/><path id="e" class="cls-2" d="M296.32,580a1.94,1.94,0,0,0,2.08-1.7,1.9,1.9,0,0,0-1.55-2.15,1.93,1.93,0,0,0-2.08,1.74A1.86,1.86,0,0,0,296.32,580Z"/><path id="e-2" data-name="e" class="cls-2" d="M296.32,580a1.94,1.94,0,0,0,2.08-1.7,1.9,1.9,0,0,0-1.55-2.15,1.93,1.93,0,0,0-2.08,1.74A1.86,1.86,0,0,0,296.32,580Z"/><path class="cls-1" d="M354.36,578.1a1.94,1.94,0,0,0-1.74,2.08v.07a1.88,1.88,0,0,0,2,1.73,2,2,0,0,0-.26-3.88ZM303,565.36a1.87,1.87,0,0,0,1.5,2.15h.06a1.78,1.78,0,0,0,1.84-1.71,1.89,1.89,0,0,0-1.5-2.15A1.84,1.84,0,0,0,303,565.36Zm9.13-1a1.87,1.87,0,0,0-1.9,1.81,1.84,1.84,0,0,0,1.56,2.07h0a2,2,0,0,0,.33-3.88Z"/><path class="cls-3" d="M306.5,552.73a1.86,1.86,0,0,0,1.44,2.14,1.78,1.78,0,0,0,1.81-1.75h0a1.87,1.87,0,0,0-1.44-2.11A1.78,1.78,0,0,0,306.5,552.73Z"/><path class="cls-1" d="M315,555.42a2,2,0,0,0,.3-3.88,1.84,1.84,0,0,0-1.8,1.82A1.81,1.81,0,0,0,315,555.42ZM244.16,537.5a1.83,1.83,0,0,0,.86,2.42,1.76,1.76,0,0,0,2.18-1.21h0a1.87,1.87,0,0,0-.85-2.43A1.81,1.81,0,0,0,244.16,537.5Z"/><path class="cls-1" d="M142.2,465a1.79,1.79,0,0,0,.41-2.5h0a1.88,1.88,0,0,0-2.61,0,1.77,1.77,0,0,0-.37,2.46A1.87,1.87,0,0,0,142.2,465Zm-33.85-47.2a1.79,1.79,0,0,0,2.47.56h0a1.66,1.66,0,0,0-.95-3.18,1.69,1.69,0,0,0-.52.26A1.82,1.82,0,0,0,108.35,417.76ZM121,436a1.81,1.81,0,0,0,.76-2.42,1.89,1.89,0,0,0-2.59-.34,1.78,1.78,0,0,0-.72,2.4h0A1.85,1.85,0,0,0,121,436Zm-12.2-25.9a1.77,1.77,0,0,0-2.41-.66,1.88,1.88,0,0,0-1.08,2.35,1.85,1.85,0,0,0,2.5.63,1.76,1.76,0,0,0,1-2.29ZM91.3,368.7a1.79,1.79,0,0,0,1.43-2.09h0a1.89,1.89,0,0,0-2.35-1.12A1.79,1.79,0,0,0,89,367.62h0A1.85,1.85,0,0,0,91.3,368.7ZM231.13,546.3v.07a1.8,1.8,0,0,0,.89,2.38,1.89,1.89,0,0,0,2.36-1.16,1.8,1.8,0,0,0-.87-2.39h0A1.9,1.9,0,0,0,231.13,546.3Z"/><path class="cls-6" d="M238.45,548.7a2,2,0,0,0,.52,2.78l0,0a1.81,1.81,0,0,0,2.27-1.18,1.87,1.87,0,0,0-.89-2.45,2,2,0,0,0-1.93.84Z"/><path class="cls-6" d="M240.32,547.85h0Z"/><path class="cls-1" d="M166.57,507.24a1.8,1.8,0,0,0,.18,2.54h0a1.88,1.88,0,0,0,2.59-.44,1.83,1.83,0,0,0-.14-2.58,1.89,1.89,0,0,0-2.63.48Zm5.87,4.53a1.9,1.9,0,0,0,.19,2.63,1.81,1.81,0,0,0,2.5-.51,1.9,1.9,0,0,0-.18-2.62A1.85,1.85,0,0,0,172.44,511.77ZM161,502.34a1.85,1.85,0,0,0,0,2.61,1.82,1.82,0,0,0,2.55-.32l0,0a1.91,1.91,0,0,0,0-2.62A1.85,1.85,0,0,0,161,502.34Z"/><path class="cls-1" d="M112.06,446.2a1.75,1.75,0,0,0-1.58-3.13,2,2,0,0,0-.3.2,1.75,1.75,0,0,0,1.58,3.13A2,2,0,0,0,112.06,446.2Zm-3.74-5.82a1.85,1.85,0,0,0,.74-2.48,1.8,1.8,0,0,0-2.5-.47,1.91,1.91,0,0,0-.81,2.52A1.87,1.87,0,0,0,108.32,440.38ZM80.07,377a1.88,1.88,0,0,0,1.4-2.2A2,2,0,1,0,79.78,377Zm117,165.25a1.91,1.91,0,0,0-2.55.79,1.82,1.82,0,0,0,3.16,1.81A1.91,1.91,0,0,0,197.1,542.2Zm4.14,4.7a1.88,1.88,0,0,0,.73,2.53,1.91,1.91,0,0,0,2.54-.89,1.85,1.85,0,0,0-.71-2.52h0A2,2,0,0,0,201.24,546.9ZM119.6,479.4a1.83,1.83,0,0,0-.28,2.56l0,0a1.86,1.86,0,0,0,2.65.16l0,0a1.83,1.83,0,0,0,.26-2.57v0A2,2,0,0,0,119.6,479.4Zm5.1,5.93a1.93,1.93,0,0,0-.26,2.68,1.86,1.86,0,0,0,2.62,0,1.93,1.93,0,0,0,.26-2.68A1.9,1.9,0,0,0,124.7,485.33Zm-58-105.66a1.94,1.94,0,0,1-2.23-1.23,1.94,1.94,0,0,0,3.72-1.07A1.93,1.93,0,0,1,66.7,379.67Z"/><path class="cls-1" d="M66.7,379.67a1.82,1.82,0,1,0-.85-3.52,1.9,1.9,0,0,0-1.38,2.29h0A1.94,1.94,0,0,0,66.7,379.67Z"/><path class="cls-6" d="M64.75,372.38a1.82,1.82,0,1,0-.88-3.52,2,2,0,0,0-1.47,2.26,1.88,1.88,0,0,0,2.34,1.26Zm-8.28-51a1.88,1.88,0,0,0,1.77-2v0a2,2,0,0,0-2.09-1.69,1.85,1.85,0,0,0-1.76,1.94A1.92,1.92,0,0,0,56.47,321.35Z"/><path id="j" class="cls-4" d="M57,329.07a2,2,0,0,0,1.8-2,1.9,1.9,0,0,0-2-1.57,2,2,0,0,0-1.8,2A1.86,1.86,0,0,0,57,329.07Z"/><path class="cls-1" d="M327.7,591.44a2,2,0,0,0-2,1.91,1.91,1.91,0,1,0,3.82.17v-.08A2,2,0,0,0,327.7,591.44Zm-8.35-.24a1.87,1.87,0,0,0-2,1.75v0a2,2,0,0,0,1.8,2.09,1.93,1.93,0,0,0,2-1.86h0A2,2,0,0,0,319.35,591.2Zm-29.28-3.05a1.9,1.9,0,0,0-2.13,1.61,2,2,0,0,0,1.57,2.26,1.94,1.94,0,0,0,2.15-1.67A2,2,0,0,0,290.07,588.15Zm-29.64-6.25a1.91,1.91,0,0,0-2.32,1.36,2,2,0,0,0,1.34,2.41,1.9,1.9,0,0,0,2.3-1.37A2,2,0,0,0,260.43,581.9Z"/><path class="cls-10" d="M253.5,580a2,2,0,0,0-2.39,1.37,1.91,1.91,0,0,0,1.3,2.37h0a2,2,0,0,0,2.38-1.35A1.91,1.91,0,0,0,253.5,580Z"/><path class="cls-1" d="M188.8,552.06a2,2,0,0,0-2.65.76,1.9,1.9,0,0,0,.69,2.6h0a2,2,0,1,0,2-3.36Zm-34.13-23.4a2,2,0,0,0-2.75.4,1.88,1.88,0,0,0,.32,2.64h0a1.95,1.95,0,0,0,2.42-3.05ZM103.87,480a1.89,1.89,0,1,0,2.36,3h0a1.91,1.91,0,1,0-2.31-3.05l-.06.05Zm-1.4-5a1.95,1.95,0,0,0-3.17,2.25,1.89,1.89,0,0,0,2.65.51l.14-.1A1.93,1.93,0,0,0,102.47,475ZM68,415.14a2,2,0,0,0-2.58-1,1.89,1.89,0,0,0-1,2.5,2,2,0,0,0,2.58,1,1.9,1.9,0,0,0,1-2.5ZM65.54,409a1.91,1.91,0,1,0-1,2.44h0A2,2,0,0,0,65.54,409Z"/><path class="cls-3" d="M61.94,405a1.87,1.87,0,0,0,1.11-2.43,2,2,0,0,0-2.51-1.1h-.07a1.86,1.86,0,0,0-1.07,2.4v0a2,2,0,0,0,2.52,1.1Z"/><path class="cls-1" d="M60.83,396.26a2,2,0,0,0-3.67,1.24,1.91,1.91,0,0,0,2.44,1.13A2,2,0,0,0,60.83,396.26Zm-15.6-58.94a1.9,1.9,0,0,0,1.69-2.11h0a2,2,0,0,0-2.19-1.7,1.88,1.88,0,0,0-1.67,2.08v0A2,2,0,0,0,45.23,337.32Zm33.56,104.4a1.87,1.87,0,0,0-.72,2.56v0a2,2,0,0,0,2.65.71,1.89,1.89,0,0,0,.75-2.58v0A2,2,0,0,0,78.79,441.72Z"/></g><g id="Layer_3" data-name="Layer 3"><g class="cls-11"><path id="B" class="cls-8" d="M200,43.2a1.93,1.93,0,0,0,2.22.35l1.26-.65a13.92,13.92,0,0,0-.73-1.74,2,2,0,0,0-.29-.41,1.75,1.75,0,1,0-2.77,2.14A1.82,1.82,0,0,0,200,43.2Z"/></g><g class="cls-11"><path id="B-2" data-name="B" class="cls-8" d="M200,43.2a1.93,1.93,0,0,0,2.22.35l1.26-.65a13.92,13.92,0,0,0-.73-1.74,2,2,0,0,0-.29-.41,1.75,1.75,0,1,0-2.77,2.14A1.82,1.82,0,0,0,200,43.2Z"/></g><path class="cls-8" d="M96.91,129h0Z"/><path class="cls-1" d="M100,131.52l.09-.1a3.07,3.07,0,0,0,.17-.31,2,2,0,0,0-.63-2.42l-.21-.15a2.26,2.26,0,0,0-.35-.17,1.9,1.9,0,0,0-2.12.65l-1,1.5c-2.76,3.87-5.54,7.76-8,11.82l-4.34,6.8-4,7a1.78,1.78,0,0,0-.21.54,1.94,1.94,0,0,0,1.47,2.3,1.88,1.88,0,0,0,2-.91l4-6.9,4.3-6.67c2.78-4.5,5.87-8.75,8.93-13Z"/><g class="cls-11"><path id="D" class="cls-8" d="M55,218.77a1.9,1.9,0,0,0-2.34,2.37,2,2,0,0,0,1.9,1.22A1.89,1.89,0,0,0,56.33,221l.44-1.55A13.43,13.43,0,0,0,55,218.77Z"/></g><g class="cls-11"><path id="D-2" data-name="D" class="cls-8" d="M55,218.77a1.9,1.9,0,0,0-2.34,2.37,2,2,0,0,0,1.9,1.22A1.89,1.89,0,0,0,56.33,221l.44-1.55A13.43,13.43,0,0,0,55,218.77Z"/></g><g class="cls-11"><path id="E-3" data-name="E" class="cls-8" d="M194.7,59.3a1.66,1.66,0,0,0,.14.37,1.92,1.92,0,0,0,2.46.93,1.69,1.69,0,0,0,.45-.51,1.92,1.92,0,0,0,.23-1,2,2,0,0,0-2.06-1.94h0a1.71,1.71,0,0,0-.49.14A1.84,1.84,0,0,0,194.7,59.3Z"/></g><g class="cls-11"><path id="E-4" data-name="E" class="cls-8" d="M194.7,59.3a1.66,1.66,0,0,0,.14.37,1.92,1.92,0,0,0,2.46.93,1.69,1.69,0,0,0,.45-.51,1.92,1.92,0,0,0,.23-1,2,2,0,0,0-2.06-1.94h0a1.71,1.71,0,0,0-.49.14A1.84,1.84,0,0,0,194.7,59.3Z"/></g><g class="cls-11"><path id="F" class="cls-8" d="M63.47,233.14a1.82,1.82,0,0,0-1.71,1.36v.05a2.22,2.22,0,0,1-.1.5,1.88,1.88,0,0,0,1.48,2.23h0a1.87,1.87,0,0,0,2.23-1.15,3.26,3.26,0,0,1,.14-.6c0-.2,0-.22,0-.33a1.47,1.47,0,0,0,0-.21,2,2,0,0,0-2.1-1.86Z"/></g><g class="cls-11"><path id="F-2" data-name="F" class="cls-8" d="M63.47,233.14a1.82,1.82,0,0,0-1.71,1.36v.05a2.22,2.22,0,0,1-.1.5,1.88,1.88,0,0,0,1.48,2.23h0a1.87,1.87,0,0,0,2.23-1.15,3.26,3.26,0,0,1,.14-.6c0-.2,0-.22,0-.33a1.47,1.47,0,0,0,0-.21,2,2,0,0,0-2.1-1.86Z"/></g><g class="cls-11"><path id="H" class="cls-8" d="M316.52,36.63A1.87,1.87,0,0,0,318,38.08l.23-.07a2,2,0,0,0,1.09-2.61h0a1.73,1.73,0,0,0-1.43-1.17h-.13a1.9,1.9,0,0,0-1.25,2.38Z"/></g><g class="cls-11"><path id="H-2" data-name="H" class="cls-8" d="M316.52,36.63A1.87,1.87,0,0,0,318,38.08l.23-.07a2,2,0,0,0,1.09-2.61h0a1.73,1.73,0,0,0-1.43-1.17h-.13a1.9,1.9,0,0,0-1.25,2.38Z"/></g><g class="cls-11"><path id="I" class="cls-8" d="M328.16,22.9a1.8,1.8,0,0,0,1.75,1.28h1.8l.1-1.83a2.14,2.14,0,0,0-.17-.87,1.9,1.9,0,0,0-2.12-1.07h-.1l-.17.06a1.74,1.74,0,0,0-.27.14,2,2,0,0,0-.79,2.29Z"/></g><g class="cls-11"><path id="I-2" data-name="I" class="cls-8" d="M328.16,22.9a1.8,1.8,0,0,0,1.75,1.28h1.8l.1-1.83a2.14,2.14,0,0,0-.17-.87,1.9,1.9,0,0,0-2.12-1.07h-.1l-.17.06a1.74,1.74,0,0,0-.27.14,2,2,0,0,0-.79,2.29Z"/></g><g class="cls-11"><path id="J-2" data-name="J" class="cls-8" d="M614.9,216.5a2,2,0,0,0-1.91,2.09h0l.4,1.4a14.21,14.21,0,0,0,1.83-.4,2.06,2.06,0,0,0,.48-.21,1.51,1.51,0,0,0-.82-2.9Z"/></g><g class="cls-11"><path id="J-3" data-name="J" class="cls-8" d="M614.9,216.5a2,2,0,0,0-1.91,2.09h0l.4,1.4a14.21,14.21,0,0,0,1.83-.4,2.06,2.06,0,0,0,.48-.21,1.51,1.51,0,0,0-.82-2.9Z"/></g><g class="cls-11"><path id="L" class="cls-8" d="M464.87,39.72a2,2,0,0,0,.67,2.68l1.46.74a14.2,14.2,0,0,0,.95-1.59,1.92,1.92,0,0,0-.81-2.58h0a1.76,1.76,0,0,0-.67-.18A2,2,0,0,0,464.87,39.72Z"/></g><g class="cls-11"><path id="L-2" data-name="L" class="cls-8" d="M464.87,39.72a2,2,0,0,0,.67,2.68l1.46.74a14.2,14.2,0,0,0,.95-1.59,1.92,1.92,0,0,0-.81-2.58h0a1.76,1.76,0,0,0-.67-.18A2,2,0,0,0,464.87,39.72Z"/></g><g class="cls-11"><path id="M" class="cls-8" d="M598.5,211.6a2,2,0,0,0,2.29-1.66,1.59,1.59,0,0,0-.06-.65,1.73,1.73,0,0,0-1.78-1l-.34.05a2,2,0,0,0-1.5,2.18,1.65,1.65,0,0,0,.46.68A2,2,0,0,0,598.5,211.6Z"/></g><g class="cls-11"><path id="M-2" data-name="M" class="cls-8" d="M598.5,211.6a2,2,0,0,0,2.29-1.66,1.59,1.59,0,0,0-.06-.65,1.73,1.73,0,0,0-1.78-1l-.34.05a2,2,0,0,0-1.5,2.18,1.65,1.65,0,0,0,.46.68A2,2,0,0,0,598.5,211.6Z"/></g><g class="cls-11"><path id="N" class="cls-8" d="M452.25,47.24a1.81,1.81,0,0,0-1-1.92l-.18-.08-.34-.13a1.9,1.9,0,0,0-1.62,3.44l1.06.38A2,2,0,0,0,452.25,47.24Z"/></g><g class="cls-11"><path id="N-2" data-name="N" class="cls-8" d="M452.25,47.24a1.81,1.81,0,0,0-1-1.92l-.18-.08-.34-.13a1.9,1.9,0,0,0-1.62,3.44l1.06.38A2,2,0,0,0,452.25,47.24Z"/></g><g class="cls-11"><path id="P" class="cls-8" d="M470,559.82a1.92,1.92,0,0,0-2.23-.36l-1.28.66a15.45,15.45,0,0,0,.73,1.73,1.91,1.91,0,0,0,2.57.83l.32-.2A2,2,0,0,0,470,559.82Z"/></g><g class="cls-11"><path id="P-2" data-name="P" class="cls-8" d="M470,559.82a1.92,1.92,0,0,0-2.23-.36l-1.28.66a15.45,15.45,0,0,0,.73,1.73,1.91,1.91,0,0,0,2.57.83l.32-.2A2,2,0,0,0,470,559.82Z"/></g><path class="cls-1" d="M589.22,444a1.9,1.9,0,0,0-2,.91l-4,6.9-4.3,6.72c-2.76,4.44-5.82,8.66-8.85,12.9l-.14.2a1.74,1.74,0,0,0-.22.48A2,2,0,0,0,571,474.6a1.87,1.87,0,0,0,2.13-.7l1-1.42c2.76-3.89,5.56-7.79,8.08-11.88l4.35-6.8,4-7a2,2,0,0,0,.21-.59A1.93,1.93,0,0,0,589.22,444Z"/><g class="cls-11"><path id="R" class="cls-8" d="M615.47,380.66A1.89,1.89,0,0,0,613.7,382l-.44,1.54a12.74,12.74,0,0,0,1.78.67l.2.06a1.89,1.89,0,0,0,2.26-1.46h0a1.13,1.13,0,0,0,0-.26v-.1A2,2,0,0,0,615.47,380.66Z"/></g><g class="cls-11"><path id="R-2" data-name="R" class="cls-8" d="M615.47,380.66A1.89,1.89,0,0,0,613.7,382l-.44,1.54a12.74,12.74,0,0,0,1.78.67l.2.06a1.89,1.89,0,0,0,2.26-1.46h0a1.13,1.13,0,0,0,0-.26v-.1A2,2,0,0,0,615.47,380.66Z"/></g><g class="cls-11"><path id="S" class="cls-8" d="M475.3,543.7a2.86,2.86,0,0,0-.15-.41,2,2,0,0,0-2.43-.93,1.74,1.74,0,0,0-.52.56,2,2,0,0,0,.82,2.71,2,2,0,0,0,1,.23,1.63,1.63,0,0,0,.56-.16A1.83,1.83,0,0,0,475.3,543.7Z"/></g><g class="cls-11"><path id="S-2" data-name="S" class="cls-8" d="M475.3,543.7a2.86,2.86,0,0,0-.15-.41,2,2,0,0,0-2.43-.93,1.74,1.74,0,0,0-.52.56,2,2,0,0,0,.82,2.71,2,2,0,0,0,1,.23,1.63,1.63,0,0,0,.56-.16A1.83,1.83,0,0,0,475.3,543.7Z"/></g><g class="cls-11"><path id="T" class="cls-8" d="M606.52,369.86a1.79,1.79,0,0,0,1.68-1.36,3.26,3.26,0,0,1,.14-.6,1.88,1.88,0,0,0-1.49-2.17,1.85,1.85,0,0,0-2.27,1.29v0a8.33,8.33,0,0,0-.16,1A2,2,0,0,0,606.52,369.86Z"/></g><g class="cls-11"><path id="T-2" data-name="T" class="cls-8" d="M606.52,369.86a1.79,1.79,0,0,0,1.68-1.36,3.26,3.26,0,0,1,.14-.6,1.88,1.88,0,0,0-1.49-2.17,1.85,1.85,0,0,0-2.27,1.29v0a8.33,8.33,0,0,0-.16,1A2,2,0,0,0,606.52,369.86Z"/></g><g class="cls-11"><path id="V" class="cls-8" d="M353.52,566.37a1.85,1.85,0,0,0-1.5-1.46.79.79,0,0,0-.22.06,2,2,0,0,0-1.15,2.58,1.7,1.7,0,0,0,1.63,1.18A1.92,1.92,0,0,0,353.52,566.37Z"/></g><g class="cls-11"><path id="V-2" data-name="V" class="cls-8" d="M353.52,566.37a1.85,1.85,0,0,0-1.5-1.46.79.79,0,0,0-.22.06,2,2,0,0,0-1.15,2.58,1.7,1.7,0,0,0,1.63,1.18A1.92,1.92,0,0,0,353.52,566.37Z"/></g><g class="cls-11"><path id="W" class="cls-8" d="M341.83,580.1a1.79,1.79,0,0,0-1.75-1.29h-1.74a13.57,13.57,0,0,0-.09,1.8,1.86,1.86,0,1,0,3.71.27,1.81,1.81,0,0,0-.13-.83Z"/></g><g class="cls-11"><path id="W-2" data-name="W" class="cls-8" d="M341.83,580.1a1.79,1.79,0,0,0-1.75-1.29h-1.74a13.57,13.57,0,0,0-.09,1.8,1.86,1.86,0,1,0,3.71.27,1.81,1.81,0,0,0-.13-.83Z"/></g><g class="cls-11"><path id="X" class="cls-8" d="M83.87,330.22a1.79,1.79,0,0,0,1.72-1.79v-.12a1.86,1.86,0,0,0-2.1-1.38h-.06a1.77,1.77,0,0,0-1.68,1.75v.2a1.87,1.87,0,0,0,2.12,1.35Z"/></g><g class="cls-11"><path id="X-2" data-name="X" class="cls-8" d="M83.87,330.22a1.79,1.79,0,0,0,1.72-1.79v-.12a1.86,1.86,0,0,0-2.1-1.38h-.06a1.77,1.77,0,0,0-1.68,1.75v.2a1.87,1.87,0,0,0,2.12,1.35Z"/></g><g class="cls-11"><path id="Y" class="cls-8" d="M55.35,386.7A2,2,0,0,0,57,384.4h0l-.4-1.4a14.21,14.21,0,0,0-1.83.4,1.8,1.8,0,0,0-.38.16,1.65,1.65,0,0,0,1,3.15Z"/></g><g class="cls-11"><path id="Y-2" data-name="Y" class="cls-8" d="M55.35,386.7A2,2,0,0,0,57,384.4h0l-.4-1.4a14.21,14.21,0,0,0-1.83.4,1.8,1.8,0,0,0-.38.16,1.65,1.65,0,0,0,1,3.15Z"/></g><g class="cls-7"><path class="cls-8" d="M350.34,592.58v0a2,2,0,0,0-1.86-1.26l-12,.3a2.1,2.1,0,0,0-.5.09,2,2,0,0,0-1.3,2.51,1.81,1.81,0,0,0,1.82,1.29l12.1-.3a1.75,1.75,0,0,0,.64-.14A1.91,1.91,0,0,0,350.34,592.58Z"/><path class="cls-8" d="M281.09,586.6h0c-4.7-.75-9.3-2-13.93-3a2,2,0,0,0-2.32,1.49v.06a1.89,1.89,0,0,0,1.43,2.25c4.7,1,9.35,2.26,14.1,3a1.94,1.94,0,0,0,2.24-1.58A1.91,1.91,0,0,0,281.09,586.6Z"/><path class="cls-8" d="M124.76,501.28l-.47-.46a1.71,1.71,0,0,0-2.32-.1l-.09,0-.17.14-.15.15a2.14,2.14,0,0,0-.28.39,1.88,1.88,0,0,0,.28,2.22h0l5.55,5.83,5.84,5.58c3.82,3.77,7.94,7.24,12,10.77a2.07,2.07,0,0,0,.62.52,2,2,0,1,0,1.9-3.52c-4-3.47-8-6.85-11.75-10.6l-5.73-5.5-5.15-5.41Z"/></g><g class="cls-11"><path id="a" class="cls-8" d="M205.33,563.2a2,2,0,0,0-.86-2.61l-1.45-.74a14.12,14.12,0,0,0-.94,1.59,1.91,1.91,0,0,0,.79,2.58l0,0a1.85,1.85,0,0,0,1.35.1A2,2,0,0,0,205.33,563.2Z"/></g><g class="cls-11"><path id="a-2" data-name="a" class="cls-8" d="M205.33,563.2a2,2,0,0,0-.86-2.61l-1.45-.74a14.12,14.12,0,0,0-.94,1.59,1.91,1.91,0,0,0,.79,2.58l0,0a1.85,1.85,0,0,0,1.35.1A2,2,0,0,0,205.33,563.2Z"/></g><g class="cls-11"><path id="b-3" data-name="b" class="cls-8" d="M71.48,391.37a2,2,0,0,0-2.27,1.69h0a1.67,1.67,0,0,0,0,.63,1.81,1.81,0,0,0,1.79,1l.36-.06a2,2,0,0,0,1.5-2.13,1.35,1.35,0,0,0-.44-.72A1.94,1.94,0,0,0,71.48,391.37Z"/></g><g class="cls-11"><path id="b-4" data-name="b" class="cls-8" d="M71.48,391.37a2,2,0,0,0-2.27,1.69h0a1.67,1.67,0,0,0,0,.63,1.81,1.81,0,0,0,1.79,1l.36-.06a2,2,0,0,0,1.5-2.13,1.35,1.35,0,0,0-.44-.72A1.94,1.94,0,0,0,71.48,391.37Z"/></g><g class="cls-11"><path id="c" class="cls-8" d="M217.76,555.77a1.81,1.81,0,0,0,1,1.92l.24.1.27.1a1.87,1.87,0,0,0,2.45-1,1.91,1.91,0,0,0-.73-2.48l-.17-.07c-.28-.12-.56-.2-.84-.3a2,2,0,0,0-2.22,1.72Z"/></g><g class="cls-11"><path id="c-2" data-name="c" class="cls-8" d="M217.76,555.77a1.81,1.81,0,0,0,1,1.92l.24.1.27.1a1.87,1.87,0,0,0,2.45-1,1.91,1.91,0,0,0-.73-2.48l-.17-.07c-.28-.12-.56-.2-.84-.3a2,2,0,0,0-2.22,1.72Z"/></g><g class="cls-12"><path id="d-3" data-name="d" class="cls-8" d="M122.32,439.33a1.71,1.71,0,0,0-.26,2l1,1.57a11.16,11.16,0,0,1,1.54-1.2,2,2,0,0,0,.94-1.85,1.55,1.55,0,0,0-.28-.7,2.27,2.27,0,0,0-.28-.26,1.74,1.74,0,0,0-1-.36,2,2,0,0,0-1.19.32A1.54,1.54,0,0,0,122.32,439.33Z"/></g><g class="cls-11"><path id="f-3" data-name="f" class="cls-8" d="M178.4,502.38a1.79,1.79,0,0,0,2.48-.52h0a1.67,1.67,0,0,0-2.18-2.53,1.76,1.76,0,0,0-.41.53A1.81,1.81,0,0,0,178.4,502.38Z"/></g><g class="cls-11"><path id="g" class="cls-8" d="M175.6,495.24a1.77,1.77,0,0,0-2.46.41,1.85,1.85,0,0,0,0,2.58,1.87,1.87,0,0,0,2.54-.49A1.77,1.77,0,0,0,175.6,495.24Z"/></g><path class="cls-1" d="M121.09,457.6s0-.07,0-.1a1.7,1.7,0,0,0-.08-1.74c-2.74-4-1.88-9.34,2-12.86-.34-.52-.7-1-1-1.56a1.73,1.73,0,0,1,.26-2l.47-.44a15.78,15.78,0,0,0-6.75,9A12.13,12.13,0,0,0,117.83,458a.08.08,0,0,1,0,0,2.3,2.3,0,0,0,.41.35,2,2,0,0,0,2.71-.61s0,0,0,0l.06-.08C121.05,457.69,121.1,457.57,121.09,457.6Z"/><path class="cls-1" d="M203,559.87l1.45.74a2,2,0,0,1,.86,2.61,2,2,0,0,1-1.07.95,1.89,1.89,0,0,0,1.16-1,10.84,10.84,0,0,1,6-5.39,10.15,10.15,0,0,1,7.62,0h0l-.24-.1a1.81,1.81,0,0,1-1-1.92,2,2,0,0,1,2.22-1.72A14.79,14.79,0,0,0,203,559.87Z"/><polygon class="cls-8" points="220.82 554.4 220.99 554.47 220.94 554.4 220.82 554.4"/><path class="cls-1" d="M65.86,384.38a15.05,15.05,0,0,0-9.17-1.4l.4,1.4a2,2,0,0,1-3.44,1.7,1.47,1.47,0,0,0,.1.22,1.84,1.84,0,0,0,2.16.78c5.45-1.68,11.5,1.2,13.27,6.42h0c0,.06.07.1.1.17a1.67,1.67,0,0,1,0-.63,2,2,0,0,1,2.27-1.69h0a1.93,1.93,0,0,1,1,.44,1.39,1.39,0,0,1,.44.72v-.29A13.8,13.8,0,0,0,65.86,384.38Z"/><path class="cls-1" d="M478.73,553.47l-.05,0h0a1.94,1.94,0,1,0,2.67.67A1.94,1.94,0,0,0,478.7,553.5Z"/><path class="cls-1" d="M350.65,567.55A2,2,0,0,1,351.8,565a.79.79,0,0,1,.22-.06h-.38a14.09,14.09,0,0,0-9.47,4.87,16.56,16.56,0,0,0-3.84,9.12h1.74a1.79,1.79,0,0,1,1.75,1.29,1.92,1.92,0,0,1-.44,2,1.9,1.9,0,0,0,.7-1.47,12.31,12.31,0,0,1,2.8-8.14A10.45,10.45,0,0,1,352,568.8l.3-.06A1.69,1.69,0,0,1,350.65,567.55Z"/><path class="cls-1" d="M484.55,550.14a1.86,1.86,0,0,0-.63,2.58v0a2,2,0,0,0,2.65.71h.06a1.89,1.89,0,0,0,.57-2.61A2,2,0,0,0,484.55,550.14Z"/><path class="cls-1" d="M523,524.93a1.89,1.89,0,0,0-2.65-.25l0,0a2,2,0,0,0-.23,2.73,1.92,1.92,0,0,0,2.69.26h0A2,2,0,0,0,523,524.93Z"/><path class="cls-1" d="M423.7,579.76a1.89,1.89,0,0,0-3.59,1.18h0l.06.2a1.91,1.91,0,1,0,3.58-1.34Z"/><g class="cls-11"><path id="i-3" data-name="i" class="cls-8" d="M114.29,457.14a1,1,0,0,0,.14-.28,1.89,1.89,0,0,0-.13-1.68,2,2,0,0,0-3.17,2.27,4.47,4.47,0,0,0,.41.35A2,2,0,0,0,114.29,457.14Z"/></g><path class="cls-1" d="M548.37,99.34l-1.16-1.21,0,0-4.4-4.6L537,87.92c-3.82-3.77-7.94-7.25-12-10.77a2,2,0,0,0-2.52,3c4,3.48,8.08,6.9,11.84,10.64l5.76,5.5,5.24,5.49.06.1.16.17a2,2,0,0,0,2.83-.08,2,2,0,0,0,.29-.4A1.88,1.88,0,0,0,548.37,99.34Z"/></g><g id="Broadband_Internet_Access_White_" data-name="Broadband Internet Access White"><path class="cls-13" d="M128.34,161.62a4.9,4.9,0,0,1-4-7.71q7.91-11.32,16.69-22a4.9,4.9,0,0,1,7.57,6.23c-5.67,6.9-11.12,14.09-16.23,21.36a4.94,4.94,0,0,1-4,2.09Z"/><path class="cls-1" d="M139.7,466a4.91,4.91,0,0,1-3.8-1.8A257.43,257.43,0,0,1,109.38,178a4.9,4.9,0,1,1,8.86,4.2l-.08.15-.2.35C69.72,271.13,79.63,380.12,143.51,458a4.89,4.89,0,0,1-3.8,8Z"/><path class="cls-14" d="M184.24,508.67a4.88,4.88,0,0,1-2.92-1A238.64,238.64,0,0,1,154.85,485a4.91,4.91,0,0,1,6.88-7,284.36,284.36,0,0,0,25.44,21.84,4.9,4.9,0,0,1-2.93,8.82Z"/><path class="cls-10" d="M486.52,507.6a4.9,4.9,0,0,1-3-8.8,123.8,123.8,0,0,0,12.66-11,4.9,4.9,0,0,1,6.93,6.93,135.54,135.54,0,0,1-13.66,11.9,4.86,4.86,0,0,1-3,1Z"/><path class="cls-1" d="M335.52,558.7a259.09,259.09,0,0,1-130.8-35.46,4.91,4.91,0,0,1,4.85-8.54l.15.1c80.22,47,179.5,44.32,258.39-4.88a4.9,4.9,0,0,1,5.27,8.26C432.48,545,384.41,558.71,335.52,558.7Z"/><path class="cls-1" d="M515.45,482.68a4.9,4.9,0,0,1-3.5-8.33,247.37,247.37,0,0,0,69.86-190.43,4.88,4.88,0,0,1,4.53-5.24,5,5,0,0,1,5.23,4.54c5.9,73.28-21.25,145.42-72.63,198a4.89,4.89,0,0,1-3.5,1.47Z"/><path class="cls-5" d="M582.15,255.55a4.9,4.9,0,0,1-4.79-3.91,247.14,247.14,0,0,0-10-35.09,4.9,4.9,0,0,1,9.09-3.65V213a.23.23,0,0,0,.07.19A257,257,0,0,1,587,249.66a4.9,4.9,0,0,1-3.81,5.79h0a4.78,4.78,0,0,1-1,.1Z"/><path class="cls-1" d="M562.52,197.37a4.9,4.9,0,0,1-4.42-2.78C499.05,71.41,351.32,19.33,228.1,78.39c-21.82,10.46-42.39,23.64-59.89,40.36a4.9,4.9,0,1,1-6.94-6.92l.2-.18.16-.15C266.56,15.76,429.23,23.2,525,128.14A256.9,256.9,0,0,1,567,190.34a4.9,4.9,0,0,1-2.29,6.53,4.84,4.84,0,0,1-2.11.49Z"/></g></svg>