<?xml version="1.0" encoding="utf-8"?>
<!-- Generator: Adobe Illustrator 24.0.0, SVG Export Plug-In . SVG Version: 6.00 Build 0)  -->
<svg version="1.1" id="Layer_1" xmlns="http://www.w3.org/2000/svg" xmlns:xlink="http://www.w3.org/1999/xlink" x="0px" y="0px"
	 viewBox="0 0 550 550" style="enable-background:new 0 0 550 550;" xml:space="preserve">
<style type="text/css">
	.st0{opacity:0.4;}
	.st1{fill:#9DACBF;}
	.st2{opacity:0.6;}
	.st3{opacity:0.2;}
</style>
<title>circle-dec</title>
<g class="st0">
	<path class="st1" d="M275,75h-1h-3c-0.6,0-1,0.4-1,1s0.4,1,1,1l0,0c1.3,0,2.6,0,4,0c0.6,0,1-0.4,1-1S275.6,75,275,75z M260.1,75.6
		L260.1,75.6l-2.5,0.2h-1.2H256c-0.6,0-1,0.5-0.9,1.1s0.5,1,1.1,0.9h0.1c1.3-0.1,2.6-0.2,4-0.3c0.6,0,1-0.5,1-1s-0.5-1-1-1
		L260.1,75.6z M245.3,77.2h-0.9l-1.1,0.2l0,0H243h-0.2h-0.1h-0.4l-1.1,0.2c-0.6,0-1,0.5-0.9,1.1c0,0.6,0.5,1,1.1,0.9h0.2
		c1.3-0.2,2.6-0.4,3.9-0.6c0.6,0,1-0.5,0.9-1.1c0-0.6-0.5-1-1.1-0.9L245.3,77.2z M230.6,80c-0.1,0-0.1,0-0.2,0
		c-1.2,0.3-2.4,0.6-3.6,0.8l0,0h-0.1l0,0h-0.1h-0.1c-0.5,0.1-0.9,0.7-0.7,1.2c0.1,0.5,0.5,0.8,1,0.8c0.1,0,0.2,0,0.2,0
		c1.3-0.3,2.6-0.6,3.9-0.9c0.6-0.1,0.9-0.6,0.9-1.1c-0.1-0.6-0.6-0.9-1.1-0.9L230.6,80z M216.2,83.9c-0.1,0-0.2,0-0.3,0l-1.4,0.4
		h-0.2h-0.1l0,0h-0.1l0,0l-2,0.7c-0.6,0.1-0.9,0.6-0.8,1.2s0.6,0.9,1.2,0.8l0,0c0.1,0,0.2,0,0.3,0c1.2-0.4,2.5-0.8,3.8-1.2
		c0.6-0.1,0.9-0.6,0.9-1.2c-0.1-0.6-0.6-0.9-1.2-0.8L216.2,83.9z M202.1,88.8c-0.1,0-0.2,0-0.4,0.1c-1.2,0.5-2.5,1-3.7,1.5
		c-0.5,0.2-0.7,0.8-0.5,1.3c0.2,0.4,0.5,0.6,0.9,0.6c0.1,0,0.3,0,0.4-0.1c1.2-0.5,2.4-1,3.7-1.5c0.5-0.2,0.8-0.8,0.6-1.3
		c0,0,0,0,0,0C202.9,89,202.5,88.8,202.1,88.8z M188.4,94.8c-0.1,0-0.3,0-0.4,0.1l-0.8,0.4l0,0h-0.1l0,0l0,0l0,0l0,0l0,0l0,0h-0.1
		l0,0H187l0,0H187l0,0c-0.8,0.4-1.6,0.8-2.3,1.2c-0.5,0.3-0.7,0.9-0.4,1.3c0.2,0.3,0.5,0.5,0.9,0.5c0.2,0,0.3,0,0.4-0.1l3.6-1.8
		c0.5-0.2,0.7-0.8,0.5-1.3c-0.2-0.3-0.5-0.6-0.9-0.6L188.4,94.8z M175.3,101.8c-0.2,0-0.4,0.1-0.5,0.1l-0.3,0.2l0,0l0,0l0,0l0,0l0,0
		l0,0c-1,0.6-2,1.2-3,1.8c-0.5,0.3-0.6,0.9-0.3,1.4c0.2,0.3,0.5,0.5,0.9,0.5c0.2,0,0.4-0.1,0.5-0.2c1.1-0.7,2.3-1.4,3.4-2
		c0.5-0.3,0.6-0.9,0.4-1.4c-0.2-0.3-0.5-0.5-0.9-0.5L175.3,101.8z M162.6,109.8c-0.2,0-0.4,0.1-0.6,0.2c-0.9,0.6-1.7,1.2-2.6,1.8
		l0,0h-0.1l0,0l-0.1,0.1l0,0h-0.1l0,0l0,0l0,0l0,0l0,0l0,0l-0.1,0.1l0,0l0,0l0,0h-0.1l0,0L159,112c-0.4,0.3-0.6,0.9-0.2,1.4
		c0,0,0,0,0,0c0.2,0.3,0.5,0.4,0.8,0.4c0.2,0,0.4-0.1,0.6-0.2c1.1-0.8,2.2-1.5,3.2-2.3c0.5-0.3,0.6-0.9,0.3-1.4
		c-0.2-0.3-0.5-0.4-0.8-0.4L162.6,109.8z M150.6,118.7c-0.2,0-0.4,0.1-0.6,0.2l-0.6,0.5l0,0l-0.1,0.1l0,0l0,0l0,0l0,0l0,0l0,0l0,0
		l0,0l-0.1,0.1l0,0l0,0l0,0l0,0l0,0l0,0l0,0l0,0l0,0l-0.1,0.1l0,0l0,0l0,0l0,0l0,0l0,0l0,0l-0.1,0.1l0,0l0,0l0,0l0,0l0,0l0,0l0,0
		l0,0l0,0l0,0l0,0l0,0l0,0l0,0l0,0l0,0l0,0l0,0l0,0l0,0l0,0l0,0l0,0l0,0l0,0l0,0l0,0l0,0l0,0l-0.1,0.1l0,0l0,0l0,0l0,0l0,0l0,0l0,0
		l-0.5,0.4c-0.4,0.4-0.5,1-0.1,1.4c0,0,0,0,0,0c0.2,0.2,0.5,0.4,0.8,0.4c0.2,0,0.5-0.1,0.6-0.2c1-0.8,2-1.7,3.1-2.5
		c0.4-0.3,0.5-1,0.2-1.4c-0.2-0.2-0.5-0.4-0.8-0.4L150.6,118.7z M139.4,128.4c-0.3,0-0.5,0.1-0.7,0.3l-0.4,0.4l0,0l0,0l0,0l0,0
		c-0.8,0.8-1.6,1.5-2.4,2.3c-0.4,0.4-0.4,1,0,1.4c0.4,0.4,1,0.4,1.4,0c0.9-0.9,1.9-1.8,2.9-2.7c0.4-0.4,0.4-1,0-1.4
		C139.9,128.5,139.7,128.4,139.4,128.4L139.4,128.4z M128.8,139c-0.3,0-0.5,0.1-0.7,0.3l0,0l0,0l-0.1,0.1l0,0v0.1l0,0v0.1l0,0
		l-0.7,0.8l0,0l0,0l0,0l0,0l0,0l0,0l0,0l-0.1,0.1l0,0l0,0l0,0l0,0l0,0l0,0l0,0l0,0l-1.4,1.5c-0.3,0.4-0.3,1.1,0.2,1.4
		c0.4,0.3,1,0.3,1.3-0.1c0.9-1,1.8-2,2.7-2.9c0.4-0.4,0.4-1,0-1.4c-0.2-0.2-0.4-0.3-0.7-0.3L128.8,139z M119.1,150.3
		c-0.3,0-0.6,0.1-0.8,0.4l-1.1,1.3l0,0l0,0l0,0l0,0l0,0l-0.1,0.1l0,0l0,0l0,0l0,0l0,0l0,0l0,0l-0.1,0.1l0,0l0,0l0,0l0,0l0,0l0,0l0,0
		l-0.8,1.1c-0.3,0.4-0.3,1.1,0.2,1.4c0,0,0,0,0,0c0.2,0.1,0.4,0.2,0.6,0.2c0.3,0,0.6-0.1,0.8-0.4c0.8-1.1,1.6-2.1,2.4-3.1
		c0.3-0.4,0.3-1.1-0.2-1.4c-0.2-0.1-0.4-0.2-0.6-0.2L119.1,150.3z M110.3,162.3c-0.3,0-0.6,0.2-0.8,0.4c-0.8,1.1-1.5,2.2-2.2,3.3
		c-0.3,0.5-0.2,1.1,0.3,1.4c0.5,0.3,1.1,0.2,1.4-0.3c0,0,0,0,0,0c0.7-1.1,1.4-2.2,2.2-3.3c0.3-0.5,0.2-1.1-0.3-1.4c0,0,0,0,0,0
		C110.7,162.4,110.5,162.3,110.3,162.3L110.3,162.3z M102.4,175c-0.4,0-0.7,0.2-0.9,0.5c-0.7,1.1-1.3,2.3-2,3.5
		c-0.3,0.5-0.1,1.1,0.4,1.4c0,0,0,0,0,0c0.1,0.1,0.3,0.1,0.5,0.1c0.4,0,0.7-0.2,0.9-0.5c0.6-1.1,1.3-2.3,1.9-3.4
		c0.3-0.5,0.1-1.1-0.4-1.4C102.7,175,102.5,175,102.4,175L102.4,175z M95.4,188.2c-0.4,0-0.7,0.2-0.9,0.6c-0.5,1.1-1,2.2-1.5,3.3
		l0,0v0.1v0.1l0,0l-0.1,0.2c-0.2,0.5,0,1.1,0.5,1.3c0.5,0.2,1.1,0,1.3-0.5l0,0c0.6-1.2,1.1-2.4,1.7-3.6c0.2-0.5,0-1.1-0.5-1.3
		c0,0,0,0,0,0C95.8,188.2,95.6,188.2,95.4,188.2L95.4,188.2z M89.5,201.9c-0.4,0-0.8,0.2-0.9,0.6c-0.5,1.2-0.9,2.5-1.4,3.8
		c-0.2,0.5,0.1,1.1,0.6,1.3c0.1,0,0.2,0.1,0.3,0.1c0.4,0,0.8-0.3,0.9-0.7c0.4-1.2,0.9-2.5,1.4-3.7c0.2-0.5,0-1.1-0.6-1.3
		c0,0,0,0,0,0C89.7,201.9,89.6,201.9,89.5,201.9z M84.6,216c-0.5,0-0.9,0.3-1,0.7c-0.1,0.3-0.2,0.6-0.2,0.8v0.1v0.1l0,0
		c-0.2,0.7-0.4,1.4-0.6,2.1l0,0v0.1l0,0v0.1v0.1v0.1l0,0l0,0c0,0.1-0.1,0.2-0.1,0.4c-0.2,0.5,0.2,1.1,0.7,1.2c0,0,0,0,0,0
		c0.1,0,0.2,0,0.3,0c0.5,0,0.9-0.3,1-0.7c0.4-1.3,0.7-2.6,1.1-3.8c0.2-0.5-0.1-1.1-0.7-1.2c0,0,0,0,0,0c-0.1,0-0.2,0-0.3,0L84.6,216
		z M80.8,230.4c-0.5,0-0.9,0.3-1,0.8c0,0.2-0.1,0.4-0.1,0.6l0,0l-0.1,0.2l0,0v0.1v0.4v0.1v0.2v0.1v0.2v0.1l0,0v0.2v0.1v0.6v0.1v0.2
		l0,0v0.1l0,0v0.1l0,0v0.2l0,0v0.2c-0.1,0.5,0.2,1.1,0.8,1.2c0,0,0,0,0,0h0.2c0.5,0,0.9-0.3,1-0.8c0.3-1.3,0.5-2.6,0.8-3.9
		c0.1-0.5-0.2-1.1-0.7-1.2c-0.2-0.1-0.5,0-0.7,0.1C80.9,230.4,80.9,230.4,80.8,230.4L80.8,230.4z M78.1,245.1c-0.5,0-0.9,0.4-1,0.9
		c0,0.4-0.1,0.8-0.2,1.1l0,0v0.1l0,0v0.1l0,0v0.1l0,0v0.1l0,0v0.1l0,0c-0.1,0.7-0.2,1.5-0.3,2.2c-0.1,0.5,0.3,1,0.9,1.1h0.1
		c0.5,0,0.9-0.4,1-0.9c0.2-1.3,0.3-2.6,0.5-3.9c0.1-0.5-0.3-1.1-0.8-1.1L78.1,245.1z M76.5,259.9c-0.5,0-1,0.4-1,0.9
		c-0.1,1-0.1,2-0.2,3v0.2l0,0v0l0,0v0.1l0,0v0.6c0,0.5,0.4,1,0.9,1l0,0c0.5,0,1-0.4,1-1c0.1-1.3,0.2-2.6,0.2-4
		C77.5,260.4,77.1,259.9,76.5,259.9L76.5,259.9z M76,274.8L76,274.8c-0.6,0-1,0.4-1,1c0,0.2,0,0.5,0,0.7v0.1c0,1.1,0,2.2,0,3.3
		c0,0.6,0.4,1,1,1l0,0c0.6,0,1-0.4,1-1c0-1.3,0-2.6-0.1-4C76.9,275.2,76.5,274.8,76,274.8L76,274.8z M76.6,289.7L76.6,289.7
		c-0.6,0-1,0.5-1,1.1c0,0.6,0.1,1.1,0.1,1.7l0,0v0.4v0.1v0.1l0,0v0.2l0,0v0.3l0,0v0.2v0.2l0,0v0.1l0,0l0.1,0.6
		c0.1,0.5,0.5,0.9,1,0.9h0.1c0.5-0.1,1-0.5,0.9-1.1c-0.1-1.3-0.2-2.6-0.3-4c0-0.5-0.5-0.9-1-0.9L76.6,289.7z M78.3,304.5h-0.2
		c-0.5,0.1-0.9,0.6-0.8,1.1c0,0,0,0,0,0l0,0v0.2l0,0c0.1,0.6,0.2,1.2,0.3,1.8l0,0v0.2v0.3l0,0v0.1l0,0v0.1l0,0
		c0.1,0.4,0.1,0.8,0.2,1.2l0,0v0.1c0.1,0.5,0.5,0.8,1,0.8H79c0.5-0.1,0.9-0.6,0.8-1.2c0,0,0,0,0,0c-0.2-1.3-0.4-2.6-0.6-3.9
		c-0.1-0.5-0.5-0.8-1-0.8L78.3,304.5z M81.2,319.2h-0.2c-0.5,0.1-0.9,0.7-0.8,1.2c0,0,0,0,0,0c0,0.2,0.1,0.3,0.1,0.5l0,0v0.2v0.1
		l0,0v0.1v0.1l0,0v0.1l0,0v0.1l0,0v0.1l0,0v0.2l0,0v0.1l0,0v0.2l0,0v0.1l0,0v0.1l0,0v0.2v0.1v0.2c0.1,0.5,0.2,0.9,0.3,1.4
		c0.1,0.5,0.5,0.8,1,0.8h0.2c0.5-0.1,0.9-0.7,0.7-1.2c-0.3-1.3-0.6-2.6-0.9-3.9c-0.1-0.5-0.5-0.8-1-0.8L81.2,319.2z M85.1,333.6
		c-0.1,0-0.2,0-0.3,0c-0.5,0.2-0.8,0.7-0.7,1.2c0.4,1.3,0.8,2.5,1.2,3.8c0.1,0.4,0.5,0.7,0.9,0.7c0.1,0,0.2,0,0.3,0
		c0.5-0.2,0.8-0.7,0.6-1.3c0,0,0,0,0,0c-0.4-1.2-0.8-2.5-1.2-3.8C85.9,333.8,85.5,333.6,85.1,333.6L85.1,333.6z M90.1,347.6
		c-0.1,0-0.3,0-0.4,0.1c-0.5,0.2-0.8,0.8-0.6,1.3c0,0,0,0,0,0c0.5,1.2,1,2.5,1.5,3.7c0.2,0.4,0.5,0.6,0.9,0.6c0.1,0,0.3,0,0.4-0.1
		c0.5-0.2,0.7-0.8,0.5-1.3c-0.5-1.2-1-2.5-1.5-3.7C90.8,347.9,90.5,347.6,90.1,347.6L90.1,347.6z M96.1,361.3c-0.2,0-0.3,0-0.4,0.1
		c-0.5,0.2-0.7,0.8-0.5,1.3c0.1,0.2,0.2,0.5,0.3,0.7l0,0v0l0,0l0,0l0,0l0,0l0,0l0,0v0.1l0,0l0,0l0,0l0,0l0,0l0.1,0.2l0,0v0l0,0v0
		l0,0l0.1,0.2l0,0l0,0l0,0l0,0l0,0l0,0l0,0l0.1,0.1l0,0l0,0l0,0l0,0l0,0l0,0v0.1l0,0c0.2,0.5,0.5,0.9,0.7,1.4
		c0.2,0.3,0.5,0.5,0.9,0.5c0.2,0,0.3,0,0.4-0.1c0.5-0.2,0.7-0.8,0.4-1.3c-0.6-1.2-1.2-2.4-1.8-3.5c-0.2-0.3-0.5-0.6-0.9-0.6
		L96.1,361.3z M103.1,374.4c-0.2,0-0.4,0-0.5,0.1c-0.5,0.3-0.6,0.9-0.4,1.4c0,0,0,0,0,0c0.1,0.2,0.2,0.4,0.3,0.6l0,0v0.1l0,0l0,0
		l0,0l0,0l0,0l0,0l0,0l0,0c0.4,0.6,0.7,1.2,1.1,1.8l0,0l0,0l0,0l0,0l0,0l0,0c0.1,0.2,0.2,0.4,0.4,0.6c0.2,0.3,0.5,0.5,0.8,0.5
		c0.6,0,1-0.5,1-1c0-0.2-0.1-0.4-0.1-0.5c-0.7-1.1-1.4-2.3-2-3.4c-0.2-0.3-0.5-0.5-0.9-0.5L103.1,374.4z M111.1,387
		c-0.2,0-0.4,0.1-0.6,0.2c-0.5,0.3-0.6,0.9-0.3,1.4c0.8,1.1,1.5,2.2,2.3,3.3c0.2,0.3,0.5,0.4,0.8,0.4c0.6,0,1-0.4,1-1
		c0-0.2-0.1-0.4-0.2-0.6c-0.8-1.1-1.5-2.1-2.3-3.2C111.8,387.2,111.5,387,111.1,387L111.1,387z M120.1,399c-0.6,0-1,0.5-1,1
		c0,0.2,0.1,0.4,0.2,0.6l0.4,0.5l0,0l0.2,0.2l0,0l0,0l0,0c0.6,0.8,1.3,1.5,1.9,2.3c0.2,0.2,0.5,0.4,0.8,0.4c0.6,0,1-0.4,1-1
		c0-0.2-0.1-0.5-0.2-0.7c-0.8-1-1.7-2-2.5-3C120.6,399.1,120.3,399,120.1,399L120.1,399z M129.9,410.3c-0.3,0-0.5,0.1-0.7,0.3
		c-0.4,0.4-0.4,1,0,1.4c0.6,0.6,1.1,1.2,1.7,1.8l0,0l0,0l0,0l0.2,0.2l0,0l0,0l0,0l0,0l0,0l0,0l0,0l0.1,0.1l0,0l0,0l0,0l0,0l0,0l0,0
		l0,0l0,0v0l0,0l0,0l0,0l0,0l0,0l0,0l0,0l0.1,0.1l0,0l0,0l0,0l0,0c0.2,0.2,0.4,0.3,0.7,0.3c0.3,0,0.5-0.1,0.7-0.3
		c0.4-0.4,0.4-1,0-1.4c0,0,0,0,0,0c-0.9-0.9-1.8-1.9-2.7-2.9c-0.2-0.2-0.5-0.3-0.7-0.3L129.9,410.3z M140.5,420.8
		c-0.3,0-0.5,0.1-0.7,0.3c-0.4,0.4-0.3,1,0.1,1.4c0.6,0.6,1.2,1.1,1.9,1.7l0,0l0.2,0.1l0,0l0,0l0,0l0,0l0,0l0,0l0.8,0.7
		c0.2,0.2,0.4,0.2,0.7,0.2c0.3,0,0.6-0.1,0.8-0.3c0.4-0.4,0.3-1-0.1-1.4c-1-0.9-2-1.8-2.9-2.6c-0.2-0.2-0.4-0.3-0.7-0.3L140.5,420.8
		z M151.9,430.4c-0.6,0-1,0.4-1,1c0,0.3,0.1,0.6,0.4,0.8c1.1,0.8,2.1,1.6,3.2,2.4c0.2,0.1,0.4,0.2,0.6,0.2c0.3,0,0.6-0.1,0.8-0.4
		c0.3-0.4,0.2-1.1-0.2-1.4c-1-0.8-2.1-1.6-3.1-2.4C152.3,430.5,152.1,430.4,151.9,430.4L151.9,430.4z M163.9,439.2c-0.6,0-1,0.5-1,1
		c0,0.3,0.2,0.6,0.4,0.8c0.3,0.2,0.6,0.4,1,0.6l0,0l0,0l0,0l0,0c0.8,0.5,1.5,1,2.3,1.5c0.2,0.1,0.3,0.2,0.5,0.2c0.6,0,1-0.5,1-1
		c0-0.3-0.2-0.7-0.5-0.8c-1.1-0.7-2.2-1.5-3.3-2.2C164.2,439.2,164,439.1,163.9,439.2L163.9,439.2z M176.6,447
		c-0.4,0-0.7,0.2-0.9,0.5c-0.3,0.5-0.1,1.1,0.4,1.4l0.4,0.2l0,0h0.1l0,0l0.2,0.1l0,0l0,0l0,0h0.1l0,0h0.1l0,0l0.1,0.1l0,0h0.1l0,0
		h0.1l0,0l0.2,0.1l0,0h0.1l0,0h0.1l0,0l2.1,1.2c0.5,0.3,1.1,0.1,1.4-0.4c0.3-0.5,0.1-1.1-0.4-1.4c0,0,0,0,0,0
		c-1.2-0.6-2.3-1.3-3.5-1.9c-0.2-0.1-0.3-0.1-0.5-0.1L176.6,447z M189.9,453.9c-0.6,0-1,0.4-1,1c0,0.4,0.2,0.7,0.6,0.9l1.3,0.6l0,0
		l0,0l0,0l0,0l0,0l0,0c0.7,0.3,1.4,0.7,2.1,1c0.1,0.1,0.3,0.1,0.4,0.1c0.4,0,0.7-0.2,0.9-0.6c0.2-0.5,0-1.1-0.5-1.3c0,0,0,0,0,0
		c-1.2-0.5-2.4-1.1-3.6-1.7c-0.1-0.1-0.3-0.1-0.4-0.1L189.9,453.9z M203.6,459.8c-0.6,0-1,0.4-1,1c0,0.4,0.3,0.8,0.7,1l3.1,1.1l0,0
		h0.1l0,0h0.1l0,0h0.1h0.1h0.1l0,0l0.4,0.1c0.5,0.2,1.1-0.1,1.3-0.6c0.2-0.5-0.1-1.1-0.6-1.3c-1.2-0.5-2.5-0.9-3.7-1.4
		c-0.1,0-0.2-0.1-0.4-0.1L203.6,459.8z M217.7,464.6c-0.5,0-0.9,0.3-1,0.7c-0.2,0.5,0.1,1.1,0.7,1.2c0,0,0,0,0,0l2,0.6l0,0l0,0h0.1
		l0,0l0,0h0.1h0.1l1.5,0.4c0.1,0,0.2,0,0.3,0c0.6,0.1,1.1-0.3,1.1-0.9c0.1-0.6-0.3-1.1-0.9-1.1c-1.3-0.4-2.5-0.7-3.8-1.1
		c-0.1,0-0.2,0-0.3,0L217.7,464.6z M232.2,468.3c-0.5,0-0.9,0.3-1,0.8c-0.1,0.5,0.2,1.1,0.8,1.2c0.6,0.1,1.1,0.2,1.7,0.4h0.1h0.1
		h0.2h0.2l0,0h0.1l0,0l1.5,0.3h0.2h0.2c0.6,0.1,1-0.3,1.1-0.9c0.1-0.6-0.3-1-0.9-1.1c-1.3-0.3-2.6-0.5-3.9-0.8c-0.1,0-0.1,0-0.2,0
		L232.2,468.3z M246.8,471c-0.6,0-1,0.4-1.1,0.9c0,0.6,0.4,1,0.9,1.1l0,0c1.3,0.2,2.6,0.4,4,0.5h0.1c0.6,0,1-0.4,1.1-0.9
		s-0.4-1-0.9-1.1c-1.3-0.2-2.6-0.3-3.9-0.5L246.8,471z M261.7,472.5c-0.6,0-1,0.4-1,1s0.4,1,1,1l1.6,0.1h0.4l1.1,0.1h0.4h0.5h0
		c0.6,0,1-0.4,1-1s-0.4-1-1-1C264.3,472.6,263,472.6,261.7,472.5L261.7,472.5z M280.6,472.9L280.6,472.9c-1.3,0-2.6,0.1-4,0.1
		c-0.6,0-1,0.4-1,1s0.4,1,1,1l0,0h1.7h1.3h1c0.6,0,1-0.4,1-1S281.2,473,280.6,472.9L280.6,472.9z M295.5,471.9h-0.1
		c-1.3,0.1-2.6,0.3-3.9,0.4c-0.6,0-1,0.5-1,1c0,0.6,0.5,1,1,1h0.1c1.1-0.1,2.3-0.2,3.4-0.3h0.3h0.3c0.6,0,1-0.5,0.9-1.1
		S296,471.9,295.5,471.9L295.5,471.9z M310.2,469.8h-0.2c-1.3,0.2-2.6,0.5-3.9,0.7c-0.6,0-1,0.5-0.9,1.1c0,0.6,0.5,1,1.1,0.9h0.1
		c1.3-0.2,2.6-0.4,4-0.7c0.6,0,1-0.5,0.9-1.1S310.8,469.8,310.2,469.8L310.2,469.8z M324.8,466.6c-0.1,0-0.2,0-0.2,0
		c-1.3,0.3-2.6,0.6-3.8,1c-0.5,0.1-0.9,0.7-0.8,1.2c0,0,0,0,0,0c0.1,0.5,0.5,0.8,1,0.8h0.2l0.6-0.1h0.1h0.1l0,0l2.1-0.5h0.3l0.7-0.2
		c0.6-0.1,0.9-0.6,0.9-1.1S325.4,466.7,324.8,466.6L324.8,466.6z M339.1,462.4c-0.1,0-0.2,0-0.3,0.1c-1.2,0.4-2.5,0.8-3.8,1.2
		c-0.6,0.1-0.9,0.6-0.8,1.2s0.6,0.9,1.2,0.8c0.1,0,0.2,0,0.3,0l0.4-0.1h0.1c0.8-0.3,1.7-0.5,2.5-0.8l0,0l0,0h0.1l0.7-0.2
		c0.5-0.2,0.8-0.7,0.6-1.3c-0.1-0.4-0.5-0.7-1-0.7L339.1,462.4z M353.1,457.1c-0.1,0-0.3,0-0.4,0.1c-1.2,0.5-2.4,1-3.7,1.5
		c-0.5,0.2-0.8,0.8-0.6,1.3c0,0,0,0,0,0c0.2,0.4,0.5,0.6,0.9,0.6c0.1,0,0.3,0,0.4-0.1l0.2-0.1l0,0h0.1l0,0l0.1-0.1l0,0h0.1l0,0l0,0
		l0,0l0,0l0,0h0.1l0,0l0,0h0.1l0,0h0.1l0,0l0,0l0,0h0.1l0,0h0.5l0,0l0,0h0.1h0.1l0,0h0.1l0,0h0.1h0.1l0,0l0,0h0.1l0,0h0.1h0.1l0,0
		l0,0h0.1l0,0h0.4l0,0h0.1l0,0l0,0h0.1l0,0h0.1l0,0l0,0h0h0.1l0,0l0,0l0,0l0,0h0.1l0,0l0,0l0,0l0,0l0,0l0,0l0,0h0l0,0h0.1l0,0h0l0,0
		h0l0,0h0l0,0l0.1,0l0,0c0.5-0.2,0.7-0.8,0.5-1.3c0,0,0,0,0,0c-0.2-0.4-0.5-0.6-0.9-0.6L353.1,457.1z M366.5,450.7
		c-0.2,0-0.3,0-0.5,0.1c-1.2,0.6-2.4,1.2-3.5,1.8c-0.5,0.3-0.7,0.9-0.4,1.3c0.2,0.3,0.5,0.5,0.9,0.5c0.2,0,0.3,0,0.4-0.1l0,0l0,0
		l0.2-0.1l0,0h0l0,0h0l0,0h0l0,0h0.1l0,0h0.1l0,0h0l0,0l0,0l0,0l0.1-0.1l0,0h0.1l0,0h0l0,0h0l0,0l0.2-0.1l0,0l2.3-1.2
		c0.5-0.3,0.7-0.9,0.4-1.4c-0.2-0.3-0.5-0.5-0.9-0.5L366.5,450.7z M379.5,443.3c-0.2,0-0.4,0.1-0.5,0.1c-1.1,0.7-2.2,1.4-3.4,2
		c-0.5,0.3-0.6,0.9-0.4,1.4c0,0,0,0,0,0c0.3,0.5,0.9,0.6,1.4,0.4c1.1-0.7,2.3-1.4,3.4-2.1c0.5-0.3,0.6-0.9,0.3-1.4
		C380.2,443.5,379.9,443.3,379.5,443.3z M391.9,435c-0.2,0-0.4,0.1-0.6,0.2c-1.1,0.8-2.1,1.5-3.2,2.3c-0.5,0.3-0.6,0.9-0.2,1.4
		c0.2,0.3,0.5,0.4,0.8,0.4c0.2,0,0.4-0.1,0.6-0.2l0,0l0.1,0l0,0l0,0l0,0l0,0l0,0l0,0h0.1l0,0l0.2-0.1l0,0h0.1l0,0l1.4-0.9l0,0h0.1
		l0,0l0.1-0.1l0,0h0l0,0l0,0l0,0l0,0l0,0l0,0l0.1-0.1l0,0l0,0l0,0l1-0.7c0.4-0.3,0.5-0.9,0.2-1.4c0,0,0,0,0,0
		c-0.2-0.3-0.5-0.4-0.8-0.4L391.9,435z M403.7,425.8c-0.2,0-0.5,0.1-0.6,0.2c-1,0.9-2,1.7-3,2.5c-0.4,0.3-0.5,1-0.1,1.4
		c0.3,0.4,1,0.5,1.4,0.2c0,0,0,0,0,0l0.7-0.6l0,0l0.2-0.2l0,0l0,0l0,0l0,0l0,0l0,0l0,0l0.1-0.1l0,0l0,0l0,0l0,0l0,0l0,0l0,0l0,0l0,0
		l0,0l0,0l0,0l0,0l0,0l0,0l0,0l0,0l0,0l0,0h0l0,0l0,0l0,0l0,0l0,0l0,0l0,0l0,0l0,0l0.1-0.1l0,0l0,0l0,0l0,0l0,0l0,0l0,0l0.9-0.8
		c0.4-0.4,0.5-1,0.1-1.4c-0.2-0.2-0.5-0.4-0.8-0.4L403.7,425.8z M414.7,415.7c-0.3,0-0.5,0.1-0.7,0.3c-0.9,0.9-1.9,1.8-2.9,2.8
		c-0.4,0.4-0.4,1,0,1.4c0.2,0.2,0.4,0.3,0.7,0.3c0.3,0,0.5-0.1,0.7-0.3c0.5-0.5,1.1-1,1.6-1.6l0,0l0,0l0,0l0,0l0,0l0,0l0,0l0,0
		l0.1-0.1l0,0l0,0l0,0l0,0l0,0l0.9-0.9c0.4-0.4,0.4-1,0-1.4c-0.2-0.2-0.4-0.3-0.7-0.3L414.7,415.7z M424.9,404.8
		c-0.3,0-0.6,0.1-0.8,0.3c-0.9,1-1.8,2-2.6,3c-0.4,0.4-0.4,1,0.1,1.4c0.2,0.2,0.4,0.3,0.7,0.3c0.3,0,0.6-0.1,0.7-0.3
		c0.9-1,1.8-2,2.7-3c0.4-0.4,0.3-1-0.1-1.4C425.4,404.9,425.1,404.8,424.9,404.8L424.9,404.8z M434.3,393.2c-0.3,0-0.6,0.1-0.8,0.4
		c-0.8,1-1.6,2.1-2.4,3.1c-0.3,0.4-0.3,1.1,0.2,1.4c0.2,0.1,0.4,0.2,0.6,0.2c0.3,0,0.6-0.1,0.8-0.4c0.8-1,1.6-2.1,2.4-3.2
		c0.3-0.4,0.2-1.1-0.2-1.4C434.7,393.3,434.5,393.2,434.3,393.2L434.3,393.2z M442.8,381c-0.3,0-0.7,0.2-0.8,0.5
		c-0.7,1.1-1.4,2.2-2.2,3.3c-0.3,0.5-0.2,1.1,0.3,1.4c0.2,0.1,0.4,0.2,0.5,0.2c0.3,0,0.6-0.2,0.8-0.4l0,0l0,0l0.1-0.1l0,0v-0.1l0,0
		v0l0,0c0.7-1,1.3-2,2-3.1c0.3-0.5,0.2-1.1-0.3-1.4c-0.2-0.1-0.3-0.2-0.5-0.2L442.8,381z M450.4,368.1c-0.4,0-0.7,0.2-0.9,0.5
		c-0.6,1.2-1.3,2.3-1.9,3.5c-0.3,0.5-0.1,1.1,0.4,1.4c0.1,0.1,0.3,0.1,0.5,0.1c0.4,0,0.7-0.2,0.9-0.5l0,0l0,0l0,0V373l0,0v0l0,0v0
		l0,0c0.3-0.5,0.5-1,0.8-1.5l0,0v0l0,0l0,0l0,0l0,0l0,0l0,0v-0.1l0,0l0,0l0,0v0l0,0v-0.1l0,0l0.7-1.3c0.3-0.5,0.1-1.1-0.4-1.4
		c-0.1-0.1-0.3-0.1-0.5-0.1L450.4,368.1z M456.9,354.7c-0.4,0-0.7,0.2-0.9,0.6c-0.5,1.2-1.1,2.4-1.6,3.6c-0.2,0.5,0,1.1,0.5,1.3
		c0.1,0.1,0.3,0.1,0.4,0.1c0.4,0,0.7-0.2,0.9-0.6c0-0.1,0.1-0.2,0.1-0.3l0,0v0l0,0v0l0,0l0,0v-0.1l0,0l0,0l0,0l0,0l0,0l0.7-1.3l0,0
		v0l0,0v0l0,0l0,0l0,0v0l0,0l0,0v0l0,0v0l0,0l0.6-1.3c0.2-0.5,0-1.1-0.5-1.3c-0.1-0.1-0.3-0.1-0.4-0.1L456.9,354.7z M462.5,340.9
		c-0.4,0-0.8,0.2-1,0.7c-0.4,1.2-0.9,2.5-1.4,3.7c-0.2,0.5,0.1,1.1,0.6,1.3c0,0,0,0,0,0c0.1,0,0.2,0.1,0.4,0.1c0.4,0,0.8-0.2,1-0.6
		c0.4-1,0.7-1.9,1.1-2.9l0,0l0,0V343l0.3-0.8c0.2-0.5-0.1-1.1-0.6-1.3c0,0,0,0,0,0C462.6,340.9,462.5,340.9,462.5,340.9L462.5,340.9
		z M467,326.7c-0.5,0-0.9,0.3-1,0.7c-0.3,1.3-0.7,2.5-1.1,3.8c-0.2,0.5,0.1,1.1,0.7,1.2c0.1,0,0.2,0,0.3,0c0.5,0,0.9-0.3,1-0.7
		l0.1-0.3l0,0v-0.1l0,0v-0.1v-0.2l0,0c0.3-1.1,0.6-2.2,0.9-3.2c0.1-0.5-0.2-1.1-0.7-1.2c0,0,0,0,0,0
		C467.1,326.7,467,326.7,467,326.7L467,326.7z M470.4,312.2c-0.5,0-0.9,0.3-1,0.8c-0.2,1.3-0.5,2.6-0.8,3.9
		c-0.1,0.5,0.2,1.1,0.8,1.2c0,0,0,0,0,0c0.1,0,0.1,0,0.2,0c0.5,0,0.9-0.3,1-0.8c0.1-0.5,0.2-0.9,0.3-1.4l0,0v-0.1v-0.1v-0.1l0,0
		v-0.2l0,0c0.1-0.7,0.3-1.4,0.4-2l0,0v-0.1C471.4,312.8,471,312.3,470.4,312.2C470.5,312.2,470.5,312.2,470.4,312.2l-0.1,0
		L470.4,312.2z M472.7,297.4c-0.5,0-0.9,0.4-1,0.9c-0.1,1.3-0.3,2.6-0.5,3.9c-0.1,0.5,0.3,1.1,0.9,1.1c0,0,0,0,0,0h0.1
		c0.5,0,0.9-0.4,1-0.9c0.2-1.1,0.3-2.3,0.4-3.4l0,0V299l0,0v-0.2v-0.3C473.7,298,473.3,297.5,472.7,297.4
		C472.7,297.4,472.7,297.4,472.7,297.4L472.7,297.4z M473.9,282.6c-0.5,0-1,0.4-1,1c0,1.3-0.1,2.6-0.2,4c0,0.6,0.4,1,0.9,1.1
		c0,0,0,0,0,0h0.1c0.5,0,1-0.4,1-0.9l0.1-1v-0.1c0-1,0.1-1.9,0.1-2.9C474.9,283,474.4,282.6,473.9,282.6L473.9,282.6z M473.9,267.6
		L473.9,267.6c-0.6,0-1,0.4-1,1c0,1.3,0.1,2.6,0.1,4c0,0.6,0.4,1,1,1l0,0c0.6,0,1-0.4,1-1c0-1.4,0-2.7-0.1-4
		C474.9,268.1,474.5,267.6,473.9,267.6z M472.9,252.7h-0.1c-0.5,0.1-0.9,0.5-0.9,1.1c0,0,0,0,0,0c0.1,1.3,0.3,2.6,0.4,3.9
		c0,0.5,0.5,0.9,1,0.9h0.1c0.5,0,1-0.5,0.9-1.1c0-0.4-0.1-0.8-0.1-1.1l0,0v-0.1l0,0v-0.2v-1.7l0,0v-0.1l0,0c0-0.3,0-0.5-0.1-0.8
		c-0.1-0.5-0.5-0.9-1-0.9L472.9,252.7z M470.8,238h-0.2c-0.5,0.1-0.9,0.6-0.8,1.2c0,0,0,0,0,0c0.2,1.3,0.5,2.6,0.7,3.9
		c0.1,0.5,0.5,0.8,1,0.8h0.2c0.5-0.1,0.9-0.6,0.8-1.1c0,0,0,0,0,0c-0.1-0.6-0.2-1.2-0.3-1.9l0,0v-0.1v-0.2l0,0
		c-0.1-0.5-0.2-1-0.3-1.5l0,0V239v-0.2c-0.1-0.5-0.5-0.8-1-0.8L470.8,238z M467.5,223.4c-0.1,0-0.2,0-0.2,0
		c-0.5,0.1-0.9,0.7-0.7,1.2c0,0,0,0,0,0c0.3,1.3,0.7,2.6,1,3.8c0.1,0.5,0.5,0.8,1,0.8c0.1,0,0.2,0,0.2,0c0.5-0.1,0.9-0.7,0.7-1.2
		c0,0,0,0,0,0c-0.1-0.5-0.2-1-0.4-1.4l0,0v-0.2v-0.2c-0.2-0.7-0.4-1.4-0.5-2.1c-0.1-0.4-0.5-0.8-1-0.7L467.5,223.4z M463.2,209.2
		c-0.1,0-0.2,0-0.3,0c-0.5,0.2-0.8,0.7-0.6,1.3c0.4,1.2,0.9,2.5,1.2,3.8c0.1,0.4,0.5,0.7,1,0.7c0.1,0,0.2,0,0.3,0
		c0.5-0.2,0.8-0.7,0.6-1.2l0,0l0,0v-0.1l0,0v-0.1v-0.1l0,0v-0.1l0,0c-0.4-1.2-0.8-2.3-1.2-3.5C464.1,209.5,463.7,209.2,463.2,209.2
		L463.2,209.2z M457.8,195.2c-0.1,0-0.3,0-0.4,0.1c-0.5,0.2-0.7,0.8-0.5,1.3c0.5,1.2,1,2.4,1.5,3.6c0.2,0.5,0.8,0.8,1.3,0.6
		c0.5-0.2,0.8-0.8,0.5-1.3l-0.3-0.6l0,0v-0.1l0,0l0,0l0,0l-0.1-0.1l0,0l0,0l0,0l0,0v-0.1l0,0l-0.1-0.2l0,0v-0.1l0,0
		c-0.3-0.8-0.6-1.5-1-2.3c-0.2-0.4-0.5-0.6-0.9-0.6L457.8,195.2z M451.4,181.8c-0.2,0-0.3,0-0.5,0.1c-0.5,0.3-0.7,0.9-0.4,1.4
		c0.6,1.2,1.2,2.4,1.8,3.5c0.2,0.3,0.5,0.6,0.9,0.6c0.2,0,0.3,0,0.4-0.1c0.5-0.2,0.7-0.8,0.5-1.3c0,0,0,0,0,0
		c-0.2-0.4-0.4-0.8-0.6-1.1l0,0l0,0l0,0l0,0c-0.3-0.6-0.6-1.2-0.9-1.8l0,0v-0.1l0,0l0,0l-0.2-0.4c-0.2-0.3-0.5-0.5-0.9-0.5
		L451.4,181.8z M443.9,168.8c-0.2,0-0.4,0.1-0.5,0.1c-0.5,0.3-0.6,0.9-0.3,1.4c0,0,0,0,0,0c0.7,1.1,1.4,2.2,2.1,3.4
		c0.2,0.3,0.5,0.5,0.9,0.5c0.2,0,0.4-0.1,0.5-0.1c0.5-0.3,0.6-0.9,0.4-1.4l-0.6-1l0,0v-0.1l0,0v-0.1l0,0v-0.1l0,0l0,0l0,0l0,0l0,0
		l0,0c-0.4-0.7-0.9-1.4-1.3-2.1c-0.2-0.3-0.5-0.5-0.9-0.5L443.9,168.8z M435.6,156.4c-0.2,0-0.4,0.1-0.6,0.2
		c-0.4,0.3-0.5,0.9-0.2,1.4c0,0,0,0,0,0c0.8,1.1,1.6,2.1,2.3,3.2c0.2,0.3,0.5,0.4,0.8,0.4c0.2,0,0.4-0.1,0.6-0.2
		c0.5-0.3,0.6-0.9,0.3-1.4c0,0,0,0,0,0c-0.8-1.1-1.5-2.2-2.3-3.2C436.2,156.6,435.9,156.4,435.6,156.4L435.6,156.4z M426.3,144.7
		c-0.6,0-1,0.4-1,1c0,0.2,0.1,0.5,0.2,0.7c0.9,1,1.7,2,2.5,3c0.2,0.2,0.5,0.4,0.8,0.4c0.2,0,0.5-0.1,0.6-0.2c0.4-0.3,0.5-1,0.1-1.4
		l-1.9-2.2l0,0l0,0l0,0l0,0l0,0l0,0l0,0l0,0l0,0l0,0l0,0l0,0l0,0l0,0l0,0l0,0c-0.1-0.1-0.1-0.1-0.2-0.2l0,0l-0.2-0.2
		c-0.2-0.2-0.5-0.4-0.8-0.4L426.3,144.7z M416.2,133.7c-0.3,0-0.5,0.1-0.7,0.3c-0.4,0.4-0.4,1,0,1.4c0.9,0.9,1.9,1.9,2.8,2.8
		c0.2,0.2,0.4,0.3,0.7,0.3c0.3,0,0.5-0.1,0.7-0.3c0.4-0.4,0.4-1,0-1.4l-1-1.1l0,0l0,0l0,0l0,0l0,0l0,0l0,0l0,0l0,0l0,0h0l0,0
		l-1.5-1.5c-0.2-0.2-0.4-0.3-0.7-0.3L416.2,133.7z M405.3,123.5c-0.3,0-0.6,0.1-0.8,0.3c-0.4,0.4-0.3,1,0.1,1.4c1,0.9,2,1.7,3,2.6
		c0.2,0.2,0.4,0.3,0.7,0.3c0.6,0,1-0.4,1-1c0-0.3-0.1-0.6-0.3-0.7l-0.4-0.3l0,0h0l0,0l0,0l0,0l0,0l0,0l0,0l-1.9-1.7l0,0l0,0l0,0l0,0
		l0,0l0,0l0,0h-0.1l0,0l0,0l0,0l0,0l0,0l0,0l0,0l0,0l0,0l0,0l0-0.1c-0.2-0.2-0.4-0.2-0.7-0.2L405.3,123.5z M393.7,114.2
		c-0.6,0-1,0.4-1,1c0,0.3,0.1,0.6,0.4,0.8c1.1,0.8,2.1,1.6,3.2,2.4c0.2,0.1,0.4,0.2,0.6,0.2c0.6,0,1-0.5,1-1c0-0.3-0.1-0.6-0.4-0.8
		c-1.1-0.8-2.1-1.6-3.2-2.4C394.1,114.3,393.9,114.2,393.7,114.2L393.7,114.2z M381.4,105.7c-0.3,0-0.7,0.2-0.9,0.5
		c-0.3,0.5-0.2,1.1,0.3,1.4c0,0,0,0,0,0c1.1,0.7,2.2,1.4,3.3,2.2c0.2,0.1,0.4,0.2,0.5,0.2c0.3,0,0.7-0.2,0.8-0.4
		c0.3-0.5,0.2-1.1-0.3-1.4c0,0,0,0,0,0l-1.8-1.1l0,0l-0.1-0.1l0,0h0l0,0l0,0l0,0l0,0l0,0l0,0l-1.2-0.8c-0.2-0.1-0.3-0.2-0.5-0.2
		L381.4,105.7z M368.5,98.2c-0.6,0-1,0.5-1,1c0,0.4,0.2,0.7,0.5,0.9c1.2,0.6,2.3,1.3,3.5,1.9c0.1,0.1,0.3,0.1,0.5,0.1
		c0.6,0,1-0.5,1-1c0-0.4-0.2-0.7-0.5-0.9l-1.7-0.9l0,0l0,0l0,0l0,0l0,0l-0.1-0.1l0,0l0,0l0,0l0,0h0l0,0l-1.4-0.8
		c-0.1-0.1-0.3-0.1-0.5-0.1L368.5,98.2z M355.1,91.7c-0.6,0-1,0.4-1,1c0,0.4,0.2,0.8,0.6,0.9c1.2,0.5,2.4,1.1,3.6,1.6
		c0.1,0.1,0.3,0.1,0.4,0.1c0.6,0,1-0.5,1-1c0-0.4-0.2-0.7-0.6-0.9c-1.2-0.6-2.4-1.1-3.7-1.7C355.3,91.7,355.2,91.7,355.1,91.7
		L355.1,91.7z M341.2,86.2c-0.4,0-0.8,0.3-0.9,0.7c-0.2,0.5,0.1,1.1,0.6,1.3c0,0,0,0,0,0c1.2,0.4,2.5,0.9,3.7,1.3
		c0.1,0,0.2,0.1,0.4,0.1c0.6,0,1-0.4,1-1c0-0.4-0.3-0.8-0.7-1l-3.1-1.1l0,0h-0.1l0,0h0l-0.6-0.2C341.4,86.3,341.3,86.3,341.2,86.2
		L341.2,86.2z M326.9,81.8c-0.6-0.1-1.1,0.3-1.1,0.9s0.3,1.1,0.9,1.1c1.3,0.3,2.5,0.7,3.8,1.1c0.1,0,0.2,0,0.3,0
		c0.6,0.1,1.1-0.3,1.1-0.9c0.1-0.6-0.3-1.1-0.9-1.1l-0.3-0.1h-0.1l-2.8-0.8l0,0h-0.1l0,0h-0.1h-0.1l-0.4-0.1c-0.1,0-0.2,0-0.3,0
		L326.9,81.8z M312.4,78.5c-0.6-0.1-1,0.4-1.1,0.9s0.4,1,0.9,1.1c1.3,0.2,2.6,0.5,3.9,0.8h0.2c0.6,0.1,1-0.3,1.1-0.9
		c0.1-0.6-0.3-1-0.9-1.1h-0.2h-0.1h-0.1h-0.2l0,0l-2.5-0.5h-0.1l-0.7-0.1h-0.2V78.5z M297.6,76.3c-0.6,0-1,0.4-1.1,0.9
		s0.4,1,0.9,1.1l0,0c1.3,0.1,2.6,0.3,3.9,0.5h0.1c0.5,0,0.9-0.4,1-0.9c0.1-0.5-0.3-1-0.9-1.1l-0.8-0.1h-0.1h-0.1h-0.4
		c-0.8-0.1-1.7-0.2-2.5-0.3L297.6,76.3z M282.8,75.1c-0.6,0-1,0.4-1,1s0.4,1,1,1c1.3,0,2.6,0.1,4,0.2h0.1c0.5,0,1-0.4,1-0.9
		c0-0.5-0.4-1-0.9-1.1h-0.5H286l-1.1-0.1h-0.5L282.8,75.1L282.8,75.1z"/>
</g>
<g class="st2">
	<path class="st1" d="M260.1,136.8H260c-1.3,0.1-2.7,0.3-4,0.5c-0.6,0-1,0.5-0.9,1.1s0.5,1,1.1,0.9h0.1c1.3-0.2,2.6-0.3,3.9-0.5
		c0.6,0,1-0.5,0.9-1.1S260.6,136.8,260.1,136.8L260.1,136.8z M245.4,139.2h-0.2h-0.1H245l0,0c-0.9,0.2-1.7,0.4-2.6,0.6l0,0h-0.1l0,0
		l-0.4,0.1l0,0c-0.2,0.1-0.5,0.1-0.7,0.2c-0.6,0.1-0.9,0.6-0.9,1.1c0.1,0.6,0.6,0.9,1.1,0.9h0.2c1.3-0.3,2.6-0.6,3.8-0.9
		c0.6-0.1,1-0.6,0.9-1.1C246.5,139.5,246,139.1,245.4,139.2L245.4,139.2z M231.1,143.2c-0.1,0-0.2,0-0.3,0.1
		c-1.3,0.4-2.5,0.9-3.8,1.3c-0.5,0.2-0.8,0.8-0.6,1.3c0.1,0.4,0.5,0.7,0.9,0.7c0.1,0,0.2,0,0.3-0.1c1.2-0.4,2.5-0.9,3.7-1.3
		c0.6-0.1,0.9-0.6,0.8-1.2S231.6,143,231.1,143.2L231.1,143.2z M217.3,148.7c-0.1,0-0.3,0-0.4,0.1l-0.4,0.2l0,0l0,0l0,0l0,0l0,0l0,0
		l0,0l0,0l0,0l0,0l0,0l0,0H216l0,0l0,0l0,0l0,0h-0.1l0,0h-0.1h-0.1l0,0l0,0l0,0l0,0h-0.1l0,0l0,0h-0.1l0,0l0,0l0,0l0,0h-0.1h-0.1
		l0,0h-0.1l-0.1,0.1h-0.1l0,0h-0.1l0,0l0,0L215,149l0,0l0,0l0,0l0,0l0,0l0,0l0,0l-0.1,0.1l0,0l0,0l0,0l0,0l0,0l0,0l0,0l-0.2,0.1
		h-0.1l0,0h-0.1h-0.1l0,0l0,0h-0.1l0,0l0,0l-0.3,0.2c-0.5,0.2-0.7,0.8-0.4,1.3c0.2,0.3,0.5,0.6,0.9,0.6c0.2,0,0.3,0,0.4-0.1
		c1.2-0.6,2.4-1.1,3.6-1.7c0.5-0.2,0.7-0.8,0.5-1.3c-0.2-0.4-0.5-0.6-0.9-0.6L217.3,148.7z M204.1,155.7c-0.2,0-0.4,0.1-0.5,0.1
		l-0.4,0.2l0,0l0,0l0,0l0,0l0,0l0,0l0,0l0,0l0,0l0,0l0,0l0,0c-0.9,0.6-1.8,1.1-2.8,1.7c-0.5,0.3-0.6,0.9-0.3,1.4
		c0.2,0.3,0.5,0.5,0.8,0.5c0.2,0,0.4-0.1,0.5-0.1c1.1-0.7,2.2-1.4,3.4-2.1c0.5-0.3,0.6-0.9,0.3-1.4c-0.2-0.3-0.5-0.5-0.9-0.5
		L204.1,155.7z M191.8,164c-0.2,0-0.4,0.1-0.6,0.2l-0.8,0.6l0,0h-0.1l0,0l0,0l0,0h-0.1l0,0l-0.1,0.1l0,0l0,0l0,0l0,0l0,0l0,0l0,0
		l0,0l0,0l0,0l0,0l0,0l0,0l0,0l0,0l0,0l0,0l0,0h-0.1l0,0l0,0l0,0l0,0l0,0l0,0l0,0l-0.1,0.1l0,0l0,0l0,0l0,0l0,0l-0.2,0.1l0,0l0,0
		l0,0l0,0l0,0l-0.1,0.1l0,0l0,0l0,0l0,0l0,0l0,0l0,0l-0.1,0.1l0,0l0,0l0,0l0,0l0,0l0,0l0,0l0,0l0,0l0,0l0,0l0,0l0,0l0,0l0,0l0,0l0,0
		l0,0l-0.2,0.2c-0.4,0.3-0.5,1-0.2,1.4c0,0,0,0,0,0c0.2,0.2,0.5,0.4,0.8,0.4c0.2,0,0.4-0.1,0.6-0.2c1-0.8,2.1-1.6,3.1-2.4
		c0.4-0.3,0.5-1,0.2-1.4c-0.2-0.2-0.5-0.4-0.8-0.4L191.8,164z M180.4,173.6c-0.3,0-0.5,0.1-0.7,0.3l-0.1,0.1l0,0l0,0l0,0l0,0l0,0
		l0,0l0,0l-0.1,0.1l0,0l0,0l0,0l0,0l0,0l0,0l0,0l-0.1,0.1l0,0l0,0l0,0l0,0l0,0l0,0l0,0l0,0l0,0l0,0l0,0l0,0l0,0l0,0l0,0l0,0l0,0l0,0
		l0,0l0,0l0,0l0,0l0,0l0,0l0,0l0,0l0,0l0,0l0,0l0,0l0,0l0,0l0,0l0,0l0,0l0,0l0,0l-0.1,0.1l0,0l0,0l0,0l0,0l0,0l0,0l0,0l-0.1,0.1l0,0
		l0,0l0,0l0,0l0,0l0,0l0,0l-1.1,1.1c-0.4,0.4-0.4,1,0,1.4c0.2,0.2,0.4,0.3,0.7,0.3c0.3,0,0.5-0.1,0.7-0.3c0.9-0.9,1.9-1.9,2.8-2.8
		c0.4-0.4,0.4-1,0-1.4c-0.2-0.2-0.4-0.3-0.7-0.3L180.4,173.6z M170.1,184.3c-0.3,0-0.6,0.1-0.8,0.4l0,0l0,0l0,0l0,0l-0.1,0.1l0,0
		l0,0l0,0l0,0l0,0l0,0l0,0l0,0L169,185l0,0l0,0l0,0l0,0l0,0c-0.7,0.8-1.3,1.6-2,2.4l0,0l0,0l0,0l0,0l0,0l0,0v0.1l0,0
		c-0.3,0.4-0.3,1.1,0.2,1.4c0.2,0.1,0.4,0.2,0.6,0.2c0.3,0,0.6-0.1,0.8-0.4c0.8-1,1.7-2,2.5-3c0.4-0.4,0.3-1.1-0.1-1.4
		c-0.2-0.2-0.4-0.2-0.7-0.2L170.1,184.3z M161.1,196.1c-0.3,0-0.6,0.2-0.8,0.4c-0.4,0.6-0.8,1.1-1.1,1.7l0,0l0,0l0,0l0,0l0,0l0,0
		l0,0v0.1l0,0l0,0l0,0l0,0l0,0l0,0l0,0l0,0l-0.8,1.2c-0.3,0.5-0.2,1.1,0.3,1.4c0.2,0.1,0.3,0.2,0.5,0.2c0.3,0,0.7-0.2,0.8-0.5
		c0.7-1.1,1.4-2.2,2.2-3.3c0.3-0.5,0.2-1.1-0.3-1.4c-0.2-0.1-0.4-0.2-0.6-0.2L161.1,196.1z M153.3,208.8c-0.4,0-0.7,0.2-0.9,0.5v0.1
		l0,0l0,0l0,0l-0.1,0.2l0,0l0,0l0,0l0,0l0,0l0,0l0,0l-0.1,0.1l0,0l0,0l0,0l0,0l0,0l0,0l0,0l-0.1,0.2l0,0l0,0l0,0l0,0l0,0l-0.1,0.2
		l0,0l-0.6,1.2l0,0L151,212l0,0l0,0l0,0l0,0v0.1l0,0l0,0l0,0l0,0v0.1l0,0v0.1l0,0c-0.1,0.2-0.2,0.3-0.2,0.5
		c-0.3,0.5-0.1,1.1,0.4,1.3c0,0,0,0,0,0c0.1,0.1,0.3,0.1,0.4,0.1c0.4,0,0.7-0.2,0.9-0.6c0.6-1.2,1.2-2.4,1.8-3.5
		c0.3-0.5,0.1-1.1-0.4-1.4c-0.1-0.1-0.3-0.1-0.5-0.1L153.3,208.8z M147,222.3c-0.4,0-0.8,0.2-0.9,0.6c-0.2,0.4-0.3,0.8-0.5,1.2l0,0
		l0,0l0,0v0.1l0,0l-0.1,0.2l0,0l0,0l0,0v0.1v0.1l0,0v0.2l0,0l0,0l-0.1,0.1l0,0l0,0l0,0v0.1l0,0v0.1l0,0l-0.1,0.2l0,0
		c-0.1,0.4-0.3,0.8-0.4,1.2c-0.2,0.5,0.1,1.1,0.6,1.3c0.1,0,0.2,0.1,0.3,0.1c0.4,0,0.8-0.3,0.9-0.7c0.5-1.2,0.9-2.5,1.4-3.7
		c0.2-0.5,0-1.1-0.6-1.3c0,0,0,0,0,0c-0.1,0-0.2-0.1-0.4-0.1L147,222.3z M142.2,236.4c-0.5,0-0.9,0.3-1,0.7c-0.4,1.3-0.7,2.6-1,3.9
		c-0.1,0.5,0.2,1.1,0.7,1.2c0.5,0.1,1.1-0.2,1.2-0.7c0.3-1.3,0.7-2.6,1-3.8c0.2-0.5-0.2-1.1-0.7-1.2c0,0,0,0,0,0
		C142.3,236.4,142.2,236.4,142.2,236.4L142.2,236.4z M138.9,250.9c-0.5,0-0.9,0.3-1,0.8v0.1l0,0v0.4l0,0v0.1l0,0l0,0l0,0l0,0l0,0
		l0,0l0,0c-0.1,0.5-0.2,1-0.2,1.6l0,0v0.2l0,0l0,0l0,0l0,0l0,0l0,0l0,0v0.1v0.3l0,0c-0.1,0.4-0.1,0.7-0.2,1.1
		c-0.1,0.5,0.3,1.1,0.9,1.1h0.1c0.5,0,0.9-0.4,1-0.9c0.2-1.3,0.4-2.6,0.6-3.9c0.1-0.5-0.3-1.1-0.8-1.1L138.9,250.9z M137.2,265.7
		c-0.5,0-1,0.4-1,0.9c-0.1,0.9-0.1,1.7-0.1,2.5l0,0v0.4l0,0v0.1l0,0v0.1l0,0v0.2l0,0v0.1l0,0c0,0.1,0,0.2,0,0.2l0,0v0.1l0,0v0.1l0,0
		v0l0,0v0.1l0,0c0,0.6,0.4,1,1,1l0,0c0.6,0,1-0.4,1-1c0-1.3,0.1-2.6,0.2-3.9c0-0.5-0.4-1-0.9-1L137.2,265.7z M137.1,280.6
		L137.1,280.6c-0.6,0-1,0.4-1,1c0.1,1.3,0.1,2.7,0.2,4c0,0.5,0.5,0.9,1,0.9h0.1c0.6,0,1-0.5,0.9-1.1c0,0,0,0,0,0
		c-0.1-1.3-0.2-2.6-0.2-3.9C138.1,281,137.7,280.5,137.1,280.6L137.1,280.6z M138.6,295.4h-0.2c-0.5,0.1-0.9,0.6-0.8,1.1l0.2,1.3
		l0,0v0.1l0,0v0.2v0.1l0,0l0,0l0,0v0l0,0v0l0,0c0.1,0.7,0.2,1.4,0.4,2.1c0.1,0.5,0.5,0.8,1,0.8c0.1,0,0.1,0,0.2,0
		c0.5-0.1,0.9-0.6,0.8-1.2c-0.2-1.3-0.5-2.6-0.7-3.9C139.5,295.7,139,295.3,138.6,295.4L138.6,295.4z M141.7,310h-0.3
		c-0.5,0.1-0.8,0.7-0.7,1.2c0,0,0,0,0,0c0.1,0.2,0.1,0.5,0.2,0.7l0,0v0.1l0,0v0.1l0,0v0.1l0,0v0.3v0.1l0,0v0.1l0,0l0,0l0,0l0.1,0.2
		l0,0v0l0,0v0l0,0c0.2,0.7,0.4,1.3,0.6,2c0.1,0.4,0.5,0.7,1,0.7c0.1,0,0.2,0,0.3,0c0.5-0.2,0.8-0.7,0.7-1.2
		c-0.4-1.2-0.7-2.5-1.1-3.8c-0.1-0.4-0.5-0.8-1-0.7L141.7,310z M146.4,324.1c-0.1,0-0.2,0-0.4,0.1c-0.5,0.2-0.8,0.8-0.6,1.3l0.1,0.1
		v0.2l0,0v0.1l0,0l0,0l0,0v0.1l0,0l0,0v0.1l0,0l0,0v0.1l0,0l0,0l0,0v0l0,0v0.1l0,0v0l0,0v0l0,0v0l0,0l0.1,0.2l0,0v0l0,0l0,0l0,0l0,0
		l0,0l0.1,0.2l0,0v0l0,0v0l0,0c0.2,0.6,0.5,1.2,0.7,1.8c0.2,0.4,0.5,0.6,0.9,0.6c0.1,0,0.3,0,0.4-0.1c0.5-0.2,0.7-0.8,0.5-1.3
		c-0.5-1.2-1-2.4-1.5-3.6c-0.1-0.4-0.5-0.6-0.9-0.6L146.4,324.1z M152.5,337.7c-0.2,0-0.3,0-0.5,0.1c-0.5,0.3-0.7,0.9-0.4,1.3
		c0.4,0.8,0.9,1.7,1.4,2.5l0,0l0,0l0,0l0.1,0.1l0,0l0,0v0l0,0l0,0l0,0l0,0l0,0l0,0l0,0l0,0l0,0l0,0l0,0l0,0l0,0l0,0l0.2,0.4
		c0.2,0.3,0.5,0.5,0.9,0.5c0.2,0,0.3,0,0.5-0.1c0.5-0.3,0.6-0.9,0.4-1.4c-0.6-1.1-1.3-2.3-1.9-3.5c-0.2-0.3-0.5-0.5-0.9-0.5
		L152.5,337.7z M160.1,350.5c-0.6,0-1,0.4-1,1c0,0.2,0.1,0.4,0.2,0.6l0,0l0,0l0,0l0,0l0,0l0,0l0,0c0.5,0.8,1.1,1.5,1.6,2.3l0,0l0,0
		l0,0l0,0l0,0l0,0l0,0v0l0,0l0,0l0,0l0,0l0,0l0,0l0,0l0,0l0.3,0.5c0.2,0.3,0.5,0.4,0.8,0.4c0.2,0,0.4-0.1,0.6-0.2
		c0.4-0.3,0.6-0.9,0.2-1.4c-0.8-1.1-1.5-2.2-2.2-3.2c-0.2-0.3-0.5-0.5-0.8-0.5L160.1,350.5z M169,362.4c-0.6,0-1,0.4-1,1
		c0,0.2,0.1,0.5,0.2,0.6l0,0l0,0l0,0l0,0l0,0l0,0c0.5,0.6,1,1.2,1.6,1.8l0,0l0,0l0,0l0,0l0,0l0,0l0,0l0.1,0.1l0,0l0,0l0,0l0,0l0,0
		l0,0l0,0l0,0l0,0l0,0l0,0l0,0l0,0l0,0l0,0l0,0l0,0l0,0l0.1,0.1l0,0l0,0l0,0l0,0l0,0l0,0l0,0l0,0l0,0l0,0l0,0l0,0l0,0l0,0l0,0l0,0
		l0,0l0,0l0,0c0.2,0.2,0.5,0.3,0.7,0.3c0.6,0,1-0.4,1-1c0-0.2-0.1-0.5-0.2-0.7c-0.9-1-1.7-2-2.6-3c-0.2-0.2-0.5-0.4-0.8-0.4
		L169,362.4z M179.1,373.3c-0.3,0-0.5,0.1-0.7,0.3c-0.4,0.4-0.4,1,0,1.4c0,0,0,0,0,0c0.8,0.8,1.6,1.5,2.4,2.2l0,0l0,0l0,0l0,0l0,0
		l0,0l0,0l0,0l0,0l0,0l0,0l0,0l0,0l0,0l0.3,0.2c0.2,0.2,0.4,0.3,0.7,0.3c0.3,0,0.5-0.1,0.7-0.3c0.4-0.4,0.3-1-0.1-1.4c0,0,0,0,0,0
		c-1-0.9-1.9-1.8-2.9-2.7c-0.2-0.2-0.4-0.3-0.7-0.3L179.1,373.3z M190.4,383c-0.3,0-0.6,0.1-0.8,0.4c-0.3,0.4-0.3,1.1,0.2,1.4
		c1.1,0.8,2.1,1.6,3.2,2.4c0.2,0.1,0.4,0.2,0.6,0.2c0.6,0,1-0.4,1-1c0-0.3-0.2-0.6-0.4-0.8c-1-0.8-2.1-1.6-3.1-2.4
		C190.8,383.1,190.6,383,190.4,383L190.4,383z M202.6,391.5c-0.6,0-1,0.4-1,1c0,0.4,0.2,0.7,0.5,0.9l0.9,0.6l0,0l0,0l0,0l0,0l0,0
		l0,0l0,0l0,0l0.1,0.1l0,0l0,0l0,0l0,0l0,0c0.7,0.4,1.4,0.8,2.1,1.2c0.5,0.3,1.1,0.1,1.4-0.4c0,0,0,0,0,0c0.3-0.5,0.1-1.1-0.4-1.4
		c-1.1-0.7-2.3-1.3-3.4-2c-0.2-0.1-0.3-0.2-0.5-0.1L202.6,391.5z M215.7,398.6c-0.6,0-1,0.5-1,1c0,0.4,0.2,0.7,0.6,0.9l0.6,0.3h0.1
		l0,0l0,0h0.1l0,0c0.6,0.3,1.2,0.5,1.8,0.8l0,0h0.1l0,0h0.1l0,0h0.1l0,0l0,0l0,0l0,0h0.1l0.7,0.3c0.1,0.1,0.3,0.1,0.4,0.1
		c0.4,0,0.8-0.2,0.9-0.6c0.2-0.5,0-1.1-0.5-1.3c0,0,0,0,0,0c-1.2-0.5-2.4-1.1-3.6-1.6c-0.1-0.1-0.3-0.1-0.4-0.1L215.7,398.6z
		 M229.5,404.3c-0.6,0-1,0.4-1,1c0,0.4,0.3,0.8,0.7,1c1.1,0.4,2.2,0.8,3.4,1.1h0.4c0.1,0,0.2,0,0.3,0c0.6,0.1,1.1-0.3,1.2-0.9
		c0.1-0.6-0.3-1.1-0.9-1.1c-1.2-0.4-2.5-0.8-3.7-1.2c-0.1,0-0.2-0.1-0.3-0.1V404.3z M243.8,408.4c-0.6-0.1-1,0.3-1.1,0.9
		c-0.1,0.6,0.3,1,0.9,1.1l0,0l0.2,0.1h0.6h0.1h0.2c0.7,0.2,1.5,0.3,2.2,0.5h0.2h0.1h0.2h0.2c0.6,0.1,1-0.4,1.1-0.9s-0.4-1-0.9-1.1
		c-1.3-0.3-2.6-0.5-3.9-0.8c-0.1,0-0.2,0-0.2,0V408.4z M258.4,411c-0.6,0-1,0.4-1.1,0.9s0.4,1,0.9,1.1h0.2h0.3l2.1,0.2h0.6l0.7,0.1
		h0.1c0.6,0,1-0.4,1-1c0-0.6-0.4-1-1-1c-1.3-0.1-2.6-0.2-3.9-0.4L258.4,411z M277.2,412L277.2,412H275h-1.7c-0.6,0-1,0.4-1,1
		s0.4,1,1,1h4c0.6,0,1-0.4,1-1S277.8,412,277.2,412L277.2,412z M292.1,411H292c-1.3,0.2-2.6,0.3-3.9,0.4c-0.6,0-1,0.5-1,1
		c0,0.6,0.5,1,1,1h0.7l1.6-0.2h0.7l1.1-0.1c0.6,0,1-0.5,0.9-1.1s-0.5-1-1.1-0.9L292.1,411z M306.8,408.4c-0.1,0-0.2,0-0.2,0
		c-1.3,0.3-2.6,0.6-3.9,0.8c-0.5,0.1-0.9,0.6-0.8,1.2c0,0,0,0,0,0c0.1,0.5,0.5,0.8,1,0.8c0.1,0,0.1,0,0.2,0l0.5-0.1h0.1l0.3-0.1h0.1
		c1-0.2,2-0.4,3-0.7c0.6-0.1,1-0.6,0.9-1.1C307.8,408.7,307.3,408.3,306.8,408.4L306.8,408.4z M321,404.2c-0.1,0-0.2,0-0.3,0.1
		c-1.2,0.4-2.5,0.9-3.7,1.3c-0.6,0.1-0.9,0.6-0.9,1.1s0.6,0.9,1.1,0.9c0.1,0,0.2,0,0.3,0l0,0h0.1l0,0l0.3-0.1l0,0l0.3-0.1h0.1
		l0.2-0.1l0,0l0,0l0,0l0,0l0,0h0.1l0,0l0.2-0.1l0,0h0l0,0h0l0,0h0l0,0h0.1l0,0h0l0,0l0,0l0,0l0,0l0,0l0,0l0,0h0.1l0,0h0.1l0,0l0,0
		l0,0l0,0h0.2l0,0h0.6l0,0h0.1h0.1h0.1l0,0l0,0l0.2-0.1h0.1h0l0,0l0.6-0.2c0.5-0.2,0.8-0.7,0.6-1.3c-0.1-0.4-0.5-0.7-1-0.7
		L321,404.2z M334.8,398.5c-0.2,0-0.3,0-0.4,0.1c-1.2,0.6-2.4,1.1-3.6,1.6c-0.5,0.2-0.7,0.8-0.5,1.3c0.2,0.4,0.5,0.6,0.9,0.6
		c0.1,0,0.3,0,0.4-0.1c1.2-0.5,2.4-1.1,3.6-1.7c0.5-0.2,0.7-0.8,0.5-1.3c0,0,0,0,0,0C335.5,398.7,335.2,398.5,334.8,398.5
		L334.8,398.5z M347.8,391.3c-0.2,0-0.4,0.1-0.5,0.2c-1.1,0.7-2.2,1.4-3.4,2c-0.5,0.3-0.6,0.9-0.4,1.4c0,0,0,0,0,0
		c0.2,0.3,0.5,0.5,0.9,0.5c0.2,0,0.3,0,0.5-0.1l1.4-0.9l0,0l0,0l0,0l0,0l0,0l0,0l0,0h0.1l0,0l0,0h0l0,0l0,0l0,0l0,0h0l0,0l0,0l0,0
		l0,0l0,0l0,0l0,0l0,0l0,0l0,0l0,0l0,0l0,0l0,0l0,0l0,0l0,0l0,0l0,0l0,0l0,0h0.1l0,0l0,0l0,0l0,0l0,0l0,0l0,0l0,0l0,0l0.1,0l0,0l0,0
		l0,0l0,0l0,0l0,0l0,0l0.2-0.1l0,0l0,0l0,0l0,0l0,0l0,0l0,0l0.1-0.1l0,0l0,0l0,0c0.5-0.3,0.6-0.9,0.3-1.4c-0.2-0.3-0.5-0.5-0.9-0.5
		L347.8,391.3z M360,382.8c-0.2,0-0.4,0.1-0.6,0.2c-1,0.8-2.1,1.6-3.1,2.4c-0.4,0.3-0.5,1-0.2,1.4c0,0,0,0,0,0
		c0.2,0.3,0.5,0.4,0.8,0.4c0.2,0,0.4-0.1,0.6-0.2l0.6-0.4l0,0l0,0l0,0l0,0l0,0l0,0c0.8-0.6,1.6-1.2,2.5-1.9c0.4-0.3,0.5-1,0.2-1.4
		c0,0,0,0,0,0c-0.2-0.2-0.5-0.4-0.8-0.4L360,382.8z M371.2,373c-0.3,0-0.5,0.1-0.7,0.3c-0.9,0.9-1.9,1.8-2.9,2.7
		c-0.4,0.4-0.4,1-0.1,1.4c0.2,0.2,0.5,0.3,0.7,0.3c0.3,0,0.5-0.1,0.7-0.3l0.5-0.4l0,0l0.1-0.1l0,0l0,0l0,0l0,0l0,0l0,0l0,0l0.1-0.1
		l0,0l0,0l0,0l0,0l0,0l0,0l0,0l0,0l0,0l0,0l0,0l0,0l0,0l0,0l0,0l0,0l0.2-0.2l0,0c0.5-0.5,1-1,1.5-1.5c0.4-0.4,0.4-1,0-1.4
		c-0.2-0.2-0.4-0.3-0.7-0.3L371.2,373z M381.3,362c-0.3,0-0.6,0.1-0.8,0.4c-0.8,1-1.7,2-2.5,3c-0.4,0.4-0.3,1,0.1,1.4
		c0.2,0.2,0.4,0.2,0.7,0.2c0.3,0,0.6-0.1,0.8-0.3l1.9-2.2l0,0l0,0l0,0l0,0l0,0l0,0l0,0l0,0l0,0l0,0l0,0l0,0l0.5-0.6
		c0.4-0.4,0.3-1.1-0.1-1.4c0,0,0,0,0,0c-0.2-0.1-0.4-0.2-0.6-0.2L381.3,362z M390.2,350c-0.3,0-0.6,0.2-0.8,0.5
		c-0.7,1.1-1.5,2.2-2.2,3.3c-0.3,0.5-0.2,1.1,0.2,1.4c0.2,0.1,0.4,0.2,0.6,0.2c0.3,0,0.6-0.2,0.8-0.4l0.7-1l0,0l0,0l0,0l0.1-0.1l0,0
		v0l0,0l0,0l0,0l0,0l0,0l0,0l0.1-0.1l0,0l0,0l0,0l0,0l0,0c0.4-0.6,0.8-1.2,1.2-1.8c0.3-0.5,0.2-1.1-0.3-1.4
		c-0.2-0.1-0.4-0.2-0.5-0.2L390.2,350z M397.7,337.2c-0.4,0-0.7,0.2-0.9,0.5c-0.6,1.2-1.2,2.3-1.9,3.5c-0.3,0.5-0.1,1.1,0.4,1.4
		c0,0,0,0,0,0c0.2,0.1,0.3,0.1,0.5,0.1c0.4,0,0.7-0.2,0.9-0.5c0.4-0.8,0.9-1.6,1.3-2.4l0,0l0,0l0,0v0l0,0l0.1-0.1l0,0l0,0v0l0,0l0,0
		v0l0,0l0.4-0.7c0.3-0.5,0.1-1.1-0.4-1.3c0,0,0,0,0,0c-0.1-0.1-0.3-0.1-0.5-0.1L397.7,337.2z M403.8,323.6c-0.4,0-0.8,0.3-0.9,0.6
		c-0.5,1.2-1,2.5-1.5,3.7c-0.2,0.5,0,1.1,0.5,1.3c0,0,0,0,0,0c0.1,0.1,0.3,0.1,0.4,0.1c0.4,0,0.8-0.2,0.9-0.6
		c0.3-0.7,0.6-1.4,0.9-2.1l0,0v0l0,0v0l0,0l0.1-0.2l0,0l0,0l0,0l0,0v-0.1v-0.1v-0.2l0,0l0,0l0,0l0,0v0l0,0l0,0v-0.1v0l0,0v-0.1l0,0
		l0,0l0,0v0l0,0v0l0,0l0.1-0.2l0,0c0.2-0.5-0.1-1.1-0.6-1.3c-0.1,0-0.2-0.1-0.4-0.1L403.8,323.6z M408.4,309.4c-0.5,0-0.9,0.3-1,0.8
		c-0.3,1.3-0.7,2.5-1.1,3.8c-0.2,0.5,0.1,1.1,0.7,1.2c0,0,0,0,0,0c0.1,0,0.2,0,0.3,0c0.5,0,0.9-0.3,1-0.7v-0.1l0,0v-0.2
		c0.3-1.2,0.7-2.3,1-3.5c0.1-0.5-0.2-1.1-0.7-1.2C408.5,309.4,408.4,309.4,408.4,309.4L408.4,309.4z M411.4,294.9
		c-0.5,0-0.9,0.4-1,0.9c-0.2,1.3-0.4,2.6-0.6,3.9c-0.1,0.5,0.3,1.1,0.8,1.2h0.2c0.5,0,0.9-0.3,1-0.8c0.1-0.3,0.1-0.6,0.2-0.9l0,0
		V299l0,0v0l0,0v0l0,0v-0.2l0,0v-0.3v-0.1l0,0v-0.1l0,0l0,0l0,0l0,0l0,0l0.3-1.9l0,0V296C412.3,295.5,411.9,294.9,411.4,294.9
		C411.4,294.9,411.4,294.9,411.4,294.9L411.4,294.9z M412.9,280c-0.5,0-1,0.4-1,1c-0.1,1.3-0.1,2.6-0.2,3.9c0,0.6,0.4,1,0.9,1.1
		c0,0,0,0,0,0h0.1c0.5,0,1-0.4,1-0.9l0.1-0.8l0,0v-0.1l0,0v-0.5l0,0v0l0,0v-0.2l0,0v-0.1l0,0l0,0l0,0l0,0l0,0l0,0l0,0v-0.1l0,0v-0.2
		l0,0v-0.1l0,0l0,0l0,0l0,0l0,0l0,0l0,0v0l0,0v-0.4l0,0v0l0,0V282l0,0v-0.2l0,0l0,0l0,0v-0.1l0,0v-0.2l0,0v-0.1l0,0v-0.2
		c0-0.6-0.4-1-1-1L412.9,280z M412.7,265.1L412.7,265.1c-0.6,0-1,0.5-1,1.1c0,0,0,0,0,0c0.1,1.3,0.1,2.6,0.2,3.9c0,0.6,0.4,1,1,1
		l0,0c0.6,0,1-0.4,1-1c0-0.3,0-0.6,0-0.9l0,0v0l0,0v0l0,0c0-0.1,0-0.3,0-0.4l0,0v0l0,0c0-0.8-0.1-1.7-0.1-2.5
		C413.7,265.6,413.3,265.2,412.7,265.1L412.7,265.1z M411,250.4h-0.2c-0.5,0.1-0.9,0.6-0.8,1.1c0.2,1.3,0.4,2.6,0.6,3.9
		c0.1,0.5,0.5,0.9,1,0.9h0.1c0.5-0.1,0.9-0.6,0.9-1.1c-0.2-1.3-0.4-2.7-0.6-4C411.9,250.7,411.5,250.3,411,250.4L411,250.4z
		 M407.7,235.9c-0.1,0-0.2,0-0.3,0c-0.5,0.1-0.8,0.7-0.7,1.2c0,0,0,0,0,0c0.4,1.3,0.7,2.5,1,3.8c0.1,0.5,0.5,0.8,1,0.8
		c0.1,0,0.2,0,0.2,0c0.5-0.1,0.9-0.7,0.7-1.2c-0.3-1.1-0.6-2.2-0.9-3.3l0,0l0,0l0,0V237l0,0l0,0l0,0l0,0v-0.1l0,0v-0.1l0,0v-0.1
		c-0.1-0.4-0.5-0.7-1-0.7L407.7,235.9z M402.8,221.8c-0.1,0-0.3,0-0.4,0.1c-0.5,0.2-0.8,0.8-0.5,1.3c0.5,1.2,1,2.4,1.4,3.7
		c0.1,0.4,0.5,0.7,0.9,0.6c0.1,0,0.2,0,0.4-0.1c0.5-0.2,0.8-0.8,0.6-1.3c-0.1-0.2-0.2-0.5-0.3-0.7l0,0l0,0l0,0l0,0l0,0l0,0l0,0v-0.1
		l0,0v-0.2l0,0V225l0,0v-0.2v-0.1v-0.2l0,0v-0.1l0,0l0,0l0,0l0,0V224l-0.1-0.1l0,0l0,0l0,0l0,0l0,0l0,0l0,0l0,0l0,0l-0.1-0.1l0,0
		l0,0l0,0l0,0l0,0l0,0l0,0l0-0.1l0,0l0,0V223l0,0l0,0l0,0l0,0l0,0v-0.1l0,0l-0.1-0.3c-0.2-0.4-0.5-0.6-0.9-0.6L402.8,221.8z
		 M396.4,208.4c-0.2,0-0.3,0-0.5,0.1c-0.5,0.3-0.7,0.9-0.4,1.4c0.6,1.1,1.2,2.3,1.8,3.5c0.2,0.3,0.5,0.5,0.9,0.6
		c0.2,0,0.3,0,0.5-0.1c0.5-0.2,0.7-0.8,0.5-1.3c-0.3-0.6-0.6-1.1-0.9-1.6l0,0l-0.1-0.2l0,0l0,0l0,0l0,0v-0.1v-0.1l0,0l0,0l0,0l0,0
		l0,0l0,0l0,0l0,0v-0.1l0,0l0,0v-0.1l0,0l0,0l0,0v-0.1l0,0v-0.1l0,0l0,0l0,0l0,0l0,0l0,0l0,0l-0.4-0.7c-0.2-0.3-0.5-0.5-0.9-0.5
		L396.4,208.4z M388.6,195.7c-0.2,0-0.4,0.1-0.6,0.2c-0.5,0.3-0.6,0.9-0.2,1.4c0.7,1.1,1.5,2.2,2.2,3.3c0.3,0.5,0.9,0.6,1.4,0.3
		c0,0,0,0,0,0c0.5-0.3,0.6-0.9,0.3-1.4l-0.3-0.4l0,0l0,0l0,0l0,0l0,0l-0.1-0.1l0,0v-0.1l0,0l0,0l0,0l0,0l0,0l-0.1-0.1l0,0l0,0l0,0
		l0,0l0,0l-0.1-0.1l0,0l0,0l0,0l-1.4-2.1c-0.2-0.3-0.5-0.4-0.8-0.4L388.6,195.7z M379.5,183.9c-0.2,0-0.5,0.1-0.7,0.2
		c-0.4,0.4-0.5,1-0.1,1.4c0.9,1,1.7,2,2.5,3c0.2,0.2,0.5,0.4,0.8,0.4c0.6,0,1-0.5,1-1c0-0.2-0.1-0.4-0.2-0.6c-0.5-0.6-1-1.2-1.5-1.8
		l0,0l0,0l0,0l0,0l0,0l0,0l0,0l0,0l0,0l0,0l0,0l0,0l0,0l0,0v-0.1l0,0l-0.8-0.9c-0.2-0.2-0.5-0.3-0.8-0.3L379.5,183.9z M369.2,173.2
		c-0.3,0-0.5,0.1-0.7,0.3c-0.4,0.4-0.4,1,0,1.4c1,0.9,1.9,1.8,2.8,2.7c0.2,0.2,0.4,0.3,0.7,0.3c0.6,0,1-0.5,1-1
		c0-0.3-0.1-0.5-0.3-0.7l-0.6-0.6l0,0l0,0l0,0l0,0l0,0l0,0c-0.7-0.7-1.5-1.4-2.2-2.1C369.8,173.4,369.5,173.3,369.2,173.2
		L369.2,173.2z M357.8,163.6c-0.3,0-0.6,0.1-0.8,0.4c-0.3,0.4-0.2,1.1,0.2,1.4c1,0.8,2.1,1.6,3.1,2.4c0.2,0.1,0.4,0.2,0.6,0.2
		c0.6,0,1-0.4,1-1c0-0.3-0.1-0.6-0.4-0.8l-1-0.8l0,0l0,0l0,0l-0.1-0.1l0,0l0,0l0,0l0,0l0,0l0,0l0,0l-0.1-0.1l0,0l0,0l0,0l0,0l0,0
		l0,0l0,0l-0.1-0.1l0,0l0,0l0,0l0,0l0,0l0,0l0,0l-0.1-0.1l0,0l0,0l0,0l0,0l0,0l0,0l0,0l-0.1-0.1l0,0l0,0l0,0l0,0l0,0l0,0l0,0l0,0h0
		l0,0l0,0l0,0l0,0l0,0l0,0l0,0l-0.6-0.5c-0.2-0.1-0.4-0.2-0.6-0.2L357.8,163.6z M345.4,155.3c-0.4,0-0.7,0.2-0.9,0.5
		c-0.3,0.5-0.1,1.1,0.4,1.4c1.1,0.7,2.3,1.4,3.4,2.1c0.2,0.1,0.3,0.2,0.5,0.2c0.6,0,1-0.4,1-1c0-0.3-0.2-0.7-0.5-0.9l0,0l0,0l0,0
		l-0.1-0.1l0,0l0,0l0,0l0,0l0,0l0,0l0,0l0,0l0,0l0,0l0,0l0,0l0,0l0,0l0,0l0,0l0,0l0,0l0,0h0l0,0l0,0l0,0l0,0l0,0l0,0l0,0l0,0l0,0
		l0,0l0,0h0l0,0l0,0l0,0l0,0l0,0h0l0,0l-0.1-0.1l0,0l0,0l0,0l0,0l0,0l-0.2-0.1l0,0l0,0l0,0h0l0,0l-0.2-0.1l0,0h0l0,0h0l0,0l-0.1-0.1
		l0,0h0l0,0l0,0l0,0l0,0l0,0h0l0,0h0l0,0l0,0l0,0l0,0l0,0l0,0l0,0l0,0l-0.9-0.5c-0.2-0.1-0.3-0.1-0.5-0.1L345.4,155.3z M332.3,148.4
		c-0.6,0-1,0.4-1,1c0,0.4,0.2,0.8,0.6,0.9c1.2,0.6,2.4,1.1,3.6,1.7c0.1,0.1,0.3,0.1,0.5,0.1c0.6,0,1-0.5,1-1c0-0.4-0.2-0.7-0.5-0.9
		c-1.2-0.6-2.4-1.2-3.6-1.7C332.6,148.4,332.4,148.4,332.3,148.4L332.3,148.4z M318.4,143c-0.6,0-1,0.4-1,1c0,0.4,0.3,0.8,0.7,0.9
		c1.2,0.4,2.5,0.9,3.7,1.3c0.1,0,0.2,0.1,0.3,0.1c0.6,0,1-0.4,1-1c0-0.4-0.3-0.8-0.7-0.9l-2.2-0.8h-0.1l-0.2-0.1l0,0l0,0h-0.1
		l-0.2-0.1l0,0l0,0h-0.2h-0.1h-0.3h-0.1h-0.3h-0.1l0,0c-0.1,0-0.2,0-0.3,0L318.4,143z M304,139.1c-0.6-0.1-1,0.3-1.1,0.9
		c-0.1,0.6,0.3,1,0.9,1.1c1.3,0.3,2.6,0.6,3.8,0.9c0.1,0,0.2,0,0.2,0c0.6,0.1,1.1-0.3,1.1-0.9s-0.3-1.1-0.9-1.1l0,0h0l0,0
		c-1.3-0.3-2.5-0.6-3.8-0.9H304L304,139.1z M289.3,136.7c-0.6,0-1,0.4-1,0.9c0,0.6,0.4,1,0.9,1.1c1.3,0.1,2.6,0.3,3.9,0.5h0.1
		c0.6,0,1-0.4,1.1-0.9s-0.4-1-0.9-1.1l-0.5-0.1h-0.3c-0.9-0.1-1.9-0.2-2.8-0.3L289.3,136.7L289.3,136.7z M275,136h-0.9h-2.4H271
		c-0.6,0-1,0.4-1,1s0.4,1,1,1l0,0c1.3,0,2.6-0.1,3.9-0.1l0,0c1.1,0,2.3,0,3.4,0l0,0c0.6,0,1-0.4,1-1s-0.4-1-1-1h-0.9L275,136
		L275,136z"/>
</g>
<g class="st3">
	<path class="st1" d="M275,7h-2.1H271c-0.6,0-1,0.4-1,1s0.4,1,1,1l0,0c1.3,0,2.6,0,4,0h0.1c1.3,0,2.6,0,4,0l0,0c0.6,0,1-0.4,1-1
		s-0.4-1-1-1h-0.4h-1.2H275z M260.1,7.4L260.1,7.4L256,7.7c-0.5,0-1,0.5-0.9,1.1c0,0.5,0.5,0.9,1,0.9h0.1c1.3-0.1,2.6-0.2,4-0.2
		c0.6,0,1-0.5,1-1S260.7,7.4,260.1,7.4L260.1,7.4z M245.2,8.6h-0.1l-0.9,0.1h-0.2h-0.3h-1.3h-0.1h-0.1L242,9l0,0l-0.9,0.1
		c-0.6,0-1,0.5-0.9,1.1s0.5,1,1.1,0.9h0.1c1.3-0.2,2.6-0.3,3.9-0.5c0.5-0.1,0.9-0.6,0.9-1.1C246.2,9,245.7,8.6,245.2,8.6L245.2,8.6z
		 M230.4,10.7h-0.2l-0.7,0.1h-0.2l-0.4,0.1l0,0l-1.4,0.2l0,0h-0.1l0,0h-0.1l0,0h-0.2h-0.4h-0.1l0,0h-0.1l0,0h-0.1h-0.1
		c-0.6,0-1,0.5-0.9,1.1s0.5,1,1.1,0.9h0.2c1.3-0.2,2.6-0.5,3.9-0.7c0.5-0.1,0.9-0.6,0.8-1.1c-0.1-0.5-0.5-0.8-1-0.8L230.4,10.7z
		 M215.7,13.6c-0.1,0-0.1,0-0.2,0l-1.9,0.4h-0.1h-0.1h-0.1h-0.1l0,0h-0.1l0,0H213l0,0h-0.1l0,0h-0.1l0,0h-0.1l0,0h-0.1l0,0h-0.1
		h-0.2h-0.1H212l-0.4,0.1c-0.6,0.1-0.9,0.6-0.9,1.1c0.1,0.6,0.6,0.9,1.1,0.9c0.1,0,0.2,0,0.2,0c1.3-0.3,2.6-0.6,3.9-0.9
		c0.6-0.1,1-0.6,0.9-1.1s-0.6-1-1.1-0.9l0,0L215.7,13.6z M201.2,17.3c-0.1,0-0.2,0-0.3,0l-3.1,0.9l0,0h-0.1l0,0h-0.1l0,0h-0.1l0,0
		h-0.1h-0.1l0,0h-0.1h-0.1c-0.6,0.1-0.9,0.6-0.9,1.2c0.1,0.6,0.6,0.9,1.2,0.8c0.1,0,0.2,0,0.3,0l3.8-1.1c0.6-0.1,0.9-0.6,0.9-1.1
		c-0.1-0.6-0.6-0.9-1.1-0.9L201.2,17.3z M187,21.8c-0.1,0-0.2,0-0.3,0.1l-3.8,1.3c-0.5,0.2-0.8,0.8-0.6,1.3c0.1,0.4,0.5,0.7,0.9,0.7
		c0.1,0,0.2,0,0.4-0.1c1.2-0.5,2.5-0.9,3.7-1.3c0.5-0.2,0.8-0.8,0.6-1.3c0,0,0,0,0,0C187.8,22.1,187.4,21.8,187,21.8z M173,27.2
		c-0.1,0-0.3,0-0.4,0.1l-1.7,0.7l0,0h-0.1l0,0h-0.1l0,0l-0.3,0.1l0,0h-0.1l0,0h-0.1l0,0l-1.4,0.8c-0.5,0.2-0.7,0.8-0.5,1.3
		c0.2,0.4,0.5,0.6,0.9,0.6c0.1,0,0.3,0,0.4-0.1c1.2-0.5,2.4-1,3.7-1.5c0.5-0.2,0.8-0.8,0.5-1.3c0,0,0,0,0,0
		C173.8,27.4,173.5,27.2,173,27.2L173,27.2z M159.4,33.3c-0.1,0-0.3,0-0.4,0.1l0,0h-0.1l0,0h-0.1l0,0l-0.2,0.1l0,0h-0.1l0,0h-0.1
		l0,0l-0.1,0l0,0h-0.1l0,0h-0.1h-0.1H158l0,0H158l-0.2,0.1l0,0h-0.1l0,0h-0.1l0,0l-0.3,0.2l0,0h-0.1l0,0l-0.3,0.1l0,0h-0.1l0,0h-0.1
		l0,0h-0.1l0,0l0,0h-0.1l0,0h-0.1l0,0l-0.7,0.3c-0.5,0.3-0.7,0.9-0.4,1.3c0.2,0.3,0.5,0.5,0.9,0.5c0.2,0,0.3,0,0.4-0.1
		c1.2-0.6,2.4-1.2,3.6-1.8c0.5-0.2,0.7-0.8,0.5-1.3c-0.2-0.3-0.5-0.6-0.9-0.6L159.4,33.3z M146.1,40.1c-0.2,0-0.3,0-0.5,0.1l0,0l0,0
		h-0.1l0,0h-0.1l0,0l-0.1,0.1l0,0h-0.1l0,0h-0.1h-0.1l0,0h-0.1h-0.1H145H145h-0.1l0,0h-0.1l0,0h-0.1l0,0l-0.1,0l0,0h-0.1l0,0h-0.1
		l0,0h-0.1l0,0l-0.1,0.1l0,0h-0.1l0,0h-0.1l0,0h-0.1l0,0h-0.1H144H144l0,0h-0.1h-0.1l0,0h-0.1l0,0l-0.2,0.1l0,0l-0.7,0.4
		c-0.5,0.3-0.6,0.9-0.4,1.4c0.3,0.5,0.9,0.6,1.4,0.4c0,0,0,0,0,0c1.1-0.7,2.3-1.3,3.5-1.9c0.5-0.3,0.7-0.9,0.4-1.4
		c-0.2-0.3-0.5-0.5-0.9-0.5L146.1,40.1z M133.2,47.7c-0.2,0-0.4,0.1-0.5,0.2l-0.6,0.4l0,0l-0.1,0l0,0h-0.1l0,0l0,0h-0.1l0,0
		l-0.1,0.1l0,0h-0.1l0,0h-0.1l0,0h-0.1l0,0l-0.1,0h-0.1l0,0h-0.1l0,0h-0.1l0,0l-0.1,0.1l0,0l-0.1,0.1l0,0h-0.1l0,0H131l0,0l-0.1,0.1
		l0,0l-0.1,0.1l0,0l-0.1,0l0,0h-0.1l0,0l0,0l-0.7,0.4c-0.5,0.3-0.6,0.9-0.3,1.4c0.2,0.3,0.5,0.5,0.8,0.5c0.2,0,0.4-0.1,0.6-0.2
		c1.1-0.7,2.2-1.4,3.3-2.1c0.5-0.3,0.6-0.9,0.3-1.4c0,0,0,0,0,0c-0.2-0.3-0.5-0.5-0.9-0.5L133.2,47.7z M120.8,56
		c-0.2,0-0.4,0.1-0.6,0.2l0,0l-0.1,0l0,0l-0.3,0.2l0,0l-0.1,0.1l0,0l-0.3,0.2l0,0l-0.1,0.1l0,0L119,57l0,0h-0.1l0,0h-0.1l0,0
		l-0.2,0.1l0,0h-0.1l0,0h-0.1l0,0h-0.1h-0.1l0,0l0,0l0,0h-0.1l0,0l0,0l0,0l-0.1,0.1l0,0l0,0l0,0l0,0l0,0l0,0l-0.1,0l0,0l-0.1,0.1
		l0,0l-0.1,0.1l0,0l-0.1,0.1l0,0l-0.2,0.1c-0.4,0.3-0.5,1-0.2,1.4c0.3,0.4,1,0.5,1.4,0.2l0,0c1.1-0.8,2.1-1.6,3.2-2.3
		c0.5-0.3,0.6-0.9,0.2-1.4c-0.2-0.3-0.5-0.4-0.8-0.4L120.8,56z M108.9,65c-0.2,0-0.5,0.1-0.6,0.2c-1,0.8-2.1,1.7-3.1,2.5
		c-0.4,0.4-0.5,1-0.1,1.4c0.2,0.2,0.5,0.4,0.8,0.4c0.2,0,0.5-0.1,0.6-0.2c1-0.8,2-1.7,3.1-2.5c0.4-0.3,0.5-1,0.2-1.4
		C109.5,65.1,109.2,65,108.9,65z M97.4,74.6c-0.2,0-0.5,0.1-0.7,0.2l-0.3,0.2l0,0l-0.1,0.1l0,0l-0.3,0.2l0,0l-0.1,0.1l0,0L96,75.6
		l0,0l-0.2,0.2l0,0l-0.1,0.1l0,0l-0.1,0.1l0,0l-0.1,0.1l0,0L95.5,76l0,0h-0.1l0,0l0,0l0,0L95.4,76l0,0l-0.1,0.1l0,0l0,0l0,0l0,0l0,0
		l0,0l-0.1,0.1l0,0l-0.1,0.1l0,0l-0.1,0.1l0,0L94.4,77c-0.4,0.4-0.4,1,0,1.4c0.2,0.2,0.5,0.3,0.7,0.3c0.3,0,0.5-0.1,0.7-0.3
		c1-0.9,2-1.8,2.9-2.7c0.4-0.4,0.4-1,0.1-1.4c-0.2-0.2-0.5-0.3-0.7-0.3L97.4,74.6z M86.6,84.8c-0.3,0-0.5,0.1-0.7,0.3l-0.9,0.9l0,0
		l-0.1,0.1l0,0l-0.2,0.2l0,0l0,0l0,0l0,0h-0.1l0,0l-0.2,0.2l0,0l-0.1,0.1l0,0L83,88c-0.4,0.4-0.4,1,0,1.4c0.2,0.2,0.4,0.3,0.7,0.3
		c0.3,0,0.5-0.1,0.7-0.3c0.9-0.9,1.8-1.9,2.8-2.8c0.4-0.4,0.4-1,0-1.4C87,85,86.8,84.9,86.6,84.8L86.6,84.8z M76.3,95.7
		c-0.3,0-0.6,0.1-0.7,0.3l-0.4,0.4l0,0l-0.1,0.1l0,0L75,96.6l0,0l-0.1,0.1l0,0l0,0v0.1l0,0l-0.1,0.1l0,0l-1,1.1l0,0l-0.2,0.3l0,0
		l0,0l0,0l0,0c-0.2,0.2-0.3,0.3-0.4,0.5c-0.3,0.4-0.3,1.1,0.1,1.4c0.4,0.3,1,0.3,1.4-0.1c0.9-1,1.7-2,2.6-3c0.4-0.4,0.3-1-0.1-1.4
		c0,0,0,0,0,0c-0.2-0.2-0.4-0.3-0.7-0.2L76.3,95.7z M66.6,107.1c-0.3,0-0.6,0.1-0.8,0.4l-0.8,1.1l0,0l-0.1,0.1l0,0l0,0l0,0l0,0l0,0
		l0,0l-0.1,0.1l0,0l-0.1,0.1l0,0v0.1l0,0l-0.2,0.2l0,0v0.1l0,0v0.1l0,0l0,0l0,0v0.1v0.1l0,0v0.1l0,0l-0.1,0.1l0,0
		c-0.2,0.2-0.3,0.4-0.5,0.6c-0.3,0.4-0.3,1.1,0.2,1.4c0,0,0,0,0,0c0.2,0.1,0.4,0.2,0.6,0.2c0.3,0,0.6-0.1,0.8-0.4l2.5-3.1
		c0.3-0.4,0.3-1.1-0.1-1.4c0,0,0,0,0,0c-0.2-0.1-0.4-0.2-0.6-0.2L66.6,107.1z M57.6,119c-0.3,0-0.6,0.2-0.8,0.4
		c-0.2,0.3-0.5,0.6-0.7,0.9l0,0l-0.2,0.2l0,0l0,0.1l0,0l0,0l0,0l0,0v0.1l0,0l0,0.1l0,0l0,0.1l0,0l0,0.1l0,0l-0.1,0.2l0,0l-0.1,0.1
		l0,0l-0.1,0.1l0,0L55,122l0,0l-0.3,0.4l0,0l-0.1,0.1l0,0l-0.1,0.2l0,0c-0.3,0.5-0.2,1.1,0.3,1.4c0.2,0.1,0.4,0.2,0.6,0.2
		c0.3,0,0.6-0.2,0.8-0.4c0.8-1.1,1.5-2.2,2.3-3.2c0.3-0.5,0.2-1.1-0.2-1.4C58,119.1,57.8,119,57.6,119L57.6,119z M49.3,131.4
		c-0.3,0-0.7,0.2-0.8,0.5l0,0l0,0l0,0v0.1l0,0v0.1l0,0l-0.1,0.1l0,0v0.1l0,0l-0.1,0.1l0,0c-0.5,0.7-0.9,1.4-1.3,2.1l0,0l0,0.1l0,0
		v0.1l0,0v0.1l-0.1,0.1l0,0v0.1l0,0l-0.1,0.2c-0.3,0.5-0.1,1.1,0.3,1.4c0,0,0,0,0,0c0.5,0.3,1.1,0.1,1.4-0.3c0,0,0,0,0,0
		c0.7-1.1,1.4-2.3,2.1-3.4c0.3-0.5,0.2-1.1-0.3-1.4c0,0,0,0,0,0c-0.2-0.1-0.3-0.2-0.5-0.1L49.3,131.4z M41.6,144.2
		c-0.4,0-0.7,0.2-0.9,0.5l-0.2,0.3l0,0l0,0v0.1l0,0c-0.4,0.8-0.9,1.6-1.3,2.4l0,0l-0.1,0.2l0,0l0,0v0.1l0,0L39,148
		c-0.3,0.5-0.2,1.1,0.3,1.4c0.5,0.3,1.1,0.2,1.4-0.3c0,0,0-0.1,0.1-0.1c0.6-1.2,1.3-2.3,1.9-3.5c0.3-0.5,0.1-1.1-0.4-1.4
		c0,0,0,0,0,0c-0.1-0.1-0.3-0.1-0.5-0.1L41.6,144.2z M34.7,157.5c-0.4,0-0.7,0.2-0.9,0.6l-0.2,0.3l0,0v0.1l0,0v0.1v0.1l0,0
		c-0.5,1-1,2-1.4,3c-0.2,0.5,0,1.1,0.5,1.3c0.1,0.1,0.3,0.1,0.4,0.1c0.4,0,0.7-0.2,0.9-0.6c0.6-1.2,1.1-2.4,1.7-3.6
		c0.2-0.5,0-1.1-0.5-1.3c-0.1-0.1-0.3-0.1-0.4-0.1L34.7,157.5z M28.6,171.1c-0.4,0-0.8,0.2-0.9,0.6c-0.2,0.4-0.4,0.8-0.5,1.3l0,0
		v0.1l0,0v0.1l0,0l0,0.1l0,0v0.1l0,0v0.1v0.1v0.1l0,0v0.1l0,0v0.1l0,0v0.1l0,0v0.1l0,0v0.1l0,0l-0.1,0.2l0,0v0.1l0,0v0.1l0,0
		c0,0.1-0.1,0.2-0.1,0.3l0,0v0.1l0,0l-0.1,0.2l0,0c-0.2,0.5,0,1.1,0.6,1.3c0,0,0,0,0,0c0.1,0,0.2,0.1,0.4,0.1c0.4,0,0.8-0.2,0.9-0.6
		c0.5-1.2,1-2.4,1.5-3.7c0.2-0.5,0-1.1-0.5-1.3c0,0,0,0,0,0c-0.1-0.1-0.3-0.1-0.4-0.1L28.6,171.1z M23.2,185c-0.4,0-0.8,0.3-0.9,0.7
		c-0.2,0.7-0.5,1.4-0.7,2.1l0,0v0.1l0,0v0.1l0,0v0.1l0,0v0.1l0,0v0.1v0.1v0.1v0.1v0.1l0,0v0.1v0.1v0.1l0,0v0.1l0,0v0.1l0,0l-0.1,0.2
		l0,0v0.1c-0.2,0.5,0.1,1.1,0.6,1.3c0,0,0,0,0,0c0.1,0,0.2,0.1,0.3,0.1c0.4,0,0.8-0.3,1-0.7c0.4-1.2,0.8-2.5,1.3-3.8
		c0.2-0.5-0.1-1.1-0.6-1.3c0,0,0,0,0,0c-0.1,0-0.2-0.1-0.3-0.1L23.2,185z M18.6,199.3c-0.5,0-0.9,0.3-1,0.7
		c-0.2,0.8-0.4,1.5-0.6,2.3l0,0v0.1l0,0v0.1l0,0l-0.1,0.2l0,0v0.1v0.1l0,0v0.1l0,0c-0.1,0.3-0.1,0.5-0.2,0.8
		c-0.1,0.5,0.2,1.1,0.7,1.2c0,0,0,0,0,0c0.1,0,0.2,0,0.3,0c0.5,0,0.9-0.3,1-0.7c0.4-1.3,0.7-2.6,1.1-3.8c0.2-0.5-0.1-1.1-0.7-1.2
		c0,0,0,0,0,0c-0.1,0-0.2,0-0.3,0L18.6,199.3z M14.8,213.7c-0.5,0-0.9,0.3-1,0.8c0,0.2-0.1,0.4-0.1,0.6l0,0v0.1l0,0v0.1l0,0v0.1l0,0
		v0.1l0,0v0.1l0,0v0.1l0,0v0.1l0,0c-0.2,0.8-0.4,1.6-0.5,2.4c-0.1,0.5,0.2,1.1,0.8,1.2h0.2c0.5,0,0.9-0.3,1-0.8
		c0.3-1.3,0.6-2.6,0.9-3.9c0.1-0.5-0.2-1.1-0.7-1.2c0,0,0,0,0,0H15L14.8,213.7z M11.9,228.4c-0.5,0-0.9,0.3-1,0.8
		c-0.2,1.3-0.4,2.6-0.6,4c-0.1,0.5,0.3,1,0.8,1.1h0.2c0.5,0,0.9-0.4,1-0.9c0.2-1.3,0.4-2.6,0.6-3.9c0.1-0.5-0.3-1.1-0.8-1.2
		c0,0,0,0,0,0L11.9,228.4z M9.8,243.2c-0.5,0-0.9,0.4-1,0.9c-0.1,1.2-0.3,2.4-0.4,3.6l0,0v0.4c-0.1,0.5,0.4,1,0.9,1.1h0.1
		c0.5,0,0.9-0.4,1-0.9c0.1-1.3,0.3-2.6,0.4-3.9c0.1-0.5-0.3-1-0.9-1.1c0,0,0,0,0,0L9.8,243.2z M8.5,258c-0.5,0-1,0.4-1,0.9
		c0,0.6-0.1,1.2-0.1,1.7v0.3c0,0.6-0.1,1.3-0.1,2c0,0.6,0.4,1,1,1l0,0c0.5,0,1-0.4,1-1c0.1-1.3,0.1-2.6,0.2-4
		C9.5,258.5,9.1,258,8.5,258L8.5,258z M8,273c-0.6,0-1,0.4-1,1v1l0,0v0.6l0,0v0.1l0,0v0.4c0,0.6,0,1.2,0,1.8c0,0.6,0.4,1,1,1l0,0
		c0.6,0,1-0.4,1-1c0-1,0-2,0-3v-1C9,273.4,8.6,273,8,273L8,273z M8.4,287.9L8.4,287.9c-0.6,0-1,0.4-1,1c0,0,0,0,0,0.1l0,0
		c0.1,1.3,0.2,2.7,0.2,4c0,0.5,0.5,0.9,1,0.9h0.1c0.5,0,1-0.5,0.9-1.1c-0.1-1.3-0.2-2.6-0.2-4C9.3,288.3,8.9,287.9,8.4,287.9
		L8.4,287.9z M9.5,302.8H9.4c-0.5,0.1-0.9,0.5-0.9,1.1c0.1,1.3,0.3,2.7,0.5,4c0.1,0.5,0.5,0.9,1,0.9h0.1c0.5-0.1,0.9-0.6,0.9-1.1
		c0,0,0,0,0,0c-0.2-1.3-0.3-2.6-0.4-3.9C10.5,303.2,10.1,302.8,9.5,302.8L9.5,302.8z M11.5,317.6h-0.2c-0.5,0.1-0.9,0.6-0.8,1.1l0,0
		v0.1l0,0v0.1v0.2l0,0l0.4,2.4v0.2l0.1,0.9c0.1,0.5,0.5,0.8,1,0.8h0.2c0.5-0.1,0.9-0.6,0.8-1.2c0,0,0,0,0,0
		c-0.2-1.3-0.5-2.6-0.7-3.9c-0.1-0.5-0.5-0.8-1-0.8L11.5,317.6z M14.4,332.3h-0.2c-0.5,0.1-0.9,0.7-0.8,1.2c0.3,1.3,0.6,2.6,0.9,3.9
		c0.1,0.5,0.5,0.8,1,0.8h0.2c0.5-0.1,0.9-0.7,0.7-1.2c-0.3-1.3-0.6-2.6-0.9-3.9C15.3,332.6,14.9,332.3,14.4,332.3L14.4,332.3z
		 M18,346.8c-0.1,0-0.2,0-0.3,0c-0.5,0.2-0.8,0.7-0.7,1.2c0.2,0.8,0.5,1.6,0.7,2.5l0,0v0.1v0v0v0.1l0,0v0.1l0,0l0.1,0.2l0,0v0.1l0,0
		c0.1,0.2,0.1,0.4,0.2,0.6c0.1,0.4,0.5,0.7,1,0.7c0.1,0,0.2,0,0.3,0c0.5-0.2,0.8-0.7,0.7-1.2c0,0,0,0,0,0c-0.4-1.3-0.8-2.5-1.1-3.8
		c-0.1-0.4-0.5-0.7-1-0.7L18,346.8z M22.5,361c-0.1,0-0.2,0-0.3,0.1c-0.5,0.2-0.8,0.7-0.6,1.3c0.4,1.3,0.9,2.5,1.3,3.8
		c0.1,0.4,0.5,0.7,0.9,0.7c0.1,0,0.2,0,0.3-0.1c0.5-0.2,0.8-0.8,0.6-1.3c-0.5-1.2-0.9-2.5-1.3-3.7C23.3,361.3,22.9,361,22.5,361
		L22.5,361z M27.8,375c-0.1,0-0.3,0-0.4,0.1c-0.5,0.2-0.7,0.8-0.5,1.3l0.3,0.6l0,0v0.1l0,0v0.1l0,0v0.1v0.1l0,0v0.1l0,0v0.1l0,0v0.1
		l0,0l0.1,0.2l0,0v0.1l0,0v0.1l0,0l0.1,0.3l0,0v0.1l0,0c0.1,0.1,0.1,0.3,0.2,0.5l0,0l0.4,0.9c0.2,0.4,0.5,0.6,0.9,0.6
		c0.1,0,0.3,0,0.4-0.1c0.5-0.2,0.7-0.8,0.5-1.3c-0.5-1.2-1-2.4-1.5-3.7c-0.2-0.4-0.5-0.6-0.9-0.6L27.8,375z M33.8,388.7
		c-0.1,0-0.3,0-0.4,0.1c-0.5,0.2-0.7,0.8-0.5,1.3c0.3,0.6,0.6,1.3,0.9,1.9l0,0v0.1l0,0v0.1l0,0v0.1l0,0v0.1l0,0v0.1l0,0v0.1v0l0,0
		l0.1,0.2l0,0v0.1l0,0l0.3,0.6c0.2,0.3,0.5,0.6,0.9,0.5c0.2,0,0.3,0,0.4-0.1c0.5-0.2,0.7-0.8,0.5-1.3c-0.6-1.2-1.2-2.4-1.7-3.6
		c-0.2-0.3-0.5-0.6-0.9-0.6L33.8,388.7z M40.6,402c-0.2,0-0.3,0-0.5,0.1c-0.5,0.3-0.7,0.9-0.4,1.4c0.5,1,1,1.9,1.6,2.8v0l0,0v0.1
		l0,0l0.3,0.5c0.2,0.3,0.5,0.5,0.9,0.5c0.2,0,0.3,0,0.5-0.1c0.5-0.3,0.6-0.9,0.4-1.4c-0.7-1.1-1.3-2.3-1.9-3.5
		c-0.2-0.3-0.5-0.5-0.9-0.5L40.6,402z M48.2,414.9c-0.2,0-0.4,0.1-0.5,0.2c-0.5,0.3-0.6,0.9-0.3,1.4l0.3,0.4l0,0l0,0.1l0,0v0.1
		l1.4,2.1l0,0l0.2,0.3l0,0v0.1l0,0v0.1l0,0l0.1,0.1l0,0l0,0c0.2,0.3,0.5,0.5,0.8,0.5c0.2,0,0.4-0.1,0.5-0.2c0.5-0.3,0.6-0.9,0.3-1.4
		c-0.7-1.1-1.4-2.2-2.1-3.4c-0.2-0.3-0.5-0.5-0.8-0.5L48.2,414.9z M56.4,427.3c-0.2,0-0.4,0.1-0.6,0.2c-0.4,0.3-0.6,0.9-0.2,1.4
		c0.7,1,1.4,2,2.1,3l0,0v0.1v0l0,0l0.1,0.1c0.2,0.3,0.5,0.4,0.8,0.4c0.6,0,1-0.4,1-1c0-0.2-0.1-0.4-0.2-0.6
		c-0.8-1.1-1.5-2.1-2.3-3.2c-0.2-0.3-0.5-0.4-0.8-0.4L56.4,427.3z M65.3,439.3c-0.2,0-0.4,0.1-0.6,0.2c-0.4,0.3-0.5,1-0.2,1.4v0.1
		l0,0l0.1,0.1l0,0v0.1l0,0l0.1,0.1l0,0v0v0l0,0l0,0l0,0l0.1,0.1l0,0l0.1,0.1l0,0l0.1,0.1l0,0l0.1,0.1l0,0l0.2,0.3l0,0l1.5,1.9
		c0.4,0.4,1,0.5,1.4,0.1c0.4-0.4,0.5-1,0.1-1.4c-0.8-1-1.7-2.1-2.5-3.1c-0.2-0.2-0.5-0.4-0.8-0.4L65.3,439.3z M74.9,450.8
		c-0.2,0-0.5,0.1-0.7,0.2c-0.4,0.4-0.5,1-0.1,1.4l0.7,0.7l0,0l0.1,0.1l0,0l0.2,0.3l0,0l0.1,0.1l0,0l1.6,1.8c0.2,0.2,0.5,0.3,0.7,0.3
		c0.2,0,0.5-0.1,0.7-0.3c0.4-0.4,0.4-1,0.1-1.4c-0.9-1-1.8-2-2.7-3C75.5,450.9,75.2,450.8,74.9,450.8L74.9,450.8z M85.1,461.7
		c-0.3,0-0.5,0.1-0.7,0.3c-0.4,0.4-0.4,1,0,1.4L85,464l0,0l0.1,0.1l0,0v0l0.1,0l0,0l0.1,0.1l0,0l0.1,0.1l0,0
		c0.6,0.6,1.2,1.2,1.9,1.8c0.4,0.4,1,0.4,1.4,0c0.4-0.4,0.4-1,0-1.4c0,0,0,0,0,0c-1-0.9-1.9-1.9-2.8-2.8
		C85.6,461.7,85.3,461.6,85.1,461.7L85.1,461.7z M95.9,472c-0.3,0-0.6,0.1-0.7,0.3c-0.4,0.4-0.3,1,0.1,1.4c0,0,0,0,0,0l0.1,0.1l0,0
		l0.1,0.1l0,0l1.5,1.3l0,0l0.1,0.1l0,0l0.2,0.2l0,0l0.1,0.1l0,0l0.1,0.1l0,0l0.1,0.1l0,0l0.1,0.1l0,0v0l0,0l0,0l0,0l0,0l0,0l0,0
		l0.1,0.1l0,0l0,0l0,0l0,0l0,0l0,0c0.4,0.4,1.1,0.3,1.4-0.1c0.4-0.4,0.3-1.1-0.1-1.4c-1-0.9-2-1.8-3-2.6c-0.2-0.2-0.4-0.3-0.7-0.3
		L95.9,472z M107.3,481.7c-0.6,0-1,0.4-1,1c0,0.3,0.1,0.6,0.4,0.8c1,0.8,2.1,1.7,3.1,2.5c0.2,0.1,0.4,0.2,0.6,0.2c0.6,0,1-0.4,1-1
		c0-0.3-0.1-0.6-0.4-0.8c-1-0.8-2.1-1.6-3.1-2.5C107.7,481.8,107.5,481.7,107.3,481.7L107.3,481.7z M119.2,490.8
		c-0.3,0-0.6,0.2-0.8,0.4c-0.3,0.4-0.2,1.1,0.2,1.4l0,0l0,0h0.1l0,0l0,0l0.2,0.1l0,0l2.8,2c0.2,0.1,0.4,0.2,0.6,0.2c0.6,0,1-0.5,1-1
		c0-0.3-0.2-0.6-0.4-0.8c-1.1-0.8-2.2-1.5-3.2-2.3c-0.2-0.1-0.4-0.2-0.6-0.2L119.2,490.8z M131.5,499.2c-0.3,0-0.7,0.2-0.8,0.5
		c-0.3,0.5-0.2,1.1,0.3,1.4l0.6,0.4l0,0l0.1,0.1l0,0l0.1,0l0,0h0.1h0.1l0,0h0.1l0,0l0.1,0l0,0l0.2,0.2l0,0h0.1l0,0l0.1,0l0,0
		l0.2,0.2l0,0l0.1,0l0,0h0.1l0,0l0.2,0.1l0,0h0.1l0,0l0,0h0.1l0,0l0.1,0.1l0,0h0.1l0,0h0.1l0,0l0.1,0l0,0l0.2,0.1l0,0l0.1,0l0,0
		l0.1,0l0,0c0.2,0.1,0.3,0.1,0.5,0.1c0.3,0,0.7-0.2,0.9-0.5c0.3-0.5,0.1-1.1-0.3-1.4c0,0,0,0,0,0c-1.1-0.7-2.2-1.4-3.4-2.1
		c-0.2-0.1-0.3-0.2-0.5-0.2L131.5,499.2z M144.3,506.9c-0.4,0-0.7,0.2-0.9,0.5c-0.3,0.5-0.1,1.1,0.4,1.4c1.2,0.7,2.3,1.3,3.5,2
		c0.1,0.1,0.3,0.1,0.5,0.1c0.6,0,1-0.5,1-1c0-0.4-0.2-0.7-0.5-0.9l-3.5-1.9C144.7,506.9,144.5,506.9,144.3,506.9L144.3,506.9z
		 M157.6,513.9c-0.4,0-0.7,0.2-0.9,0.6c-0.2,0.5,0,1.1,0.5,1.3c0,0,0,0,0,0l2.2,1.1l0,0h0.1l0,0h0.1h0.1l0,0l1.1,0.5
		c0.1,0.1,0.3,0.1,0.4,0.1c0.6,0,1-0.5,1-1c0-0.4-0.2-0.7-0.6-0.9c-1.2-0.6-2.4-1.1-3.6-1.7c-0.1-0.1-0.3-0.1-0.4-0.1L157.6,513.9z
		 M171.1,520.1c-0.6,0-1,0.4-1,1c0,0.4,0.2,0.8,0.6,0.9l0.8,0.3l0,0h0.1l0,0h0.1l0,0l0.2,0.1l0,0h0.1l0,0h0.1h0.1h0.1l0,0h0.1l0,0
		h0.1l0,0h0.1l0,0h0.1l0,0h0.1l0,0h0.1h0.1h0.1l0,0h0.1l0,0h0.1h0.1l0,0h0.1l0,0h0.1l0,0l0.8,0.3c0.5,0.2,1.1-0.1,1.3-0.6
		c0.2-0.5-0.1-1-0.5-1.2c-1.2-0.5-2.4-1-3.7-1.5c-0.1-0.1-0.3-0.1-0.4-0.1L171.1,520.1z M185.1,525.5c-0.6,0-1,0.4-1,1
		c0,0.4,0.3,0.8,0.7,0.9c1.2,0.5,2.5,0.9,3.8,1.3c0.1,0,0.2,0,0.3,0c0.6,0,1-0.5,1-1c0-0.4-0.3-0.8-0.7-0.9l-3.8-1.3
		C185.3,525.5,185.2,525.4,185.1,525.5L185.1,525.5z M199.3,530.1c-0.6-0.1-1.1,0.3-1.1,0.9c-0.1,0.6,0.3,1.1,0.9,1.1l0,0h0.1l0,0
		h0.1l1.4,0.4l0,0h0.1l0,0h0.1l0,0h0.1l0,0h0.2l0,0h0.1l0,0h0.1h0.1h0.1l0,0l1.4,0.4h0.3c0.6,0.1,1.1-0.3,1.1-0.9
		c0.1-0.6-0.3-1.1-0.9-1.1c-1.3-0.4-2.6-0.7-3.8-1.1c-0.1,0-0.2,0-0.3,0L199.3,530.1z M213.7,534c-0.6-0.1-1.1,0.3-1.1,0.9
		c-0.1,0.6,0.3,1.1,0.9,1.1l3.9,0.9h0.2c0.6,0.1,1-0.3,1.1-0.9c0.1-0.6-0.3-1-0.9-1.1c-1.3-0.3-2.6-0.6-3.9-0.9
		C213.9,533.9,213.8,533.9,213.7,534L213.7,534z M228.4,537c-0.6,0-1,0.4-1.1,0.9c0,0.6,0.4,1,0.9,1.1h0.1l0,0h0.1l0,0h0.1l0,0h0.1
		l0,0h0.2h0.4h0.3l0,0c0.8,0.2,1.7,0.3,2.5,0.4h0.1c0.5,0,0.9-0.4,1-0.8c0.1-0.5-0.3-1.1-0.8-1.1c-1.3-0.2-2.6-0.4-3.9-0.7h-0.2
		L228.4,537z M243.1,539.1c-0.6,0-1,0.4-1.1,0.9c0,0.6,0.4,1,0.9,1.1l1.1,0.1h0.2l2.7,0.3h0.1c0.5,0,0.9-0.4,1-0.9
		c0.1-0.5-0.3-1-0.9-1.1L243.1,539.1L243.1,539.1z M258,540.5c-0.6,0-1,0.4-1,1c0,0.6,0.4,1,1,1l4,0.2l0,0c0.6,0,1-0.4,1-1
		s-0.4-1-1-1C260.6,540.6,259.3,540.5,258,540.5L258,540.5z M273,541c-0.6,0-1,0.4-1,1s0.4,1,1,1h4c0.6,0,1-0.4,1-1s-0.4-1-1-1H273z
		 M291.9,540.5L291.9,540.5l-4.1,0.2c-0.5,0-1,0.5-1,1c0,0.6,0.4,1,1,1l0,0h0.8h0.3l1.9-0.1h0.2h0.8c0.6,0,1-0.5,1-1
		c0-0.6-0.5-1-1-1L291.9,540.5z M306.8,539.1h-0.1c-1.3,0.2-2.6,0.3-4,0.4c-0.6,0-1,0.5-0.9,1c0,0.6,0.5,1,1,1h0.1l1.2-0.1h0.1h0.3
		h0.5h0.4h0.1l0.5-0.1h0.7h0.2c0.6,0,1-0.5,0.9-1.1s-0.5-1-1.1-0.9L306.8,539.1z M321.5,537h-0.2c-1.3,0.2-2.6,0.5-3.9,0.7
		c-0.6,0-1,0.5-0.9,1.1c0,0.6,0.5,1,1.1,0.9h0.1l0.3,0h0.2h0.3h0.6h0.1h0.4h0.1l0,0h0.1h0.5h0.1h0.3h0.1l0,0l0.9-0.2
		c0.6,0,1-0.5,0.9-1.1c0-0.6-0.5-1-1.1-0.9L321.5,537z M336.2,534c-0.1,0-0.2,0-0.2,0c-1.3,0.3-2.6,0.6-3.9,0.9
		c-0.6,0.1-1,0.6-0.9,1.1c0.1,0.6,0.6,1,1.1,0.9c0.1,0,0.1,0,0.2,0c0.8-0.2,1.6-0.4,2.4-0.5l0,0h0.1l0,0h0.1l0,0l0.2,0l0,0h0.1l0,0
		h0.1l0,0h0.1l0,0l0.2,0l0,0h0.1l0,0l0.2-0.1c0.6-0.1,0.9-0.6,0.9-1.1c-0.1-0.6-0.6-0.9-1.1-0.9L336.2,534z M350.6,530.2
		c-0.1,0-0.2,0-0.3,0c-1.3,0.4-2.5,0.7-3.8,1.1c-0.6,0.1-0.9,0.6-0.9,1.1c0.1,0.6,0.6,0.9,1.1,0.9c0.1,0,0.2,0,0.3,0
		c1.3-0.4,2.6-0.7,3.9-1.1c0.6-0.1,0.9-0.6,0.9-1.1C351.7,530.5,351.2,530.1,350.6,530.2L350.6,530.2z M364.8,525.5
		c-0.1,0-0.2,0-0.3,0.1c-1.2,0.4-2.5,0.9-3.7,1.3c-0.6,0.1-0.9,0.6-0.8,1.2c0.1,0.6,0.6,0.9,1.2,0.8c0.1,0,0.2,0,0.3,0l0.4-0.2l0,0
		h0.1l0,0h0.1h0.1l0,0l3.1-1.1c0.5-0.2,0.8-0.8,0.6-1.3c-0.1-0.4-0.5-0.7-0.9-0.7L364.8,525.5z M378.8,520.1c-0.1,0-0.3,0-0.4,0.1
		c-1.2,0.5-2.4,1-3.7,1.5c-0.5,0.2-0.8,0.8-0.6,1.3c0,0,0,0,0,0c0.2,0.5,0.8,0.8,1.3,0.6c0,0,0,0,0,0l1.3-0.5l0,0h0.1l0,0l0.1,0l0,0
		h0.1l0,0h0.1h0.1l0,0h0.1l0,0l0.4-0.2l0,0l1.4-0.6c0.5-0.2,0.7-0.8,0.5-1.3c-0.2-0.4-0.5-0.6-0.9-0.6L378.8,520.1z M392.4,513.9
		c-0.2,0-0.3,0-0.4,0.1c-1.2,0.6-2.4,1.2-3.6,1.7c-0.5,0.2-0.7,0.8-0.5,1.3c0,0,0,0,0,0c0.2,0.4,0.5,0.6,0.9,0.6
		c0.1,0,0.3,0,0.4-0.1l1-0.5h0.1l0,0h0.1l0,0l2.5-1.2c0.5-0.2,0.7-0.8,0.5-1.3c0,0,0,0,0,0C393,514.2,392.7,514,392.4,513.9
		L392.4,513.9z M405.6,507c-0.2,0-0.3,0-0.5,0.1c-1.2,0.6-2.3,1.3-3.5,1.9c-0.5,0.3-0.7,0.9-0.4,1.4c0.2,0.3,0.5,0.5,0.9,0.5
		c0.2,0,0.3,0,0.5-0.1l2-1.1l0,0l0.1,0l0,0h0.1l0,0l0.1-0.1l0,0h0.1l0,0h0h0h0h0h0.1l0,0l0.1-0.1l0,0l0.1,0l0,0l0.1,0l0,0l0.4-0.2
		c0.5-0.3,0.6-0.9,0.4-1.4c-0.2-0.3-0.5-0.5-0.9-0.5L405.6,507z M418.4,499.3c-0.2,0-0.4,0.1-0.5,0.2l-3.4,2.1
		c-0.5,0.3-0.6,0.9-0.3,1.4c0.2,0.3,0.5,0.5,0.9,0.5c0.2,0,0.4-0.1,0.5-0.1l0.9-0.5l0,0l0.1-0.1l0,0l0.3-0.2l0,0l0.1,0l0,0l0.1-0.1
		l0,0l0.2-0.1l0,0l0.1,0l0,0l0.1,0l0,0h0.1l0,0l0.1-0.1l0,0h0h0h0h0l0,0l0.2-0.1l0,0h0.1l0,0h0.1l0,0l0.3-0.2l0,0l0.2-0.2
		c0.5-0.3,0.6-0.9,0.3-1.4c-0.2-0.3-0.5-0.5-0.8-0.5L418.4,499.3z M430.8,490.9c-0.2,0-0.4,0.1-0.6,0.2c-1.1,0.8-2.2,1.5-3.2,2.3
		c-0.5,0.3-0.6,0.9-0.2,1.4c0.3,0.5,0.9,0.6,1.4,0.2l0.1-0.1l0,0l0.1-0.1l0,0l0.1-0.1l0,0l0.1-0.1l0,0h0.1h0l0,0h0l0,0l2.4-1.7l0,0
		l0.1,0l0,0h0c0.4-0.3,0.5-0.9,0.2-1.4c0,0,0,0,0,0c-0.2-0.3-0.5-0.4-0.8-0.4L430.8,490.9z M442.7,481.8c-0.2,0-0.5,0.1-0.6,0.2
		c-1,0.8-2.1,1.6-3.1,2.5c-0.4,0.3-0.5,1-0.2,1.4c0.2,0.2,0.5,0.4,0.8,0.4c0.2,0,0.4-0.1,0.6-0.2l0.1-0.1l0,0h0l0.1,0l0,0l0.2-0.1
		l0,0l1.8-1.4l0,0l0.2-0.2l0,0l0.1-0.1l0,0l0.1-0.1l0,0l0.1-0.1l0,0l0.1-0.1l0,0l0.1-0.1l0,0l0.1-0.1l0,0l0.1-0.1l0,0
		c0.4-0.3,0.5-1,0.2-1.4c0,0,0,0,0,0c-0.2-0.2-0.5-0.4-0.8-0.4L442.7,481.8z M454,472.1c-0.2,0-0.5,0.1-0.7,0.3c-1,0.9-2,1.8-3,2.6
		c-0.4,0.4-0.4,1-0.1,1.4c0.4,0.4,1,0.4,1.4,0.1l0,0l0.1-0.1l0,0l0.1-0.1l0,0l0.2-0.2l0,0l0.1-0.1l0,0l0.1-0.1l0,0l0.2-0.1l0,0
		l0.1-0.1l0,0l0.1,0l0,0l0.2-0.1l0,0l0.1-0.1l0,0l0.1-0.1l0,0l0.1-0.1l0,0l0.1-0.1l0,0v0l0,0h0l0,0h0l0,0l0.1-0.1l0,0l0,0h0l0,0h0.1
		l0,0l0.9-0.8c0.4-0.4,0.4-1,0.1-1.4c-0.2-0.2-0.5-0.3-0.7-0.3L454,472.1z M464.8,461.8c-0.3,0-0.5,0.1-0.7,0.3
		c-0.9,1-1.9,1.9-2.8,2.8c-0.4,0.4-0.4,1,0,1.4c0.4,0.4,1,0.4,1.4,0c0,0,0,0,0,0l0.2-0.2l0,0l0.1,0l0,0l0.1,0l0,0l0.2-0.2l0,0
		l0.1-0.1l0,0l0.1-0.1l0,0l0.1,0l0,0l0.2-0.2l0,0l0.1-0.1l0,0l0.3-0.3l0,0l0.1-0.1l0,0l0.3-0.3l0,0l0.1-0.1l0,0l0.3-0.3l0,0h0.1l0,0
		l0,0l0,0l0,0l0.1-0.1l0,0l0.1-0.1l0,0l0.1-0.1l0,0l0.3-0.3c0.4-0.4,0.4-1,0-1.4c-0.2-0.2-0.4-0.3-0.7-0.3L464.8,461.8z M475,450.9
		c-0.3,0-0.6,0.1-0.8,0.3c-0.9,1-1.8,2-2.6,3c-0.4,0.4-0.3,1,0.1,1.4c0.2,0.2,0.4,0.3,0.7,0.3c0.3,0,0.5-0.1,0.7-0.3
		c0.9-1,1.8-2,2.7-3c0.4-0.4,0.3-1-0.1-1.4C475.5,451,475.2,450.9,475,450.9L475,450.9z M484.6,439.4c-0.3,0-0.6,0.1-0.8,0.4
		c-0.8,1-1.6,2.1-2.5,3.1c-0.4,0.4-0.3,1.1,0.1,1.4c0.4,0.4,1.1,0.3,1.4-0.1l2-2.5l0,0l0.1-0.1l0,0l0.1-0.1l0,0l0.1-0.1v0l0,0v-0.1
		l0,0v-0.1l0,0l0.1-0.1c0.3-0.4,0.3-1.1-0.2-1.4c-0.2-0.1-0.4-0.2-0.6-0.2L484.6,439.4z M493.5,427.4c-0.3,0-0.6,0.2-0.8,0.4
		c-0.8,1.1-1.5,2.2-2.3,3.2c-0.3,0.4-0.2,1.1,0.2,1.4c0.2,0.1,0.4,0.2,0.6,0.2c0.3,0,0.6-0.2,0.8-0.4c0.8-1.1,1.5-2.2,2.3-3.3
		c0.3-0.5,0.2-1.1-0.2-1.4C493.9,427.5,493.7,427.4,493.5,427.4L493.5,427.4z M501.8,415c-0.3,0-0.7,0.2-0.9,0.5
		c-0.7,1.1-1.4,2.2-2.1,3.4c-0.3,0.5-0.2,1.1,0.3,1.4c0.2,0.1,0.3,0.2,0.5,0.2c0.3,0,0.7-0.2,0.8-0.5l0.4-0.6l0,0l0.1-0.1l0,0
		l0.1-0.1l0,0l0.1-0.2l0,0v-0.1l0,0l0-0.1l0,0l0.1-0.1l0,0l0-0.1l0,0v-0.1l0,0l0,0v0v0l0-0.1l0,0v-0.1l0,0v-0.1l0,0v-0.1l0,0
		l0.1-0.2l0,0v-0.1l0,0v-0.1l0,0l0.1-0.2l0,0v-0.1l0,0v-0.1l0,0l0.2-0.3l0,0l0,0c0.3-0.5,0.1-1.1-0.3-1.4c0,0,0,0,0,0
		c-0.2-0.1-0.3-0.1-0.5-0.1L501.8,415z M509.3,402.1c-0.4,0-0.7,0.2-0.9,0.5c-0.6,1.2-1.3,2.3-1.9,3.5c-0.3,0.5-0.1,1.1,0.4,1.4
		c0.2,0.1,0.3,0.1,0.5,0.1c0.4,0,0.7-0.2,0.9-0.5v0l0,0V407l0,0v0c0.6-1,1.1-2,1.7-3l0,0v0v-0.1l0,0l0-0.1c0.3-0.5,0.1-1.1-0.4-1.4
		c0,0,0,0,0,0c-0.1-0.1-0.3-0.1-0.5-0.1L509.3,402.1z M516.1,388.8c-0.4,0-0.7,0.2-0.9,0.6c-0.6,1.2-1.2,2.4-1.7,3.6
		c-0.2,0.5,0,1.1,0.5,1.3c0.1,0.1,0.3,0.1,0.4,0.1c0.4,0,0.7-0.2,0.9-0.5l0.1-0.3v-0.1l0,0v-0.1l0,0c0.5-1,1-2.1,1.5-3.1
		c0.2-0.5,0-1.1-0.5-1.3C516.3,388.9,516.2,388.8,516.1,388.8L516.1,388.8z M522.2,375.1c-0.4,0-0.8,0.2-0.9,0.6
		c-0.5,1.2-1,2.4-1.5,3.7c-0.2,0.5,0,1.1,0.5,1.3c0.1,0.1,0.3,0.1,0.4,0.1c0.4,0,0.8-0.2,0.9-0.6l0.3-0.8l0,0v-0.1l0,0v-0.1v-0.1
		l0,0c0.4-0.9,0.7-1.8,1.1-2.6c0.2-0.5,0-1.1-0.5-1.3c0,0,0,0,0,0c-0.1,0-0.2-0.1-0.4-0.1L522.2,375.1z M527.5,361.1
		c-0.4,0-0.8,0.3-0.9,0.7c-0.4,1.2-0.9,2.5-1.3,3.7c-0.2,0.5,0.1,1.1,0.6,1.3c0.1,0,0.2,0.1,0.3,0.1c0.4,0,0.8-0.3,0.9-0.7
		c0.5-1.2,0.9-2.5,1.3-3.8c0.2-0.5-0.1-1.1-0.6-1.3C527.7,361.2,527.6,361.1,527.5,361.1L527.5,361.1z M531.9,346.9
		c-0.5,0-0.9,0.3-1,0.7c-0.4,1.3-0.7,2.5-1.1,3.8c-0.2,0.5,0.1,1.1,0.7,1.2c0.1,0,0.2,0,0.3,0c0.5,0,0.9-0.3,1-0.7l0.6-2.1l0,0v-0.1
		l0,0v-0.1l0,0v-0.1l0,0v-0.1v-0.1v-0.1v-0.1l0,0v-0.1v0v-0.1l0,0v-0.1l0,0V349l0,0v-0.1v-0.1l0,0v-0.1v0v-0.1l0,0l0.1-0.2
		c0.1-0.5-0.2-1.1-0.7-1.2c-0.1,0-0.2,0-0.3,0L531.9,346.9z M535.6,332.4c-0.5,0-0.9,0.3-1,0.8c-0.3,1.3-0.6,2.6-0.9,3.9
		c-0.1,0.5,0.2,1.1,0.7,1.2c0,0,0,0,0,0c0.1,0,0.2,0,0.2,0c0.5,0,0.9-0.3,1-0.8l0.2-0.7l0,0v-0.1l0,0v-0.1l0,0v0v-0.1v-0.1l0,0
		c0-0.2,0.1-0.3,0.1-0.5l0,0v-0.1l0,0c0-0.1,0.1-0.3,0.1-0.4l0,0v-0.1l0,0v-0.1l0,0v-0.1V335v-0.1l0,0v-0.1l0,0v-0.1l0,0
		c0.1-0.3,0.1-0.6,0.2-0.9c0.1-0.5-0.2-1.1-0.8-1.2h-0.2L535.6,332.4z M538.4,317.7c-0.5,0-0.9,0.4-1,0.8c-0.2,1.3-0.4,2.6-0.7,3.9
		c-0.1,0.5,0.3,1.1,0.8,1.2c0,0,0,0,0,0h0.2c0.5,0,0.9-0.3,1-0.8c0-0.2,0.1-0.5,0.1-0.7v-0.2v-0.1l0,0c0.2-1,0.3-2,0.5-3
		c0.1-0.5-0.3-1.1-0.8-1.1c0,0,0,0,0,0L538.4,317.7L538.4,317.7z M540.4,302.9c-0.5,0-0.9,0.4-1,0.9c-0.1,1.3-0.3,2.6-0.5,3.9
		c-0.1,0.5,0.3,1,0.9,1.1c0,0,0,0,0,0h0.1c0.5,0,0.9-0.4,1-0.9c0-0.3,0.1-0.6,0.1-0.9v-0.2l0,0l0.3-2.9
		C541.5,303.5,541.1,303,540.4,302.9L540.4,302.9z M541.6,288c-0.5,0-1,0.4-1,1c-0.1,1.3-0.2,2.6-0.2,4c0,0.5,0.4,1,0.9,1.1h0.1
		c0.5,0,1-0.4,1-0.9V293l0,0v-1.4l0,0v-0.5l0,0v-0.5l0,0v-0.1l0,0V290l0,0v-0.5l0,0v-0.4c0-0.6-0.4-1-0.9-1c0,0,0,0,0,0L541.6,288z
		 M542,273.1L542,273.1c-0.6,0-1,0.4-1,1v0.9c0,1,0,2,0,3c0,0.6,0.4,1,1,1l0,0c0.6,0,1-0.4,1-1c0-0.3,0-0.5,0-0.8l0,0v-0.4
		c0-0.2,0-0.4,0-0.7l0,0v-0.1l0,0V275l0,0v-0.9C543,273.5,542.5,273.1,542,273.1L542,273.1z M541.5,258.1L541.5,258.1
		c-0.6,0-1,0.5-1,1.1c0,0,0,0,0,0c0.1,1.3,0.1,2.6,0.2,4c0,0.5,0.5,1,1,1l0,0c0.6,0,1-0.4,1-1v-0.6l0,0c0-1.1-0.1-2.2-0.2-3.4
		C542.5,258.6,542.1,258.2,541.5,258.1L541.5,258.1z M540.2,243.3h-0.1c-0.5,0.1-0.9,0.6-0.9,1.1c0,0,0,0,0,0
		c0.2,1.3,0.3,2.6,0.4,3.9c0.1,0.5,0.5,0.9,1,0.9h0.1c0.5-0.1,0.9-0.5,0.9-1.1c0-0.5-0.1-1.1-0.2-1.6l0,0v-0.1l0,0v-0.1l0,0V246
		v-0.8v-0.1l0,0c0-0.3-0.1-0.6-0.1-1c-0.1-0.5-0.5-0.9-1-0.9L540.2,243.3z M538.1,228.5H538c-0.5,0.1-0.9,0.6-0.8,1.1
		c0.2,1.3,0.4,2.6,0.6,3.9c0.1,0.5,0.5,0.9,1,0.9h0.2c0.5-0.1,0.9-0.6,0.8-1.1c-0.2-1.3-0.4-2.6-0.6-3.9
		C539.1,228.8,538.7,228.5,538.1,228.5L538.1,228.5z M535.2,213.8c-0.1,0-0.2,0-0.2,0c-0.5,0.1-0.9,0.7-0.8,1.2c0,0,0,0,0,0
		c0.3,1.3,0.6,2.6,0.9,3.9c0.1,0.5,0.5,0.8,1,0.8c0.1,0,0.1,0,0.2,0c0.5-0.1,0.9-0.6,0.8-1.2c0,0,0,0,0,0c0-0.2-0.1-0.3-0.1-0.5l0,0
		v-0.1v-0.1v-0.1v-0.1l0,0v-0.1l0,0v-0.1v-0.1v-0.1l0,0l-0.1-0.3v-0.1v-0.1v-0.1v-0.1v-0.2v-0.1V216v-0.1v-0.1v-0.1v-0.1v-0.2v-0.1
		v-0.1v-0.1l0,0c0-0.1,0-0.2-0.1-0.3l0,0v-0.1l0,0c0-0.1,0-0.2-0.1-0.3c-0.1-0.5-0.5-0.8-1-0.8L535.2,213.8z M531.4,199.4
		c-0.1,0-0.2,0-0.3,0c-0.5,0.2-0.8,0.7-0.7,1.2l0,0c0.4,1.3,0.7,2.6,1.1,3.8c0.1,0.4,0.5,0.7,1,0.7h0.3c0.5-0.1,0.8-0.7,0.7-1.2
		c0,0,0,0,0,0c-0.2-0.6-0.3-1.2-0.5-1.8l0,0V202l0,0v-0.1l0,0v-0.1l0,0v-0.1l0,0v-0.1v-0.1l0,0v-0.1l0,0c-0.1-0.4-0.2-0.8-0.4-1.3
		c-0.1-0.4-0.5-0.7-1-0.7L531.4,199.4z M526.8,185.1c-0.1,0-0.2,0-0.3,0.1c-0.5,0.2-0.8,0.8-0.6,1.3c0.4,1.2,0.9,2.5,1.3,3.8
		c0.1,0.4,0.5,0.7,1,0.7c0.1,0,0.2,0,0.3,0c0.5-0.2,0.8-0.7,0.6-1.3l-0.5-1.5l0,0v-0.1V188V188v-0.1l0,0v-0.1l0,0v-0.1l0,0v-0.1l0,0
		c-0.2-0.6-0.4-1.1-0.6-1.6c-0.1-0.4-0.5-0.7-0.9-0.7L526.8,185.1z M521.5,171.2c-0.1,0-0.3,0-0.4,0.1c-0.5,0.2-0.8,0.8-0.5,1.3
		c0,0,0,0,0,0c0.5,1.2,1,2.4,1.5,3.7c0.2,0.4,0.5,0.6,0.9,0.6c0.1,0,0.3,0,0.4-0.1c0.5-0.2,0.8-0.8,0.6-1.3l-0.3-0.8l0,0v-0.1l0,0
		l-0.1-0.2v-0.1l0,0v-0.1l0,0v-0.1l0,0c-0.3-0.8-0.6-1.5-1-2.3c-0.2-0.4-0.5-0.6-0.9-0.6L521.5,171.2z M515.3,157.6
		c-0.2,0-0.3,0-0.4,0.1c-0.5,0.2-0.7,0.8-0.5,1.3c0.6,1.2,1.2,2.4,1.7,3.6c0.2,0.3,0.5,0.6,0.9,0.6c0.1,0,0.3,0,0.4-0.1
		c0.5-0.2,0.7-0.8,0.5-1.3l-0.5-1.1l0,0v-0.1l0,0v-0.1l0,0l-0.1-0.1l0,0l0,0v-0.1l0,0v-0.1l0,0l-0.9-1.9c-0.2-0.3-0.5-0.6-0.9-0.6
		L515.3,157.6z M508.4,144.3c-0.2,0-0.3,0-0.5,0.1c-0.5,0.3-0.7,0.9-0.4,1.4c0,0,0,0,0,0c0.6,1.1,1.3,2.3,1.9,3.5
		c0.3,0.5,0.9,0.6,1.4,0.3c0.4-0.3,0.6-0.8,0.4-1.3c-0.1-0.2-0.2-0.3-0.3-0.5v-0.1l0,0l0-0.1l0,0c-0.5-0.9-1-1.9-1.6-2.8
		C509.2,144.5,508.8,144.3,508.4,144.3L508.4,144.3z M500.8,131.5c-0.2,0-0.4,0-0.5,0.1c-0.4,0.3-0.6,0.9-0.3,1.4
		c0.7,1.1,1.4,2.2,2.1,3.4c0.2,0.3,0.5,0.5,0.9,0.5c0.2,0,0.4-0.1,0.5-0.1c0.5-0.3,0.6-0.9,0.3-1.4l-0.4-0.7l0,0l-0.1-0.1v-0.1l0,0
		v-0.1l0,0l0-0.1l0,0c-0.5-0.8-1-1.6-1.5-2.3c-0.2-0.3-0.5-0.5-0.8-0.5L500.8,131.5z M492.5,119.1c-0.2,0-0.4,0.1-0.6,0.2
		c-0.5,0.3-0.6,0.9-0.2,1.4c0,0,0,0,0,0c0.8,1.1,1.5,2.2,2.3,3.2c0.2,0.3,0.5,0.4,0.8,0.4c0.2,0,0.4-0.1,0.6-0.2
		c0.5-0.3,0.6-0.9,0.2-1.4l-0.4-0.6l0,0l-0.1-0.1l0,0l-0.1-0.2l0,0l-0.1-0.1l0,0l0-0.1l0,0l0-0.1l0,0l-0.1-0.1v-0.1l0,0l0,0l0,0
		v-0.1l0,0l-0.2-0.3l0,0l0-0.1l0,0l-0.2-0.3l0,0v-0.1l0,0c-0.1-0.1-0.1-0.2-0.2-0.3l0,0l0-0.1l0,0l0,0v-0.1l0,0l-0.1-0.1l0,0
		l-0.1-0.1l0,0l-0.1-0.1c-0.2-0.3-0.5-0.4-0.8-0.4L492.5,119.1z M483.5,107.2c-0.2,0-0.4,0.1-0.6,0.2c-0.4,0.3-0.5,1-0.2,1.4
		c0,0,0,0,0,0c0.8,1,1.6,2.1,2.5,3.1c0.4,0.4,1,0.5,1.4,0.1c0.4-0.3,0.5-0.9,0.2-1.3l-0.2-0.2l0,0l-0.1-0.1l0,0l-0.2-0.2l0,0v-0.1
		l0,0V110l0,0v-0.1l-0.1-0.1l0,0l0,0l0,0l0,0l0,0l0,0v-0.1l-0.1-0.1v-0.1l0,0v-0.1l0,0v-0.1l0,0l-0.2-0.2l0,0v-0.1l0,0v-0.1l0,0
		c-0.3-0.4-0.6-0.8-1-1.2c-0.2-0.2-0.5-0.4-0.8-0.4L483.5,107.2z M473.8,95.8c-0.6,0-1,0.4-1,1c0,0.2,0.1,0.5,0.2,0.7
		c0.9,1,1.8,2,2.6,3c0.3,0.4,1,0.5,1.4,0.1c0.4-0.3,0.5-1,0.1-1.4c0,0,0,0,0,0l0-0.1l0,0l-0.1-0.1l0,0l-0.1-0.1l0,0l-0.2-0.3l0,0
		l-2.2-2.5C474.4,96,474.1,95.8,473.8,95.8L473.8,95.8z M463.5,84.9c-0.3,0-0.5,0.1-0.7,0.3c-0.4,0.4-0.4,1,0,1.4
		c0.9,0.9,1.9,1.9,2.8,2.8c0.2,0.2,0.4,0.3,0.7,0.3c0.3,0,0.5-0.1,0.7-0.3c0.4-0.4,0.4-1,0-1.4c0,0,0,0,0,0
		c-0.1-0.1-0.2-0.2-0.3-0.3l0,0l0-0.1h0l0,0l-0.1-0.1l0,0c-0.8-0.8-1.6-1.6-2.4-2.4C464,85.1,463.8,85,463.5,84.9L463.5,84.9z
		 M452.6,74.7c-0.3,0-0.6,0.1-0.8,0.3c-0.4,0.4-0.3,1.1,0.1,1.4c0,0,0,0,0,0c1,0.9,2,1.8,3,2.7c0.2,0.2,0.4,0.3,0.7,0.3
		c0.3,0,0.5-0.1,0.7-0.3c0.4-0.4,0.4-1-0.1-1.4c0,0,0,0,0,0c-1-0.9-2-1.8-3-2.7C453.2,74.7,452.9,74.7,452.6,74.7L452.6,74.7z
		 M441.2,65c-0.3,0-0.6,0.1-0.8,0.4c-0.3,0.4-0.3,1.1,0.2,1.4c0,0,0,0,0,0c1,0.8,2.1,1.7,3.1,2.5c0.2,0.2,0.4,0.2,0.6,0.2
		c0.6,0,1-0.4,1-1c0-0.3-0.1-0.6-0.4-0.8l-1.4-1.1l0,0l-0.1-0.1l0,0l-0.1-0.1l0,0l-0.2-0.2l0,0l-0.1-0.1l0,0l-0.1-0.1l0,0l-0.2-0.2
		l0,0l-0.1-0.1l0,0h-0.1l0,0l-0.1-0.1l0,0l-0.1-0.1l0,0h-0.1l0,0l-0.1-0.1l0,0l-0.1-0.1l0,0l-0.4-0.4l0,0l-0.1-0.1l0,0l-0.1-0.1l0,0
		C441.7,65.1,441.4,65.1,441.2,65L441.2,65z M429.3,56c-0.3,0-0.6,0.2-0.8,0.4c-0.3,0.5-0.2,1.1,0.2,1.4c1.1,0.8,2.2,1.5,3.2,2.3
		c0.2,0.1,0.4,0.2,0.6,0.2c0.6,0,1-0.4,1-1c0-0.3-0.1-0.6-0.4-0.8l-0.6-0.4l0,0h-0.1l0,0h0l0,0h-0.1l-0.1,0l0,0h-0.1l0,0h-0.1l0,0
		l-0.1-0.1l0,0l-0.2-0.1l0,0l-1.3-1l0,0l-0.1-0.1l0,0l-0.2-0.1l0,0h-0.1l0,0l0,0l0,0c-0.2-0.1-0.4-0.2-0.6-0.2L429.3,56z
		 M416.8,47.7c-0.6,0-1,0.5-1,1c0,0.3,0.2,0.7,0.5,0.8c1.1,0.7,2.2,1.4,3.4,2.1c0.5,0.3,1.1,0.2,1.4-0.3c0.3-0.5,0.2-1.1-0.3-1.4
		c0,0,0,0,0,0l-0.2-0.1l0,0h-0.1l0,0h-0.1l0,0h-0.1l0,0l-0.1-0.1l0,0h0l0,0h-0.1l0,0h-0.1l0,0H420H420l0,0h-0.1l0,0h-0.1l0,0h-0.1
		l0,0l-0.1-0.1l0,0l-0.1,0l0,0l-0.1,0l0,0l-0.1,0l0,0l-0.2-0.1l0,0h-0.1l0,0l-0.4-0.3l0,0l-0.8-0.5c-0.2-0.1-0.3-0.2-0.5-0.2
		L416.8,47.7z M404,40.2c-0.6,0-1,0.4-1,1c0,0.4,0.2,0.7,0.5,0.9c1.2,0.6,2.3,1.3,3.5,2c0.5,0.3,1.1,0.1,1.4-0.4
		c0.3-0.5,0.1-1.1-0.4-1.4l-0.4-0.2l0,0h-0.1l0,0h-0.1l0,0l0,0l-0.2-0.1l0,0h-0.1l0,0l-1-0.5l0,0l-0.3-0.2l0,0h-0.1l0,0h-0.1l0,0
		l-0.1-0.1l0,0l0,0h-0.1l0,0h-0.1l0,0h-0.1l0,0l-0.1-0.1l0,0l-0.1,0l0,0h-0.1l0,0l-0.1-0.1l0,0c-0.1-0.1-0.3-0.1-0.5-0.1L404,40.2z
		 M390.7,33.3c-0.6,0-1,0.5-1,1c0,0.4,0.2,0.7,0.6,0.9c1.2,0.6,2.4,1.2,3.6,1.8c0.5,0.2,1.1,0,1.3-0.4c0.2-0.5,0-1.1-0.4-1.3l0,0h0
		h-0.1l0,0l-0.3-0.2l0,0h-0.1l0,0l-0.4-0.2l0,0h-0.1l0,0h-0.1l0,0l-0.2-0.1l0,0h-0.1l0,0h-0.1h0h0h-0.1h-0.1h-0.1l0,0H393l0,0h-0.1
		l0,0l-0.1,0l0,0h-0.1l0,0h-0.1l0,0h-0.1l0,0h-0.1l0,0h-0.1l0,0h-0.1h-0.1l0,0h-0.1l0,0l-0.5-0.2c-0.1-0.1-0.3-0.1-0.4-0.1
		L390.7,33.3z M377,27.2c-0.6,0-1,0.5-1,1c0,0.4,0.2,0.8,0.6,0.9c1.2,0.5,2.4,1,3.6,1.5c0.1,0.1,0.3,0.1,0.4,0.1c0.6,0,1-0.4,1-1
		c0-0.4-0.2-0.8-0.6-0.9l-0.2-0.1h0l0,0h-0.1l0,0h-0.1l0,0l-2.4-1l0,0h-0.1l0,0h0l-0.6-0.3c-0.1,0-0.3-0.1-0.4-0.1L377,27.2z
		 M363,21.9c-0.6,0-1,0.4-1,1c0,0.4,0.3,0.8,0.7,1c1.2,0.4,2.5,0.9,3.7,1.3c0.1,0,0.2,0.1,0.3,0.1c0.4,0,0.8-0.3,0.9-0.7
		c0.2-0.5-0.1-1.1-0.6-1.3l-2.1-0.8l0,0h-0.1l0,0l-0.2-0.1l0,0h-0.1h-0.1l0,0h-0.1l0,0l-0.4-0.1l0,0l-0.6-0.2
		c-0.1,0-0.2-0.1-0.3-0.1L363,21.9z M348.8,17.3c-0.5,0-0.9,0.3-1,0.7c-0.2,0.5,0.1,1.1,0.7,1.2c1.3,0.4,2.5,0.7,3.8,1.1
		c0.1,0,0.2,0,0.3,0c0.5,0,0.9-0.3,1-0.7c0.2-0.5-0.1-1.1-0.7-1.2l-0.3-0.1h-0.1l0,0h-0.1l0,0l-2.6-0.8h-0.1l0,0h-0.1l0,0l-0.5-0.1
		c-0.1,0-0.2,0-0.3,0L348.8,17.3z M334.3,13.6c-0.6-0.1-1,0.3-1.1,0.9c-0.1,0.6,0.3,1,0.9,1.1c1.3,0.3,2.6,0.6,3.9,0.9h0.2
		c0.6,0.1,1.1-0.3,1.1-0.9c0.1-0.6-0.3-1.1-0.9-1.1l-1.1-0.3l0,0h-0.1l0,0h-0.1l0,0h-0.1l0,0H337h0h-0.1h-0.2h-0.1l0,0h-0.1h-0.2
		h-0.1h-0.1L336,14h-0.1h-0.1h-0.1l0,0h-0.1h-0.1h-0.1l-0.2-0.1l0,0h-0.1l0,0H335l0,0l-0.3-0.1c-0.1,0-0.1,0-0.2,0L334.3,13.6z
		 M319.7,10.7c-0.6,0-1,0.4-1.1,0.9c0,0.6,0.4,1,0.9,1.1c1.3,0.2,2.6,0.4,3.9,0.7c0.1,0,0.1,0,0.2,0c0.6,0,1-0.4,1.1-0.9
		s-0.4-1-0.9-1.1l0,0l-2.6-0.4l0,0l-0.4-0.1h-0.3l-0.6-0.1L319.7,10.7z M304.9,8.7c-0.5,0-0.9,0.4-1,0.9c-0.1,0.5,0.3,1,0.9,1.1
		c1.3,0.1,2.6,0.3,3.9,0.5h0.1c0.6,0,1-0.4,1.1-0.9s-0.4-1-0.9-1.1h-0.3h-0.2l-3.2-0.4L304.9,8.7L304.9,8.7z M290,7.4
		c-0.6,0-1,0.4-1,1s0.4,1,1,1l4,0.2l0,0c0.6,0,1-0.4,1-1s-0.4-1-1-1h-0.2L292,7.5h-0.8l-1.1-0.1L290,7.4z"/>
</g>
</svg>
