<svg data-name="Layer 1" xmlns="http://www.w3.org/2000/svg" viewBox="0 0 550 550"><path d="M275 75h-4a1 1 0 000 2h4a1 1 0 000-2zm-14.9.6l-2.5.2H256a.9.9 0 00-.9 1.1.94.94 0 001.1.9h.1l4-.3a1 1 0 001-1 1.08 1.08 0 00-1-1zm-14.8 1.6h-.9l-1.1.2h-1l-1.1.2a1 1 0 00.2 2h.2l3.9-.6a1 1 0 00-.2-2v.2zM230.6 80h-.2c-1.2.3-2.4.6-3.6.8h-.3a1 1 0 00-.7 1.2 1 1 0 001 .8h.2l3.9-.9a1 1 0 00-.2-2l-.1.1zm-14.4 3.9h-.3l-1.4.4h-.4l-2 .7a1 1 0 10.4 2h.3c1.2-.4 2.5-.8 3.8-1.2a1.11 1.11 0 00.9-1.2 1 1 0 00-1.2-.8zm-14.1 4.9a.76.76 0 00-.4.1c-1.2.5-2.5 1-3.7 1.5a1 1 0 00-.5 1.3 1 1 0 00.9.6.6.6 0 00.4-.1c1.2-.5 2.4-1 3.7-1.5a1 1 0 00.6-1.3 1.1 1.1 0 00-1-.6zm-13.7 6a.6.6 0 00-.4.1l-.8.4h-.2c-.8.4-1.6.8-2.3 1.2a.92.92 0 00-.4 1.3 1.05 1.05 0 00.9.5c.2 0 .3 0 .4-.1l3.6-1.8a1 1 0 00.5-1.3 1.15 1.15 0 00-.9-.6l-.4.3zm-13.1 7a4.33 4.33 0 00-.5.1l-.3.2-3 1.8a1 1 0 00-.3 1.4 1.05 1.05 0 00.9.5.76.76 0 00.5-.2c1.1-.7 2.3-1.4 3.4-2a1.11 1.11 0 00.4-1.4 1.05 1.05 0 00-.9-.5l-.2.1zm-12.7 8a1.42 1.42 0 00-.6.2c-.9.6-1.7 1.2-2.6 1.8h-.1l-.1.1h-.1l-.1.1a1 1 0 00-.2 1.4.91.91 0 00.8.4 1.42 1.42 0 00.6-.2c1.1-.8 2.2-1.5 3.2-2.3a1 1 0 00.3-1.4.91.91 0 00-.8-.4l-.3.3zm-12 8.9a1.42 1.42 0 00-.6.2l-.6.5-.1.1-.1.1-.1.1-.1.1-.1.1-.5.4a1 1 0 00-.1 1.4 1.23 1.23 0 00.8.4 1.07 1.07 0 00.6-.2c1-.8 2-1.7 3.1-2.5a1.08 1.08 0 00.2-1.4 1.23 1.23 0 00-.8-.4l-1.6 1.1zm-11.2 9.7a.91.91 0 00-.7.3l-.4.4c-.8.8-1.6 1.5-2.4 2.3a1 1 0 001.4 1.4c.9-.9 1.9-1.8 2.9-2.7a1 1 0 000-1.4 1.33 1.33 0 00-.8-.3zM128.8 139a.91.91 0 00-.7.3l-.1.1v.2l-.7.8-.1.1-1.4 1.5a1 1 0 00.2 1.4.93.93 0 001.3-.1c.9-1 1.8-2 2.7-2.9a1 1 0 000-1.4.91.91 0 00-.7-.3l-.5.3zm-9.7 11.3a.91.91 0 00-.8.4l-1.1 1.3-.1.1-.1.1-.8 1.1a1 1 0 00.2 1.4 1.42 1.42 0 00.6.2.91.91 0 00.8-.4c.8-1.1 1.6-2.1 2.4-3.1a1 1 0 00-.2-1.4 1.42 1.42 0 00-.6-.2l-.3.5zm-8.8 12a1.23 1.23 0 00-.8.4c-.8 1.1-1.5 2.2-2.2 3.3a1 1 0 001.7 1.1c.7-1.1 1.4-2.2 2.2-3.3a1 1 0 00-.3-1.4c-.2 0-.4-.1-.6-.1zm-7.9 12.7a1.05 1.05 0 00-.9.5c-.7 1.1-1.3 2.3-2 3.5a1 1 0 00.4 1.4.75.75 0 00.5.1 1.05 1.05 0 00.9-.5c.6-1.1 1.3-2.3 1.9-3.4a1 1 0 00-.4-1.4.4.4 0 00-.4-.2zm-7 13.2a1 1 0 00-.9.6l-1.5 3.3v.2l-.1.2a1 1 0 001.8.8c.6-1.2 1.1-2.4 1.7-3.6a1 1 0 00-.5-1.3c-.1-.2-.3-.2-.5-.2zm-5.9 13.7a.87.87 0 00-.9.6c-.5 1.2-.9 2.5-1.4 3.8a1 1 0 00.6 1.3c.1 0 .2.1.3.1a1 1 0 00.9-.7c.4-1.2.9-2.5 1.4-3.7a1 1 0 00-.6-1.3.37.37 0 00-.3-.1zM84.6 216a1 1 0 00-1 .7 3.09 3.09 0 00-.2.8v.2l-.6 2.1v.4c0 .1-.1.2-.1.4a1 1 0 00.7 1.2h.3a1 1 0 001-.7c.4-1.3.7-2.6 1.1-3.8a.89.89 0 00-.7-1.2h-.3l-.2-.1zm-3.8 14.4a1 1 0 00-1 .8c0 .2-.1.4-.1.6l-.1.2v3a1 1 0 00.8 1.2h.2a1 1 0 001-.8c.3-1.3.5-2.6.8-3.9a1 1 0 00-.7-1.2.88.88 0 00-.7.1zm-2.7 14.7a1.06 1.06 0 00-1 .9 3.59 3.59 0 01-.2 1.1v.5c-.1.7-.2 1.5-.3 2.2a1 1 0 00.9 1.1h.1a1.06 1.06 0 001-.9c.2-1.3.3-2.6.5-3.9a.94.94 0 00-.8-1.1l-.2.1zm-1.6 14.8a1 1 0 00-1 .9c-.1 1-.1 2-.2 3v.9a1 1 0 00.9 1 1 1 0 001-1c.1-1.3.2-2.6.2-4 .1-.3-.3-.8-.9-.8zm-.5 14.9a.94.94 0 00-1 1v4.1a1 1 0 002 0c0-1.3 0-2.6-.1-4 0-.7-.4-1.1-.9-1.1zm.6 14.9a1 1 0 00-1 1.1c0 .6.1 1.1.1 1.7v1.6l.1.6a1.06 1.06 0 001 .9h.1a1 1 0 00.9-1.1c-.1-1.3-.2-2.6-.3-4a1 1 0 00-1-.9l.1.1zm1.7 14.8h-.2a1 1 0 00-.8 1.1v.2l.3 1.8v.7c.1.4.1.8.2 1.2v.1a1 1 0 001 .8h.2a1 1 0 00.8-1.2l-.6-3.9a1 1 0 00-1-.8zm2.9 14.7H81a1.1 1.1 0 00-.8 1.2c0 .2.1.3.1.5v2c.1.5.2.9.3 1.4a1 1 0 001 .8h.2a1 1 0 00.7-1.2l-.9-3.9a1 1 0 00-1-.8zm3.9 14.4h-.3a1.09 1.09 0 00-.7 1.2c.4 1.3.8 2.5 1.2 3.8a1 1 0 00.9.7h.3a1 1 0 00.6-1.3c-.4-1.2-.8-2.5-1.2-3.8 0-.4-.4-.6-.8-.6zm5 14a.6.6 0 00-.4.1 1 1 0 00-.6 1.3c.5 1.2 1 2.5 1.5 3.7a1 1 0 00.9.6.6.6 0 00.4-.1 1 1 0 00.5-1.3c-.5-1.2-1-2.5-1.5-3.7a.87.87 0 00-.8-.6zm6 13.7c-.2 0-.3 0-.4.1a1 1 0 00-.5 1.3c.1.2.2.5.3.7v.1l.1.2.1.2.1.1v.1c.2.5.5.9.7 1.4a1.05 1.05 0 00.9.5c.2 0 .3 0 .4-.1a.88.88 0 00.4-1.3c-.6-1.2-1.2-2.4-1.8-3.5a1.15 1.15 0 00-.9-.6l.6.8zm7 13.1a.75.75 0 00-.5.1 1.11 1.11 0 00-.4 1.4l.3.6v.1c.4.6.7 1.2 1.1 1.8a2.09 2.09 0 00.4.6 1 1 0 00.8.5 1 1 0 001-1 4.33 4.33 0 00-.1-.5c-.7-1.1-1.4-2.3-2-3.4a1.05 1.05 0 00-.9-.5zm8 12.6a1.42 1.42 0 00-.6.2 1 1 0 00-.3 1.4c.8 1.1 1.5 2.2 2.3 3.3a.91.91 0 00.8.4.94.94 0 001-1 1.42 1.42 0 00-.2-.6c-.8-1.1-1.5-2.1-2.3-3.2 0-.3-.3-.5-.7-.5zm9 12a1 1 0 00-1 1 1.42 1.42 0 00.2.6l.4.5.2.2c.6.8 1.3 1.5 1.9 2.3a1.23 1.23 0 00.8.4.94.94 0 001-1 1.85 1.85 0 00-.2-.7c-.8-1-1.7-2-2.5-3a1.6 1.6 0 00-.8-.3zm9.8 11.3a.91.91 0 00-.7.3 1 1 0 000 1.4c.6.6 1.1 1.2 1.7 1.8l.2.2.1.1.1.1a1 1 0 001.4 0 1 1 0 000-1.4c-.9-.9-1.8-1.9-2.7-2.9a1.08 1.08 0 00-.7-.3l.6.7zm10.6 10.5a.91.91 0 00-.7.3 1 1 0 00.1 1.4c.6.6 1.2 1.1 1.9 1.7l.2.1.8.7a.84.84 0 00.7.2 1.14 1.14 0 00.8-.3 1 1 0 00-.1-1.4l-2.9-2.6a.91.91 0 00-.7-.3l-.1.2zm11.4 9.6a.94.94 0 00-1 1 .91.91 0 00.4.8c1.1.8 2.1 1.6 3.2 2.4a1.42 1.42 0 00.6.2.91.91 0 00.8-.4 1.08 1.08 0 00-.2-1.4c-1-.8-2.1-1.6-3.1-2.4a2.54 2.54 0 00-.7-.2zm12 8.8a1 1 0 00-1 1 1.23 1.23 0 00.4.8 8.79 8.79 0 001 .6c.8.5 1.5 1 2.3 1.5.2.1.3.2.5.2a1 1 0 001-1 .89.89 0 00-.5-.8c-1.1-.7-2.2-1.5-3.3-2.2-.1-.1-.3-.2-.4-.1zm12.7 7.8a1.05 1.05 0 00-.9.5 1 1 0 00.4 1.4l.4.2h.1l.2.1h.2l.1.1h.2l.2.1h.2l2.1 1.2a1 1 0 001-1.8c-1.2-.6-2.3-1.3-3.5-1.9a.9.9 0 00-.5-.1l-.2.2zm13.3 6.9a.94.94 0 00-1 1 1 1 0 00.6.9l1.3.6c.7.3 1.4.7 2.1 1a.6.6 0 00.4.1 1 1 0 00.9-.6 1 1 0 00-.5-1.3c-1.2-.5-2.4-1.1-3.6-1.7a.6.6 0 00-.4-.1zm13.7 5.9a.94.94 0 00-1 1 1.2 1.2 0 00.7 1l3.1 1.1h.5l.4.1a1 1 0 10.7-1.9c-1.2-.5-2.5-.9-3.7-1.4-.1 0-.2-.1-.4-.1l-.3.2zm14.1 4.8a1 1 0 00-1 .7.89.89 0 00.7 1.2l2 .6h.3l1.5.4h.3a1 1 0 10.2-2c-1.3-.4-2.5-.7-3.8-1.1h-.3l.1.2zm14.5 3.7a1 1 0 00-1 .8 1 1 0 00.8 1.2 10.46 10.46 0 011.7.4h.7l1.5.3h.4a1 1 0 10.2-2c-1.3-.3-2.6-.5-3.9-.8h-.2l-.2.1zm14.6 2.7a1 1 0 00-.2 2c1.3.2 2.6.4 4 .5h.1a1.09 1.09 0 001.1-.9c.1-.5-.4-1-.9-1.1-1.3-.2-2.6-.3-3.9-.5zm14.9 1.5a1 1 0 000 2l1.6.1h.4l1.1.1h.9a1 1 0 000-2c-1.4-.1-2.7-.1-4-.2zm18.9.4c-1.3 0-2.6.1-4 .1a1 1 0 000 2h4a.94.94 0 001-1 1.09 1.09 0 00-1-1.1zm14.9-1h-.1c-1.3.1-2.6.3-3.9.4a1 1 0 000 2h.1l3.4-.3h.6a.9.9 0 00.9-1.1 1.07 1.07 0 00-1-1zm14.7-2.1h-.2c-1.3.2-2.6.5-3.9.7a1 1 0 10.2 2h.1c1.3-.2 2.6-.4 4-.7a.9.9 0 00.9-1.1 1 1 0 00-1.1-.9zm14.6-3.2h-.2c-1.3.3-2.6.6-3.8 1a1.1 1.1 0 00-.8 1.2 1 1 0 001 .8h.2l.6-.1h.2l2.1-.5h.3l.7-.2a1.07 1.07 0 00.9-1.1c0-.5-.6-1-1.2-1.1zm14.3-4.2a.37.37 0 00-.3.1c-1.2.4-2.5.8-3.8 1.2a1 1 0 10.4 2h.3l.4-.1h.1c.8-.3 1.7-.5 2.5-.8h.1l.7-.2a1 1 0 00-.4-2v-.2zm14-5.3a.6.6 0 00-.4.1c-1.2.5-2.4 1-3.7 1.5a1 1 0 00-.6 1.3 1 1 0 00.9.6.6.6 0 00.4-.1l.2-.1h.1l.1-.1h3a1 1 0 00.5-1.3 1 1 0 00-.9-.6zm13.4-6.4a.9.9 0 00-.5.1c-1.2.6-2.4 1.2-3.5 1.8a.92.92 0 00-.4 1.3 1.05 1.05 0 00.9.5c.2 0 .3 0 .4-.1l.2-.1h.2l.1-.1h.1l.2-.1 2.3-1.2a1 1 0 00.4-1.4 1.05 1.05 0 00-.9-.5l.5-.2zm13-7.4a4.33 4.33 0 00-.5.1 37.91 37.91 0 01-3.4 2 1 1 0 001 1.8c1.1-.7 2.3-1.4 3.4-2.1a1 1 0 00.3-1.4.89.89 0 00-.8-.4zm12.4-8.3a1.42 1.42 0 00-.6.2l-3.2 2.3a.9.9 0 00-.2 1.4.91.91 0 00.8.4 1.42 1.42 0 00.6-.2h.2l.2-.1h.1l1.4-.9h.1l.1-.1.1-.1 1-.7a1.06 1.06 0 00.2-1.4.91.91 0 00-.8-.4v-.4zm11.8-9.2a1.07 1.07 0 00-.6.2c-1 .9-2 1.7-3 2.5a1 1 0 00-.1 1.4 1.08 1.08 0 001.4.2l.7-.6.2-.2.1-.1.1-.1.9-.8a1 1 0 00.1-1.4 1.23 1.23 0 00-.8-.4l1-.7zm11-10.1a.91.91 0 00-.7.3c-.9.9-1.9 1.8-2.9 2.8a1 1 0 000 1.4 1 1 0 001.4 0c.5-.5 1.1-1 1.6-1.6l.1-.1.9-.9a1 1 0 000-1.4.91.91 0 00-.7-.3l.3-.2zm10.2-10.9a1.14 1.14 0 00-.8.3c-.9 1-1.8 2-2.6 3a1.06 1.06 0 00.8 1.7.78.78 0 00.7-.3l2.7-3a1 1 0 00-.1-1.4 1.08 1.08 0 00-.7-.3zm9.4-11.6a.91.91 0 00-.8.4c-.8 1-1.6 2.1-2.4 3.1a1 1 0 00.2 1.4 1.42 1.42 0 00.6.2.91.91 0 00.8-.4c.8-1 1.6-2.1 2.4-3.2a1.08 1.08 0 00-.2-1.4c-.2 0-.4-.1-.6-.1zm8.5-12.2a.89.89 0 00-.8.5c-.7 1.1-1.4 2.2-2.2 3.3a1 1 0 00.3 1.4 1.69 1.69 0 00.5.2 1.23 1.23 0 00.8-.4l.1-.1v-.1c.7-1 1.3-2 2-3.1a1 1 0 00-.3-1.4c-.2-.1-.3-.2-.5-.2l.1-.1zm7.6-12.9a1.05 1.05 0 00-.9.5c-.6 1.2-1.3 2.3-1.9 3.5a1 1 0 00.4 1.4.75.75 0 00.5.1 1.05 1.05 0 00.9-.5v-.1c.3-.5.5-1 .8-1.5v-.2l.7-1.3a1 1 0 00-.4-1.4.75.75 0 00-.5-.1zm6.5-13.4a1 1 0 00-.9.6c-.5 1.2-1.1 2.4-1.6 3.6a1 1 0 00.5 1.3.6.6 0 00.4.1 1 1 0 00.9-.6c0-.1.1-.2.1-.3v-.1l.7-1.3.6-1.3a1 1 0 00-.5-1.3.6.6 0 00-.4-.1l.2-.6zm5.6-13.8a1 1 0 00-1 .7c-.4 1.2-.9 2.5-1.4 3.7a1 1 0 00.6 1.3c.1 0 .2.1.4.1a1.1 1.1 0 001-.6c.4-1 .7-1.9 1.1-2.9v-.2l.3-.8a1 1 0 00-.6-1.3zm4.5-14.2a1 1 0 00-1 .7c-.3 1.3-.7 2.5-1.1 3.8a.89.89 0 00.7 1.2h.3a1 1 0 001-.7l.1-.3v-.4c.3-1.1.6-2.2.9-3.2a1 1 0 00-.7-1.2.31.31 0 01-.2.1zm3.4-14.5a1 1 0 00-1 .8c-.2 1.3-.5 2.6-.8 3.9a1 1 0 00.8 1.2h.2a1 1 0 001-.8c.1-.5.2-.9.3-1.4v-.5c.1-.7.3-1.4.4-2v-.1a1 1 0 00-.9-1.1zm2.3-14.8a1.06 1.06 0 00-1 .9c-.1 1.3-.3 2.6-.5 3.9a.94.94 0 00.9 1.1h.1a1.06 1.06 0 001-.9c.2-1.1.3-2.3.4-3.4v-.5a1 1 0 00-.9-1.1zm1.2-14.8a1 1 0 00-1 1c0 1.3-.1 2.6-.2 4a1.09 1.09 0 00.9 1.1h.1a1 1 0 001-.9l.1-1v-.1c0-1 .1-1.9.1-2.9a1.06 1.06 0 00-1-1.2zm0-15a.94.94 0 00-1 1c0 1.3.1 2.6.1 4a1 1 0 002 0c0-1.4 0-2.7-.1-4a1 1 0 00-1-1zm-1-14.9h-.1a1.09 1.09 0 00-.9 1.1c.1 1.3.3 2.6.4 3.9a1 1 0 001 .9h.1a1 1 0 00.9-1.1c0-.4-.1-.8-.1-1.1v-2.1a2.2 2.2 0 00-.1-.8 1.06 1.06 0 00-1-.9l-.2.1zm-2.1-14.7h-.2a1 1 0 00-.8 1.2c.2 1.3.5 2.6.7 3.9a1 1 0 001 .8h.2a1 1 0 00.8-1.1c-.1-.6-.2-1.2-.3-1.9v-.3l-.3-1.5v-.3a1 1 0 00-1-.8zm-3.3-14.6h-.2a1 1 0 00-.7 1.2c.3 1.3.7 2.6 1 3.8a1 1 0 001 .8h.2a1 1 0 00.7-1.2 5.73 5.73 0 00-.4-1.4v-.4a16 16 0 01-.5-2.1.9.9 0 00-1-.7zm-4.3-14.2h-.3a1 1 0 00-.6 1.3c.4 1.2.9 2.5 1.2 3.8a1 1 0 001 .7h.3a.93.93 0 00.6-1.2v-.4c-.4-1.2-.8-2.3-1.2-3.5a1 1 0 00-1-.7zm-5.4-14a.6.6 0 00-.4.1 1 1 0 00-.5 1.3l1.5 3.6a1 1 0 001.3.6.92.92 0 00.5-1.3l-.3-.6v-.1l-.1-.1v-.1l-.1-.2v-.1a22.88 22.88 0 00-1-2.3 1 1 0 00-.9-.6v-.2zm-6.4-13.4a.9.9 0 00-.5.1 1 1 0 00-.4 1.4c.6 1.2 1.2 2.4 1.8 3.5a1.15 1.15 0 00.9.6c.2 0 .3 0 .4-.1a1 1 0 00.5-1.3 10.91 10.91 0 00-.6-1.1l-.9-1.8v-.1l-.2-.4a1.05 1.05 0 00-.9-.5l-.1-.3zm-7.5-13a4.33 4.33 0 00-.5.1 1 1 0 00-.3 1.4c.7 1.1 1.4 2.2 2.1 3.4a1.05 1.05 0 00.9.5 4.33 4.33 0 00.5-.1 1.11 1.11 0 00.4-1.4l-.6-1v-.3c-.4-.7-.9-1.4-1.3-2.1a1.05 1.05 0 00-.9-.5zm-8.3-12.4a1.42 1.42 0 00-.6.2 1.06 1.06 0 00-.2 1.4c.8 1.1 1.6 2.1 2.3 3.2a.91.91 0 00.8.4 1.42 1.42 0 00.6-.2 1 1 0 00.3-1.4c-.8-1.1-1.5-2.2-2.3-3.2a1.8 1.8 0 00-.9-.4zm-9.3-11.7a.94.94 0 00-1 1 1.85 1.85 0 00.2.7c.9 1 1.7 2 2.5 3a1.23 1.23 0 00.8.4 1.07 1.07 0 00.6-.2 1 1 0 00.1-1.4l-1.9-2.2-.2-.2-.2-.2a1.23 1.23 0 00-.8-.4l-.1-.5zm-10.1-11a.91.91 0 00-.7.3 1 1 0 000 1.4l2.8 2.8a1 1 0 001.4 0 1 1 0 000-1.4l-1-1.1-1.5-1.5a.91.91 0 00-.7-.3zm-10.9-10.2a1.14 1.14 0 00-.8.3 1 1 0 00.1 1.4c1 .9 2 1.7 3 2.6a.91.91 0 00.7.3.94.94 0 001-1 .78.78 0 00-.3-.7l-.4-.3-1.9-1.7h-.1v-.1a.84.84 0 00-.7-.2l-.6-.6zm-11.6-9.3a.94.94 0 00-1 1 .91.91 0 00.4.8c1.1.8 2.1 1.6 3.2 2.4a1.42 1.42 0 00.6.2 1 1 0 001-1 .91.91 0 00-.4-.8c-1.1-.8-2.1-1.6-3.2-2.4a1.42 1.42 0 00-.6-.2zm-12.3-8.5a1.19 1.19 0 00-.9.5 1 1 0 00.3 1.4c1.1.7 2.2 1.4 3.3 2.2a1.69 1.69 0 00.5.2 1 1 0 00.8-.4 1 1 0 00-.3-1.4l-1.8-1.1-.1-.1-1.2-.8c-.2-.1-.3-.2-.5-.2l-.1-.3zm-12.9-7.5a1 1 0 00-1 1 1.05 1.05 0 00.5.9c1.2.6 2.3 1.3 3.5 1.9a.75.75 0 00.5.1 1 1 0 001-1 1.05 1.05 0 00-.5-.9l-1.7-.9-.1-.1-1.4-.8a.75.75 0 00-.5-.1zm-13.4-6.5a.94.94 0 00-1 1 .87.87 0 00.6.9c1.2.5 2.4 1.1 3.6 1.6a.6.6 0 00.4.1 1 1 0 001-1 1 1 0 00-.6-.9c-1.2-.6-2.4-1.1-3.7-1.7zm-13.9-5.5a1 1 0 00-.9.7 1 1 0 00.6 1.3c1.2.4 2.5.9 3.7 1.3.1 0 .2.1.4.1a.94.94 0 001-1 1.2 1.2 0 00-.7-1l-3.1-1.1h-.1l-.6-.2a.37.37 0 01-.3-.1zm-14.3-4.4a.9.9 0 00-1.1.9c0 .6.3 1.1.9 1.1 1.3.3 2.5.7 3.8 1.1h.3a1 1 0 00.2-2l-.3-.1h-.1l-2.8-.8h-.3l-.4-.1h-.3l.1-.1zm-14.5-3.3a1 1 0 00-1.1.9c-.1.5.4 1 .9 1.1 1.3.2 2.6.5 3.9.8h.2a1 1 0 00.2-2h-.6l-2.5-.5h-.1l-.7-.1h-.2v-.2zm-14.8-2.2a1.09 1.09 0 00-1.1.9c-.1.5.4 1 .9 1.1 1.3.1 2.6.3 3.9.5h.1a1.06 1.06 0 001-.9 1 1 0 00-.9-1.1l-.8-.1h-.6l-2.5-.3v-.1zm-14.8-1.2a1 1 0 000 2c1.3 0 2.6.1 4 .2h.1a1 1 0 001-.9 1.17 1.17 0 00-.9-1.1h-1l-1.1-.1h-.5z" fill="#9dacbf" opacity=".4" style="isolation:isolate"/><path d="M260.1 136.8h-.1c-1.3.1-2.7.3-4 .5a.9.9 0 00-.9 1.1.94.94 0 001.1.9h.1c1.3-.2 2.6-.3 3.9-.5a.9.9 0 00.9-1.1 1 1 0 00-1-.9zm-14.7 2.4h-.4l-2.6.6h-.1l-.4.1c-.2.1-.5.1-.7.2a1 1 0 10.2 2h.2c1.3-.3 2.6-.6 3.8-.9a1 1 0 00.9-1.1c.2-.6-.3-1-.9-.9zm-14.3 4a.37.37 0 00-.3.1c-1.3.4-2.5.9-3.8 1.3a1 1 0 00-.6 1.3 1 1 0 00.9.7.37.37 0 00.3-.1c1.2-.4 2.5-.9 3.7-1.3a1 1 0 00.8-1.2c-.1-.6-.5-1-1-.8zm-13.8 5.5a.6.6 0 00-.4.1l-.4.2h-1.3l-.1.1h-.2l.1-.1-.1.1-.2.1h-.4l-.3.2a.88.88 0 00-.4 1.3 1.15 1.15 0 00.9.6c.2 0 .3 0 .4-.1 1.2-.6 2.4-1.1 3.6-1.7a1 1 0 00.5-1.3 1 1 0 00-.9-.6l-.8 1.1zm-13.2 7a4.33 4.33 0 00-.5.1l-.4.2c-.9.6-1.8 1.1-2.8 1.7a1 1 0 00-.3 1.4 1 1 0 00.8.5 4.33 4.33 0 00.5-.1c1.1-.7 2.2-1.4 3.4-2.1a1 1 0 00.3-1.4 1.05 1.05 0 00-.9-.5l-.1.2zm-12.3 8.3a1.42 1.42 0 00-.6.2l-.8.6h-.2l-.1.1h-.1l-.1.1-.2.1-.1.1-.1.1-.2.2a1.08 1.08 0 00-.2 1.4 1.23 1.23 0 00.8.4 1.42 1.42 0 00.6-.2c1-.8 2.1-1.6 3.1-2.4a1.08 1.08 0 00.2-1.4 1.23 1.23 0 00-.8-.4l-1.2 1.1zm-11.4 9.6a.91.91 0 00-.7.3l-.1.1-.1.1-.1.1-.1.1-.1.1-1.1 1.1a1 1 0 000 1.4 1 1 0 001.4 0l2.8-2.8a1 1 0 000-1.4.91.91 0 00-.7-.3l-1.2 1.2zm-10.3 10.7a.91.91 0 00-.8.4l-.1.1-.2.2c-.7.8-1.3 1.6-2 2.4v.1a1 1 0 00.2 1.4 1.42 1.42 0 00.6.2.91.91 0 00.8-.4c.8-1 1.7-2 2.5-3a1 1 0 00-.1-1.4.84.84 0 00-.7-.2zm-9 11.8a1.23 1.23 0 00-.8.4 16.29 16.29 0 00-1.1 1.7v.1l-.8 1.2a1 1 0 00.3 1.4c.2.1.3.2.5.2a.89.89 0 00.8-.5c.7-1.1 1.4-2.2 2.2-3.3a1 1 0 00-.3-1.4 1.42 1.42 0 00-.6-.2l-.2.4zm-7.8 12.7a1.05 1.05 0 00-.9.5v.1l-.1.2-.1.1-.1.2-.1.2-.6 1.2-.4.7v.3c-.1.2-.2.3-.2.5a.88.88 0 00.4 1.3.6.6 0 00.4.1 1 1 0 00.9-.6c.6-1.2 1.2-2.4 1.8-3.5a1 1 0 00-.4-1.4.75.75 0 00-.5-.1l-.1.2zm-6.3 13.5a.87.87 0 00-.9.6c-.2.4-.3.8-.5 1.2v.1l-.1.2v.4l-.1.1v.2l-.1.2c-.1.4-.3.8-.4 1.2a1 1 0 00.6 1.3c.1 0 .2.1.3.1a1 1 0 00.9-.7c.5-1.2.9-2.5 1.4-3.7a1 1 0 00-.6-1.3c-.1 0-.2-.1-.4-.1l-.1.2zm-4.8 14.1a1 1 0 00-1 .7c-.4 1.3-.7 2.6-1 3.9a1 1 0 001.9.5c.3-1.3.7-2.6 1-3.8a1 1 0 00-.7-1.2.31.31 0 00-.2-.1zm-3.3 14.5a1 1 0 00-1 .8v.6a7.77 7.77 0 00-.2 1.6v.6c-.1.4-.1.7-.2 1.1a.94.94 0 00.9 1.1h.1a1.06 1.06 0 001-.9l.6-3.9a.94.94 0 00-.8-1.1l-.4.1zm-1.7 14.8a1 1 0 00-1 .9 21.75 21.75 0 00-.1 2.5v1.4a1 1 0 002 0c0-1.3.1-2.6.2-3.9a1 1 0 00-.9-1zm-.1 14.9a.94.94 0 00-1 1c.1 1.3.1 2.7.2 4a1 1 0 001 .9h.1a.9.9 0 00.9-1.1c-.1-1.3-.2-2.6-.2-3.9a.87.87 0 00-1-.9zm1.5 14.8h-.2a1 1 0 00-.8 1.1l.2 1.3v.4a15.52 15.52 0 00.4 2.1 1 1 0 001 .8h.2a1 1 0 00.8-1.2c-.2-1.3-.5-2.6-.7-3.9a.8.8 0 00-.9-.6zm3.1 14.6h-.3a1 1 0 00-.7 1.2c.1.2.1.5.2.7v.8l.1.2c.2.7.4 1.3.6 2a1 1 0 001 .7h.3a1.09 1.09 0 00.7-1.2c-.4-1.2-.7-2.5-1.1-3.8a.9.9 0 00-1-.7l.2.1zm4.7 14.1a.76.76 0 00-.4.1 1 1 0 00-.6 1.3l.1.1v.7l.1.2.1.2c.2.6.5 1.2.7 1.8a1 1 0 00.9.6.6.6 0 00.4-.1 1 1 0 00.5-1.3l-1.5-3.6a.87.87 0 00-.9-.6l.6.6zm6.1 13.6a.9.9 0 00-.5.1.92.92 0 00-.4 1.3c.4.8.9 1.7 1.4 2.5l.1.1.2.4a1.05 1.05 0 00.9.5.9.9 0 00.5-.1 1.11 1.11 0 00.4-1.4c-.6-1.1-1.3-2.3-1.9-3.5a1.05 1.05 0 00-.9-.5zm7.6 12.8a.94.94 0 00-1 1 1.42 1.42 0 00.2.6c.5.8 1.1 1.5 1.6 2.3l.3.5a.91.91 0 00.8.4 1.42 1.42 0 00.6-.2 1 1 0 00.2-1.4c-.8-1.1-1.5-2.2-2.2-3.2a1 1 0 00-.8-.5l.3.5zm8.9 11.9a.94.94 0 00-1 1 1.07 1.07 0 00.2.6c.5.6 1 1.2 1.6 1.8l.1.1.1.1a1.08 1.08 0 00.7.3.94.94 0 001-1 1.85 1.85 0 00-.2-.7c-.9-1-1.7-2-2.6-3a1.23 1.23 0 00-.8-.4zm10.1 10.9a.91.91 0 00-.7.3 1 1 0 000 1.4c.8.8 1.6 1.5 2.4 2.2l.3.2a1 1 0 001.4 0 1 1 0 00-.1-1.4c-1-.9-1.9-1.8-2.9-2.7a.91.91 0 00-.7-.3zm11.3 9.7a.91.91 0 00-.8.4 1 1 0 00.2 1.4c1.1.8 2.1 1.6 3.2 2.4a1.42 1.42 0 00.6.2.94.94 0 001-1 1.23 1.23 0 00-.4-.8c-1-.8-2.1-1.6-3.1-2.4a2.54 2.54 0 00-.7-.2zm12.2 8.5a.94.94 0 00-1 1 1.05 1.05 0 00.5.9l.9.6.1.1 2.1 1.2a1 1 0 101-1.8c-1.1-.7-2.3-1.3-3.4-2-.2-.1-.3-.2-.5-.1l.3.1zm13.1 7.1a1 1 0 00-1 1 1 1 0 00.6.9l.6.3h.2c.6.3 1.2.5 1.8.8h.4l.7.3a.6.6 0 00.4.1.87.87 0 00.9-.6 1 1 0 00-.5-1.3c-1.2-.5-2.4-1.1-3.6-1.6a.6.6 0 00-.4-.1l-.1.2zm13.8 5.7a.94.94 0 00-1 1 1.2 1.2 0 00.7 1 33.82 33.82 0 003.4 1.1h.7a1 1 0 001.2-.9.9.9 0 00-.9-1.1c-1.2-.4-2.5-.8-3.7-1.2-.1 0-.2-.1-.3-.1v.2zm14.3 4.1a1 1 0 10-.2 2l.2.1h.9c.7.2 1.5.3 2.2.5h.7a1 1 0 001.1-.9c.1-.5-.4-1-.9-1.1-1.3-.3-2.6-.5-3.9-.8h-.2v.2zm14.6 2.6a1.09 1.09 0 00-1.1.9c-.1.5.4 1 .9 1.1h.5l2.1.2h.6l.7.1h.1a1 1 0 000-2c-1.3-.1-2.6-.2-3.9-.4l.1.1zm18.8 1h-3.9a1 1 0 100 2h4a.94.94 0 001-1 1 1 0 00-1.1-1zm14.9-1h-.1c-1.3.2-2.6.3-3.9.4a1 1 0 000 2h.7l1.6-.2h.7l1.1-.1a.9.9 0 00.9-1.1.94.94 0 00-1.1-.9l.1-.1zm14.7-2.6h-.2c-1.3.3-2.6.6-3.9.8a1 1 0 00-.8 1.2 1 1 0 001 .8h.2l.5-.1h.1l.3-.1h.1c1-.2 2-.4 3-.7a1 1 0 00.9-1.1 1.16 1.16 0 00-1.2-.8zm14.2-4.2a.37.37 0 00-.3.1c-1.2.4-2.5.9-3.7 1.3a1.07 1.07 0 00-.9 1.1c0 .5.6.9 1.1.9h.4l.3-.1.3-.1h.1l.2-.1h.1l.2-.1h1.4l.2-.1h.1l.6-.2a1 1 0 00-.4-2l.3-.7zm13.8-5.7c-.2 0-.3 0-.4.1-1.2.6-2.4 1.1-3.6 1.6a1 1 0 00-.5 1.3 1 1 0 00.9.6.6.6 0 00.4-.1c1.2-.5 2.4-1.1 3.6-1.7a1 1 0 00.5-1.3 1.05 1.05 0 00-.9-.5zm13-7.2a.76.76 0 00-.5.2 37.91 37.91 0 01-3.4 2 1.11 1.11 0 00-.4 1.4 1.05 1.05 0 00.9.5.9.9 0 00.5-.1l1.4-.9h.3l.2-.1.1-.1a1 1 0 00.3-1.4 1.05 1.05 0 00-.9-.5zm12.2-8.5a1.42 1.42 0 00-.6.2c-1 .8-2.1 1.6-3.1 2.4a1.08 1.08 0 00-.2 1.4.91.91 0 00.8.4 1.42 1.42 0 00.6-.2l.6-.4c.8-.6 1.6-1.2 2.5-1.9a1.08 1.08 0 00.2-1.4 1.23 1.23 0 00-.8-.4zm11.2-9.8a.91.91 0 00-.7.3c-.9.9-1.9 1.8-2.9 2.7a1 1 0 00.6 1.7.91.91 0 00.7-.3l.5-.4.1-.1.1-.1.2-.2 1.5-1.5a1 1 0 000-1.4.91.91 0 00-.7-.3l.6-.4zm10.1-11a.91.91 0 00-.8.4c-.8 1-1.7 2-2.5 3a1 1 0 00.1 1.4.84.84 0 00.7.2 1.14 1.14 0 00.8-.3l1.9-2.2.5-.6a1 1 0 00-.1-1.4 1.42 1.42 0 00-.6-.2zm8.9-12a1 1 0 00-.8.5c-.7 1.1-1.5 2.2-2.2 3.3a1.06 1.06 0 00.2 1.4 1.42 1.42 0 00.6.2 1.23 1.23 0 00.8-.4l.7-1 .1-.1.1-.1 1.2-1.8a1 1 0 00-.3-1.4 1.69 1.69 0 00-.5-.2l.1-.4zm7.5-12.8a1.05 1.05 0 00-.9.5c-.6 1.2-1.2 2.3-1.9 3.5a1 1 0 00.4 1.4.9.9 0 00.5.1 1.05 1.05 0 00.9-.5c.4-.8.9-1.6 1.3-2.4l.1-.1.4-.7a.88.88 0 00-.4-1.3.75.75 0 00-.5-.1zm6.1-13.6a1 1 0 00-.9.6c-.5 1.2-1 2.5-1.5 3.7a1 1 0 00.5 1.3.6.6 0 00.4.1.87.87 0 00.9-.6l.9-2.1.1-.2v-.6l.1-.2a1 1 0 00-.6-1.3c-.1 0-.2-.1-.4-.1l.5-.6zm4.6-14.2a1 1 0 00-1 .8c-.3 1.3-.7 2.5-1.1 3.8a.89.89 0 00.7 1.2h.3a1 1 0 001-.7v-.3c.3-1.2.7-2.3 1-3.5a1 1 0 00-.7-1.2.31.31 0 00-.2-.1zm3-14.5a1.06 1.06 0 00-1 .9l-.6 3.9a1.1 1.1 0 00.8 1.2h.2a1 1 0 001-.8c.1-.3.1-.6.2-.9v-.9l.3-1.9v-.4c0-.5-.4-1.1-.9-1.1zm1.5-14.9a1 1 0 00-1 1c-.1 1.3-.1 2.6-.2 3.9a1.09 1.09 0 00.9 1.1h.1a1 1 0 001-.9l.1-.8v-3.1a.94.94 0 00-1-1zm-.2-14.9a1 1 0 00-1 1.1c.1 1.3.1 2.6.2 3.9a1 1 0 002 0v-1.3c0-.8-.1-1.7-.1-2.5a1.28 1.28 0 00-1.1-1.2zm-1.7-14.7h-.2a1 1 0 00-.8 1.1l.6 3.9a1.06 1.06 0 001 .9h.1a1.17 1.17 0 00.9-1.1c-.2-1.3-.4-2.7-.6-4a.89.89 0 00-1-.8zm-3.3-14.5h-.3a1 1 0 00-.7 1.2c.4 1.3.7 2.5 1 3.8a1 1 0 001 .8h.2a1 1 0 00.7-1.2l-.9-3.3v-.5a1 1 0 00-1-.7v-.1zm-4.9-14.1a.6.6 0 00-.4.1.92.92 0 00-.5 1.3c.5 1.2 1 2.4 1.4 3.7a.78.78 0 00.9.6.76.76 0 00.4-.1 1 1 0 00.6-1.3c-.1-.2-.2-.5-.3-.7V224l-.1-.1-.1-.1v-.9l-.1-.3a1 1 0 00-.9-.6l-.9-.2zm-6.4-13.4a.9.9 0 00-.5.1 1 1 0 00-.4 1.4c.6 1.1 1.2 2.3 1.8 3.5a1.46 1.46 0 00.9.6.9.9 0 00.5-.1 1 1 0 00.5-1.3c-.3-.6-.6-1.1-.9-1.6l-.1-.2v-.6l-.4-.7a1.05 1.05 0 00-.9-.5l-.5-.6zm-7.8-12.7a1.42 1.42 0 00-.6.2.9.9 0 00-.2 1.4c.7 1.1 1.5 2.2 2.2 3.3a1 1 0 001.7-1.1l-.3-.4-.1-.1v-.1l-.1-.1-.1-.1-1.4-2.1a.91.91 0 00-.8-.4l-.3-.5zm-9.1-11.8a1.85 1.85 0 00-.7.2 1 1 0 00-.1 1.4c.9 1 1.7 2 2.5 3a1.23 1.23 0 00.8.4 1 1 0 001-1 1.42 1.42 0 00-.2-.6l-1.5-1.8v-.1l-.8-.9a1.14 1.14 0 00-.8-.3l-.2-.3zm-10.3-10.7a.91.91 0 00-.7.3 1 1 0 000 1.4c1 .9 1.9 1.8 2.8 2.7a.91.91 0 00.7.3 1 1 0 001-1 .91.91 0 00-.3-.7l-.6-.6c-.7-.7-1.5-1.4-2.2-2.1a2.39 2.39 0 00-.7-.3zm-11.4-9.6a.91.91 0 00-.8.4 1.08 1.08 0 00.2 1.4c1 .8 2.1 1.6 3.1 2.4a1.42 1.42 0 00.6.2.94.94 0 001-1 .91.91 0 00-.4-.8l-1-.8-.1-.1-.1-.1-.1-.1-.1-.1-.1-.1-.6-.5a1.42 1.42 0 00-.6-.2l-1-.6zm-12.4-8.3a1.05 1.05 0 00-.9.5 1 1 0 00.4 1.4c1.1.7 2.3 1.4 3.4 2.1.2.1.3.2.5.2a.94.94 0 001-1 1.19 1.19 0 00-.5-.9l-.1-.1-.1-.1-.2-.1-.2-.1-.1-.1-.9-.5a.9.9 0 00-.5-.1l-1.8-1.2zm-13.1-6.9a.94.94 0 00-1 1 .87.87 0 00.6.9c1.2.6 2.4 1.1 3.6 1.7a.75.75 0 00.5.1 1 1 0 001-1 1.05 1.05 0 00-.5-.9c-1.2-.6-2.4-1.2-3.6-1.7a1.76 1.76 0 00-.6-.1zm-13.9-5.4a.94.94 0 00-1 1 1 1 0 00.7.9c1.2.4 2.5.9 3.7 1.3.1 0 .2.1.3.1a.94.94 0 001-1 1 1 0 00-.7-.9l-2.2-.8h-.1l-.2-.1h-.1l-.2-.1h-1.4l.2-.4zm-14.4-3.9a1 1 0 10-.2 2c1.3.3 2.6.6 3.8.9h.2a.9.9 0 001.1-.9c0-.6-.3-1.1-.9-1.1l-3.8-.9zm-14.7-2.4a.92.92 0 00-1 .9 1.09 1.09 0 00.9 1.1c1.3.1 2.6.3 3.9.5h.1a1.09 1.09 0 001.1-.9c.1-.5-.4-1-.9-1.1l-.5-.1h-.3l-2.8-.3-.5-.1zM275 136h-4a1 1 0 000 2c1.3 0 2.6-.1 3.9-.1h3.4a1 1 0 000-2h-.9z" fill="#9dacbf" opacity=".6" style="isolation:isolate"/><path d="M275 7h-4a.94.94 0 00-1 1 .94.94 0 001 1h8.1a.94.94 0 001-1 .94.94 0 00-1-1zm-14.9.4l-4.1.3a1 1 0 00-.9 1.1 1 1 0 001 .9h.1c1.3-.1 2.6-.2 4-.2a1 1 0 001-1 1.18 1.18 0 00-1.1-1.1zm-14.9 1.2h-.1l-.9.1h-2l-.2.3-.9.1a.9.9 0 00-.9 1.1.94.94 0 001.1.9h.1c1.3-.2 2.6-.3 3.9-.5a1.17 1.17 0 00.9-1.1 1 1 0 00-1-.9zm-14.8 2.1h-.2l-.7.1h-.2l-.4.1-1.4.2h-1.2a.9.9 0 00-.9 1.1.94.94 0 001.1.9h.2c1.3-.2 2.6-.5 3.9-.7a1 1 0 00.8-1.1 1 1 0 00-1-.8zm-14.7 2.9h-.2l-1.9.4H212l-.4.1a1 1 0 00.2 2h.2l3.9-.9a1 1 0 00.9-1.1c-.1-.5-.6-1-1.1-.9v.4zm-14.5 3.7h-.3l-3.1.9h-.7a1.11 1.11 0 00-.9 1.2 1 1 0 001.2.8h.3l3.8-1.1a1 1 0 10-.2-2l-.1.2zM187 21.8a.37.37 0 00-.3.1l-3.8 1.3a1 1 0 00-.6 1.3 1 1 0 00.9.7.76.76 0 00.4-.1c1.2-.5 2.5-.9 3.7-1.3a1 1 0 00.6-1.3 1 1 0 00-.9-.7zm-14 5.4a.6.6 0 00-.4.1l-1.7.7h-.2l-.3.1h-.2l-1.4.8a1 1 0 00-.5 1.3 1 1 0 00.9.6.6.6 0 00.4-.1c1.2-.5 2.4-1 3.7-1.5a.92.92 0 00.5-1.3c0-.5-.3-.7-.8-.7zm-13.6 6.1a.6.6 0 00-.4.1h-.2l-.2.1h-.6l-.2.1h-.2l-.3.2h-.1l-.3.1h-.5l-.7.3a.92.92 0 00-.4 1.3 1.05 1.05 0 00.9.5c.2 0 .3 0 .4-.1l3.6-1.8a1 1 0 00.5-1.3 1.15 1.15 0 00-.9-.6l-.4 1.1zm-13.3 6.8a.9.9 0 00-.5.1h-.2l-.1.1h-1l-.1.1h-.5l-.2.1-.7.4a1 1 0 101 1.8 39 39 0 013.5-1.9 1 1 0 00.4-1.4 1.05 1.05 0 00-.9-.5l-.7 1.2zm-12.9 7.6a.76.76 0 00-.5.2l-.6.4h-.3l-.1.1h-.7l-.1.1-.1.1h.2l-.1.1-.1.1h-.2l-.7.4a1 1 0 00-.3 1.4 1 1 0 00.8.5 1.42 1.42 0 00.6-.2l3.3-2.1a1 1 0 00.3-1.4 1.05 1.05 0 00-.9-.5zM120.8 56a1.42 1.42 0 00-.6.2h-.1l-.3.2-.1.1-.3.2-.1.1-.3.2h-.2l-.2.1h-.5l-.1.1h-.1l-.1.1-.1.1-.1.1-.2.1a1 1 0 101.2 1.6c1.1-.8 2.1-1.6 3.2-2.3a.9.9 0 00.2-1.4.91.91 0 00-.8-.4zm-11.9 9a1.07 1.07 0 00-.6.2l-3.1 2.5a1 1 0 00-.1 1.4 1.23 1.23 0 00.8.4 1.07 1.07 0 00.6-.2c1-.8 2-1.7 3.1-2.5a1.08 1.08 0 00.2-1.4 1.22 1.22 0 00-.9-.4zm-11.5 9.6a1.85 1.85 0 00-.7.2l-.3.2-.1.1-.3.2-.1.1.1.2-.2.2-.1.1-.1.1-.1.1V76h-.1l-.1.1-.1.1-.1.1-.1.1-.6.6a1 1 0 000 1.4 1.08 1.08 0 00.7.3.91.91 0 00.7-.3c1-.9 2-1.8 2.9-2.7a1 1 0 00-.6-1.7l-.7.6zM86.6 84.8a.91.91 0 00-.7.3l-.9.9-.1.1-.2.2h-.1l-.2.2-.1.1L83 88a1 1 0 000 1.4 1 1 0 001.4 0c.9-.9 1.8-1.9 2.8-2.8a1 1 0 000-1.4 2.09 2.09 0 00-.6-.4zM76.3 95.7a.78.78 0 00-.7.3l-.4.4-.1.1-.1.1-.1.1v.1l-.1.1-1 1.1-.2.3a1.76 1.76 0 00-.4.5 1 1 0 001.5 1.3c.9-1 1.7-2 2.6-3a1 1 0 00-.1-1.4.62.62 0 00-.7-.2l-.2.2zm-9.7 11.4a.91.91 0 00-.8.4l-.8 1.1-.1.1-.1.1-.1.1v.1l-.2.2v.5l-.1.1c-.2.2-.3.4-.5.6a1 1 0 00.2 1.4 1.42 1.42 0 00.6.2.91.91 0 00.8-.4l2.5-3.1a1.06 1.06 0 00-.1-1.4 1.42 1.42 0 00-.6-.2l-.7.2zm-9 11.9a1.23 1.23 0 00-.8.4c-.2.3-.5.6-.7.9l-.2.2v.5l-.1.2-.1.1-.1.1-.6.6-.3.4-.1.1-.1.2a1 1 0 00.3 1.4 1.42 1.42 0 00.6.2 1.23 1.23 0 00.8-.4c.8-1.1 1.5-2.2 2.3-3.2a1.06 1.06 0 00-.2-1.4 1.33 1.33 0 00-.7-.3zm-8.3 12.4a.89.89 0 00-.8.5v.2l-.1.1v.1l-.1.1a23.92 23.92 0 00-1.3 2.1v.3l-.1.1v.1l-.1.2a1 1 0 001.7 1.1c.7-1.1 1.4-2.3 2.1-3.4a1 1 0 00-.3-1.4c-.2-.1-.3-.2-.5-.1zm-7.7 12.8a1.05 1.05 0 00-.9.5l-.2.3v.1c-.4.8-.9 1.6-1.3 2.4l-.1.2v.1l-.1.2a1 1 0 001.7 1.1.1.1 0 01.1-.1c.6-1.2 1.3-2.3 1.9-3.5a1 1 0 00-.4-1.4.75.75 0 00-.5-.1l-.2.2zm-6.9 13.3a1 1 0 00-.9.6l-.2.3v.3c-.5 1-1 2-1.4 3a1 1 0 00.5 1.3.6.6 0 00.4.1 1 1 0 00.9-.6c.6-1.2 1.1-2.4 1.7-3.6a1 1 0 00-.5-1.3.6.6 0 00-.4-.1zm-6.1 13.6a.87.87 0 00-.9.6 5 5 0 00-.5 1.3v1.2l-.1.2v.2c0 .1-.1.2-.1.3v.1l-.1.2a1 1 0 00.6 1.3c.1 0 .2.1.4.1a.87.87 0 00.9-.6c.5-1.2 1-2.4 1.5-3.7a1 1 0 00-.5-1.3.6.6 0 00-.4-.1zM23.2 185a1 1 0 00-.9.7c-.2.7-.5 1.4-.7 2.1v1.4l-.1.2v.1a1 1 0 00.6 1.3c.1 0 .2.1.3.1a1.2 1.2 0 001-.7c.4-1.2.8-2.5 1.3-3.8a1 1 0 00-.6-1.3c-.1 0-.2-.1-.3-.1zm-4.6 14.3a1 1 0 00-1 .7c-.2.8-.4 1.5-.6 2.3v.2l-.1.2v.3c-.1.3-.1.5-.2.8a1 1 0 00.7 1.2h.3a1 1 0 001-.7c.4-1.3.7-2.6 1.1-3.8a.89.89 0 00-.7-1.2zm-3.8 14.4a1 1 0 00-1 .8c0 .2-.1.4-.1.6v.7a20.48 20.48 0 00-.5 2.4 1 1 0 00.8 1.2h.2a1 1 0 001-.8l.9-3.9a1 1 0 00-.7-1.2H15zm-2.9 14.7a1 1 0 00-1 .8c-.2 1.3-.4 2.6-.6 4a1 1 0 00.8 1.1h.2a1.06 1.06 0 001-.9l.6-3.9a1.1 1.1 0 00-.8-1.2l-.2.1zm-2.1 14.8a1.06 1.06 0 00-1 .9c-.1 1.2-.3 2.4-.4 3.6v.4c-.1.5.4 1 .9 1.1h.1a1.06 1.06 0 001-.9c.1-1.3.3-2.6.4-3.9a1 1 0 00-.9-1.1zM8.5 258a1 1 0 00-1 .9c0 .6-.1 1.2-.1 1.7v.3c0 .6-.1 1.3-.1 2a.94.94 0 001 1 1 1 0 001-1c.1-1.3.1-2.6.2-4a1 1 0 00-1-.9zM8 273a.94.94 0 00-1 1v3.9a.94.94 0 001 1 .94.94 0 001-1v-4a.92.92 0 00-1-.9zm.4 14.9a.94.94 0 00-1 1v.1c.1 1.3.2 2.7.2 4a1 1 0 001 .9h.1a1 1 0 00.9-1.1c-.1-1.3-.2-2.6-.2-4a1.06 1.06 0 00-1-.9zm1.1 14.9h-.1a1.09 1.09 0 00-.9 1.1c.1 1.3.3 2.7.5 4a1.06 1.06 0 001 .9h.1a1.17 1.17 0 00.9-1.1c-.2-1.3-.3-2.6-.4-3.9a1.09 1.09 0 00-1.1-1zm2 14.8h-.2a1 1 0 00-.8 1.1v.4l.4 2.4v.2l.1.9a1 1 0 001 .8h.2a1 1 0 00.8-1.2c-.2-1.3-.5-2.6-.7-3.9a1 1 0 00-1-.8zm2.9 14.7h-.2a1.1 1.1 0 00-.8 1.2l.9 3.9a1 1 0 001 .8h.2a1 1 0 00.7-1.2l-.9-3.9a.82.82 0 00-.9-.8zm3.6 14.5h-.3a1.09 1.09 0 00-.7 1.2c.2.8.5 1.6.7 2.5v.3l.1.2v.1c.1.2.1.4.2.6a1 1 0 001 .7h.3a1.09 1.09 0 00.7-1.2c-.4-1.3-.8-2.5-1.1-3.8a1 1 0 00-1-.7l.1.1zm4.5 14.2a.37.37 0 00-.3.1 1 1 0 00-.6 1.3c.4 1.3.9 2.5 1.3 3.8a1 1 0 00.9.7.37.37 0 00.3-.1 1 1 0 00.6-1.3c-.5-1.2-.9-2.5-1.3-3.7a1 1 0 00-.9-.8zm5.3 14a.6.6 0 00-.4.1 1 1 0 00-.5 1.3l.3.6v.7l.1.2v.2l.1.3v.1c.1.1.1.3.2.5l.4.9a1 1 0 00.9.6.6.6 0 00.4-.1 1 1 0 00.5-1.3c-.5-1.2-1-2.4-1.5-3.7a1 1 0 00-.9-.6l.4.2zm6 13.7a.6.6 0 00-.4.1 1 1 0 00-.5 1.3c.3.6.6 1.3.9 1.9v.6l.1.2v.1l.3.6a.87.87 0 00.9.5c.2 0 .3 0 .4-.1a1 1 0 00.5-1.3c-.6-1.2-1.2-2.4-1.7-3.6a1.15 1.15 0 00-.9-.6zm6.8 13.3a.9.9 0 00-.5.1 1 1 0 00-.4 1.4 25.43 25.43 0 001.6 2.8v.1l.3.5a1.05 1.05 0 00.9.5.9.9 0 00.5-.1 1.11 1.11 0 00.4-1.4 39 39 0 01-1.9-3.5 1.05 1.05 0 00-.9-.5zm7.6 12.9a.76.76 0 00-.5.2 1 1 0 00-.3 1.4l.3.4v.2l1.4 2.1.2.3v.2l.1.1a1 1 0 00.8.5.76.76 0 00.5-.2 1 1 0 00.3-1.4c-.7-1.1-1.4-2.2-2.1-3.4a1 1 0 00-.8-.5l.1.1zm8.2 12.4a1.42 1.42 0 00-.6.2 1 1 0 00-.2 1.4l2.1 3v.1l.1.1a.91.91 0 00.8.4.94.94 0 001-1 1.42 1.42 0 00-.2-.6c-.8-1.1-1.5-2.1-2.3-3.2a.91.91 0 00-.8-.4zm8.9 12a1.42 1.42 0 00-.6.2 1.08 1.08 0 00-.2 1.4v.1l.1.1v.1l.1.1.1.1.1.1.1.1.1.1.2.3 1.5 1.9a1 1 0 001.5-1.3l-2.5-3.1a1.23 1.23 0 00-.8-.4l.3.2zm9.6 11.5a1.85 1.85 0 00-.7.2 1 1 0 00-.1 1.4l.7.7.1.1.2.3.1.1 1.6 1.8a1 1 0 001.5-1.4l-2.7-3a1.17 1.17 0 00-.7-.2zm10.2 10.9a.91.91 0 00-.7.3 1 1 0 000 1.4l.6.6.1.1h.1l.1.1.1.1c.6.6 1.2 1.2 1.9 1.8a1 1 0 001.4-1.4c-1-.9-1.9-1.9-2.8-2.8a.88.88 0 00-.8-.2zM95.9 472a.78.78 0 00-.7.3 1 1 0 00.1 1.4l.1.1.1.1 1.5 1.3.1.1.2.2.1.1.1.1.1.1.1.1.1.1a1 1 0 101.3-1.5c-1-.9-2-1.8-3-2.6a.91.91 0 00-.7-.3l.5.4zm11.4 9.7a.94.94 0 00-1 1 .91.91 0 00.4.8l3.1 2.5a1.42 1.42 0 00.6.2.94.94 0 001-1 .91.91 0 00-.4-.8c-1-.8-2.1-1.6-3.1-2.5a1.42 1.42 0 00-.6-.2zm11.9 9.1a1.23 1.23 0 00-.8.4 1.08 1.08 0 00.2 1.4h.1l.2.1 2.8 2a1.42 1.42 0 00.6.2 1 1 0 001-1 1.23 1.23 0 00-.4-.8c-1.1-.8-2.2-1.5-3.2-2.3a1.42 1.42 0 00-.6-.2l.1.2zm12.3 8.4a.89.89 0 00-.8.5 1 1 0 00.3 1.4l.6.4.1.1h.5l.2.2h.2l.2.2h.2l.2.1h.2l.1.1h.3l.2.1h.2a.9.9 0 00.5.1 1.19 1.19 0 00.9-.5 1.08 1.08 0 00-.3-1.4c-1.1-.7-2.2-1.4-3.4-2.1-.2-.1-.3-.2-.5-.2l.1 1zm12.8 7.7a1.05 1.05 0 00-.9.5 1 1 0 00.4 1.4c1.2.7 2.3 1.3 3.5 2a.75.75 0 00.5.1 1 1 0 001-1 1.05 1.05 0 00-.5-.9l-3.5-1.9c-.1-.2-.3-.2-.5-.2zm13.3 7a1 1 0 00-.9.6 1 1 0 00.5 1.3l2.2 1.1h.3l1.1.5a.6.6 0 00.4.1 1 1 0 001-1 1 1 0 00-.6-.9c-1.2-.6-2.4-1.1-3.6-1.7a.6.6 0 00-.4-.1v.1zm13.5 6.2a.94.94 0 00-1 1 .87.87 0 00.6.9l.8.3h.2l.2.1h1.7l.8.3a1 1 0 001.3-.6 1 1 0 00-.5-1.2c-1.2-.5-2.4-1-3.7-1.5a.6.6 0 00-.4-.1v.8zm14 5.4a.94.94 0 00-1 1 1 1 0 00.7.9c1.2.5 2.5.9 3.8 1.3h.3a1 1 0 001-1 1 1 0 00-.7-.9l-3.8-1.3c-.1 0-.2-.1-.3 0zm14.2 4.6a1 1 0 00-.2 2h.2l1.4.4h.9l1.4.4h.3a1 1 0 10.2-2c-1.3-.4-2.6-.7-3.8-1.1h-.3l-.1.3zm14.4 3.9a1 1 0 00-.2 2l3.9.9h.2a1 1 0 10.2-2l-3.9-.9c0-.1-.1-.1-.2 0zm14.7 3a1 1 0 00-.2 2h1.3a21.66 21.66 0 002.5.4h.1a1.08 1.08 0 001-.8.94.94 0 00-.8-1.1c-1.3-.2-2.6-.4-3.9-.7h-.2l.2.2zm14.7 2.1a1 1 0 00-.2 2l1.1.1h.2l2.7.3h.1a1.06 1.06 0 001-.9 1 1 0 00-.9-1.1l-4-.4zm14.9 1.4a1 1 0 000 2l4 .2a1 1 0 000-2c-1.4-.1-2.7-.2-4-.2zm15 .5a1 1 0 000 2h4a1 1 0 000-2zm18.9-.5l-4.1.2a1.08 1.08 0 00-1 1 .94.94 0 001 1h1.1l1.9-.1h1a1 1 0 100-2l.1-.1zm14.9-1.4h-.1c-1.3.2-2.6.3-4 .4a.86.86 0 00-.9 1 1 1 0 001 1h.1l1.2-.1h1.4l.5-.1h.9a.9.9 0 00.9-1.1.94.94 0 00-1.1-.9l.1-.2zm14.7-2.1h-.2c-1.3.2-2.6.5-3.9.7a1 1 0 10.2 2h3.2l.9-.2a1 1 0 10-.2-2zm14.7-3h-.2l-3.9.9a1 1 0 00.2 2h.2a20.48 20.48 0 012.4-.5h1l.2-.1a1 1 0 00-.2-2l.3-.3zm14.4-3.8h-.3c-1.3.4-2.5.7-3.8 1.1a1 1 0 00.2 2h.3c1.3-.4 2.6-.7 3.9-1.1a1.07 1.07 0 00.9-1.1 1 1 0 00-1.2-.9zm14.2-4.7a.37.37 0 00-.3.1c-1.2.4-2.5.9-3.7 1.3a1 1 0 00.4 2h.3l.4-.2h.3l3.1-1.1a1 1 0 00.6-1.3 1 1 0 00-.9-.7zm14-5.4a.6.6 0 00-.4.1c-1.2.5-2.4 1-3.7 1.5a1 1 0 10.7 1.9l1.3-.5h.6l.4-.2 1.4-.6a1 1 0 00.5-1.3 1 1 0 00-.9-.6l.1-.3zm13.6-6.2c-.2 0-.3 0-.4.1-1.2.6-2.4 1.2-3.6 1.7a1 1 0 00-.5 1.3 1 1 0 00.9.6.6.6 0 00.4-.1l1-.5h.2l2.5-1.2a1 1 0 00.5-1.3 3.74 3.74 0 00-1-.6zm13.2-6.9a.9.9 0 00-.5.1c-1.2.6-2.3 1.3-3.5 1.9a1 1 0 00-.4 1.4 1.05 1.05 0 00.9.5.9.9 0 00.5-.1l2-1.1h.2l.1-.1h.2l.1-.1h.2l.4-.2a1.11 1.11 0 00.4-1.4 1.05 1.05 0 00-.9-.5l.3-.4zm12.8-7.7a.76.76 0 00-.5.2l-3.4 2.1a1 1 0 00-.3 1.4 1.05 1.05 0 00.9.5 4.33 4.33 0 00.5-.1l.9-.5.1-.1.3-.2h.1l.1-.1.2-.1h.3l.1-.1.2-.1h.2l.3-.2.2-.2a1 1 0 00.3-1.4 1 1 0 00-.8-.5l.3-.6zm12.4-8.4a1.42 1.42 0 00-.6.2c-1.1.8-2.2 1.5-3.2 2.3a1 1 0 101.2 1.6l.1-.1.1-.1.1-.1.1-.1h.1l2.4-1.7h.1a1.06 1.06 0 00.2-1.4.91.91 0 00-.8-.4l.2-.2zm11.9-9.1a1.07 1.07 0 00-.6.2c-1 .8-2.1 1.6-3.1 2.5a1.08 1.08 0 00-.2 1.4 1.23 1.23 0 00.8.4 1.42 1.42 0 00.6-.2l.1-.1h.1l.2-.1 1.8-1.4.2-.2.1-.1.1-.1.1-.1.1-.1.1-.1.1-.1.1-.1a1.08 1.08 0 00.2-1.4 1.23 1.23 0 00-.8-.4zm11.3-9.7a1.08 1.08 0 00-.7.3c-1 .9-2 1.8-3 2.6a1 1 0 101.3 1.5l.1-.1.1-.1.2-.2.1-.1.1-.1.2-.1.1-.1h.1l.2-.1.1-.1.1-.1.1-.1.1-.1.1-.1h.1l.9-.8a1 1 0 00-.6-1.7l.3-.5zm10.8-10.3a.91.91 0 00-.7.3c-.9 1-1.9 1.9-2.8 2.8a1 1 0 101.4 1.4l.2-.2h.2l.2-.2.1-.1.1-.1h.1l.2-.2.1-.1.3-.3.1-.1.3-.3.1-.1.3-.3h.1l.1-.1.1-.1.1-.1.3-.3a1 1 0 000-1.4.91.91 0 00-.7-.3l-.2-.2zm10.2-10.9a1.14 1.14 0 00-.8.3c-.9 1-1.8 2-2.6 3a1 1 0 00.1 1.4 1 1 0 001.4 0l2.7-3a1 1 0 00-.1-1.4 1.08 1.08 0 00-.7-.3zm9.6-11.5a.91.91 0 00-.8.4c-.8 1-1.6 2.1-2.5 3.1a1 1 0 001.5 1.3l2-2.5.1-.1.1-.1.1-.1v-.2l.1-.1a1 1 0 00-.2-1.4 1.42 1.42 0 00-.6-.2l.2-.1zm8.9-12a1.23 1.23 0 00-.8.4c-.8 1.1-1.5 2.2-2.3 3.2a1.08 1.08 0 00.2 1.4 1.42 1.42 0 00.6.2 1.23 1.23 0 00.8-.4c.8-1.1 1.5-2.2 2.3-3.3a1.06 1.06 0 00-.2-1.4c-.2 0-.4-.1-.6-.1zm8.3-12.4a1.19 1.19 0 00-.9.5c-.7 1.1-1.4 2.2-2.1 3.4a1 1 0 00.3 1.4c.2.1.3.2.5.2a.89.89 0 00.8-.5l.4-.6.1-.1.1-.1.1-.2v-.2l.1-.1v-.6l.1-.2v-.2l.1-.2v-.2l.2-.3a1.08 1.08 0 00-.3-1.4.9.9 0 00-.5-.1l1-.5zm7.5-12.9a1.05 1.05 0 00-.9.5c-.6 1.2-1.3 2.3-1.9 3.5a1 1 0 00.4 1.4.9.9 0 00.5.1 1.05 1.05 0 00.9-.5v-.1c.6-1 1.1-2 1.7-3v-.2a1 1 0 00-.4-1.4.75.75 0 00-.5-.1l.2-.2zm6.8-13.3a1 1 0 00-.9.6c-.6 1.2-1.2 2.4-1.7 3.6a1 1 0 00.5 1.3.6.6 0 00.4.1 1.05 1.05 0 00.9-.5l.1-.3v-.2c.5-1 1-2.1 1.5-3.1a1 1 0 00-.5-1.3c-.1-.1-.2-.2-.3-.2zm6.1-13.7a.87.87 0 00-.9.6c-.5 1.2-1 2.4-1.5 3.7a1 1 0 00.5 1.3.6.6 0 00.4.1.87.87 0 00.9-.6l.3-.8v-.3c.4-.9.7-1.8 1.1-2.6a1 1 0 00-.5-1.3c-.1 0-.2-.1-.4-.1zm5.3-14a1 1 0 00-.9.7c-.4 1.2-.9 2.5-1.3 3.7a1 1 0 00.6 1.3c.1 0 .2.1.3.1a1 1 0 00.9-.7c.5-1.2.9-2.5 1.3-3.8a1 1 0 00-.6-1.3c-.1.1-.2 0-.3 0zm4.4-14.2a1 1 0 00-1 .7c-.4 1.3-.7 2.5-1.1 3.8a.89.89 0 00.7 1.2h.3a1 1 0 001-.7l.6-2.1v-1.2l.1-.2a1 1 0 00-.7-1.2h-.3l.4-.3zm3.7-14.5a1 1 0 00-1 .8l-.9 3.9a1 1 0 00.7 1.2h.2a1 1 0 001-.8l.2-.7v-.4c0-.2.1-.3.1-.5v-.1c0-.1.1-.3.1-.4v-.7c.1-.3.1-.6.2-.9a1 1 0 00-.8-1.2h-.2l.4-.2zm2.8-14.7a1.08 1.08 0 00-1 .8c-.2 1.3-.4 2.6-.7 3.9a1.1 1.1 0 00.8 1.2h.2a1 1 0 001-.8c0-.2.1-.5.1-.7v-.3c.2-1 .3-2 .5-3a.94.94 0 00-.8-1.1zm2-14.8a1.06 1.06 0 00-1 .9c-.1 1.3-.3 2.6-.5 3.9a1 1 0 00.9 1.1h.1a1.06 1.06 0 001-.9c0-.3.1-.6.1-.9v-.2l.3-2.9c.2-.4-.2-.9-.9-1zm1.2-14.9a1 1 0 00-1 1c-.1 1.3-.2 2.6-.2 4a1.17 1.17 0 00.9 1.1h.1a1 1 0 001-.9v-4.1a.92.92 0 00-.9-1l.1-.1zm.4-14.9a.94.94 0 00-1 1v3.9a1 1 0 002 0v-3.9a1 1 0 00-1-1zm-.5-15a1 1 0 00-1 1.1c.1 1.3.1 2.6.2 4a1.08 1.08 0 001 1 .94.94 0 001-1v-.6c0-1.1-.1-2.2-.2-3.4a1.09 1.09 0 00-1-1.1zm-1.3-14.8h-.1a1.17 1.17 0 00-.9 1.1c.2 1.3.3 2.6.4 3.9a1.06 1.06 0 001 .9h.1a1.09 1.09 0 00.9-1.1 8.75 8.75 0 00-.2-1.6v-1.4c0-.3-.1-.6-.1-1a1.06 1.06 0 00-1-.9l-.1.1zm-2.1-14.8h-.1a1 1 0 00-.8 1.1l.6 3.9a1.06 1.06 0 001 .9h.2a1 1 0 00.8-1.1l-.6-3.9a1 1 0 00-1.1-.9zm-2.9-14.7h-.2a1.1 1.1 0 00-.8 1.2l.9 3.9a1 1 0 001 .8h.2a1 1 0 00.8-1.2c0-.2-.1-.3-.1-.5v-.8l-.1-.3v-1.8a.37.37 0 00-.1-.3v-.1a.37.37 0 00-.1-.3 1 1 0 00-1-.8l-.5.2zm-3.8-14.4h-.3a1.09 1.09 0 00-.7 1.2c.4 1.3.7 2.6 1.1 3.8a1 1 0 001 .7h.3a1 1 0 00.7-1.2c-.2-.6-.3-1.2-.5-1.8v-.7a9.29 9.29 0 00-.4-1.3 1 1 0 00-1-.7zm-4.6-14.3a.37.37 0 00-.3.1 1 1 0 00-.6 1.3c.4 1.2.9 2.5 1.3 3.8a1 1 0 001 .7h.3a1 1 0 00.6-1.3l-.5-1.5v-.6c-.2-.6-.4-1.1-.6-1.6a1 1 0 00-.9-.7zm-5.3-13.9a.6.6 0 00-.4.1.92.92 0 00-.5 1.3c.5 1.2 1 2.4 1.5 3.7a1 1 0 00.9.6.6.6 0 00.4-.1 1 1 0 00.6-1.3l-.3-.8v-.1l-.1-.2v-.3a22.88 22.88 0 00-1-2.3 1 1 0 00-.9-.6zm-6.2-13.6c-.2 0-.3 0-.4.1a1 1 0 00-.5 1.3c.6 1.2 1.2 2.4 1.7 3.6a1.15 1.15 0 00.9.6.6.6 0 00.4-.1 1 1 0 00.5-1.3l-.5-1.1v-.2l-.1-.1v-.2l-.9-1.9a1.15 1.15 0 00-.9-.6zm-6.9-13.3a.9.9 0 00-.5.1 1 1 0 00-.4 1.4c.6 1.1 1.3 2.3 1.9 3.5a1 1 0 001.4.3 1.09 1.09 0 00.4-1.3c-.1-.2-.2-.3-.3-.5v-.2c-.5-.9-1-1.9-1.6-2.8a.94.94 0 00-.9-.5zm-7.6-12.8a.75.75 0 00-.5.1 1.08 1.08 0 00-.3 1.4c.7 1.1 1.4 2.2 2.1 3.4a1.05 1.05 0 00.9.5 4.33 4.33 0 00.5-.1 1 1 0 00.3-1.4l-.4-.7-.1-.1v-.3c-.5-.8-1-1.6-1.5-2.3a1 1 0 00-.8-.5zm-8.3-12.4a1.42 1.42 0 00-.6.2.9.9 0 00-.2 1.4c.8 1.1 1.5 2.2 2.3 3.2a.91.91 0 00.8.4 1.42 1.42 0 00.6-.2.9.9 0 00.2-1.4l-.4-.6-.1-.1-.1-.2-.1-.1v-.2l-.1-.1v-.2l-.2-.3v-.1l-.2-.3v-.1c-.1-.1-.1-.2-.2-.3v-.2l-.1-.1-.1-.1-.1-.1a.91.91 0 00-.8-.4l-.6-.1zm-9-11.9a1.42 1.42 0 00-.6.2 1.08 1.08 0 00-.2 1.4c.8 1 1.6 2.1 2.5 3.1a1 1 0 001.4.1 1 1 0 00.2-1.3l-.2-.2-.1-.1-.2-.2v-.3l-.1-.1v-.1l-.1-.1v-.3l-.2-.2v-.2a10.59 10.59 0 00-1-1.2 1.23 1.23 0 00-.8-.4l-.6-.1zm-9.7-11.4a.94.94 0 00-1 1 1.85 1.85 0 00.2.7c.9 1 1.8 2 2.6 3a1 1 0 001.5-1.3v-.1l-.1-.1-.1-.1-.2-.3-2.2-2.5a1.14 1.14 0 00-.7-.3zm-10.3-10.9a.91.91 0 00-.7.3 1 1 0 000 1.4l2.8 2.8a1 1 0 001.4 0 1 1 0 000-1.4l-.3-.3v-.1l-.1-.1-2.4-2.4a2.54 2.54 0 01-.7-.2zm-10.9-10.2a1.14 1.14 0 00-.8.3 1 1 0 00.1 1.4l3 2.7a1 1 0 101.3-1.4l-3-2.7c0-.3-.3-.3-.6-.3zM441.2 65a.91.91 0 00-.8.4 1 1 0 00.2 1.4l3.1 2.5a.73.73 0 00.6.2.94.94 0 001-1 .91.91 0 00-.4-.8l-1.4-1.1-.1-.1-.1-.1-.2-.2-.1-.1-.1-.1-.2-.2-.1-.1h-.1l-.1-.1-.1-.1h-.1l-.1-.1-.1-.1-.4-.4-.1-.1-.1-.1c.3.4 0 .4-.2.3zm-11.9-9a1.23 1.23 0 00-.8.4 1.06 1.06 0 00.2 1.4c1.1.8 2.2 1.5 3.2 2.3a1.42 1.42 0 00.6.2.94.94 0 001-1 .91.91 0 00-.4-.8l-.6-.4h-.5l-.1-.1-.2-.1-1.3-1-.1-.1-.2-.1h-.1a1.42 1.42 0 00-.6-.2zm-12.5-8.3a1 1 0 00-1 1 .89.89 0 00.5.8c1.1.7 2.2 1.4 3.4 2.1a1 1 0 001.1-1.7l-.2-.1h-.3l-.1-.1h-.5l-.1-.1h-.3l-.2-.1h-.1l-.4-.3-.8-.5c-.2-.1-.3-.2-.5-.2l-.5-.8zM404 40.2a.94.94 0 00-1 1 1.05 1.05 0 00.5.9c1.2.6 2.3 1.3 3.5 2a1 1 0 001-1.8l-.4-.2h-.2l-.2-.1h-.1l-1-.5-.3-.2h-.2l-.1-.1h-.3l-.1-.1h-.2l-.1-.1a.75.75 0 00-.5-.1zm-13.3-6.9a1 1 0 00-1 1 1 1 0 00.6.9l3.6 1.8a1 1 0 10.9-1.7h-.1l-.3-.2h-.1l-.4-.2h-.2l-.2-.1H392l-.5-.2a.6.6 0 00-.4-.1zM377 27.2a1 1 0 00-1 1 .87.87 0 00.6.9l3.6 1.5a.6.6 0 00.4.1.94.94 0 001-1 .87.87 0 00-.6-.9l-.2-.1h-.2l-2.4-1h-.1l-.6-.3c-.1 0-.3-.1-.4-.1l-.1-.1zm-14-5.3a.94.94 0 00-1 1 1.2 1.2 0 00.7 1c1.2.4 2.5.9 3.7 1.3.1 0 .2.1.3.1a1 1 0 00.9-.7 1 1 0 00-.6-1.3l-2.1-.8h-.1l-.2-.1h-.3l-.4-.1-.6-.2c-.1 0-.2-.1-.3-.1zm-14.2-4.6a1 1 0 00-1 .7.89.89 0 00.7 1.2c1.3.4 2.5.7 3.8 1.1h.3a1 1 0 001-.7.89.89 0 00-.7-1.2l-.3-.1h-.2l-2.6-.8h-.2l-.5-.1h-.3v-.1zm-14.5-3.7a1 1 0 10-.2 2l3.9.9h.2a.9.9 0 001.1-.9.9.9 0 00-.9-1.1l-1.1-.3h-1.2l-.1-.2h-.6l-.2-.1h-.2l-.3-.1h-.2l-.2-.2zm-14.6-2.9a1.09 1.09 0 00-1.1.9 1.09 1.09 0 00.9 1.1c1.3.2 2.6.4 3.9.7h.2a1.09 1.09 0 001.1-.9c.1-.5-.4-1-.9-1.1l-2.6-.4-.4-.1h-.3l-.6-.1zm-14.8-2a1.06 1.06 0 00-1 .9 1 1 0 00.9 1.1c1.3.1 2.6.3 3.9.5h.1a1.09 1.09 0 001.1-.9c.1-.5-.4-1-.9-1.1h-.5l-3.2-.4zM290 7.4a.94.94 0 00-1 1 .94.94 0 001 1l4 .2a.94.94 0 001-1 .94.94 0 00-1-1h-.2l-1.8-.1h-.8l-1.1-.1z" fill="#9dacbf" opacity=".2" style="isolation:isolate"/></svg>