<?xml version="1.0" encoding="utf-8"?>
<svg width="16" height="16" viewBox="0 0 16 16" xmlns="http://www.w3.org/2000/svg">
  <g fill="#D0D0DD">
    <path fill="#E2E2ED" d="M8 0C3.6 0 0 3.6 0 8s3.6 8 8 8 8-3.6 8-8-3.6-8-8-8zm0 14c-3.3 0-6-2.7-6-6s2.7-6 6-6 6 2.7 6 6-2.7 6-6 6z" style="stroke-width: 5px; stroke-miterlimit: 7;"/>
    <path d="M 9 4 C 8.852 2.708 7.286 2.658 7 4 L 7 7.713 C 7 8.258 7.299 9 8.022 9 L 12 9 C 13.39 8.99 13.504 6.989 12 7 L 9 7 L 9 4 Z" data-color="color-2" style="stroke-width: 5px; stroke-miterlimit: 1; stroke-linecap: round; paint-order: fill;"/>
    <path style="fill: rgb(216, 216, 216); stroke: rgb(0, 0, 0);"/>
  </g>
</svg>