<?xml version="1.0" encoding="utf-8"?>
<!-- Generator: Adobe Illustrator 24.0.3, SVG Export Plug-In . SVG Version: 6.00 Build 0)  -->
<svg version="1.1" id="Layer_1" xmlns="http://www.w3.org/2000/svg" xmlns:xlink="http://www.w3.org/1999/xlink" x="0px" y="0px"
	 width="16px" height="16px" viewBox="0 0 16 16" enable-background="new 0 0 16 16" xml:space="preserve">
<g>
	<path fill="#FFFFFF" d="M8,0C3.6,0,0,3.6,0,8s3.6,8,8,8s8-3.6,8-8S12.4,0,8,0z M14.2,11.2h-2.1c0.2-0.9,0.4-1.9,0.4-3H15
		C14.9,9.3,14.6,10.3,14.2,11.2z M9.3,14.9c-0.3,0.1-0.7,0.1-1,0.1v-3.2h3.1C10.9,13.2,10.2,14.3,9.3,14.9z M4.6,11.8h3.1V15
		c-0.3,0-0.7-0.1-1-0.1C5.8,14.3,5.1,13.2,4.6,11.8z M1,8.3h2.5c0,1.1,0.2,2.1,0.4,3H1.8C1.4,10.3,1.1,9.3,1,8.3z M1.8,4.8h2.1
		c-0.2,0.9-0.4,1.9-0.4,3H1C1.1,6.7,1.4,5.7,1.8,4.8z M6.7,1.1c0.3-0.1,0.7-0.1,1-0.1v3.2H4.6C5.1,2.8,5.8,1.7,6.7,1.1z M11.4,4.2
		H8.3V1c0.3,0,0.7,0.1,1,0.1C10.2,1.7,10.9,2.8,11.4,4.2z M11.6,4.8c0.2,0.9,0.4,1.9,0.4,3H8.3v-3H11.6z M7.7,4.8v3H4
		c0-1.1,0.2-2.1,0.4-3H7.7z M4,8.3h3.7v3H4.4C4.2,10.3,4,9.3,4,8.3z M8.3,11.2v-3H12c0,1.1-0.2,2.1-0.4,3H8.3z M12.5,7.7
		c0-1.1-0.2-2.1-0.4-3h2.1c0.5,0.9,0.8,1.9,0.8,3H12.5z M13.9,4.2h-1.9c-0.4-1.1-0.9-2.1-1.5-2.8C11.8,2,13.1,3,13.9,4.2z M5.6,1.5
		C5,2.2,4.4,3.1,4.1,4.2H2.1C2.9,3,4.2,2,5.6,1.5z M2.1,11.8h1.9c0.4,1.1,0.9,2.1,1.5,2.8C4.2,14,2.9,13,2.1,11.8z M10.4,14.5
		c0.6-0.7,1.2-1.7,1.5-2.8h1.9C13.1,13,11.8,14,10.4,14.5z"/>
</g>
</svg>
