<?xml version="1.0" encoding="utf-8"?>
<!-- Generator: Adobe Illustrator 24.0.3, SVG Export Plug-In . SVG Version: 6.00 Build 0)  -->
<svg version="1.1" id="Layer_1" xmlns="http://www.w3.org/2000/svg" xmlns:xlink="http://www.w3.org/1999/xlink" x="0px" y="0px"
	 width="300px" height="76px" viewBox="0 0 300 76" enable-background="new 0 0 300 76" xml:space="preserve">
<path fill="#1D1647" d="M89.3,28.4h2.6v16.8h-2.6V28.4z M101.5,33.4c-0.4,0-0.8,0.1-1.2,0.2c-0.3,0.1-0.7,0.2-1,0.3
	c-0.2,0.1-0.5,0.3-0.7,0.4c-0.2,0.1-0.3,0.2-0.4,0.3L98,34.8v-1.2h-2.4v11.5H98v-6.2c-0.1-0.9,0.2-1.8,0.8-2.5
	c0.6-0.6,1.4-0.9,2.2-0.9c0.8,0,1.5,0.3,2,0.8c0.5,0.6,0.8,1.3,0.8,2.1v6.7h2.4v-6.7c0.1-1.3-0.4-2.7-1.3-3.7
	C104,33.9,102.8,33.4,101.5,33.4z M114.4,43.2c-0.2,0-0.4,0.1-0.6,0.1c-0.4,0-0.7-0.1-1-0.4c-0.3-0.3-0.4-0.6-0.4-1v-6h2.4v-2.2
	h-2.4v-3.9h-2.2v3.8h-2.4v2.2h2.1v6c0,2.4,1.1,3.6,3.4,3.6c0.6,0,1.1-0.1,1.7-0.2V43l-0.2,0C114.7,43.1,114.6,43.2,114.4,43.2z
	 M170.6,43.2c-0.2,0-0.4,0.1-0.6,0.1c-0.4,0-0.7-0.2-1-0.4c-0.3-0.3-0.4-0.6-0.4-1v-6h2.4v-2.2h-2.4v-3.9h-2.1v3.8H164v2.2h2.2v6
	c0,2.4,1.1,3.6,3.4,3.6c0.6,0,1.1-0.1,1.7-0.2V43l-0.2,0C170.9,43.1,170.7,43.2,170.6,43.2L170.6,43.2z M121.9,33.4
	c-3.2,0-5.9,2.6-5.9,5.9c0,1.6,0.6,3.2,1.8,4.3c1.1,1.2,2.6,1.8,4.2,1.8c0.6,0,1.2-0.1,1.8-0.3c0.5-0.1,1-0.3,1.4-0.6
	c0.4-0.2,0.7-0.4,1-0.7c0.2-0.2,0.4-0.4,0.6-0.6L127,43l-1.6-1.6l-0.4,0.5c-0.4,0.4-0.8,0.7-1.2,0.9c-0.6,0.3-1.2,0.5-1.9,0.5
	c-1.8,0-3.3-1.3-3.6-3h9l0.1-1.2c0.1-3-2.3-5.6-5.3-5.6C122,33.4,121.9,33.4,121.9,33.4L121.9,33.4z M118.5,38.2
	c0.2-0.8,0.6-1.5,1.2-2c1.3-1,3.1-1,4.4,0c0.6,0.5,1,1.2,1.1,2H118.5z M134.6,33.6c-0.3,0.1-0.7,0.2-1,0.3c-0.2,0.1-0.5,0.3-0.7,0.4
	c-0.2,0.1-0.3,0.2-0.4,0.3l-0.2,0.2v-1.2h-2.4v11.5h2.4v-6.2c-0.1-0.9,0.2-1.8,0.8-2.5c0.6-0.6,1.4-0.9,2.2-0.9c0.4,0,0.7,0,1.1,0.1
	v-2.3h-0.6C135.4,33.4,135,33.5,134.6,33.6L134.6,33.6z M144,33.4c-0.4,0-0.8,0.1-1.2,0.2c-0.3,0.1-0.7,0.2-1,0.3
	c-0.3,0.1-0.5,0.3-0.7,0.4c-0.2,0.1-0.3,0.2-0.4,0.3l-0.1,0.2v-1.2h-2.4v11.5h2.4v-6.2c-0.1-0.9,0.2-1.8,0.8-2.5
	c0.6-0.6,1.4-0.9,2.2-0.9c0.8,0,1.5,0.3,2,0.8c0.5,0.6,0.8,1.3,0.8,2.1v6.7h2.4v-6.7c0.1-1.3-0.4-2.7-1.3-3.7
	C146.5,33.8,145.3,33.3,144,33.4z M156.9,33.4c-3.3,0-5.9,2.6-5.9,5.9c0,0,0,0,0,0c0,1.6,0.6,3.2,1.8,4.3c1.1,1.2,2.6,1.8,4.2,1.8
	c0.6,0,1.2-0.1,1.8-0.3c0.5-0.1,1-0.3,1.4-0.6c0.4-0.2,0.7-0.4,1-0.7c0.2-0.2,0.4-0.4,0.6-0.6L162,43l-1.6-1.6l-0.4,0.5
	c-0.4,0.4-0.8,0.7-1.2,0.9c-0.6,0.3-1.2,0.5-1.9,0.5c-0.9,0-1.7-0.3-2.4-0.9c-0.6-0.5-1.1-1.3-1.2-2.1h9l0.1-1.2
	c0.1-3-2.3-5.6-5.3-5.7C157.1,33.4,157,33.4,156.9,33.4L156.9,33.4z M153.5,38.2c0.2-0.8,0.6-1.5,1.2-2c1.4-1.2,3.5-1.1,4.7,0.3
	c0.4,0.5,0.7,1.1,0.8,1.7H153.5z M184.5,28.4l-7,16.8h1.9l1.9-4.7h7.9l1.9,4.7h1.9l-7-16.8L184.5,28.4z M182.1,38.8l3.2-7.9l3.2,7.9
	H182.1z M200.4,39c-0.6-0.2-1.2-0.4-1.8-0.6c-0.6-0.1-1.1-0.4-1.6-0.7c-0.4-0.2-0.6-0.7-0.6-1.1c0-0.5,0.2-0.9,0.6-1.2
	c0.4-0.3,1-0.5,1.6-0.5c0.5,0,1,0.1,1.4,0.3c0.3,0.1,0.6,0.3,0.8,0.5c0.1,0.1,0.2,0.2,0.3,0.3l1.2-1.2l-0.2-0.2
	c-0.1-0.1-0.3-0.3-0.5-0.4c-0.2-0.2-0.5-0.3-0.7-0.5c-0.3-0.2-0.7-0.3-1.1-0.4c-0.4-0.1-0.9-0.2-1.3-0.2c-1,0-2,0.3-2.8,1
	c-0.7,0.6-1.1,1.4-1.1,2.3c0,0.7,0.2,1.3,0.6,1.8c0.4,0.5,1,0.8,1.6,1c0.6,0.2,1.2,0.4,1.8,0.6c0.6,0.2,1.1,0.4,1.6,0.7
	c0.4,0.2,0.7,0.7,0.6,1.2c0,0.5-0.2,1-0.6,1.4c-0.5,0.4-1.2,0.6-1.9,0.5c-0.3,0-0.7-0.1-1-0.2c-0.3-0.1-0.6-0.2-0.9-0.4
	c-0.2-0.2-0.4-0.3-0.6-0.5c-0.1-0.1-0.3-0.3-0.4-0.4l-0.1-0.2l-1.2,1.2l0.2,0.2c0.1,0.2,0.3,0.4,0.5,0.5c0.3,0.2,0.5,0.4,0.8,0.6
	c0.4,0.2,0.8,0.4,1.2,0.5c0.5,0.1,1,0.2,1.5,0.2c1.1,0.1,2.2-0.3,3.1-1c0.7-0.6,1.2-1.5,1.1-2.5c0-0.7-0.2-1.3-0.6-1.9
	C201.6,39.6,201,39.2,200.4,39z M210.5,39c-0.6-0.2-1.2-0.4-1.8-0.6c-0.6-0.1-1.1-0.4-1.6-0.7c-0.4-0.2-0.6-0.7-0.6-1.1
	c0-0.5,0.2-0.9,0.6-1.2c0.4-0.3,1-0.5,1.6-0.5c0.5,0,1,0.1,1.4,0.3c0.3,0.1,0.6,0.3,0.8,0.5c0.1,0.1,0.2,0.2,0.3,0.3l1.2-1.2
	l-0.2-0.2c-0.1-0.1-0.2-0.2-0.5-0.4s-0.5-0.3-0.7-0.5c-0.3-0.2-0.7-0.3-1.1-0.4c-0.4-0.1-0.9-0.2-1.3-0.2c-1,0-2,0.3-2.8,1
	c-0.7,0.6-1.1,1.4-1.1,2.3c0,0.7,0.2,1.3,0.6,1.8c0.4,0.5,1,0.8,1.6,1c0.6,0.2,1.2,0.4,1.8,0.6c0.6,0.2,1.1,0.4,1.6,0.7
	c0.4,0.2,0.6,0.7,0.6,1.2c0,0.5-0.2,1-0.6,1.4c-0.5,0.4-1.2,0.6-1.9,0.5c-0.3,0-0.7-0.1-1-0.2c-0.3-0.1-0.6-0.2-0.9-0.4
	c-0.2-0.2-0.4-0.3-0.6-0.5c-0.1-0.1-0.3-0.3-0.4-0.4l-0.1-0.2l-1.2,1.2l0.1,0.2c0.2,0.2,0.3,0.4,0.5,0.5c0.3,0.2,0.5,0.4,0.8,0.6
	c0.4,0.2,0.8,0.4,1.2,0.5c0.5,0.1,1,0.2,1.5,0.2c1.1,0.1,2.2-0.3,3.1-1c0.7-0.6,1.2-1.5,1.1-2.5c0-0.7-0.2-1.3-0.6-1.9
	C211.7,39.6,211.1,39.2,210.5,39L210.5,39z M220.5,33.4c-1.6,0-3.1,0.6-4.2,1.7c-2.3,2.4-2.3,6.1,0,8.5c2.3,2.3,6,2.3,8.3,0
	c0,0,0,0,0,0c2.3-2.4,2.3-6.1,0-8.5C223.6,34,222.1,33.4,220.5,33.4z M223.5,42.6c-1.5,1.6-4.1,1.7-5.8,0.2
	c-0.1-0.1-0.1-0.1-0.2-0.2c-1.6-1.8-1.6-4.5,0-6.3c1.6-1.6,4.1-1.7,5.8-0.2c0.1,0.1,0.1,0.1,0.2,0.2C225.1,38,225.1,40.8,223.5,42.6
	L223.5,42.6z M237.3,42.4c-0.4,0.4-0.8,0.7-1.3,1c-0.6,0.3-1.2,0.5-1.9,0.5c-1.1,0-2.1-0.5-2.9-1.3c-1.6-1.8-1.6-4.5,0-6.3
	c0.7-0.8,1.7-1.3,2.8-1.3c0.4,0,0.9,0.1,1.3,0.2c0.4,0.1,0.7,0.3,1,0.5c0.3,0.2,0.5,0.4,0.7,0.6l0.4,0.5l0.1,0.2l1.2-1.2l-0.5-0.5
	c-0.5-0.5-1-0.9-1.7-1.2c-0.8-0.4-1.7-0.6-2.6-0.6c-1.5,0-3,0.6-4,1.8c-2.3,2.4-2.3,6.1,0,8.5c1,1.1,2.5,1.8,4,1.8
	c0.6,0,1.1-0.1,1.7-0.3c0.5-0.1,0.9-0.3,1.3-0.6c0.4-0.2,0.7-0.4,1-0.7c0.2-0.2,0.4-0.4,0.6-0.6l0.2-0.3l-1.2-1.1L237.3,42.4z
	 M241.2,33.7h1.7v11.5h-1.7V33.7z M242.1,28.7c-0.3,0-0.6,0.1-0.8,0.3c-0.4,0.4-0.4,1.1,0.1,1.5c0.4,0.4,1.1,0.4,1.5,0
	c0.4-0.4,0.4-1.1,0-1.5C242.7,28.8,242.4,28.7,242.1,28.7L242.1,28.7z M250.6,33.4c-0.5,0-1,0.1-1.5,0.2c-0.4,0.1-0.8,0.3-1.2,0.5
	c-0.3,0.2-0.6,0.4-0.9,0.7c-0.2,0.2-0.4,0.3-0.5,0.5c-0.1,0.1-0.1,0.2-0.2,0.2l1.1,1.1l0.4-0.4c0.3-0.4,0.7-0.6,1.2-0.8
	c0.5-0.3,1.1-0.4,1.7-0.4c1.5-0.1,2.8,1.1,2.9,2.6c0,0.1,0,0.2,0,0.2l-4.4,0.7c-0.9,0.1-1.8,0.5-2.5,1.2c-0.6,0.6-0.9,1.5-0.9,2.3
	c0,0.9,0.5,1.8,1.2,2.3c0.8,0.7,1.8,1,2.9,1c0.5,0,0.9-0.1,1.4-0.2c0.3-0.1,0.7-0.2,1-0.4c0.3-0.2,0.5-0.3,0.7-0.5
	c0.2-0.2,0.4-0.4,0.4-0.4l0.1-0.2v1.6h1.7v-7.3c0-1.2-0.4-2.3-1.3-3.2C253,33.8,251.8,33.4,250.6,33.4L250.6,33.4z M253.5,40
	c0,1-0.3,2-1.1,2.8c-0.7,0.7-1.7,1.1-2.7,1.1c-0.6,0-1.2-0.1-1.8-0.5c-0.4-0.3-0.6-0.8-0.6-1.3c0-1.1,0.7-1.8,2.2-2l4-0.7L253.5,40z
	 M259.8,33.6h-2.3v1.6h2.2V42c-0.1,0.9,0.2,1.8,0.8,2.5c0.6,0.6,1.5,0.9,2.3,0.9c0.6,0,1.1-0.1,1.6-0.3v-1.6l-0.2,0.1
	c-0.2,0.1-0.4,0.1-0.6,0.2c-0.3,0.1-0.5,0.1-0.8,0.1c-1,0-1.6-0.6-1.6-1.8v-6.8h2.5v-1.5h-2.5v-3.9h-1.6L259.8,33.6z M268,28.7
	c-0.3,0-0.6,0.1-0.8,0.3c-0.4,0.4-0.4,1.1,0,1.5c0.2,0.2,0.5,0.3,0.8,0.3c0.6,0,1.1-0.5,1.1-1.1c0-0.3-0.1-0.5-0.3-0.7
	C268.6,28.8,268.3,28.7,268,28.7z M267.2,33.7h1.7v11.5h-1.7V33.7z M277.5,33.4c-1.6,0-3.1,0.6-4.2,1.7c-2.3,2.4-2.3,6.1,0,8.5
	c2.3,2.3,6,2.3,8.3,0c0,0,0,0,0,0c2.3-2.4,2.3-6.1,0-8.5C280.6,34,279.1,33.4,277.5,33.4L277.5,33.4z M280.5,42.6
	c-0.8,0.8-1.9,1.3-3,1.3c-1.1,0-2.2-0.5-3-1.3c-1.6-1.8-1.6-4.5,0-6.3c1.5-1.6,4.1-1.7,5.8-0.2c0.1,0.1,0.1,0.1,0.2,0.2
	C282.1,38,282.1,40.8,280.5,42.6L280.5,42.6z M294.9,34.8c-0.9-0.9-2.1-1.4-3.4-1.3c-0.5,0-0.9,0.1-1.3,0.2c-0.4,0.1-0.7,0.3-1,0.5
	c-0.3,0.2-0.5,0.4-0.8,0.6c-0.2,0.1-0.3,0.3-0.4,0.5l-0.1,0.2v-1.7h-1.7v11.5h1.7v-6.4c0-1,0.3-2,1-2.8c0.7-0.7,1.6-1.1,2.5-1
	c0.8,0,1.7,0.3,2.2,0.9c0.6,0.7,0.9,1.5,0.9,2.4v6.8h1.7v-6.9C296.3,37,295.8,35.7,294.9,34.8L294.9,34.8z"/>
<image overflow="visible" width="601" height="601" xlink:href="IA-logo-2018-mark@2x.png"  transform="matrix(0.1265 0 0 0.1265 1.64 0)">
</image>
</svg>
