<svg id="Layer_1" data-name="Layer 1" xmlns="http://www.w3.org/2000/svg" viewBox="0 0 16 16"><defs><style>.cls-1{fill:#fff;}.cls-2{fill:#e6e7e8;}</style></defs><title>icon-subcat</title><path class="cls-1" d="M13.56,10.7H3a.32.32,0,1,1,0-.63H13.56a.32.32,0,1,1,0,.63Z"/><path class="cls-2" d="M13.79,10.16,9.33,5.7a.32.32,0,0,0-.45.45l4.23,4.24L8.88,14.62a.32.32,0,0,0,.22.54.33.33,0,0,0,.23-.09l4.46-4.46A.33.33,0,0,0,13.79,10.16Z"/><path class="cls-2" d="M2.91,10.7a.32.32,0,0,1-.32-.31V1A.32.32,0,0,1,2.91.63.32.32,0,0,1,3.23,1v9.44A.31.31,0,0,1,2.91,10.7Z"/></svg>