<svg id="Layer_1" data-name="Layer 1" xmlns="http://www.w3.org/2000/svg" viewBox="0 0 334.2 46.32"><defs><style>.cls-1{fill:#5d83f4;}.cls-2{font-size:38.07px;fill:#fff;font-family:TTNorms-Bold, TT Norms;font-weight:700;}.cls-3{fill:#4b5e81;}</style></defs><title>iog-logo</title><path class="cls-1" d="M41.65,5.83a23.7,23.7,0,0,1,6.83,16.63A24.08,24.08,0,0,1,42,39.53a24.24,24.24,0,0,1-17.1,6.79A25.9,25.9,0,0,1,7.36,39.58C2.61,35.2-.47,28.78.06,22.9S4.74,11.68,9.49,7.55,19.58.49,25.35.06A21.7,21.7,0,0,1,41.65,5.83Z"/><text class="cls-2" transform="translate(11.08 36.39)">#</text><path class="cls-1" d="M266.83,21.6v9.89a6.19,6.19,0,0,1-.47.55,14.37,14.37,0,0,1-1.43,1.25,18.31,18.31,0,0,1-2.34,1.56,15.55,15.55,0,0,1-3.24,1.23,15.27,15.27,0,0,1-4.11.56A14.17,14.17,0,0,1,245,32.56a13.22,13.22,0,0,1-4.19-9.82A13.18,13.18,0,0,1,245,12.93a14.17,14.17,0,0,1,10.29-4.08,14.46,14.46,0,0,1,4,.55,12.18,12.18,0,0,1,3.12,1.33,21.06,21.06,0,0,1,2.15,1.56,8.5,8.5,0,0,1,1.35,1.32l.43.56-3.63,3.62-.3-.41a8.74,8.74,0,0,0-.88-.92A8.27,8.27,0,0,0,260,15.31a9.59,9.59,0,0,0-2.1-.91,8.64,8.64,0,0,0-11.41,8.34,8.58,8.58,0,0,0,8.76,8.75,9.35,9.35,0,0,0,3.25-.53,6.27,6.27,0,0,0,2.06-1.07l.58-.48V25.79h-4.76V21.6Z"/><path class="cls-1" d="M287.29,33.53a9.74,9.74,0,0,1-13.89,0,9.28,9.28,0,0,1,0-13.59,9.74,9.74,0,0,1,13.89,0,9.32,9.32,0,0,1,0,13.59Zm-10.16-3.27a4.35,4.35,0,0,0,6.43,0,5.24,5.24,0,0,0,0-7,4.33,4.33,0,0,0-6.43,0,5.24,5.24,0,0,0,0,7Z"/><path class="cls-1" d="M309.36,33.53a9.74,9.74,0,0,1-13.89,0,9.3,9.3,0,0,1,0-13.59,9.74,9.74,0,0,1,13.89,0,9.3,9.3,0,0,1,0,13.59Zm-10.15-3.27a4.35,4.35,0,0,0,6.43,0,5.24,5.24,0,0,0,0-7,4.33,4.33,0,0,0-6.43,0,5.24,5.24,0,0,0,0,7Z"/><path class="cls-1" d="M326.54,17.7a6.79,6.79,0,0,1,2,1.3l.57.69V9.41h5.13V36.06h-5.13V33.78a2.8,2.8,0,0,1-.23.29c-.1.11-.33.32-.67.63a9,9,0,0,1-1.1.82,6.77,6.77,0,0,1-1.55.64,7.1,7.1,0,0,1-2,.28,8.39,8.39,0,0,1-6.29-2.82,9.63,9.63,0,0,1-2.66-6.89,9.6,9.6,0,0,1,2.66-6.88A8.39,8.39,0,0,1,323.55,17,6.89,6.89,0,0,1,326.54,17.7Zm1.2,12.73a5.23,5.23,0,0,0,1.33-3.7,5.19,5.19,0,0,0-1.33-3.68,4.33,4.33,0,0,0-6.47,0,5.19,5.19,0,0,0-1.34,3.68,5.24,5.24,0,0,0,1.34,3.7,4.33,4.33,0,0,0,6.47,0Z"/><path class="cls-3" d="M53.49,9.74h5.72V36.4H53.49Z"/><path class="cls-3" d="M69.65,20a9.55,9.55,0,0,1,.63-.73,7.65,7.65,0,0,1,1.79-1.18A6.06,6.06,0,0,1,75,17.36a6.74,6.74,0,0,1,5.22,2.22,8.51,8.51,0,0,1,2,6V36.4H77.08V26.12a3.79,3.79,0,0,0-1-2.76,3.47,3.47,0,0,0-2.61-1.05,3.56,3.56,0,0,0-2.78,1.14,4.65,4.65,0,0,0-1,3.24V36.4H64.52V17.74h5.13Z"/><path class="cls-3" d="M89.07,12.23h4.57v5.9h3.79V22.7H93.64v7.41a2,2,0,0,0,.64,1.49,2.26,2.26,0,0,0,1.63.61,4.43,4.43,0,0,0,1-.1,4.1,4.1,0,0,0,.72-.21l.22-.08v4.39a9.52,9.52,0,0,1-3.44.56q-5.88,0-5.89-6.47V22.7H85.26V18.13H87a1.93,1.93,0,0,0,1.49-.69,2.64,2.64,0,0,0,.61-1.79Z"/><path class="cls-3" d="M104.47,28.77a4.28,4.28,0,0,0,1.62,2.58,5.17,5.17,0,0,0,3.32,1,6.33,6.33,0,0,0,2.69-.57,5.42,5.42,0,0,0,1.74-1.14l.54-.58L117,33.53l-.34.35c-.15.15-.49.41-1,.79a12.09,12.09,0,0,1-1.62,1,10.31,10.31,0,0,1-2.22.77,12,12,0,0,1-2.82.34,9.58,9.58,0,0,1-7-2.86,9.57,9.57,0,0,1,0-13.69,9.34,9.34,0,0,1,6.86-2.86,9.11,9.11,0,0,1,9.31,9.33L118,28.77Zm1.61-6.07a5,5,0,0,0-1.61,2.47H113a4.23,4.23,0,0,0-1.42-2.45,4.06,4.06,0,0,0-2.76-1A4.22,4.22,0,0,0,106.08,22.7Z"/><path class="cls-3" d="M132.83,22.7a6.23,6.23,0,0,0-1.71-.21,4.14,4.14,0,0,0-3.21,1.29,5.26,5.26,0,0,0-1.18,3.68V36.4H121.6V17.74h5.13V20c.15-.17.36-.4.64-.68a7.49,7.49,0,0,1,1.79-1.1,6.42,6.42,0,0,1,2.91-.69h.76Z"/><path class="cls-3" d="M140.43,20a9.55,9.55,0,0,1,.63-.73,7.65,7.65,0,0,1,1.79-1.18,6,6,0,0,1,2.91-.75A6.71,6.71,0,0,1,151,19.58a8.47,8.47,0,0,1,2,6V36.4h-5.13V26.12a3.83,3.83,0,0,0-1-2.76,3.48,3.48,0,0,0-2.61-1.05,3.56,3.56,0,0,0-2.78,1.14,4.65,4.65,0,0,0-1,3.24V36.4H135.3V17.74h5.13Z"/><path class="cls-3" d="M161.74,28.77a4.28,4.28,0,0,0,1.62,2.58,5.18,5.18,0,0,0,3.33,1,6.32,6.32,0,0,0,2.68-.57,5.31,5.31,0,0,0,1.74-1.14l.54-.58,2.66,3.42-.35.35a11.2,11.2,0,0,1-1,.79,12.09,12.09,0,0,1-1.62,1,10.31,10.31,0,0,1-2.22.77,12,12,0,0,1-2.82.34,9.59,9.59,0,0,1-7-2.86,9.57,9.57,0,0,1,0-13.69,9.34,9.34,0,0,1,6.86-2.86,9.11,9.11,0,0,1,9.31,9.33l-.19,2.08Zm1.61-6.07a5,5,0,0,0-1.61,2.47h8.57a4.23,4.23,0,0,0-1.42-2.45,4.06,4.06,0,0,0-2.76-1A4.22,4.22,0,0,0,163.35,22.7Z"/><path class="cls-3" d="M181.16,12.23h4.57v5.9h3.8V22.7h-3.8v7.41a2,2,0,0,0,.64,1.49,2.26,2.26,0,0,0,1.63.61,4.53,4.53,0,0,0,1-.1,4.21,4.21,0,0,0,.71-.21l.23-.08v4.39a9.59,9.59,0,0,1-3.44.56q-5.89,0-5.89-6.47V22.7h-3.24V18.13h1.71a1.93,1.93,0,0,0,1.49-.69,2.59,2.59,0,0,0,.61-1.79Z"/><path class="cls-3" d="M197.71,13.26a15,15,0,0,1,20.55,0,13.15,13.15,0,0,1,4.19,9.81,13.18,13.18,0,0,1-4.19,9.82,15,15,0,0,1-20.55,0,13.18,13.18,0,0,1-4.19-9.82A13.15,13.15,0,0,1,197.71,13.26Zm4.21,16a8.56,8.56,0,0,0,12.13,0,8.53,8.53,0,0,0,2.49-6.22,8.55,8.55,0,0,0-2.49-6.23,8.53,8.53,0,0,0-12.13,0,8.55,8.55,0,0,0-2.49,6.23A8.53,8.53,0,0,0,201.92,29.3Z"/><path class="cls-3" d="M236.73,22.88h-4.18V36.4H227.4V22.88h-2.66V18.31h2.66V15.84q0-6.46,5.91-6.47a9.74,9.74,0,0,1,1.69.15,10.4,10.4,0,0,1,1.32.3l.41.13v4.37a4.29,4.29,0,0,0-1.9-.38,2.32,2.32,0,0,0-1.63.61,1.91,1.91,0,0,0-.65,1.48v2.28h4.18Z"/></svg>