<svg xmlns="http://www.w3.org/2000/svg" viewBox="0 0 211.13 201.74"><title>iog-sq-logo</title><g id="Layer_8" data-name="Layer 8"><path d="M181.4,25.38c18.77,18,29.34,45.07,29.72,72.45s-9.41,55.23-28.18,74.33-46.61,29.53-74.47,29.58S52.68,191.49,32,172.39-2.08,125.35.26,99.75,20.62,50.89,41.31,32.86,85.26,2.12,110.39.24s52.19,7.12,71,25.14" style="fill:#5d82f3"/><path d="M162.66,111.22l-3.32,16.6H137l-5.82,30.68H112.06l5.83-30.68h-24L88.09,158.5H69l5.82-30.68H52.39l3.32-16.6H78.13l4.13-21.53H59.84l3.32-16.6H85.58L91.33,42.4h19.11l-5.83,30.69h24l5.82-30.69h19l-5.75,30.69h22.35l-3.32,16.6H144.44l-4.13,21.53ZM125.34,89.69h-24l-4.13,21.53h24Z" style="fill:#fff"/></g></svg>