<svg id="Layer_1" data-name="Layer 1" xmlns="http://www.w3.org/2000/svg" viewBox="0 0 16 16"><title>location</title><path d="M4.36,13a2.14,2.14,0,0,0,0-2.42C3.94,10,3.15,9.32,3.15,8.76c0-.74,1.8-1,2.43-1.82s0-2-.32-2.42A8.86,8.86,0,0,0,4,3,7,7,0,0,0,3.31,14,3.21,3.21,0,0,0,4.36,13Z" style="fill:#3dae2b"/><path d="M8,1.76A7,7,0,0,0,4,3,8.86,8.86,0,0,1,5.26,4.52c.27.45.87,1.71.32,2.42S3.15,8,3.15,8.76c0,.56.79,1.2,1.21,1.82a2.14,2.14,0,0,1,0,2.42A3.21,3.21,0,0,1,3.31,14,7,7,0,0,0,8,15.76h.32L8,15.43c-1.31-1.06-1.39-4.53.67-5.33,1.09-.43,1.44,2,3.58,1.36a1.34,1.34,0,0,1,1.15,1.76A7,7,0,0,0,8,1.76Z" style="fill:#284dff"/><path d="M12.25,11.46c-2.14.59-2.49-1.79-3.58-1.36-2.06.8-2,4.27-.67,5.33l.32.32a7,7,0,0,0,5.08-2.53A1.34,1.34,0,0,0,12.25,11.46Z" style="fill:#3dae2b"/><path d="M11.33.43a3,3,0,0,0-3,3c0,1.79,2.27,4.1,2.86,4.67a.21.21,0,0,0,.28,0c.59-.57,2.86-2.88,2.86-4.67A3,3,0,0,0,11.33.43Z" style="fill:#faa21b"/><circle cx="11.33" cy="3.43" r="1" style="fill:#fff"/></svg>