<?xml version="1.0" encoding="utf-8"?>
<!-- Generator: Adobe Illustrator 24.0.3, SVG Export Plug-In . SVG Version: 6.00 Build 0)  -->
<svg version="1.1" id="Layer_1" xmlns="http://www.w3.org/2000/svg" xmlns:xlink="http://www.w3.org/1999/xlink" x="0px" y="0px"
	 width="50px" height="50px" viewBox="0 0 50 50" style="enable-background:new 0 0 50 50;" xml:space="preserve">
<style type="text/css">
	.st0{opacity:0.7;fill:#FFFFFF;}
	.st1{opacity:0.9;fill:#FFFFFF;}
</style>
<title>Artboard 43</title>
<g id="cloud-arrow-up">
	<path class="st0" d="M1.3,25c0-0.9,0.7-1.6,1.6-1.6h44.2c0.9,0,1.6,0.7,1.6,1.6s-0.7,1.6-1.6,1.6H2.9C2,26.6,1.3,25.9,1.3,25z"/>
	<path class="st1" d="M30.6,39.9c0-0.4,0.2-0.8,0.5-1.1L44.8,25L31.1,11.2c-0.6-0.6-0.6-1.6,0-2.2s1.6-0.6,2.2,0l0,0l14.9,14.9
		c0.6,0.6,0.6,1.6,0,2.2c0,0,0,0,0,0L33.3,41c-0.6,0.6-1.6,0.6-2.2,0C30.8,40.7,30.6,40.3,30.6,39.9L30.6,39.9z"/>
</g>
</svg>
