<?xml version="1.0" encoding="utf-8"?>
<!-- Generator: Adobe Illustrator 23.0.1, SVG Export Plug-In . SVG Version: 6.00 Build 0)  -->
<svg version="1.1" id="Layer_1" xmlns="http://www.w3.org/2000/svg" xmlns:xlink="http://www.w3.org/1999/xlink" x="0px" y="0px"
	 viewBox="0 0 46 46" style="enable-background:new 0 0 46 46;" xml:space="preserve">
<g>
	<path style="fill:#3371E2;" d="M7.4,23c0-0.4,0.3-0.7,0.7-0.7h29.8c0.4,0,0.7,0.3,0.7,0.7c0,0.4-0.3,0.7-0.7,0.7H8.1
		C7.7,23.6,7.4,23.4,7.4,23z"/>
	<path style="fill:#3993FF;" d="M28.1,32.1c0-0.2,0.1-0.3,0.2-0.5l9.1-9.1c0.3-0.3,0.7-0.3,0.9,0c0.3,0.3,0.3,0.7,0,0.9l-9.1,9.1
		c-0.3,0.3-0.7,0.3-0.9,0C28.2,32.5,28.1,32.3,28.1,32.1L28.1,32.1z"/>
	<path style="fill:#3993FF;" d="M28.1,13.9c0-0.4,0.3-0.7,0.6-0.7c0.2,0,0.3,0.1,0.5,0.2l9.1,9.1c0.3,0.3,0.3,0.7,0,0.9
		c-0.3,0.3-0.7,0.3-0.9,0l-9.1-9.1C28.2,14.2,28.1,14,28.1,13.9z"/>
</g>
</svg>
