<svg id="Layer_1" data-name="Layer 1" xmlns="http://www.w3.org/2000/svg" viewBox="0 0 918 296.37"><title>title</title><path d="M537.36,39.81a1,1,0,0,1-1-1v-.52a1,1,0,1,1,2,.05v.47A1,1,0,0,1,537.36,39.81Z" fill="#fff"/><path d="M539.15,30.28a1.15,1.15,0,0,1-.36-.07,1,1,0,0,1-.57-1.3c.13-.33.27-.66.41-1a1,1,0,0,1,1.83.81c-.13.3-.26.6-.38.91A1,1,0,0,1,539.15,30.28Zm48.76,0a1,1,0,0,1-.93-.63c-.12-.31-.25-.62-.38-.92a1,1,0,1,1,1.83-.8c.14.32.28.65.41,1a1,1,0,0,1-.56,1.3A1,1,0,0,1,587.91,30.25Zm-43.25-8.57a1,1,0,0,1-.72-1.7l.75-.75a1,1,0,0,1,1.42,0,1,1,0,0,1,0,1.41l-.7.7A1,1,0,0,1,544.66,21.68Zm37.73,0a1,1,0,0,1-.72-.31c-.23-.24-.46-.47-.7-.7a1,1,0,1,1,1.39-1.44l.75.75a1,1,0,0,1,0,1.42A1.05,1.05,0,0,1,582.39,21.66ZM553,15.83a1,1,0,0,1-.91-.6,1,1,0,0,1,.51-1.32l1-.41a1,1,0,0,1,.74,1.86l-.92.38A.93.93,0,0,1,553,15.83Zm21,0a1,1,0,0,1-.4-.09l-.91-.38a1,1,0,1,1,.72-1.86l1,.41a1,1,0,0,1-.41,1.92Zm-10-2.18h-1a1,1,0,0,1-1-1,1,1,0,0,1,1-1h1.07a1,1,0,0,1,0,2Z" fill="#fff"/><path d="M589.71,39.81a1,1,0,0,1-1-1v-.48a1,1,0,0,1,1-1,1.05,1.05,0,0,1,1,1v.51A1,1,0,0,1,589.71,39.81Z" fill="#fff"/><path d="M809.83,49.26h-.08c-.36,0-.72-.07-1.07-.12a1,1,0,0,1-.83-1.15,1,1,0,0,1,1.15-.83c.3.05.6.08.91.11a1,1,0,0,1-.08,2Zm8.42-2.54a1,1,0,0,1-.79-.39,1,1,0,0,1,.17-1.4c.24-.19.48-.39.7-.6a1,1,0,0,1,1.36,1.47c-.27.25-.54.48-.82.7A1,1,0,0,1,818.25,46.72Zm-17-2a1,1,0,0,1-.79-.38q-.33-.42-.63-.87a1,1,0,1,1,1.67-1.11c.17.26.35.5.53.74a1,1,0,0,1-.78,1.62Zm21.6-6.52h-.08a1,1,0,0,1-.92-1.08c0-.3,0-.61,0-.91a1,1,0,1,1,2,0c0,.36,0,.72,0,1.07A1,1,0,0,1,822.86,38.16Zm-24.07-2.87-.15,0a1,1,0,0,1-.84-1.14c.06-.36.13-.71.21-1.06a1,1,0,0,1,2,.47q-.11.43-.18.9A1,1,0,0,1,798.79,35.29Zm23-3.19a1,1,0,0,1-.91-.58c-.13-.28-.27-.55-.42-.82a1,1,0,1,1,1.74-1c.18.31.34.63.49,1a1,1,0,0,1-.48,1.33A1.06,1.06,0,0,1,821.8,32.1Zm-17.78-5a1,1,0,0,1-.83-.44,1,1,0,0,1,.27-1.39c.3-.2.61-.39.92-.56a1,1,0,0,1,1,1.74q-.4.22-.78.48A1,1,0,0,1,804,27.09Zm10.52-1.45a1.12,1.12,0,0,1-.31-.05,8.84,8.84,0,0,0-.88-.25,1,1,0,0,1,.46-1.95c.35.09.7.18,1,.3a1,1,0,0,1,.64,1.26A1,1,0,0,1,814.54,25.64Z" fill="#fff"/><path d="M259.69,164h0l-1,0a1,1,0,0,1-.94-1.06,1,1,0,0,1,1.06-.94l1,0a1,1,0,0,1,0,2Zm8.91-1a1,1,0,0,1-.25-2l.93-.26a1,1,0,1,1,.57,1.92c-.33.1-.66.19-1,.27A.73.73,0,0,1,268.6,163Zm-18.68-1a1.12,1.12,0,0,1-.35-.06l-1-.38a1,1,0,1,1,.76-1.85l.9.36a1,1,0,0,1-.35,1.93ZM277.71,159a1,1,0,0,1-.84-.45,1,1,0,0,1,.3-1.38l.8-.54a1,1,0,1,1,1.14,1.64l-.85.57A1,1,0,0,1,277.71,159Zm-36.44-1.86a1.07,1.07,0,0,1-.63-.22l-.79-.67a1,1,0,1,1,1.31-1.51l.74.62a1,1,0,0,1,.15,1.4A1,1,0,0,1,241.27,157.16Zm43.82-4.82a1,1,0,0,1-.62-.22,1,1,0,0,1-.16-1.4c.2-.26.4-.51.59-.77a1,1,0,0,1,1.4-.2,1,1,0,0,1,.2,1.4c-.2.27-.41.55-.63.82A1,1,0,0,1,285.09,152.34Zm-50.48-2.58a1,1,0,0,1-.84-.46c-.19-.29-.37-.58-.55-.87a1,1,0,0,1,1.72-1c.16.28.33.55.51.82a1,1,0,0,1-.3,1.39A1,1,0,0,1,234.61,149.76ZM290,143.68a.91.91,0,0,1-.35-.07,1,1,0,0,1-.59-1.28c.11-.3.22-.61.32-.92a1,1,0,0,1,1.27-.63,1,1,0,0,1,.63,1.26c-.11.33-.22.66-.34,1A1,1,0,0,1,290,143.68Zm-59.37-3a1,1,0,0,1-1-.75l-.24-1a1,1,0,0,1,.76-1.19,1,1,0,0,1,1.2.76c.07.31.14.63.22.94a1,1,0,0,1-.72,1.22A1.07,1.07,0,0,1,230.62,140.64Zm61.27-6.74h0a1,1,0,0,1-1-1c0-.32,0-.64,0-1a1,1,0,0,1,2,0c0,.35,0,.69,0,1A1,1,0,0,1,291.89,133.9Zm-62.16-3.18h-.07a1,1,0,0,1-.93-1.06c0-.35.05-.69.09-1a1,1,0,1,1,2,.2c0,.32-.06.64-.08,1A1,1,0,0,1,229.73,130.72Zm61.83-2.44a1,1,0,0,1-1-.85c-.05-.32-.1-.64-.16-1a1,1,0,1,1,2-.36c.06.34.11.67.16,1a1,1,0,0,1-.84,1.13ZM232,121a1,1,0,0,1-.38-.07,1,1,0,0,1-.55-1.31c.13-.32.27-.64.41-1a1,1,0,0,1,1.83.83c-.14.29-.26.58-.39.88A1,1,0,0,1,232,121Zm56.54-2.23a1,1,0,0,1-.9-.55c-.14-.28-.29-.57-.45-.85a1,1,0,0,1,.4-1.36,1,1,0,0,1,1.35.4c.17.3.33.6.49.91a1,1,0,0,1-.44,1.34A.93.93,0,0,1,288.54,118.8Zm-51.32-6.24a1,1,0,0,1-.65-.25,1,1,0,0,1-.1-1.41c.22-.26.45-.51.68-.77a1,1,0,0,1,1.48,1.36l-.65.72A1,1,0,0,1,237.22,112.56Zm45.44-1.79a1,1,0,0,1-.7-.29l-.7-.67a1,1,0,1,1,1.36-1.47l.74.71a1,1,0,0,1,0,1.42A1,1,0,0,1,282.66,110.77Zm-37.81-4.61a1,1,0,0,1-.86-.49,1,1,0,0,1,.35-1.37c.29-.18.59-.35.89-.52a1,1,0,0,1,1.36.39,1,1,0,0,1-.39,1.36l-.84.48A1,1,0,0,1,244.85,106.16ZM274.56,105a1,1,0,0,1-.45-.1l-.87-.42a1,1,0,0,1-.5-1.32,1,1,0,0,1,1.33-.5l.93.45a1,1,0,0,1-.44,1.89Zm-20.46-2.49a1,1,0,0,1-.21-2l1-.21a1,1,0,1,1,.37,2l-1,.19A.78.78,0,0,1,254.1,102.49Zm10.94-.42h-.14q-.48-.07-1-.12a1,1,0,1,1,.21-2l1,.12a1,1,0,0,1-.13,2Z" fill="#fff"/><path d="M60.31,30.58,71.88,68.87,83.45,30.58H96.23L77.88,86.44H66.7l-12-37.52-12,37.52H31.6L13.26,30.58H26L37.6,68.87,49.17,30.58Z" fill="#fff"/><path d="M108.15,70.47a9,9,0,0,0,3.39,5.39,10.83,10.83,0,0,0,7,2.2,13.19,13.19,0,0,0,5.63-1.19,11.06,11.06,0,0,0,3.65-2.39l1.13-1.21,5.57,7.17-.73.72a19.47,19.47,0,0,1-2.08,1.65,24.27,24.27,0,0,1-3.39,2.09,21.76,21.76,0,0,1-4.65,1.62,25.16,25.16,0,0,1-5.91.7,20.2,20.2,0,0,1-14.68-6A20.08,20.08,0,0,1,103,52.53a19.63,19.63,0,0,1,14.38-6A19.07,19.07,0,0,1,136.86,66.1l-.39,4.37Zm3.37-12.74a10.51,10.51,0,0,0-3.37,5.18h18a8.9,8.9,0,0,0-3-5.14,8.58,8.58,0,0,0-5.79-2A8.8,8.8,0,0,0,111.52,57.73Z" fill="#fff"/><path d="M182.71,82.46a16.73,16.73,0,0,1-1.3,1.35,15.76,15.76,0,0,1-3.64,2.1,14.78,14.78,0,0,1-15.35-2,10.16,10.16,0,0,1-3.67-7.88,11.06,11.06,0,0,1,3.08-8,15.12,15.12,0,0,1,8.49-4.17l12.39-2.22a5,5,0,0,0-1.79-4,7.35,7.35,0,0,0-5-1.56,11.59,11.59,0,0,0-4.83,1A9,9,0,0,0,168,59.17l-.9.93-6-6,.64-.83a20.18,20.18,0,0,1,1.83-1.82,19.44,19.44,0,0,1,3.1-2.27,20.29,20.29,0,0,1,4.4-1.84,19.17,19.17,0,0,1,5.57-.83q7.41,0,12.08,4.42a14.64,14.64,0,0,1,4.67,11.12V86.44H182.71Zm-2.16-6.33a9.07,9.07,0,0,0,2.16-6.44V68.48L174,70.08c-2.94.46-4.4,1.93-4.4,4.4,0,2.65,1.72,4,5.18,4A7.56,7.56,0,0,0,180.55,76.13Z" fill="#fff"/><path d="M227.36,57.73a12.91,12.91,0,0,0-3.59-.43A8.69,8.69,0,0,0,217.05,60q-2.48,2.68-2.47,7.71V86.44H203.83V47.33h10.75v4.79c.31-.37.75-.84,1.32-1.42a15.52,15.52,0,0,1,3.76-2.32,13.57,13.57,0,0,1,6.1-1.44h1.6Z" fill="#fff"/><path d="M242.08,70.47a9,9,0,0,0,3.39,5.39,10.83,10.83,0,0,0,7,2.2,13.19,13.19,0,0,0,5.63-1.19,10.89,10.89,0,0,0,3.64-2.39l1.13-1.21,5.58,7.17-.73.72a20.62,20.62,0,0,1-2.08,1.65,24.27,24.27,0,0,1-3.39,2.09,22,22,0,0,1-4.65,1.62,25.16,25.16,0,0,1-5.91.7,20.18,20.18,0,0,1-14.68-6,20.08,20.08,0,0,1-.08-28.71,19.62,19.62,0,0,1,14.37-6A19.07,19.07,0,0,1,270.79,66.1l-.39,4.37Zm3.37-12.74a10.51,10.51,0,0,0-3.37,5.18h18a8.9,8.9,0,0,0-3-5.14,8.58,8.58,0,0,0-5.79-2A8.8,8.8,0,0,0,245.45,57.73Z" fill="#fff"/><path d="M299.89,35.8h9.58V48.14h7.95v9.59h-7.95V73.27a4.16,4.16,0,0,0,1.35,3.12,4.75,4.75,0,0,0,3.41,1.28,9.8,9.8,0,0,0,2-.21,7.23,7.23,0,0,0,1.5-.45l.47-.16v9.2A20,20,0,0,1,311,87.22q-12.34,0-12.35-13.56V57.73h-6.77V48.14h3.58a4,4,0,0,0,3.12-1.44A5.42,5.42,0,0,0,299.89,43Z" fill="#fff"/><path d="M338.57,52.12c.32-.42.75-.93,1.31-1.54a15.54,15.54,0,0,1,3.74-2.47,12.7,12.7,0,0,1,6.1-1.56,14.1,14.1,0,0,1,10.92,4.63q4.23,4.64,4.23,12.51V86.44H354.12V64.9A8,8,0,0,0,352,59.11a7.25,7.25,0,0,0-5.47-2.2,7.4,7.4,0,0,0-5.8,2.39,9.87,9.87,0,0,0-2.15,6.8V86.44H327.78V30.58h10.79Z" fill="#fff"/><path d="M384,70.47a8.9,8.9,0,0,0,3.39,5.39,10.81,10.81,0,0,0,7,2.2A13.25,13.25,0,0,0,400,76.87a11,11,0,0,0,3.64-2.39l1.13-1.21,5.57,7.17-.72.72a21.91,21.91,0,0,1-2.08,1.65,25.49,25.49,0,0,1-3.39,2.09,22.07,22.07,0,0,1-4.66,1.62,25.14,25.14,0,0,1-5.9.7,20.21,20.21,0,0,1-14.69-6,20.1,20.1,0,0,1-.08-28.71,19.65,19.65,0,0,1,14.38-6A19.07,19.07,0,0,1,412.71,66.1l-.39,4.37Zm3.37-12.74A10.51,10.51,0,0,0,384,62.91H402a8.8,8.8,0,0,0-3-5.14,8.55,8.55,0,0,0-5.78-2A8.76,8.76,0,0,0,387.37,57.73Z" fill="#fff"/><path d="M463.35,82.46A14.75,14.75,0,0,1,462,83.81a15.88,15.88,0,0,1-3.75,2.1,14.74,14.74,0,0,1-6.1,1.31,14.32,14.32,0,0,1-10.93-4.5q-4.23-4.5-4.23-12V47.33h10.76V69.69a7.3,7.3,0,0,0,2.16,5.41,7.39,7.39,0,0,0,5.43,2.14,7.51,7.51,0,0,0,5.83-2.37q2.16-2.39,2.16-6.78V47.33H474.1V86.44H463.35Z" fill="#fff"/><path d="M495.6,52.12c.32-.42.76-.93,1.33-1.54a16,16,0,0,1,3.76-2.47,12.66,12.66,0,0,1,6.09-1.56,14.11,14.11,0,0,1,10.93,4.63q4.23,4.64,4.23,12.51V86.44H511.19V64.9a8,8,0,0,0-2.13-5.79,7.25,7.25,0,0,0-5.47-2.2,7.47,7.47,0,0,0-5.82,2.39q-2.17,2.4-2.17,6.8V86.44H484.85V47.33H495.6Z" fill="#fff"/><rect x="532.69" y="47.33" width="10.79" height="39.11" fill="#fff"/><path d="M576.16,58.12H567.4V86.44H556.61V58.12H551V48.53h5.57V43.35q0-13.55,12.39-13.55a20.33,20.33,0,0,1,3.54.31,21.93,21.93,0,0,1,2.77.62l.85.27v9.16a9,9,0,0,0-4-.78,4.82,4.82,0,0,0-3.43,1.27,4,4,0,0,0-1.36,3.09v4.79h8.76Z" fill="#fff"/><rect x="583.72" y="47.33" width="10.79" height="39.11" fill="#fff"/><path d="M614,70.47a8.9,8.9,0,0,0,3.39,5.39,10.83,10.83,0,0,0,7,2.2A13.22,13.22,0,0,0,630,76.87a10.89,10.89,0,0,0,3.64-2.39l1.13-1.21,5.57,7.17-.72.72a20.62,20.62,0,0,1-2.08,1.65,25.49,25.49,0,0,1-3.39,2.09,22.07,22.07,0,0,1-4.66,1.62,25,25,0,0,1-5.9.7,20.18,20.18,0,0,1-14.68-6,20.08,20.08,0,0,1-.08-28.71,19.62,19.62,0,0,1,14.37-6A19.07,19.07,0,0,1,642.74,66.1l-.39,4.37Zm3.37-12.74A10.51,10.51,0,0,0,614,62.91h18a8.9,8.9,0,0,0-3-5.14,8.58,8.58,0,0,0-5.79-2A8.8,8.8,0,0,0,617.4,57.73Z" fill="#fff"/><path d="M673.34,48a13.66,13.66,0,0,1,4.11,2.73l1.21,1.44V30.58h10.75V86.44H678.66V81.65c-.11.15-.27.35-.49.6s-.69.69-1.4,1.32a16.39,16.39,0,0,1-2.32,1.72,13.6,13.6,0,0,1-3.23,1.34,14.57,14.57,0,0,1-4.13.59,17.6,17.6,0,0,1-13.19-5.9,20.21,20.21,0,0,1-5.59-14.44,20.17,20.17,0,0,1,5.59-14.43,17.57,17.57,0,0,1,13.19-5.9A14.13,14.13,0,0,1,673.34,48Zm2.51,26.68a11,11,0,0,0,2.81-7.75,10.91,10.91,0,0,0-2.81-7.73,9.11,9.11,0,0,0-13.55,0,10.91,10.91,0,0,0-2.81,7.73,11,11,0,0,0,2.81,7.75,9.07,9.07,0,0,0,13.55,0Z" fill="#fff"/><path d="M726.46,86.44,711.69,47.33h11.18L732,73.27l9.19-25.94h11.14L737.64,86.44Z" fill="#fff"/><path d="M790.83,81.12a20.43,20.43,0,0,1-29.12,0,19.47,19.47,0,0,1,0-28.48,20.45,20.45,0,0,1,29.12,0,19.52,19.52,0,0,1,0,28.48Zm-21.29-6.86a9.11,9.11,0,0,0,13.48,0,11,11,0,0,0,0-14.74,9.07,9.07,0,0,0-13.48,0,11,11,0,0,0,0,14.74Z" fill="#fff"/><rect x="805.38" y="47.33" width="10.79" height="39.11" fill="#fff"/><path d="M830.78,52.64a20.63,20.63,0,0,1,14.88-6.09,19.94,19.94,0,0,1,5.78.83,17.75,17.75,0,0,1,4.5,2,30.87,30.87,0,0,1,3.12,2.32,12.66,12.66,0,0,1,2,2l.58.81-6.78,6.78a12.79,12.79,0,0,0-1-1.44,12.49,12.49,0,0,0-3.12-2.32,9.67,9.67,0,0,0-5-1.42,9.82,9.82,0,0,0-7.31,3.16,11,11,0,0,0,0,15.23,9.86,9.86,0,0,0,7.29,3.15,10.54,10.54,0,0,0,5-1.28,12.24,12.24,0,0,0,3.49-2.57l1-1.33,6.39,6.78-.64.88a16.29,16.29,0,0,1-1.89,1.91,19,19,0,0,1-7.66,4.28,19,19,0,0,1-5.78.88,20.64,20.64,0,0,1-14.88-6.1,19.31,19.31,0,0,1,0-28.48Z" fill="#fff"/><path d="M877.56,70.47A9,9,0,0,0,881,75.86a10.85,10.85,0,0,0,7,2.2,13.25,13.25,0,0,0,5.63-1.19,11,11,0,0,0,3.64-2.39l1.13-1.21,5.57,7.17-.72.72a21.14,21.14,0,0,1-2.09,1.65,24.27,24.27,0,0,1-3.39,2.09,21.76,21.76,0,0,1-4.65,1.62,25.14,25.14,0,0,1-5.9.7,20.21,20.21,0,0,1-14.69-6,20.08,20.08,0,0,1-.08-28.71,19.63,19.63,0,0,1,14.38-6A19.07,19.07,0,0,1,906.27,66.1l-.39,4.37Zm3.37-12.74a10.58,10.58,0,0,0-3.37,5.18h18a8.85,8.85,0,0,0-3-5.14,8.57,8.57,0,0,0-5.78-2A8.81,8.81,0,0,0,880.93,57.73Z" fill="#fff"/><path d="M53.5,176.86a20.45,20.45,0,0,1-29.12,0,19.45,19.45,0,0,1,0-28.48,20.43,20.43,0,0,1,29.12,0,19.52,19.52,0,0,1,0,28.48ZM32.21,170a9.11,9.11,0,0,0,13.48,0,11,11,0,0,0,0-14.74,9.07,9.07,0,0,0-13.48,0,11,11,0,0,0,0,14.74Z" fill="#fff"/><path d="M89.59,153.85H80.82v28.33H70V153.85H64.46v-9.58H70v-5.18q0-13.56,12.39-13.56a21.56,21.56,0,0,1,3.55.31,21.82,21.82,0,0,1,2.76.63l.86.27v9.16a9,9,0,0,0-4-.78,4.86,4.86,0,0,0-3.43,1.26,4.08,4.08,0,0,0-1.37,3.1v4.79h8.77Z" fill="#fff"/><path d="M117.87,131.53h9.58v12.35h8v9.58h-8V169a4.12,4.12,0,0,0,1.35,3.11,4.71,4.71,0,0,0,3.41,1.29,9.8,9.8,0,0,0,2-.21,8.72,8.72,0,0,0,1.5-.45l.47-.16v9.2A19.74,19.74,0,0,1,129,183q-12.34,0-12.35-13.55V153.46h-6.78v-9.58h3.59a4,4,0,0,0,3.12-1.44,5.44,5.44,0,0,0,1.28-3.74Z" fill="#fff"/><path d="M156.55,147.86c.32-.42.75-.93,1.31-1.54a15.8,15.8,0,0,1,3.74-2.48,12.69,12.69,0,0,1,6.09-1.56,14.12,14.12,0,0,1,10.93,4.64q4.23,4.64,4.23,12.51v22.75H172.1V160.63a8,8,0,0,0-2.13-5.78,7.25,7.25,0,0,0-5.47-2.2,7.4,7.4,0,0,0-5.8,2.39,9.87,9.87,0,0,0-2.15,6.8v20.34H145.76V126.31h10.79Z" fill="#fff"/><path d="M202,166.2a8.92,8.92,0,0,0,3.39,5.4,10.81,10.81,0,0,0,7,2.2,13.41,13.41,0,0,0,5.63-1.19,11,11,0,0,0,3.64-2.39l1.13-1.21,5.57,7.17-.72.72a23.73,23.73,0,0,1-2.08,1.65,25.49,25.49,0,0,1-3.39,2.09,21.56,21.56,0,0,1-4.66,1.61,24.62,24.62,0,0,1-5.9.7,20.17,20.17,0,0,1-14.69-6,20.1,20.1,0,0,1-.08-28.71,19.69,19.69,0,0,1,14.38-6,19.07,19.07,0,0,1,19.52,19.56l-.39,4.36Zm3.37-12.74a10.52,10.52,0,0,0-3.37,5.19h18a8.82,8.82,0,0,0-3-5.15,8.54,8.54,0,0,0-5.78-2A8.81,8.81,0,0,0,205.35,153.46Z" fill="#fff"/><rect x="255.38" y="143.06" width="10.79" height="39.11" fill="#fff"/><path d="M287.68,147.86a18.36,18.36,0,0,1,1.32-1.54,16.52,16.52,0,0,1,3.76-2.48,12.73,12.73,0,0,1,6.1-1.56,14.12,14.12,0,0,1,10.93,4.64q4.21,4.64,4.22,12.51v22.75H303.26V160.63a8,8,0,0,0-2.12-5.78,7.27,7.27,0,0,0-5.48-2.2,7.47,7.47,0,0,0-5.82,2.39q-2.16,2.4-2.16,6.8v20.34H276.93V143.06h10.75Z" fill="#fff"/><path d="M329.17,131.53h9.58v12.35h7.95v9.58h-7.95V169a4.15,4.15,0,0,0,1.34,3.11,4.74,4.74,0,0,0,3.41,1.29,10,10,0,0,0,2.05-.21,8.72,8.72,0,0,0,1.5-.45l.46-.16v9.2a19.72,19.72,0,0,1-7.2,1.16Q328,183,328,169.4V153.46h-6.78v-9.58h3.58a4,4,0,0,0,3.12-1.44,5.4,5.4,0,0,0,1.29-3.74Z" fill="#fff"/><path d="M362.24,166.2a9,9,0,0,0,3.39,5.4,10.83,10.83,0,0,0,7,2.2,13.37,13.37,0,0,0,5.63-1.19,10.89,10.89,0,0,0,3.64-2.39L383,169l5.57,7.17-.72.72a22.22,22.22,0,0,1-2.08,1.65,25.49,25.49,0,0,1-3.39,2.09,21.37,21.37,0,0,1-4.66,1.61,24.5,24.5,0,0,1-5.9.7,20.14,20.14,0,0,1-14.68-6,20.08,20.08,0,0,1-.08-28.71,19.66,19.66,0,0,1,14.37-6A19.07,19.07,0,0,1,391,161.84l-.39,4.36Zm3.37-12.74a10.58,10.58,0,0,0-3.37,5.19h18a8.93,8.93,0,0,0-3-5.15,8.57,8.57,0,0,0-5.79-2A8.85,8.85,0,0,0,365.61,153.46Z" fill="#fff"/><path d="M422.46,153.46a12.85,12.85,0,0,0-3.58-.42,8.69,8.69,0,0,0-6.72,2.68q-2.48,2.7-2.47,7.72v18.74H398.94V143.06h10.75v4.8c.31-.37.75-.84,1.32-1.43a15.91,15.91,0,0,1,3.76-2.31,13.45,13.45,0,0,1,6.1-1.45h1.59Z" fill="#fff"/><path d="M439.18,147.86a18.36,18.36,0,0,1,1.32-1.54,16.52,16.52,0,0,1,3.76-2.48,12.73,12.73,0,0,1,6.1-1.56,14.1,14.1,0,0,1,10.92,4.64q4.23,4.64,4.23,12.51v22.75H454.76V160.63a8,8,0,0,0-2.12-5.78,7.27,7.27,0,0,0-5.48-2.2,7.47,7.47,0,0,0-5.82,2.39q-2.16,2.4-2.16,6.8v20.34H428.42V143.06h10.76Z" fill="#fff"/><path d="M484.64,166.2a8.92,8.92,0,0,0,3.39,5.4,10.83,10.83,0,0,0,7,2.2,13.37,13.37,0,0,0,5.63-1.19,10.89,10.89,0,0,0,3.64-2.39L505.4,169l5.57,7.17-.72.72a22.22,22.22,0,0,1-2.08,1.65,25.49,25.49,0,0,1-3.39,2.09,21.56,21.56,0,0,1-4.66,1.61,24.56,24.56,0,0,1-5.9.7,20.14,20.14,0,0,1-14.68-6,20.08,20.08,0,0,1-.08-28.71,19.66,19.66,0,0,1,14.37-6,19.07,19.07,0,0,1,19.52,19.56L513,166.2ZM488,153.46a10.58,10.58,0,0,0-3.37,5.19h18a8.93,8.93,0,0,0-3-5.15,8.57,8.57,0,0,0-5.79-2A8.83,8.83,0,0,0,488,153.46Z" fill="#fff"/><path d="M526.13,131.53h9.58v12.35h7.95v9.58h-7.95V169a4.15,4.15,0,0,0,1.34,3.11,4.74,4.74,0,0,0,3.41,1.29,10,10,0,0,0,2-.21,8.72,8.72,0,0,0,1.5-.45l.46-.16v9.2a19.72,19.72,0,0,1-7.2,1.16q-12.36,0-12.35-13.55V153.46h-6.78v-9.58h3.58a4,4,0,0,0,3.12-1.44,5.4,5.4,0,0,0,1.29-3.74Z" fill="#fff"/><path d="M578.72,166.2a9,9,0,0,0,3.38,5.4,10.85,10.85,0,0,0,7,2.2,13.41,13.41,0,0,0,5.63-1.19,11,11,0,0,0,3.64-2.39l1.13-1.21,5.57,7.17-.72.72a23.73,23.73,0,0,1-2.08,1.65,25.49,25.49,0,0,1-3.39,2.09,21.56,21.56,0,0,1-4.66,1.61,24.62,24.62,0,0,1-5.9.7,20.17,20.17,0,0,1-14.69-6,20.1,20.1,0,0,1-.08-28.71,19.69,19.69,0,0,1,14.38-6,19.07,19.07,0,0,1,19.52,19.56L607,166.2Zm3.37-12.74a10.58,10.58,0,0,0-3.37,5.19h17.95a8.82,8.82,0,0,0-3-5.15,8.56,8.56,0,0,0-5.78-2A8.81,8.81,0,0,0,582.09,153.46Z" fill="#fff"/><path d="M619.27,148.38a20.64,20.64,0,0,1,14.88-6.1,19.61,19.61,0,0,1,5.78.84,17.25,17.25,0,0,1,4.5,2,29.42,29.42,0,0,1,3.12,2.32,13.1,13.1,0,0,1,2,2l.58.82-6.78,6.78a10.27,10.27,0,0,0-1-1.44,12.49,12.49,0,0,0-3.12-2.32,9.67,9.67,0,0,0-5-1.42,9.81,9.81,0,0,0-7.3,3.15,11,11,0,0,0,0,15.23,9.81,9.81,0,0,0,7.28,3.16,10.44,10.44,0,0,0,5-1.29,11.88,11.88,0,0,0,3.49-2.57l1.05-1.32,6.39,6.78-.64.87a14.83,14.83,0,0,1-1.89,1.91,20.51,20.51,0,0,1-3.19,2.38,21.71,21.71,0,0,1-4.46,1.91,19.1,19.1,0,0,1-5.79.87,20.63,20.63,0,0,1-14.88-6.09,19.31,19.31,0,0,1,0-28.48Z" fill="#fff"/><path d="M690.19,176.86a20.45,20.45,0,0,1-29.12,0,19.45,19.45,0,0,1,0-28.48,20.43,20.43,0,0,1,29.12,0,19.52,19.52,0,0,1,0,28.48ZM668.9,170a9.11,9.11,0,0,0,13.48,0,11,11,0,0,0,0-14.74,9.07,9.07,0,0,0-13.48,0,11,11,0,0,0,0,14.74Z" fill="#fff"/><path d="M715.1,147.86a18.36,18.36,0,0,1,1.32-1.54,16.77,16.77,0,0,1,3.76-2.48,12.73,12.73,0,0,1,6.1-1.56,14.12,14.12,0,0,1,10.93,4.64q4.21,4.64,4.22,12.51v22.75H730.68V160.63a8,8,0,0,0-2.12-5.78,7.26,7.26,0,0,0-5.47-2.2,7.47,7.47,0,0,0-5.83,2.39q-2.16,2.4-2.16,6.8v20.34H704.35V143.06H715.1Z" fill="#fff"/><path d="M784.69,176.86a20.45,20.45,0,0,1-29.12,0,19.47,19.47,0,0,1,0-28.48,20.43,20.43,0,0,1,29.12,0,19.5,19.5,0,0,1,0,28.48ZM763.4,170a9.11,9.11,0,0,0,13.48,0,11,11,0,0,0,0-14.74,9.07,9.07,0,0,0-13.48,0,11,11,0,0,0,0,14.74Z" fill="#fff"/><path d="M847.51,160.63a8.84,8.84,0,0,0-1.79-5.86,5.74,5.74,0,0,0-4.6-2.12,6.4,6.4,0,0,0-5.14,2.43,10.27,10.27,0,0,0-2,6.76v20.34H823.2V160.63a8.74,8.74,0,0,0-1.81-5.86,5.74,5.74,0,0,0-4.58-2.12,6.46,6.46,0,0,0-5.16,2.43,10.22,10.22,0,0,0-2,6.76v20.34H798.85V143.06h10.76v4.8a12,12,0,0,1,1.2-1.54,16.14,16.14,0,0,1,3.49-2.48,11.12,11.12,0,0,1,5.71-1.56,12.56,12.56,0,0,1,4.32.73,11.16,11.16,0,0,1,3.23,1.67,16.54,16.54,0,0,1,2.09,1.95,7,7,0,0,1,1.19,1.73l.31.7c.1-.15.28-.39.52-.72a16.7,16.7,0,0,1,1.6-1.63,19.31,19.31,0,0,1,2.63-2.07,16.75,16.75,0,0,1,8.42-2.36,12.8,12.8,0,0,1,10.22,4.35q3.76,4.34,3.76,12.8v22.75H847.51Z" fill="#fff"/><path d="M879,181.79l-15.15-38.73h11.18L884.21,169l9.19-25.95h11.14L889,184.55q-5.34,14.37-15.16,14.38a19.12,19.12,0,0,1-3.46-.32,14.61,14.61,0,0,1-2.54-.62l-.77-.27v-9.55a9,9,0,0,0,4,.78,6.82,6.82,0,0,0,6.78-4.4Z" fill="#fff"/><circle id="grn-bk" cx="260.78" cy="131.9" r="6" fill="#3dae2b"/><circle id="prp-bk" cx="538" cy="36" r="6" fill="#753bbd"/><circle id="ylw-bk" cx="589" cy="36" r="6" fill="#faa21b"/><circle id="red-bk" cx="810.77" cy="36" r="6" fill="#e0195b"/><circle id="prp-frnt" cx="538" cy="36" r="6" fill="#753bbd"/><circle id="ylw-frnt" cx="589" cy="36" r="6" fill="#faa21b"/><circle id="red-frnt" cx="810.77" cy="36" r="6" fill="#e0195b"/><circle id="grn-frnt" cx="260.78" cy="131.9" r="6" fill="#3dae2b"/><path d="M52.59,211.61a10.74,10.74,0,1,1,0,21.48,10.74,10.74,0,1,1,0-21.48Zm0,18.49a7.76,7.76,0,1,0-7.76-7.75A7.7,7.7,0,0,0,52.59,230.1Z" fill="#002a68"/><path d="M77.49,231.29a6.23,6.23,0,0,1-4.32,1.8c-3.43,0-5.82-2.39-5.82-6.27v-8.35h3v8.35a3.41,3.41,0,0,0,3.43,3.58c2.24,0,3.73-1.49,3.73-4.18v-7.75h3v14.32h-3Z" fill="#002a68"/><path d="M91.51,220.85c-2.24,0-3.73,1.5-3.73,4.18v7.76h-3V218.47h3V220a6.26,6.26,0,0,1,4.33-1.79h.74V221A6,6,0,0,0,91.51,220.85Z" fill="#002a68"/><path d="M119.7,224.43c0-2.38-1.19-3.58-3-3.58s-3.28,1.5-3.28,4.18v7.76h-3v-8.36c0-2.38-1.19-3.58-3-3.58s-3.28,1.5-3.28,4.18v7.76h-3V218.47h3V220a5.45,5.45,0,0,1,3.88-1.79,4.83,4.83,0,0,1,4.32,2.39,6.19,6.19,0,0,1,4.92-2.39c3.29,0,5.37,2.09,5.37,6.26v8.36h-3Z" fill="#002a68"/><path d="M128.5,215.78a1.79,1.79,0,1,1,1.79-1.79A1.72,1.72,0,0,1,128.5,215.78Zm1.49,17h-3V218.47h3Z" fill="#002a68"/><path d="M141.47,222.05a3.83,3.83,0,0,0-2.68-1.2c-1.34,0-2.09.75-2.09,1.5,0,2.68,7.31,1.19,7.31,6.26,0,2.39-2.09,4.48-5.37,4.48a6.92,6.92,0,0,1-5.52-2.54l1.94-1.94a4.83,4.83,0,0,0,3.58,1.79c1.64,0,2.39-.75,2.39-1.79,0-2.68-7.31-1.19-7.31-6.26,0-2.09,2.09-4.18,5.07-4.18a5.94,5.94,0,0,1,4.62,1.94Z" fill="#002a68"/><path d="M154.45,222.05a3.83,3.83,0,0,0-2.68-1.2c-1.35,0-2.09.75-2.09,1.5,0,2.68,7.31,1.19,7.31,6.26,0,2.39-2.09,4.48-5.37,4.48a6.92,6.92,0,0,1-5.52-2.54l1.94-1.94a4.83,4.83,0,0,0,3.58,1.79c1.64,0,2.38-.75,2.38-1.79,0-2.68-7.31-1.19-7.31-6.26,0-2.09,2.09-4.18,5.08-4.18a5.94,5.94,0,0,1,4.62,1.94Z" fill="#002a68"/><path d="M161.91,215.78A1.79,1.79,0,1,1,163.7,214,1.72,1.72,0,0,1,161.91,215.78Zm1.49,17h-3V218.47h3Z" fill="#002a68"/><path d="M174.29,218.17a7.46,7.46,0,1,1-7.46,7.46A7.58,7.58,0,0,1,174.29,218.17Zm0,2.68a4.79,4.79,0,1,0,4.47,4.78A4.66,4.66,0,0,0,174.29,220.85Z" fill="#002a68"/><path d="M188,220a6.25,6.25,0,0,1,4.32-1.79c3.43,0,5.82,2.39,5.82,6.26v8.36h-3v-8.36a3.42,3.42,0,0,0-3.43-3.58c-2.24,0-3.73,1.5-3.73,4.18v7.76h-3V218.47h3Z" fill="#002a68"/><path d="M209.93,215.78a1.79,1.79,0,1,1,1.79-1.79A1.72,1.72,0,0,1,209.93,215.78Zm1.49,17h-3V218.47h3Z" fill="#002a68"/><path d="M222.91,222.05a3.87,3.87,0,0,0-2.69-1.2c-1.34,0-2.09.75-2.09,1.5,0,2.68,7.31,1.19,7.31,6.26,0,2.39-2.09,4.48-5.37,4.48a6.92,6.92,0,0,1-5.52-2.54l1.94-1.94a4.85,4.85,0,0,0,3.58,1.79c1.64,0,2.39-.75,2.39-1.79,0-2.68-7.31-1.19-7.31-6.26,0-2.09,2.09-4.18,5.07-4.18a6,6,0,0,1,4.63,1.94Z" fill="#002a68"/><path d="M236.48,213.7h2.68v4.77h3v2.68h-3v7.43A1.74,1.74,0,0,0,241,230.4a4.65,4.65,0,0,0,1.5-.3v2.69a7.3,7.3,0,0,1-2.09.3c-2.69,0-4.18-1.5-4.18-4.48v-7.46H233.5v-2.68H235c.89,0,1.49-.6,1.49-1.79Z" fill="#002a68"/><path d="M252,218.17a7.46,7.46,0,1,1-7.46,7.46A7.58,7.58,0,0,1,252,218.17Zm0,2.68a4.79,4.79,0,1,0,4.47,4.78A4.65,4.65,0,0,0,252,220.85Z" fill="#002a68"/><path d="M275.85,221.15h-3.28v11.64h-3V221.15H267.5v-2.68h2.09v-2.39c0-3,1.49-4.47,4.17-4.47a7.21,7.21,0,0,1,2.09.3v2.68a4.55,4.55,0,0,0-1.49-.3,1.74,1.74,0,0,0-1.79,1.82v2.36h3.28Z" fill="#002a68"/><path d="M285.4,218.17a7.46,7.46,0,1,1-7.46,7.46A7.58,7.58,0,0,1,285.4,218.17Zm0,2.68a4.79,4.79,0,1,0,4.47,4.78A4.66,4.66,0,0,0,285.4,220.85Z" fill="#002a68"/><path d="M303.3,222.05a3.87,3.87,0,0,0-2.69-1.2c-1.34,0-2.09.75-2.09,1.5,0,2.68,7.31,1.19,7.31,6.26,0,2.39-2.09,4.48-5.37,4.48a6.92,6.92,0,0,1-5.52-2.54l1.94-1.94a4.83,4.83,0,0,0,3.58,1.79c1.64,0,2.39-.75,2.39-1.79,0-2.68-7.31-1.19-7.31-6.26,0-2.09,2.09-4.18,5.07-4.18a5.94,5.94,0,0,1,4.62,1.94Z" fill="#002a68"/><path d="M310.9,213.7h2.69v4.77h3v2.68h-3v7.43a1.73,1.73,0,0,0,1.79,1.82,4.63,4.63,0,0,0,1.49-.3v2.69a7.3,7.3,0,0,1-2.09.3c-2.69,0-4.18-1.5-4.18-4.48v-7.46h-2.68v-2.68h1.49c.89,0,1.49-.6,1.49-1.79Z" fill="#002a68"/><path d="M321.94,226.67a4.53,4.53,0,0,0,4.47,3.73,5.48,5.48,0,0,0,4.33-2.24l1.94,1.94a8.28,8.28,0,0,1-6.27,3,7.61,7.61,0,0,1-7.45-7.61,7.32,7.32,0,0,1,7.3-7.31,6.82,6.82,0,0,1,7,7,6.65,6.65,0,0,1-.15,1.49Zm.12-2.53h8.29a4,4,0,0,0-4.09-3.43A4.24,4.24,0,0,0,322.06,224.14Z" fill="#002a68"/><path d="M343.27,220.85c-2.24,0-3.73,1.5-3.73,4.18v7.76h-3V218.47h3V220a6.25,6.25,0,0,1,4.32-1.79h.75V221A6.15,6.15,0,0,0,343.27,220.85Z" fill="#002a68"/><path d="M354.6,215.78a1.79,1.79,0,1,1,1.79-1.79A1.72,1.72,0,0,1,354.6,215.78Zm1.49,17h-3V218.47h3Z" fill="#002a68"/><path d="M363.4,220a6.26,6.26,0,0,1,4.33-1.79c3.43,0,5.81,2.39,5.81,6.26v8.36h-3v-8.36a3.42,3.42,0,0,0-3.43-3.58c-2.24,0-3.73,1.5-3.73,4.18v7.76h-3V218.47h3Z" fill="#002a68"/><path d="M380.7,220a6.26,6.26,0,0,1,4.33-1.79c3.43,0,5.81,2.39,5.81,6.26v8.36h-3v-8.36a3.42,3.42,0,0,0-3.43-3.58c-2.24,0-3.73,1.5-3.73,4.18v7.76h-3V218.47h3Z" fill="#002a68"/><path d="M401.58,218.17a7.46,7.46,0,1,1-7.46,7.46A7.58,7.58,0,0,1,401.58,218.17Zm0,2.68a4.78,4.78,0,1,0,4.48,4.78A4.65,4.65,0,0,0,401.58,220.85Z" fill="#002a68"/><path d="M416.35,232.79l-5.82-14.32h3.13l4.18,10.44L422,218.47h3.14l-5.82,14.32Z" fill="#002a68"/><path d="M436,232.79v-1.5a6.23,6.23,0,0,1-4.32,1.8c-3,0-5.07-2.09-5.07-4.18,0-2.39,1.64-4,4.17-4.48l5.22-.89a2.76,2.76,0,0,0-3-2.69,4.51,4.51,0,0,0-3.73,1.94l-1.94-1.94a7.3,7.3,0,0,1,5.67-2.68c3.58,0,6,2.39,6,5.37v9.25Zm0-6.57v-.29l-4.62.74a2,2,0,0,0-1.79,1.94c0,.9.89,1.79,2.54,1.79C434.54,230.4,436,228.91,436,226.22Z" fill="#002a68"/><path d="M445,213.7h2.69v4.77h3v2.68h-3v7.43a1.73,1.73,0,0,0,1.79,1.82,4.63,4.63,0,0,0,1.49-.3v2.69a7.3,7.3,0,0,1-2.09.3c-2.69,0-4.18-1.5-4.18-4.48v-7.46H442v-2.68h1.49c.89,0,1.49-.6,1.49-1.79Z" fill="#002a68"/><path d="M456.17,215.78A1.79,1.79,0,1,1,458,214,1.72,1.72,0,0,1,456.17,215.78Zm1.49,17h-3V218.47h3Z" fill="#002a68"/><path d="M468.55,218.17a7.46,7.46,0,1,1-7.46,7.46A7.58,7.58,0,0,1,468.55,218.17Zm0,2.68a4.79,4.79,0,1,0,4.47,4.78A4.66,4.66,0,0,0,468.55,220.85Z" fill="#002a68"/><path d="M482.27,220a6.25,6.25,0,0,1,4.32-1.79c3.43,0,5.82,2.39,5.82,6.26v8.36h-3v-8.36a3.42,3.42,0,0,0-3.43-3.58c-2.24,0-3.73,1.5-3.73,4.18v7.76h-3V218.47h3Z" fill="#002a68"/><path d="M500.31,230.7l-3.73,6-1.93-1,3-6.41Z" fill="#002a68"/><path d="M512.69,231.15v7.9h-3V218.47h3v1.64a6.76,6.76,0,0,1,4.63-1.94,7.47,7.47,0,0,1,0,14.92A6.76,6.76,0,0,1,512.69,231.15Zm0-5.52a4.35,4.35,0,1,0,4.33-4.78A4.64,4.64,0,0,0,512.69,225.63Z" fill="#002a68"/><path d="M534.32,220.85c-2.24,0-3.73,1.5-3.73,4.18v7.76h-3V218.47h3V220a6.26,6.26,0,0,1,4.33-1.79h.74V221A6.15,6.15,0,0,0,534.32,220.85Z" fill="#002a68"/><path d="M544.61,218.17a7.46,7.46,0,1,1-7.46,7.46A7.58,7.58,0,0,1,544.61,218.17Zm0,2.68a4.79,4.79,0,1,0,4.47,4.78A4.66,4.66,0,0,0,544.61,220.85Z" fill="#002a68"/><path d="M573.84,224.43c0-2.38-1.19-3.58-3-3.58s-3.28,1.5-3.28,4.18v7.76h-3v-8.36c0-2.38-1.19-3.58-3-3.58s-3.28,1.5-3.28,4.18v7.76h-3V218.47h3V220a5.45,5.45,0,0,1,3.88-1.79,4.83,4.83,0,0,1,4.32,2.39,6.2,6.2,0,0,1,4.93-2.39c3.28,0,5.37,2.09,5.37,6.26v8.36h-3Z" fill="#002a68"/><path d="M587.56,218.17a7.46,7.46,0,1,1-7.46,7.46A7.58,7.58,0,0,1,587.56,218.17Zm0,2.68a4.78,4.78,0,1,0,4.48,4.78A4.66,4.66,0,0,0,587.56,220.85Z" fill="#002a68"/><path d="M600.09,213.7h2.68v4.77h3v2.68h-3v7.43a1.74,1.74,0,0,0,1.79,1.82,4.65,4.65,0,0,0,1.5-.3v2.69a7.3,7.3,0,0,1-2.09.3c-2.69,0-4.18-1.5-4.18-4.48v-7.46h-2.68v-2.68h1.49c.89,0,1.49-.6,1.49-1.79Z" fill="#002a68"/><path d="M611.13,226.67a4.51,4.51,0,0,0,4.47,3.73,5.48,5.48,0,0,0,4.33-2.24l1.94,1.94a8.28,8.28,0,0,1-6.27,3,7.62,7.62,0,0,1-7.46-7.61,7.32,7.32,0,0,1,7.31-7.31,6.82,6.82,0,0,1,7,7,6.65,6.65,0,0,1-.15,1.49Zm.12-2.53h8.29a4,4,0,0,0-4.09-3.43A4.23,4.23,0,0,0,611.25,224.14Z" fill="#002a68"/><path d="M633.8,226.67a4.51,4.51,0,0,0,4.47,3.73,5.48,5.48,0,0,0,4.33-2.24l1.94,1.94a8.28,8.28,0,0,1-6.27,3,7.62,7.62,0,0,1-7.46-7.61,7.32,7.32,0,0,1,7.31-7.31,6.82,6.82,0,0,1,7,7,6.65,6.65,0,0,1-.15,1.49Zm.12-2.53h8.29a4,4,0,0,0-4.09-3.43A4.23,4.23,0,0,0,633.92,224.14Z" fill="#002a68"/><path d="M655,218.17a7.67,7.67,0,0,1,5.81,2.83l-1.94,1.94a4.89,4.89,0,0,0-3.87-2.09,4.78,4.78,0,0,0,0,9.55,5.29,5.29,0,0,0,4-2.24l1.94,1.94a8.05,8.05,0,0,1-6,3,7.46,7.46,0,0,1,0-14.92Z" fill="#002a68"/><path d="M670.49,218.17a7.46,7.46,0,1,1-7.46,7.46A7.58,7.58,0,0,1,670.49,218.17Zm0,2.68a4.79,4.79,0,1,0,4.47,4.78A4.66,4.66,0,0,0,670.49,220.85Z" fill="#002a68"/><path d="M684.21,220a6.25,6.25,0,0,1,4.32-1.79c3.43,0,5.82,2.39,5.82,6.26v8.36h-3v-8.36a3.42,3.42,0,0,0-3.43-3.58c-2.24,0-3.73,1.5-3.73,4.18v7.76h-3V218.47h3Z" fill="#002a68"/><path d="M705.09,218.17a7.46,7.46,0,1,1-7.46,7.46A7.58,7.58,0,0,1,705.09,218.17Zm0,2.68a4.79,4.79,0,1,0,4.47,4.78A4.66,4.66,0,0,0,705.09,220.85Z" fill="#002a68"/><path d="M734.32,224.43c0-2.38-1.19-3.58-3-3.58s-3.28,1.5-3.28,4.18v7.76h-3v-8.36c0-2.38-1.19-3.58-3-3.58s-3.28,1.5-3.28,4.18v7.76h-3V218.47h3V220a5.45,5.45,0,0,1,3.88-1.79,4.83,4.83,0,0,1,4.32,2.39,6.19,6.19,0,0,1,4.92-2.39c3.28,0,5.37,2.09,5.37,6.26v8.36h-3Z" fill="#002a68"/><path d="M743.12,215.78a1.79,1.79,0,1,1,1.79-1.79A1.72,1.72,0,0,1,743.12,215.78Zm1.49,17h-3V218.47h3Z" fill="#002a68"/><path d="M755.5,218.17a7.64,7.64,0,0,1,5.81,2.83l-1.93,1.94a4.92,4.92,0,0,0-3.88-2.09,4.78,4.78,0,0,0,0,9.55,5.31,5.31,0,0,0,4-2.24l1.93,1.94a8,8,0,0,1-6,3,7.46,7.46,0,0,1,0-14.92Z" fill="#002a68"/><path d="M780.55,230.7a6.25,6.25,0,0,1-4.32,1.79,7.18,7.18,0,0,1,0-14.32,6.25,6.25,0,0,1,4.32,1.79v-1.49h3v13.42a7.07,7.07,0,0,1-7.16,7.16,8.05,8.05,0,0,1-6.42-3l1.94-1.94a6,6,0,0,0,4.48,2.24,4.15,4.15,0,0,0,4.17-4.45Zm-4-.9a4.5,4.5,0,1,0-4-4.47A4.3,4.3,0,0,0,776.53,229.8Z" fill="#002a68"/><path d="M794.42,220.85c-2.23,0-3.72,1.5-3.72,4.18v7.76h-3V218.47h3V220a6.25,6.25,0,0,1,4.32-1.79h.75V221A6.19,6.19,0,0,0,794.42,220.85Z" fill="#002a68"/><path d="M804.71,218.17a7.46,7.46,0,1,1-7.45,7.46A7.58,7.58,0,0,1,804.71,218.17Zm0,2.68a4.78,4.78,0,1,0,4.48,4.78A4.66,4.66,0,0,0,804.71,220.85Z" fill="#002a68"/><path d="M826,218.47l3.28,9.84,3.29-9.84h3.13l-4.92,14.32H828l-3.28-9.55-3.28,9.55h-2.84l-4.92-14.32h3.13l3.29,9.84,3.28-9.84Z" fill="#002a68"/><path d="M839.91,213.7h2.69v4.77h3v2.68h-3v7.43a1.73,1.73,0,0,0,1.79,1.82,4.63,4.63,0,0,0,1.49-.3v2.69a7.3,7.3,0,0,1-2.09.3c-2.68,0-4.18-1.5-4.18-4.48v-7.46h-2.68v-2.68h1.49c.9,0,1.49-.6,1.49-1.79Z" fill="#002a68"/><path d="M852.74,220a6.25,6.25,0,0,1,4.32-1.79c3.44,0,5.82,2.39,5.82,6.26v8.36h-3v-8.36a3.42,3.42,0,0,0-3.43-3.58c-2.24,0-3.73,1.5-3.73,4.18v7.76h-3V211.91h3Z" fill="#002a68"/><path d="M870.79,230.7l-3.73,6-1.94-1,3-6.41Z" fill="#002a68"/><path d="M87.26,268.58v-1.49a6.26,6.26,0,0,1-4.33,1.79c-3,0-5.07-2.09-5.07-4.18,0-2.38,1.64-4,4.18-4.47l5.22-.9a2.75,2.75,0,0,0-3-2.68,4.51,4.51,0,0,0-3.73,1.94l-1.94-1.94A7.29,7.29,0,0,1,84.28,254c3.58,0,6,2.39,6,5.37v9.25Zm0-6.56v-.3l-4.62.75a2,2,0,0,0-1.79,1.94c0,.89.89,1.79,2.53,1.79C85.77,266.2,87.26,264.7,87.26,262Z" fill="#002a68"/><path d="M97.4,255.75a6.26,6.26,0,0,1,4.33-1.79c3.43,0,5.81,2.39,5.81,6.27v8.35h-3v-8.35a3.41,3.41,0,0,0-3.43-3.58c-2.24,0-3.73,1.49-3.73,4.18v7.75h-3V254.26h3Z" fill="#002a68"/><path d="M122.46,255.9v-8.2h3v20.88h-3v-1.64a6.76,6.76,0,0,1-4.63,1.94,7.47,7.47,0,0,1,0-14.92A6.76,6.76,0,0,1,122.46,255.9Zm0,5.52a4.35,4.35,0,1,0-4.33,4.78A4.64,4.64,0,0,0,122.46,261.42Z" fill="#002a68"/><path d="M138,262.47a4.53,4.53,0,0,0,4.47,3.73,5.48,5.48,0,0,0,4.33-2.24l1.94,1.94a8.29,8.29,0,0,1-6.27,3,7.61,7.61,0,0,1-7.45-7.61,7.32,7.32,0,0,1,7.3-7.31,6.82,6.82,0,0,1,7,7,7.27,7.27,0,0,1-.14,1.5Zm.12-2.54h8.29a4,4,0,0,0-4.09-3.43A4.24,4.24,0,0,0,138.09,259.93Z" fill="#002a68"/><path d="M171.08,260.23c0-2.39-1.19-3.58-3-3.58s-3.28,1.49-3.28,4.18v7.75h-3v-8.35c0-2.39-1.19-3.58-3-3.58s-3.28,1.49-3.28,4.18v7.75h-3V254.26h3v1.49a5.45,5.45,0,0,1,3.88-1.79,4.83,4.83,0,0,1,4.32,2.39,6.19,6.19,0,0,1,4.92-2.39c3.28,0,5.37,2.09,5.37,6.27v8.35h-3Z" fill="#002a68"/><path d="M181.22,266.94v7.91h-3V254.26h3v1.64a6.75,6.75,0,0,1,4.62-1.94,7.47,7.47,0,0,1,0,14.92A6.75,6.75,0,0,1,181.22,266.94Zm0-5.52a4.35,4.35,0,1,0,4.33-4.77A4.64,4.64,0,0,0,181.22,261.42Z" fill="#002a68"/><path d="M202.7,254a7.46,7.46,0,1,1-7.46,7.46A7.58,7.58,0,0,1,202.7,254Zm0,2.69a4.79,4.79,0,1,0,4.47,4.77A4.66,4.66,0,0,0,202.7,256.65Z" fill="#002a68"/><path d="M224,254.26l3.29,9.85,3.28-9.85h3.13l-4.92,14.32H226L222.68,259l-3.28,9.54h-2.83l-4.92-14.32h3.13l3.28,9.85,3.28-9.85Z" fill="#002a68"/><path d="M238.19,262.47a4.53,4.53,0,0,0,4.48,3.73A5.48,5.48,0,0,0,247,264l1.94,1.94a8.26,8.26,0,0,1-6.26,3,7.61,7.61,0,0,1-7.46-7.61,7.33,7.33,0,0,1,7.31-7.31,7.06,7.06,0,0,1,6.86,8.51Zm.12-2.54h8.3a4,4,0,0,0-4.09-3.43A4.25,4.25,0,0,0,238.31,259.93Z" fill="#002a68"/><path d="M259.52,256.65c-2.24,0-3.73,1.49-3.73,4.18v7.75h-3V254.26h3v1.49a6.26,6.26,0,0,1,4.33-1.79h.74v2.84A6,6,0,0,0,259.52,256.65Z" fill="#002a68"/><path d="M272.2,266.94v7.91h-3V254.26h3v1.64a6.75,6.75,0,0,1,4.62-1.94,7.47,7.47,0,0,1,0,14.92A6.75,6.75,0,0,1,272.2,266.94Zm0-5.52a4.35,4.35,0,1,0,4.32-4.77A4.64,4.64,0,0,0,272.2,261.42Z" fill="#002a68"/><path d="M289.2,262.47a4.53,4.53,0,0,0,4.47,3.73A5.48,5.48,0,0,0,298,264l1.94,1.94a8.29,8.29,0,0,1-6.27,3,7.61,7.61,0,0,1-7.45-7.61,7.33,7.33,0,0,1,7.31-7.31,7.06,7.06,0,0,1,6.86,8.51Zm.12-2.54h8.29a4,4,0,0,0-4.08-3.43A4.25,4.25,0,0,0,289.32,259.93Z" fill="#002a68"/><path d="M310.38,254a7.46,7.46,0,1,1-7.46,7.46A7.59,7.59,0,0,1,310.38,254Zm0,2.69a4.79,4.79,0,1,0,4.47,4.77A4.66,4.66,0,0,0,310.38,256.65Z" fill="#002a68"/><path d="M324.1,266.94v7.91h-3V254.26h3v1.64a6.75,6.75,0,0,1,4.62-1.94,7.47,7.47,0,0,1,0,14.92A6.75,6.75,0,0,1,324.1,266.94Zm0-5.52a4.35,4.35,0,1,0,4.33-4.77A4.64,4.64,0,0,0,324.1,261.42Z" fill="#002a68"/><path d="M342.3,268.58h-3V247.7h3Z" fill="#002a68"/><path d="M348.86,262.47a4.53,4.53,0,0,0,4.47,3.73,5.48,5.48,0,0,0,4.33-2.24l1.94,1.94a8.29,8.29,0,0,1-6.27,3,7.61,7.61,0,0,1-7.45-7.61,7.32,7.32,0,0,1,7.3-7.31,7.06,7.06,0,0,1,6.86,8.51Zm.12-2.54h8.29a4,4,0,0,0-4.09-3.43A4.24,4.24,0,0,0,349,259.93Z" fill="#002a68"/><path d="M371.23,249.49h2.68v4.77h3V257h-3v7.43a1.74,1.74,0,0,0,1.79,1.82,4.65,4.65,0,0,0,1.5-.3v2.68a7.3,7.3,0,0,1-2.09.3c-2.69,0-4.18-1.49-4.18-4.47V257h-2.68v-2.69h1.49c.89,0,1.49-.59,1.49-1.79Z" fill="#002a68"/><path d="M384.06,255.75a6.25,6.25,0,0,1,4.32-1.79c3.43,0,5.82,2.39,5.82,6.27v8.35h-3v-8.35a3.41,3.41,0,0,0-3.43-3.58c-2.23,0-3.72,1.49-3.72,4.18v7.75h-3V247.7h3Z" fill="#002a68"/><path d="M405.08,256.65c-2.23,0-3.72,1.49-3.72,4.18v7.75h-3V254.26h3v1.49a6.25,6.25,0,0,1,4.32-1.79h.75v2.84A6.19,6.19,0,0,0,405.08,256.65Z" fill="#002a68"/><path d="M415.38,254a7.46,7.46,0,1,1-7.46,7.46A7.58,7.58,0,0,1,415.38,254Zm0,2.69a4.79,4.79,0,1,0,4.47,4.77A4.66,4.66,0,0,0,415.38,256.65Z" fill="#002a68"/><path d="M436.26,267.09a6.26,6.26,0,0,1-4.33,1.79c-3.43,0-5.82-2.39-5.82-6.26v-8.36h3v8.36a3.42,3.42,0,0,0,3.43,3.58c2.23,0,3.73-1.5,3.73-4.18v-7.76h3v14.32h-3Z" fill="#002a68"/><path d="M453.71,266.49a6.26,6.26,0,0,1-4.33,1.79,7.18,7.18,0,0,1,0-14.32,6.26,6.26,0,0,1,4.33,1.79v-1.49h3v13.43a7.07,7.07,0,0,1-7.16,7.16,8,8,0,0,1-6.41-3l1.94-1.94a5.94,5.94,0,0,0,4.47,2.24,4.15,4.15,0,0,0,4.18-4.44Zm-4-.89a4.5,4.5,0,1,0-4-4.48A4.32,4.32,0,0,0,449.68,265.6Z" fill="#002a68"/><path d="M464.15,255.75a6.25,6.25,0,0,1,4.32-1.79c3.43,0,5.82,2.39,5.82,6.27v8.35h-3v-8.35a3.41,3.41,0,0,0-3.43-3.58c-2.23,0-3.72,1.49-3.72,4.18v7.75h-3V247.7h3Z" fill="#002a68"/><path d="M486.22,249.49h2.68v4.77h3V257h-3v7.43a1.74,1.74,0,0,0,1.79,1.82,4.55,4.55,0,0,0,1.49-.3v2.68a7.18,7.18,0,0,1-2.08.3c-2.69,0-4.18-1.49-4.18-4.47V257h-2.68v-2.69h1.49c.89,0,1.49-.59,1.49-1.79Z" fill="#002a68"/><path d="M499,255.75a6.28,6.28,0,0,1,4.33-1.79c3.43,0,5.82,2.39,5.82,6.27v8.35h-3v-8.35a3.42,3.42,0,0,0-3.44-3.58c-2.23,0-3.73,1.49-3.73,4.18v7.75h-3V247.7h3Z" fill="#002a68"/><path d="M515.45,262.47a4.53,4.53,0,0,0,4.48,3.73,5.48,5.48,0,0,0,4.32-2.24l1.94,1.94a8.28,8.28,0,0,1-6.26,3,7.61,7.61,0,0,1-7.46-7.61,7.33,7.33,0,0,1,7.31-7.31,7.06,7.06,0,0,1,6.86,8.51Zm.12-2.54h8.29a4,4,0,0,0-4.08-3.43A4.25,4.25,0,0,0,515.57,259.93Z" fill="#002a68"/><path d="M543.19,257h-3.28v11.63h-3V257h-2.09v-2.69h2.09v-2.38c0-3,1.49-4.48,4.17-4.48a7.21,7.21,0,0,1,2.09.3v2.68a4.69,4.69,0,0,0-1.49-.29,1.73,1.73,0,0,0-1.79,1.82v2.35h3.28Z" fill="#002a68"/><path d="M552.89,256.65c-2.24,0-3.73,1.49-3.73,4.18v7.75h-3V254.26h3v1.49a6.25,6.25,0,0,1,4.32-1.79h.75v2.84A6.15,6.15,0,0,0,552.89,256.65Z" fill="#002a68"/><path d="M558.7,262.47a4.53,4.53,0,0,0,4.48,3.73A5.48,5.48,0,0,0,567.5,264l1.94,1.94a8.28,8.28,0,0,1-6.26,3,7.61,7.61,0,0,1-7.46-7.61A7.33,7.33,0,0,1,563,254a7.06,7.06,0,0,1,6.86,8.51Zm.12-2.54h8.3A4,4,0,0,0,563,256.5,4.25,4.25,0,0,0,558.82,259.93Z" fill="#002a68"/><path d="M575.41,262.47a4.53,4.53,0,0,0,4.47,3.73,5.51,5.51,0,0,0,4.33-2.24l1.94,1.94a8.29,8.29,0,0,1-6.27,3,7.61,7.61,0,0,1-7.46-7.61,7.33,7.33,0,0,1,7.31-7.31,7.06,7.06,0,0,1,6.86,8.51Zm.12-2.54h8.29a4,4,0,0,0-4.09-3.43A4.24,4.24,0,0,0,575.53,259.93Z" fill="#002a68"/><path d="M604.49,268.58v-1.49a6.25,6.25,0,0,1-4.32,1.79c-3,0-5.08-2.09-5.08-4.18,0-2.38,1.64-4,4.18-4.47l5.22-.9a2.75,2.75,0,0,0-3-2.68,4.51,4.51,0,0,0-3.73,1.94l-1.94-1.94a7.29,7.29,0,0,1,5.67-2.69c3.58,0,6,2.39,6,5.37v9.25Zm0-6.56v-.3l-4.62.75a2,2,0,0,0-1.79,1.94c0,.89.89,1.79,2.53,1.79C603,266.2,604.49,264.7,604.49,262Z" fill="#002a68"/><path d="M614.63,255.75A6.26,6.26,0,0,1,619,254c3.43,0,5.81,2.39,5.81,6.27v8.35h-3v-8.35a3.41,3.41,0,0,0-3.43-3.58c-2.24,0-3.73,1.49-3.73,4.18v7.75h-3V254.26h3Z" fill="#002a68"/><path d="M639.69,255.9v-8.2h3v20.88h-3v-1.64a6.76,6.76,0,0,1-4.63,1.94,7.47,7.47,0,0,1,0-14.92A6.76,6.76,0,0,1,639.69,255.9Zm0,5.52a4.35,4.35,0,1,0-4.33,4.78A4.64,4.64,0,0,0,639.69,261.42Z" fill="#002a68"/><path d="M659.67,254a7.46,7.46,0,1,1-7.45,7.46A7.59,7.59,0,0,1,659.67,254Zm0,2.69a4.78,4.78,0,1,0,4.48,4.77A4.66,4.66,0,0,0,659.67,256.65Z" fill="#002a68"/><path d="M673.39,266.94v7.91h-3V254.26h3v1.64A6.76,6.76,0,0,1,678,254a7.47,7.47,0,0,1,0,14.92A6.76,6.76,0,0,1,673.39,266.94Zm0-5.52a4.35,4.35,0,1,0,4.33-4.77A4.64,4.64,0,0,0,673.39,261.42Z" fill="#002a68"/><path d="M690.4,262.47a4.51,4.51,0,0,0,4.47,3.73A5.48,5.48,0,0,0,699.2,264l1.94,1.94a8.29,8.29,0,0,1-6.27,3,7.61,7.61,0,0,1-7.46-7.61,7.33,7.33,0,0,1,7.31-7.31,7.06,7.06,0,0,1,6.86,8.51Zm.12-2.54h8.29a4,4,0,0,0-4.09-3.43A4.23,4.23,0,0,0,690.52,259.93Z" fill="#002a68"/><path d="M708,255.75a6.25,6.25,0,0,1,4.32-1.79c3.43,0,5.82,2.39,5.82,6.27v8.35h-3v-8.35a3.41,3.41,0,0,0-3.43-3.58c-2.23,0-3.72,1.49-3.72,4.18v7.75h-3V254.26h3Z" fill="#002a68"/><path d="M729.92,251.58a1.79,1.79,0,1,1,1.79-1.79A1.73,1.73,0,0,1,729.92,251.58Zm1.49,17h-3V254.26h3Z" fill="#002a68"/><path d="M738.72,255.75A6.25,6.25,0,0,1,743,254c3.43,0,5.82,2.39,5.82,6.27v8.35h-3v-8.35a3.41,3.41,0,0,0-3.43-3.58c-2.24,0-3.73,1.49-3.73,4.18v7.75h-3V254.26h3Z" fill="#002a68"/><path d="M754.83,249.49h2.68v4.77h3V257h-3v7.43a1.74,1.74,0,0,0,1.79,1.82,4.55,4.55,0,0,0,1.49-.3v2.68a7.21,7.21,0,0,1-2.09.3c-2.68,0-4.17-1.49-4.17-4.47V257h-2.69v-2.69h1.49c.9,0,1.5-.59,1.5-1.79Z" fill="#002a68"/><path d="M765.86,262.47a4.53,4.53,0,0,0,4.48,3.73,5.48,5.48,0,0,0,4.32-2.24l1.94,1.94a8.26,8.26,0,0,1-6.26,3,7.61,7.61,0,0,1-7.46-7.61,7.33,7.33,0,0,1,7.31-7.31,7.06,7.06,0,0,1,6.86,8.51Zm.12-2.54h8.3a4,4,0,0,0-4.09-3.43A4.25,4.25,0,0,0,766,259.93Z" fill="#002a68"/><path d="M787.19,256.65c-2.24,0-3.73,1.49-3.73,4.18v7.75h-3V254.26h3v1.49a6.26,6.26,0,0,1,4.33-1.79h.74v2.84A6,6,0,0,0,787.19,256.65Z" fill="#002a68"/><path d="M793.9,255.75a6.26,6.26,0,0,1,4.33-1.79c3.43,0,5.81,2.39,5.81,6.27v8.35h-3v-8.35a3.41,3.41,0,0,0-3.43-3.58c-2.24,0-3.73,1.49-3.73,4.18v7.75h-3V254.26h3Z" fill="#002a68"/><path d="M810.31,262.47a4.53,4.53,0,0,0,4.47,3.73,5.48,5.48,0,0,0,4.33-2.24l1.94,1.94a8.29,8.29,0,0,1-6.27,3,7.61,7.61,0,0,1-7.45-7.61,7.32,7.32,0,0,1,7.3-7.31,7.06,7.06,0,0,1,6.86,8.51Zm.12-2.54h8.29a4,4,0,0,0-4.09-3.43A4.24,4.24,0,0,0,810.43,259.93Z" fill="#002a68"/><path d="M826.71,249.49h2.69v4.77h3V257h-3v7.43a1.73,1.73,0,0,0,1.79,1.82,4.63,4.63,0,0,0,1.49-.3v2.68a7.21,7.21,0,0,1-2.09.3c-2.68,0-4.17-1.49-4.17-4.47V257h-2.69v-2.69h1.49c.9,0,1.49-.59,1.49-1.79Z" fill="#002a68"/><path d="M837.75,268.88a1.94,1.94,0,1,1,1.94-1.94A2,2,0,0,1,837.75,268.88Z" fill="#002a68"/></svg>