<svg data-name="Layer 1" xmlns="http://www.w3.org/2000/svg" viewBox="0 0 635 635"><g opacity=".95"><path d="M46.17 254.94a1.9 1.9 0 01-1.48-2.23 9.62 9.62 0 00.07-4 10.23 10.23 0 00-1.33-3.71 11 11 0 00-6.43-4.92 1.92 1.92 0 01-1.34-2.37 1.9 1.9 0 012.38-1.3 15.34 15.34 0 018.77 6.8 14.37 14.37 0 011.68 10.41 1.86 1.86 0 01-2.3 1.32" fill="#0e6ffa" opacity=".02"/></g><g opacity=".95"><path d="M61 386.25a1.86 1.86 0 01-2.65-1.1c-1.21-5.42-7.38-8.79-13.48-7.5a2 2 0 01-2-.74 1.93 1.93 0 011.31-3c8.17-1.54 16.33 3 18 10.23a2 2 0 01-1.18 2.11" fill="#0e6ffa" opacity=".02"/></g><g opacity=".95"><path d="M177.71 77a1.83 1.83 0 01.82-2.08 10.84 10.84 0 003.87-14.33 1.88 1.88 0 01.37-2.27 1.92 1.92 0 013 .55 15.15 15.15 0 011.07 11 14.4 14.4 0 01-6.4 8.41 1.94 1.94 0 01-2.73-1.28" fill="#0e6ffa" opacity=".02"/></g><g opacity=".95"><path d="M28.3 304.58l-.36 14.24a1.91 1.91 0 01-1.94 1.91 1.94 1.94 0 01-2-1.91l.36-14.44a1.94 1.94 0 012.07-1.8 1.91 1.91 0 011.82 2" fill="#0e6ffa" opacity=".02"/></g><g opacity=".95"><path d="M28.36 334.8l.82 10.74a1.93 1.93 0 01-1.18 1.92 1.91 1.91 0 01-2.69-1.58L24.48 335a1.84 1.84 0 011.24-1.88 2 2 0 012.64 1.68z" fill="#0e6ffa" opacity=".02"/></g><g opacity=".95"><path d="M56.74 281.78l-1.24 9.69c-.31 3.24-.5 6.49-.77 9.74a1.39 1.39 0 01-.21.68 2.05 2.05 0 01-2.13.84 1.92 1.92 0 01-1.32-.94 1.57 1.57 0 01-.17-.85l.76-9.77 1.24-9.71a1.48 1.48 0 01.25-.67 2 2 0 012.16-.68 1.93 1.93 0 011.43 1.67" fill="#0e6ffa" opacity=".02"/></g><g opacity=".95"><path d="M54.29 310.32c-.06 3.26-.23 6.52-.21 9.78l.25 9.78a1.43 1.43 0 01-.15.7 2 2 0 01-2 1.06 1.88 1.88 0 01-1.4-.79 1.51 1.51 0 01-.26-.83l-.25-9.8c0-3.27.14-6.54.2-9.81a1.39 1.39 0 01.18-.69 2 2 0 012.08-.91 1.91 1.91 0 011.59 1.51" fill="#0e6ffa" opacity=".02"/></g><g opacity=".95"><path d="M69.81 282.63l-.81 6.59a1.36 1.36 0 01-.24.63 2.1 2.1 0 01-2.17.68 1.9 1.9 0 01-1.27-1 1.38 1.38 0 01-.13-.82l.84-6.68a1.35 1.35 0 01.24-.64 2 2 0 012.15-.62 2.05 2.05 0 011.27 1 1.36 1.36 0 01.14.81" fill="#0e6ffa" opacity=".02"/></g><g opacity=".95"><path d="M43.68 277.79l-1.39 10.92a1.6 1.6 0 01-.25.7 2 2 0 01-2.18.8 1.88 1.88 0 01-1.27-1 1.7 1.7 0 01-.12-.89l1.41-11.08a1.64 1.64 0 01.25-.71 2 2 0 012.2-.7 1.93 1.93 0 011.22 1.09 1.66 1.66 0 01.13.9" fill="#0e6ffa" opacity=".02"/></g><g opacity=".95"><path d="M41.49 298.32l-.52 6.9-.17 6.92-.18 6.92.18 6.94a1.82 1.82 0 01-1.28 1.76 1.93 1.93 0 01-2.61-1.67l-.18-7 .19-7 .17-7 .52-7a1.81 1.81 0 011.45-1.63 2 2 0 012.43 1.93" fill="#0e6ffa" opacity=".02"/></g><g opacity=".95"><path d="M68.3 295.64l-.82 10.84-.27 10.87a1.73 1.73 0 01-1.37 1.56 1.87 1.87 0 01-2.52-1.59l.28-11 .83-11a1.62 1.62 0 011.43-1.45 2 2 0 012.44 1.81" fill="#0e6ffa" opacity=".02"/></g><g opacity=".95"><path d="M67.31 324.43l.17 7.29a1.68 1.68 0 01-1.22 1.62 1.94 1.94 0 01-2.67-1.44l-.17-7.4a1.66 1.66 0 011.28-1.6 2 2 0 012.61 1.53z" fill="#0e6ffa" opacity=".02"/></g><g opacity=".95"><path d="M56.42 353.78C57 359.24 58.1 364.61 59 370a1.8 1.8 0 01-1 1.87 1.87 1.87 0 01-2.8-1.13c-.94-5.48-2.08-10.93-2.65-16.47a1.74 1.74 0 011.11-1.81 1.93 1.93 0 012.75 1.31" fill="#0e6ffa" opacity=".02"/></g><g opacity=".95"><path d="M81.08 401.55c1 3.27 2.32 6.44 3.58 9.62a1.67 1.67 0 01-.66 1.94 1.91 1.91 0 01-3-.51c-1.28-3.24-2.6-6.46-3.64-9.79a1.71 1.71 0 01.76-1.92 1.91 1.91 0 012.92.65z" fill="#0e6ffa" opacity=".02"/></g><g opacity=".95"><path d="M49.89 179.51c-2.29 4.49-4.66 8.91-6.64 13.49s-4.2 9.14-6 13.85a1.94 1.94 0 11-3.61-1.44c1.78-4.78 3.92-9.4 6-14s4.4-9.18 6.72-13.71a1.94 1.94 0 012.63-.87 2 2 0 01.82 2.67" fill="#0e6ffa" opacity=".02"/></g><g opacity=".95"><path d="M32.37 220.1l-3.2 9.51-2.74 9.65c-.45 1.62-.94 3.22-1.34 4.84L24 249l-2.23 9.79a1.91 1.91 0 01-1.63 1.58 2 2 0 01-2.22-2.37l2.25-9.91 1.15-5c.41-1.64.91-3.26 1.36-4.9l2.78-9.77 3.24-9.64a1.93 1.93 0 011.86-1.35 2 2 0 011.81 2.63" fill="#0e6ffa" opacity=".02"/></g><g opacity=".95"><path d="M69.63 354c.33 3.31 1 6.57 1.59 9.85s1.12 6.56 2 9.78a1.66 1.66 0 01-.94 1.81 1.93 1.93 0 01-2.86-1c-.84-3.27-1.4-6.61-2-9.94s-1.28-6.64-1.61-10a1.69 1.69 0 011.12-1.74 1.9 1.9 0 012.7 1.24z" fill="#0e6ffa" opacity=".02"/></g><g opacity=".95"><path d="M92 210.22l-4.24 9.36a1.7 1.7 0 01-1.86.89 1.87 1.87 0 01-1.73-2.47l4.31-9.52a1.73 1.73 0 011.92-.81 1.87 1.87 0 011.6 2.54z" fill="#0e6ffa" opacity=".02"/></g><g opacity=".95"><path d="M84.21 228.26c-1.78 4.21-3.14 8.57-4.62 12.89a1.72 1.72 0 01-1.77 1.07 1.89 1.89 0 01-1.93-2.28c1.5-4.39 2.89-8.83 4.7-13.1a1.68 1.68 0 011.81-1 1.93 1.93 0 011.82 2.39z" fill="#0e6ffa" opacity=".02"/></g><g opacity=".95"><path d="M16.8 290a299.8 299.8 0 00-.24 55.24 2 2 0 01-1.18 2 1.93 1.93 0 01-2.7-1.67 304.65 304.65 0 01.25-55.93 1.9 1.9 0 011.47-1.76 2 2 0 012.4 2.12" fill="#0e6ffa" opacity=".02"/></g><g opacity=".95"><path d="M210 50c4.41-1.74 8.8-3.55 13.33-5a1.89 1.89 0 001.28-1.83 1.94 1.94 0 00-2.61-1.85c-4.59 1.44-9 3.28-13.52 5a1.86 1.86 0 00-1.19 1.9A2 2 0 00210 50" fill="#0e6ffa" opacity=".02"/></g><g opacity=".95"><path d="M240.08 39.76l5.56-1.57 5.63-1.3c3.76-.81 7.48-1.86 11.29-2.44a1.87 1.87 0 001.52-1.62 2 2 0 00-2.27-2.2c-3.86.59-7.62 1.66-11.44 2.48l-5.7 1.31L239 36a1.87 1.87 0 00-1.39 1.77 1.94 1.94 0 002.43 2" fill="#0e6ffa" opacity=".02"/></g><g opacity=".95"><path d="M208.28 64.37c4.22-1.87 8.56-3.43 12.83-5.16s8.72-3 13.07-4.51a1.88 1.88 0 001.24-1.8A1.9 1.9 0 00233 51c-4.41 1.54-8.88 2.92-13.25 4.57s-8.74 3.34-13 5.24a1.86 1.86 0 00-1.06 1.93 1.92 1.92 0 002.6 1.64" fill="#0e6ffa" opacity=".02"/></g><g opacity=".95"><path d="M214.57 90.65c3.28-1.5 6.56-3 10-4.26s6.67-2.78 10.13-3.83a1.65 1.65 0 001-1.75 1.93 1.93 0 00-2.33-1.92c-3.51 1.07-6.86 2.6-10.29 3.89s-6.78 2.8-10.11 4.33a1.67 1.67 0 00-.88 1.86 1.93 1.93 0 002.49 1.68" fill="#0e6ffa" opacity=".02"/></g><g opacity=".95"><path d="M241.33 80.3c2.27-.85 4.63-1.4 6.95-2.08a1.68 1.68 0 001.14-1.7 1.92 1.92 0 00-2.22-2c-2.36.7-4.76 1.26-7.06 2.11a1.72 1.72 0 00-1.08 1.77 1.9 1.9 0 002.27 1.94" fill="#0e6ffa" opacity=".02"/></g><g opacity=".95"><path d="M192.35 43.86a302.49 302.49 0 0152.14-18.29 1.92 1.92 0 001.51-1.71 2 2 0 00-2.46-2.06 306.6 306.6 0 00-52.81 18.53 1.93 1.93 0 00-1.17 2 2 2 0 002.79 1.53z" fill="#0e6ffa" opacity=".02"/></g><g opacity=".95"><path d="M101.78 107.5A295.81 295.81 0 0081 131.14a1.95 1.95 0 11-3-2.43 301.15 301.15 0 0121-23.93 1.92 1.92 0 012.25-.44 2 2 0 01.52 3.17z" fill="#0e6ffa" opacity=".02"/></g><g opacity=".95"><path d="M151.09 82l-5.81 4.12c-1.92 1.39-3.74 2.92-5.62 4.36a1.88 1.88 0 01-2.24.07 1.93 1.93 0 01-.15-3.13c1.9-1.47 3.75-3 5.7-4.42l5.88-4.18a1.88 1.88 0 012.24 0 2 2 0 010 3.15" fill="#0e6ffa" opacity=".02"/></g><g opacity=".95"><path d="M95.81 132.75c-1.88 2.07-3.53 4.34-5.28 6.52a1.88 1.88 0 01-2.15.59 1.93 1.93 0 01-.89-3c1.77-2.22 3.44-4.52 5.35-6.62a1.95 1.95 0 013 2.5z" fill="#0e6ffa" opacity=".02"/></g><g opacity=".95"><path d="M126.11 101.71c-3 2.47-5.71 5.18-8.5 7.83l-4.18 4c-1.38 1.34-2.67 2.77-4 4.15a1.87 1.87 0 01-2.2.39 2 2 0 01-.6-3.09c1.36-1.4 2.67-2.85 4.07-4.21l4.24-4c2.83-2.69 5.6-5.44 8.61-7.93a1.91 1.91 0 012.25-.2 1.94 1.94 0 01.32 3.11" fill="#0e6ffa" opacity=".02"/></g><g opacity=".95"><path d="M202.11 53.23l-8.52 3.85c-2.83 1.29-5.56 2.81-8.35 4.2a1.89 1.89 0 01-2.21-.36 1.92 1.92 0 01.43-3.1c2.83-1.41 5.59-3 8.47-4.26l8.63-3.9a1.87 1.87 0 012.19.47 2 2 0 01-.64 3.1" fill="#0e6ffa" opacity=".02"/></g><g opacity=".95"><path d="M83.1 149.05c-3.08 4.32-6.2 8.61-9 13.13l-4.29 6.7-4 6.9a1.89 1.89 0 01-2.05.91 1.92 1.92 0 01-1.32-2.84l4-7 4.34-6.79c2.81-4.59 6-8.94 9.1-13.31a1.85 1.85 0 012.12-.7 2 2 0 011 3" fill="#0e6ffa" opacity=".02"/></g><g opacity=".95"><path d="M41.72 230.66c-1 2.63-1.6 5.35-2.4 8a1.86 1.86 0 01-1.77 1.37 1.94 1.94 0 01-2-2.45c.8-2.72 1.46-5.49 2.44-8.16a1.94 1.94 0 013.7 1.19z" fill="#0e6ffa" opacity=".02"/></g><g opacity=".95"><path d="M57.22 192.05C54 199 50.67 206 48 213.21a1.89 1.89 0 01-1.89 1.2 1.93 1.93 0 01-1.72-2.62c2.73-7.32 6.06-14.38 9.37-21.45a1.94 1.94 0 013.49 1.71" fill="#0e6ffa" opacity=".02"/></g><g opacity=".95"><path d="M37.08 246.59c-2.89 12.2-5.58 24.49-6.9 37a2 2 0 01-2.18 1.64 1.9 1.9 0 01-1.69-2.13c1.34-12.66 4.07-25.11 7-37.48a2 2 0 012.41-1.35 1.88 1.88 0 011.36 2.32" fill="#0e6ffa" opacity=".02"/></g><g opacity=".95"><path d="M192.8 86.75c-5.57 3.25-11.26 6.25-16.6 9.84a1.46 1.46 0 01-.67.24 2 2 0 01-1.93-1.21 1.92 1.92 0 010-1.62 1.47 1.47 0 01.58-.65c5.42-3.65 11.19-6.72 16.84-10a1.51 1.51 0 01.7-.17 2 2 0 011.84 1.37 2 2 0 01-.1 1.61 1.57 1.57 0 01-.62.58" fill="#0e6ffa" opacity=".02"/></g><g opacity=".95"><path d="M170.72 100.09l-9.2 6.53a1.47 1.47 0 01-.66.27 2.08 2.08 0 01-2-1.09 1.86 1.86 0 01-.13-1.6 1.51 1.51 0 01.54-.68l9.34-6.62a1.55 1.55 0 01.68-.24 2 2 0 012 1.18 1.94 1.94 0 01.06 1.61 1.42 1.42 0 01-.57.64" fill="#0e6ffa" opacity=".02"/></g><g opacity=".95"><path d="M156.17 110.73c-2.94 2.35-6 4.57-8.77 7.1a1.37 1.37 0 01-.63.33 2 2 0 01-2.07-.92 2 2 0 01-.26-1.61 1.59 1.59 0 01.48-.73c2.82-2.58 5.91-4.83 8.89-7.21a1.57 1.57 0 01.65-.31 2 2 0 012 1 2 2 0 01.18 1.63 1.61 1.61 0 01-.5.7" fill="#0e6ffa" opacity=".02"/></g><g opacity=".95"><path d="M204.49 95.47l-5.91 3a1.51 1.51 0 01-.65.18 2 2 0 01-1.79-1.34 2 2 0 010-1.62 1.3 1.3 0 01.58-.6l6-3.06a1.27 1.27 0 01.66-.16 2 2 0 011.75 1.41 2 2 0 01-.09 1.61 1.47 1.47 0 01-.59.57" fill="#0e6ffa" opacity=".02"/></g><g opacity=".95"><path d="M180.18 78.45c-3.18 1.83-6.4 3.6-9.44 5.66a1.6 1.6 0 01-.7.25 2 2 0 01-2-1.18 1.93 1.93 0 010-1.66 1.58 1.58 0 01.61-.67c3.09-2.08 6.35-3.88 9.58-5.74a1.64 1.64 0 01.71-.22 2 2 0 011.83 2.92 1.71 1.71 0 01-.64.64" fill="#0e6ffa" opacity=".02"/></g><g opacity=".95"><path d="M164.07 88.41c-3.83 2.56-7.53 5.32-11.31 8s-7.26 5.69-10.91 8.52a1.87 1.87 0 01-2.62-.32 1.9 1.9 0 01.15-2.69c3.7-2.87 7.33-5.81 11.06-8.63s7.59-5.48 11.47-8.08a1.93 1.93 0 012.62.64 1.86 1.86 0 01-.46 2.6" fill="#0e6ffa" opacity=".02"/></g><g opacity=".95"><path d="M193 101.73l-4.71 2.69-4.57 2.92c-3 2-6.14 3.83-9 6a1.67 1.67 0 01-2-.18 1.94 1.94 0 01-.19-3c2.95-2.2 6.1-4.1 9.18-6.1l4.64-3 4.78-2.74a1.68 1.68 0 012 .37 1.94 1.94 0 01-.08 3" fill="#0e6ffa" opacity=".02"/></g><g opacity=".95"><path d="M159.24 125c-1.9 1.51-3.68 3.16-5.53 4.73a1.69 1.69 0 01-2.05 0 1.91 1.91 0 01-.5-3c1.88-1.59 3.69-3.27 5.62-4.81a1.71 1.71 0 012.07.06 1.9 1.9 0 01.39 3" fill="#0e6ffa" opacity=".02"/></g><g opacity=".95"><path d="M122.3 142.09a261.24 261.24 0 00-28.95 38.55 1.79 1.79 0 01-2 .68 1.87 1.87 0 01-1.28-2.73 265.13 265.13 0 0129.37-39.11 1.72 1.72 0 012.11-.32 1.91 1.91 0 01.77 2.93" fill="#0e6ffa" opacity=".02"/></g><g opacity=".95"><path d="M251.61 63.66A261.11 261.11 0 00206.34 80a1.77 1.77 0 01-2.06-.52 1.89 1.89 0 01.42-3 264.1 264.1 0 0145.94-16.58 1.75 1.75 0 011.94.89 1.91 1.91 0 01-1 2.87" fill="#0e6ffa" opacity=".02"/></g><g opacity=".95"><path d="M78.41 208.49a263.32 263.32 0 00-16.17 45.33 1.72 1.72 0 01-1.66 1.28 2 2 0 01-2.11-2.24 266.94 266.94 0 0116.41-46 1.71 1.71 0 011.88-.95 2 2 0 011.65 2.59" fill="#0e6ffa" opacity=".02"/></g><g opacity=".95"><path d="M94.3 155.2c-5.37 7.37-10.42 15-15.06 22.8a1.79 1.79 0 01-2 .82 2 2 0 01-1.35-2.82c4.71-7.95 9.83-15.65 15.28-23.12a1.79 1.79 0 012.07-.63 2 2 0 011.06 2.94z" fill="#0e6ffa" opacity=".02"/></g><g opacity=".95"><path d="M135.25 110.59l-3.48 3-3.35 3.17-6.66 6.35c-4.17 4.5-8.61 8.76-12.52 13.5a1.95 1.95 0 01-2.92-2.56c4-4.8 8.46-9.12 12.69-13.69l6.76-6.44 3.38-3.21 3.53-3a1.95 1.95 0 012.57 2.92" fill="#0e6ffa" opacity=".02"/></g><g opacity=".95"><path d="M48.59 253.11c-1.12 5.06-2.45 10.07-3.23 15.19a1.83 1.83 0 01-1.61 1.46 1.94 1.94 0 01-2.22-2.17c.8-5.2 2.14-10.29 3.29-15.41a1.8 1.8 0 011.68-1.38 2 2 0 012.1 2.31z" fill="#0e6ffa" opacity=".02"/></g><g opacity=".95"><path d="M74.33 186.54l-4.22 8.18-2.11 4.09-1.88 4.19-3.79 8.39L59 220a1.85 1.85 0 01-1.87 1.13 1.91 1.91 0 01-1.76-2.53l3.42-8.68 3.84-8.5 1.92-4.25 2.09-4.17 4.27-8.29a1.87 1.87 0 012-.87 1.9 1.9 0 011.39 2.74" fill="#0e6ffa" opacity=".02"/></g><g opacity=".95"><path d="M116.25 170.11l-4.93 6.94a1.72 1.72 0 01-2 .52 1.88 1.88 0 01-1.2-2.73l5-7a1.61 1.61 0 012-.49 2 2 0 011.14 2.8" fill="#0e6ffa" opacity=".02"/></g><g opacity=".95"><path d="M155.52 63.9a304.67 304.67 0 00-43.68 33.8 2 2 0 01-2.77 0 2 2 0 01.12-2.8 308.07 308.07 0 0144.24-34.23 2 2 0 012.72.57 2 2 0 01-.63 2.71" fill="#0e6ffa" opacity=".02"/></g><g opacity=".95"><path d="M33.58 422.94a2 2 0 01-1.11 2.52 2 2 0 11-1.36-3.74 1.93 1.93 0 012.47 1.22" fill="#0e6ffa" opacity=".02"/></g><g opacity=".95"><path d="M47.91 381.78a1.92 1.92 0 01-1.49 2.22 1.83 1.83 0 11-.82-3.56 1.91 1.91 0 012.31 1.34" fill="#0e6ffa" opacity=".02"/></g><g opacity=".95"><path d="M47.91 381.78a1.92 1.92 0 01-1.49 2.22 1.83 1.83 0 11-.82-3.56 1.91 1.91 0 012.31 1.34" fill="#0e6ffa" opacity=".02"/></g><g opacity=".95"><path d="M54.91 338a2 2 0 01-3.88.27 1.82 1.82 0 011.8-1.87 1.89 1.89 0 012.08 1.6" fill="#0e6ffa" opacity=".02"/></g><g opacity=".95"><path d="M55.45 345.28a1.88 1.88 0 01-1.76 1.92 1.82 1.82 0 01-2.11-1.54 1.89 1.89 0 011.81-1.92 1.81 1.81 0 012.06 1.54" fill="#0e6ffa" opacity=".02"/></g><g opacity=".95"><path d="M68 339.08a1.84 1.84 0 01-1.81 1.8 1.68 1.68 0 111.81-1.8" fill="#0e6ffa" opacity=".02"/></g><g opacity=".95"><path d="M68 339.08a1.84 1.84 0 01-1.81 1.8 1.68 1.68 0 111.81-1.8" fill="#0e6ffa" opacity=".02"/></g><g opacity=".95"><path d="M68.62 346a1.79 1.79 0 01-1.72 1.84 1.86 1.86 0 01-2.15-1.43 1.78 1.78 0 011.75-1.85 1.88 1.88 0 012.12 1.44" fill="#0e6ffa" opacity=".02"/></g><g opacity=".95"><path d="M71.07 275.32a1.84 1.84 0 01-2.21 1.28 1.8 1.8 0 01-1.62-2 2 2 0 013.83.68" fill="#0e6ffa" opacity=".02"/></g><g opacity=".95"><path d="M95.13 204.11a2 2 0 01-3.46-1.79 1.81 1.81 0 012.48-.57 1.84 1.84 0 011 2.36" fill="#0e6ffa" opacity=".02"/></g><g opacity=".95"><path d="M98.2 198.28a1.9 1.9 0 01-2.53.49 1.76 1.76 0 01-.88-2.37 1.84 1.84 0 012.53-.49 1.79 1.79 0 01.88 2.37" fill="#0e6ffa" opacity=".02"/></g><g opacity=".95"><path d="M98.2 198.28a1.9 1.9 0 01-2.53.49 1.76 1.76 0 01-.88-2.37 1.84 1.84 0 012.53-.49 1.79 1.79 0 01.88 2.37" fill="#0e6ffa" opacity=".02"/></g><path d="M120.19 165a1.83 1.83 0 01-2.55.1 1.67 1.67 0 112-2.6 1.83 1.83 0 01.51 2.5" fill="#fff2c0"/><path d="M124.26 159.83a1.77 1.77 0 01-2.51.07 1.88 1.88 0 01-.49-2.54 1.85 1.85 0 012.58 0 1.79 1.79 0 01.42 2.49" fill="#dfecfb"/><g opacity=".95"><path d="M164.31 121a2 2 0 01-2.39-3.07 1.79 1.79 0 012.49.51 1.86 1.86 0 01-.1 2.56" fill="#0e6ffa" opacity=".02"/></g><g opacity=".95"><path d="M164.31 121a2 2 0 01-2.39-3.07 1.79 1.79 0 012.49.51 1.86 1.86 0 01-.1 2.56" fill="#0e6ffa" opacity=".02"/></g><g opacity=".95"><path d="M148.79 134a1.78 1.78 0 01-2.51-.29 1.86 1.86 0 01-.12-2.58 1.8 1.8 0 012.54.33 1.85 1.85 0 01.09 2.54" fill="#0e6ffa" opacity=".02"/></g><g opacity=".95"><path d="M169.55 117a1.87 1.87 0 01-2.5-.61 1.77 1.77 0 01.2-2.52 1.86 1.86 0 012.5.61 1.79 1.79 0 01-.2 2.52" fill="#0e6ffa" opacity=".02"/></g><g opacity=".95"><path d="M209.31 93a1.77 1.77 0 01-2.31-1 1.68 1.68 0 113-1.43 1.76 1.76 0 01-.66 2.42" fill="#0e6ffa" opacity=".02"/></g><g opacity=".95"><path d="M209.31 93a1.77 1.77 0 01-2.31-1 1.68 1.68 0 113-1.43 1.76 1.76 0 01-.66 2.42" fill="#0e6ffa" opacity=".02"/></g><g opacity=".95"><path d="M59.88 264.37a1.91 1.91 0 01-2.29 1.29 1.81 1.81 0 01-1.52-2.1 1.9 1.9 0 012.3-1.29 1.82 1.82 0 011.51 2.1" fill="#0e6ffa" opacity=".02"/></g><g opacity=".95"><path d="M59.88 264.37a1.91 1.91 0 01-2.29 1.29 1.81 1.81 0 01-1.52-2.1 1.9 1.9 0 012.3-1.29 1.82 1.82 0 011.51 2.1" fill="#0e6ffa" opacity=".02"/></g><g opacity=".95"><path d="M58.52 271.54a2 2 0 01-3.82-.7 1.83 1.83 0 012.21-1.36 1.88 1.88 0 011.61 2.06" fill="#0e6ffa" opacity=".02"/></g><g opacity=".95"><path d="M58.52 271.54a2 2 0 01-3.82-.7 1.83 1.83 0 012.21-1.36 1.88 1.88 0 011.61 2.06" fill="#0e6ffa" opacity=".02"/></g><path d="M85.64 194.08a1.8 1.8 0 01-2.5.62 1.9 1.9 0 01-.93-2.47 1.84 1.84 0 012.55-.59 1.87 1.87 0 01.88 2.44" fill="#f8b09e"/><path d="M82.31 200.59a1.88 1.88 0 01-2.53.66 1.82 1.82 0 01-.94-2.42 2 2 0 013.47 1.76" fill="#fff2c0"/><path d="M89.28 187.69a1.86 1.86 0 01-2.55.53 1.75 1.75 0 111.73-3 1.88 1.88 0 01.82 2.48" fill="#84dcac"/><path d="M74.71 260.32a1.81 1.81 0 01-2.26 1.15 1.83 1.83 0 01-1.53-2.06 1.79 1.79 0 012.26-1.15 1.86 1.86 0 011.53 2.06" fill="#f8b09e"/><path d="M73.14 267.07a1.88 1.88 0 01-2.28 1.2 1.77 1.77 0 01-1.52-2 1.86 1.86 0 012.28-1.2 1.78 1.78 0 011.52 2" fill="#fff2c0"/><path d="M76.42 253.57a1.86 1.86 0 01-2.33 1.07 1.78 1.78 0 01-1.42-2.09 1.83 1.83 0 012.33-1.07 1.8 1.8 0 011.42 2.09" fill="#84dcac"/><g opacity=".95"><path d="M126.85 137.4a1.87 1.87 0 01-2.61-.08 1.75 1.75 0 112.61.08" fill="#0e6ffa" opacity=".02"/></g><g opacity=".95"><path d="M126.85 137.4a1.87 1.87 0 01-2.61-.08 1.75 1.75 0 112.61.08" fill="#0e6ffa" opacity=".02"/></g><g opacity=".95"><path d="M137.25 127.05a1.85 1.85 0 01-2.59-.21 1.87 1.87 0 01-.08-2.62 1.82 1.82 0 012.59.22 1.88 1.88 0 01.08 2.61" fill="#0e6ffa" opacity=".02"/></g><g opacity=".95"><path d="M142.3 122.38a1.9 1.9 0 01-2.61-.31 1.81 1.81 0 010-2.59 1.88 1.88 0 012.61.32 1.83 1.83 0 010 2.58" fill="#0e6ffa" opacity=".02"/></g><g opacity=".95"><path d="M142.3 122.38a1.9 1.9 0 01-2.61-.31 1.81 1.81 0 010-2.59 1.88 1.88 0 012.61.32 1.83 1.83 0 010 2.58" fill="#0e6ffa" opacity=".02"/></g><g opacity=".95"><path d="M199.27 83.56a2 2 0 01-1.76-3.48 1.83 1.83 0 012.42 1 1.88 1.88 0 01-.66 2.53" fill="#0e6ffa" opacity=".02"/></g><g opacity=".95"><path d="M199.27 83.56a2 2 0 01-1.76-3.48 1.83 1.83 0 012.42 1 1.88 1.88 0 01-.66 2.53" fill="#0e6ffa" opacity=".02"/></g><g opacity=".95"><path d="M56 228.05a2 2 0 11-1.26-2.37 1.93 1.93 0 011.26 2.37" fill="#0e6ffa" opacity=".02"/></g><g opacity=".95"><path d="M53.55 235.32a1.94 1.94 0 01-2.42 1.14 1.83 1.83 0 01-1.28-2.32 1.92 1.92 0 012.43-1.14 1.86 1.86 0 011.27 2.32" fill="#0e6ffa" opacity=".02"/></g><g opacity=".95"><path d="M53.55 235.32a1.94 1.94 0 01-2.42 1.14 1.83 1.83 0 01-1.28-2.32 1.92 1.92 0 012.43-1.14 1.86 1.86 0 011.27 2.32" fill="#0e6ffa" opacity=".02"/></g><g opacity=".95"><path d="M103.76 143a1.84 1.84 0 01-2.63.2 1.83 1.83 0 112.31-2.82 1.86 1.86 0 01.32 2.62" fill="#0e6ffa" opacity=".02"/></g><g opacity=".95"><path d="M99 149a1.93 1.93 0 01-2.67.24 1.83 1.83 0 112.26-2.87A1.9 1.9 0 0199 149" fill="#0e6ffa" opacity=".02"/></g><g opacity=".95"><path d="M99 149a1.93 1.93 0 01-2.67.24 1.83 1.83 0 112.26-2.87A1.9 1.9 0 0199 149" fill="#0e6ffa" opacity=".02"/></g><g opacity=".95"><path d="M194.21 71a1.87 1.87 0 01-2.49-.9 1.91 1.91 0 01.75-2.58 1.86 1.86 0 012.49.91 1.93 1.93 0 01-.75 2.57" fill="#0e6ffa" opacity=".02"/></g><g opacity=".95"><path d="M194.21 71a1.87 1.87 0 01-2.49-.9 1.91 1.91 0 01.75-2.58 1.86 1.86 0 012.49.91 1.93 1.93 0 01-.75 2.57" fill="#0e6ffa" opacity=".02"/></g><g opacity=".95"><path d="M201 67.69a1.93 1.93 0 01-2.48-1 1.85 1.85 0 01.84-2.51 1.9 1.9 0 012.48 1 1.87 1.87 0 01-.84 2.52" fill="#0e6ffa" opacity=".02"/></g><g opacity=".95"><path d="M201 67.69a1.93 1.93 0 01-2.48-1 1.85 1.85 0 01.84-2.51 1.9 1.9 0 012.48 1 1.87 1.87 0 01-.84 2.52" fill="#0e6ffa" opacity=".02"/></g><g opacity=".95"><path d="M249.28 50.38a1.95 1.95 0 01-1-3.77 1.93 1.93 0 012.25 1.48 1.84 1.84 0 01-1.29 2.29" fill="#0e6ffa" opacity=".02"/></g><g opacity=".95"><path d="M249.28 50.38a1.95 1.95 0 01-1-3.77 1.93 1.93 0 012.25 1.48 1.84 1.84 0 01-1.29 2.29" fill="#0e6ffa" opacity=".02"/></g><g opacity=".95"><path d="M256.59 48.7a1.95 1.95 0 01-.86-3.79 1.87 1.87 0 012.21 1.48 1.92 1.92 0 01-1.35 2.31" fill="#0e6ffa" opacity=".02"/></g><g opacity=".95"><path d="M256.59 48.7a1.95 1.95 0 01-.86-3.79 1.87 1.87 0 012.21 1.48 1.92 1.92 0 01-1.35 2.31" fill="#0e6ffa" opacity=".02"/></g><g opacity=".95"><path d="M241.88 52.45a1.95 1.95 0 111.23-2.36 1.89 1.89 0 01-1.23 2.36" fill="#0e6ffa" opacity=".02"/></g><g opacity=".95"><path d="M241.88 52.45a1.95 1.95 0 111.23-2.36 1.89 1.89 0 01-1.23 2.36" fill="#0e6ffa" opacity=".02"/></g><g opacity=".95"><path d="M31.69 365.53a1.91 1.91 0 01-1.58 2.19 2 2 0 01-2.26-1.57 1.88 1.88 0 011.58-2.15 2 2 0 012.26 1.57" fill="#0e6ffa" opacity=".02"/></g><g opacity=".95"><path d="M31.69 365.53a1.91 1.91 0 01-1.58 2.19 2 2 0 01-2.26-1.57 1.88 1.88 0 011.58-2.15 2 2 0 012.26 1.57" fill="#0e6ffa" opacity=".02"/></g><g opacity=".95"><path d="M30.53 357.25a2 2 0 01-1.69 2.15 1.92 1.92 0 01-2.17-1.64 1.95 1.95 0 013.86-.51" fill="#0e6ffa" opacity=".02"/></g><path d="M28.18 327.92a2 2 0 01-1.9 2 1.91 1.91 0 01-2-1.85 1.94 1.94 0 011.89-2 1.94 1.94 0 012 1.85" fill="#fff2c0"/><path d="M28.18 327.92a2 2 0 01-1.9 2 1.91 1.91 0 01-2-1.85 1.94 1.94 0 011.89-2 1.94 1.94 0 012 1.85" fill="#fff2c0"/><path d="M28.83 297.62a2 2 0 01-2.08 1.77 1.91 1.91 0 112.08-1.77" fill="#e2caf1"/><path d="M29.37 290.49a1.88 1.88 0 01-2.08 1.71 2 2 0 01-1.79-2.09 1.91 1.91 0 012.13-1.71 2 2 0 011.74 2.09" fill="#dfecfb"/><g opacity=".95"><path d="M44.77 221.72a1.9 1.9 0 01-2.44 1.15 2 2 0 01-1.22-2.46 1.88 1.88 0 012.44-1.15 2 2 0 011.22 2.46" fill="#0e6ffa" opacity=".02"/></g><g opacity=".95"><path d="M61.45 183.84a1.9 1.9 0 01-2.59.79A1.94 1.94 0 0158 182a1.89 1.89 0 012.59-.79 2 2 0 01.85 2.6" fill="#0e6ffa" opacity=".02"/></g><path d="M100.21 127.7a1.92 1.92 0 01-2.71.16 1.94 1.94 0 01-.21-2.73A1.9 1.9 0 01100 125a2 2 0 01.21 2.72" fill="#fff2c0"/><path d="M100.21 127.7a1.92 1.92 0 01-2.71.16 1.94 1.94 0 01-.21-2.73A1.9 1.9 0 01100 125a2 2 0 01.21 2.72" fill="#fff2c0"/><g opacity=".95"><path d="M104.68 122.69a2 2 0 01-2.75.06 1.87 1.87 0 01-.11-2.69 2 2 0 012.74-.07 1.9 1.9 0 01.12 2.7" fill="#0e6ffa" opacity=".02"/></g><g opacity=".95"><path d="M104.68 122.69a2 2 0 01-2.75.06 1.87 1.87 0 01-.11-2.69 2 2 0 012.74-.07 1.9 1.9 0 01.12 2.7" fill="#0e6ffa" opacity=".02"/></g><g opacity=".95"><path d="M157.09 77.84a2 2 0 01-2.68-.57 1.9 1.9 0 01.52-2.67 2 2 0 012.69.59 1.91 1.91 0 01-.53 2.65" fill="#0e6ffa" opacity=".02"/></g><g opacity=".95"><path d="M157.09 77.84a2 2 0 01-2.68-.57 1.9 1.9 0 01.52-2.67 2 2 0 012.69.59 1.91 1.91 0 01-.53 2.65" fill="#0e6ffa" opacity=".02"/></g><path d="M162.74 74.22a1.95 1.95 0 01-2.08-3.29 1.91 1.91 0 012.65.62 2 2 0 01-.57 2.67" fill="#fff2c0"/><g opacity=".95"><path d="M168.48 70.6a2 2 0 01-2.64-.68 1.91 1.91 0 01.63-2.66 2 2 0 012.66.72 1.91 1.91 0 01-.65 2.62" fill="#0e6ffa" opacity=".02"/></g><g opacity=".95"><path d="M174.3 67.25a1.95 1.95 0 11.69-2.64 2 2 0 01-.69 2.64" fill="#0e6ffa" opacity=".02"/></g><g opacity=".95"><path d="M231.66 42.18a1.87 1.87 0 01-2.38-1.24 1.91 1.91 0 113.64-1.14 1.89 1.89 0 01-1.26 2.38" fill="#0e6ffa" opacity=".02"/></g><g opacity=".95"><path d="M231.66 42.18a1.87 1.87 0 01-2.38-1.24 1.91 1.91 0 113.64-1.14 1.89 1.89 0 01-1.26 2.38" fill="#0e6ffa" opacity=".02"/></g><g opacity=".95"><path d="M132.73 96a1.91 1.91 0 01-2.69-.24 2 2 0 01.2-2.75 1.89 1.89 0 012.71.28 2 2 0 01-.22 2.71" fill="#0e6ffa" opacity=".02"/></g><g opacity=".95"><path d="M132.73 96a1.91 1.91 0 01-2.69-.24 2 2 0 01.2-2.75 1.89 1.89 0 012.71.28 2 2 0 01-.22 2.71" fill="#0e6ffa" opacity=".02"/></g><g opacity=".95"><path d="M19.3 270.22a2 2 0 01-2.3 1.65 1.93 1.93 0 01-1.57-2.28 2 2 0 012.3-1.59 2 2 0 011.57 2.27" fill="#0e6ffa" opacity=".02"/></g><g opacity=".95"><path d="M18.1 278.51a1.95 1.95 0 11-3.86-.52 2 2 0 012.18-1.71 2 2 0 011.68 2.23" fill="#0e6ffa" opacity=".02"/></g><g opacity=".95"><path d="M18.1 278.51a1.95 1.95 0 11-3.86-.52 2 2 0 012.18-1.71 2 2 0 011.68 2.23" fill="#0e6ffa" opacity=".02"/></g><g opacity=".95"><path d="M63.48 155.39a1.94 1.94 0 11-.56-2.73 2 2 0 01.56 2.73" fill="#0e6ffa" opacity=".02"/></g><g opacity=".95"><path d="M106.6 102.59a2 2 0 01-2.79 0 1.93 1.93 0 01.08-2.77 2 2 0 012.8 0 2 2 0 01-.09 2.76" fill="#0e6ffa" opacity=".02"/></g><path d="M59 162.46a1.93 1.93 0 01-2.65.72 2 2 0 01-.67-2.74 2 2 0 012.72-.67 1.94 1.94 0 01.6 2.69" fill="#fff2c0"/><path d="M59 162.46a1.93 1.93 0 01-2.65.72 2 2 0 01-.67-2.74 2 2 0 012.72-.67 1.94 1.94 0 01.6 2.69" fill="#fff2c0"/><g opacity=".95"><path d="M54.85 169.63a2 2 0 01-2.68.76 2 2 0 112.68-.76" fill="#0e6ffa" opacity=".02"/></g><g opacity=".95"><path d="M184.64 47.4a1.94 1.94 0 01-2.63-.83 2 2 0 01.91-2.66 1.93 1.93 0 012.63.84 2 2 0 01-.91 2.65" fill="#0e6ffa" opacity=".02"/></g><g opacity=".95"><path d="M184.64 47.4a1.94 1.94 0 01-2.63-.83 2 2 0 01.91-2.66 1.93 1.93 0 012.63.84 2 2 0 01-.91 2.65" fill="#0e6ffa" opacity=".02"/></g><path d="M177.18 51.22a2 2 0 01-2.68-.81 1.94 1.94 0 01.86-2.63 2 2 0 012.68.82 2 2 0 01-.86 2.62" fill="#f8b09e"/><path d="M169.92 55.18a2 2 0 01-2.68-.7 2 2 0 01.77-2.69 2 2 0 012.68.7 2 2 0 01-.77 2.69" fill="#dfecfb"/><path d="M163.15 59.07a2 2 0 01-2.72-.67 1.93 1.93 0 01.72-2.67 2 2 0 012.73.68 2 2 0 01-.73 2.66" fill="#fff2c0"/><g opacity=".95"><path d="M431.24 63.84a1.87 1.87 0 012.46-1 10.18 10.18 0 007.85.13 10.88 10.88 0 006-5.39A1.91 1.91 0 11451 59.3a14.81 14.81 0 01-18.85 7.06 1.89 1.89 0 01-.86-2.52" fill="#0e6ffa" opacity=".02"/></g><g opacity=".95"><path d="M299.47 54.36a1.89 1.89 0 011.53-2.42 10.49 10.49 0 007.07-3.72 12.17 12.17 0 002.8-8.14 2 2 0 011.13-1.84 1.92 1.92 0 012.72 1.81 16.54 16.54 0 01-3.9 10.95 14 14 0 01-9.47 4.88 1.86 1.86 0 01-1.88-1.48" fill="#0e6ffa" opacity=".02"/></g><g opacity=".95"><path d="M581.88 226a1.8 1.8 0 011.88 1.2c1.76 5.24 7.82 8.12 13.39 6.45a1.86 1.86 0 012.15.78 2 2 0 01-1.12 2.89 15 15 0 01-11-1 13.77 13.77 0 01-7.11-7.83 2 2 0 011.79-2.48" fill="#0e6ffa" opacity=".02"/></g><g opacity=".95"><path d="M527.39 180.84a2 2 0 01.94-1.85c5.14-3.36 6.71-9.67 3.54-14.06a1.75 1.75 0 01.06-2 2 2 0 013.19-.28 12.06 12.06 0 011.82 10.18 15.73 15.73 0 01-6.75 9 1.73 1.73 0 01-2.8-1" fill="#0e6ffa" opacity=".02"/></g><g opacity=".95"><path d="M334 17a329.84 329.84 0 00-49.19 1.41 1.92 1.92 0 01-2-1.08 2 2 0 011.6-2.78 332.75 332.75 0 0149.81-1.44 2 2 0 011.78 1.44 1.92 1.92 0 01-2 2.45" fill="#0e6ffa" opacity=".02"/></g><g opacity=".95"><path d="M385.78 37.15c-4.63-1-9.23-2.25-13.92-3a1.94 1.94 0 01.71-3.82c4.76.74 9.42 2 14.12 3a1.9 1.9 0 011.4 2.32 2 2 0 01-2.31 1.47" fill="#0e6ffa" opacity=".02"/></g><g opacity=".95"><path d="M316.42 29.14l-11.93.3a2 2 0 01-1.87-1.26 1.92 1.92 0 011.7-2.63l12.09-.3a1.82 1.82 0 011.82 1.29 2 2 0 01-1.81 2.6" fill="#0e6ffa" opacity=".02"/></g><g opacity=".95"><path d="M356.08 31.67c-3.56-.4-7.1-1-10.69-1.25a1.86 1.86 0 01-1.68-1.42 2 2 0 012.05-2.41c3.63.23 7.22.86 10.84 1.26a1.88 1.88 0 011.63 1.55 2 2 0 01-2.14 2.31z" fill="#0e6ffa" opacity=".02"/></g><g opacity=".95"><path d="M402.9 69.26c-6.11-2.23-12.42-3.83-18.66-5.65a1.66 1.66 0 01-.63-.33 2 2 0 01-.44-2.21 2 2 0 011.17-1.16 1.36 1.36 0 01.87 0c6.26 1.83 12.59 3.42 18.72 5.66a1.5 1.5 0 01.61.38 2 2 0 01.26 2.26 1.88 1.88 0 01-1.9 1.07" fill="#0e6ffa" opacity=".02"/></g><g opacity=".95"><path d="M375.37 61.55c-1.59-.35-3.16-.77-4.76-1.07l-4.81-.85c-3.21-.52-6.38-1.26-9.62-1.62a1.48 1.48 0 01-.66-.25 2.05 2.05 0 01.36-3.42 1.51 1.51 0 01.86-.13c3.25.35 6.43 1.1 9.65 1.62s6.43 1.11 9.59 1.92a1.47 1.47 0 01.65.32 2 2 0 01.5 2.22 1.84 1.84 0 01-1.76 1.26" fill="#0e6ffa" opacity=".02"/></g><g opacity=".95"><path d="M399.63 82l-6.27-2.14a1.35 1.35 0 01-.58-.36 2.14 2.14 0 01.91-3.33 1.38 1.38 0 01.83 0l6.37 2.17a1.35 1.35 0 01.58.36 2 2 0 01.2 2.24 2 2 0 01-1.22 1 1.43 1.43 0 01-.82 0" fill="#0e6ffa" opacity=".02"/></g><g opacity=".95"><path d="M409.24 57.2c-3.49-1.13-6.92-2.44-10.45-3.45a1.47 1.47 0 01-.65-.35 2 2 0 01-.4-2.25 2 2 0 011.26-1.08 1.69 1.69 0 01.92 0c3.57 1 7.06 2.34 10.59 3.49a1.67 1.67 0 01.64.39 1.92 1.92 0 01.29 2.27 2 2 0 01-1.3 1 1.72 1.72 0 01-.9-.06" fill="#0e6ffa" opacity=".02"/></g><g opacity=".02"><path d="M389.52 51.15c-4.43-1.26-9-2.13-13.45-3.22s-9.06-1.67-13.59-2.54a1.95 1.95 0 01.62-3.84c4.6.88 9.23 1.53 13.79 2.58s9.14 2 13.64 3.26a1.85 1.85 0 011.32 1.76 1.9 1.9 0 01-2.33 2" fill="#0e6ffa" opacity=".5"/></g><g opacity=".95"><path d="M387.15 78.07c-3.47-1-6.93-2-10.47-2.76s-7-1.78-10.58-2.32a1.64 1.64 0 01-1.29-1.57 2 2 0 012-2.25c3.63.56 7.16 1.6 10.75 2.36s7.11 1.8 10.64 2.8a1.68 1.68 0 011.14 1.7 1.94 1.94 0 01-2.22 2" fill="#0e6ffa" opacity=".02"/></g><g opacity=".95"><path d="M359.15 71.75c-2.37-.49-4.77-.77-7.18-1.06a1.65 1.65 0 01-1.37-1.51 1.92 1.92 0 011.9-2.34c2.44.29 4.88.58 7.3 1.08a1.69 1.69 0 011.32 1.58 1.9 1.9 0 01-2 2.25z" fill="#0e6ffa" opacity=".02"/></g><g opacity=".95"><path d="M300.84 55.87l-8.21.62c-2.74.16-5.45.65-8.17 1a1.75 1.75 0 01-1.8-1.11 1.91 1.91 0 011.34-2.79c2.77-.31 5.51-.81 8.29-1l8.33-.63a1.72 1.72 0 011.73 1.2 2 2 0 01-1.48 2.69" fill="#0e6ffa" opacity=".02"/></g><g opacity=".95"><path d="M332.32 55.65c-5.49-.15-11-.41-16.48-.34a1.71 1.71 0 01-1.66-1.31 2 2 0 011.63-2.6c5.57-.07 11.15.19 16.72.34a1.79 1.79 0 011.57 1.46 1.88 1.88 0 01-1.78 2.43" fill="#0e6ffa" opacity=".02"/></g><g opacity=".95"><path d="M280.67 71.1c-3.39.51-6.75 1.2-10.13 1.77a1.72 1.72 0 01-1.78-1 1.88 1.88 0 011.06-2.79c3.43-.58 6.84-1.28 10.29-1.8a1.74 1.74 0 011.75 1.12 1.88 1.88 0 01-1.18 2.73z" fill="#0e6ffa" opacity=".02"/></g><g opacity=".95"><path d="M291.6 43.07c-4.55.37-9.05 1.1-13.58 1.62s-9 1.55-13.47 2.29a1.85 1.85 0 01-1.95-1 1.89 1.89 0 011.21-2.82c4.56-.75 9.08-1.74 13.66-2.32s9.16-1.27 13.77-1.64a1.85 1.85 0 011.85 1.19 1.91 1.91 0 01-1.49 2.68" fill="#0e6ffa" opacity=".02"/></g><g opacity=".95"><path d="M349.67 43.65c-3-.46-6.11-.63-9.17-.87s-6.12-.52-9.18-.65l-9.22-.23c-1.53 0-3.07-.11-4.6-.1l-4.61.12a1.8 1.8 0 01-1.75-1.28 1.94 1.94 0 011.69-2.64l4.67-.12c1.55 0 3.11.07 4.67.1l9.34.23c3.11.14 6.2.45 9.31.67s6.21.41 9.29.87a1.83 1.83 0 011.57 1.54 1.92 1.92 0 01-2 2.33" fill="#0e6ffa" opacity=".02"/></g><g opacity=".95"><path d="M468 56.76c-5.73-3.45-11.76-6.36-17.7-9.44-3-1.5-6.07-2.79-9.11-4.19s-6.08-2.79-9.21-4a1.92 1.92 0 01-1.25-1.92 2 2 0 012.72-1.68c3.17 1.18 6.25 2.61 9.33 4s6.22 2.78 9.22 4.3c6 3.11 12.13 6.06 17.93 9.56a1.94 1.94 0 11-1.93 3.37" fill="#0e6ffa" opacity=".02"/></g><g opacity=".95"><path d="M300.75 69c-4.09.36-8.21.49-12.27 1.13a1.66 1.66 0 01-1.71-1.13 1.93 1.93 0 011.23-2.74c4.12-.65 8.3-.78 12.46-1.15a1.67 1.67 0 011.66 1.2 2 2 0 01-1.4 2.68" fill="#0e6ffa" opacity=".02"/></g><g opacity=".95"><path d="M329.67 68.63l-10-.25c-3.33-.1-6.67.14-10 .17a1.69 1.69 0 01-1.67-1.29 1.89 1.89 0 011.49-2.6c3.39 0 6.78-.27 10.17-.17l10.17.25a1.63 1.63 0 011.51 1.38 2 2 0 01-1.7 2.51z" fill="#0e6ffa" opacity=".02"/></g><g opacity=".95"><path d="M466.71 117.21l-8.39-6a1.66 1.66 0 01-.57-1.95 2 2 0 012.76-1.27l8.52 6.07a1.62 1.62 0 01.49 2 2 2 0 01-2.8 1.15z" fill="#0e6ffa" opacity=".02"/></g><g opacity=".95"><path d="M450.42 106.18A259.66 259.66 0 00414 87.41a1.63 1.63 0 01-.94-1.79 2 2 0 012.44-1.8 264 264 0 0137 19.06 1.71 1.71 0 01.62 2 1.91 1.91 0 01-2.68 1.32z" fill="#0e6ffa" opacity=".02"/></g><g opacity=".95"><path d="M402.28 28.53A305.07 305.07 0 00348 18a1.91 1.91 0 01-1.75-1.46 2 2 0 012.14-2.41 308.48 308.48 0 0154.98 10.67 1.94 1.94 0 011.45 1.79 2 2 0 01-2.54 1.94" fill="#0e6ffa" opacity=".02"/></g><g opacity=".95"><path d="M565.91 145.74c-3-4.29-6.06-8.59-9.38-12.66l-4.87-6.2-5.15-6a2 2 0 01-.23-2.3 2 2 0 013.17-.25l5.21 6 4.93 6.27c3.37 4.13 6.43 8.48 9.5 12.83a1.94 1.94 0 010 2.3 2 2 0 01-3.2-.08z" fill="#0e6ffa" opacity=".02"/></g><g opacity=".95"><path d="M581.91 198.89c-1-2.15-1.91-4.35-3-6.46l-3.25-6.34a1.91 1.91 0 01.36-2.22 1.93 1.93 0 013.1.44l3.29 6.42c1.09 2.14 2 4.37 3 6.55a1.89 1.89 0 01-.46 2.2 1.94 1.94 0 01-3.04-.59z" fill="#0e6ffa" opacity=".02"/></g><g opacity=".95"><path d="M542.23 135.2c-1.78-2.16-3.65-4.24-5.47-6.36a1.95 1.95 0 012.94-2.55c1.84 2.16 3.74 4.27 5.55 6.46a1.94 1.94 0 01-3 2.46z" fill="#0e6ffa" opacity=".02"/></g><g opacity=".95"><path d="M567.16 170.69c-1.9-3.35-4.11-6.51-6.15-9.78s-4.26-6.41-6.51-9.54a1.89 1.89 0 010-2.24 1.94 1.94 0 013.14 0c2.27 3.17 4.55 6.34 6.59 9.67s4.31 6.51 6.23 9.91a1.94 1.94 0 01-3.34 2" fill="#0e6ffa" opacity=".02"/></g><g opacity=".95"><path d="M600.67 254.36c-.73-3-1.33-6.09-2.17-9.09l-2.55-9a1.93 1.93 0 01.78-2.12 1.91 1.91 0 012.95 1l2.59 9.12c.85 3 1.46 6.14 2.2 9.21a1.89 1.89 0 01-.89 2.07 2 2 0 01-2.91-1.21" fill="#0e6ffa" opacity=".02"/></g><g opacity=".95"><path d="M528.5 119.75L523 114l-5.76-5.49c-3.77-3.74-7.83-7.15-11.84-10.63a1.94 1.94 0 012.52-3c4.06 3.52 8.18 7 12 10.77l5.84 5.56 5.56 5.84a1.86 1.86 0 01.29 2.22 2 2 0 01-3.12.45" fill="#0e6ffa" opacity=".02"/></g><g opacity=".95"><path d="M456 64l-7.47-3.82a1.95 1.95 0 011.76-3.47l7.58 3.88A1.95 1.95 0 01456 64z" fill="#0e6ffa" opacity=".02"/></g><g opacity=".95"><path d="M491 86.36l-9.42-6.7c-3.15-2.22-6.46-4.19-9.68-6.3a1.94 1.94 0 012.1-3.29c3.27 2.14 6.62 4.14 9.81 6.39l9.54 6.78a1.85 1.85 0 01.65 2.16 1.93 1.93 0 01-3 1" fill="#0e6ffa" opacity=".02"/></g><g opacity=".95"><path d="M441.12 56.52l-8.58-3.88c-2.85-1.32-5.82-2.35-8.72-3.54-5.82-2.43-11.82-4.3-17.72-6.33a2 2 0 01-1.22-2.47 1.88 1.88 0 012.4-1.24c6 2.06 12.09 4 18 6.42 2.94 1.21 5.95 2.25 8.84 3.59l8.65 3.93a1.87 1.87 0 01.91 2.54 2 2 0 01-2.56 1" fill="#0e6ffa" opacity=".02"/></g><g opacity=".95"><path d="M569.47 239l-3.09-9.13c-1-3-2.32-6-3.47-9a1.66 1.66 0 01-.1-.7 2 2 0 011.55-1.68 2 2 0 011.6.26 1.63 1.63 0 01.53.69c1.15 3 2.47 6 3.52 9.13l3.13 9.27a1.43 1.43 0 01.07.71 2 2 0 01-1.64 1.54 2 2 0 01-1.6-.39 1.49 1.49 0 01-.5-.71" fill="#0e6ffa" opacity=".02"/></g><g opacity=".95"><path d="M560.46 214.85l-4.65-10.28a1.35 1.35 0 01-.17-.68 2 2 0 011.4-1.77 2 2 0 011.64.15 1.58 1.58 0 01.59.64l4.73 10.42a1.44 1.44 0 01.14.71 1.93 1.93 0 01-1.48 1.69 2 2 0 01-1.63-.23 1.53 1.53 0 01-.56-.65" fill="#0e6ffa" opacity=".02"/></g><g opacity=".95"><path d="M552.73 198.58l-2.56-5-2.81-4.89a1.5 1.5 0 01-.21-.68 2 2 0 011.3-1.87 2 2 0 011.63 0 1.65 1.65 0 01.62.61l2.85 5 2.6 5.1a1.55 1.55 0 01.18.7 2 2 0 01-1.39 1.8 2 2 0 01-1.62-.12 1.49 1.49 0 01-.59-.63" fill="#0e6ffa" opacity=".02"/></g><g opacity=".95"><path d="M558.76 248.84c-.62-2.12-1.14-4.27-1.91-6.35a1.26 1.26 0 01-.05-.67 2 2 0 011.65-1.51 2 2 0 011.58.34 1.42 1.42 0 01.49.68c.78 2.11 1.31 4.29 1.93 6.45a1.31 1.31 0 010 .68 2 2 0 01-1.72 1.46 2 2 0 01-1.56-.39 1.37 1.37 0 01-.44-.69" fill="#0e6ffa" opacity=".02"/></g><g opacity=".95"><path d="M580 228.12c-1.1-3.5-2.46-6.91-3.82-10.31a1.67 1.67 0 01-.12-.74 2 2 0 011.54-1.71 2 2 0 011.62.32 1.77 1.77 0 01.54.73c1.39 3.45 2.76 6.91 3.88 10.46a1.74 1.74 0 01.08.75 2 2 0 01-3.22 1.25 1.74 1.74 0 01-.5-.75" fill="#0e6ffa" opacity=".02"/></g><g opacity=".95"><path d="M573.21 210.46c-1.93-4.19-3.75-8.43-5.74-12.58s-4.14-8.24-6.38-12.27a1.86 1.86 0 01.8-2.52 1.91 1.91 0 012.61.64c2.27 4.09 4.29 8.31 6.46 12.45s3.88 8.51 5.83 12.75a1.87 1.87 0 01-1.08 2.45 1.93 1.93 0 01-2.5-.92" fill="#0e6ffa" opacity=".02"/></g><g opacity=".95"><path d="M538.17 199l-3.63-6.29a1.71 1.71 0 01.37-2 1.89 1.89 0 013 .07l3.69 6.39a1.64 1.64 0 01-.42 2 1.94 1.94 0 01-3-.16" fill="#0e6ffa" opacity=".02"/></g><g opacity=".95"><path d="M528.12 159.57A264.28 264.28 0 00495.6 124a1.73 1.73 0 01-.34-2.07 1.94 1.94 0 013-.81 268.25 268.25 0 0133 36.12 1.7 1.7 0 010 2.1 2 2 0 01-3.07.25" fill="#0e6ffa" opacity=".02"/></g><g opacity=".95"><path d="M470.93 104.17a262.79 262.79 0 00-44.68-25.67 1.77 1.77 0 01-.95-1.89 1.91 1.91 0 012.55-1.61 267.37 267.37 0 0145.34 26 1.76 1.76 0 01.58 2 2 2 0 01-2.84 1.13" fill="#0e6ffa" opacity=".02"/></g><g opacity=".95"><path d="M490.41 137.11l-3.73-3.57-3.91-3.38a1.68 1.68 0 01-.31-2 1.91 1.91 0 012.87-.9l4 3.42 3.78 3.62a1.65 1.65 0 01.22 2 1.92 1.92 0 01-2.9.78z" fill="#0e6ffa" opacity=".02"/></g><g opacity=".95"><path d="M520.39 129.63c-3.17-3.28-6.22-6.67-9.59-9.74s-6.54-6.36-10.05-9.27a1.79 1.79 0 01-.43-2.12 1.93 1.93 0 013-.8c3.56 3 6.84 6.22 10.19 9.4s6.51 6.55 9.72 9.88a1.78 1.78 0 01.23 2.16 2 2 0 01-3.07.49z" fill="#0e6ffa" opacity=".02"/></g><g opacity=".95"><path d="M556.74 178.05a267 267 0 00-20.82-30.33 1.91 1.91 0 01.4-2.64 1.88 1.88 0 012.66.23 273.08 273.08 0 0121.11 30.75 1.92 1.92 0 01-.76 2.58 1.88 1.88 0 01-2.59-.59" fill="#0e6ffa" opacity=".02"/></g><g opacity=".95"><path d="M432.57 66.59l-7.08-3.19-7.22-2.84a1.83 1.83 0 01-1.13-1.87 1.91 1.91 0 012.54-1.75l7.32 2.88 7.18 3.23a1.79 1.79 0 011 1.92 2 2 0 01-2.64 1.62z" fill="#0e6ffa" opacity=".02"/></g><g opacity=".95"><path d="M493.26 104.23a295.57 295.57 0 00-30-21.34 1.85 1.85 0 01-.76-2.06 1.89 1.89 0 012.8-1.25 298.48 298.48 0 0130.4 21.64 1.75 1.75 0 01.52 2.1 2 2 0 01-3 .91" fill="#0e6ffa" opacity=".02"/></g><g opacity=".95"><path d="M501.69 148.48l-5.87-6.17a1.73 1.73 0 01-.16-2 1.91 1.91 0 012.93-.7l6 6.26a1.66 1.66 0 01.11 2 2 2 0 01-3 .61" fill="#0e6ffa" opacity=".02"/></g><g opacity=".95"><path d="M526.38 179.56c-3.83-5.44-7.61-10.94-11.84-16.09a1.72 1.72 0 01.08-2.06 1.89 1.89 0 013-.36c2.32 3 4.73 5.88 6.84 9s4.49 6.07 6.43 9.3a1.7 1.7 0 01-.26 2.06 1.91 1.91 0 01-3 .08z" fill="#0e6ffa" opacity=".02"/></g><g opacity=".95"><path d="M598.87 206.59a302.94 302.94 0 00-25.17-49.16 1.94 1.94 0 113.28-2.08 306.4 306.4 0 0125.5 49.8 1.94 1.94 0 11-3.61 1.44" fill="#0e6ffa" opacity=".02"/></g><g opacity=".95"><path d="M276.79 19.33a2 2 0 01-2.24-1.67 2 2 0 011.72-2.18 2 2 0 012.23 1.68 2 2 0 01-1.71 2.17" fill="#0e6ffa" opacity=".02"/></g><g opacity=".95"><path d="M276.79 19.33a2 2 0 01-2.24-1.67 2 2 0 011.72-2.18 2 2 0 012.23 1.68 2 2 0 01-1.71 2.17" fill="#0e6ffa" opacity=".02"/></g><g opacity=".95"><path d="M268.5 20.56a2 2 0 01-2.28-1.56 2 2 0 011.65-2.27 1.93 1.93 0 012.27 1.57 2 2 0 01-1.64 2.27" fill="#0e6ffa" opacity=".02"/></g><g opacity=".95"><path d="M268.5 20.56a2 2 0 01-2.28-1.56 2 2 0 011.65-2.27 1.93 1.93 0 012.27 1.57 2 2 0 01-1.64 2.27" fill="#0e6ffa" opacity=".02"/></g><g opacity=".95"><path d="M306.29 42.18a2 2 0 01-1.91-1.9 1.85 1.85 0 011.75-2 1.92 1.92 0 011.9 1.9 1.86 1.86 0 01-1.74 2" fill="#0e6ffa" opacity=".02"/></g><g opacity=".95"><path d="M306.29 42.18a2 2 0 01-1.91-1.9 1.85 1.85 0 011.75-2 1.92 1.92 0 011.9 1.9 1.86 1.86 0 01-1.74 2" fill="#0e6ffa" opacity=".02"/></g><g opacity=".95"><path d="M356.11 44.56a1.95 1.95 0 01.53-3.85 1.85 1.85 0 011.55 2.15 1.93 1.93 0 01-2.08 1.7" fill="#0e6ffa" opacity=".02"/></g><g opacity=".95"><path d="M356.11 44.56a1.95 1.95 0 01.53-3.85 1.85 1.85 0 011.55 2.15 1.93 1.93 0 01-2.08 1.7" fill="#0e6ffa" opacity=".02"/></g><g opacity=".95"><path d="M298.62 42.63a1.89 1.89 0 01-2-1.8 1.91 1.91 0 011.69-2.08 1.87 1.87 0 011.95 1.8 1.91 1.91 0 01-1.68 2.08" fill="#0e6ffa" opacity=".02"/></g><g opacity=".95"><path d="M298.62 42.63a1.89 1.89 0 01-2-1.8 1.91 1.91 0 011.69-2.08 1.87 1.87 0 011.95 1.8 1.91 1.91 0 01-1.68 2.08" fill="#0e6ffa" opacity=".02"/></g><g opacity=".95"><path d="M348.11 57.09a1.91 1.91 0 01-1.5-2.16 1.82 1.82 0 011.94-1.71 1.88 1.88 0 011.51 2.16 1.84 1.84 0 01-1.95 1.71" fill="#0e6ffa" opacity=".02"/></g><g opacity=".95"><path d="M340.84 56.38a1.85 1.85 0 01-1.57-2.07 1.88 1.88 0 011.9-1.81 1.82 1.82 0 011.57 2.07 1.9 1.9 0 01-1.9 1.81" fill="#0e6ffa" opacity=".02"/></g><g opacity=".95"><path d="M340.84 56.38a1.85 1.85 0 01-1.57-2.07 1.88 1.88 0 011.9-1.81 1.82 1.82 0 011.57 2.07 1.9 1.9 0 01-1.9 1.81" fill="#0e6ffa" opacity=".02"/></g><path d="M344.66 69.76a1.85 1.85 0 01-1.44-2.11 1.78 1.78 0 011.84-1.76A1.87 1.87 0 01346.5 68a1.78 1.78 0 01-1.84 1.72" fill="#fff2c0"/><g opacity=".95"><path d="M337.73 69.19a2 2 0 111.8-1.81 1.84 1.84 0 01-1.8 1.81" fill="#0e6ffa" opacity=".02"/></g><g opacity=".95"><path d="M406.6 84.49a1.87 1.87 0 01-.84-2.43 1.77 1.77 0 012.24-1.21 1.84 1.84 0 01.84 2.43 1.79 1.79 0 01-2.22 1.21" fill="#0e6ffa" opacity=".02"/></g><g opacity=".95"><path d="M472.16 121.41a1.85 1.85 0 01-.11-2.56 1.68 1.68 0 11.11 2.56" fill="#0e6ffa" opacity=".02"/></g><g opacity=".95"><path d="M477.36 125.48a1.77 1.77 0 01-.07-2.52 1.68 1.68 0 112.55 2.1 1.78 1.78 0 01-2.48.42" fill="#0e6ffa" opacity=".02"/></g><g opacity=".95"><path d="M477.36 125.48a1.77 1.77 0 01-.07-2.52 1.68 1.68 0 112.55 2.1 1.78 1.78 0 01-2.48.42" fill="#0e6ffa" opacity=".02"/></g><g opacity=".95"><path d="M506 153.26a1.86 1.86 0 01.38-2.54 1.79 1.79 0 012.54 0 1.83 1.83 0 01-.38 2.54 1.82 1.82 0 01-2.54 0" fill="#0e6ffa" opacity=".02"/></g><g opacity=".95"><path d="M506 153.26a1.86 1.86 0 01.38-2.54 1.79 1.79 0 012.54 0 1.83 1.83 0 01-.38 2.54 1.82 1.82 0 01-2.54 0" fill="#0e6ffa" opacity=".02"/></g><g opacity=".95"><path d="M510.33 158.25a1.8 1.8 0 01.4-2.5 1.86 1.86 0 012.58 0 1.77 1.77 0 01-.4 2.49 1.87 1.87 0 01-2.58 0" fill="#0e6ffa" opacity=".02"/></g><g opacity=".95"><path d="M510.33 158.25a1.8 1.8 0 01.4-2.5 1.86 1.86 0 012.58 0 1.77 1.77 0 01-.4 2.49 1.87 1.87 0 01-2.58 0" fill="#0e6ffa" opacity=".02"/></g><g opacity=".95"><path d="M541.12 204.68a1.82 1.82 0 011-2.35 1.67 1.67 0 111.5 2.93 1.82 1.82 0 01-2.48-.58" fill="#0e6ffa" opacity=".02"/></g><g opacity=".95"><path d="M531.18 187.07a1.79 1.79 0 01.76-2.41 1.84 1.84 0 012.54.36 1.78 1.78 0 01-.75 2.42 1.88 1.88 0 01-2.55-.37" fill="#0e6ffa" opacity=".02"/></g><g opacity=".95"><path d="M544.13 210.55a1.78 1.78 0 011-2.31 1.68 1.68 0 111.43 3 1.77 1.77 0 01-2.43-.66" fill="#0e6ffa" opacity=".02"/></g><g opacity=".95"><path d="M544.13 210.55a1.78 1.78 0 011-2.31 1.68 1.68 0 111.43 3 1.77 1.77 0 01-2.43-.66" fill="#0e6ffa" opacity=".02"/></g><g opacity=".95"><path d="M560.21 254.05a1.79 1.79 0 011.42-2.09A1.84 1.84 0 01564 253a1.76 1.76 0 01-1.42 2.09 1.87 1.87 0 01-2.33-1.08" fill="#0e6ffa" opacity=".02"/></g><g opacity=".95"><path d="M560.21 254.05a1.79 1.79 0 011.42-2.09A1.84 1.84 0 01564 253a1.76 1.76 0 01-1.42 2.09 1.87 1.87 0 01-2.33-1.08" fill="#0e6ffa" opacity=".02"/></g><g opacity=".95"><path d="M419.43 75.56a1.83 1.83 0 01-.87-2.43 1.9 1.9 0 012.37-1.13 1.8 1.8 0 01.86 2.44 1.92 1.92 0 01-2.36 1.15" fill="#0e6ffa" opacity=".02"/></g><path d="M412.64 72.89a1.9 1.9 0 01-.92-2.46 1.82 1.82 0 012.28-1.17 2 2 0 01-1.39 3.63" fill="#84dcac"/><g opacity=".95"><path d="M483.75 114a1.82 1.82 0 01-.15-2.58 1.87 1.87 0 012.59-.44 1.8 1.8 0 01.15 2.58 1.89 1.89 0 01-2.59.44" fill="#0e6ffa" opacity=".02"/></g><g opacity=".95"><path d="M478 109.44a1.9 1.9 0 01-.19-2.62 1.83 1.83 0 012.55-.47 1.87 1.87 0 01.18 2.62 1.82 1.82 0 01-2.54.47" fill="#0e6ffa" opacity=".02"/></g><g opacity=".95"><path d="M478 109.44a1.9 1.9 0 01-.19-2.62 1.83 1.83 0 012.55-.47 1.87 1.87 0 01.18 2.62 1.82 1.82 0 01-2.54.47" fill="#0e6ffa" opacity=".02"/></g><g opacity=".95"><path d="M489.39 118.69a1.88 1.88 0 01-.05-2.62 1.83 1.83 0 012.58-.34 2 2 0 01-2.53 3" fill="#0e6ffa" opacity=".02"/></g><g opacity=".95"><path d="M489.39 118.69a1.88 1.88 0 01-.05-2.62 1.83 1.83 0 012.58-.34 2 2 0 01-2.53 3" fill="#0e6ffa" opacity=".02"/></g><g opacity=".95"><path d="M531.93 164.88a1.89 1.89 0 01.57-2.56 1.82 1.82 0 012.58.28 2 2 0 01-3.15 2.28" fill="#0e6ffa" opacity=".02"/></g><g opacity=".95"><path d="M531.93 164.88a1.89 1.89 0 01.57-2.56 1.82 1.82 0 012.58.28 2 2 0 01-3.15 2.28" fill="#0e6ffa" opacity=".02"/></g><g opacity=".95"><path d="M540.18 177a1.86 1.86 0 01.7-2.51 1.75 1.75 0 111.87 2.92 1.86 1.86 0 01-2.57-.41" fill="#0e6ffa" opacity=".02"/></g><g opacity=".95"><path d="M540.18 177a1.86 1.86 0 01.7-2.51 1.75 1.75 0 111.87 2.92 1.86 1.86 0 01-2.57-.41" fill="#0e6ffa" opacity=".02"/></g><g opacity=".95"><path d="M543.87 182.8a2 2 0 013.33-2 1.9 1.9 0 01-.8 2.52 1.82 1.82 0 01-2.53-.5" fill="#0e6ffa" opacity=".02"/></g><g opacity=".95"><path d="M571.43 245.93a1.87 1.87 0 011.39-2.21 1.82 1.82 0 012.34 1.13 2 2 0 01-3.73 1.08" fill="#0e6ffa" opacity=".02"/></g><g opacity=".95"><path d="M455.84 78.53a1.91 1.91 0 01-.61-2.6 1.83 1.83 0 113.16 1.82 1.9 1.9 0 01-2.55.78" fill="#0e6ffa" opacity=".02"/></g><g opacity=".95"><path d="M449.16 74.74a1.85 1.85 0 01-.71-2.54 1.94 1.94 0 012.55-.88 1.85 1.85 0 01.69 2.57 1.93 1.93 0 01-2.53.85" fill="#0e6ffa" opacity=".02"/></g><g opacity=".95"><path d="M449.16 74.74a1.85 1.85 0 01-.71-2.54 1.94 1.94 0 012.55-.88 1.85 1.85 0 01.69 2.57 1.93 1.93 0 01-2.53.85" fill="#0e6ffa" opacity=".02"/></g><g opacity=".95"><path d="M530.65 141.18a1.87 1.87 0 01.3-2.63 1.92 1.92 0 012.68.13 1.84 1.84 0 01-.29 2.63 1.94 1.94 0 01-2.69-.13" fill="#0e6ffa" opacity=".02"/></g><g opacity=".95"><path d="M530.65 141.18a1.87 1.87 0 01.3-2.63 1.92 1.92 0 012.68.13 1.84 1.84 0 01-.29 2.63 1.94 1.94 0 01-2.69-.13" fill="#0e6ffa" opacity=".02"/></g><g opacity=".95"><path d="M525.62 135.38a1.94 1.94 0 01.26-2.67 1.85 1.85 0 012.65.09 1.91 1.91 0 01-.26 2.67 1.88 1.88 0 01-2.65-.09" fill="#0e6ffa" opacity=".02"/></g><g opacity=".95"><path d="M525.62 135.38a1.94 1.94 0 01.26-2.67 1.85 1.85 0 012.65.09 1.91 1.91 0 01-.26 2.67 1.88 1.88 0 01-2.65-.09" fill="#0e6ffa" opacity=".02"/></g><g opacity=".95"><path d="M584.74 243.3a1.91 1.91 0 011.37-2.28 1.83 1.83 0 111 3.51 1.91 1.91 0 01-2.37-1.23" fill="#0e6ffa" opacity=".02"/></g><path d="M586.76 250.53a1.92 1.92 0 011.42-2.25 1.89 1.89 0 012.35 1.29 1.93 1.93 0 01-1.48 2.25 1.84 1.84 0 01-2.29-1.29" fill="#84dcac"/><path d="M594.69 301.25a1.86 1.86 0 011.8-1.94 1.92 1.92 0 012.08 1.7 1.86 1.86 0 01-1.8 1.94 1.93 1.93 0 01-2.08-1.7" fill="#e2caf1"/><g opacity=".95"><path d="M594.1 293.59a2 2 0 011.8-2 1.86 1.86 0 012.08 1.64 1.93 1.93 0 01-1.8 2 1.87 1.87 0 01-2.08-1.64" fill="#0e6ffa" opacity=".02"/></g><g opacity=".95"><path d="M325.27 29.31a2 2 0 01-1.86-2 1.91 1.91 0 113.81.1 1.94 1.94 0 01-2 1.9" fill="#0e6ffa" opacity=".02"/></g><g opacity=".95"><path d="M325.27 29.31a2 2 0 01-1.86-2 1.91 1.91 0 113.81.1 1.94 1.94 0 01-2 1.9" fill="#0e6ffa" opacity=".02"/></g><g opacity=".95"><path d="M333.63 29.55a2 2 0 01-1.81-2 1.92 1.92 0 012-1.86 2 2 0 011.8 2.09 1.88 1.88 0 01-2 1.79" fill="#0e6ffa" opacity=".02"/></g><g opacity=".95"><path d="M333.63 29.55a2 2 0 01-1.81-2 1.92 1.92 0 012-1.86 2 2 0 011.8 2.09 1.88 1.88 0 01-2 1.79" fill="#0e6ffa" opacity=".02"/></g><g opacity=".95"><path d="M362.89 32.59a1.94 1.94 0 01-1.58-2.2 1.9 1.9 0 012.18-1.64 2 2 0 011.58 2.25 1.88 1.88 0 01-2.18 1.58" fill="#0e6ffa" opacity=".02"/></g><g opacity=".95"><path d="M362.89 32.59a1.94 1.94 0 01-1.58-2.2 1.9 1.9 0 012.18-1.64 2 2 0 011.58 2.25 1.88 1.88 0 01-2.18 1.58" fill="#0e6ffa" opacity=".02"/></g><g opacity=".95"><path d="M392.54 38.84a2 2 0 01-1.34-2.4 1.89 1.89 0 012.34-1.36 2 2 0 011.33 2.4 1.9 1.9 0 01-2.33 1.36" fill="#0e6ffa" opacity=".02"/></g><g opacity=".95"><path d="M392.54 38.84a2 2 0 01-1.34-2.4 1.89 1.89 0 012.34-1.36 2 2 0 011.33 2.4 1.9 1.9 0 01-2.33 1.36" fill="#0e6ffa" opacity=".02"/></g><path d="M399.42 40.8a1.95 1.95 0 011.09-3.74 1.9 1.9 0 011.29 2.39 2 2 0 01-2.38 1.35" fill="#e2caf1"/><g opacity=".95"><path d="M464.13 68.67a1.94 1.94 0 112.64-.72 2 2 0 01-2.64.72" fill="#0e6ffa" opacity=".02"/></g><g opacity=".95"><path d="M498.28 92.06a1.94 1.94 0 112.71-.34 2 2 0 01-2.71.34" fill="#0e6ffa" opacity=".02"/></g><g opacity=".95"><path d="M546.35 140.48a1.94 1.94 0 112.71.3 1.93 1.93 0 01-2.71-.3" fill="#0e6ffa" opacity=".02"/></g><g opacity=".95"><path d="M546.35 140.48a1.94 1.94 0 112.71.3 1.93 1.93 0 01-2.71-.3" fill="#0e6ffa" opacity=".02"/></g><g opacity=".95"><path d="M550.49 145.76a1.89 1.89 0 01.39-2.66 2 2 0 012.73.34 2 2 0 01-.46 2.72 1.89 1.89 0 01-2.66-.4" fill="#0e6ffa" opacity=".02"/></g><g opacity=".95"><path d="M550.49 145.76a1.89 1.89 0 01.39-2.66 2 2 0 012.73.34 2 2 0 01-.46 2.72 1.89 1.89 0 01-2.66-.4" fill="#0e6ffa" opacity=".02"/></g><g opacity=".95"><path d="M584.89 205.55a1.89 1.89 0 011-2.5 2 2 0 012.57 1 1.91 1.91 0 01-1.05 2.52 2 2 0 01-2.53-1" fill="#0e6ffa" opacity=".02"/></g><g opacity=".95"><path d="M584.89 205.55a1.89 1.89 0 011-2.5 2 2 0 012.57 1 1.91 1.91 0 01-1.05 2.52 2 2 0 01-2.53-1" fill="#0e6ffa" opacity=".02"/></g><g opacity=".95"><path d="M587.39 211.78a2 2 0 011.11-2.49 1.9 1.9 0 012.5 1.05 1.94 1.94 0 01-3.61 1.44" fill="#0e6ffa" opacity=".02"/></g><path d="M589.88 218.09a1.89 1.89 0 011.12-2.45 2 2 0 012.52 1.1 1.87 1.87 0 01-1.14 2.45 2 2 0 01-2.5-1.1" fill="#fff2c0"/><g opacity=".95"><path d="M592.1 224.42a2 2 0 011.22-2.44 1.91 1.91 0 012.45 1.17 1.94 1.94 0 01-1.23 2.45 1.92 1.92 0 01-2.44-1.18" fill="#0e6ffa" opacity=".02"/></g><g opacity=".95"><path d="M592.1 224.42a2 2 0 011.22-2.44 1.91 1.91 0 012.45 1.17 1.94 1.94 0 01-1.23 2.45 1.92 1.92 0 01-2.44-1.18" fill="#0e6ffa" opacity=".02"/></g><g opacity=".95"><path d="M571.49 178.28a1.91 1.91 0 01.75-2.6 2 2 0 012.65.71 1.89 1.89 0 01-.75 2.6 2 2 0 01-2.65-.71" fill="#0e6ffa" opacity=".02"/></g><g opacity=".95"><path d="M421.24 34.57A1.93 1.93 0 01420 32.1a2 2 0 012.55-1.19 2 2 0 011.2 2.52 2 2 0 01-2.53 1.14" fill="#0e6ffa" opacity=".02"/></g><g opacity=".95"><path d="M421.24 34.57A1.93 1.93 0 01420 32.1a2 2 0 012.55-1.19 2 2 0 011.2 2.52 2 2 0 01-2.53 1.14" fill="#0e6ffa" opacity=".02"/></g><g opacity=".95"><path d="M413.3 31.88a2 2 0 01-1.3-2.49 2 2 0 111.28 2.49" fill="#0e6ffa" opacity=".02"/></g><g opacity=".95"><path d="M413.3 31.88a2 2 0 01-1.3-2.49 2 2 0 111.28 2.49" fill="#0e6ffa" opacity=".02"/></g><g opacity=".95"><path d="M569.88 151.36a2 2 0 01.53-2.75 1.93 1.93 0 012.71.59 2 2 0 01-.55 2.75 1.94 1.94 0 01-2.69-.59" fill="#0e6ffa" opacity=".02"/></g><g opacity=".95"><path d="M569.88 151.36a2 2 0 01.53-2.75 1.93 1.93 0 012.71.59 2 2 0 01-.55 2.75 1.94 1.94 0 01-2.69-.59" fill="#0e6ffa" opacity=".02"/></g><g opacity=".95"><path d="M519.74 93.59a2 2 0 01-.21-2.76 2 2 0 012.81-.14 1.92 1.92 0 01.2 2.75 2 2 0 01-2.8.15" fill="#0e6ffa" opacity=".02"/></g><path d="M513.49 88.17a2 2 0 01-.25-2.78 1.94 1.94 0 012.76-.19 2 2 0 01.24 2.79 2 2 0 01-2.76.18" fill="#f8b09e"/><g opacity=".95"><path d="M609.64 238.28a1.95 1.95 0 112.42 1.4 2 2 0 01-2.42-1.4" fill="#0e6ffa" opacity=".02"/></g><g opacity=".95"><path d="M609.64 238.28a1.95 1.95 0 112.42 1.4 2 2 0 01-2.42-1.4" fill="#0e6ffa" opacity=".02"/></g><path d="M607.35 230.21a2 2 0 011.27-2.47 2 2 0 012.45 1.33 2 2 0 01-1.32 2.49 1.94 1.94 0 01-2.4-1.35" fill="#fff2c0"/><path d="M604.75 222.36a1.95 1.95 0 112.48 1.27 2 2 0 01-2.48-1.27" fill="#dfecfb"/><g opacity=".95"><path d="M602.24 215a1.93 1.93 0 011.1-2.52 2 2 0 011.37 3.73 1.94 1.94 0 01-2.47-1.21" fill="#0e6ffa" opacity=".02"/></g><g opacity=".95"><path d="M602.24 215a1.93 1.93 0 011.1-2.52 2 2 0 011.37 3.73 1.94 1.94 0 01-2.47-1.21" fill="#0e6ffa" opacity=".02"/></g><g opacity=".95"><path d="M589.78 383.35a1.89 1.89 0 011.48 2.23 9.62 9.62 0 00-.06 4 10.05 10.05 0 001.33 3.69 11 11 0 006.44 4.91 1.91 1.91 0 11-1 3.67 15.35 15.35 0 01-8.76-6.8 14.26 14.26 0 01-1.68-10.41 1.85 1.85 0 012.29-1.32" fill="#0e6ffa" opacity=".02"/></g><g opacity=".95"><path d="M574.92 252a1.86 1.86 0 012.65 1.1c1.21 5.42 7.38 8.79 13.47 7.5a2 2 0 012 .74 1.94 1.94 0 01-1.32 3c-8.17 1.54-16.33-3-18-10.24a1.94 1.94 0 011.13-2.12" fill="#0e6ffa" opacity=".02"/></g><g opacity=".95"><path d="M458.24 561.27a1.81 1.81 0 01-.82 2.08 10.86 10.86 0 00-3.87 14.33 1.89 1.89 0 01-.36 2.27 1.93 1.93 0 01-3-.55 15.25 15.25 0 01-1.07-11 14.43 14.43 0 016.4-8.4 1.93 1.93 0 012.76 1.28" fill="#0e6ffa" opacity=".02"/></g><g opacity=".95"><path d="M607.66 333.71l.36-14.24a1.9 1.9 0 011.91-1.91 2 2 0 012 1.91l-.37 14.43a1.94 1.94 0 01-2.07 1.81 1.9 1.9 0 01-1.81-2" fill="#0e6ffa" opacity=".02"/></g><g opacity=".95"><path d="M579.22 356.51l1.23-9.69c.31-3.24.5-6.49.77-9.74a1.52 1.52 0 01.22-.68 2 2 0 012.12-.84 1.9 1.9 0 011.32.94 1.47 1.47 0 01.18.85l-.77 9.76-1.24 9.72a1.48 1.48 0 01-.25.67 1.93 1.93 0 01-2.15.67 1.88 1.88 0 01-1.43-1.66" fill="#0e6ffa" opacity=".02"/></g><g opacity=".95"><path d="M581.67 328c.05-3.26.22-6.52.21-9.78l-.26-9.78a1.55 1.55 0 01.15-.7 2.06 2.06 0 012-1.07 1.92 1.92 0 011.41.8 1.5 1.5 0 01.26.82l.25 9.81c0 3.27-.15 6.54-.2 9.8a1.52 1.52 0 01-.18.7 2 2 0 01-2.08.91 1.88 1.88 0 01-1.59-1.51" fill="#0e6ffa" opacity=".02"/></g><g opacity=".95"><path d="M566.14 355.66l.83-6.59a1.37 1.37 0 01.25-.63 2.09 2.09 0 012.16-.68 1.94 1.94 0 011.28 1 1.34 1.34 0 01.13.81l-.84 6.69a1.37 1.37 0 01-.25.64 2 2 0 01-2.14.62 2.1 2.1 0 01-1.28-1 1.44 1.44 0 01-.14-.81" fill="#0e6ffa" opacity=".02"/></g><g opacity=".95"><path d="M592.28 360.5l1.38-10.92a1.85 1.85 0 01.26-.71 2 2 0 012.17-.8 1.92 1.92 0 011.27 1 1.6 1.6 0 01.12.89l-1.4 11.08a1.6 1.6 0 01-.25.7 2 2 0 01-2.21.7 1.91 1.91 0 01-1.22-1.08 1.75 1.75 0 01-.12-.9" fill="#0e6ffa" opacity=".02"/></g><g opacity=".95"><path d="M594.47 340l.51-6.9.17-6.92.18-6.93-.17-6.92a1.82 1.82 0 011.28-1.76 1.92 1.92 0 012.6 1.67l.18 7-.18 7-.17 7-.52 7a1.81 1.81 0 01-1.46 1.63 1.94 1.94 0 01-2.42-1.93" fill="#0e6ffa" opacity=".02"/></g><g opacity=".95"><path d="M567.66 342.65l.81-10.84.27-10.87a1.74 1.74 0 011.37-1.56 1.87 1.87 0 012.52 1.59l-.27 11-.83 11a1.64 1.64 0 01-1.44 1.45 2 2 0 01-2.43-1.81" fill="#0e6ffa" opacity=".02"/></g><g opacity=".95"><path d="M568.65 313.86l-.17-7.29a1.66 1.66 0 011.22-1.57 1.92 1.92 0 012.66 1.44l.18 7.4a1.68 1.68 0 01-1.29 1.6 1.94 1.94 0 01-2.6-1.53z" fill="#0e6ffa" opacity=".02"/></g><g opacity=".95"><path d="M586.07 458.78c2.28-4.48 4.66-8.91 6.63-13.53s4.2-9.14 5.95-13.86a1.95 1.95 0 113.61 1.45c-1.77 4.78-3.92 9.39-6 14s-4.41 9.18-6.72 13.71a2 2 0 01-2.63.87 2 2 0 01-.82-2.67" fill="#0e6ffa" opacity=".02"/></g><g opacity=".95"><path d="M603.59 418.19l3.19-9.51 2.74-9.65c.45-1.62.94-3.22 1.35-4.84l1.13-4.88 2.23-9.79a1.9 1.9 0 011.63-1.58 2 2 0 012.14 2.36l-2.26 9.91-1.14 5c-.42 1.64-.91 3.26-1.37 4.9l-2.77 9.77-3.24 9.64a1.94 1.94 0 01-1.86 1.35 2 2 0 01-1.81-2.63" fill="#0e6ffa" opacity=".02"/></g><g opacity=".95"><path d="M544 428.07l4.24-9.36a1.73 1.73 0 011.87-.89 1.86 1.86 0 011.7 2.44l-4.31 9.51a1.72 1.72 0 01-1.91.82 1.88 1.88 0 01-1.59-2.51z" fill="#0e6ffa" opacity=".02"/></g><g opacity=".95"><path d="M551.74 410c1.79-4.21 3.15-8.57 4.63-12.89a1.7 1.7 0 011.76-1.07 1.89 1.89 0 011.93 2.28c-1.5 4.39-2.89 8.82-4.7 13.1a1.67 1.67 0 01-1.81 1 1.92 1.92 0 01-1.81-2.39z" fill="#0e6ffa" opacity=".02"/></g><g opacity=".95"><path d="M619.15 348.34a299.8 299.8 0 00.24-55.24 2 2 0 011.18-2 1.93 1.93 0 012.7 1.66 303.87 303.87 0 01-.24 55.94 1.91 1.91 0 01-1.48 1.76 2 2 0 01-2.4-2.13" fill="#0e6ffa" opacity=".02"/></g><g opacity=".95"><path d="M426 588.32c-4.42 1.74-8.81 3.55-13.34 5a1.87 1.87 0 00-1.27 1.83A1.94 1.94 0 00414 597c4.59-1.45 9-3.28 13.51-5a1.86 1.86 0 001.19-1.9 2 2 0 00-2.64-1.71" fill="#0e6ffa" opacity=".02"/></g><g opacity=".95"><path d="M395.87 598.53l-5.56 1.57-5.62 1.3c-3.77.81-7.48 1.86-11.29 2.44a1.88 1.88 0 00-1.53 1.62 2 2 0 002.27 2.2c3.87-.59 7.63-1.66 11.44-2.48l5.71-1.31 5.63-1.6a1.9 1.9 0 001.39-1.77 2 2 0 00-2.44-2" fill="#0e6ffa" opacity=".02"/></g><g opacity=".95"><path d="M427.67 573.92c-4.21 1.87-8.56 3.42-12.83 5.16s-8.72 3-13.07 4.51a1.88 1.88 0 00-1.24 1.8 1.9 1.9 0 002.47 1.91c4.41-1.54 8.88-2.92 13.26-4.57s8.73-3.34 13-5.24a1.84 1.84 0 001-1.93 1.91 1.91 0 00-2.6-1.64" fill="#0e6ffa" opacity=".02"/></g><g opacity=".95"><path d="M421.39 547.64c-3.29 1.5-6.57 3-10 4.26s-6.67 2.78-10.13 3.83a1.66 1.66 0 00-1 1.75 1.94 1.94 0 002.34 1.92c3.51-1.07 6.85-2.6 10.28-3.89s6.78-2.8 10.12-4.33a1.69 1.69 0 00.88-1.86 1.93 1.93 0 00-2.49-1.68" fill="#0e6ffa" opacity=".02"/></g><g opacity=".95"><path d="M394.62 558c-2.27.85-4.63 1.4-6.95 2.08a1.66 1.66 0 00-1.13 1.7 1.91 1.91 0 002.21 2c2.36-.7 4.76-1.26 7.07-2.11a1.73 1.73 0 001.07-1.77 1.89 1.89 0 00-2.27-1.94" fill="#0e6ffa" opacity=".02"/></g><g opacity=".95"><path d="M443.6 594.43a302.39 302.39 0 01-52.13 18.29 1.9 1.9 0 00-1.51 1.71 2 2 0 002.46 2.06 306.2 306.2 0 0052.8-18.49 1.94 1.94 0 001.18-2 2 2 0 00-2.8-1.55" fill="#0e6ffa" opacity=".02"/></g><g opacity=".95"><path d="M534.18 530.79A295.69 295.69 0 00555 507.15a1.95 1.95 0 113 2.43 301 301 0 01-21 23.93 1.94 1.94 0 01-2.26.44 2 2 0 01-.52-3.17z" fill="#0e6ffa" opacity=".02"/></g><g opacity=".95"><path d="M484.87 556.3l5.8-4.13c1.93-1.38 3.75-2.91 5.63-4.36a1.89 1.89 0 012.23-.07 1.94 1.94 0 01.16 3.14c-1.91 1.47-3.75 3-5.7 4.42l-5.89 4.18a1.88 1.88 0 01-2.24 0 2 2 0 010-3.15" fill="#0e6ffa" opacity=".02"/></g><g opacity=".95"><path d="M540.15 505.54c1.88-2.07 3.53-4.34 5.27-6.52a1.88 1.88 0 012.16-.59 1.94 1.94 0 01.89 3c-1.78 2.22-3.45 4.52-5.36 6.62a1.94 1.94 0 01-3-2.5z" fill="#0e6ffa" opacity=".02"/></g><g opacity=".95"><path d="M509.85 536.57c3-2.46 5.7-5.17 8.49-7.82l4.19-4c1.38-1.34 2.67-2.77 4-4.16a1.87 1.87 0 012.2-.38 1.94 1.94 0 01.59 3.09c-1.36 1.4-2.67 2.85-4.06 4.21l-4.24 4c-2.83 2.69-5.61 5.44-8.61 7.93a1.9 1.9 0 01-2.25.19 1.93 1.93 0 01-.32-3.11" fill="#0e6ffa" opacity=".02"/></g><g opacity=".95"><path d="M433.84 585.06l8.52-3.85c2.84-1.29 5.56-2.81 8.35-4.2a1.9 1.9 0 012.22.36 1.93 1.93 0 01-.44 3.1c-2.82 1.41-5.59 2.95-8.46 4.26l-8.64 3.9a1.85 1.85 0 01-2.18-.47 2 2 0 01.63-3.1" fill="#0e6ffa" opacity=".02"/></g><g opacity=".95"><path d="M552.85 489.24c3.08-4.32 6.2-8.61 9-13.13l4.29-6.7 4-6.9a1.9 1.9 0 012-.91 1.93 1.93 0 011.33 2.84l-4 7-4.35 6.79c-2.81 4.59-6 8.93-9.09 13.31a1.86 1.86 0 01-2.13.7 2 2 0 01-1-3" fill="#0e6ffa" opacity=".02"/></g><g opacity=".95"><path d="M594.23 407.63c1-2.63 1.61-5.35 2.4-8a1.88 1.88 0 011.77-1.37 1.94 1.94 0 012 2.45c-.81 2.72-1.46 5.49-2.44 8.16a1.94 1.94 0 01-3.7-1.19z" fill="#0e6ffa" opacity=".02"/></g><g opacity=".95"><path d="M578.74 446.24c3.25-7 6.55-13.95 9.24-21.16a1.91 1.91 0 011.9-1.2 1.93 1.93 0 011.72 2.62c-2.73 7.32-6.07 14.38-9.37 21.45a1.94 1.94 0 01-3.49-1.71" fill="#0e6ffa" opacity=".02"/></g><g opacity=".95"><path d="M598.88 391.7c2.88-12.2 5.57-24.49 6.9-37a2 2 0 012.17-1.66 1.91 1.91 0 011.69 2.13c-1.35 12.66-4.07 25.11-7 37.48a2 2 0 01-2.4 1.35 1.87 1.87 0 01-1.36-2.32" fill="#0e6ffa" opacity=".02"/></g><g opacity=".95"><path d="M443.16 551.54c5.57-3.22 11.25-6.24 16.59-9.84a1.46 1.46 0 01.67-.24 2 2 0 011.94 1.21 2 2 0 010 1.62 1.46 1.46 0 01-.58.65c-5.41 3.65-11.18 6.72-16.83 10a1.72 1.72 0 01-.7.17 2 2 0 01-1.84-1.37 1.91 1.91 0 01.1-1.61 1.45 1.45 0 01.62-.58" fill="#0e6ffa" opacity=".02"/></g><g opacity=".95"><path d="M465.23 538.2l9.21-6.53a1.43 1.43 0 01.66-.27 2.07 2.07 0 012 1.08 1.88 1.88 0 01.13 1.61 1.37 1.37 0 01-.54.67l-9.34 6.63a1.46 1.46 0 01-.68.24 2 2 0 01-2-1.18 1.9 1.9 0 01-.06-1.61 1.46 1.46 0 01.56-.64" fill="#0e6ffa" opacity=".02"/></g><g opacity=".95"><path d="M479.79 527.56c2.94-2.35 6-4.57 8.77-7.1a1.39 1.39 0 01.62-.33 2.06 2.06 0 012.34 2.53 1.59 1.59 0 01-.48.73c-2.83 2.58-5.92 4.83-8.9 7.21a1.57 1.57 0 01-.65.31 2 2 0 01-2-1 2 2 0 01-.19-1.62 1.56 1.56 0 01.51-.7" fill="#0e6ffa" opacity=".02"/></g><g opacity=".95"><path d="M431.46 542.82l5.92-3a1.44 1.44 0 01.65-.18 2 2 0 011.79 1.34 2.06 2.06 0 010 1.62 1.3 1.3 0 01-.58.6l-6 3.06a1.3 1.3 0 01-.67.16 2.12 2.12 0 01-1.66-3 1.47 1.47 0 01.59-.57" fill="#0e6ffa" opacity=".02"/></g><g opacity=".95"><path d="M455.77 559.84c3.18-1.83 6.4-3.61 9.45-5.66a1.55 1.55 0 01.7-.25 2 2 0 011.95 2.84 1.67 1.67 0 01-.62.67c-3.09 2.08-6.35 3.88-9.57 5.74a1.68 1.68 0 01-.72.22 2 2 0 01-1.91-1.27 2 2 0 01.09-1.65 1.62 1.62 0 01.63-.64" fill="#0e6ffa" opacity=".02"/></g><g opacity=".95"><path d="M471.88 549.88c3.83-2.56 7.53-5.32 11.32-8s7.26-5.69 10.9-8.52a1.89 1.89 0 012.63.32 1.91 1.91 0 01-.16 2.69c-3.69 2.87-7.33 5.81-11.06 8.63s-7.58 5.48-11.47 8.08a1.92 1.92 0 01-2.61-.64 1.85 1.85 0 01.45-2.6" fill="#0e6ffa" opacity=".02"/></g><g opacity=".95"><path d="M476.72 513.31c1.9-1.51 3.68-3.16 5.52-4.73a1.7 1.7 0 012.06 0 1.9 1.9 0 01.49 3c-1.88 1.59-3.68 3.27-5.61 4.81a1.73 1.73 0 01-2.08-.06 1.89 1.89 0 01-.38-3" fill="#0e6ffa" opacity=".02"/></g><g opacity=".95"><path d="M513.65 496.2a261.76 261.76 0 0029-38.55 1.8 1.8 0 012-.68 1.88 1.88 0 011.29 2.73 265.19 265.19 0 01-29.38 39.11 1.71 1.71 0 01-2.1.32 1.92 1.92 0 01-.78-2.93" fill="#0e6ffa" opacity=".02"/></g><g opacity=".95"><path d="M384.34 574.63a260.81 260.81 0 0045.27-16.35 1.78 1.78 0 012.07.52 1.89 1.89 0 01-.42 3 265 265 0 01-45.95 16.59 1.73 1.73 0 01-1.93-.89 1.9 1.9 0 011-2.87" fill="#0e6ffa" opacity=".02"/></g><g opacity=".95"><path d="M557.55 429.8a264.17 264.17 0 0016.17-45.33 1.71 1.71 0 011.65-1.28 2 2 0 012.12 2.24 267.78 267.78 0 01-16.41 46 1.71 1.71 0 01-1.88.95 2 2 0 01-1.65-2.59" fill="#0e6ffa" opacity=".02"/></g><g opacity=".95"><path d="M528.77 455c1.83-2.9 3.8-5.74 5.43-8.77a1.65 1.65 0 011.92-.68 1.93 1.93 0 011.43 2.66c-1.66 3.07-3.65 5.94-5.51 8.89a1.66 1.66 0 01-2 .6 1.93 1.93 0 01-1.3-2.71z" fill="#0e6ffa" opacity=".02"/></g><g opacity=".95"><path d="M541.66 483.08c5.37-7.36 10.42-14.95 15.06-22.79a1.78 1.78 0 012-.82 2 2 0 011.34 2.81c-4.71 8-9.83 15.65-15.27 23.12a1.8 1.8 0 01-2.08.63 2 2 0 01-1.06-2.94z" fill="#0e6ffa" opacity=".02"/></g><g opacity=".95"><path d="M500.71 527.7l3.48-3 3.34-3.17 6.66-6.35c4.17-4.5 8.61-8.76 12.52-13.5a1.95 1.95 0 012.93 2.56c-4 4.8-8.46 9.12-12.7 13.68l-6.75 6.45-3.39 3.21-3.53 3a1.95 1.95 0 01-2.56-2.92" fill="#0e6ffa" opacity=".02"/></g><g opacity=".95"><path d="M587.36 385.18c1.13-5.06 2.45-10.07 3.24-15.19a1.81 1.81 0 011.61-1.46 1.94 1.94 0 012.21 2.17c-.8 5.2-2.14 10.29-3.28 15.41a1.78 1.78 0 01-1.68 1.37 2 2 0 01-2.1-2.3z" fill="#0e6ffa" opacity=".02"/></g><g opacity=".95"><path d="M561.63 451.75l4.21-8.18 2.1-4.09 1.9-4.19 3.78-8.39 3.37-8.56a1.86 1.86 0 011.88-1.13 1.9 1.9 0 011.75 2.53l-3.42 8.68-3.83 8.5-1.93 4.25-2.13 4.15-4.27 8.3a1.87 1.87 0 01-2 .87 1.91 1.91 0 01-1.38-2.74" fill="#0e6ffa" opacity=".02"/></g><g opacity=".95"><path d="M519.7 468.17l4.93-6.93a1.72 1.72 0 012-.52 1.87 1.87 0 011.2 2.73l-5 7a1.62 1.62 0 01-2 .49 2 2 0 01-1.14-2.81" fill="#0e6ffa" opacity=".02"/></g><g opacity=".95"><path d="M480.43 574.39a304.2 304.2 0 0043.69-33.8 2 2 0 012.76 0 2 2 0 01-.11 2.8 308.16 308.16 0 01-44.25 34.23 2 2 0 01-2.72-.57 2 2 0 01.63-2.71" fill="#0e6ffa" opacity=".02"/></g><g opacity=".95"><path d="M588.05 256.51a1.95 1.95 0 112.3 1.34 1.9 1.9 0 01-2.3-1.34" fill="#0e6ffa" opacity=".02"/></g><g opacity=".95"><path d="M588.05 256.51a1.95 1.95 0 112.3 1.34 1.9 1.9 0 01-2.3-1.34" fill="#0e6ffa" opacity=".02"/></g><g opacity=".95"><path d="M581.05 300.3a2 2 0 013.88-.27 1.84 1.84 0 01-1.81 1.87 1.89 1.89 0 01-2.07-1.6" fill="#0e6ffa" opacity=".02"/></g><g opacity=".95"><path d="M580.5 293a1.88 1.88 0 011.76-1.92 1.82 1.82 0 012.11 1.54 1.9 1.9 0 01-1.8 1.92 1.82 1.82 0 01-2.07-1.54" fill="#0e6ffa" opacity=".02"/></g><g opacity=".95"><path d="M580.5 293a1.88 1.88 0 011.76-1.92 1.82 1.82 0 012.11 1.54 1.9 1.9 0 01-1.8 1.92 1.82 1.82 0 01-2.07-1.54" fill="#0e6ffa" opacity=".02"/></g><g opacity=".95"><path d="M567.91 299.21a1.85 1.85 0 011.82-1.8 1.68 1.68 0 11.25 3.3 1.83 1.83 0 01-2.07-1.5" fill="#0e6ffa" opacity=".02"/></g><g opacity=".95"><path d="M567.91 299.21a1.85 1.85 0 011.82-1.8 1.68 1.68 0 11.25 3.3 1.83 1.83 0 01-2.07-1.5" fill="#0e6ffa" opacity=".02"/></g><g opacity=".95"><path d="M567.34 292.28a1.78 1.78 0 011.72-1.84 1.87 1.87 0 012.15 1.43 1.78 1.78 0 01-1.75 1.85 1.88 1.88 0 01-2.12-1.44" fill="#0e6ffa" opacity=".02"/></g><g opacity=".95"><path d="M564.88 363a1.84 1.84 0 012.21-1.28 1.8 1.8 0 011.63 2 2 2 0 01-3.84-.68" fill="#0e6ffa" opacity=".02"/></g><g opacity=".95"><path d="M540.83 434.18a2 2 0 111 2.36 1.84 1.84 0 01-1-2.36" fill="#0e6ffa" opacity=".02"/></g><g opacity=".95"><path d="M537.76 440a1.9 1.9 0 012.53-.49 1.77 1.77 0 01.88 2.37 1.84 1.84 0 01-2.53.49 1.78 1.78 0 01-.88-2.37" fill="#0e6ffa" opacity=".02"/></g><g opacity=".95"><path d="M537.76 440a1.9 1.9 0 012.53-.49 1.77 1.77 0 01.88 2.37 1.84 1.84 0 01-2.53.49 1.78 1.78 0 01-.88-2.37" fill="#0e6ffa" opacity=".02"/></g><path d="M515.76 473.26a1.85 1.85 0 012.56-.1 1.68 1.68 0 11-2.56.1" fill="#fff2c0"/><path d="M511.69 478.46a1.78 1.78 0 012.52-.07 1.86 1.86 0 01.48 2.54 1.84 1.84 0 01-2.57 0 1.79 1.79 0 01-.43-2.49" fill="#dfecfb"/><g opacity=".95"><path d="M471.65 517.28a2 2 0 012.39 3.07 1.79 1.79 0 01-2.49-.51 1.85 1.85 0 01.1-2.56" fill="#0e6ffa" opacity=".02"/></g><g opacity=".95"><path d="M466.41 521.29a1.87 1.87 0 012.5.61 1.77 1.77 0 01-.2 2.52 1.85 1.85 0 01-2.5-.61 1.78 1.78 0 01.2-2.52" fill="#0e6ffa" opacity=".02"/></g><g opacity=".95"><path d="M466.41 521.29a1.87 1.87 0 012.5.61 1.77 1.77 0 01-.2 2.52 1.85 1.85 0 01-2.5-.61 1.78 1.78 0 01.2-2.52" fill="#0e6ffa" opacity=".02"/></g><g opacity=".95"><path d="M426.64 545.27a1.78 1.78 0 012.32 1 1.68 1.68 0 11-3 1.43 1.77 1.77 0 01.66-2.42" fill="#0e6ffa" opacity=".02"/></g><g opacity=".95"><path d="M426.64 545.27a1.78 1.78 0 012.32 1 1.68 1.68 0 11-3 1.43 1.77 1.77 0 01.66-2.42" fill="#0e6ffa" opacity=".02"/></g><g opacity=".95"><path d="M576.07 373.92a1.93 1.93 0 012.3-1.29 1.8 1.8 0 011.51 2.1 1.91 1.91 0 01-2.3 1.29 1.84 1.84 0 01-1.51-2.1" fill="#0e6ffa" opacity=".02"/></g><g opacity=".95"><path d="M576.07 373.92a1.93 1.93 0 012.3-1.29 1.8 1.8 0 011.51 2.1 1.91 1.91 0 01-2.3 1.29 1.84 1.84 0 01-1.51-2.1" fill="#0e6ffa" opacity=".02"/></g><g opacity=".95"><path d="M577.43 366.75a2 2 0 013.83.7 1.84 1.84 0 01-2.22 1.36 1.88 1.88 0 01-1.61-2.06" fill="#0e6ffa" opacity=".02"/></g><path d="M550.32 444.21a1.81 1.81 0 012.5-.63 1.91 1.91 0 01.92 2.48 1.83 1.83 0 01-2.54.59 1.87 1.87 0 01-.88-2.44" fill="#f8b09e"/><path d="M553.64 437.7a1.88 1.88 0 012.53-.66 1.83 1.83 0 011 2.42 2 2 0 01-3.48-1.76" fill="#fff2c0"/><path d="M546.68 450.6a2 2 0 013.37 1.94 1.84 1.84 0 01-2.55.54 1.88 1.88 0 01-.82-2.48" fill="#84dcac"/><path d="M561.25 378a1.81 1.81 0 012.26-1.15 1.83 1.83 0 011.52 2.06 1.78 1.78 0 01-2.26 1.15 1.86 1.86 0 01-1.52-2.06" fill="#f8b09e"/><path d="M562.81 371.22a1.89 1.89 0 012.28-1.2 1.77 1.77 0 011.53 2 1.86 1.86 0 01-2.28 1.2 1.79 1.79 0 01-1.53-2" fill="#fff2c0"/><path d="M559.53 384.72a1.87 1.87 0 012.33-1.07 1.78 1.78 0 011.43 2.09 1.83 1.83 0 01-2.33 1.07 1.81 1.81 0 01-1.43-2.09" fill="#84dcac"/><g opacity=".95"><path d="M509.1 500.89a1.87 1.87 0 012.61.08 1.84 1.84 0 01.21 2.6 2 2 0 01-2.82-2.68" fill="#0e6ffa" opacity=".02"/></g><g opacity=".95"><path d="M498.71 511.24a2 2 0 11.07 2.61 1.88 1.88 0 01-.07-2.61" fill="#0e6ffa" opacity=".02"/></g><g opacity=".95"><path d="M498.71 511.24a2 2 0 11.07 2.61 1.88 1.88 0 01-.07-2.61" fill="#0e6ffa" opacity=".02"/></g><g opacity=".95"><path d="M493.66 515.91a1.9 1.9 0 012.61.31 1.81 1.81 0 010 2.59 1.88 1.88 0 01-2.61-.32 1.82 1.82 0 010-2.58" fill="#0e6ffa" opacity=".02"/></g><g opacity=".95"><path d="M493.66 515.91a1.9 1.9 0 012.61.31 1.81 1.81 0 010 2.59 1.88 1.88 0 01-2.61-.32 1.82 1.82 0 010-2.58" fill="#0e6ffa" opacity=".02"/></g><g opacity=".95"><path d="M436.69 554.73a2 2 0 11-.67 2.53 1.89 1.89 0 01.67-2.53" fill="#0e6ffa" opacity=".02"/></g><g opacity=".95"><path d="M436.69 554.73a2 2 0 11-.67 2.53 1.89 1.89 0 01.67-2.53" fill="#0e6ffa" opacity=".02"/></g><g opacity=".95"><path d="M579.94 410.24a1.95 1.95 0 013.67 1.28 1.86 1.86 0 01-2.42 1.09 1.92 1.92 0 01-1.25-2.37" fill="#0e6ffa" opacity=".02"/></g><g opacity=".95"><path d="M582.4 403a1.94 1.94 0 012.42-1.14 1.84 1.84 0 011.29 2.32 1.92 1.92 0 01-2.44 1.14 1.86 1.86 0 01-1.27-2.32" fill="#0e6ffa" opacity=".02"/></g><g opacity=".95"><path d="M582.4 403a1.94 1.94 0 012.42-1.14 1.84 1.84 0 011.29 2.32 1.92 1.92 0 01-2.44 1.14 1.86 1.86 0 01-1.27-2.32" fill="#0e6ffa" opacity=".02"/></g><g opacity=".95"><path d="M532.2 495.31a1.83 1.83 0 012.62-.2 1.83 1.83 0 11-2.31 2.82 1.87 1.87 0 01-.31-2.62" fill="#0e6ffa" opacity=".02"/></g><g opacity=".95"><path d="M536.94 489.26a1.92 1.92 0 012.66-.24 1.87 1.87 0 01.41 2.63 1.95 1.95 0 01-3.07-2.39" fill="#0e6ffa" opacity=".02"/></g><g opacity=".95"><path d="M536.94 489.26a1.92 1.92 0 012.66-.24 1.87 1.87 0 01.41 2.63 1.95 1.95 0 01-3.07-2.39" fill="#0e6ffa" opacity=".02"/></g><g opacity=".95"><path d="M441.75 567.34a1.87 1.87 0 012.49.9 1.92 1.92 0 01-.76 2.58 1.86 1.86 0 01-2.49-.91 1.92 1.92 0 01.76-2.57" fill="#0e6ffa" opacity=".02"/></g><g opacity=".95"><path d="M441.75 567.34a1.87 1.87 0 012.49.9 1.92 1.92 0 01-.76 2.58 1.86 1.86 0 01-2.49-.91 1.92 1.92 0 01.76-2.57" fill="#0e6ffa" opacity=".02"/></g><g opacity=".95"><path d="M435 570.6a1.94 1.94 0 012.49 1 1.85 1.85 0 01-.84 2.51 1.92 1.92 0 01-2.49-1 1.88 1.88 0 01.84-2.52" fill="#0e6ffa" opacity=".02"/></g><g opacity=".95"><path d="M435 570.6a1.94 1.94 0 012.49 1 1.85 1.85 0 01-.84 2.51 1.92 1.92 0 01-2.49-1 1.88 1.88 0 01.84-2.52" fill="#0e6ffa" opacity=".02"/></g><g opacity=".95"><path d="M386.68 587.91a1.95 1.95 0 011 3.77 2 2 0 01-2.26-1.48 1.85 1.85 0 011.3-2.29" fill="#0e6ffa" opacity=".02"/></g><g opacity=".95"><path d="M379.37 589.59a1.95 1.95 0 11-1.37 2.31 1.91 1.91 0 011.35-2.31" fill="#0e6ffa" opacity=".02"/></g><g opacity=".95"><path d="M379.37 589.59a1.95 1.95 0 11-1.37 2.31 1.91 1.91 0 011.35-2.31" fill="#0e6ffa" opacity=".02"/></g><g opacity=".95"><path d="M394.07 585.83a1.91 1.91 0 012.29 1.38 1.83 1.83 0 11-2.29-1.38" fill="#0e6ffa" opacity=".02"/></g><g opacity=".95"><path d="M394.07 585.83a1.91 1.91 0 012.29 1.38 1.83 1.83 0 11-2.29-1.38" fill="#0e6ffa" opacity=".02"/></g><g opacity=".95"><path d="M604.26 272.76a1.91 1.91 0 011.59-2.19 2 2 0 012.26 1.57 1.89 1.89 0 01-1.59 2.19 2 2 0 01-2.26-1.57" fill="#0e6ffa" opacity=".02"/></g><g opacity=".95"><path d="M604.26 272.76a1.91 1.91 0 011.59-2.19 2 2 0 012.26 1.57 1.89 1.89 0 01-1.59 2.19 2 2 0 01-2.26-1.57" fill="#0e6ffa" opacity=".02"/></g><g opacity=".95"><path d="M605.43 281a2 2 0 011.69-2.15 1.91 1.91 0 11-1.69 2.15" fill="#0e6ffa" opacity=".02"/></g><path d="M607.78 310.36a2 2 0 011.89-2 1.91 1.91 0 11-1.89 2" fill="#fff2c0"/><path d="M607.12 340.66a2 2 0 012.09-1.76 1.91 1.91 0 11-.29 3.81 1.94 1.94 0 01-1.8-2" fill="#84dcac"/><path d="M606.58 347.8a1.9 1.9 0 012.08-1.72 2 2 0 011.79 2.1 1.9 1.9 0 01-2.12 1.71 2 2 0 01-1.75-2.09" fill="#dfecfb"/><g opacity=".95"><path d="M591.18 416.57a1.9 1.9 0 012.44-1.15 2 2 0 011.22 2.46 1.87 1.87 0 01-2.44 1.12 2 2 0 01-1.22-2.46" fill="#0e6ffa" opacity=".02"/></g><g opacity=".95"><path d="M591.18 416.57a1.9 1.9 0 012.44-1.15 2 2 0 011.22 2.46 1.87 1.87 0 01-2.44 1.12 2 2 0 01-1.22-2.46" fill="#0e6ffa" opacity=".02"/></g><g opacity=".95"><path d="M574.5 454.44a1.91 1.91 0 012.59-.78 1.94 1.94 0 01.85 2.6 1.88 1.88 0 01-2.58.79 2 2 0 01-.86-2.61" fill="#0e6ffa" opacity=".02"/></g><g opacity=".95"><path d="M574.5 454.44a1.91 1.91 0 012.59-.78 1.94 1.94 0 01.85 2.6 1.88 1.88 0 01-2.58.79 2 2 0 01-.86-2.61" fill="#0e6ffa" opacity=".02"/></g><path d="M535.74 510.59a1.95 1.95 0 012.92 2.57 1.9 1.9 0 01-2.71.15 2 2 0 01-.21-2.72" fill="#e2caf1"/><g opacity=".95"><path d="M531.28 515.6a2 2 0 012.75-.06 1.87 1.87 0 01.11 2.69 2 2 0 01-2.75.07 1.9 1.9 0 01-.11-2.7" fill="#0e6ffa" opacity=".02"/></g><g opacity=".95"><path d="M531.28 515.6a2 2 0 012.75-.06 1.87 1.87 0 01.11 2.69 2 2 0 01-2.75.07 1.9 1.9 0 01-.11-2.7" fill="#0e6ffa" opacity=".02"/></g><g opacity=".95"><path d="M478.86 560.45a2 2 0 012.68.57 1.87 1.87 0 01-.52 2.66 2 2 0 01-2.68-.58 1.9 1.9 0 01.52-2.65" fill="#0e6ffa" opacity=".02"/></g><g opacity=".95"><path d="M478.86 560.45a2 2 0 012.68.57 1.87 1.87 0 01-.52 2.66 2 2 0 01-2.68-.58 1.9 1.9 0 01.52-2.65" fill="#0e6ffa" opacity=".02"/></g><path d="M473.21 564.07a1.95 1.95 0 012.09 3.29 1.91 1.91 0 01-2.65-.62 2 2 0 01.56-2.67" fill="#fff2c0"/><g opacity=".95"><path d="M467.48 567.69a2 2 0 012.63.68 1.89 1.89 0 01-.63 2.65 2 2 0 01-2.65-.71 1.89 1.89 0 01.65-2.62" fill="#0e6ffa" opacity=".02"/></g><g opacity=".95"><path d="M461.66 571a1.95 1.95 0 11-.69 2.64 1.92 1.92 0 01.69-2.64" fill="#0e6ffa" opacity=".02"/></g><g opacity=".95"><path d="M461.66 571a1.95 1.95 0 11-.69 2.64 1.92 1.92 0 01.69-2.64" fill="#0e6ffa" opacity=".02"/></g><g opacity=".95"><path d="M404.29 596.11a1.88 1.88 0 012.39 1.24 1.91 1.91 0 11-3.64 1.14 1.89 1.89 0 011.25-2.38" fill="#0e6ffa" opacity=".02"/></g><g opacity=".95"><path d="M404.29 596.11a1.88 1.88 0 012.39 1.24 1.91 1.91 0 11-3.64 1.14 1.89 1.89 0 011.25-2.38" fill="#0e6ffa" opacity=".02"/></g><g opacity=".95"><path d="M503.23 542.28a1.89 1.89 0 012.68.24 2 2 0 01-.2 2.75A1.91 1.91 0 01503 545a2 2 0 01.23-2.71" fill="#0e6ffa" opacity=".02"/></g><g opacity=".95"><path d="M503.23 542.28a1.89 1.89 0 012.68.24 2 2 0 01-.2 2.75A1.91 1.91 0 01503 545a2 2 0 01.23-2.71" fill="#0e6ffa" opacity=".02"/></g><g opacity=".95"><path d="M616.66 368.07a2 2 0 012.27-1.65 1.94 1.94 0 011.57 2.28 2 2 0 01-2.27 1.64 1.94 1.94 0 01-1.57-2.27" fill="#0e6ffa" opacity=".02"/></g><g opacity=".95"><path d="M616.66 368.07a2 2 0 012.27-1.65 1.94 1.94 0 011.57 2.28 2 2 0 01-2.27 1.64 1.94 1.94 0 01-1.57-2.27" fill="#0e6ffa" opacity=".02"/></g><g opacity=".95"><path d="M617.86 359.78a1.94 1.94 0 113.85.52 1.94 1.94 0 01-2.17 1.71 2 2 0 01-1.68-2.23" fill="#0e6ffa" opacity=".02"/></g><g opacity=".95"><path d="M572.47 482.9a1.94 1.94 0 11.56 2.73 2 2 0 01-.56-2.73" fill="#0e6ffa" opacity=".02"/></g><g opacity=".95"><path d="M572.47 482.9a1.94 1.94 0 11.56 2.73 2 2 0 01-.56-2.73" fill="#0e6ffa" opacity=".02"/></g><g opacity=".95"><path d="M529.35 535.69a2 2 0 012.8 0 1.94 1.94 0 01-.08 2.77 2 2 0 01-2.8 0 2 2 0 01.08-2.77" fill="#0e6ffa" opacity=".02"/></g><g opacity=".95"><path d="M529.35 535.69a2 2 0 012.8 0 1.94 1.94 0 01-.08 2.77 2 2 0 01-2.8 0 2 2 0 01.08-2.77" fill="#0e6ffa" opacity=".02"/></g><path d="M577 475.83a1.94 1.94 0 012.66-.72 2 2 0 01.67 2.74 2 2 0 01-2.73.67 2 2 0 01-.6-2.69" fill="#fff2c0"/><g opacity=".95"><path d="M581.1 468.66a2 2 0 012.69-.76 2 2 0 01-2 3.45 2 2 0 01-.7-2.69" fill="#0e6ffa" opacity=".02"/></g><g opacity=".95"><path d="M581.1 468.66a2 2 0 012.69-.76 2 2 0 01-2 3.45 2 2 0 01-.7-2.69" fill="#0e6ffa" opacity=".02"/></g><g opacity=".95"><path d="M451.32 590.89a1.94 1.94 0 012.63.83 2 2 0 01-.92 2.66 1.93 1.93 0 01-2.63-.84 2 2 0 01.92-2.65" fill="#0e6ffa" opacity=".02"/></g><g opacity=".95"><path d="M451.32 590.89a1.94 1.94 0 012.63.83 2 2 0 01-.92 2.66 1.93 1.93 0 01-2.63-.84 2 2 0 01.92-2.65" fill="#0e6ffa" opacity=".02"/></g><path d="M458.78 587.06a2 2 0 012.68.82 2 2 0 01-.87 2.63 2 2 0 01-2.68-.82 2 2 0 01.87-2.63" fill="#f8b09e"/><path d="M466 583.11a2 2 0 012.68.7 2 2 0 01-.78 2.69 1.93 1.93 0 01-2.67-.7 2 2 0 01.77-2.69" fill="#dfecfb"/><path d="M472.81 579.22a2 2 0 012.72.67 1.93 1.93 0 01-.73 2.67 2 2 0 01-2.72-.68 2 2 0 01.73-2.66" fill="#fff2c0"/><g opacity=".95"><path d="M204.72 574.45a1.88 1.88 0 01-2.46 1 10.18 10.18 0 00-7.85-.13 10.87 10.87 0 00-6 5.39 1.9 1.9 0 01-2.57.87A1.94 1.94 0 01185 579a14.82 14.82 0 0118.86-7.06 1.9 1.9 0 01.86 2.52" fill="#0e6ffa" opacity=".02"/></g><g opacity=".95"><path d="M336.48 583.93a1.89 1.89 0 01-1.57 2.42 10.45 10.45 0 00-7.06 3.72 12.12 12.12 0 00-2.8 8.14 2 2 0 01-1.11 1.84 1.93 1.93 0 01-2.73-1.81 16.65 16.65 0 013.93-10.92 14 14 0 019.47-4.87 1.85 1.85 0 011.87 1.48" fill="#0e6ffa" opacity=".02"/></g><g opacity=".95"><path d="M54.08 412.33a1.81 1.81 0 01-1.88-1.2c-1.77-5.24-7.82-8.12-13.39-6.45a1.87 1.87 0 01-2.16-.78 2 2 0 011.13-2.9 15 15 0 0111 1 13.79 13.79 0 017.12 7.83 2 2 0 01-1.79 2.48" fill="#0e6ffa" opacity=".02"/></g><g opacity=".95"><path d="M108.56 457.45a2 2 0 01-.94 1.85c-5.14 3.36-6.7 9.67-3.54 14.06a1.72 1.72 0 01-.06 2 2 2 0 01-3.19.29A12.06 12.06 0 0199 465.47a15.79 15.79 0 016.76-9c1.13-.73 2.61-.34 2.79 1" fill="#0e6ffa" opacity=".02"/></g><g opacity=".95"><path d="M302 621.32a329.76 329.76 0 0049.19-1.41 1.92 1.92 0 012 1.08 2 2 0 01-1.59 2.78 332.79 332.79 0 01-49.81 1.44 2 2 0 01-1.82-1.47 1.92 1.92 0 012-2.42" fill="#0e6ffa" opacity=".02"/></g><g opacity=".95"><path d="M250.17 601.14c4.64 1 9.23 2.25 13.93 3a1.92 1.92 0 011.52 2.25 1.94 1.94 0 01-2.24 1.57c-4.76-.74-9.42-2-14.11-3a1.9 1.9 0 01-1.41-2.32 2 2 0 012.31-1.47" fill="#0e6ffa" opacity=".02"/></g><g opacity=".95"><path d="M319.53 609.15l11.94-.3a2 2 0 011.86 1.26 1.91 1.91 0 01-1.69 2.63l-12.09.3a1.81 1.81 0 01-1.82-1.29 2 2 0 011.8-2.6" fill="#0e6ffa" opacity=".02"/></g><g opacity=".95"><path d="M279.87 606.62c3.57.4 7.11 1 10.69 1.25a1.84 1.84 0 011.68 1.45 2 2 0 01-2 2.42c-3.64-.23-7.23-.86-10.85-1.26a1.89 1.89 0 01-1.62-1.55 2 2 0 012.14-2.31z" fill="#0e6ffa" opacity=".02"/></g><g opacity=".95"><path d="M233.06 569c6.11 2.23 12.42 3.83 18.66 5.65a1.66 1.66 0 01.63.33 2 2 0 01.44 2.21 2 2 0 01-1.17 1.16 1.37 1.37 0 01-.87 0c-6.26-1.83-12.59-3.42-18.72-5.66a1.5 1.5 0 01-.61-.38 2 2 0 01-.26-2.26 1.86 1.86 0 011.9-1.05z" fill="#0e6ffa" opacity=".02"/></g><g opacity=".95"><path d="M260.59 576.74c1.58.35 3.16.77 4.75 1.07l4.81.85c3.21.52 6.39 1.26 9.62 1.62a1.48 1.48 0 01.67.25 2.07 2.07 0 01-.36 3.42 1.55 1.55 0 01-.87.13c-3.24-.36-6.43-1.1-9.65-1.62s-6.43-1.12-9.59-1.92a1.65 1.65 0 01-.65-.32 2 2 0 01-.5-2.22 1.84 1.84 0 011.77-1.26" fill="#0e6ffa" opacity=".02"/></g><g opacity=".95"><path d="M236.33 556.32l6.27 2.13a1.52 1.52 0 01.57.37 2.13 2.13 0 01-.91 3.33 1.35 1.35 0 01-.82 0l-6.37-2.15a1.35 1.35 0 01-.58-.36 2 2 0 01-.2-2.24 2 2 0 011.21-1.05 1.38 1.38 0 01.83 0" fill="#0e6ffa" opacity=".02"/></g><g opacity=".95"><path d="M226.72 581.09c3.48 1.13 6.92 2.44 10.45 3.44a1.67 1.67 0 01.65.36 2 2 0 01-.87 3.33 1.65 1.65 0 01-.91 0c-3.58-1-7.06-2.34-10.6-3.5a1.61 1.61 0 01-.64-.38 2 2 0 01-.29-2.27 2 2 0 011.31-1 1.62 1.62 0 01.9.06" fill="#0e6ffa" opacity=".02"/></g><g opacity=".95"><path d="M246.44 587.14c4.43 1.26 9 2.13 13.44 3.22s9.07 1.67 13.6 2.54a1.86 1.86 0 011.48 1.62 1.88 1.88 0 01-2.11 2.22c-4.59-.88-9.23-1.53-13.78-2.58s-9.14-2-13.64-3.26a1.87 1.87 0 01-1.33-1.76 1.91 1.91 0 012.34-2" fill="#0e6ffa" opacity=".02"/></g><g opacity=".95"><path d="M248.8 560.22c3.48 1 6.93 2 10.48 2.76s7 1.78 10.58 2.32a1.64 1.64 0 011.28 1.57 1.94 1.94 0 01-2 2.25c-3.63-.56-7.16-1.6-10.74-2.36s-7.11-1.8-10.64-2.8a1.66 1.66 0 01-1.14-1.7 1.94 1.94 0 012.21-2" fill="#0e6ffa" opacity=".02"/></g><g opacity=".95"><path d="M276.8 566.54c2.37.48 4.78.77 7.19 1.06a1.67 1.67 0 011.37 1.51 1.92 1.92 0 01-1.9 2.34c-2.45-.29-4.89-.58-7.3-1.08a1.7 1.7 0 01-1.33-1.58 1.9 1.9 0 012-2.25z" fill="#0e6ffa" opacity=".02"/></g><g opacity=".95"><path d="M335.12 582.42l8.21-.62c2.74-.16 5.44-.65 8.17-1a1.75 1.75 0 011.79 1.11 1.91 1.91 0 01-1.29 2.79c-2.76.31-5.51.8-8.29 1l-8.33.64a1.72 1.72 0 01-1.73-1.2 2 2 0 011.49-2.69" fill="#0e6ffa" opacity=".02"/></g><g opacity=".95"><path d="M303.64 582.64c5.49.15 11 .41 16.48.34a1.7 1.7 0 011.65 1.29 2 2 0 01-1.63 2.6c-5.57.07-11.14-.19-16.71-.34a1.8 1.8 0 01-1.58-1.46 1.89 1.89 0 011.79-2.43" fill="#0e6ffa" opacity=".02"/></g><g opacity=".95"><path d="M355.28 567.19c3.39-.51 6.75-1.2 10.13-1.77a1.73 1.73 0 011.79 1 1.89 1.89 0 01-1.06 2.79c-3.44.58-6.85 1.28-10.3 1.8a1.74 1.74 0 01-1.75-1.12 1.89 1.89 0 011.19-2.73z" fill="#0e6ffa" opacity=".02"/></g><g opacity=".95"><path d="M344.36 595.22c4.54-.37 9.05-1.1 13.57-1.62s9-1.55 13.47-2.29a1.87 1.87 0 012 1 1.9 1.9 0 01-1.22 2.82c-4.55.75-9.07 1.74-13.66 2.32s-9.15 1.27-13.76 1.64a1.84 1.84 0 01-1.85-1.19 1.9 1.9 0 011.49-2.68" fill="#0e6ffa" opacity=".02"/></g><g opacity=".95"><path d="M286.29 594.64c3 .46 6.1.63 9.16.87s6.12.52 9.19.65l9.21.23c1.54 0 3.07.11 4.61.1l4.6-.12a1.8 1.8 0 011.75 1.28 1.93 1.93 0 01-1.68 2.61l-4.67.12c-1.56 0-3.12-.07-4.67-.1l-9.34-.23c-3.11-.14-6.21-.45-9.31-.67s-6.22-.41-9.3-.87a1.86 1.86 0 01-1.57-1.54 1.92 1.92 0 012-2.33" fill="#0e6ffa" opacity=".02"/></g><g opacity=".95"><path d="M131.28 556.8l5.93 4.65 6.14 4.37c2.06 1.45 4.08 2.94 6.16 4.34l6.35 4.07a2 2 0 01.63 2.72 2 2 0 01-2.72.56l-6.43-4.12c-2.11-1.42-4.16-2.93-6.24-4.39l-6.22-4.43-6-4.71a2 2 0 01-.36-2.76 2 2 0 012.77-.3" fill="#0e6ffa" opacity=".02"/></g><g opacity=".95"><path d="M167.92 581.53c5.73 3.45 11.76 6.36 17.7 9.43 3 1.51 6.08 2.8 9.11 4.2s6.08 2.79 9.22 4a1.93 1.93 0 011.25 1.84 2 2 0 01-2.72 1.68c-3.18-1.18-6.25-2.61-9.34-4s-6.2-2.73-9.23-4.25c-6-3.11-12.12-6.06-17.93-9.56a1.94 1.94 0 111.94-3.37" fill="#0e6ffa" opacity=".02"/></g><g opacity=".95"><path d="M335.21 569.3c4.09-.36 8.21-.49 12.27-1.13a1.66 1.66 0 011.7 1.12 1.92 1.92 0 01-1.26 2.74c-4.12.65-8.3.78-12.45 1.15a1.66 1.66 0 01-1.66-1.2 2 2 0 011.4-2.68" fill="#0e6ffa" opacity=".02"/></g><g opacity=".95"><path d="M306.29 569.66l10 .25c3.34.1 6.68-.14 10-.17a1.71 1.71 0 011.62 1.29 1.89 1.89 0 01-1.49 2.59c-3.39 0-6.78.28-10.17.18l-10.17-.25a1.61 1.61 0 01-1.51-1.38 2 2 0 011.69-2.51z" fill="#0e6ffa" opacity=".02"/></g><g opacity=".95"><path d="M233.68 609.76a305.07 305.07 0 0054.24 10.5 1.92 1.92 0 011.75 1.46 2 2 0 01-2.14 2.41 308.48 308.48 0 01-54.94-10.64 1.92 1.92 0 01-1.45-1.79 2 2 0 012.54-1.94" fill="#0e6ffa" opacity=".02"/></g><g opacity=".95"><path d="M70.05 492.55c3 4.29 6 8.59 9.38 12.66l4.87 6.2 5.14 6a1.95 1.95 0 11-2.94 2.55l-5.21-6-4.93-6.28c-3.36-4.12-6.43-8.47-9.5-12.82a2 2 0 010-2.3 2 2 0 013.19.08z" fill="#0e6ffa" opacity=".02"/></g><g opacity=".95"><path d="M54.05 439.4c1 2.15 1.9 4.35 3 6.46l3.24 6.34a1.95 1.95 0 01-3.48 1.8l-3.28-6.42c-1.09-2.14-2-4.37-3-6.55a1.89 1.89 0 01.46-2.2 2 2 0 013.08.59" fill="#0e6ffa" opacity=".02"/></g><g opacity=".95"><path d="M93.73 503.09c1.78 2.16 3.65 4.24 5.46 6.36a1.9 1.9 0 01.19 2.24 1.93 1.93 0 01-3.12.31c-1.85-2.16-3.75-4.27-5.55-6.46a1.94 1.94 0 01-.1-2.27 1.91 1.91 0 013.1-.2z" fill="#0e6ffa" opacity=".02"/></g><g opacity=".95"><path d="M68.8 467.6c1.89 3.35 4.11 6.51 6.14 9.78s4.27 6.41 6.51 9.54a1.91 1.91 0 010 2.24 1.94 1.94 0 01-3.14 0c-2.28-3.17-4.55-6.34-6.6-9.67s-4.31-6.51-6.22-9.91a1.94 1.94 0 013.34-2" fill="#0e6ffa" opacity=".02"/></g><g opacity=".95"><path d="M35.28 383.92c.73 3 1.33 6.1 2.17 9.1L40 402a1.93 1.93 0 01-.78 2.12 1.91 1.91 0 01-2.95-1L33.69 394c-.85-3-1.46-6.15-2.2-9.22a1.88 1.88 0 01.88-2.06 2 2 0 012.91 1.2" fill="#0e6ffa" opacity=".02"/></g><g opacity=".95"><path d="M107.45 518.54l5.49 5.76 5.76 5.49c3.77 3.74 7.84 7.15 11.84 10.63a1.94 1.94 0 01-2.52 3c-4.06-3.52-8.18-7-12-10.77l-5.84-5.56-5.57-5.84a1.86 1.86 0 01-.28-2.22 2 2 0 013.11-.45" fill="#0e6ffa" opacity=".02"/></g><g opacity=".95"><path d="M180 574.34l7.46 3.82a1.89 1.89 0 011 2 1.92 1.92 0 01-2.76 1.47l-7.59-3.89a1.89 1.89 0 01-.94-2 1.92 1.92 0 012.8-1.36z" fill="#0e6ffa" opacity=".02"/></g><g opacity=".95"><path d="M144.94 551.93l9.42 6.7c3.14 2.22 6.45 4.19 9.67 6.3a1.94 1.94 0 01-2.07 3.29c-3.26-2.14-6.62-4.14-9.81-6.39l-9.54-6.78a1.87 1.87 0 01-.65-2.16 1.94 1.94 0 013-1" fill="#0e6ffa" opacity=".02"/></g><g opacity=".95"><path d="M194.84 581.77l8.58 3.88c2.84 1.32 5.81 2.35 8.72 3.53 5.79 2.44 11.78 4.31 17.72 6.34a2 2 0 011.21 2.47 1.87 1.87 0 01-2.39 1.24c-6-2.06-12.09-4-18-6.42-2.94-1.21-6-2.25-8.84-3.59l-8.69-3.93a1.88 1.88 0 01-.92-2.54 2 2 0 012.57-1" fill="#0e6ffa" opacity=".02"/></g><g opacity=".95"><path d="M66.48 399.31l3.09 9.13c1 3 2.33 6 3.47 9a1.39 1.39 0 01.1.7 2 2 0 01-1.55 1.68 1.86 1.86 0 01-1.59-.27 1.47 1.47 0 01-.53-.68c-1.16-3.05-2.48-6-3.52-9.13l-3.14-9.27a1.69 1.69 0 01-.07-.71 2 2 0 011.65-1.54 2 2 0 011.6.39 1.47 1.47 0 01.49.71" fill="#0e6ffa" opacity=".02"/></g><g opacity=".95"><path d="M75.5 423.44l4.65 10.27a1.67 1.67 0 01.17.69 2.06 2.06 0 01-3 1.62 1.54 1.54 0 01-.6-.64L72 425a1.49 1.49 0 01-.14-.7 2 2 0 011.49-1.69 2 2 0 011.63.22 1.62 1.62 0 01.56.66" fill="#0e6ffa" opacity=".02"/></g><g opacity=".95"><path d="M83.23 439.71l2.56 5 2.81 4.89a1.49 1.49 0 01.2.68 2 2 0 01-1.29 1.87 2 2 0 01-1.63 0 1.61 1.61 0 01-.63-.61l-2.84-5-2.61-5.09a1.54 1.54 0 01-.17-.7 2.07 2.07 0 013-1.68 1.56 1.56 0 01.59.63" fill="#0e6ffa" opacity=".02"/></g><g opacity=".95"><path d="M77.19 389.45c.62 2.12 1.14 4.27 1.91 6.35a1.24 1.24 0 01.06.66A2 2 0 0177.5 398a2 2 0 01-1.58-.34 1.47 1.47 0 01-.48-.68c-.78-2.11-1.31-4.29-1.94-6.45a1.31 1.31 0 010-.68 2 2 0 011.72-1.46 2 2 0 011.55.39 1.31 1.31 0 01.44.69" fill="#0e6ffa" opacity=".02"/></g><g opacity=".95"><path d="M56 410.17c1.11 3.5 2.46 6.91 3.83 10.31a1.54 1.54 0 01.11.74 2 2 0 01-1.53 1.71 2 2 0 01-1.62-.32 1.69 1.69 0 01-.54-.73c-1.39-3.46-2.76-6.91-3.88-10.46a1.6 1.6 0 01-.08-.75 2 2 0 011.56-1.67 2 2 0 011.6.39 1.58 1.58 0 01.5.75" fill="#0e6ffa" opacity=".02"/></g><g opacity=".5"><path d="M62.74 427.83c1.93 4.19 3.75 8.43 5.75 12.58s4.14 8.24 6.37 12.27a1.86 1.86 0 01-.79 2.52 1.92 1.92 0 01-2.62-.64c-2.26-4.09-4.29-8.31-6.46-12.45s-3.87-8.51-5.83-12.75a1.88 1.88 0 011.09-2.45 1.91 1.91 0 012.49.92" fill="#0e6ffa" opacity=".02"/></g><g opacity=".95"><path d="M97.78 439.32l3.63 6.29a1.7 1.7 0 01-.37 2 1.89 1.89 0 01-3-.07l-3.68-6.39a1.64 1.64 0 01.41-2 1.94 1.94 0 013 .16" fill="#0e6ffa" opacity=".02"/></g><g opacity=".95"><path d="M107.83 478.72a263.7 263.7 0 0032.53 35.59 1.74 1.74 0 01.34 2.07 2 2 0 01-3 .81 268.92 268.92 0 01-33-36.12 1.71 1.71 0 010-2.1 2 2 0 013.07-.25" fill="#0e6ffa" opacity=".02"/></g><g opacity=".98"><path d="M165 534.12a262.7 262.7 0 0044.67 25.67 1.74 1.74 0 011 1.89 1.9 1.9 0 01-2.55 1.66 267.76 267.76 0 01-45.34-26.05 1.74 1.74 0 01-.57-2 1.94 1.94 0 012.84-1.13" fill="#0e6ffa" opacity=".02"/></g><g opacity=".95"><path d="M145.55 501.18l3.73 3.57 3.91 3.38a1.68 1.68 0 01.31 2 1.91 1.91 0 01-2.87.9l-4-3.42-3.74-3.61a1.68 1.68 0 01-.23-2.05 1.93 1.93 0 012.9-.77z" fill="#0e6ffa" opacity=".02"/></g><g opacity=".95"><path d="M115.57 508.66c3.16 3.28 6.21 6.67 9.59 9.74s6.54 6.36 10.05 9.26a1.81 1.81 0 01.43 2.13 1.93 1.93 0 01-3 .8c-3.56-3-6.84-6.22-10.2-9.4s-6.51-6.55-9.72-9.88a1.78 1.78 0 01-.23-2.16 2 2 0 013.07-.49z" fill="#0e6ffa" opacity=".02"/></g><g opacity=".95"><path d="M79.21 460.24A269.58 269.58 0 00100 490.57a1.9 1.9 0 01-.4 2.64A1.87 1.87 0 0197 493a273.46 273.46 0 01-21.12-30.74 1.92 1.92 0 01.77-2.58 1.87 1.87 0 012.58.59" fill="#0e6ffa" opacity=".02"/></g><g opacity=".95"><path d="M203.38 571.7l7.08 3.19 7.23 2.84a1.84 1.84 0 011.12 1.87 1.9 1.9 0 01-2.53 1.75l-7.28-2.88-7.19-3.23a1.81 1.81 0 01-1-1.92 2 2 0 012.65-1.62z" fill="#0e6ffa" opacity=".02"/></g><g opacity=".95"><path d="M142.7 534.06a295.57 295.57 0 0030 21.34 1.86 1.86 0 01.75 2.06 1.88 1.88 0 01-2.8 1.25 298.48 298.48 0 01-30.4-21.64 1.74 1.74 0 01-.51-2.11 2 2 0 013-.9" fill="#0e6ffa" opacity=".02"/></g><g opacity=".95"><path d="M109.57 458.73c3.84 5.44 7.61 10.94 11.84 16.09a1.7 1.7 0 01-.07 2.06 1.9 1.9 0 01-3 .36c-2.32-3-4.73-5.88-6.84-9s-4.49-6.07-6.43-9.3a1.73 1.73 0 01.26-2.06 1.91 1.91 0 013-.08z" fill="#0e6ffa" opacity=".02"/></g><g opacity=".15"><path d="M37.09 431.69a301.83 301.83 0 0025.17 49.17 1.95 1.95 0 11-3.26 2.08 305.56 305.56 0 01-25.49-49.8 1.95 1.95 0 113.61-1.45" fill="#0e6ffa" opacity=".02"/></g><g opacity=".95"><path d="M359.17 619a2 2 0 012.23 1.68 2 2 0 01-1.71 2.18 1.95 1.95 0 11-.52-3.86" fill="#0e6ffa" opacity=".02"/></g><g opacity=".95"><path d="M367.46 617.73a2 2 0 012.27 1.57 2 2 0 01-1.64 2.27 1.94 1.94 0 01-2.28-1.57 2 2 0 011.65-2.27" fill="#0e6ffa" opacity=".02"/></g><g opacity=".95"><path d="M367.46 617.73a2 2 0 012.27 1.57 2 2 0 01-1.64 2.27 1.94 1.94 0 01-2.28-1.57 2 2 0 011.65-2.27" fill="#0e6ffa" opacity=".02"/></g><g opacity=".95"><path d="M329.67 596.11a1.94 1.94 0 011.9 1.9 1.84 1.84 0 01-1.74 2 1.93 1.93 0 01-1.91-1.9 1.87 1.87 0 011.75-2" fill="#0e6ffa" opacity=".02"/></g><g opacity=".95"><path d="M329.67 596.11a1.94 1.94 0 011.9 1.9 1.84 1.84 0 01-1.74 2 1.93 1.93 0 01-1.91-1.9 1.87 1.87 0 011.75-2" fill="#0e6ffa" opacity=".02"/></g><g opacity=".95"><path d="M279.84 593.73a1.95 1.95 0 01-.53 3.85 1.84 1.84 0 01-1.54-2.15 1.93 1.93 0 012.07-1.7" fill="#0e6ffa" opacity=".02"/></g><g opacity=".95"><path d="M279.84 593.73a1.95 1.95 0 01-.53 3.85 1.84 1.84 0 01-1.54-2.15 1.93 1.93 0 012.07-1.7" fill="#0e6ffa" opacity=".02"/></g><g opacity=".95"><path d="M337.34 595.65a2 2 0 11-1.69 2.08 1.93 1.93 0 011.69-2.08" fill="#0e6ffa" opacity=".02"/></g><g opacity=".95"><path d="M287.84 581.2a1.89 1.89 0 011.5 2.16 1.81 1.81 0 01-1.94 1.71 1.89 1.89 0 01-1.5-2.16 1.83 1.83 0 011.94-1.71" fill="#0e6ffa" opacity=".02"/></g><g opacity=".95"><path d="M287.84 581.2a1.89 1.89 0 011.5 2.16 1.81 1.81 0 01-1.94 1.71 1.89 1.89 0 01-1.5-2.16 1.83 1.83 0 011.94-1.71" fill="#0e6ffa" opacity=".02"/></g><g opacity=".95"><path d="M295.11 581.91a1.84 1.84 0 011.57 2.07 1.87 1.87 0 01-1.9 1.81 1.82 1.82 0 01-1.57-2.07 1.9 1.9 0 011.9-1.81" fill="#0e6ffa" opacity=".02"/></g><g opacity=".95"><path d="M295.11 581.91a1.84 1.84 0 011.57 2.07 1.87 1.87 0 01-1.9 1.81 1.82 1.82 0 01-1.57-2.07 1.9 1.9 0 011.9-1.81" fill="#0e6ffa" opacity=".02"/></g><path d="M291.3 568.53a1.87 1.87 0 011.44 2.11 1.79 1.79 0 01-1.85 1.76 1.87 1.87 0 01-1.43-2.15 1.78 1.78 0 011.84-1.72" fill="#fff2c0"/><g opacity=".95"><path d="M298.23 569.1a2 2 0 01-.3 3.87 1.8 1.8 0 01-1.5-2.06 1.83 1.83 0 011.8-1.81" fill="#0e6ffa" opacity=".02"/></g><g opacity=".95"><path d="M229.35 553.8a1.87 1.87 0 01.85 2.43 1.78 1.78 0 01-2.22 1.21 1.86 1.86 0 01-.85-2.43 1.8 1.8 0 012.22-1.21" fill="#0e6ffa" opacity=".02"/></g><g opacity=".95"><path d="M229.35 553.8a1.87 1.87 0 01.85 2.43 1.78 1.78 0 01-2.22 1.21 1.86 1.86 0 01-.85-2.43 1.8 1.8 0 012.22-1.21" fill="#0e6ffa" opacity=".02"/></g><g opacity=".95"><path d="M163.8 516.88a1.85 1.85 0 01.1 2.56 1.68 1.68 0 11-.1-2.56" fill="#0e6ffa" opacity=".02"/></g><g opacity=".95"><path d="M163.8 516.88a1.85 1.85 0 01.1 2.56 1.68 1.68 0 11-.1-2.56" fill="#0e6ffa" opacity=".02"/></g><g opacity=".95"><path d="M158.6 512.81a1.78 1.78 0 01.07 2.52 1.68 1.68 0 11-2.56-2.1 1.79 1.79 0 012.49-.42" fill="#0e6ffa" opacity=".02"/></g><g opacity=".95"><path d="M158.6 512.81a1.78 1.78 0 01.07 2.52 1.68 1.68 0 11-2.56-2.1 1.79 1.79 0 012.49-.42" fill="#0e6ffa" opacity=".02"/></g><g opacity=".95"><path d="M125.63 480a1.8 1.8 0 01-.41 2.5 1.86 1.86 0 01-2.58 0 1.78 1.78 0 01.41-2.5 1.88 1.88 0 012.58 0" fill="#0e6ffa" opacity=".02"/></g><g opacity=".95"><path d="M94.84 433.61a1.82 1.82 0 01-1 2.35 1.67 1.67 0 11-1.49-2.96 1.82 1.82 0 012.49.58" fill="#0e6ffa" opacity=".02"/></g><g opacity=".95"><path d="M94.84 433.61a1.82 1.82 0 01-1 2.35 1.67 1.67 0 11-1.49-2.96 1.82 1.82 0 012.49.58" fill="#0e6ffa" opacity=".02"/></g><g opacity=".95"><path d="M104.78 451.22a1.8 1.8 0 01-.76 2.41 1.85 1.85 0 01-2.55-.36 1.77 1.77 0 01.76-2.42 1.88 1.88 0 012.55.37" fill="#0e6ffa" opacity=".02"/></g><g opacity=".95"><path d="M91.82 427.74a1.76 1.76 0 01-1 2.31 1.68 1.68 0 11-1.42-3 1.76 1.76 0 012.42.66" fill="#0e6ffa" opacity=".02"/></g><g opacity=".95"><path d="M91.82 427.74a1.76 1.76 0 01-1 2.31 1.68 1.68 0 11-1.42-3 1.76 1.76 0 012.42.66" fill="#0e6ffa" opacity=".02"/></g><g opacity=".95"><path d="M75.75 384.24a1.79 1.79 0 01-1.43 2.09 1.84 1.84 0 01-2.32-1.08 1.78 1.78 0 011.42-2.09 1.88 1.88 0 012.34 1.08" fill="#0e6ffa" opacity=".02"/></g><g opacity=".95"><path d="M75.75 384.24a1.79 1.79 0 01-1.43 2.09 1.84 1.84 0 01-2.32-1.08 1.78 1.78 0 011.42-2.09 1.88 1.88 0 012.34 1.08" fill="#0e6ffa" opacity=".02"/></g><g opacity=".95"><path d="M216.52 562.73a1.81 1.81 0 01.87 2.43 1.89 1.89 0 01-2.36 1.16 1.8 1.8 0 01-.86-2.45 1.91 1.91 0 012.35-1.14" fill="#0e6ffa" opacity=".02"/></g><path d="M223.32 565.4a1.89 1.89 0 01.91 2.46 1.81 1.81 0 01-2.31 1.17 2 2 0 011.4-3.63" fill="#84dcac"/><g opacity=".95"><path d="M152.21 524.33a1.83 1.83 0 01.14 2.58 1.87 1.87 0 01-2.59.44 1.8 1.8 0 01-.14-2.58 1.89 1.89 0 012.59-.44" fill="#0e6ffa" opacity=".02"/></g><g opacity=".95"><path d="M158 528.85a1.91 1.91 0 01.18 2.62 1.82 1.82 0 01-2.54.47 1.88 1.88 0 01-.19-2.62 1.83 1.83 0 012.55-.47" fill="#0e6ffa" opacity=".02"/></g><g opacity=".95"><path d="M158 528.85a1.91 1.91 0 01.18 2.62 1.82 1.82 0 01-2.54.47 1.88 1.88 0 01-.19-2.62 1.83 1.83 0 012.55-.47" fill="#0e6ffa" opacity=".02"/></g><g opacity=".95"><path d="M146.57 519.6a1.89 1.89 0 010 2.62 1.82 1.82 0 01-2.57.34 2 2 0 012.53-3" fill="#0e6ffa" opacity=".02"/></g><g opacity=".95"><path d="M146.57 519.6a1.89 1.89 0 010 2.62 1.82 1.82 0 01-2.57.34 2 2 0 012.53-3" fill="#0e6ffa" opacity=".02"/></g><g opacity=".95"><path d="M104 473.41a1.89 1.89 0 01-.58 2.56 1.82 1.82 0 01-2.58-.28 2 2 0 013.16-2.28" fill="#0e6ffa" opacity=".02"/></g><g opacity=".95"><path d="M104 473.41a1.89 1.89 0 01-.58 2.56 1.82 1.82 0 01-2.58-.28 2 2 0 013.16-2.28" fill="#0e6ffa" opacity=".02"/></g><g opacity=".95"><path d="M95.78 461.29a1.87 1.87 0 01-.7 2.51 1.75 1.75 0 11-1.88-2.92 1.87 1.87 0 012.58.41" fill="#0e6ffa" opacity=".02"/></g><g opacity=".95"><path d="M92.08 455.49a2 2 0 01-3.33 2 1.92 1.92 0 01.81-2.52 1.81 1.81 0 012.52.5" fill="#0e6ffa" opacity=".02"/></g><g opacity=".95"><path d="M92.08 455.49a2 2 0 01-3.33 2 1.92 1.92 0 01.81-2.52 1.81 1.81 0 012.52.5" fill="#0e6ffa" opacity=".02"/></g><g opacity=".95"><path d="M64.53 392.36a1.87 1.87 0 01-1.4 2.21 1.82 1.82 0 01-2.34-1.13 2 2 0 013.74-1.08" fill="#0e6ffa" opacity=".02"/></g><g opacity=".95"><path d="M64.53 392.36a1.87 1.87 0 01-1.4 2.21 1.82 1.82 0 01-2.34-1.13 2 2 0 013.74-1.08" fill="#0e6ffa" opacity=".02"/></g><g opacity=".95"><path d="M180.12 559.76a1.92 1.92 0 01.61 2.6 1.83 1.83 0 11-3.17-1.82 1.9 1.9 0 012.56-.78" fill="#0e6ffa" opacity=".02"/></g><g opacity=".95"><path d="M186.8 563.54a1.86 1.86 0 01.7 2.55 1.93 1.93 0 01-2.5.91 1.85 1.85 0 01-.69-2.57 1.94 1.94 0 012.53-.86" fill="#0e6ffa" opacity=".02"/></g><g opacity=".95"><path d="M186.8 563.54a1.86 1.86 0 01.7 2.55 1.93 1.93 0 01-2.5.91 1.85 1.85 0 01-.69-2.57 1.94 1.94 0 012.53-.86" fill="#0e6ffa" opacity=".02"/></g><g opacity=".95"><path d="M105.3 497.11a1.86 1.86 0 01-.29 2.63 1.92 1.92 0 01-2.69-.14 1.82 1.82 0 01.29-2.62 1.93 1.93 0 012.69.13" fill="#0e6ffa" opacity=".02"/></g><g opacity=".95"><path d="M105.3 497.11a1.86 1.86 0 01-.29 2.63 1.92 1.92 0 01-2.69-.14 1.82 1.82 0 01.29-2.62 1.93 1.93 0 012.69.13" fill="#0e6ffa" opacity=".02"/></g><g opacity=".95"><path d="M110.33 502.91a1.92 1.92 0 01-.26 2.67 1.85 1.85 0 01-2.65-.09 1.92 1.92 0 01.26-2.67 1.88 1.88 0 012.65.09" fill="#0e6ffa" opacity=".02"/></g><g opacity=".95"><path d="M51.22 395a2 2 0 11-2.37-1.23 1.9 1.9 0 012.37 1.23" fill="#0e6ffa" opacity=".02"/></g><g opacity=".95"><path d="M51.22 395a2 2 0 11-2.37-1.23 1.9 1.9 0 012.37 1.23" fill="#0e6ffa" opacity=".02"/></g><path d="M49.2 387.76a1.92 1.92 0 01-1.42 2.24 1.89 1.89 0 01-2.35-1.29 1.94 1.94 0 011.47-2.26 1.86 1.86 0 012.3 1.3M41.27 337a1.87 1.87 0 01-1.8 1.94 1.91 1.91 0 01-2.08-1.7 1.85 1.85 0 011.8-1.94 1.93 1.93 0 012.08 1.7" fill="#84dcac"/><path d="M41.27 337a1.87 1.87 0 01-1.8 1.94 1.91 1.91 0 01-2.08-1.7 1.85 1.85 0 011.8-1.94 1.93 1.93 0 012.08 1.7" fill="#84dcac"/><g opacity=".95"><path d="M41.85 344.7a1.94 1.94 0 01-1.8 2 1.85 1.85 0 01-2.05-1.65 1.91 1.91 0 011.8-2 1.86 1.86 0 012.07 1.64" fill="#0e6ffa" opacity=".02"/></g><g opacity=".95"><path d="M310.69 609a2 2 0 011.86 2 1.91 1.91 0 11-3.82-.1 2 2 0 012-1.9" fill="#0e6ffa" opacity=".02"/></g><g opacity=".95"><path d="M310.69 609a2 2 0 011.86 2 1.91 1.91 0 11-3.82-.1 2 2 0 012-1.9" fill="#0e6ffa" opacity=".02"/></g><g opacity=".95"><path d="M302.33 608.74a2 2 0 011.8 2 1.93 1.93 0 01-2 1.86 2 2 0 01-1.8-2.09 1.89 1.89 0 012-1.79" fill="#0e6ffa" opacity=".02"/></g><g opacity=".95"><path d="M273.06 605.69a2 2 0 011.59 2.2 1.91 1.91 0 01-2.19 1.65 2 2 0 01-1.58-2.26 1.9 1.9 0 012.18-1.59" fill="#0e6ffa" opacity=".02"/></g><g opacity=".95"><path d="M273.06 605.69a2 2 0 011.59 2.2 1.91 1.91 0 01-2.19 1.65 2 2 0 01-1.58-2.26 1.9 1.9 0 012.18-1.59" fill="#0e6ffa" opacity=".02"/></g><g opacity=".95"><path d="M243.42 599.45a2 2 0 011.33 2.4 1.87 1.87 0 01-2.33 1.36 2 2 0 01-1.34-2.4 1.89 1.89 0 012.34-1.36" fill="#0e6ffa" opacity=".02"/></g><path d="M236.54 597.49a1.95 1.95 0 01-1.09 3.74 1.91 1.91 0 01-1.29-2.39 2 2 0 012.38-1.35" fill="#e2caf1"/><g opacity=".95"><path d="M171.82 569.61a1.95 1.95 0 01-2 3.36 1.9 1.9 0 01-.67-2.63 2 2 0 012.63-.73" fill="#0e6ffa" opacity=".02"/></g><g opacity=".95"><path d="M171.82 569.61a1.95 1.95 0 01-2 3.36 1.9 1.9 0 01-.67-2.63 2 2 0 012.63-.73" fill="#0e6ffa" opacity=".02"/></g><g opacity=".95"><path d="M137.68 546.23a1.94 1.94 0 01-2.42 3 1.9 1.9 0 01-.29-2.7 2 2 0 012.71-.34" fill="#0e6ffa" opacity=".02"/></g><g opacity=".95"><path d="M137.68 546.23a1.94 1.94 0 01-2.42 3 1.9 1.9 0 01-.29-2.7 2 2 0 012.71-.34" fill="#0e6ffa" opacity=".02"/></g><g opacity=".95"><path d="M89.61 497.81a1.94 1.94 0 01-3.06 2.4 1.91 1.91 0 01.35-2.7 1.94 1.94 0 012.71.3" fill="#0e6ffa" opacity=".02"/></g><g opacity=".95"><path d="M85.47 492.52a1.9 1.9 0 01-.39 2.67 2 2 0 01-2.73-.34 2 2 0 01.45-2.72 1.91 1.91 0 012.67.39" fill="#0e6ffa" opacity=".02"/></g><g opacity=".95"><path d="M85.47 492.52a1.9 1.9 0 01-.39 2.67 2 2 0 01-2.73-.34 2 2 0 01.45-2.72 1.91 1.91 0 012.67.39" fill="#0e6ffa" opacity=".02"/></g><g opacity=".95"><path d="M51.06 432.74a1.89 1.89 0 01-1 2.5 2 2 0 01-2.58-1 1.92 1.92 0 011.06-2.52 2 2 0 012.52 1" fill="#0e6ffa" opacity=".02"/></g><g opacity=".95"><path d="M48.57 426.51a2 2 0 01-1.11 2.49 1.9 1.9 0 11-1.4-3.54 1.94 1.94 0 012.51 1.05" fill="#0e6ffa" opacity=".02"/></g><path d="M46.08 420.2a1.9 1.9 0 01-1.08 2.45 2 2 0 01-2.52-1.1 1.88 1.88 0 011.15-2.46 2 2 0 012.5 1.11" fill="#fff2c0"/><g opacity=".95"><path d="M43.86 413.87a2 2 0 01-1.23 2.44 1.91 1.91 0 01-2.45-1.17 1.95 1.95 0 013.68-1.27" fill="#0e6ffa" opacity=".02"/></g><g opacity=".95"><path d="M43.86 413.87a2 2 0 01-1.23 2.44 1.91 1.91 0 01-2.45-1.17 1.95 1.95 0 013.68-1.27" fill="#0e6ffa" opacity=".02"/></g><g opacity=".95"><path d="M64.47 460a1.91 1.91 0 01-.75 2.6 2 2 0 01-2.65-.71 1.89 1.89 0 01.75-2.6 2 2 0 012.65.71" fill="#0e6ffa" opacity=".02"/></g><g opacity=".95"><path d="M64.47 460a1.91 1.91 0 01-.75 2.6 2 2 0 01-2.65-.71 1.89 1.89 0 01.75-2.6 2 2 0 012.65.71" fill="#0e6ffa" opacity=".02"/></g><g opacity=".95"><path d="M214.72 603.72a1.93 1.93 0 011.22 2.47 2 2 0 01-2.55 1.19 2 2 0 01-1.2-2.52 2 2 0 012.53-1.14" fill="#0e6ffa" opacity=".02"/></g><g opacity=".95"><path d="M214.72 603.72a1.93 1.93 0 011.22 2.47 2 2 0 01-2.55 1.19 2 2 0 01-1.2-2.52 2 2 0 012.53-1.14" fill="#0e6ffa" opacity=".02"/></g><g opacity=".95"><path d="M222.66 606.41a2 2 0 011.27 2.49 2 2 0 01-2.5 1.2 1.95 1.95 0 111.23-3.69" fill="#0e6ffa" opacity=".02"/></g><g opacity=".95"><path d="M222.66 606.41a2 2 0 011.27 2.49 2 2 0 01-2.5 1.2 1.95 1.95 0 111.23-3.69" fill="#0e6ffa" opacity=".02"/></g><path d="M110.07 539a2 2 0 01.11 2.79 2 2 0 11-.11-2.79" fill="#fff2c0"/><g opacity=".95"><path d="M66.07 486.93a2 2 0 01-.53 2.75 1.92 1.92 0 01-2.7-.59 2 2 0 01.54-2.75 1.94 1.94 0 012.69.59" fill="#0e6ffa" opacity=".02"/></g><g opacity=".95"><path d="M66.07 486.93a2 2 0 01-.53 2.75 1.92 1.92 0 01-2.7-.59 2 2 0 01.54-2.75 1.94 1.94 0 012.69.59" fill="#0e6ffa" opacity=".02"/></g><g opacity=".95"><path d="M116.22 544.7a2 2 0 01.2 2.76 2 2 0 01-2.8.14 1.93 1.93 0 01-.21-2.75 2 2 0 012.81-.15" fill="#0e6ffa" opacity=".02"/></g><path d="M122.46 550.12a2 2 0 01.25 2.78 1.94 1.94 0 01-2.76.19 2 2 0 01-.25-2.79 2 2 0 012.76-.18" fill="#f8b09e"/><g opacity=".95"><path d="M26.32 400a1.95 1.95 0 11-2.42-1.4 2 2 0 012.42 1.4" fill="#0e6ffa" opacity=".02"/></g><g opacity=".95"><path d="M26.32 400a1.95 1.95 0 11-2.42-1.4 2 2 0 012.42 1.4" fill="#0e6ffa" opacity=".02"/></g><path d="M28.61 408.08a2 2 0 01-1.28 2.47 1.94 1.94 0 01-2.44-1.33 2 2 0 011.31-2.49 2 2 0 012.41 1.35" fill="#fff2c0"/><path d="M31.2 415.93a1.94 1.94 0 11-2.48-1.27 2 2 0 012.48 1.27" fill="#dfecfb"/><circle cx="413.5" cy="71" r="7" fill="#09b859"/><circle cx="539.5" cy="167" r="7" fill="#f1613c"/><circle cx="57.5" cy="161" r="9" fill="#ffcd05"/><circle cx="537.5" cy="511" r="6" fill="#8d2cc6"/><circle cx="120.5" cy="551" r="7" fill="#0e6ffa"/></svg>