<svg id="Layer_1" data-name="Layer 1" xmlns="http://www.w3.org/2000/svg" viewBox="0 0 186.4 82"><title>twilio</title><path d="M47.32,36.81a3.52,3.52,0,1,1-3.51-3.52A3.53,3.53,0,0,1,47.32,36.81Zm-3.51,4.87a3.52,3.52,0,1,0,3.51,3.51A3.54,3.54,0,0,0,43.81,41.68ZM65,41A17,17,0,1,1,48,24,17,17,0,0,1,65,41Zm-4.53,0A12.47,12.47,0,1,0,48,53.47,12.44,12.44,0,0,0,60.47,41Zm-8.28.68a3.52,3.52,0,1,0,3.52,3.51A3.53,3.53,0,0,0,52.19,41.68Zm0-8.39a3.52,3.52,0,1,0,3.52,3.52A3.54,3.54,0,0,0,52.19,33.29Zm58.49-2.6c.11,0,.22.11.34.22v3.63a.36.36,0,0,1-.34.34h-6a.36.36,0,0,1-.34-.34V31a.36.36,0,0,1,.34-.34Zm-.12,5.1H99a.36.36,0,0,0-.34.34l-1.47,5.66-.11.34-1.82-6a.49.49,0,0,0-.34-.34H90.39a.36.36,0,0,0-.34.34l-1.7,5.66-.11.34-.12-.34L87.44,39l-.68-2.83a.49.49,0,0,0-.34-.34H77.36V30.91a.34.34,0,0,0-.46-.22L71.24,32.5a.3.3,0,0,0-.34.34V35.9H69.42a.36.36,0,0,0-.34.34v4.31a.37.37,0,0,0,.34.34H70.9v5.32c0,3.74,2,5.44,5.78,5.44a8.79,8.79,0,0,0,4.08-.9V46.21c0-.22-.23-.34-.34-.22a4.65,4.65,0,0,1-1.59.34,1.39,1.39,0,0,1-1.59-1.59V40.89h3.29a.37.37,0,0,0,.34-.34V36.92L85.18,51.2a.5.5,0,0,0,.34.34h4.76a.36.36,0,0,0,.34-.34l2-6.35,1,3.29.9,3.06a.52.52,0,0,0,.34.34h4.76a.35.35,0,0,0,.34-.34l4.31-14.28V51.2a.36.36,0,0,0,.34.34h5.78a.36.36,0,0,0,.34-.34V36.13C110.79,36,110.68,35.79,110.56,35.79Zm7.6-5.1h-5.78A.35.35,0,0,0,112,31V51.09a.36.36,0,0,0,.34.34h5.78a.37.37,0,0,0,.34-.34V30.91C118.5,30.8,118.39,30.69,118.16,30.69Zm7.71,0h-6a.36.36,0,0,0-.34.34v3.51a.36.36,0,0,0,.34.34h6a.36.36,0,0,0,.34-.34V30.91C126.21,30.8,126.09,30.69,125.87,30.69Zm-.12,5.1H120a.36.36,0,0,0-.34.34V51a.36.36,0,0,0,.34.34h5.78a.35.35,0,0,0,.34-.34V36.13A.35.35,0,0,0,125.75,35.79ZM144,43.49c0,4.31-3.63,8-8.73,8a8.29,8.29,0,0,1-8.61-8c0-4.3,3.63-8,8.73-8A8.29,8.29,0,0,1,144,43.49Zm-6.12.12a2.5,2.5,0,0,0-2.49-2.72,2.57,2.57,0,0,0-2.5,2.72,2.65,2.65,0,0,0,2.5,2.72A2.57,2.57,0,0,0,137.88,43.61Z" style="fill:#f22f46"/></svg>