<svg id="Layer_1" data-name="Layer 1" xmlns="http://www.w3.org/2000/svg" viewBox="0 0 186.4 82"><title>vividseats</title><path d="M32.1,48.2l3.3-22.5h4L35.1,53.3H28.7L24.4,25.7h4.4Z" style="fill:#dc1f26"/><path d="M41.4,25.7h4.3V53.3H41.4Z" style="fill:#dc1f26"/><path d="M55.5,48.2l3.3-22.5h4L58.5,53.3H52L47.8,25.7h4.4Z" style="fill:#dc1f26"/><path d="M64.8,25.7h4.3V53.3H64.8Z" style="fill:#dc1f26"/><path d="M72.3,25.7h6.9c4.3,0,6.5,2.4,6.5,6.8v14c0,4.4-2.1,6.8-6.5,6.8H72.3Zm4.3,4V49.4H79c1.4,0,2.2-.7,2.2-2.7V32.3c0-2-.8-2.7-2.2-2.7H76.6Z" style="fill:#dc1f26"/><path d="M94.2,25.4c4.2,0,6.4,2.5,6.4,6.9v.9H96.5V32.1c0-2-.8-2.7-2.2-2.7s-2.2.7-2.2,2.7c0,5.7,8.5,6.7,8.5,14.6,0,4.4-2.2,6.9-6.5,6.9s-6.5-2.5-6.5-6.9V45h4.1v2c0,2,.9,2.7,2.2,2.7s2.2-.7,2.2-2.7c0-5.7-8.5-6.7-8.5-14.6C87.8,27.9,90,25.4,94.2,25.4Z" style="fill:#333"/><path d="M107.4,37.3h6v3.9h-6v8.1h7.5v3.9H103.1V25.7h11.8v3.9h-7.5Z" style="fill:#333"/><path d="M131.7,53.3h-4.4l-.7-5h-5.3l-.7,5h-4L121,25.7h6.3Zm-9.9-8.7H126l-2.1-14Z" style="fill:#333"/><path d="M130.9,25.7h13.4v3.9h-4.5V53.3h-4.3V29.7H131v-4Z" style="fill:#333"/><path d="M152,25.4c4.2,0,6.4,2.5,6.4,6.9v.9h-4.1V32.1c0-2-.8-2.7-2.2-2.7s-2.2.7-2.2,2.7c0,5.7,8.5,6.7,8.5,14.6,0,4.4-2.2,6.9-6.5,6.9s-6.5-2.5-6.5-6.9V45h4.1v2c0,2,.9,2.7,2.2,2.7s2.2-.7,2.2-2.7c0-5.7-8.5-6.7-8.5-14.6C145.7,27.9,147.8,25.4,152,25.4Z" style="fill:#333"/><path d="M161.6,49a2.28,2.28,0,0,1,1.1.3,2,2,0,0,1,.8.8,2.28,2.28,0,0,1,.3,1.1,2,2,0,0,1-.3,1.1,3,3,0,0,1-.8.8,2.17,2.17,0,0,1-2.2,0,3,3,0,0,1-.8-.8,2.17,2.17,0,0,1,0-2.2,2,2,0,0,1,.8-.8A2,2,0,0,1,161.6,49Zm0,.4a2.92,2.92,0,0,0-.9.2,1.58,1.58,0,0,0-.7.7,1.49,1.49,0,0,0-.2.9,2.92,2.92,0,0,0,.2.9,1.58,1.58,0,0,0,.7.7,1.49,1.49,0,0,0,.9.2,2.92,2.92,0,0,0,.9-.2,2.34,2.34,0,0,0,.7-.7,1.49,1.49,0,0,0,.2-.9,2.92,2.92,0,0,0-.2-.9,2.34,2.34,0,0,0-.7-.7A2.92,2.92,0,0,0,161.6,49.4Zm-1,3V50h1.3c.2,0,.3,0,.4.1a.22.22,0,0,1,.2.2.37.37,0,0,1,.1.3.52.52,0,0,1-.2.4.76.76,0,0,1-.5.2c.1,0,.1.1.2.1l.2.2a1.24,1.24,0,0,1,.2.3l.3.5H162l-.2-.4a1.07,1.07,0,0,0-.3-.5.37.37,0,0,0-.3-.1H161v1h-.4Zm.4-1.3h.7c.1,0,.1-.1.2-.1s.1-.1.1-.2,0-.1-.1-.2-.1-.1-.2-.1H161Z" style="fill:#333"/></svg>