<?xml version="1.0" encoding="utf-8"?>
<!-- Generator: Adobe Illustrator 21.1.0, SVG Export Plug-In . SVG Version: 6.00 Build 0)  -->
<svg version="1.1" id="Layer_1" xmlns="http://www.w3.org/2000/svg" xmlns:xlink="http://www.w3.org/1999/xlink" x="0px" y="0px"
	 viewBox="0 0 186.4 82" style="enable-background:new 0 0 186.4 82;" xml:space="preserve">
<style type="text/css">
	.st0{fill:#007EE5;}
</style>
<g>
	<g id="XMLID_91_">
		<path id="XMLID_98_" class="st0" d="M55,29.4h8.6c7.3,0,12,4.7,12,12.1s-4.6,12.1-12,12.1H55L55,29.4L55,29.4z M63.2,49
			c4.6,0,7.1-2.9,7.1-7.5c0-4.7-2.5-7.6-7.1-7.6h-3.3V49H63.2z"/>
		<path id="XMLID_97_" class="st0" d="M88.4,40.7c-0.6-0.4-1.5-0.6-2.4-0.6c-1.6,0-2.9,0.9-3.3,2.4v11.1h-4.9V35.8h4.9v1.7
			c0.7-1.2,2.2-2.1,3.9-2.1c0.8,0,1.6,0.2,1.8,0.3V40.7z"/>
		<path id="XMLID_96_" class="st0" d="M98.3,53.8c-5.1,0-8.7-3.8-8.7-9.2c0-5.4,3.5-9.2,8.7-9.2s8.6,3.8,8.6,9.2
			C107,50,103.5,53.8,98.3,53.8z M98.3,39.6c-2.5,0-3.8,2.1-3.8,5.1c0,2.9,1.3,5,3.8,5s3.8-2.1,3.8-5
			C102.1,41.7,100.8,39.6,98.3,39.6z"/>
		<path id="XMLID_95_" class="st0" d="M114.1,60h-4.9V35.8h4.9v1.5c0.8-0.9,2.5-1.8,4.5-1.8c5.2,0,8.1,4.3,8.1,9.2
			c0,5-2.9,9.2-8.1,9.2c-1.9,0-3.7-0.9-4.5-1.8L114.1,60L114.1,60z M114.1,47.5c0.6,1.2,1.9,2,3.3,2c2.6,0,4.2-2.1,4.2-4.9
			c0-2.8-1.6-4.9-4.2-4.9c-1.5,0-2.7,0.9-3.3,2V47.5z"/>
		<path id="XMLID_94_" class="st0" d="M133.5,53.6h-4.9V27.9h4.9v9.5c0.8-0.9,2.5-1.8,4.4-1.8c5.1,0,8,4.2,8,9.3s-2.9,9.2-8,9.2
			c-1.9,0-3.6-0.9-4.4-1.8V53.6z M133.5,47.5c0.5,1.2,1.8,2,3.3,2c2.6,0,4.2-2.1,4.2-4.9c0-2.8-1.6-4.9-4.2-4.9
			c-1.4,0-2.8,0.9-3.3,2V47.5z"/>
		<path id="XMLID_93_" class="st0" d="M156.3,53.9c-5.1,0-8.7-3.8-8.7-9.2c0-5.4,3.5-9.2,8.7-9.2s8.6,3.8,8.6,9.2
			C165,50.1,161.5,53.9,156.3,53.9z M156.3,39.6c-2.5,0-3.8,2.1-3.8,5.1c0,2.9,1.3,5,3.8,5c2.4,0,3.8-2.1,3.8-5
			C160.1,41.8,158.8,39.6,156.3,39.6z"/>
		<path id="XMLID_92_" class="st0" d="M176,44.4l6.5,9.2H177l-3.8-5.6l-3.9,5.6h-5.2l6.4-9.1l-6-8.7h5.5l3.4,5l3.5-5h5.2L176,44.4z"
			/>
	</g>
	<g id="XMLID_85_">
		<polygon id="XMLID_90_" class="st0" points="18.2,21 5.5,29.2 14.3,36.3 27.1,28.4 		"/>
		<polygon id="XMLID_89_" class="st0" points="5.5,43.2 18.2,51.5 27.1,44.2 14.3,36.3 		"/>
		<polygon id="XMLID_88_" class="st0" points="27.1,44.2 36,51.5 48.7,43.3 39.9,36.3 		"/>
		<polygon id="XMLID_87_" class="st0" points="48.7,29.2 36,21 27.1,28.4 39.9,36.3 		"/>
		<polygon id="XMLID_86_" class="st0" points="27.1,45.8 18.2,53.1 14.4,50.6 14.4,53.4 27.1,61 39.8,53.4 39.8,50.6 36,53.1 		"/>
	</g>
</g>
</svg>
