<svg id="rackspace" data-name="Layer 1" xmlns:xlink="http://www.w3.org/1999/xlink" viewBox="0 0 186.4 82"><title>rackspace</title><path d="M68.77,51.13l1.79-9.39,3.67,9.39H79.8L76,41.67l6.92-8.07H77.26l-6.67,8L73.17,28H68L63.63,51.13ZM27.22,37.48,28,33.6H23.39L20,51.44h5.18l1.4-7.36c.83-4.34,3.31-6.07,6.86-5.53l1-5.33a7.18,7.18,0,0,0-7.23,4.26Zm79.25,2.84c0-.83-.19-2.83-2.09-2.83s-3.56,2.2-4.19,5.54c-.22,1.14-.82,4.56,1.56,4.56,2.72,0,4.72-3.86,4.72-7.27Zm5.39-.4c0,4.25-2,8.61-5.72,10.57a8.19,8.19,0,0,1-3.76,1,3.56,3.56,0,0,1-3.46-1.75l-1.32,7H92.42l4.4-23.13h4.56l-.53,2.81a6.61,6.61,0,0,1,5.36-3.13c3.43,0,5.65,2.59,5.65,6.64ZM44.24,39.1a1.73,1.73,0,0,0-1.85-1.89c-2.44,0-4.55,4.2-4.55,7.13,0,1.82.68,3,1.86,3,1.89,0,3.51-2,4.07-4.86a19,19,0,0,0,.47-3.34ZM49,41.35l-1.87,9.78h-5l.64-3.37a5.2,5.2,0,0,1-5.22,3.76c-3.44,0-5-3.05-5-6.11a13.26,13.26,0,0,1,3.65-9.21,9.92,9.92,0,0,1,7.15-2.92A5.68,5.68,0,0,1,48,35.07c1.45,1.75,1.33,4.37,1,6.28Zm74.83-2.25A1.74,1.74,0,0,0,122,37.21c-2.43,0-4.55,4.2-4.54,7.13,0,1.82.67,3,1.85,3,1.89,0,3.51-2,4.07-4.86a20,20,0,0,0,.48-3.34Zm4.76,2.25-1.87,9.78h-5l.65-3.37a5.22,5.22,0,0,1-5.22,3.76c-3.45,0-5-3.05-5-6.11a13.21,13.21,0,0,1,3.64-9.21A9.92,9.92,0,0,1,123,33.28a5.71,5.71,0,0,1,4.64,1.79c1.44,1.75,1.32,4.37,1,6.28Zm12.24-8c-6.5,0-11.39,4.74-11.39,11,0,4.34,2.89,7.15,7.36,7.15a12.12,12.12,0,0,0,5-.94l.82-4.33a9.19,9.19,0,0,1-4.33,1.12,3.24,3.24,0,0,1-3.39-3.57,6.06,6.06,0,0,1,5.88-6.31,5.61,5.61,0,0,1,2.86.68l.81-4.21a9.9,9.9,0,0,0-3.59-.62Zm8.09,7.3c3,0,4.75-.28,5.5-1s.55-2.52-1.44-2.52a4.33,4.33,0,0,0-4.06,3.54Zm3.35,6.84a11.51,11.51,0,0,0,6.08-1.72l-.83,4.36a15.16,15.16,0,0,1-6.5,1.4c-4.82,0-7.57-2.68-7.57-7.36a11.58,11.58,0,0,1,2.71-7.42,9.67,9.67,0,0,1,7.46-3.43c3.65,0,6.08,2.11,6.08,5.26a4.76,4.76,0,0,1-1.4,3.55c-1.75,1.7-6,2.65-9.95,1.88-.18,2.2,1.48,3.48,3.92,3.48Zm9.41.58h-.59l-.18.95h.53a.64.64,0,0,0,.6-.5.35.35,0,0,0-.36-.45Zm.67.5a1,1,0,0,1-.68.74l.34,1h-.34l-.33-1h-.48l-.19,1h-.32l.48-2.57h.85a.68.68,0,0,1,.67.82Zm.82.45a2.11,2.11,0,0,1-2.06,1.88A1.63,1.63,0,0,1,159.46,49a2.1,2.1,0,0,1,2-1.89A1.65,1.65,0,0,1,163.18,49Zm.31,0h0a2,2,0,0,0-2-2.17A2.43,2.43,0,0,0,159.14,49a2,2,0,0,0,2,2.18A2.43,2.43,0,0,0,163.49,49ZM61.24,33.31c-6.49,0-11.38,4.74-11.38,11,0,4.34,2.88,7.15,7.36,7.15a12.19,12.19,0,0,0,5-.94L63,46.22a9.19,9.19,0,0,1-4.33,1.12,3.23,3.23,0,0,1-3.39-3.57,6.05,6.05,0,0,1,5.88-6.31,5.63,5.63,0,0,1,2.86.68l.8-4.21a9.82,9.82,0,0,0-3.59-.62Zm31.95,12a5.43,5.43,0,0,1-1.6,4,9,9,0,0,1-6.44,2.14,11.09,11.09,0,0,1-5.09-1.21l.75-4a11.35,11.35,0,0,0,4.84,1.37c1.28,0,2.15-.6,2.15-1.55s-.61-1.46-2.16-2.22C83.18,42.71,82,41.15,82,39.32c0-3.61,3.07-6,7.68-6a9.07,9.07,0,0,1,4.9,1.14l-.75,3.94a8.13,8.13,0,0,0-4.4-1.26c-1.34,0-2.22.56-2.22,1.51,0,.67.67,1.28,2.09,2,1.84.92,3.93,2.29,3.93,4.76Z" fill="#e91d25"/></svg>