<svg data-name="Layer 1" xmlns="http://www.w3.org/2000/svg" viewBox="0 0 40 40"><path fill="none" stroke="#fff" stroke-linecap="round" stroke-linejoin="round" stroke-width="1.5" d="M14.61 18.32l3.69 4.15M25.64 13.4l-7.34 9.07" opacity=".5"/><path d="M31 9.48H9a.47.47 0 00-.46.46v16a.46.46 0 00.46.45h3.12a.34.34 0 01.34.34v3.46a.32.32 0 00.52.25l4.85-3.94a.51.51 0 01.31-.11H31a.46.46 0 00.46-.45v-16a.47.47 0 00-.46-.46z" fill="none" stroke="#000" stroke-linecap="round" stroke-linejoin="round" stroke-width="1.5" opacity=".5"/><path d="M8.57 9.94v16a.46.46 0 00.46.45h3.13a.33.33 0 01.33.33v3.47a.32.32 0 00.52.25l4.8-3.9a.72.72 0 01.43-.15H31" fill="none" stroke="#000" stroke-linecap="round" stroke-linejoin="round" stroke-width="1.5" opacity=".8"/></svg>