<svg data-name="Layer 1" xmlns="http://www.w3.org/2000/svg" viewBox="0 0 40 40"><path fill="none" stroke="#000" stroke-linecap="round" stroke-miterlimit="10" stroke-width="1.5" opacity=".6" d="M3.96 24.65l1.56-2.61 2.61 1.56M27.42 32.79A14.72 14.72 0 015.59 22.18M12.93 7.18a14.71 14.71 0 0121.5 9.32"/><path d="M30.13 20a10 10 0 11-10-10 9.87 9.87 0 015.25 1.49A10 10 0 0130.13 20z" fill="none" stroke="#fff" stroke-linecap="round" stroke-linejoin="round" stroke-width="1.5" opacity=".5"/><ellipse cx="20.14" cy="20" rx="5.55" ry="9.99" fill="none" opacity=".5" stroke-linecap="round" stroke-linejoin="round" stroke-width="1.5" stroke="#fff"/><path fill="none" stroke="#000" stroke-linecap="round" stroke-miterlimit="10" stroke-width="1.5" opacity=".6" d="M36.05 14.02l-1.57 2.62-2.62-1.57M34.48 16.64l-2.62-1.57M3.95 24.66l1.57-2.62M5.52 22.04l2.62 1.56"/></svg>