<svg data-name="Layer 1" xmlns="http://www.w3.org/2000/svg" viewBox="0 0 40 40"><path d="M24.15 30.4v-.16A10.21 10.21 0 0126.36 24a7.93 7.93 0 00-.84-10.61 8 8 0 00-13.61 5.47A8 8 0 0013.56 24a9.92 9.92 0 012.21 6.2v.16M15.71 32.83h8.5M16.67 36.08h6.57M16.67 36.08h3.7" fill="none" stroke="#000" stroke-linecap="round" stroke-miterlimit="10" stroke-width="1.5" opacity=".6"/><path fill="none" stroke="#fff" stroke-linecap="round" stroke-miterlimit="10" stroke-width="1.5" opacity=".5" d="M19.96 30.4v-7.98M19.96 30.4v-3.15"/><circle cx="19.96" cy="20.79" r="1.63" fill="none" stroke="#fff" stroke-linecap="round" stroke-miterlimit="10" stroke-width="1.5" opacity=".9"/><path fill="none" stroke="#fff" stroke-linecap="round" stroke-linejoin="round" stroke-width="1.5" opacity=".5" d="M11.23 35.78l-1.46-4.76-4.72-1.59 1.11-4.86-3.29-3.74 3.39-3.65-.98-4.89 4.76-1.46 1.59-4.72 4.86 1.11 3.74-3.3 3.65 3.4 4.89-.99 1.46 4.77 4.72 1.59-1.11 4.86 3.29 3.74-3.39 3.65.98 4.88-4.76 1.47-1.59 4.72"/><path fill="none" stroke="#fff" stroke-linecap="round" stroke-linejoin="round" stroke-width="1.5" opacity=".5" d="M37.13 21.29l-3.39 3.65.98 4.88-4.76 1.47-1.59 4.72M11.23 35.78l-1.46-4.76-4.72-1.59 1.11-4.86-3.29-3.74"/></svg>