<svg data-name="Layer 1" xmlns="http://www.w3.org/2000/svg" viewBox="0 0 40 40"><path d="M17 19v3.38a.67.67 0 00.2.48l1.12 1.11a.68.68 0 010 1L17.27 26a.81.81 0 00-.23.57v6.5a.9.9 0 00.35.71l1.87 1.42a.77.77 0 00.94 0l1.93-1.5a.76.76 0 00.29-.6V30a.89.89 0 00-.26-.63l-.8-.79a.54.54 0 010-.77l.84-.81a.79.79 0 00.22-.54v-7.55" fill="none" stroke="#000" stroke-linecap="round" stroke-miterlimit="10" stroke-width="1.5" opacity=".6"/><path d="M17.19 10.61a2.7 2.7 0 013.6-1.31 2.76 2.76 0 011.32 3.63 2.7 2.7 0 01-3.6 1.31 2.75 2.75 0 01-1.32-3.63z" fill="none" stroke="#fff" stroke-linecap="round" stroke-linejoin="round" stroke-width="1.5" opacity=".5"/><path d="M17.19 10.61a2.7 2.7 0 013.6-1.31 2.76 2.76 0 011.32 3.63" fill="none" stroke="#fff" stroke-linecap="round" stroke-linejoin="round" stroke-width="1.5" opacity=".5"/><path d="M17 18.92a7.27 7.27 0 01-2.53-1.63 7.38 7.38 0 118 1.57" fill="none" stroke="#000" stroke-linecap="round" stroke-miterlimit="10" stroke-width="1.5" opacity=".6"/></svg>