<svg data-name="Layer 1" xmlns="http://www.w3.org/2000/svg" viewBox="0 0 40 40"><path d="M32 22.8l-3.94.78a1.45 1.45 0 00-.8 2.37l2.65 3a1.44 1.44 0 002.45-.49l1.28-3.8A1.43 1.43 0 0032 22.8z" fill="none" stroke="#000" stroke-linecap="round" stroke-miterlimit="10" stroke-width="1.5" opacity=".6"/><path d="M12.53 13.48a11.13 11.13 0 00-3.83 7.89M30.77 19.4a11.19 11.19 0 00-4.57-6.7M16.48 32.58a11.21 11.21 0 0010-1.61" fill="none" stroke="#fff" stroke-linecap="round" stroke-linejoin="round" stroke-width="1.5" opacity=".5"/><circle cx="19.51" cy="10.83" r="3.94" fill="none" stroke="#000" stroke-linecap="round" stroke-miterlimit="10" stroke-width="1.5" opacity=".6"/><rect x="7.09" y="24.32" width="7.32" height="7.32" rx="1.44" transform="rotate(-30 10.743 27.979)" opacity=".6" stroke="#000" stroke-linecap="round" stroke-miterlimit="10" stroke-width="1.5" fill="none"/><path d="M30.76 19.4a11 11 0 00-1.85-4M12.53 13.48a11.39 11.39 0 00-2.61 3.32" fill="none" stroke="#fff" stroke-linecap="round" stroke-linejoin="round" stroke-width="1.5" opacity=".5"/></svg>