<svg id="Layer_1" data-name="Layer 1" xmlns="http://www.w3.org/2000/svg" xmlns:xlink="http://www.w3.org/1999/xlink" viewBox="0 0 186.4 82"><defs><symbol id="intuit" data-name="intuit" viewBox="0 0 265.2 76.7"><g id="intuit-3" data-name="intuit"><path d="M167.87,70.53l-2,1.29c-5.86,3.77-12.16,5.77-19.18,4.5s-11.32-5.54-12.55-12.61a34.37,34.37,0,0,1-.48-5.55c0-10.55,0-21.1,0-31.65,0-3,.58-3.61,3.64-3.67,1.72,0,3.45,0,5.17,0,3,.05,3.69.74,3.69,3.7,0,10.2,0,20.39,0,30.58,0,5.28,2.45,8.08,7.59,8.59a9.69,9.69,0,0,0,4.22-.48c2.66-1,5.21-2.31,7.77-3.56,1.52-.74,2-2,2-3.71-.07-10.55,0-21.11,0-31.66,0-2.8.56-3.39,3.4-3.45,2-.05,4-.08,6,0,2.34.11,3.08.88,3.08,3.22q0,22.94,0,45.87c0,2.77-.73,3.43-3.45,3.45-1.58,0-3.16-.09-4.73,0-2.23.14-3.64-.54-3.71-3A11.75,11.75,0,0,0,167.87,70.53Z" style="fill:#3f60ab"/><path d="M39,27.88c.77-.45,1.33-.73,1.83-1.09a26.93,26.93,0,0,1,14.62-5.15c9.25-.38,16.87,3.28,17.74,14.46.76,9.7.41,19.5.54,29.25,0,2.37,0,4.74,0,7.11s-.77,2.9-3,2.93c-2,0-4,0-6,0-2.76,0-3.41-.65-3.42-3.45,0-10,0-20,0-29.93a16.21,16.21,0,0,0-.44-3.61c-1.07-4.64-4.22-6.08-8.47-5.93A20.29,20.29,0,0,0,41,36.66a3.75,3.75,0,0,0-1.72,3.41c.06,10.62,0,21.25,0,31.88,0,3-.42,3.44-3.51,3.45H30.43c-3,0-3.61-.66-3.61-3.72q0-21.33,0-42.65c0-1,.05-2,0-3-.12-2.11,1-3.05,3-3.15s3.73,0,5.6,0,3.35.62,3.19,3A8.18,8.18,0,0,0,39,27.88Z" style="fill:#3f60ab"/><path d="M102.62,22.83c6,0,11.91,0,17.87,0,2.73,0,3.23.53,3.25,3.28,0,1.5,0,3,0,4.52,0,2.56-.74,3.33-3.34,3.38-3.09.06-6.18.15-9.26,0-2.08-.12-2.51.71-2.49,2.59.06,11.7,0,23.39,0,35.09,0,3.32-.4,3.72-3.71,3.73H99.59c-2.85,0-3.41-.57-3.42-3.39,0-11.77-.06-23.53,0-35.3,0-2.23-.64-2.85-2.78-2.72-2.93.18-5.89.08-8.83,0-2.67,0-3.15-.56-3.18-3.15,0-1.72,0-3.44,0-5.17,0-2.47.37-2.85,2.9-2.86C90.42,22.82,96.52,22.83,102.62,22.83Z" style="fill:#3f60ab"/><path d="M238.35,22.83c6,0,11.91,0,17.86,0,2.81,0,3.22.44,3.24,3.25,0,1.51,0,3,0,4.52,0,2.64-.64,3.35-3.26,3.41-3.08.07-6.17.13-9.25,0-2-.1-2.58.61-2.57,2.56.07,11.77,0,23.53,0,35.29,0,3.23-.33,3.55-3.59,3.56-1.86,0-3.73,0-5.59,0-2.58,0-3.33-.75-3.34-3.34,0-9,0-17.93,0-26.9,0-2.94-.09-5.88,0-8.82.07-1.74-.41-2.42-2.26-2.33-2.93.14-5.88,0-8.82,0-3.25,0-3.62-.4-3.63-3.54,0-1.51,0-3,0-4.52,0-2.77.34-3.12,3.07-3.13C226.3,22.82,232.32,22.83,238.35,22.83Z" style="fill:#3f60ab"/><path d="M206.93,49.2q0,11.5,0,23c0,2.73-.43,3.15-3.08,3.18-2,0-4,0-6,0-2.68,0-3.42-.75-3.43-3.48q0-13.23,0-26.45,0-9.57,0-19.14c0-2.78.67-3.45,3.39-3.48,2.08,0,4.16,0,6.24,0,2.42,0,2.89.51,2.9,2.92Q206.95,37.48,206.93,49.2Z" style="fill:#3f60ab"/><path d="M0,49c0-7.61,0-15.22,0-22.83,0-2.85.42-3.26,3.22-3.28,2.15,0,4.31,0,6.46,0a2.59,2.59,0,0,1,2.91,2.93q0,23.16,0,46.31c0,2.57-.83,3.29-3.41,3.31q-3,0-6,0C.49,75.36,0,74.92,0,72.21,0,64.46,0,56.7,0,49Z" style="fill:#3f60ab"/><path d="M102.34,15.12a7.31,7.31,0,0,1-7.47-7.48,7.56,7.56,0,1,1,15.11.2A7.25,7.25,0,0,1,102.34,15.12Z" style="fill:#3f60ab"/><path d="M238.24,15.12a7.53,7.53,0,0,1-7.66-7.57A7.84,7.84,0,0,1,238.2,0a7.6,7.6,0,0,1,7.54,7.72A7.19,7.19,0,0,1,238.24,15.12Z" style="fill:#3f60ab"/><path d="M261.31,76a3.91,3.91,0,1,1,3.9-3.89A3.92,3.92,0,0,1,261.31,76Zm0-7.3a3.4,3.4,0,1,0,0,6.79,3.4,3.4,0,0,0,0-6.79Z" style="fill:#3f60ab"/><path d="M262.63,72.19c.45.19.47.6.49,1a5.42,5.42,0,0,0,0,.57,1.25,1.25,0,0,0,.12.3l.05.12s-.08,0-.11,0h-.78a.12.12,0,0,1-.14-.12c0-.27,0-.55-.07-.82a1.77,1.77,0,0,0,0-.23c-.06-.39-.14-.49-.53-.52s-.7,0-1.08,0v1.68h-.87V69.9h2.07a2.94,2.94,0,0,1,.51,0,1.21,1.21,0,0,1,.72,1.89A2.54,2.54,0,0,1,262.63,72.19Zm-2-.39c.44,0,.87,0,1.3,0a.45.45,0,0,0,.44-.5c0-.33-.14-.57-.41-.59-.44,0-.88,0-1.33,0Z" style="fill:#3f60ab"/></g></symbol></defs><title>intuit</title><use width="265.21" height="76.7" transform="translate(38 26) scale(0.41 0.4)" xlink:href="#intuit"/></svg>