<svg id="8ef7ab41-21fc-47f6-a1d8-2cafb24fb448" data-name="Layer 1" xmlns="http://www.w3.org/2000/svg" xmlns:xlink="http://www.w3.org/1999/xlink" width="186.4" height="82" viewBox="0 0 186.4 82"><defs><symbol id="3caa3373-7eef-4f49-8214-ce4b8816ed63" data-name="transferwise" viewBox="0 0 313.84 130.51"><path d="M224.11,108.93l-8.64,20.92H210l-7.35-38h5.82l5.37,29.36.41,0,8-19.76h4.89l7,19.77h.4l6.77-29.45h5.57l-9.32,38H232l-7.49-20.89Z" fill="#22314b"/><path d="M52.21,106.42l-.94-4.34c1.55-.34,3-.77,4.48-1a23.11,23.11,0,0,1,10,.49c4.21,1.32,6.8,4.15,7,8.58.26,5.1.15,10.23.19,15.34,0,1.39,0,2.78,0,4.3H67.74l-.18-3.11c-2,1.9-4.07,3.33-6.61,3.51a23.15,23.15,0,0,1-6.33-.23c-3.92-.82-6-3.48-6.49-7.6a8.67,8.67,0,0,1,4.64-9c4.22-2.18,8.66-2.14,13.16-1l1.41.36s.1,0,.15-.05c.42-3.16-1.1-5.6-4.27-6.73a15.63,15.63,0,0,0-8.65-.15C53.86,106,53.16,106.19,52.21,106.42Zm15.28,11a14.44,14.44,0,0,0-9.11-1.27,7.61,7.61,0,0,0-2.54.92,4.76,4.76,0,0,0-2.26,5.16,4.24,4.24,0,0,0,4,3.59,14.56,14.56,0,0,0,4.84-.37C66.31,124.39,68,121.6,67.49,117.4Z" fill="#22314b"/><path d="M313.84,117.45H296.07l1.82-4.2h10a7.23,7.23,0,0,0-3.79-7.08,7.44,7.44,0,0,0-8.25.78c-4.86,3.76-5,13-.32,16.92,3,2.52,7.82,2.63,11.63.24.72-.45,1.38-1,2.17-1.59l3.33,3.11a27.52,27.52,0,0,1-2.92,2.35,16.85,16.85,0,0,1-13.35,1.91c-6.86-1.79-10.49-8-9.87-15.53.57-7,4.57-11.89,10.73-13.14,8.4-1.7,14.91,2.35,16.2,10.93C313.66,113.82,313.69,115.52,313.84,117.45Z" fill="#22314b"/><path d="M177.66,117.43H159.88l1.77-4.13h10.21c-.19-2.88-1-5.19-3.33-6.71a7.37,7.37,0,0,0-7.81-.37,7.91,7.91,0,0,0-3.65,4,12.83,12.83,0,0,0-.76,8.9c1.88,6.92,8.9,8.25,14.23,5.25.84-.47,1.59-1.11,2.55-1.78l3.42,3.17a39.15,39.15,0,0,1-4.25,2.93A16.64,16.64,0,0,1,160.7,130a12.61,12.61,0,0,1-9.53-8.46c-2.32-6.48-.55-13.75,4.26-17.71,7.57-6.23,19.06-2.79,21.37,6.49A57,57,0,0,1,177.66,117.43Z" fill="#22314b"/><path d="M104.55,129.86H99.41c0-.62,0-1.26,0-1.9q0-7.22,0-14.43a14.88,14.88,0,0,0-.07-1.82c-.49-3.9-2.39-5.89-5.94-6.25a7,7,0,0,0-7.79,4.93,18.88,18.88,0,0,0-.73,5c-.1,4.75,0,9.5,0,14.41H79.54V101.5h5.11l.17,3.56a9.51,9.51,0,0,1,6-3.93,14.33,14.33,0,0,1,7.39.42c4.45,1.57,6.34,5,6.48,9.44.2,6.08,0,12.18,0,18.27A2.26,2.26,0,0,1,104.55,129.86Z" fill="#22314b"/><path d="M17.9,129.9H12.12v-33H0v-5H30.11v4.94H17.9Z" fill="#22314b"/><path d="M282.62,103.92l-2.55,3.68c-2.59-1.36-5.16-2.51-8-2.27a9.7,9.7,0,0,0-3.29.9,3.31,3.31,0,0,0-1.92,3.45,3,3,0,0,0,2.29,2.78c1.92.55,3.92.84,5.88,1.27,1.13.24,2.27.46,3.36.81,6.66,2.14,6.19,9.91,2.55,12.78a14.39,14.39,0,0,1-5.29,2.69A19.16,19.16,0,0,1,263,128.55a22.12,22.12,0,0,1-2.16-1.3l2.44-4.29a13.54,13.54,0,0,0,8.24,3,14,14,0,0,0,4.42-.79,3.07,3.07,0,0,0,2.1-3.3,3,3,0,0,0-2.43-2.85c-2-.53-4-.84-6.07-1.27a27.17,27.17,0,0,1-2.64-.7c-2.79-.9-4.87-2.51-5.36-5.61a8,8,0,0,1,3.29-8.35c3.3-2.37,7-2.55,10.86-2A13.28,13.28,0,0,1,282.62,103.92Z" fill="#22314b"/><path d="M108.91,127.2l2.41-4.24a13.14,13.14,0,0,0,12.46,2.34,3.3,3.3,0,0,0,2.34-3.35,3.09,3.09,0,0,0-2.55-3c-1.93-.52-3.93-.81-5.89-1.22-.89-.19-1.78-.4-2.65-.68-2.94-.92-5-2.63-5.48-5.91a8,8,0,0,1,3.54-8.23c3.21-2.22,6.84-2.39,10.53-1.88a13.37,13.37,0,0,1,7,2.8l-2.42,3.65a28.39,28.39,0,0,0-3.9-1.55,14.54,14.54,0,0,0-4.83-.56,7,7,0,0,0-3.68,1.7,3,3,0,0,0,.77,5,21.57,21.57,0,0,0,4.36,1.24c1.83.43,3.73.63,5.52,1.19a6.6,6.6,0,0,1,5,5.68,7.76,7.76,0,0,1-2.87,7.48,13,13,0,0,1-8.88,2.72A18.35,18.35,0,0,1,108.91,127.2Z" fill="#22314b"/><path d="M143.23,129.9h-5.51V106.23L134.2,106v-4.2l3.38-.22c.17-4.12,1-8,5.25-9.83,3.92-1.69,7.83-1.23,11.91.36l-1.6,3.75c-1.58-.23-3.06-.58-4.55-.64-3.86-.17-5.93,2.35-5.18,6.46h7.13l-1.8,4.43h-5.53Z" fill="#22314b"/><path d="M183,101.45h4.91l.26,3c3.84-3.48,8.07-3.85,12.83-2.46l-1.13,4.22-2.52-.27c-5.47-.58-8.86,2.21-9,7.68-.15,4.62-.06,9.25-.07,13.87,0,.73,0,1.45,0,2.35H183Z" fill="#22314b"/><path d="M30.44,101.36c1.19,0,2.27,0,3.35,0,.53,0,1.07.05,1.7.08l.19,2.95c3.73-3.54,7.9-3.82,12.55-2.49L47,106.2c-.91-.12-1.68-.23-2.46-.31-5.36-.59-8.68,2.3-8.74,7.73-.06,4.69,0,9.38,0,14.07,0,.67,0,1.33,0,2.14H30.44Z" fill="#22314b"/><path d="M255.91,129.87h-5.18V101.48h5.18Z" fill="#22314b"/><path d="M256.22,97.3h-5.66V91.83h5.66Z" fill="#22314b"/><polygon points="159.93 73.58 149.66 73.58 177.55 8.09 146.95 8.09 153.33 18.92 142.65 30.17 160.92 30.17 157.62 38.32 121.54 38.32 141.96 18.92 130.85 0 191.52 0 159.93 73.58" fill="#33c5f3"/></symbol></defs><title>TrnsferWise</title><use width="313.84" height="130.51" transform="translate(29 14) scale(0.41 0.41)" xlink:href="#3caa3373-7eef-4f49-8214-ce4b8816ed63"/></svg>