<svg id="b03907fb-a2ef-4fb8-aad0-3e834adf2c65" data-name="Layer 1" xmlns="http://www.w3.org/2000/svg" xmlns:xlink="http://www.w3.org/1999/xlink" viewBox="0 0 186.4 82"><defs><symbol id="1505eed9-c3cd-4588-99b2-10836385cc4c" data-name="yelp" viewBox="0 0 232.73 105"><g id="0ca0bf39-d623-4ab4-bf57-6c63631a7bc9" data-name="yelp"><path d="M127.46,87.85a4.46,4.46,0,0,0-.7,2.49c0,3,.06,6,0,9a10.59,10.59,0,0,1-.31,2.52,4,4,0,0,1-2.55,2.73,5.56,5.56,0,0,1-5.42-.65,3.56,3.56,0,0,1-1.55-2.25,14.9,14.9,0,0,1-.33-2.88q0-24,0-47.9A18,18,0,0,1,116.9,48a2.91,2.91,0,0,1,1.78-2.31,9.62,9.62,0,0,1,2.76-.8,4.22,4.22,0,0,1,4.46,2.85c.14.33.24.68.38,1.09a3.68,3.68,0,0,0,1.74-.78c6.38-4.78,14.34-3.06,18.82-.16a14.26,14.26,0,0,1,5.73,8,29.28,29.28,0,0,1,1.3,7.38,53.06,53.06,0,0,1-1.11,15.78c-1.13,4.57-3.58,8.21-7.87,10.38a15.93,15.93,0,0,1-12.46,1.14A19.47,19.47,0,0,1,129.2,89C128.61,88.65,128.06,88.24,127.46,87.85Zm4.14-19.34.12,0c.07,1.41.1,2.83.23,4.23a14.75,14.75,0,0,0,1.16,4.81,6.94,6.94,0,0,0,3.65,3.71,7.48,7.48,0,0,0,10.57-4.93c.07-.23.14-.47.18-.7a41.3,41.3,0,0,0,.29-14.1,11.92,11.92,0,0,0-1.42-4.35A5.76,5.76,0,0,0,141,54a17.52,17.52,0,0,0-3.92.62,5.11,5.11,0,0,0-3.42,2.88,14.31,14.31,0,0,0-1.24,3.65C132.05,63.61,131.87,66.07,131.6,68.51Z"/><path d="M68.23,72.15H58c-1.49,0-2.07.54-2,2,.3,6.1,4.88,8.61,9.18,8.27a13.22,13.22,0,0,0,7.51-3.35,18.33,18.33,0,0,1,2-1.55,3.93,3.93,0,0,1,5.74,1.89A5.11,5.11,0,0,1,80.23,84a10.86,10.86,0,0,1-4.4,4.4,23.49,23.49,0,0,1-18.26,2.31,14.37,14.37,0,0,1-8.88-7.22,24.39,24.39,0,0,1-2.81-9.34,47.4,47.4,0,0,1,.66-14.59,19.78,19.78,0,0,1,2.06-5.68,14.62,14.62,0,0,1,8.61-7.21,24.1,24.1,0,0,1,11.5-.88,14.33,14.33,0,0,1,11.68,9.43A31.08,31.08,0,0,1,82,69.31c-.18,2.07-1,2.7-3.09,2.8-1.41.06-2.83,0-4.24,0Zm3.26-7.7A11.06,11.06,0,0,0,70.68,59a7.12,7.12,0,0,0-5-4.38,10.15,10.15,0,0,0-8.85,1.67,8.66,8.66,0,0,0-3.51,6.51c-.11,1.38.17,1.61,1.57,1.61H71.48Z"/><path d="M22.85,73c.32-1.08.65-2.15,1-3.23,1.84-6.24,3.66-12.48,5.53-18.7a15.21,15.21,0,0,1,1.49-3.43c1.24-2.06,2.93-2.59,5.33-1.9a4.26,4.26,0,0,1,3.35,4.34,10.6,10.6,0,0,1-.46,3.09q-6.2,19.64-12.5,39.25a38.12,38.12,0,0,1-2.4,5.68,8.69,8.69,0,0,1-6.32,4.64,17.34,17.34,0,0,1-7.56.18,8,8,0,0,1-1.7-.61A4.39,4.39,0,0,1,6,97.26a4.51,4.51,0,0,1,4.26-3.51c.88-.06,1.78,0,2.67,0,3,.07,4.86-2,4.25-5a8.25,8.25,0,0,0-.69-1.93Q10.1,73.7,3.65,60.6,2.21,57.67.77,54.73A7.74,7.74,0,0,1,0,50.85C.23,47,4.6,45.22,7.08,46.27A4.7,4.7,0,0,1,9.5,48.52Q15.66,60.2,21.87,71.86c.22.42.47.83.7,1.25Z"/><path d="M103.59,61.62c0,7.88,0,15.76,0,23.64a10.52,10.52,0,0,1-.4,3.1,4.92,4.92,0,0,1-5.28,3.19,4.59,4.59,0,0,1-4.26-4.1,19.19,19.19,0,0,1-.2-2.65q0-23.58,0-47.15a20.44,20.44,0,0,1,.18-2.53,4.1,4.1,0,0,1,2.46-3.37,5.43,5.43,0,0,1,5.65.28,3.31,3.31,0,0,1,1.59,2.59c.1,1.37.27,2.73.27,4.1C103.6,46.35,103.59,54,103.59,61.62Z"/><path d="M171.32,9c.62,1,1.19,2,1.8,2.92.27.41.36,1,.86,1.07a4.71,4.71,0,0,0,.33.89q1.44,2.29,2.92,4.56c.85,1.3,1.73,2.57,2.56,3.88.93,1.47,1.8,3,2.71,4.44,1.05,1.69,2.13,3.37,3.2,5.06l2.11,3.32c.48.76,1,1.54,1.46,2.29a7.26,7.26,0,0,0,.73.79.8.8,0,0,0,0,.41A11.47,11.47,0,0,0,192.78,42c.22.17.56.17.82.3s.17.31.28.33a4.79,4.79,0,0,0,1.52.19,10.63,10.63,0,0,0,1.81-.57,4.68,4.68,0,0,1-2,3.13,2.69,2.69,0,0,1-2.77,0A9.45,9.45,0,0,1,189.27,42c-.66-1.08-1.38-2.12-2.06-3.19-.57-.89-1.11-1.79-1.67-2.69L184.86,35c-1-1.61-2-3.23-3-4.83-.72-1.13-1.49-2.24-2.22-3.37s-1.29-2.09-1.95-3.13-1.22-1.83-1.8-2.77-.9-1.63-1.39-2.41-1.21-1.79-1.79-2.7c-.82-1.3-1.65-2.6-2.42-3.93a1.88,1.88,0,0,1,.3-2A8.49,8.49,0,0,1,171.32,9Z" fill="#e5e5e4"/><path d="M189.69,56.6a12.78,12.78,0,0,1-.95,2.2,3.08,3.08,0,0,1-1.63,1.11c-.85.28-1.69.61-2.54.91-.15.05-.32,0-.47.07-1.27.36-2.54.7-3.79,1.11s-2.64,1-4,1.41q-3.32,1.07-6.66,2.06a34,34,0,0,1-3.33.82,1.57,1.57,0,0,1-1.12-.27,4.38,4.38,0,0,1-1.5-1.79,18.71,18.71,0,0,1-.78-4.3,20.18,20.18,0,0,1-.16-3.82c0-1.49.28-3,.45-4.45.08-.71.14-1.43.27-2.13s.31-1.38.49-2.06a.6.6,0,0,1,.36-.34c-.1.93-.23,1.85-.3,2.78a35.8,35.8,0,0,0,.3,10,9,9,0,0,0,.4,1.32c.05.14.22.24.43.46a2.18,2.18,0,0,0,2.13,1.67,12.14,12.14,0,0,0,2.76-.5c3.29-1,6.56-2.06,9.83-3.12.58-.19,1.13-.49,1.71-.68s.92-.17,1.36-.31c1.67-.54,3.34-1.1,5-1.65Z" fill="#e5e5e4"/><path d="M231.09,72.72c-.39.73-.74,1.48-1.17,2.18-.7,1.15-1.41,2.3-2.2,3.38s-1.67,2-2.52,3a18.5,18.5,0,0,1-1.3,1.42,24.56,24.56,0,0,1-2.84,2.55,3.22,3.22,0,0,1-3,.82,3.67,3.67,0,0,1-1.93-1.6c-.82-1.27-1.66-2.53-2.46-3.81-.4-.64-.72-1.33-1.11-2-.7-1.13-1.44-2.22-2.14-3.35-.89-1.45-1.72-2.93-2.62-4.37-.8-1.29-1.74-2.49-2.47-3.81a3.31,3.31,0,0,1-.17-3c.18-.41.4-.81.67-1.35l.26.8.29-.14a1.09,1.09,0,0,0,.38,1.18,8.1,8.1,0,0,1,1,1.62c.29.47.66.9,1,1.37.18.3.2.7.4,1,.75,1,1.26,2.09,1.92,3.12q1.68,2.61,3.34,5.24c.57.91,1.1,1.86,1.68,2.77s1.12,1.77,1.75,2.59a3.08,3.08,0,0,0,3.5.7,15,15,0,0,0,4.35-3.6c.83-1,1.72-1.87,2.51-2.85.57-.71,1-1.52,1.55-2.27.4-.57.83-1.13,1.25-1.69Z" fill="#e5e5e4"/><path d="M204.88,47.11a13.75,13.75,0,0,0,.94,1.73,3.81,3.81,0,0,0,4.14,1.6c2.34-.53,4.66-1.15,7-1.72,1-.24,2-.41,2.91-.72s2-.43,2.95-.7,2-.48,3-.74c1.66-.44,3.31-.9,5-1.36a2.82,2.82,0,0,1-.81,2.28,6,6,0,0,1-2,1c-1.44.45-2.91.81-4.38,1.17-1.7.42-3.42.78-5.12,1.18-1.11.26-2.21.57-3.32.84q-2.5.62-5,1.21c-.76.18-1.53.37-2.3.48-1.44.21-2.39-.65-3.19-1.66a5.06,5.06,0,0,1-.8-1.62,1.9,1.9,0,0,1,.26-1.77A11.32,11.32,0,0,0,204.88,47.11Z" fill="#e5e5e4"/><path d="M197.19,89.36c-.16.52-.33,1-.46,1.46A3,3,0,0,1,194,92.91a15.73,15.73,0,0,1-4.5-.54,22.18,22.18,0,0,1-3.17-1.06,35,35,0,0,1-6.5-2.87A9.13,9.13,0,0,1,177,86.1a2.22,2.22,0,0,1-.21-2.55,3.72,3.72,0,0,0,.73-2.5,6.37,6.37,0,0,0,.16,1.44,5.07,5.07,0,0,0,2.58,2.68c.75.42,1.57.69,2.34,1.08.55.28,1,.7,1.59.94A39.85,39.85,0,0,0,193,90a5.75,5.75,0,0,0,3.28-.09A9.68,9.68,0,0,0,197.19,89.36Z" fill="#e5e5e4"/><path d="M198.65,37.91a18.91,18.91,0,0,1-.54,2.86,3.34,3.34,0,0,1-5.44,1.71,10.22,10.22,0,0,1-2.52-2.92q-5.46-8.6-10.91-17.2-3.79-6-7.56-12a3,3,0,0,1,.85-4.53,11.88,11.88,0,0,1,2.19-1.29,54.35,54.35,0,0,1,16-4.45,11,11,0,0,1,2.54,0,3.09,3.09,0,0,1,3.05,3.16c.23,2.66.4,5.32.58,8q.33,4.77.64,9.55c.29,4.51.56,9,.84,13.54C198.47,35.34,198.55,36.39,198.65,37.91Z" fill="#e31e25"/><path d="M232.73,68.36c-.22.69-.38,1.39-.66,2.06a28.07,28.07,0,0,1-4.77,7.4c-1.31,1.52-2.76,2.94-4.21,4.34a6.91,6.91,0,0,1-1.81,1.2,3,3,0,0,1-4-1.07c-.81-1.16-1.57-2.35-2.31-3.55q-4.28-6.89-8.53-13.8a4.08,4.08,0,0,1,1.09-5.58,3.46,3.46,0,0,1,3.32-.56l13.89,4.6c2,.65,3.9,1.3,5.83,2A3.1,3.1,0,0,1,232.73,68.36Z" fill="#e31e25"/><path d="M163.54,55.23c.17-4,.23-6.9,1.1-9.71a12.34,12.34,0,0,1,.41-1.26c.89-2.06,2.4-2.76,4.49-1.94,4.13,1.61,8.24,3.3,12.35,5,2.13.86,4.23,1.82,6.39,2.59a4.15,4.15,0,0,1,1.93,6,3.31,3.31,0,0,1-1.92,1.57c-6.47,2-12.94,4.06-19.39,6.15a3.32,3.32,0,0,1-4.63-2.69C163.86,58.66,163.69,56.41,163.54,55.23Z" fill="#e31e25"/><path d="M209.16,50.87a4,4,0,0,1-4-2.3,3.51,3.51,0,0,1,.3-4c4-5.43,8.05-10.83,12-16.29a3.3,3.3,0,0,1,5.14-.63,31.73,31.73,0,0,1,3.5,3.68,34.66,34.66,0,0,1,5.07,8.23A10.42,10.42,0,0,1,232,42.7a2.79,2.79,0,0,1-2.2,3.07c-2.41.68-4.84,1.29-7.27,1.89q-6.17,1.54-12.35,3A9.84,9.84,0,0,1,209.16,50.87Z" fill="#e31e25"/><path d="M198.14,87.19a3,3,0,0,1-3.29,3.22,14.32,14.32,0,0,1-3-.31,38.61,38.61,0,0,1-11.5-4.37A10.47,10.47,0,0,1,178.15,84a2.93,2.93,0,0,1-.28-3.89c.6-.86,1.28-1.66,2-2.46l11.25-13.33A3.94,3.94,0,0,1,196,63.14a3.62,3.62,0,0,1,2.4,3.58q0,5.15,0,10.3C198.29,77,198.19,83.8,198.14,87.19Z" fill="#e31e25"/><path d="M162.58,88.61a2.83,2.83,0,1,1,2.81-2.81A2.84,2.84,0,0,1,162.58,88.61Zm-2.46-2.83a2.45,2.45,0,0,0,4.9,0,2.45,2.45,0,1,0-4.9,0Z"/><path d="M163.51,85.83a.59.59,0,0,1,.36.58c0,.18,0,.37,0,.55a1,1,0,0,0,.09.25l0,.08-.08,0h-.56c-.06,0-.1,0-.1-.08s0-.4,0-.6,0-.12,0-.18c0-.26-.1-.33-.35-.35s-.53,0-.8,0v1.21h-.64V84.2h1.67a.84.84,0,0,1,.79.48A.86.86,0,0,1,163.51,85.83Zm-1.45-.28c.32,0,.63,0,.94,0a.33.33,0,0,0,.32-.37c0-.23-.09-.41-.28-.42s-.64,0-1,0Z"/></g></symbol></defs><title>yelp</title><use width="232.73" height="105" transform="translate(45 20) scale(0.41 0.41)" xlink:href="#1505eed9-c3cd-4588-99b2-10836385cc4c"/></svg>