<?xml version="1.0" encoding="utf-8"?>
<!-- Generator: Adobe Illustrator 21.0.0, SVG Export Plug-In . SVG Version: 6.00 Build 0)  -->
<svg version="1.1" id="art" xmlns="http://www.w3.org/2000/svg" xmlns:xlink="http://www.w3.org/1999/xlink" x="0px" y="0px"
	 viewBox="0 0 576 254" style="enable-background:new 0 0 576 254;" xml:space="preserve">
<style type="text/css">
	.st0{fill:#4B4B4B;}
	.st1{fill:#6FDA44;}
	.st2{fill:#4A4A4A;}
</style>
<title>upwork</title>
<path class="st0" d="M349.5,94c-22.2,0-40.2,18-40.2,40.2s18,40.2,40.2,40.2c22.2,0,40.2-18,40.2-40.1C389.6,112,371.7,94,349.5,94
	C349.5,94,349.5,94,349.5,94z M349.5,157.8c-13,0-23.6-10.6-23.6-23.6c0-13,10.6-23.6,23.6-23.6c13,0,23.6,10.6,23.6,23.6
	c0,0,0,0,0,0C373.1,147.2,362.5,157.8,349.5,157.8L349.5,157.8z"/>
<path class="st0" d="M438.5,113.3c-11.5,0-20.8,9.3-20.8,20.8v38h-17.2V96.3h17.2V108c5.1-7.3,13.5-11.7,22.4-11.7h5.3v17
	L438.5,113.3z"/>
<polygon class="st0" points="264.1,96.3 277.1,148.8 291.4,96.3 308.5,96.3 286.5,172.1 269.4,172.1 255.9,119.3 242.4,172.1 
	225.3,172.1 203.3,96.3 220.4,96.3 234.7,148.8 247.7,96.3 "/>
<path class="st0" d="M496.1,131.3c12.7-7.1,20.5-20.5,20.5-35h-17.2c0,12.7-10.3,22.9-22.9,22.9h-2.3V59.7H457v112.4h17.2v-35.7h2
	c1.9,0.1,3.7,1,4.9,2.5l24.4,33.2h20.6L496.1,131.3z"/>
<path class="st1" d="M162.4,94c-18.7,0-33.3,12.2-39.2,32.2c-9-13.5-15.8-29.8-19.8-43.5H83.2v52.5c0,10.4-8.4,18.8-18.8,18.8
	s-18.8-8.4-18.8-18.8V82.8H25.5v52.5c-0.9,21.5,15.8,39.7,37.3,40.6s39.7-15.8,40.6-37.3c0-1.1,0-2.2,0-3.3v-8.8
	c4,8.4,8.8,16.4,14.6,23.8l-12.3,58.1h20.6l9-42.1c8.1,5.3,17.5,8.2,27.2,8.2c22.2,0,40.2-18,40.2-40.2C202.6,112,184.7,94,162.4,94
	L162.4,94z M162.4,154.1c-8.1,0-15.8-3.4-22.7-9.1l1.7-7.9l0.1-0.3c1.5-8.4,6.3-22.6,21-22.6c11-0.2,20.1,8.5,20.4,19.5
	c0.2,11-8.5,20.1-19.5,20.4C163.1,154.1,162.8,154.1,162.4,154.1L162.4,154.1z"/>
<path class="st2" d="M529.7,98.1h-5.8v-1.8h13.5v1.8h-5.8v15.3h-2L529.7,98.1z"/>
<path class="st2" d="M541,96.3h2l6.2,9.3l6.2-9.3h2v17.1h-1.9V99.6l-6.2,9.2h-0.1l-6.2-9.1v13.8h-2V96.3z"/>
</svg>
