<svg id="Layer_1" data-name="Layer 1" xmlns="http://www.w3.org/2000/svg" viewBox="0 0 186 186"><path d="M137,68.3a1.86,1.86,0,0,1-.45-1h0a190.3,190.3,0,0,0-2.91-20.88,3.39,3.39,0,0,0-2.94-2.66l-10-1.22a2.14,2.14,0,0,0-1.24.23,2.2,2.2,0,0,0-1.15,2v2.86a.12.12,0,0,1-.12.12.14.14,0,0,1-.09,0h0A141.49,141.49,0,0,0,97.84,32.39a8.91,8.91,0,0,0-5-1.5h0a8.91,8.91,0,0,0-5,1.5C53.27,53.77,34.21,88.53,33.48,90.44a3.4,3.4,0,0,0-.33,1.46,3.44,3.44,0,0,0,2.59,3.33l10,1.92a3.4,3.4,0,0,1,2.5,2.91c.08,1.76,2,41.1,4.33,51.3a3.44,3.44,0,0,0,3.32,2.55h.42s11.14.19,16.89,1h0l0-.86h.45c.61,0,1.11-.5.73-1.12v0c.15-3.43-.36-11.28-.76-19.54,0-.21,0-.47,0-.68h0a2.11,2.11,0,0,0-1-1.69,10.76,10.76,0,0,1-5.23-8.68c-.53-13.79-.79-29.72,0-42.18a2,2,0,0,1,4,.08v.16c-.5,8.31-.54,18.13-.36,27.82a2.37,2.37,0,1,0,4.74-.08c-.18-9.76-.13-19.65.38-28a2,2,0,0,1,4,.08.86.86,0,0,1,0,.16c-.49,8.26.17,27.67.17,27.67h0s.58,2.34,1.88,2.32a2.37,2.37,0,0,0,2.33-2.4c-.17-9.71-.12-19.54.38-27.84a2,2,0,0,1,4,.08.86.86,0,0,1,0,.16c-.71,12.11-.48,27.45,0,40.91,0,0,0,.12,0,.12s0,.14.17.21h0v.13a11.35,11.35,0,0,1-4.83,8.87,2.09,2.09,0,0,0-.89,1.56s-.24,2.07.67,12.08c.43,4.37.75,7.4.9,8.77a1,1,0,0,0,1,.92c.31,0,.62,0,.94-1h0c1.92,1,6,1,6,1H101l5.65,1h0a7.71,7.71,0,0,0,1.06-1.86c1.31-12,1.61-18.73,1.61-18.73a1.19,1.19,0,0,0-1.07-1.16l-6.86-.95a2.34,2.34,0,0,1-2-1.68,3.24,3.24,0,0,1-.08-1.06c2.78-40,16-53.47,16-53.47a3.66,3.66,0,0,1,.64-.55,2,2,0,0,1,1.24-.41,2.11,2.11,0,0,1,2,1.35,3.89,3.89,0,0,1,.17,1c1.14,12.57.59,34-.12,50.65-.6,14.17-1.32,25.28-1.32,25.28v0a.82.82,0,0,0,.82.82h0c3.75.06,11.34-.2,11.34-.2h.08a3.41,3.41,0,0,0,3.31-2.55c2.37-10.19,4.25-49.5,4.34-51.26a3.42,3.42,0,0,1,2.49-2.91l10-1.92a3.42,3.42,0,0,0,2.26-4.78c-.37-1-5.57-10.6-15.22-22.62" fill="#ff8000"/></svg>