<?xml version="1.0" encoding="utf-8"?>
<!-- Generator: Adobe Illustrator 26.0.1, SVG Export Plug-In . SVG Version: 6.00 Build 0)  -->
<svg version="1.1" id="Layer_1" xmlns="http://www.w3.org/2000/svg" xmlns:xlink="http://www.w3.org/1999/xlink" x="0px" y="0px"
	 viewBox="0 0 186.4 82" style="enable-background:new 0 0 186.4 82;" xml:space="preserve">
<style type="text/css">
	.st0{fill:#0081FB;}
	.st1{fill:url(#Logo1_00000100362311221924379320000013805660291608447647_);}
	.st2{fill:url(#Logo2_00000103980556906458600050000013067101739703512481_);}
	.st3{fill:#192830;}
</style>
<g>
	<path id="Logo0" class="st0" d="M43.5,44.3c0,1,0.2,1.9,0.6,2.8c0.4,0.7,1.1,1.1,1.9,1.1c0.9,0,1.7-0.2,3.4-2.4
		c1.3-1.8,2.8-4.3,3.8-5.9l1.7-2.7c1.2-1.9,2.6-3.7,4.2-5.3c1.1-1.1,2.6-1.7,4.1-1.8c2.4,0,4.6,1.4,6.4,4c1.9,3,2.9,6.5,2.8,10.1
		c0.1,1.8-0.3,3.5-1.2,5.1c-0.9,1.6-2.6,2.5-4.4,2.4v-3.5c2,0,2.5-1.8,2.5-3.9c0-3-0.7-6.3-2.2-8.6c-1.1-1.7-2.5-2.7-4-2.7
		c-1.7,0-3,1.3-4.5,3.5c-0.8,1.2-1.6,2.7-2.6,4.3l-1,1.8c-1,2-2.2,4-3.6,5.8c-1.8,2.4-3.4,3.3-5.4,3.3c-2,0.1-3.9-0.9-4.9-2.6
		c-0.8-1.5-1.2-3.2-1.1-4.9L43.5,44.3z"/>
	
		<linearGradient id="Logo1_00000177485255833523701220000011130953879380850074_" gradientUnits="userSpaceOnUse" x1="-3156.3596" y1="8422.8369" x2="-3134.0332" y2="8423.9609" gradientTransform="matrix(1 0 0 1 3203.4199 -8382.5)">
		<stop  offset="0" style="stop-color:#0064E1"/>
		<stop  offset="0.4" style="stop-color:#0064E1"/>
		<stop  offset="0.83" style="stop-color:#0073EE"/>
		<stop  offset="1" style="stop-color:#0082FB"/>
	</linearGradient>
	<path id="Logo1" style="fill:url(#Logo1_00000177485255833523701220000011130953879380850074_);" d="M42.8,34.3
		c1.6-2.5,3.9-4.2,6.6-4.2c1.7,0,3.4,0.6,4.7,1.8c1.7,1.4,3.6,3.8,5.9,7.6l0.8,1.4c1.2,2,2.4,4,3.8,5.9c0.9,1,1.5,1.3,2.2,1.3
		c2,0,2.5-1.8,2.5-3.9l3.1-0.1c0.1,1.8-0.3,3.5-1.2,5.1c-0.9,1.6-2.6,2.5-4.4,2.5c-1.5,0.1-3-0.5-4.1-1.6c-1.3-1.3-2.4-2.9-3.4-4.5
		l-2.9-4.9c-1-1.8-2.2-3.5-3.6-5.1c-0.8-0.9-1.9-2-3.6-2c-1.4,0-2.6,1-3.5,2.5L42.8,34.3z"/>
	
		<linearGradient id="Logo2_00000134928676788683419540000012403421212716923064_" gradientUnits="userSpaceOnUse" x1="-3158.6772" y1="8428.2939" x2="-3158.6772" y2="8420.0576" gradientTransform="matrix(1 0 0 1 3203.4199 -8382.5)">
		<stop  offset="0" style="stop-color:#0082FB"/>
		<stop  offset="1" style="stop-color:#0064E0"/>
	</linearGradient>
	<path id="Logo2" style="fill:url(#Logo2_00000134928676788683419540000012403421212716923064_);" d="M49.4,33.6
		c-1.4,0-2.6,1-3.5,2.5c-1.5,2.5-2.3,5.3-2.2,8.2c0,1,0.2,1.9,0.6,2.8l-3,1.9c-0.8-1.5-1.2-3.2-1.1-4.9c0-3.5,0.9-6.9,2.8-9.9
		c1.6-2.5,3.9-4.2,6.6-4.2L49.4,33.6z"/>
	<path id="Text" class="st3" d="M79.3,30.8h4l6.9,12.5l6.9-12.5h4v20.5h-3.3V35.5l-6.1,10.9h-3.1l-6.1-10.9v15.8h-3.3V30.8z
		 M111.4,38.5c-2.4,0-3.8,1.8-4.1,4h8.1C115.2,40.2,113.9,38.5,111.4,38.5L111.4,38.5z M104,43.7c0-4.6,3-8,7.5-8s7,3.4,7,8.3v0.9
		h-11.2c0.4,2.4,2,4,4.6,4c1.7,0.1,3.3-0.6,4.5-1.8l1.8,2.2c-1.7,1.6-4,2.5-6.4,2.4C106.9,51.6,104,48.1,104,43.7L104,43.7z
		 M122.4,38.8h-3v-2.7h3v-4.5h3.2v4.5h4.6v2.7h-4.6v6.9c0,2.3,0.7,3.2,2.6,3.2c0.7,0,1.4-0.1,2-0.2v2.7c-0.9,0.3-1.7,0.4-2.6,0.4
		c-3.4,0-5.1-1.9-5.1-5.6L122.4,38.8z M143.6,41.4c-0.6-1.7-2.3-2.9-4.2-2.8c-2.7,0-4.5,1.9-4.5,5.1s1.6,5.1,4.3,5.1
		c1.9,0.1,3.6-1.1,4.3-2.8V41.4z M146.9,51.3h-3.2v-2.1c-1.2,1.6-3.1,2.6-5.1,2.5c-4.2,0-7-3.5-7-8s2.9-8,7.2-8
		c1.9-0.1,3.8,0.8,4.9,2.3v-2h3.2V51.3z"/>
</g>
</svg>
