<svg id="Layer_1" data-name="Layer 1" xmlns="http://www.w3.org/2000/svg" xmlns:xlink="http://www.w3.org/1999/xlink" viewBox="0 0 186 186"><defs><linearGradient id="linear-gradient" x1="-3145.02" y1="-7527.4" x2="-3061.01" y2="-7531.64" gradientTransform="matrix(1, 0, 0, -1, 3203.42, -7436.61)" gradientUnits="userSpaceOnUse"><stop offset="0" stop-color="#0064e1"/><stop offset="0.4" stop-color="#0064e1"/><stop offset="0.83" stop-color="#0073ee"/><stop offset="1" stop-color="#0082fb"/></linearGradient><linearGradient id="linear-gradient-2" x1="-3153.72" y1="-7547.95" x2="-3153.72" y2="-7516.98" gradientTransform="matrix(1, 0, 0, -1, 3203.42, -7436.61)" gradientUnits="userSpaceOnUse"><stop offset="0" stop-color="#0082fb"/><stop offset="1" stop-color="#0064e0"/></linearGradient></defs><path id="Logo0" d="M45.18,105.81c0,4.66,1,8.24,2.36,10.4a8,8,0,0,0,7,4c3.43,0,6.58-.86,12.64-9.24C72.06,104.3,77.78,94.87,81.63,89l6.51-10c4.53-7,9.77-14.68,15.78-19.92,4.9-4.28,10.19-6.66,15.52-6.66,8.93,0,17.45,5.18,24,14.9,7.13,10.64,10.59,24,10.59,37.87,0,8.22-1.62,14.27-4.38,19-2.66,4.61-7.86,9.23-16.59,9.23V120.25c7.48,0,9.35-6.88,9.35-14.74,0-11.21-2.62-23.65-8.38-32.54-4.08-6.3-9.38-10.16-15.2-10.16-6.3,0-11.37,4.76-17.07,13.23-3,4.5-6.14,10-9.63,16.18L88.26,99c-7.72,13.7-9.68,16.81-13.54,22-6.77,9-12.55,12.43-20.15,12.43-9,0-14.73-3.91-18.27-9.8-2.88-4.8-4.3-11.09-4.3-18.27Z" fill="#0081fb"/><path id="Logo1" d="M42.34,68.2c6-9.31,14.76-15.83,24.76-15.83,5.8,0,11.55,1.72,17.56,6.63C91.24,64.36,98.25,73.2,107,87.76L110.13,93c7.57,12.61,11.87,19.1,14.39,22.16,3.24,3.93,5.51,5.1,8.46,5.1,7.48,0,9.35-6.88,9.35-14.74l11.62-.37c0,8.22-1.62,14.27-4.37,19-2.67,4.61-7.86,9.23-16.6,9.23a20.65,20.65,0,0,1-15.56-6.2c-4.09-3.85-8.87-10.7-12.55-16.85L93.93,92.08c-5.49-9.17-10.53-16-13.44-19.1-3.14-3.34-7.17-7.36-13.6-7.36-5.2,0-9.62,3.66-13.32,9.24Z" fill="url(#linear-gradient)"/><path id="Logo2" d="M67.06,65.62c-5.21,0-9.63,3.66-13.33,9.24-5.23,7.9-8.43,19.66-8.43,31,0,4.66,1,8.24,2.36,10.4l-11.24,7.4c-2.88-4.8-4.3-11.09-4.3-18.27,0-13,3.58-26.64,10.39-37.14,6-9.31,14.76-15.83,24.76-15.83Z" fill="url(#linear-gradient-2)"/></svg>