<svg id="Layer_1" data-name="Layer 1" xmlns="http://www.w3.org/2000/svg" viewBox="0 0 186.4 82"><rect x="73.1" y="24.77" width="28.22" height="12.15" transform="translate(16.97 91.05) rotate(-60.08)" fill="#0078ff"/><rect x="101.23" y="24.75" width="28.22" height="12.15" transform="translate(31.09 115.42) rotate(-60.08)" fill="#0078ff"/><path d="M128.45,18.62a6.08,6.08,0,1,1-6.08-6.08,6.08,6.08,0,0,1,6.08,6.08" fill="#00e89d"/><path d="M80.18,49.15a6.07,6.07,0,0,1-5.28-3L60.83,21.64a6.08,6.08,0,1,1,10.54-6.05L85.44,40a6.08,6.08,0,0,1-5.26,9.13Z" fill="#00e89d"/><path d="M108.31,49.15a6.07,6.07,0,0,1-5.28-3L89,21.64A6.08,6.08,0,1,1,99.5,15.57L113.57,40a6.08,6.08,0,0,1-5.26,9.13Z" fill="#00e89d"/><polygon points="71.63 61.28 69.72 67.47 67.8 61.28 66.11 61.28 64.2 67.47 62.27 61.28 59.95 61.28 63.29 70.72 65.09 70.72 66.95 64.79 68.84 70.72 70.61 70.72 73.95 61.28 71.63 61.28" fill="#949a9f"/><path d="M83.78,70.72l-.35-1.07H80.29L80,70.72H77.5l3.38-9.44h2l3.43,9.44Zm-1.91-6.63-1.15,3.84H83Z" fill="#949a9f"/><polygon points="98.71 61.28 96.25 61.28 94.29 65 94.29 65 94.29 65 92.33 61.28 89.85 61.28 93.22 67.37 93.22 70.72 95.37 70.72 95.37 67.37 98.71 61.28" fill="#949a9f"/><polygon points="113.41 70.72 111.47 70.72 111.47 64.93 109.42 70.72 107.79 70.72 105.67 64.93 105.67 70.72 103.53 70.72 103.53 61.28 106.01 61.28 108.51 67.86 110.97 61.28 113.41 61.28 113.41 70.72" fill="#949a9f"/><path d="M118.7,66a5,5,0,1,1,5,4.91,4.79,4.79,0,0,1-5-4.91m7.71,0a2.76,2.76,0,1,0-2.75,3,2.81,2.81,0,0,0,2.75-3" fill="#949a9f"/></svg>