<svg id="Layer_1" data-name="Layer 1" xmlns="http://www.w3.org/2000/svg" viewBox="0 0 186 186"><rect x="52.94" y="60.64" width="55.09" height="23.73" transform="translate(-22.5 106.09) rotate(-60.08)" fill="#0078ff"/><rect x="107.85" y="60.6" width="55.09" height="23.73" transform="translate(5.05 153.67) rotate(-60.08)" fill="#0078ff"/><path d="M161,48.62a11.87,11.87,0,1,1-11.87-11.87A11.88,11.88,0,0,1,161,48.62" fill="#00e89d"/><path d="M66.75,108.23a11.9,11.9,0,0,1-10.31-6L29,54.53A11.87,11.87,0,0,1,49.56,42.71L77,90.42a11.9,11.9,0,0,1-4.36,16.22A11.69,11.69,0,0,1,66.75,108.23Z" fill="#00e89d"/><path d="M121.67,108.23a11.9,11.9,0,0,1-10.31-6L83.9,54.53a11.88,11.88,0,1,1,20.58-11.87l27.46,47.76a11.89,11.89,0,0,1-4.36,16.22A11.56,11.56,0,0,1,121.67,108.23Z" fill="#00e89d"/><polygon points="50.06 131.91 46.34 144.01 42.58 131.91 39.28 131.91 35.55 144.01 31.79 131.91 27.26 131.91 33.78 150.35 37.29 150.35 40.93 138.76 44.61 150.35 48.08 150.35 54.59 131.91 50.06 131.91" fill="#949a9f"/><path d="M73.78,150.35l-.67-2.09H67l-.67,2.09H61.52l6.6-18.44h3.93l6.69,18.44ZM70.06,137.4l-2.26,7.5h4.44Z" fill="#949a9f"/><polygon points="102.94 131.91 98.13 131.91 94.31 139.18 94.31 139.18 94.31 139.18 90.49 131.91 85.64 131.91 92.21 143.8 92.21 150.35 96.41 150.35 96.41 143.8 102.94 131.91" fill="#949a9f"/><polygon points="131.62 150.35 127.85 150.35 127.85 139.03 123.85 150.35 120.66 150.35 116.53 139.03 116.53 150.35 112.34 150.35 112.34 131.91 117.18 131.91 122.06 144.77 126.86 131.91 131.62 131.91 131.62 150.35" fill="#949a9f"/><path d="M142,141.1a9.67,9.67,0,1,1,9.69,9.6,9.36,9.36,0,0,1-9.69-9.6m15.06,0c0-3-2.06-5.78-5.37-5.78s-5.37,2.81-5.37,5.78,2,5.79,5.37,5.79,5.37-2.77,5.37-5.79" fill="#949a9f"/></svg>