<?xml version="1.0" encoding="utf-8"?>
<svg data-name="Layer 1" viewBox="0 0 40 40" xmlns="http://www.w3.org/2000/svg">
  <path d="M 32 21.8 L 28.06 22.58 C 26.976 22.805 26.534 24.114 27.26 24.95 L 29.91 27.95 C 30.639 28.785 31.999 28.517 32.357 27.468 C 32.358 27.466 32.359 27.463 32.36 27.46 L 33.64 23.66 C 33.993 22.617 33.085 21.583 32.006 21.799 C 32.004 21.799 32.002 21.8 32 21.8 Z" fill="none" stroke="#000" stroke-linecap="round" stroke-miterlimit="10" stroke-width="1.5" opacity=".6"/>
  <path d="M 12.53 12.48 C 10.227 14.475 8.843 17.327 8.7 20.37 M 30.77 18.4 C 30.138 15.674 28.508 13.283 26.2 11.7 M 16.48 31.58 C 19.88 32.666 23.593 32.068 26.48 29.97" fill="none" stroke="#fff" stroke-linecap="round" stroke-linejoin="round" stroke-width="1.5" opacity=".5"/>
  <circle cx="19.51" cy="9.83" r="3.94" fill="none" stroke="#000" stroke-linecap="round" stroke-miterlimit="10" stroke-width="1.5" opacity=".6"/>
  <rect x="7.09" y="24.32" width="7.32" height="7.32" rx="1.44" transform="matrix(0.866025, -0.5, 0.5, 0.866025, -12.550211, 8.119975)" opacity=".6" stroke="#000" stroke-linecap="round" stroke-miterlimit="10" stroke-width="1.5" fill="none"/>
  <path d="M 30.76 18.4 C 30.419 16.956 29.79 15.595 28.91 14.4 M 12.53 12.48 C 11.461 13.414 10.575 14.54 9.92 15.8" fill="none" stroke="#fff" stroke-linecap="round" stroke-linejoin="round" stroke-width="1.5" opacity=".5"/>
</svg>