<svg data-name="Layer 1" xmlns="http://www.w3.org/2000/svg" viewBox="0 0 40 40"><path d="M20 34a14 14 0 1114-14 14.06 14.06 0 01-14 14zm0-26a12 12 0 1012 12A12 12 0 0020 8z" fill="#231f20" opacity=".4"/><path d="M22.84 11.06a.93.93 0 00-.93.93v10.17a.93.93 0 001.85 0V12a.93.93 0 00-.92-.94zM17.16 17.52a.92.92 0 00-.92.92v9.7a.93.93 0 001.85 0v-9.7a.93.93 0 00-.93-.92z" fill="#fff" opacity=".6"/><path d="M27 14.62l-3.54-3.31h-.06l-.07-.06h-1.01l-.08.06h-.05l-3.51 3.32A.93.93 0 0020 16l2.88-2.73L25.75 16a.92.92 0 00.63.25.94.94 0 00.68-.29.92.92 0 00-.06-1.34zM21.38 24.2a.91.91 0 00-1.3-.05l-2.91 2.72-2.89-2.72a.91.91 0 00-1.3 0 .93.93 0 000 1.31l3.52 3.32a1 1 0 00.27.17.81.81 0 00.31.06 1.06 1.06 0 00.31 0 1 1 0 00.27-.17l3.55-3.31a.92.92 0 00.17-1.33z" fill="#fff" opacity=".6"/><path d="M20 34a14 14 0 010-28 1 1 0 010 2 12 12 0 000 24 1 1 0 010 2z" fill="#231f20" opacity=".4"/></svg>