<svg class="icon icon-broadband-int" xmlns="http://www.w3.org/2000/svg" id="Layer_1" data-name="Layer 1" viewBox="0 0 216 216">
  <defs>
    <style>
    	.cl_base{fill:#0050BA}.cl_lightest{fill:#93B5E5}.cl_lighter{fill:#5C8FD3}.cl_accent{fill:#FFDA85}
    </style>
  </defs>
  <g class="broadband-int">
    <g class="outer-circ">
      <path d="M54.78 109.78a54.4 54.4 0 1138.49-15.91 54.26 54.26 0 01-38.49 15.91zM54.78 3a52.41 52.41 0 1037.08 15.3A52.29 52.29 0 0054.78 3z" class="cl_lighter"/>
      <path d="M92.56 94.16a1 1 0 01-.7-1.71A52.44 52.44 0 1017.7 18.3a1 1 0 01-1.41-1.41 54.43 54.43 0 0177 77 1 1 0 01-.73.27z" class="cl_base"/>
    </g>
  <g id="inner-section">
    <g class="center-circ">
      <path d="M108 165.24a2 2 0 0 1-2-2v-48.32a2 2 0 0 1 4 0v48.32a2 2 0 0 1-2 2z" class="cl_base pole"/>
      <path d="M108 116.92a7.18 7.18 0 1 1 7.18-7.18 7.19 7.19 0 0 1-7.18 7.18zm0-10.36a3.18 3.18 0 1 0 3.18 3.18 3.19 3.19 0 0 0-3.18-3.18z" class="cl_accent pole-light"/>
    </g>
    <path d="M137.84 160.22a2 2 0 0 1-1.05-3.7 55 55 0 1 0-57.58 0 2 2 0 1 1-2.1 3.41 59 59 0 1 1 61.78 0 2 2 0 0 1-1.05.29z" class="cl_lighter circ-turn"/>
    <path d="M78.16 160.22a2 2 0 0 1-1-.29A58.63 58.63 0 0 1 49 109.74a59.33 59.33 0 0 1 38-55.11 2 2 0 1 1 1.43 3.73A55.32 55.32 0 0 0 53 109.74a54.65 54.65 0 0 0 26.19 46.78 2 2 0 0 1-1 3.7z" class="cl_lightest circ-turn"/>
    <path d="M124.28 138.19a2 2 0 0 1-1.06-3.7 29.08 29.08 0 1 0-30.44 0 2 2 0 0 1-2.1 3.4 33.08 33.08 0 1 1 34.64 0 2 2 0 0 1-1.04.3z" class="cl_lighter circ-rev-turn"/>
    <path d="M124.28 138.19a2 2 0 0 1-1.06-3.7 29.06 29.06 0 0 0-6-52.34 2 2 0 0 1 1.26-3.8 33.06 33.06 0 0 1 6.86 59.54 2 2 0 0 1-1.06.3z" class="cl_lightest circ-rev-turn"/>
  </g>
  </g>
</svg>