<svg class="icon icon-sec-privacy" xmlns="http://www.w3.org/2000/svg" id="Layer_1" data-name="Layer 1" width="150" height="150" viewBox="0 0 216 216">
  <defs>
    <style>.cl_base{fill:#0050BA}.cl_lightest{fill:#93B5E5}.cl_lighter{fill:#5C8FD3}.cl_accent{fill:#FFC34A}</style>
  </defs>
  <title>
        Internet Association Privacy, Security, Safety Icon
    </title>
  <g class="sec-privacy">
    <g class="outer-circ">
      <path d="M54.4 108.8c-13.9 0-27.9-5.3-38.5-15.9-21.2-21.2-21.2-55.8 0-77 21.2-21.2 55.8-21.2 77 0 21.2 21.2 21.2 55.8 0 77-10.6 10.6-24.6 15.9-38.5 15.9zM54.4 2C41 2 27.6 7.1 17.3 17.3-3.1 37.8-3.1 71 17.3 91.5c20.4 20.4 53.7 20.4 74.2 0 20.4-20.4 20.4-53.7 0-74.2C81.3 7.1 67.8 2 54.4 2z" class="cl_base" transform="translate(16.161 16.161) scale(1.68821)"/>
      <path d="M92.2 93.2c-.3 0-.5-.1-.7-.3-.4-.4-.4-1 0-1.4 20.4-20.4 20.4-53.7 0-74.2C71-3.1 37.8-3.1 17.3 17.3c-.4.4-1 .4-1.4 0s-.4-1 0-1.4c21.2-21.2 55.8-21.2 77 0 21.2 21.2 21.2 55.8 0 77-.2.2-.5.3-.7.3z" class="cl_lighter" transform="translate(16.161 16.161) scale(1.68821)"/>
    </g>
  <g class="inner-section">
    <g class="privacy-shield">
      <g class="right-shield">
      <path d="M118.72 152.33a1.5 1.5 0 0 1-.81-2.77l21.54-13.85a2 2 0 0 0 .58-1l14.13-63.58a1.7 1.7 0 0 0-.21-1.33 2.21 2.21 0 0 0-1.41-1l-20-4.42a1.5 1.5 0 1 1 .65-2.93l20 4.43a5.14 5.14 0 0 1 3.3 2.29 4.71 4.71 0 0 1 .6 3.6L143 135.43a4.9 4.9 0 0 1-1.65 2.64l-.15.11-21.62 13.91a1.5 1.5 0 0 1-.86.24zm21.62-15.42z" class="cl_lightest"/>
      <path d="M118.66 152.49a1.5 1.5 0 0 1-.81-2.76l21.54-13.86a1.85 1.85 0 0 0 .59-1l6.08-27.37a1.5 1.5 0 1 1 2.93.65l-6.09 27.39a4.86 4.86 0 0 1-1.65 2.64l-.15.11-21.63 13.91a1.5 1.5 0 0 1-.81.29z" class="cl_lighter"/>
      </g>
     <g class="left-shield">
        <path d="M65.89 97.24a1.5 1.5 0 0 1-1.46-1.17l-5.54-24.25a4.67 4.67 0 0 1 .58-3.56 5.22 5.22 0 0 1 3.3-2.34l21.33-5a1.5 1.5 0 0 1 .68 2.93l-21.32 5a2.25 2.25 0 0 0-1.44 1 1.68 1.68 0 0 0-.21 1.3l5.55 24.28a1.5 1.5 0 0 1-1.13 1.79 1.27 1.27 0 0 1-.34.02z" class="cl_lightest"/>
      <path d="M98.26 152.53a1.45 1.45 0 0 1-.79-.23l-22-13.62-.14-.1a4.87 4.87 0 0 1-1.72-2.66L58.92 71.86a4.65 4.65 0 0 1 .57-3.57A5.17 5.17 0 0 1 62.8 66l19.91-4.63a1.5 1.5 0 1 1 .68 2.92l-19.91 4.59a2.26 2.26 0 0 0-1.43 1 1.7 1.7 0 0 0-.22 1.3l14.65 64.07a1.84 1.84 0 0 0 .61 1l22 13.57a1.5 1.5 0 0 1-.79 2.78z" class="cl_lighter"/>
      </g>
    </g>
    <g class="privacy-key">
      <path d="M112 89.12a11.9 11.9 0 0 1-8.65-.64 12.19 12.19 0 0 1-5.81-16.09 11.94 11.94 0 0 1 16-5.76 12.19 12.19 0 0 1 5.81 16.08 11.84 11.84 0 0 1-6.79 6.22zm-6.15-19.94l-.39.13a8.52 8.52 0 0 0-4.89 4.48 8.84 8.84 0 0 0 4.21 11.67 8.58 8.58 0 0 0 11.52-4.15 8.85 8.85 0 0 0-4.21-11.67 8.55 8.55 0 0 0-6.21-.46zm-6.79 3.91z" class="cl_accent"/>
      <path d="M118.34 83.61a1.64 1.64 0 0 1-1.19-.08 1.67 1.67 0 0 1-.82-2.22 8.85 8.85 0 0 0-4.21-11.67 8.61 8.61 0 0 0-11.52 4.15 1.67 1.67 0 0 1-3-1.4 11.94 11.94 0 0 1 16-5.76 12.19 12.19 0 0 1 5.81 16.08 1.7 1.7 0 0 1-1.07.9z" class="cl_accent"/>
      <path d="M100.78 51.77c.45-.13.9-.25 1.35-.35a26.36 26.36 0 0 1 24.71 44.34 26.65 26.65 0 0 1-7.93 5.49 3.43 3.43 0 0 0-2 3.12l-.08 28.28-3.83 3.89a3.43 3.43 0 0 0 0 4.85l3.83 3.81v13l-8.56 6.62-8.49-6.5.07-26.19 5.15-5.23a3.43 3.43 0 0 0 0-4.85l-5.2-5.19v-12.2a3.45 3.45 0 0 0-2.1-3.17 26.37 26.37 0 0 1-8.25-43 26.68 26.68 0 0 1 11.29-6.76M99.74 48.39a30.17 30.17 0 0 0-21.46 28.88 29.55 29.55 0 0 0 18.12 27.38v12.94a1.68 1.68 0 0 0 .49 1.19l5.71 5.7-5.75 5.77a1.66 1.66 0 0 0-.49 1.17l-.07 27.8a1.69 1.69 0 0 0 .65 1.33l10.27 7.85a1.68 1.68 0 0 0 1.4.3h.08a1.59 1.59 0 0 0 .53-.28l10.31-8a1.65 1.65 0 0 0 .65-1.31v-14.62a1.61 1.61 0 0 0-.49-1.19l-4.31-4.3 4.38-4.4a1.65 1.65 0 0 0 .48-1.17l.08-29A30.13 30.13 0 0 0 138.05 77a29.69 29.69 0 0 0-29.86-29.76 30.09 30.09 0 0 0-6.86.82c-.51.12-1 .25-1.52.4z" class="cl_base"/>
    </g>
  </g>
  </g>
</svg>