<svg data-name="Layer 1" xmlns="http://www.w3.org/2000/svg" viewBox="0 0 48 48"><path d="M31.71 42.8H15.27c-3.91 0-6.54-3-6.54-7.58V11.53a7.2 7.2 0 017.19-7.19h15.79a7.2 7.2 0 017.19 7.19v24.09a7.19 7.19 0 01-7.19 7.18zM15.92 5.58A6 6 0 0010 11.53v23.69c0 2.93 1.39 6.34 5.3 6.34h16.41a6 6 0 005.95-5.94V11.53a6 6 0 00-5.95-5.95z" fill="#525b6c"/><path d="M31.48 20.27h-9.69a.88.88 0 010-1.76h9.69a.88.88 0 110 1.76z" fill="#87b7fd"/><path d="M17.28 20.27h-1.13a.88.88 0 010-1.76h1.13a.88.88 0 110 1.76z" fill="#ffcd05"/><path d="M22.74 13h-6.59a.88.88 0 110-1.76h6.59a.88.88 0 110 1.76z" fill="#b8bcc2"/><path d="M31.48 13H28a.88.88 0 110-1.76h3.52a.88.88 0 010 1.76zM23.06 35.88h-6.91a.89.89 0 010-1.77h6.91a.89.89 0 010 1.77z" fill="#0e6ffa"/><path d="M31.38 35.88h-3.1a.89.89 0 010-1.77h3.1a.89.89 0 110 1.77z" fill="#ffcd05"/><path d="M31.48 27.91H16.15a.89.89 0 010-1.77h15.33a.89.89 0 010 1.77z" fill="#b8bcc2"/></svg>