<?xml version="1.0" encoding="utf-8"?>
<!-- Generator: Adobe Illustrator 21.1.0, SVG Export Plug-In . SVG Version: 6.00 Build 0)  -->
<svg version="1.1" id="Layer_1" xmlns="http://www.w3.org/2000/svg" xmlns:xlink="http://www.w3.org/1999/xlink" x="0px" y="0px"
	 viewBox="0 0 186.4 82" style="enable-background:new 0 0 186.4 82;" xml:space="preserve">
<style type="text/css">
	.st0{fill:#231F20;}
	.st1{fill:#407CCA;}
	.st2{fill:#FFFFFF;}
	.st3{clip-path:url(#SVGID_1_);fill:#FFFFFF;}
	.st4{clip-path:url(#SVGID_1_);fill:#407CCA;}
</style>
<g>
	<polygon class="st0" points="49.3,33.7 49.3,41.8 58.6,41.8 58.6,33.7 61.1,33.7 61.1,53 58.6,53 58.6,43.9 49.3,43.9 49.3,53 
		46.8,53 46.8,33.7 49.3,33.7 	"/>
	<path class="st0" d="M66.1,46.1c0,3,1.7,5.3,4.2,5.3c2.4,0,4.2-2.3,4.2-5.4c0-2.3-1.2-5.3-4.1-5.3C67.4,40.7,66.1,43.5,66.1,46.1
		L66.1,46.1z M77.1,45.9c0,5.1-3.5,7.3-6.8,7.3c-3.7,0-6.6-2.7-6.6-7.1c0-4.6,3-7.3,6.8-7.3C74.4,38.8,77.1,41.7,77.1,45.9
		L77.1,45.9z"/>
	<path class="st0" d="M79.5,42.9c0-1.4,0-2.6-0.1-3.7h2.2l0.1,2.2h0.1c0.8-1.3,2-2.5,4.3-2.5c1.9,0,3.3,1.1,3.9,2.8h0.1
		c0.4-0.8,1-1.4,1.5-1.8c0.8-0.6,1.7-1,3-1c1.8,0,4.5,1.2,4.5,6V53h-2.4v-7.8c0-2.7-1-4.2-3-4.2c-1.4,0-2.5,1.1-3,2.3
		c-0.1,0.3-0.2,0.8-0.2,1.3V53h-2.4v-8.3c0-2.2-1-3.8-2.9-3.8c-1.6,0-2.7,1.3-3.1,2.5C82,43.8,82,44.2,82,44.6V53h-2.4V42.9
		L79.5,42.9z"/>
	<path class="st0" d="M111.5,44.6c0-1.6-0.7-4.2-3.5-4.2c-2.6,0-3.7,2.4-3.9,4.2H111.5L111.5,44.6z M104,46.4
		c0.1,3.5,2.3,4.9,4.8,4.9c1.8,0,2.9-0.3,3.9-0.7l0.4,1.8c-0.9,0.4-2.4,0.9-4.7,0.9c-4.3,0-6.9-2.9-6.9-7.1c0-4.2,2.5-7.6,6.6-7.6
		c4.6,0,5.8,4,5.8,6.6c0,0.5-0.1,0.9-0.1,1.2H104L104,46.4z"/>
	<path class="st1" d="M126.1,44.8l-1.9-5.6c-0.4-1.3-0.7-2.4-1-3.6h-0.1c-0.3,1.2-0.6,2.4-1,3.5l-1.9,5.7H126.1L126.1,44.8z
		 M119.7,46.8l-2,6.2H115l6.6-19.6h3l6.7,19.6h-2.7l-2.1-6.2H119.7L119.7,46.8z"/>
	<path class="st1" d="M133.9,38.9l1.9,7.2c0.4,1.6,0.8,3,1,4.5h0.1c0.3-1.4,0.8-2.9,1.2-4.5l2.3-7.2h2.1l2.2,7
		c0.5,1.7,0.9,3.2,1.2,4.6h0.1c0.2-1.4,0.6-2.9,1.1-4.6l2-7.1h2.5L147.1,53h-2.3l-2.1-6.7c-0.5-1.6-0.9-3-1.2-4.6h-0.1
		c-0.3,1.7-0.8,3.1-1.3,4.7l-2.3,6.7h-2.3l-4.2-14.1H133.9L133.9,38.9z"/>
	<path class="st1" d="M160.8,45.8c-2.8-0.1-5.9,0.4-5.9,3.2c0,1.7,1.1,2.4,2.4,2.4c1.8,0,3-1.2,3.4-2.4c0.1-0.3,0.1-0.6,0.1-0.8
		V45.8L160.8,45.8z M163.3,49.6c0,1.2,0.1,2.4,0.2,3.4h-2.3l-0.2-1.8h-0.1c-0.8,1.1-2.3,2.1-4.3,2.1c-2.8,0-4.3-2-4.3-4
		c0-3.4,3-5.3,8.4-5.2v-0.3c0-1.2-0.3-3.3-3.2-3.3c-1.3,0-2.7,0.4-3.7,1l-0.6-1.7c1.2-0.8,2.8-1.3,4.6-1.3c4.3,0,5.3,2.9,5.3,5.8
		V49.6L163.3,49.6z"/>
	<path class="st1" d="M167.4,38.9l3.1,8.3c0.3,0.9,0.7,2,0.9,2.9h0.1c0.3-0.8,0.5-1.9,0.9-2.9l2.8-8.3h2.7l-3.8,10
		c-1.8,4.8-3.1,6.9-4.8,8.4c-1.2,1.1-2.5,1.5-3.1,1.7l-0.6-2.2c0.6-0.2,1.5-0.6,2.2-1.3c0.7-0.6,1.6-1.5,2.1-2.9
		c0.1-0.3,0.2-0.5,0.2-0.6c0-0.1-0.1-0.3-0.2-0.7l-5.2-12.6H167.4L167.4,38.9z"/>
	<path class="st2" d="M19.8,42.8c-0.8,1-1.9,1.7-3.1,1.8c-0.1,0-0.1,0-0.2,0c-1.3,0-2.4-0.6-3.3-1.6c-0.8-1-1.4-2.3-1.5-3.8
		c0-0.1,0-0.2,0-0.4c0-1.5,0.5-2.8,1.2-3.8c0.8-1,1.9-1.7,3.1-1.8c0.1,0,0.1,0,0.2,0c1.3,0,2.4,0.6,3.3,1.6c0.8,1,1.4,2.3,1.5,3.8
		c0,0.1,0,0.2,0,0.4C21,40.5,20.5,41.8,19.8,42.8L19.8,42.8z M16.4,25.1l-7.5,9.5l0,12.2l6.9-0.8c0,0,1.3-0.2,1.4,1
		c0.1,1.4-1.1,1.4-1.1,1.4l-7.2,1l0,2.6l15.4,2.8l0-20.1L16.4,25.1L16.4,25.1z"/>
	<polygon class="st2" points="30.9,36.7 27.3,36.8 27.2,41.8 30.9,41.5 30.9,36.7 	"/>
	<polygon class="st2" points="27.3,43.3 27.2,48.3 30.9,47.9 30.9,43 27.3,43.3 	"/>
	<path class="st2" d="M13.7,39c-0.1-1.9,0.9-3.6,2.3-3.7c-0.8,0.5-1.3,1.9-1.2,3.6c0.1,1.7,0.8,3,1.6,3.4l0,0
		C15,42.5,13.8,41,13.7,39L13.7,39z M18.8,35.4c-0.7-0.8-1.6-1.3-2.6-1.3c-0.1,0-0.1,0-0.2,0c-1,0.1-1.8,0.6-2.4,1.4
		c-0.6,0.8-1,2-1,3.2c0,0.1,0,0.2,0,0.3c0.1,1.3,0.5,2.5,1.2,3.3c0.7,0.8,1.6,1.3,2.6,1.3c0.1,0,0.1,0,0.2,0c1-0.1,1.8-0.6,2.4-1.4
		c0.6-0.8,1-2,1-3.2c0-0.1,0-0.2,0-0.3C20,37.4,19.5,36.2,18.8,35.4L18.8,35.4z"/>
	<polygon class="st2" points="32.4,36.6 32.4,41.4 35.4,41.2 35.4,36.5 32.4,36.6 	"/>
	<g>
		<defs>
			<rect id="SVGID_3_" x="4" y="23" width="180" height="36"/>
		</defs>
		<clipPath id="SVGID_1_">
			<use xlink:href="#SVGID_3_"  style="overflow:visible;"/>
		</clipPath>
		<polygon class="st3" points="32.4,47.8 35.4,47.5 35.4,42.7 32.4,42.9 32.4,47.8 		"/>
		<path class="st4" d="M32.4,41.4l0-4.8l3-0.1l0,4.7L32.4,41.4L32.4,41.4z M35.4,47.5l-3,0.3v-4.8l3-0.2V47.5L35.4,47.5z M27.2,48.3
			l0-4.9l3.6-0.3l0,4.9L27.2,48.3L27.2,48.3z M8.8,52l0-2.6l7.2-1c0,0,1.2,0,1.1-1.4c-0.1-1.2-1.4-1-1.4-1l-6.9,0.8l0-12.2l7.5-9.5
			l7.8,9.5l0,20.1L8.8,52L8.8,52z M27.3,36.8l3.6-0.2l0,4.8l-3.6,0.3L27.3,36.8L27.3,36.8z M30.6,23H14L4.2,34.6h3.5V47L5,47.4
			c0,0-1.3,0.2-1,1.6c0.3,0.9,1.3,0.8,1.3,0.8l2.3-0.3v3.4l16.5,3l13.1-3l0-18.3H41L30.6,23L30.6,23z"/>
	</g>
	<path class="st1" d="M19,42.3c-0.6,0.8-1.5,1.3-2.4,1.4c-0.1,0-0.1,0-0.2,0c-1,0-1.9-0.5-2.6-1.3c-0.7-0.8-1.2-2-1.2-3.3
		c0-0.1,0-0.2,0-0.3c0-1.3,0.4-2.4,1-3.2c0.6-0.8,1.5-1.3,2.4-1.4c0.1,0,0.1,0,0.2,0c1,0,1.9,0.5,2.6,1.3c0.7,0.8,1.2,2,1.2,3.3
		c0,0.1,0,0.2,0,0.3C20.1,40.3,19.7,41.4,19,42.3L19,42.3z M19.5,34.8c-0.8-1-2-1.6-3.3-1.6c-0.1,0-0.1,0-0.2,0
		c-1.3,0.1-2.4,0.7-3.1,1.8c-0.8,1-1.2,2.4-1.2,3.8c0,0.1,0,0.2,0,0.4c0.1,1.5,0.6,2.9,1.5,3.8c0.8,1,2,1.6,3.3,1.6
		c0.1,0,0.1,0,0.2,0c1.3-0.1,2.4-0.7,3.1-1.8c0.8-1,1.2-2.4,1.2-3.8c0-0.1,0-0.2,0-0.4C20.9,37.1,20.4,35.8,19.5,34.8L19.5,34.8z"/>
	<path class="st1" d="M14.7,39c-0.1-1.6,0.4-3,1.2-3.6c-1.4,0.1-2.4,1.7-2.3,3.7c0.1,1.9,1.3,3.5,2.7,3.4l0,0
		C15.5,42,14.8,40.6,14.7,39L14.7,39z"/>
	<path class="st1" d="M181.4,41.1h0.2c0.3,0,0.5-0.1,0.5-0.3c0-0.2-0.1-0.3-0.5-0.3c-0.1,0-0.2,0-0.3,0V41.1L181.4,41.1z
		 M181.4,42.3h-0.5v-2.2c0.2,0,0.5-0.1,0.8-0.1c0.4,0,0.6,0.1,0.8,0.2c0.1,0.1,0.2,0.3,0.2,0.5c0,0.3-0.2,0.4-0.5,0.5v0
		c0.2,0.1,0.3,0.2,0.4,0.5c0.1,0.3,0.1,0.5,0.2,0.5h-0.5c-0.1-0.1-0.1-0.3-0.2-0.5c0-0.2-0.2-0.3-0.5-0.3h-0.2V42.3L181.4,42.3z
		 M181.7,39.4c-1,0-1.7,0.8-1.7,1.8c0,1,0.7,1.8,1.7,1.8c1,0,1.7-0.8,1.7-1.8C183.4,40.2,182.7,39.4,181.7,39.4L181.7,39.4
		L181.7,39.4z M181.8,39c1.3,0,2.2,1,2.2,2.2c0,1.2-1,2.2-2.2,2.2c-1.3,0-2.3-1-2.3-2.2C179.5,39.9,180.5,39,181.8,39L181.8,39
		L181.8,39z"/>
</g>
</svg>
