<svg data-name="Layer 1" xmlns="http://www.w3.org/2000/svg" viewBox="0 0 150 150"><g opacity=".8" fill="none" stroke="#fff" stroke-linecap="round" stroke-miterlimit="10" stroke-width="3"><path d="M117.76 125.28a66 66 0 01-96.39-88.76M47.58 15a66 66 0 0179 101.26"/></g><path d="M123.36 119.92c-.66.7-1.33 1.39-2 2.07" fill="none" stroke="#ffcd05" stroke-linecap="round" stroke-miterlimit="10" stroke-width="3"/><path d="M30.4 26.35A67.75 67.75 0 0137.08 21" fill="none" stroke="#2dd473" stroke-linecap="round" stroke-miterlimit="10" stroke-width="3"/><path d="M93.7 70.51a12.09 12.09 0 012.24-.91 11.83 11.83 0 012.37-.46 12.13 12.13 0 012.41 0 12.69 12.69 0 012.36.49 12 12 0 012.22.94 11.7 11.7 0 012 1.35 12.17 12.17 0 013 3.73 12.09 12.09 0 01.91 2.24 11.81 11.81 0 01.45 2.37 12.13 12.13 0 010 2.41 12.52 12.52 0 01-.49 2.36 11.83 11.83 0 01-.94 2.23 12.28 12.28 0 01-1.36 2 12 12 0 01-1.72 1.7 12.37 12.37 0 01-4.25 2.23 13.4 13.4 0 01-2.37.45 12.94 12.94 0 01-2.41 0 12.69 12.69 0 01-2.36-.49 11.78 11.78 0 01-2.22-.95 12.31 12.31 0 01-2-1.35 12.49 12.49 0 01-1.69-1.72 12.09 12.09 0 01-1.32-2" fill="none" stroke="#fff" stroke-linecap="round" stroke-linejoin="round" stroke-width="3"/><path d="M87.1 81.56a12.31 12.31 0 011.32-5.71" fill="none" stroke="#ffcd05" stroke-linecap="round" stroke-linejoin="round" stroke-width="3"/><path d="M79.67 93.57a12.26 12.26 0 01.88 2.24 12.76 12.76 0 01.45 2.38 12.12 12.12 0 01-.06 2.41 12.76 12.76 0 01-.52 2.36 12.1 12.1 0 01-1 2.21 11.63 11.63 0 01-1.38 2 12.57 12.57 0 01-1.75 1.67 12.23 12.23 0 01-2 1.29 12.34 12.34 0 01-11.6-.27 12.37 12.37 0 01-2-1.39 12.5 12.5 0 01-1.69-1.78 11.62 11.62 0 01-1.29-2 12.19 12.19 0 01-1.27-4.69 12.93 12.93 0 01.05-2.41A12.2 12.2 0 0158 93.06a11.85 11.85 0 011.39-2 12 12 0 011.75-1.67 13.5 13.5 0 012-1.29" fill="none" stroke="#fff" stroke-linecap="round" stroke-linejoin="round" stroke-width="3"/><path d="M68.73 86.79a12.22 12.22 0 015.68 1.41" fill="none" stroke="#f1613c" stroke-linecap="round" stroke-linejoin="round" stroke-width="3"/><path d="M70.73 55a12.07 12.07 0 01-.88-2.25 12.74 12.74 0 01-.41-2.38 12.14 12.14 0 010-2.41A12 12 0 0171 43.43a12.31 12.31 0 011.38-2 12 12 0 011.75-1.66 12.29 12.29 0 012-1.3 13.4 13.4 0 012.25-.87 12.1 12.1 0 012.38-.41 11.41 11.41 0 012.41 0 12.6 12.6 0 012.36.53 12.35 12.35 0 012.2 1 12.12 12.12 0 013.64 3.14 12.4 12.4 0 012.16 4.29 11.89 11.89 0 01.47 2.41 12.24 12.24 0 01-.09 2.44 12.68 12.68 0 01-.53 2.35 11.71 11.71 0 01-1 2.2 11.94 11.94 0 01-1.39 2 12.5 12.5 0 01-1.75 1.66 11.34 11.34 0 01-2 1.29" fill="none" stroke="#fff" stroke-linecap="round" stroke-linejoin="round" stroke-width="3"/><path d="M81.67 61.8A12 12 0 0176 60.39" fill="none" stroke="#60ffa0" stroke-linecap="round" stroke-linejoin="round" stroke-width="3"/><path d="M53.68 77.1a12.54 12.54 0 01-2.35.55 12.1 12.1 0 01-4.79-.32 12.33 12.33 0 01-2.26-.85 12.48 12.48 0 01-3.81-2.92 12.26 12.26 0 01-1.4-2 12.53 12.53 0 01-1.54-4.55 12.13 12.13 0 01-.08-2.41 12 12 0 01.4-2.38A12.33 12.33 0 0138.7 60a13.18 13.18 0 011.3-2 13 13 0 011.65-1.75 12.42 12.42 0 016.52-3 12.93 12.93 0 012.41-.07 12.39 12.39 0 014.63 1.25 11.73 11.73 0 012 1.28A12 12 0 0159 57.36a12.26 12.26 0 011.4 2 13.12 13.12 0 011 2.2" fill="none" stroke="#fff" stroke-linecap="round" stroke-linejoin="round" stroke-width="3"/><path d="M61.9 67.22a12.17 12.17 0 01-2.19 5.43" fill="none" stroke="#8d2cc6" stroke-linecap="round" stroke-linejoin="round" stroke-width="3"/></svg>