<svg id="Layer_1" data-name="Layer 1" xmlns="http://www.w3.org/2000/svg" viewBox="0 0 150 150"><g opacity="0.3"><circle cx="87.57" cy="143.55" r="2.82" fill="#fff"/></g><g opacity="0.3"><circle cx="67.92" cy="143.55" r="2.81" fill="#fff"/></g><g opacity="0.3"><circle cx="49.1" cy="138.15" r="2.8" fill="#fff"/></g><g opacity="0.3"><circle cx="32.57" cy="127.82" r="2.79" fill="#fff"/></g><g opacity="0.3"><circle cx="19.58" cy="113.39" r="2.77" fill="#fff"/></g><g opacity="0.3"><circle cx="11.1" cy="96.01" r="2.76" fill="#fff"/></g><g opacity="0.3"><circle cx="7.75" cy="77.04" r="2.75" fill="#fff"/></g><g opacity="0.3"><circle cx="9.76" cy="57.95" r="2.74" fill="#fff"/></g><g opacity="0.3"><circle cx="16.92" cy="40.23" r="2.73" fill="#fff"/></g><g opacity="0.3"><circle cx="28.64" cy="25.23" r="2.72" fill="#fff"/></g><g opacity="0.3"><circle cx="43.97" cy="14.09" r="2.71" fill="#fff"/></g><g opacity="0.3"><circle cx="61.72" cy="7.63" r="2.7" fill="#fff"/></g><g opacity="0.3"><circle cx="80.48" cy="6.32" r="2.69" fill="#fff"/></g><g opacity="0.3"><circle cx="98.81" cy="10.21" r="2.68" fill="#fff"/></g><g opacity="0.3"><circle cx="115.28" cy="18.97" r="2.67" fill="#fff"/></g><g opacity="0.3"><circle cx="128.65" cy="31.88" r="2.65" fill="#fff"/></g><g opacity="0.3"><circle cx="137.91" cy="47.91" r="2.64" fill="#fff"/></g><g opacity="0.3"><circle cx="142.37" cy="65.8" r="2.63" fill="#fff"/></g><g opacity="0.3"><circle cx="141.72" cy="84.16" r="2.62" fill="#fff"/></g><g opacity="0.3"><circle cx="136.07" cy="101.55" r="2.61" fill="#fff"/></g><g opacity="0.3"><circle cx="125.89" cy="116.65" r="2.6" fill="#fff"/></g><g opacity="0.3"><circle cx="111.99" cy="128.32" r="2.59" fill="#fff"/></g><g opacity="0.4"><circle cx="95.48" cy="135.67" r="2.58" fill="#fff"/></g><g opacity="0.6"><circle cx="77.65" cy="138.17" r="2.57" fill="#fff"/></g><g opacity="0.4"><circle cx="59.93" cy="135.44" r="2.56" fill="#fff"/></g><g opacity="0.4"><circle cx="43.64" cy="128.19" r="2.55" fill="#fff"/></g><g opacity="0.4"><circle cx="30.04" cy="116.78" r="2.54" fill="#fff"/></g><g opacity="0.4"><circle cx="20.15" cy="102.12" r="2.53" fill="#fff"/></g><g opacity="0.4"><circle cx="14.71" cy="85.37" r="2.52" fill="#fff"/></g><g opacity="0.4"><circle cx="14.1" cy="67.84" r="2.51" fill="#fff"/></g><g opacity="0.4"><circle cx="18.33" cy="50.89" r="2.5" fill="#fff"/></g><g opacity="0.4"><circle cx="27.03" cy="35.82" r="2.49" fill="#fff"/></g><g opacity="0.4"><circle cx="39.5" cy="23.78" r="2.48" fill="#fff"/></g><g opacity="0.4"><circle cx="54.74" cy="15.67" r="2.47" fill="#fff"/></g><g opacity="0.4"><circle cx="71.56" cy="12.1" r="2.46" fill="#fff"/></g><g opacity="0.4"><circle cx="88.64" cy="13.29" r="2.45" fill="#fff"/></g><g opacity="0.4"><circle cx="104.67" cy="19.13" r="2.44" fill="#fff"/></g><g opacity="0.4"><circle cx="118.42" cy="29.11" r="2.43" fill="#fff"/></g><g opacity="0.4"><circle cx="128.84" cy="42.45" r="2.42" fill="#fff"/></g><g opacity="0.4"><circle cx="135.15" cy="58.08" r="2.41" fill="#fff"/></g><g opacity="0.4"><circle cx="136.91" cy="74.77" r="2.4" fill="#fff"/></g><g opacity="0.4"><circle cx="134.11" cy="91.39" r="2.39" fill="#fff"/></g><g opacity="0.4"><circle cx="126.8" cy="106.39" r="2.38" fill="#fff"/></g><g opacity="0.4"><circle cx="115.68" cy="118.74" r="2.37" fill="#fff"/></g><g opacity="0.6"><circle cx="101.64" cy="127.51" r="2.36" fill="#fff"/></g><g opacity="0.7"><circle cx="85.79" cy="132.05" r="2.36" fill="#fff"/></g><g opacity="0.7"><circle cx="69.37" cy="132.05" r="2.35" fill="#fff"/></g><g opacity="0.6"><circle cx="53.65" cy="127.55" r="2.34" fill="#fff"/></g><g opacity="0.6"><circle cx="39.83" cy="118.91" r="2.33" fill="#fff"/></g><g opacity="0.6"><circle cx="28.97" cy="106.86" r="2.32" fill="#fff"/></g><g opacity="0.6"><circle cx="21.89" cy="92.33" r="2.31" fill="#fff"/></g><g opacity="0.6"><circle cx="19.1" cy="76.48" r="2.3" fill="#fff"/></g><g opacity="0.6"><circle cx="20.77" cy="60.53" r="2.29" fill="#fff"/></g><g opacity="0.6"><circle cx="26.75" cy="45.73" r="2.28" fill="#fff"/></g><g opacity="0.6"><circle cx="36.55" cy="33.19" r="2.27" fill="#fff"/></g><g opacity="0.6"><circle cx="49.36" cy="23.88" r="2.26" fill="#fff"/></g><g opacity="0.6"><circle cx="64.19" cy="18.49" r="2.25" fill="#fff"/></g><g opacity="0.6"><circle cx="79.87" cy="17.39" r="2.25" fill="#fff"/></g><g opacity="0.6"><circle cx="95.18" cy="20.64" r="2.24" fill="#f1613c"/></g><g opacity="0.6"><circle cx="108.94" cy="27.96" r="2.23" fill="#fff"/></g><g opacity="0.6"><circle cx="120.11" cy="38.75" r="2.22" fill="#fff"/></g><g opacity="0.6"><circle cx="127.85" cy="52.14" r="2.21" fill="#fff"/></g><g opacity="0.6"><circle cx="131.57" cy="67.09" r="2.2" fill="#fff"/></g><g opacity="0.6"><circle cx="131.04" cy="82.43" r="2.19" fill="#fff"/></g><g opacity="0.6"><circle cx="126.32" cy="96.96" r="2.18" fill="#fff"/></g><g opacity="0.6"><circle cx="117.8" cy="109.58" r="2.17" fill="#fff"/></g><g opacity="0.7"><circle cx="106.19" cy="119.33" r="2.17" fill="#fff"/></g><g opacity="0.8"><circle cx="92.39" cy="125.47" r="2.16" fill="#fff"/></g><g opacity="0.8"><circle cx="77.5" cy="127.56" r="2.15" fill="#fff"/></g><g opacity="0.8"><circle cx="62.67" cy="125.48" r="2.14" fill="#fff"/></g><g opacity="0.7"><circle cx="49.03" cy="119.41" r="2.13" fill="#fff"/></g><g opacity="0.7"><circle cx="37.65" cy="109.86" r="2.12" fill="#f1613c"/></g><g opacity="0.7"><circle cx="29.37" cy="97.58" r="2.11" fill="#fff"/></g><g opacity="0.7"><circle cx="24.82" cy="83.56" r="2.11" fill="#fff"/></g><g opacity="0.7"><circle cx="24.3" cy="68.89" r="2.1" fill="#fff"/></g><g opacity="0.7"><circle cx="27.84" cy="54.69" r="2.09" fill="#fff"/></g><g opacity="0.7"><circle cx="35.13" cy="42.08" r="2.08" fill="#fff"/></g><g opacity="0.7"><circle cx="45.56" cy="32" r="2.07" fill="#fff"/></g><g opacity="0.7"><circle cx="58.32" cy="25.21" r="2.06" fill="#fff"/></g><g opacity="0.7"><circle cx="72.4" cy="22.22" r="2.06" fill="#fff"/></g><g opacity="0.7"><circle cx="86.71" cy="23.22" r="2.05" fill="#fff"/></g><g opacity="0.7"><circle cx="100.12" cy="28.11" r="2.04" fill="#fff"/></g><g opacity="0.7"><circle cx="111.63" cy="36.47" r="2.03" fill="#fff"/></g><g opacity="0.7"><circle cx="120.35" cy="47.63" r="2.02" fill="#fff"/></g><g opacity="0.7"><circle cx="125.64" cy="60.71" r="2.02" fill="#f1613c"/></g><g opacity="0.7"><circle cx="127.11" cy="74.69" r="2.01" fill="#fff"/></g><g opacity="0.7"><circle cx="124.68" cy="88.47" r="2" fill="#fff"/></g><g opacity="0.7"><circle cx="118.57" cy="101" r="1.99" fill="#60ffa0"/></g><g opacity="0.8"><circle cx="109.27" cy="111.32" r="1.98" fill="#fff"/></g><g opacity="0.9"><circle cx="97.54" cy="118.65" r="1.98" fill="#fff"/></g><g opacity="0.9"><circle cx="84.3" cy="122.45" r="1.97" fill="#fff"/></g><circle cx="70.58" cy="122.45" r="1.96" fill="#ffcd05"/><g opacity="0.9"><circle cx="57.44" cy="118.68" r="1.95" fill="#fff"/></g><g opacity="0.8"><circle cx="45.9" cy="111.47" r="1.94" fill="#fff"/></g><g opacity="0.8"><circle cx="36.83" cy="101.39" r="1.94" fill="#fff"/></g><g opacity="0.8"><circle cx="30.91" cy="89.26" r="1.93" fill="#fff"/></g><g opacity="0.8"><circle cx="28.57" cy="76.01" r="1.92" fill="#fff"/></g><g opacity="0.8"><circle cx="29.97" cy="62.69" r="1.91" fill="#fff"/></g><g opacity="0.8"><circle cx="34.97" cy="50.32" r="1.91" fill="#fff"/></g><g opacity="0.8"><circle cx="43.15" cy="39.84" r="1.9" fill="#fff"/></g><g opacity="0.8"><circle cx="53.86" cy="32.06" r="1.89" fill="#fff"/></g><g opacity="0.8"><circle cx="66.25" cy="27.56" r="1.88" fill="#fff"/></g><g opacity="0.8"><circle cx="79.35" cy="26.64" r="1.88" fill="#fff"/></g><g opacity="0.8"><circle cx="92.14" cy="29.36" r="1.87" fill="#60ffa0"/></g><g opacity="0.8"><circle cx="103.65" cy="35.47" r="1.86" fill="#fff"/></g><g opacity="0.8"><circle cx="112.98" cy="44.49" r="1.85" fill="#fff"/></g><g opacity="0.8"><circle cx="119.44" cy="55.68" r="1.85" fill="#fff"/></g><g opacity="0.8"><circle cx="122.56" cy="68.17" r="1.84" fill="#fff"/></g><g opacity="0.8"><circle cx="122.11" cy="80.98" r="1.83" fill="#fff"/></g><g opacity="0.8"><circle cx="118.16" cy="93.13" r="1.82" fill="#fff"/></g><circle cx="111.05" cy="103.67" r="1.82" fill="#fff"/><circle cx="101.35" cy="111.82" r="1.81" fill="#fff"/><circle cx="89.82" cy="116.95" r="1.8" fill="#fff"/><circle cx="77.37" cy="118.7" r="1.8" fill="#fff"/><circle cx="64.98" cy="116.95" r="1.79" fill="#fff"/><g opacity="0.9"><circle cx="53.59" cy="111.88" r="1.78" fill="#fff"/></g><g opacity="0.9"><circle cx="44.08" cy="103.9" r="1.77" fill="#fff"/></g><g opacity="0.9"><circle cx="37.16" cy="93.65" r="1.77" fill="#fff"/></g><g opacity="0.9"><circle cx="33.35" cy="81.93" r="1.76" fill="#60ffa0"/></g><g opacity="0.9"><circle cx="32.92" cy="69.67" r="1.75" fill="#fff"/></g><g opacity="0.9"><circle cx="35.88" cy="57.81" r="1.75" fill="#fff"/></g><g opacity="0.9"><circle cx="41.97" cy="47.27" r="1.74" fill="#fff"/></g><g opacity="0.9"><circle cx="50.69" cy="38.85" r="1.73" fill="#fff"/></g><g opacity="0.9"><circle cx="61.35" cy="33.18" r="1.73" fill="#fff"/></g><g opacity="0.9"><circle cx="73.12" cy="30.68" r="1.72" fill="#fff"/></g><g opacity="0.9"><circle cx="85.07" cy="31.51" r="1.71" fill="#fff"/></g><g opacity="0.9"><circle cx="96.28" cy="35.59" r="1.7" fill="#fff"/></g><g opacity="0.9"><circle cx="105.89" cy="42.58" r="1.7" fill="#ffcd05"/></g><g opacity="0.9"><circle cx="113.18" cy="51.91" r="1.69" fill="#fff"/></g><g opacity="0.9"><circle cx="117.6" cy="62.84" r="1.68" fill="#fff"/></g><g opacity="0.9"><circle cx="118.83" cy="74.52" r="1.68" fill="#fff"/></g><g opacity="0.9"><circle cx="116.79" cy="86.03" r="1.67" fill="#fff"/></g><g opacity="0.9"><circle cx="111.69" cy="96.51" r="1.66" fill="#fff"/></g><circle cx="103.92" cy="105.13" r="1.66" fill="#fff"/><circle cx="94.12" cy="111.25" r="1.65" fill="#fff"/><circle cx="83.06" cy="114.43" r="1.64" fill="#fff"/><circle cx="71.59" cy="114.43" r="1.64" fill="#fff"/><circle cx="60.62" cy="111.28" r="1.63" fill="#fff"/><circle cx="50.97" cy="105.25" r="1.62" fill="#fff"/><circle cx="43.39" cy="96.83" r="1.62" fill="#fff"/><circle cx="38.44" cy="86.69" r="1.61" fill="#fff"/><circle cx="36.49" cy="75.62" r="1.61" fill="#fff"/><circle cx="37.66" cy="64.49" r="1.6" fill="#fff"/><circle cx="41.84" cy="54.15" r="1.59" fill="#fff"/><circle cx="48.68" cy="45.4" r="1.59" fill="#ffcd05"/><circle cx="57.62" cy="38.9" r="1.58" fill="#fff"/><circle cx="67.98" cy="35.13" r="1.57" fill="#fff"/><circle cx="78.92" cy="34.37" r="1.57" fill="#fff"/><circle cx="89.61" cy="36.64" r="1.56" fill="#fff"/><circle cx="99.22" cy="41.75" r="1.56" fill="#fff"/><circle cx="107.02" cy="49.28" r="1.55" fill="#fff"/><circle cx="112.42" cy="58.63" r="1.54" fill="#fff"/><circle cx="115.02" cy="69.07" r="1.54" fill="#fff"/><circle cx="114.65" cy="79.78" r="1.53" fill="#fff"/><circle cx="111.35" cy="89.92" r="1.52" fill="#fff"/><circle cx="105.41" cy="98.73" r="1.52" fill="#fff"/><circle cx="97.3" cy="105.54" r="1.51" fill="#fff"/><circle cx="87.67" cy="109.83" r="1.51" fill="#fff"/><circle cx="77.27" cy="111.29" r="1.5" fill="#fff"/><circle cx="66.91" cy="109.83" r="1.49" fill="#fff"/><circle cx="57.39" cy="105.6" r="1.49" fill="#fff"/><circle cx="49.45" cy="98.93" r="1.48" fill="#fff"/><circle cx="43.67" cy="90.36" r="1.48" fill="#fff"/><circle cx="40.49" cy="80.57" r="1.47" fill="#fff"/><circle cx="40.13" cy="70.32" r="1.46" fill="#fff"/><circle cx="42.6" cy="60.41" r="1.46" fill="#fff"/><circle cx="47.68" cy="51.61" r="1.45" fill="#fff"/><circle cx="54.97" cy="44.57" r="1.45" fill="#fff"/><circle cx="63.88" cy="39.83" r="1.44" fill="#60ffa0"/><circle cx="73.71" cy="37.74" r="1.44" fill="#f1613c"/><circle cx="83.7" cy="38.44" r="1.43" fill="#fff"/><circle cx="93.07" cy="41.85" r="1.42" fill="#fff"/><circle cx="101.1" cy="47.69" r="1.42" fill="#fff"/><circle cx="107.19" cy="55.48" r="1.41" fill="#fff"/><circle cx="110.88" cy="64.61" r="1.41" fill="#60ffa0"/><circle cx="111.9" cy="74.37" r="1.4" fill="#fff"/><circle cx="110.21" cy="84" r="1.4" fill="#60ffa0"/><circle cx="105.94" cy="92.75" r="1.39" fill="#fff"/><circle cx="99.45" cy="99.95" r="1.39" fill="#f1613c"/><circle cx="91.26" cy="105.07" r="1.38" fill="#fff"/><circle cx="82.02" cy="107.72" r="1.37" fill="#fff"/><circle cx="72.44" cy="107.72" r="1.37" fill="#fff"/><circle cx="63.27" cy="105.09" r="1.36" fill="#f1613c"/><circle cx="55.21" cy="100.05" r="1.36" fill="#60ffa0"/><circle cx="48.87" cy="93.02" r="1.35" fill="#ffcd05"/><circle cx="44.74" cy="84.55" r="1.35" fill="#8d2cc6"/><circle cx="43.11" cy="75.3" r="1.34" fill="#fff"/><circle cx="44.09" cy="66" r="1.34" fill="#fff"/><circle cx="47.58" cy="57.36" r="1.33" fill="#60ffa0"/><circle cx="53.29" cy="50.05" r="1.33" fill="#ffcd05"/><circle cx="60.77" cy="44.61" r="1.32" fill="#fff"/><circle cx="69.42" cy="41.47" r="1.31" fill="#ffcd05"/><circle cx="78.56" cy="40.83" r="1.31" fill="#fff"/><circle cx="87.49" cy="42.73" r="1.3" fill="#8d2cc6"/><circle cx="95.52" cy="47" r="1.3" fill="#ffcd05"/><circle cx="102.04" cy="53.29" r="1.29" fill="#f1613c"/><circle cx="106.55" cy="61.1" r="1.29" fill="#8d2cc6"/><circle cx="108.73" cy="69.82" r="1.28" fill="#fff"/><circle cx="108.41" cy="78.77" r="1.28" fill="#f1613c"/><circle cx="105.66" cy="87.25" r="1.27" fill="#fff"/><circle cx="100.69" cy="94.61" r="1.27" fill="#8d2cc6"/><circle cx="93.92" cy="100.29" r="1.26" fill="#fff"/><circle cx="85.87" cy="103.88" r="1.26" fill="#60ffa0"/><path d="M60.13,57.43h4a.93.93,0,0,1,1,1v27.3a.93.93,0,0,1-1,1h-4a.93.93,0,0,1-1-1V58.46A.93.93,0,0,1,60.13,57.43Z" fill="#fff"/><path d="M68.9,85.6,80.76,58.21A1.21,1.21,0,0,1,82,57.43H83.6a1.16,1.16,0,0,1,1.19.78L96.53,85.6c.29.7,0,1.19-.78,1.19H91.26A1.15,1.15,0,0,1,90.07,86l-1.57-3.7a.75.75,0,0,0-.74-.5H77.67a.66.66,0,0,0-.7.45L75.32,86a1.18,1.18,0,0,1-1.19.78H69.68C68.9,86.79,68.61,86.3,68.9,85.6ZM80.51,76H85c.46,0,.66-.28.5-.7l-2.39-5.56c-.21-.53-.62-.53-.83,0L80,75.3C79.85,75.76,80.06,76,80.51,76Z" fill="#fff"/></svg>