<svg data-name="Layer 1" xmlns="http://www.w3.org/2000/svg" viewBox="0 0 200 200"><path d="M170.89 44.78c.78 1.13 1.53 2.28 2.24 3.46A70.11 70.11 0 01183 89.43v.06" fill="none" stroke="#fff" stroke-linecap="round" stroke-linejoin="round" stroke-width="2" opacity=".5"/><path d="M165.58 38.07c1.12 1.23 2.19 2.52 3.22 3.85" fill="none" stroke="#fff" stroke-linecap="round" stroke-linejoin="round" stroke-width="2" opacity=".3"/><path d="M128.54 18.66a57.19 57.19 0 0129.88 12.62" fill="none" stroke="#fff" stroke-linecap="round" stroke-linejoin="round" stroke-width="2" opacity=".5"/><path fill="none" stroke="#fff" stroke-linecap="round" stroke-linejoin="round" stroke-width="2" opacity=".9" d="M195.53 77.64l-12.51 13.14-12.31-13.98"/><path d="M68.5 178.56c-31-2.62-54.8-33-53.13-67.77" fill="none" stroke="#fff" stroke-linecap="round" stroke-linejoin="round" stroke-width="2" opacity=".5"/><path fill="none" stroke="#fff" stroke-linecap="round" stroke-linejoin="round" stroke-width="2" opacity=".9" d="M4.14 121.03l11.12-12.41 12.41 11.11"/><path d="M118.4 100A18.4 18.4 0 11100 81.6" fill="none" stroke="#fff" stroke-linecap="round" stroke-linejoin="round" stroke-width="3" opacity=".5"/><path d="M108.32 83.58a18.43 18.43 0 016.68 5.73" fill="none" stroke="#ffcd05" stroke-linecap="round" stroke-linejoin="round" stroke-width="3"/><path d="M161.34 105.88V94.12a2.6 2.6 0 00-2.28-2.58l-13.54-1.69a2.66 2.66 0 01-2.2-1.94 44.15 44.15 0 00-4.14-10 2.63 2.63 0 01.19-2.92l8.37-10.77a2.59 2.59 0 00-.21-3.43l-8.32-8.32a2.59 2.59 0 00-3.43-.21L125 60.63a2.64 2.64 0 01-2.92.19 44.31 44.31 0 00-10-4.13 2.66 2.66 0 01-1.94-2.2l-1.69-13.55a2.6 2.6 0 00-2.58-2.28H94.12a2.6 2.6 0 00-2.58 2.28l-1.69 13.55a2.66 2.66 0 01-1.94 2.2 44.34 44.34 0 00-10 4.14 2.63 2.63 0 01-2.91-.19l-10.78-8.38a2.59 2.59 0 00-3.43.21l-8.32 8.32a2.59 2.59 0 00-.21 3.43L60.63 75a2.64 2.64 0 01.19 2.92 44.31 44.31 0 00-4.13 10 2.66 2.66 0 01-2.2 1.94l-13.55 1.68a2.6 2.6 0 00-2.28 2.58v11.76a2.6 2.6 0 002.28 2.58l13.55 1.69a2.66 2.66 0 012.2 1.94 44.34 44.34 0 004.14 10 2.63 2.63 0 01-.19 2.92l-8.38 10.77a2.59 2.59 0 00.21 3.43l8.32 8.32a2.59 2.59 0 003.43.21L75 139.37a2.64 2.64 0 012.92-.19 44.81 44.81 0 0010 4.14 2.66 2.66 0 011.94 2.2l1.69 13.54a2.6 2.6 0 002.58 2.28h11.76a2.6 2.6 0 002.58-2.28l1.69-13.54a2.66 2.66 0 011.94-2.2 44.15 44.15 0 0010-4.14 2.63 2.63 0 012.92.19l10.77 8.37a2.59 2.59 0 003.43-.21l8.32-8.32a2.59 2.59 0 00.21-3.43L139.37 125a2.64 2.64 0 01-.19-2.92 44.81 44.81 0 004.14-10 2.66 2.66 0 012.2-1.94l13.54-1.69a2.6 2.6 0 002.28-2.57z" fill="none" stroke="#fff" stroke-linecap="round" stroke-linejoin="round" stroke-width="3" opacity=".7"/><path d="M109.42 48.63l-1-7.69a2.6 2.6 0 00-2.58-2.28H94.12a2.6 2.6 0 00-2.58 2.28l-1.69 13.55a2.66 2.66 0 01-1.94 2.2 44.34 44.34 0 00-10 4.14 2.63 2.63 0 01-2.91-.19l-10.78-8.38a2.59 2.59 0 00-3.43.21l-8.32 8.32a2.59 2.59 0 00-.21 3.43L60.63 75a2.64 2.64 0 01.19 2.92 44.31 44.31 0 00-4.13 10 2.66 2.66 0 01-2.2 1.94l-13.55 1.68a2.6 2.6 0 00-2.28 2.58v11.76a2.6 2.6 0 002.28 2.58l13.55 1.69a2.66 2.66 0 012.2 1.94 44.34 44.34 0 004.14 10 2.63 2.63 0 01-.19 2.92l-8.38 10.77a2.59 2.59 0 00.21 3.43l8.32 8.32a2.59 2.59 0 003.43.21L75 139.37a2.64 2.64 0 012.92-.19 44.81 44.81 0 0010 4.14 2.66 2.66 0 011.94 2.2l1.69 13.54a2.6 2.6 0 002.58 2.28h11.76a2.6 2.6 0 002.58-2.28l1.69-13.54a2.66 2.66 0 011.94-2.2 44.15 44.15 0 0010-4.14 2.63 2.63 0 012.92.19l6.47 5" fill="none" stroke="#fff" stroke-linecap="round" stroke-linejoin="round" stroke-width="3" opacity=".8"/><path d="M161.17 33.86a14.76 14.76 0 011.14 1" fill="none" stroke="#fff" stroke-linecap="round" stroke-linejoin="round" stroke-width="2" opacity=".3"/></svg>