<svg data-name="Layer 1" xmlns="http://www.w3.org/2000/svg" viewBox="0 0 200 200"><path d="M190 131.62a95.67 95.67 0 114.53-49" fill="none" stroke="#fff" stroke-linecap="round" stroke-miterlimit="10" stroke-width="4" opacity=".8"/><path d="M195.78 102.32a96.79 96.79 0 01-1.28 12.36" fill="none" stroke="#f1613c" stroke-linecap="round" stroke-miterlimit="10" stroke-width="4"/><path d="M130.13 71.28a20 20 0 118.58 26.91" fill="none" stroke="#fff" stroke-linecap="round" stroke-linejoin="round" stroke-width="3" opacity=".6"/><path d="M131.67 92.13a20.13 20.13 0 01-3.56-8.83" fill="none" stroke="#2dd473" stroke-linecap="round" stroke-linejoin="round" stroke-width="3"/><path d="M100 139a20 20 0 11-26.34-10.19" fill="none" stroke="#fff" stroke-linecap="round" stroke-linejoin="round" stroke-width="3" opacity=".6"/><path d="M82.79 127.09a20 20 0 019.11 2.76" fill="none" stroke="#ffcd05" stroke-linecap="round" stroke-linejoin="round" stroke-width="3"/><path d="M61.57 79.68a20 20 0 1120.8-19.11" fill="none" stroke="#fff" stroke-linecap="round" stroke-linejoin="round" stroke-width="3" opacity=".6"/><path d="M79.83 69.51a20 20 0 01-6.51 6.95" fill="none" stroke="#8d2cc6" stroke-linecap="round" stroke-linejoin="round" stroke-width="3"/><path d="M151 109.18a52.57 52.57 0 01-40.15 40.7M87.35 47.53a52.63 52.63 0 0144.33 9.57M59 132a52.58 52.58 0 01-10.5-45.85" fill="none" stroke="#fff" stroke-linecap="round" stroke-linejoin="round" stroke-width="3" opacity=".9"/></svg>