<svg data-name="Layer 1" xmlns="http://www.w3.org/2000/svg" viewBox="0 0 200 200"><path d="M189.79 131.62a95.64 95.64 0 114.53-49" fill="none" stroke="#fff" stroke-linecap="round" stroke-miterlimit="10" stroke-width="4" opacity=".8"/><path d="M195.58 102.32a96.8 96.8 0 01-1.29 12.36" fill="none" stroke="#f1613c" stroke-linecap="round" stroke-miterlimit="10" stroke-width="4"/><g opacity=".9" fill="none" stroke="#fff" stroke-linecap="round" stroke-linejoin="round" stroke-width="4"><path opacity=".6" d="M107.11 45v37.52H77.39V45M57.58 144.06a9.9 9.9 0 009.9 9.9h55.3a9.91 9.91 0 009.91-9.9"/><path d="M67.48 45a9.91 9.91 0 00-9.9 9.91v89.15a9.91 9.91 0 019.9-9.91h69.34a9.91 9.91 0 009.91-9.91V54.91a9.91 9.91 0 00-9.91-9.91z"/></g></svg>