<svg data-name="Layer 1" xmlns="http://www.w3.org/2000/svg" viewBox="0 0 200 200"><path d="M189.92 133c-.67 1.8-1.38 3.57-2.15 5.33s-1.59 3.49-2.46 5.19-1.79 3.39-2.77 5-2 3.27-3.06 4.86-2.19 3.15-3.35 4.67-2.37 3-3.63 4.46-2.54 2.86-3.88 4.24-2.72 2.7-4.13 4-2.88 2.54-4.37 3.74-3 2.36-4.58 3.47-3.16 2.17-4.78 3.19-3.28 2-5 2.89-3.39 1.78-5.12 2.6-3.5 1.57-5.28 2.28-3.58 1.36-5.4 2-3.66 1.14-5.51 1.63-3.72.92-5.6 1.3-3.77.69-5.67 1-3.8.47-5.71.62-3.82.24-5.74.27-3.83 0-5.75-.07-3.82-.22-5.73-.41-3.8-.45-5.7-.76-3.77-.67-5.64-1.1-3.72-.9-5.56-1.43-3.67-1.12-5.47-1.77-3.59-1.34-5.35-2.09-3.51-1.55-5.22-2.41-3.41-1.76-5.07-2.71-3.29-2-4.89-3-3.17-2.15-4.7-3.3-3-2.34-4.5-3.58-2.88-2.52-4.27-3.84-2.73-2.69-4-4.1-2.57-2.84-3.79-4.32-2.38-3-3.51-4.55-2.21-3.13-3.24-4.75-2-3.26-2.94-4.93-1.82-3.38-2.65-5.11-1.61-3.48-2.33-5.25-1.4-3.57-2-5.38-1.18-3.65-1.69-5.5-1-3.71-1.36-5.58-.73-3.76-1-5.66-.51-3.79-.68-5.7-.28-3.83-.33-5.74 0-3.83 0-5.75.18-3.83.36-5.73.41-3.81.7-5.71.63-3.78 1-5.65.86-3.73 1.38-5.58 1.08-3.67 1.71-5.49 1.3-3.6 2-5.37 1.51-3.52 2.35-5.24 1.73-3.42 2.67-5.09 1.93-3.31 3-4.92 2.16-3.17 3.29-4.77 2.31-3.06 3.54-4.53 2.49-2.91 3.8-4.31 2.66-2.76 4.05-4.08 2.79-2.59 4.29-3.82 3-2.42 4.51-3.56 3.11-2.24 4.71-3.29 3.24-2 4.91-3S56 15 57.71 14.12s3.46-1.64 5.22-2.38 3.56-1.43 5.37-2.07 3.63-1.22 5.47-1.74 3.7-1 5.57-1.41S83.1 5.75 85 5.44s3.79-.54 5.7-.73 3.82-.32 5.73-.39 3.83-.09 5.75 0 3.83.14 5.74.3 3.81.37 5.71.64 3.78.6 5.66 1 3.71.74 5.58 1.27 3.69 1 5.51 1.65 3.61 1.27 5.39 2 3.53 1.48 5.27 2.3 3.43 1.69 5.11 2.61 3.33 1.9 5 2.92 3.21 2.09 4.76 3.21 3.08 2.28 4.57 3.49 2.94 2.46 4.35 3.76 2.78 2.63 4.11 4 2.63 2.79 3.87 4.25 2.45 3 3.61 4.47 2.26 3.09 3.33 4.69 2.08 3.22 3 4.87 1.88 3.34 2.75 5 1.67 3.45 2.43 5.21 1.47 3.54 2.13 5.34 1.25 3.62 1.79 5.46 1 3.69 1.47 5.55.81 3.75 1.13 5.64" fill="none" stroke="#fff" stroke-linecap="round" stroke-miterlimit="10" stroke-width="4" opacity=".8"/><path d="M195.7 103.71a96.75 96.75 0 01-1.28 12.37" fill="none" stroke="#f1613c" stroke-linecap="round" stroke-miterlimit="10" stroke-width="4"/><path d="M109.34 83.7a18.1 18.1 0 013 1.94 18.35 18.35 0 012.57 2.49 18.61 18.61 0 012 3 18.36 18.36 0 011.42 3.28 18.87 18.87 0 01.75 3.49 18.61 18.61 0 010 3.58 18.07 18.07 0 01-3.91 9.84 17.72 17.72 0 01-2.49 2.56 18 18 0 01-6.22 3.44 17.47 17.47 0 01-3.5.75 17.75 17.75 0 01-3.57 0 18.2 18.2 0 01-3.52-.65 18 18 0 01-3.32-1.32 18.35 18.35 0 01-3-1.95 17.22 17.22 0 01-2.56-2.49 18.17 18.17 0 01-2-3 17.63 17.63 0 01-1.41-3.28 18.17 18.17 0 01-.74-3.5 17.75 17.75 0 010-3.57 18.34 18.34 0 01.65-3.52 19 19 0 011.33-3.32" fill="none" stroke="#fff" stroke-linecap="round" stroke-linejoin="round" stroke-width="3" opacity=".6"/><path d="M90.34 85.11a18 18 0 018-3.25" fill="none" stroke="#2dd473" stroke-linecap="round" stroke-linejoin="round" stroke-width="3"/><path d="M71.65 159.43c0-15.71 9-28.44 23.27-28.44h10.46c14.3 0 23.27 12.73 23.27 28.44M128.65 38.31c0 15.75-8 28.52-22.28 28.52H93.92c-14.31 0-22.27-12.77-22.27-28.52M160.73 127.39c-15.75 0-28.52-8-28.52-22.28V92.67c0-14.31 12.77-22.28 28.52-22.28M39.57 70.39c15.75 0 28.52 8 28.52 22.28v12.44c0 14.31-12.77 22.28-28.52 22.28" fill="none" stroke="#fff" stroke-linecap="round" stroke-linejoin="round" stroke-width="3" opacity=".75"/><path d="M35.44 118.23a56.17 56.17 0 01.31-39.64M120.06 163.35a55.61 55.61 0 01-40.83-.35M164.18 77.65a56.28 56.28 0 01.43 41.23M80.54 34.29a55.56 55.56 0 0139.89.29" fill="none" stroke="#fff" stroke-linecap="round" stroke-linejoin="round" stroke-width="3" opacity=".5"/></svg>