<svg data-name="Layer 1" xmlns="http://www.w3.org/2000/svg" viewBox="0 0 150 150"><g opacity=".8" fill="none" stroke="#fff" stroke-linecap="round" stroke-miterlimit="10" stroke-width="3"><path d="M119.08 126.83a68 68 0 01-99.37-91.5M46.73 13.09a68.06 68.06 0 0181.43 104.39"/></g><path d="M124.85 121.31q-1 1.09-2.07 2.13" fill="none" stroke="#ffcd05" stroke-linecap="round" stroke-miterlimit="10" stroke-width="3"/><path d="M29 24.84a69.29 69.29 0 016.89-5.54" fill="none" stroke="#60ffa0" stroke-linecap="round" stroke-miterlimit="10" stroke-width="3"/><path d="M70.11 44.36V33.3a2.3 2.3 0 00-2.3-2.3h0A36.81 36.81 0 0031 67.81h0a2.3 2.3 0 002.3 2.3h11.11M105.15 70.27h11.55A2.3 2.3 0 00119 68h0a36.81 36.81 0 00-36.81-36.84h0a2.3 2.3 0 00-2.3 2.3v11M43.85 79.89H33.3a2.3 2.3 0 00-2.3 2.3h0A36.81 36.81 0 0067.81 119h0a2.3 2.3 0 002.3-2.3v-10.34M79.89 106.26v10.28a2.3 2.3 0 002.3 2.3h0A36.81 36.81 0 00119 82h0a2.3 2.3 0 00-2.3-2.3h-11" fill="none" stroke="#fff" stroke-linecap="round" stroke-linejoin="round" stroke-width="3" opacity=".5"/><path d="M59 70.11h8a3.2 3.2 0 003.2-3.2V59M79.89 59.08v7.76a3.42 3.42 0 003.43 3.43h7.29M70.11 91.54v-8.45a3.2 3.2 0 00-3.2-3.2h-8.52M91.15 79.73h-8.06a3.2 3.2 0 00-3.2 3.2v8.51" fill="none" stroke="#fff" stroke-linecap="round" stroke-linejoin="round" stroke-width="3"/><circle cx="74.76" cy="75.4" r="24.04" fill="none" stroke="#fff" stroke-miterlimit="10" stroke-width="3" opacity=".8"/></svg>