<?xml version="1.0" encoding="utf-8"?>
<svg data-name="Layer 1" viewBox="0 0 40 40" xmlns="http://www.w3.org/2000/svg">
  <path d="M 24.15 29.4 L 24.15 29.24 C 24.173 26.972 24.951 24.777 26.36 23 C 28.847 19.773 28.484 15.186 25.52 12.39 C 21.132 8.069 13.712 10.118 12.164 16.079 C 12.012 16.661 11.927 17.259 11.91 17.86 C 11.848 19.713 12.431 21.53 13.56 23 C 14.981 24.755 15.76 26.942 15.77 29.2 L 15.77 29.36 M 15.71 31.83 L 24.21 31.83 M 16.67 35.08 L 23.24 35.08 M 16.67 35.08 L 20.37 35.08" fill="none" stroke="#000" stroke-linecap="round" stroke-miterlimit="10" stroke-width="1.5" opacity=".6"/>
  <path fill="none" stroke="#fff" stroke-linecap="round" stroke-miterlimit="10" stroke-width="1.5" opacity=".5" d="M 19.96 29.4 L 19.96 21.42 M 19.96 29.4 L 19.96 26.25"/>
  <circle cx="19.96" cy="19.79" r="1.63" fill="none" stroke="#fff" stroke-linecap="round" stroke-miterlimit="10" stroke-width="1.5" opacity=".9"/>
  <path fill="none" stroke="#fff" stroke-linecap="round" stroke-linejoin="round" stroke-width="1.5" opacity=".5" d="M 12.029 33.339 L 10.702 29.013 L 6.412 27.567 L 7.421 23.15 L 4.431 19.751 L 7.512 16.434 L 6.621 11.989 L 10.948 10.662 L 12.393 6.373 L 16.81 7.381 L 20.209 4.382 L 23.526 7.472 L 27.971 6.572 L 29.298 10.908 L 33.588 12.353 L 32.579 16.77 L 35.569 20.169 L 32.488 23.487 L 33.379 27.922 L 29.052 29.258 L 27.607 33.548" style=""/>
  <path fill="none" stroke="#fff" stroke-linecap="round" stroke-linejoin="round" stroke-width="1.5" opacity=".5" d="M 35.569 20.169 L 32.488 23.487 L 33.379 27.922 L 29.052 29.258 L 27.607 33.548 M 12.029 33.339 L 10.702 29.013 L 6.412 27.567 L 7.421 23.15 L 4.431 19.751" style=""/>
</svg>