<?xml version="1.0" encoding="utf-8"?>
<svg data-name="Layer 1" viewBox="0 0 40 40" xmlns="http://www.w3.org/2000/svg">
  <path fill="none" stroke="#fff" stroke-linecap="round" stroke-linejoin="round" stroke-width="1.5" d="M14.61 18.32l3.69 4.15M25.64 13.4l-7.34 9.07" opacity=".5"/>
  <path d="M31 9.48H9a.47.47 0 00-.46.46v16a.46.46 0 00.46.45h3.12a.34.34 0 01.34.34v3.46a.32.32 0 00.52.25l4.85-3.94a.51.51 0 01.31-.11H31a.46.46 0 00.46-.45v-16a.47.47 0 00-.46-.46z" fill="none" stroke="#000" stroke-linecap="round" stroke-linejoin="round" stroke-width="1.5" opacity=".5"/>
  <path d="M 31.46 16.193 L 31.46 9.94 C 31.455 9.688 31.252 9.485 31 9.48 L 20.53 9.48" fill="none" stroke="#000" stroke-linecap="round" stroke-linejoin="round" stroke-width="1.5" opacity=".5"/>
</svg>