<?xml version="1.0" encoding="utf-8"?>
<svg data-name="Layer 1" viewBox="0 0 40 40" xmlns="http://www.w3.org/2000/svg">
  <path d="M 17.674 19.989 L 17.674 22.952 C 17.673 23.11 17.745 23.262 17.874 23.373 L 18.994 24.346 C 19.286 24.582 19.286 24.987 18.994 25.223 L 17.944 26.126 C 17.795 26.26 17.713 26.439 17.714 26.626 L 17.714 32.324 C 17.715 32.568 17.844 32.798 18.064 32.947 L 19.934 34.192 C 20.211 34.379 20.597 34.379 20.874 34.192 L 22.804 32.877 C 22.988 32.75 23.095 32.556 23.094 32.351 L 23.094 29.633 C 23.094 29.426 23.001 29.227 22.834 29.081 L 22.034 28.388 C 21.819 28.202 21.819 27.898 22.034 27.713 L 22.874 27.003 C 23.014 26.875 23.092 26.706 23.094 26.529 L 23.094 19.91" fill="none" stroke="#000" stroke-linecap="round" stroke-miterlimit="10" stroke-width="1.5" opacity=".6" style=""/>
  <path d="M 17.864 11.61 C 18.493 10.25 20.108 9.662 21.464 10.3 C 22.818 10.949 23.405 12.562 22.784 13.93 C 22.155 15.29 20.54 15.878 19.184 15.24 C 17.825 14.595 17.237 12.977 17.864 11.61 Z" fill="none" stroke="#fff" stroke-linecap="round" stroke-linejoin="round" stroke-width="1.5" opacity=".5"/>
  <path d="M 17.864 11.61 C 18.493 10.25 20.108 9.662 21.464 10.3 C 22.818 10.949 23.405 12.562 22.784 13.93" fill="none" stroke="#fff" stroke-linecap="round" stroke-linejoin="round" stroke-width="1.5" opacity=".5"/>
  <path d="M 17.674 19.92 C 16.726 19.559 15.864 19.004 15.144 18.29 C 11.101 14.299 12.895 7.428 18.373 5.922 C 23.851 4.416 28.904 9.405 27.469 14.902 C 26.885 17.142 25.283 18.977 23.144 19.86" fill="none" stroke="#000" stroke-linecap="round" stroke-miterlimit="10" stroke-width="1.5" opacity=".6"/>
</svg>