<svg data-name="Layer 1" xmlns="http://www.w3.org/2000/svg" viewBox="0 0 40 40"><rect x="13.95" y="13.84" width="12.31" height="12.31" rx="1.37" fill="none" opacity=".5" stroke-linecap="round" stroke-linejoin="round" stroke-width="1.5" stroke="#fff"/><path fill="none" opacity=".5" stroke-linecap="round" stroke-linejoin="round" stroke-width="1.5" stroke="#fff" d="M18.07 17.96h4.08v4.08h-4.08z"/><path fill="none" stroke="#fff" stroke-linecap="round" stroke-linejoin="round" stroke-width="1.5" opacity=".5" d="M22.15 17.96v4.08h-4.08"/><path d="M18.81 10.68V9.51a2.74 2.74 0 00-2.27-2.84 2.59 2.59 0 00-2.73 2.7v.87h-.55a4.15 4.15 0 00-4.08 3.95v1.14A2.21 2.21 0 018.42 17a2.8 2.8 0 00-.93 2.09v2.71a2.8 2.8 0 00.93 2.09 2.22 2.22 0 01.74 1.7v1.07a4.32 4.32 0 004.08 4.13h.55v.07a2.43 2.43 0 002.75 2.47 2.7 2.7 0 002.25-2.77V29M21.21 29v1.59a2.7 2.7 0 002.25 2.77 2.43 2.43 0 002.75-2.47v-.07h.55a4.32 4.32 0 004.08-4.13v-1.1a2.22 2.22 0 01.74-1.7 2.8 2.8 0 00.93-2.09v-2.69a2.8 2.8 0 00-.93-2.11 2.21 2.21 0 01-.74-1.69v-1.12a4.15 4.15 0 00-4.08-3.95h-.55v-.87a2.59 2.59 0 00-2.73-2.7 2.74 2.74 0 00-2.27 2.84v1.17" fill="none" stroke="#000" stroke-linecap="round" stroke-miterlimit="10" stroke-width="1.5" opacity=".6"/></svg>