<svg id="Layer_1" data-name="Layer 1" xmlns="http://www.w3.org/2000/svg" viewBox="0 0 150 150"><path d="M127.49,21.81C140.48,34.28,147.8,53,148.06,72s-6.51,38.23-19.5,51.44S96.3,143.83,77,143.86a78,78,0,0,1-52.89-20.31C9.81,110.34.52,91,2.14,73.28S16.23,39.47,30.54,27,61,5.71,78.35,4.42,114.47,9.34,127.49,21.81Z" fill="#2c68ff"/><path d="M106.27,65.41H96.63a1.83,1.83,0,0,0-1.95,1.37L91,77.8c-.34,1.15.12,2,1.38,2h7.8c2.07,0,3.1,1.26,2.41,3.33L101,87.32a3.22,3.22,0,0,1-3.22,2.3H88.48a1.83,1.83,0,0,0-2,1.38l-6.89,20.65a3.33,3.33,0,0,1-3.32,2.29H71.73c-2.07,0-3-1.26-2.3-3.32l6.31-19.05c.35-1.15-.11-1.95-1.37-1.95H66.56a1.84,1.84,0,0,0-2,1.38l-6.88,20.65a3.35,3.35,0,0,1-3.33,2.29H49.92c-2.06,0-3-1.26-2.29-3.32l6.31-19.05c.35-1.15-.11-1.95-1.38-1.95H44.42c-2.07,0-3-1.27-2.3-3.33L43.61,82a3.21,3.21,0,0,1,3.22-2.29h9.63a1.84,1.84,0,0,0,2-1.38l3.67-11c.34-1.15-.12-2-1.38-2H53c-2.06,0-3-1.26-2.41-3.22l1.27-4.13a3.22,3.22,0,0,1,3.32-2.41h9.3a1.83,1.83,0,0,0,2-1.37L73.1,34.43a3.34,3.34,0,0,1,3.33-2.3H81c2.07,0,3,1.26,2.3,3.33L77.23,53.7c-.34,1.15.12,1.95,1.38,1.95h7.8a1.85,1.85,0,0,0,2-1.37L95,34.43a3.33,3.33,0,0,1,3.33-2.3h4.47c2.07,0,3,1.26,2.3,3.33L99,53.7c-.35,1.15.11,1.95,1.37,1.95h8.15c2.07,0,3,1.27,2.41,3.22l-1.38,4.24A3.13,3.13,0,0,1,106.27,65.41Zm-26,13,3.67-11c.34-1.15-.11-2-1.38-2h-7.8a1.83,1.83,0,0,0-1.95,1.37l-3.67,11c-.35,1.15.11,2,1.37,2h7.81A1.84,1.84,0,0,0,80.22,78.37Z" fill="#fff"/></svg>