<svg data-name="Layer 1" xmlns="http://www.w3.org/2000/svg" viewBox="0 0 150 150"><path d="M82 66h-7.27a1.71 1.71 0 00-1.81 1.28L69.5 77.54c-.32 1.07.1 1.82 1.28 1.82H78a1.71 1.71 0 001.82-1.28l3.42-10.26C83.6 66.75 83.17 66 82 66z" fill="#fff"/><path d="M123.86 25.42C111.74 13.81 94.31 8 78.12 9.23s-31.21 9.41-44.5 21S8.65 56.87 7.17 73.34s7.15 34.49 20.48 46.79A72.64 72.64 0 0076.89 139c17.94 0 35.85-6.72 48-19.06S143.28 89.77 143 72.1s-7-35.1-19.14-46.68zm-15.38 34.5l-1.28 3.95a2.91 2.91 0 01-3.09 2.13h-9a1.71 1.71 0 00-1.81 1.28l-3.4 10.26c-.32 1.07.11 1.82 1.28 1.82h7.26c1.93 0 2.89 1.17 2.25 3.09l-1.5 4a3 3 0 01-3 2.13h-8.64a1.71 1.71 0 00-1.82 1.28l-6.41 19.23a3.1 3.1 0 01-3.09 2.14H72c-1.92 0-2.77-1.18-2.13-3.1l5.87-17.73c.32-1.07-.1-1.82-1.28-1.82h-7.31a1.71 1.71 0 00-1.82 1.28l-6.41 19.23a3.11 3.11 0 01-3.1 2.14h-4.16c-1.92 0-2.78-1.18-2.14-3.1l5.88-17.77c.32-1.07-.11-1.82-1.29-1.82h-7.58c-1.92 0-2.78-1.17-2.14-3.09l1.39-4a3 3 0 013-2.13h9a1.71 1.71 0 001.81-1.28L63 67.82c.3-1.07-.13-1.82-1.3-1.82h-7.16c-1.92 0-2.78-1.18-2.24-3l1.17-3.84a3 3 0 013.1-2.24h8.65A1.72 1.72 0 0067 55.64l6.2-18.48A3.11 3.11 0 0176.33 35h4.28c1.92 0 2.77 1.17 2.13 3.09l-5.66 17c-.32 1.07.11 1.82 1.28 1.82h7.27a1.71 1.71 0 001.81-1.29l6.2-18.48a3.11 3.11 0 013.1-2.14h4.16c1.92 0 2.78 1.17 2.14 3.09l-5.66 17c-.32 1.07.1 1.82 1.28 1.82h7.58c1.93.02 2.76 1.19 2.24 3.01z" fill="#fff"/></svg>