<svg xmlns="http://www.w3.org/2000/svg" id="ia-bg-dash" data-name="Layer 1" viewBox="0 0 550 550">
  <defs>
    <style>
      .cls-2{opacity:.04}.cls-3{opacity:.05}.cls-4{fill:#ffcd05}.cls-4,.cls-5,.cls-6,.cls-7,.cls-8{opacity:.2}.cls-5{fill:#0e6ffa}.cls-6{fill:#f1613c}.cls-7{fill:#2dd473}.cls-8{fill:#8d2cc6}
    </style>
  </defs>
  <path d="M334.93 420a1.45 1.45 0 01-.22.38 1.45 1.45 0 00.22-.38zm4.83-13.82l-.48.25a1.61 1.61 0 01-2-.35 1.73 1.73 0 01.22-2.57 13.22 13.22 0 00-5.85 6.77 13.5 13.5 0 00-.6 8.29l1.44-.56a1.79 1.79 0 012 .46A1.67 1.67 0 01335 420a1.6 1.6 0 000-1.14 10 10 0 014.76-12.68zM412 319.35a1.7 1.7 0 011.71 1.6v-.14a1.68 1.68 0 00-1.19-1.5c-5.22-1.72-8.47-7.06-7.22-11.83v-.2a1.51 1.51 0 01-1.39 1 1.77 1.77 0 01-1.89-1.8 1 1 0 00-.11.26 12.33 12.33 0 001.5 9.34 14.85 14.85 0 006.4 5.89c.17-.49.38-1 .54-1.46a1.67 1.67 0 011.65-1.16zM153.71 353a1.74 1.74 0 011.48 0 1.59 1.59 0 01.52.48c0-.06 0-.13-.06-.18a12.14 12.14 0 00-3.49-3.54 13.27 13.27 0 00-4.4-2.07 13.88 13.88 0 00-8.34.44l.62 1.17a1.76 1.76 0 01-.18 2.05 1.69 1.69 0 01-2.48 0 .87.87 0 00.15.24 1.73 1.73 0 002.09.33 10 10 0 0113.14 3.27c0 .06.1.1.15.16a1.41 1.41 0 01-.22-.59 1.72 1.72 0 011.02-1.76zm58.94 23.64a1.54 1.54 0 01.17.05 1.54 1.54 0 00-.17-.05zm2.28 18.11zm1.31-.83a.1.1 0 010 .05.1.1 0 000-.05zm-4.3-17.29l.21-.05zm-.74.42a2.42 2.42 0 01.31-.25 2.42 2.42 0 00-.31.25zm4.46 17.46zm-4.54-14.83a1.5 1.5 0 01-.5-1.74 2.05 2.05 0 01.36-.65 1 1 0 00-.18.18 13.6 13.6 0 00-2.08 9.72 10.27 10.27 0 005.42 7.42 1.63 1.63 0 01-.58-2.23 1.67 1.67 0 012.16-.84 1.54 1.54 0 01.77 1.57 1.54 1.54 0 00-.77-1.6 7.62 7.62 0 01-2.61-2.18 8.41 8.41 0 01-1.31-3.18 9.82 9.82 0 01.66-5.63z" class="cls-2"/>
  <path d="M237.92 425.27a1.86 1.86 0 01.6-.29 1.67 1.67 0 00-.6.29zm-.49.57a1.71 1.71 0 01.37-.47 1.87 1.87 0 00-.37.47zm2-.9a1.8 1.8 0 00-.8 0 2.06 2.06 0 01.82 0z" class="cls-3"/>
  <path d="M396.58 375.24a1.8 1.8 0 00-.22-2.53 1.73 1.73 0 00-2.45.33l-4.42 5.09c-1.5 1.67-3.09 3.27-4.62 4.9a1.83 1.83 0 000 2.52 1.74 1.74 0 002.51-.09c1.57-1.67 3.19-3.3 4.73-5zm28.36-59.89a1.8 1.8 0 00-1.6 1.33c-.95 3.65-2.21 7.2-3.41 10.76a1.73 1.73 0 103.25 1.18c1.24-3.64 2.52-7.27 3.49-11a1.73 1.73 0 00-1.73-2.27zm-14.75 36.02a1.78 1.78 0 00-1.88.89c-1.62 3-3.57 5.78-5.37 8.66a1.73 1.73 0 00.9 2.69 1.78 1.78 0 002-.75c1.84-2.95 3.83-5.8 5.49-8.86a1.74 1.74 0 00-1.14-2.63zm-56.49 32.21a1.33 1.33 0 00.6-.25 130.48 130.48 0 0013.39-11.25 1.34 1.34 0 00.39-.67 1.67 1.67 0 00-.31-1.41 1.82 1.82 0 00-1.9-.72 1.34 1.34 0 00-.54.32 126.82 126.82 0 01-13.21 11.08 1.64 1.64 0 00-.2 1.92 1.81 1.81 0 001.78.98zm19.4-17.17a1.4 1.4 0 00.54-.35 132.9 132.9 0 0011-13.61 1.35 1.35 0 00.26-.73 1.72 1.72 0 00-.57-1.32 1.84 1.84 0 00-2-.35 1.36 1.36 0 00-.47.42 126.8 126.8 0 01-10.86 13.4 1.64 1.64 0 00.17 1.92 1.8 1.8 0 001.93.62zm-21.53 4.06a1.76 1.76 0 00-.23-1.39 1.91 1.91 0 00-1.78-.94 1.07 1.07 0 00-.52.23c-1.48 1.15-2.93 2.35-4.48 3.39a1.13 1.13 0 00-.42.56 1.75 1.75 0 00.15 1.4 1.83 1.83 0 001.71 1 1.11 1.11 0 00.55-.22c1.6-1.07 3.09-2.3 4.61-3.49a1.17 1.17 0 00.41-.54zm7.37 24.09a1.65 1.65 0 00.64-.27c2.85-1.94 5.51-4.14 8.23-6.26a1.39 1.39 0 00.49-.68 1.77 1.77 0 00-.17-1.5 1.65 1.65 0 00-2.48-.47c-2.67 2.06-5.26 4.22-8 6.11a1.59 1.59 0 00-.52.63 1.73 1.73 0 000 1.49 1.69 1.69 0 001.81.95zm32.18-34.45a1.65 1.65 0 00-1.88.57 141.76 141.76 0 01-17 18.84 1.77 1.77 0 00.4 2.78 1.62 1.62 0 002-.24A146.63 146.63 0 00392 362.77a1.74 1.74 0 00-.88-2.66zm-23.22-8.6a1.51 1.51 0 00-1.78.24 114.73 114.73 0 01-12.89 13.1 1.72 1.72 0 00.48 2.6 1.45 1.45 0 001.79 0A118.88 118.88 0 00368.77 354a1.67 1.67 0 00-.87-2.49zm2.94-1.98a1.48 1.48 0 001.78-.34c1.31-1.65 2.45-3.43 3.71-5.13.57-.75 0-2-1.14-2.39a1.49 1.49 0 00-1.72.43c-1.22 1.65-2.33 3.38-3.6 5a1.7 1.7 0 00.97 2.43zm32.81-44.02a1.69 1.69 0 011.65 1.77c0-.06.06-.12.08-.19.53-2.43 1.19-4.82 1.56-7.28s.9-4.89 1.15-7.36a1.69 1.69 0 00-2.07-1.74 1.55 1.55 0 00-1.36 1.29c-.24 2.41-.69 4.79-1.13 7.17s-1 4.73-1.51 7.09v.18a1.67 1.67 0 011.63-.93z" class="cls-2"/>
  <path d="M403.91 308.24a1.51 1.51 0 001.39-1 1.69 1.69 0 00-1.65-1.77 1.67 1.67 0 00-1.63.93 1.77 1.77 0 001.89 1.84z" class="cls-2"/>
  <path d="M403.91 308.24a1.51 1.51 0 001.39-1 1.69 1.69 0 00-1.65-1.77 1.67 1.67 0 00-1.63.93 1.77 1.77 0 001.89 1.84zm-11.29 24.04a1.7 1.7 0 001.38 2.31 1.59 1.59 0 001.73-.79c1.08-2.24 2.07-4.51 3.09-6.77s1.88-4.6 2.67-6.95a1.72 1.72 0 00-1.68-2.15 1.52 1.52 0 00-1.58 1c-.77 2.29-1.75 4.5-2.6 6.77s-1.96 4.4-3.01 6.58zm3.19-44.83a1.4 1.4 0 001.27-1.23l.34-4.48c.08-1.5.08-3 .13-4.5a1.66 1.66 0 00-2.24-1.38 1.46 1.46 0 00-1.22 1.31c0 1.46 0 2.92-.12 4.38l-.34 4.35a1.76 1.76 0 002.18 1.55zm22.87 14.79a141.1 141.1 0 002.52-25.54 1.68 1.68 0 00-2.23-1.62 1.7 1.7 0 00-1.23 1.57 137.1 137.1 0 01-2.47 24.94 1.77 1.77 0 002 2 1.63 1.63 0 001.41-1.35zm-5.05 19.34a1.69 1.69 0 00.06-.63 1.77 1.77 0 01-2.36 1.68 16.11 16.11 0 01-1.52-.7 138.41 138.41 0 01-13.87 29 1.73 1.73 0 001.06 2.57 1.68 1.68 0 001.87-.72 142.71 142.71 0 0014.76-31.2z" class="cls-2"/>
  <path d="M413.69 321a1.7 1.7 0 00-1.71-1.6 1.67 1.67 0 00-1.63 1.12c-.16.49-.37 1-.54 1.46a16.11 16.11 0 001.52.7 1.77 1.77 0 002.36-1.68z" class="cls-2"/>
  <path d="M413.69 321a1.7 1.7 0 00-1.71-1.6 1.67 1.67 0 00-1.63 1.12c-.16.49-.37 1-.54 1.46a16.11 16.11 0 001.52.7 1.77 1.77 0 002.36-1.68zm-19.45-17.47c.88-3.46 1.47-7 2.05-10.51a1.73 1.73 0 00-2.1-1.65 1.4 1.4 0 00-1.33 1.15c-.56 3.42-1.14 6.84-2 10.2-.2.88.7 1.84 1.92 1.84a1.4 1.4 0 001.46-1.03zm-3.82 5.47a1.4 1.4 0 00-1.48.93 126.22 126.22 0 01-6.08 15.71 1.76 1.76 0 001.51 2.19 1.38 1.38 0 001.62-.71 129.11 129.11 0 006.26-16.12 1.73 1.73 0 00-1.83-2zm-96.81 83.73c-2.89.33-5.74.86-8.66 1a1.72 1.72 0 00-1.16 2.38 1.46 1.46 0 001.44 1.08c3-.14 5.94-.68 8.91-1a1.73 1.73 0 00.95-2.49 1.4 1.4 0 00-1.48-.97zm8.52 1.86c1.94-.44 3.89-.85 5.78-1.45s3.84-1 5.7-1.73a1.71 1.71 0 00.54-2.6 1.43 1.43 0 00-1.62-.69c-1.81.67-3.68 1.15-5.54 1.68s-3.73 1-5.61 1.41a1.75 1.75 0 00-.8 2.54 1.42 1.42 0 001.55.84zm-172.55-68.76c-1.51-4.23-2.74-8.55-3.9-12.89a1.75 1.75 0 00-1.53-1.38 1.78 1.78 0 00-1.83 2.23c1.19 4.44 2.44 8.86 4 13.18a1.76 1.76 0 001.67 1.25 1.79 1.79 0 001.59-2.39z" class="cls-2"/>
  <path d="M122.5 296.59a163.76 163.76 0 01-1.53-21.8 1.73 1.73 0 00-1.14-1.72 1.79 1.79 0 00-2.33 1.72 167.88 167.88 0 001.57 22.29 1.76 1.76 0 001.39 1.55 1.8 1.8 0 002.04-2.04z" class="cls-3"/>
  <path d="M140.94 330.37a1.76 1.76 0 001.54-2.34 144 144 0 01-7.32-24.24 1.61 1.61 0 00-1.43-1.33 1.76 1.76 0 00-2 2 147 147 0 007.49 24.83 1.64 1.64 0 001.72 1.08zm23.45-5.37c1.21-.22 1.91-1.32 1.53-2.14a120.11 120.11 0 01-6-17.26 1.49 1.49 0 00-1.48-1c-1.21 0-2.14 1-1.86 1.87a123.09 123.09 0 006.22 17.77 1.47 1.47 0 001.59.76zm-7.82-23.42c1.23 0 2.13-.9 1.92-1.78-.43-2-.72-4-1.11-6a1.5 1.5 0 00-1.37-1.13c-1.19-.13-2.24.75-2 1.67.4 2.07.7 4.16 1.15 6.22a1.47 1.47 0 001.41 1.02zm10.29 83.14c-1.62-1.56-3.12-3.24-4.69-4.85a1.79 1.79 0 00-2.86.31 1.75 1.75 0 00.32 2.05c1.6 1.64 3.13 3.36 4.79 4.95l5 4.74a1.77 1.77 0 002.83-.57 1.75 1.75 0 00-.5-2zm61.37 37.15c-2.49-.88-5-1.63-7.49-2.61a1.74 1.74 0 00-2.41 1.5 1.79 1.79 0 001.19 1.74c2.51 1 5.12 1.77 7.67 2.68a1.73 1.73 0 002.33-1.66 1.84 1.84 0 00-1.29-1.65zm-24.99-10.5a149.05 149.05 0 01-18.54-11.55 1.79 1.79 0 00-2.75.85 1.74 1.74 0 00.71 1.95 154.63 154.63 0 0019 11.81 1.73 1.73 0 101.62-3.06zm-65.39-62.59a13.32 13.32 0 011.57-.65c-1.18-2.21-2.31-4.46-3.44-6.69-1.17-2.71-2.51-5.35-3.56-8.1a1.75 1.75 0 00-2.75-.75 1.82 1.82 0 00-.46 2.06c1.08 2.81 2.44 5.51 3.65 8.28s2.69 5.39 4.14 8a1.8 1.8 0 00.38.4 1.72 1.72 0 01.47-2.55z" class="cls-2"/>
  <path d="M139.86 351.35a1.76 1.76 0 00.18-2.05l-.62-1.17a13.32 13.32 0 00-1.57.65 1.72 1.72 0 00-.47 2.59 1.69 1.69 0 002.48-.02z" class="cls-2"/>
  <path d="M139.86 351.35a1.76 1.76 0 00.18-2.05l-.62-1.17a13.32 13.32 0 00-1.57.65 1.72 1.72 0 00-.47 2.59 1.69 1.69 0 002.48-.02zM237.35 426a1.3 1.3 0 01.08-.17 1.3 1.3 0 00-.08.17zm.45-.63l.12-.1a1.27 1.27 0 00-.12.1zm.72-.37h.09z" class="cls-2"/>
  <path d="M270.88 430.2a1.77 1.77 0 00-1.67-1.22 154.07 154.07 0 01-29.78-4 2.06 2.06 0 00-.82 0h-.09a1.86 1.86 0 00-.6.29l-.12.1a1.71 1.71 0 00-.37.47 1.3 1.3 0 00-.08.17 1.79 1.79 0 00-.14.77 1.76 1.76 0 001.41 1.53c.53.13 1.07.22 1.6.34a157.46 157.46 0 0028.86 3.79 1.76 1.76 0 001.8-2.24z" class="cls-3"/>
  <path d="M333.89 421.1a1.77 1.77 0 01-2.33-.94 13.4 13.4 0 01-.44-1.62c-2 .79-4 1.57-6 2.21a1.77 1.77 0 00-.9 2.72 1.79 1.79 0 002 .56c2.59-.82 5.1-1.84 7.62-2.84a1.8 1.8 0 00.86-.77 1.78 1.78 0 01-.81.68zM335 420a.64.64 0 000 .07.64.64 0 010-.07z" class="cls-2"/>
  <path d="M334.59 418.44a1.79 1.79 0 00-2-.46l-1.44.56a13.4 13.4 0 00.44 1.62 1.8 1.8 0 003.15.26 1.45 1.45 0 00.22-.38.64.64 0 010-.07 1.67 1.67 0 00-.37-1.53z" class="cls-2"/>
  <path d="M334.59 418.44a1.79 1.79 0 00-2-.46l-1.44.56a13.4 13.4 0 00.44 1.62 1.8 1.8 0 003.15.26 1.45 1.45 0 00.22-.38.64.64 0 010-.07 1.67 1.67 0 00-.37-1.53zm-26.33 7.05a147.34 147.34 0 01-21.61 3.15 1.74 1.74 0 10.25 3.46 150.79 150.79 0 0022.1-3.22 1.74 1.74 0 10-.73-3.39z" class="cls-2"/>
  <path d="M370 396.32a149.66 149.66 0 01-30.3 18.57 1.74 1.74 0 101.46 3.15 153.34 153.34 0 0031-19 1.75 1.75 0 00.36-2.48 1.8 1.8 0 00-2.52-.24z" class="cls-3"/>
  <path d="M169.57 358a1.35 1.35 0 00.62.46 1.69 1.69 0 001.44-.18 1.81 1.81 0 00.89-1.82 1.19 1.19 0 00-.26-.57 129.38 129.38 0 01-9.67-14 1.23 1.23 0 00-.54-.52 1.76 1.76 0 00-1.44 0 1.8 1.8 0 00-1.15 1.68 1.36 1.36 0 00.19.62 132.22 132.22 0 009.92 14.33zm6.34 2.32a1.27 1.27 0 00-.64-.41 1.8 1.8 0 00-1.43.23A1.76 1.76 0 00173 362a1.31 1.31 0 00.3.57c2.18 2.63 4.59 5.05 6.94 7.53a1.48 1.48 0 00.69.36 1.83 1.83 0 002.07-2.26 1.13 1.13 0 00-.34-.52c-2.27-2.44-4.66-4.79-6.75-7.36zm8.76 13.98c2.59 2.22 5.12 4.52 7.85 6.56a1.33 1.33 0 00.72.3 1.65 1.65 0 001.34-.51 1.83 1.83 0 00.44-2 1.25 1.25 0 00-.39-.49c-2.66-2-5.12-4.23-7.64-6.4a1.36 1.36 0 00-.67-.35 1.72 1.72 0 00-1.38.39 1.81 1.81 0 00-.62 1.95 1.48 1.48 0 00.35.55zm-11.87-38.05l-2.8-4.88a1.08 1.08 0 00-.48-.49 1.76 1.76 0 00-1.41 0 1.85 1.85 0 00-1.26 1.56 1.15 1.15 0 00.13.58l2.86 5a1.1 1.1 0 00.52.48 1.82 1.82 0 001.44-.06 1.84 1.84 0 001.13-1.62 1.09 1.09 0 00-.13-.57zm-11.71 28.01a1.75 1.75 0 00.86-1.86 1.52 1.52 0 00-.3-.61c-1.07-1.3-2-2.71-3-4.07s-2-2.72-2.87-4.16c0 0-.06-.05-.08-.08a1.75 1.75 0 01-1 2.4 1.59 1.59 0 01-1.76-.51v.07c.89 1.47 1.95 2.84 2.94 4.25s2 2.84 3.06 4.17a1.54 1.54 0 00.67.51 1.71 1.71 0 001.48-.11z" class="cls-2"/>
  <path d="M154.67 355.88a1.75 1.75 0 001-2.4 1.59 1.59 0 00-.52-.48 1.74 1.74 0 00-1.48 0 1.72 1.72 0 00-1 1.79 1.41 1.41 0 00.22.59 1.59 1.59 0 001.78.5z" class="cls-2"/>
  <path d="M154.67 355.88a1.75 1.75 0 001-2.4 1.59 1.59 0 00-.52-.48 1.74 1.74 0 00-1.48 0 1.72 1.72 0 00-1 1.79 1.41 1.41 0 00.22.59 1.59 1.59 0 001.78.5z" class="cls-2"/>
  <path d="M184.5 387.63a1.68 1.68 0 00-.22-2.38 145.3 145.3 0 01-18-17.82 1.74 1.74 0 00-2.42-.15 1.67 1.67 0 00-.22 2.39 148.87 148.87 0 0018.47 18.26 1.75 1.75 0 002.39-.3z" class="cls-3"/>
  <path d="M187.1 357.09a1.4 1.4 0 00-.06-1.75 130.25 130.25 0 01-11.29-14.48 1.7 1.7 0 00-2.63.12 1.48 1.48 0 00-.26 1.79 134.78 134.78 0 0011.62 14.9 1.74 1.74 0 002.62-.58zm9.32 10.43a1.48 1.48 0 00.25 1.79l5 3.94a1.73 1.73 0 002.45-1.06 1.4 1.4 0 00-.37-1.71l-4.83-3.83a1.68 1.68 0 00-2.5.87zm66.7 38.93a1.48 1.48 0 00-1.33-1.28 130.57 130.57 0 01-40.88-11.07 1.73 1.73 0 00-2.28 1.47 1.52 1.52 0 00.84 1.68 133.75 133.75 0 0042 11.36 1.73 1.73 0 001.65-2.16z" class="cls-2"/>
  <path d="M155.91 331.87a1.61 1.61 0 00.48-1.83 121.19 121.19 0 01-7.34-19.93 130.92 130.92 0 01-4-20.88 1.74 1.74 0 00-2.42-1.22 1.5 1.5 0 00-1 1.59 133.66 133.66 0 0011.65 41.9 1.68 1.68 0 002.63.37z" class="cls-3"/>
  <path d="M332.31 394a1.59 1.59 0 00-1.82-.47A131.16 131.16 0 01289.73 405a1.76 1.76 0 00-1.2 2.46 1.5 1.5 0 001.58 1 128.66 128.66 0 0021.41-4.2 126.94 126.94 0 0020.43-7.6 1.67 1.67 0 00.36-2.66zm-73.56-.96h.02-.02zm9.95 2.15a1.51 1.51 0 00-1.26-1.29l-4.36-.32-4.31-.54c-.9-.11-1.77.88-1.64 2.1a1.42 1.42 0 001.17 1.33l4.44.56 4.48.33c.94.08 1.72-.95 1.48-2.17zm-3.37 22.26a136.57 136.57 0 01-24.72-3.83 1.78 1.78 0 00-2.11 1.85 1.62 1.62 0 001.28 1.52 140.54 140.54 0 0025.33 3.93 1.73 1.73 0 00.23-3.46zM218.55 410a1.73 1.73 0 002.23-1 1.67 1.67 0 00-.89-2.21 145.48 145.48 0 01-29.28-16.62 1.76 1.76 0 00-2.39.41 1.65 1.65 0 00.34 2.38A148.78 148.78 0 00218.55 410zm121.94-6.14a1.72 1.72 0 01-.7 2.29c4.18-2.09 8.29-4.35 12.27-6.83a1.74 1.74 0 00.14-2.8 1.64 1.64 0 00-2-.14c-4 2.51-8.2 4.79-12.45 6.91a2 2 0 00-.22.19c.23-.13.42-.29.65-.41a1.71 1.71 0 012.31.79z" class="cls-2"/>
  <path d="M337.35 406.05a1.61 1.61 0 002 .35l.48-.25a1.73 1.73 0 00-1.57-3.08c-.23.12-.42.28-.65.41a1.73 1.73 0 00-.26 2.57z" class="cls-2"/>
  <path d="M337.35 406.05a1.61 1.61 0 002 .35l.48-.25a1.73 1.73 0 00-1.57-3.08c-.23.12-.42.28-.65.41a1.73 1.73 0 00-.26 2.57zm-27.69 8.73a1.7 1.7 0 00-1.82-.8 143.16 143.16 0 01-33.47 3.82 1.74 1.74 0 000 3.47 146.86 146.86 0 0034.28-3.91 1.71 1.71 0 001.01-2.58zm-65.04-20.94c2.42.49 4.78 1.2 7.22 1.58.92.16 1.82-.79 1.74-2a1.43 1.43 0 00-1.09-1.39c-2.37-.37-4.66-1.06-7-1.53-.87-.22-1.83.61-1.85 1.85a1.45 1.45 0 00.98 1.49zm-31.35-14.9a11.48 11.48 0 00-.75 1.54 131.08 131.08 0 0015.85 7.95 1.72 1.72 0 002.11-1.63 1.41 1.41 0 00-.78-1.57 116.63 116.63 0 01-15.09-7.53c-.56-.33-1.14-.61-1.67-1h-.12a1.25 1.25 0 01.52.46 1.71 1.71 0 01-.07 1.78zm-1.12-2.36a1.21 1.21 0 01.5.06 1.19 1.19 0 00-.5-.06zm-1.15.71a1.7 1.7 0 01.22-.24 2.5 2.5 0 00-.22.24zm.51-.49a1.75 1.75 0 01.43-.17 1.75 1.75 0 00-.43.17z" class="cls-2"/>
  <path d="M211.12 379.68l1.4.8a11.48 11.48 0 01.75-1.54 1.71 1.71 0 00.07-1.79 1.25 1.25 0 00-.52-.46 1.54 1.54 0 00-.17-.05 1.21 1.21 0 00-.5-.06l-.21.05a1.75 1.75 0 00-.43.17 2.42 2.42 0 00-.31.25 1.7 1.7 0 00-.22.24 2.05 2.05 0 00-.36.65 1.5 1.5 0 00.5 1.74z" class="cls-2"/>
  <path d="M211.12 379.68l1.4.8a11.48 11.48 0 01.75-1.54 1.71 1.71 0 00.07-1.79 1.25 1.25 0 00-.52-.46 1.54 1.54 0 00-.17-.05 1.21 1.21 0 00-.5-.06l-.21.05a1.75 1.75 0 00-.43.17 2.42 2.42 0 00-.31.25 1.7 1.7 0 00-.22.24 2.05 2.05 0 00-.36.65 1.5 1.5 0 00.5 1.74zm203.08-66.14a1.68 1.68 0 10-.92 3.23 1.68 1.68 0 002.12-1.13 1.71 1.71 0 00-1.2-2.1z" class="cls-2"/>
  <path d="M395.45 357.81a1.68 1.68 0 00-.47-2.37 1.75 1.75 0 00-2.38.4 1.69 1.69 0 00.45 2.35 1.73 1.73 0 002.4-.38z" class="cls-3"/>
  <path d="M417.23 308.67a1.71 1.71 0 00-1.31-2 1.68 1.68 0 10-.76 3.28 1.69 1.69 0 002.07-1.28zm-29.18 35.41a1.7 1.7 0 00-2.3.38 1.74 1.74 0 002.93 1.84 1.61 1.61 0 00-.63-2.22zm1.73-2.98a1.65 1.65 0 002.28-.49 1.61 1.61 0 00-.73-2.18 1.7 1.7 0 00-2.29.49 1.65 1.65 0 00.74 2.18zm-12.21-2.16a1.44 1.44 0 101.47-2.4 1.58 1.58 0 00-2.18.32 1.57 1.57 0 00.71 2.08zm3.04-5.13a1.44 1.44 0 101.34-2.47 1.43 1.43 0 10-1.34 2.47zM341.46 376a1.44 1.44 0 10-2.37 1.51 1.59 1.59 0 002.12.7 1.56 1.56 0 00.25-2.21zm-62.21 21.52a1.56 1.56 0 001.35-1.76 1.64 1.64 0 00-1.47-1.7 1.59 1.59 0 00-1.36 1.76 1.61 1.61 0 001.48 1.7zm-4.34-1.62a1.67 1.67 0 00-1.39-1.78 1.6 1.6 0 00-1.44 1.7 1.62 1.62 0 001.4 1.77 1.55 1.55 0 001.43-1.69z" class="cls-2"/>
  <path d="M238.42 390.25a1.56 1.56 0 00.83 2.07 1.63 1.63 0 001.86-1.28 1.57 1.57 0 00-.85-2 1.61 1.61 0 00-1.84 1.21z" class="cls-4"/>
  <path d="M233.07 388.42a1.56 1.56 0 00.75 2.1 1.63 1.63 0 001.91-1.19 1.58 1.58 0 00-.75-2.08 1.66 1.66 0 00-1.91 1.17z" class="cls-5"/>
  <path d="M192.6 363.37a1.64 1.64 0 00-.15 2.26 1.62 1.62 0 002.23-.36 1.58 1.58 0 00.1-2.2 1.56 1.56 0 00-2.18.3zm13.52 10.92a1.64 1.64 0 00.17 2.26 1.61 1.61 0 002.15-.67 1.59 1.59 0 00-.21-2.2 1.56 1.56 0 00-2.11.61zm-17.58-14.89a1.45 1.45 0 102 2 1.43 1.43 0 10-2-2zm-21.48-30.1a1.58 1.58 0 00.91-2 1.65 1.65 0 00-2.17-.51 1.58 1.58 0 00-1 2 1.64 1.64 0 002.26.51zm173.56 62.78a1.74 1.74 0 00-1.69-3 1.69 1.69 0 00-.49 2.28 1.61 1.61 0 002.18.72zm3.85-6.32a1.7 1.7 0 00-.38 2.31 1.62 1.62 0 002.22.63 1.75 1.75 0 00-1.84-2.94z" class="cls-2"/>
  <path d="M274 407.47a1.65 1.65 0 001.56 1.75 1.7 1.7 0 001.54-1.78 1.63 1.63 0 00-1.56-1.69 1.66 1.66 0 00-1.54 1.72z" class="cls-6"/>
  <path d="M280.51 407.35a1.67 1.67 0 001.63 1.69 1.69 1.69 0 001.45-1.85 1.61 1.61 0 00-1.63-1.61 1.63 1.63 0 00-1.45 1.77z" class="cls-4"/>
  <path d="M269 405.61a1.67 1.67 0 00-1.62 1.65 1.62 1.62 0 001.46 1.81 1.68 1.68 0 001.63-1.7 1.62 1.62 0 00-1.47-1.76z" class="cls-7"/>
  <path d="M327.79 381.33a1.64 1.64 0 00-.47 2.2 1.55 1.55 0 002 .9 1.6 1.6 0 00.47-2.19 1.58 1.58 0 00-2-.91z" class="cls-6"/>
  <path d="M333 378.59a1.66 1.66 0 00-.36 2.22 1.54 1.54 0 002.06.8 1.77 1.77 0 00-1.7-3z" class="cls-8"/>
  <path d="M322.46 383.82a1.65 1.65 0 00-.58 2.17 1.55 1.55 0 002 1 1.6 1.6 0 00.58-2.17 1.58 1.58 0 00-2-1z" class="cls-7"/>
  <path d="M215.62 394.53a1.6 1.6 0 01-.69.22 1.47 1.47 0 00.69-.22z" class="cls-2"/>
  <path d="M215.62 394.53a1.6 1.6 0 01-.69.22 1.47 1.47 0 00.69-.22zm-1.43.09a1.32 1.32 0 00.7.14 1.47 1.47 0 01-.71-.15z" class="cls-2"/>
  <path d="M214.19 394.62a1.32 1.32 0 00.7.14 1.47 1.47 0 01-.71-.15zm2.01-.62a1.85 1.85 0 01-.54.54 1.74 1.74 0 00.54-.54z" class="cls-2"/>
  <path d="M216.2 394a1.85 1.85 0 01-.54.54 1.74 1.74 0 00.54-.54zm.14-.21a1.88 1.88 0 00.19-.68 1.91 1.91 0 01-.29.81c.03-.05.08-.08.1-.13z" class="cls-2"/>
  <path d="M216.34 393.79a1.88 1.88 0 00.19-.68 1.91 1.91 0 01-.29.81c.03-.05.08-.08.1-.13zm-.58-2.25a1.67 1.67 0 00-2.16.84 1.63 1.63 0 00.58 2.23 1.47 1.47 0 00.71.15 1.6 1.6 0 00.69-.22 1.85 1.85 0 00.54-.54.1.1 0 000-.05 1.91 1.91 0 00.29-.81 1.54 1.54 0 00-.65-1.6z" class="cls-2"/>
  <path d="M215.76 391.54a1.67 1.67 0 00-2.16.84 1.63 1.63 0 00.58 2.23 1.47 1.47 0 00.71.15 1.6 1.6 0 00.69-.22 1.85 1.85 0 00.54-.54.1.1 0 000-.05 1.91 1.91 0 00.29-.81 1.54 1.54 0 00-.65-1.6z" class="cls-2"/>
  <path d="M215.76 391.54a1.67 1.67 0 00-2.16.84 1.63 1.63 0 00.58 2.23 1.47 1.47 0 00.71.15 1.6 1.6 0 00.69-.22 1.85 1.85 0 00.54-.54.1.1 0 000-.05 1.91 1.91 0 00.29-.81 1.54 1.54 0 00-.65-1.6zm-13.45-5.82a2 2 0 00-.26.63 2 2 0 01.26-.63z" class="cls-2"/>
  <path d="M202.31 385.72a2 2 0 00-.26.63 1.54 1.54 0 00.63 1.66 1.62 1.62 0 002.23-.62 1.56 1.56 0 10-2.6-1.67zm-5.05-3.5a1.56 1.56 0 102.52 1.79 1.56 1.56 0 10-2.52-1.79zm-38.53-43.78a1.69 1.69 0 00.82-2.17 1.63 1.63 0 00-2.23-.56 1.66 1.66 0 00-.83 2.18 1.59 1.59 0 002.24.55zm157.72 76.84a1.66 1.66 0 001.13-2.11 1.76 1.76 0 00-2.11-1.21 1.73 1.73 0 001 3.32zm7.88-4.38a1.75 1.75 0 00-2.16-1.1 1.73 1.73 0 001.14 3.27 1.66 1.66 0 001.02-2.17zm-96.26.8a1.68 1.68 0 00-1-2.17 1.76 1.76 0 00-2.16 1.07 1.66 1.66 0 001 2.19 1.72 1.72 0 002.16-1.09zm5.68.03a1.75 1.75 0 00-2.11 1.18 1.66 1.66 0 001.11 2.13 1.71 1.71 0 002.11-1.2 1.68 1.68 0 00-1.11-2.11zm-86.09-68.46a1.76 1.76 0 00.77-2.3 1.73 1.73 0 00-3.07 1.6 1.67 1.67 0 002.3.7zm-3.15-6.21a1.75 1.75 0 00.88-2.26 1.7 1.7 0 00-2.26-.81 1.71 1.71 0 00-.88 2.26 1.68 1.68 0 002.26.81zm-13.02-45.67a1.68 1.68 0 10-.33-3.35 1.76 1.76 0 00-1.6 1.86 1.74 1.74 0 001.93 1.49zm-.6-6.94a1.67 1.67 0 001.59-1.77 1.73 1.73 0 00-3.45.18 1.75 1.75 0 001.86 1.59zm1.57 14.01a1.7 1.7 0 001.43-1.92 1.67 1.67 0 00-1.92-1.41 1.68 1.68 0 10.49 3.33zm286.66 35.76a1.81 1.81 0 00-1.42 3.33 1.81 1.81 0 002.34-1 1.79 1.79 0 00-.92-2.33zm-3.22 7.32a1.8 1.8 0 00-2.34.88 1.75 1.75 0 00.73 2.37 1.82 1.82 0 002.39-.85 1.76 1.76 0 00-.78-2.4z" class="cls-2"/>
  <path d="M399.16 366.21a1.83 1.83 0 00.33 2.49 1.73 1.73 0 002.46-.43 1.8 1.8 0 00-.34-2.51 1.77 1.77 0 00-2.45.45z" class="cls-4"/>
  <path d="M380.12 387.62a1.83 1.83 0 00-.13 2.52 1.74 1.74 0 002.49 0 1.79 1.79 0 00.13-2.52 1.77 1.77 0 00-2.49 0z" class="cls-7"/>
  <path d="M375.07 392.12a1.82 1.82 0 00-.24 2.51 1.75 1.75 0 002.49.13 1.78 1.78 0 00.25-2.51 1.8 1.8 0 00-2.5-.13z" class="cls-5"/>
  <path d="M316.59 423.38a1.81 1.81 0 00-1.28 2.17 1.76 1.76 0 002.21 1.17 1.74 1.74 0 10-.93-3.34zM277.92 429a1.8 1.8 0 00-1.78 1.78 1.74 1.74 0 001.84 1.68 1.73 1.73 0 10-.06-3.46z" class="cls-2"/>
  <path d="M214.86 416.9a1.74 1.74 0 00-2.33.85 1.81 1.81 0 001 2.34 1.8 1.8 0 002.36-.92 1.76 1.76 0 00-1.03-2.27z" class="cls-8"/>
  <path d="M209.07 414.28a1.81 1.81 0 00-2.37.78 1.75 1.75 0 00.89 2.35 1.79 1.79 0 002.39-.81 1.76 1.76 0 00-.91-2.32z" class="cls-2"/>
  <path d="M209.07 414.28a1.81 1.81 0 00-2.37.78 1.75 1.75 0 00.89 2.35 1.79 1.79 0 002.39-.81 1.76 1.76 0 00-.91-2.32zm-53.97-39.84a1.74 1.74 0 00-.13 2.49 1.73 1.73 0 102.64-2.24 1.82 1.82 0 00-2.51-.25z" class="cls-2"/>
  <path d="M151.12 369.4a1.81 1.81 0 002.24 2.85 1.79 1.79 0 00.24-2.49 1.81 1.81 0 00-2.48-.36z" class="cls-4"/>
  <path d="M147.3 364.15a1.82 1.82 0 002.1 3 1.82 1.82 0 00.36-2.49 1.8 1.8 0 00-2.46-.51zm-3.57-5.34a1.8 1.8 0 00-.47 2.48 1.74 1.74 0 002.43.57 1.81 1.81 0 00.47-2.47 1.78 1.78 0 00-2.43-.58zm-19.84-54.04a1.76 1.76 0 00-2-1.45 1.79 1.79 0 00-1.38 2.12 1.73 1.73 0 002 1.44 1.83 1.83 0 001.38-2.11zM175.64 395a1.74 1.74 0 00.33 2.48 1.73 1.73 0 102.18-2.69 1.84 1.84 0 00-2.51.21zm32.97-250.32l.47-.24a1.63 1.63 0 011.95.32 1.74 1.74 0 01-.11 2.52 13.79 13.79 0 006.16-15.11l-1.42.56a1.8 1.8 0 01-2-.41 1.67 1.67 0 01-.38-1.52 1.66 1.66 0 000 1.14 9.82 9.82 0 01.12 7.32 10.36 10.36 0 01-4.79 5.42zm4.63-13.95a1.9 1.9 0 01.21-.4 1.9 1.9 0 00-.21.4zm-75.76 101.68a1.7 1.7 0 01-1.73-1.56v.11a1.67 1.67 0 001.22 1.49 11.12 11.12 0 016.13 4.72 9.46 9.46 0 011.28 7v.2a1.55 1.55 0 011.4-1 1.73 1.73 0 011.89 1.77 1.23 1.23 0 00.12-.26 12.57 12.57 0 00-1.65-9.33 15 15 0 00-6.49-5.81c-.17.49-.36 1-.52 1.46a1.73 1.73 0 01-1.65 1.21zm257.85-36.99a1.66 1.66 0 01-1.46 0 1.56 1.56 0 01-.53-.46s0 .12.07.17a13.28 13.28 0 007.94 5.52 13.6 13.6 0 008.31-.54c-.22-.38-.42-.77-.64-1.15a1.77 1.77 0 01.17-2.07 1.67 1.67 0 012.46 0 1.49 1.49 0 00-.14-.24 1.71 1.71 0 00-2.08-.3 9.7 9.7 0 01-7.22 1 9.47 9.47 0 01-5.94-4.12c0-.06-.11-.1-.16-.16a1.39 1.39 0 01.24.59 1.77 1.77 0 01-1.02 1.76zm-58.52-22.9l-.23.07a1 1 0 00.23-.07zm1.3-1.33a2.18 2.18 0 01-.35.66c.05-.07.13-.11.17-.19a13.46 13.46 0 001.94-9.7 10.12 10.12 0 00-5.5-7.37 1.67 1.67 0 01.59 2.25 1.64 1.64 0 01-2.14.85 1.6 1.6 0 01-.78-1.58 1.59 1.59 0 00.78 1.6c3.85 1.88 5.13 6.67 3.41 11 .46.27.93.52 1.39.8a1.38 1.38 0 01.49 1.68zm-2.02 1.36h-.18zm1.45-.47a1.86 1.86 0 01-.31.26 1.53 1.53 0 00.31-.26zm-3.97-17.64zm-1.29.84v-.05zm.57-.59z" class="cls-2"/>
  <path d="M310.18 124.27a1.91 1.91 0 01-.59.29 1.81 1.81 0 00.59-.29zm-1.5.32a1.75 1.75 0 00.79 0 1.71 1.71 0 01-.81 0zm1.98-.9a1.89 1.89 0 01-.36.47 1.89 1.89 0 00.36-.47zm-155.75 54.83c1.35-1.8 2.89-3.44 4.34-5.16s3-3.34 4.56-5a1.8 1.8 0 000-2.51 1.75 1.75 0 00-2.5.11c-1.59 1.66-3.19 3.31-4.66 5.08s-3.06 3.43-4.44 5.27a1.73 1.73 0 102.7 2.17zm-30.33 58.05a1.85 1.85 0 001.59-1.35l1.54-5.43c.54-1.8 1.19-3.56 1.78-5.35a1.79 1.79 0 00-1.61-2.39 1.75 1.75 0 00-1.66 1.25c-.61 1.82-1.27 3.63-1.82 5.47l-1.58 5.56a1.72 1.72 0 001.76 2.24z" class="cls-3"/>
  <path d="M138.86 200.36a1.81 1.81 0 001.89-.9l2.53-4.42 2.75-4.29a1.79 1.79 0 00-1-2.71 1.76 1.76 0 00-1.92.81l-2.81 4.39-2.6 4.51a1.72 1.72 0 001.16 2.61z" class="cls-2"/>
  <path d="M194.93 167.41a1.24 1.24 0 00-.58.27 142.61 142.61 0 00-13.25 11.42 1.39 1.39 0 00-.39.67 1.66 1.66 0 00.32 1.4 1.84 1.84 0 001.92.7 1.32 1.32 0 00.54-.31 141.6 141.6 0 0113.07-11.27 1.66 1.66 0 00.17-1.91 1.82 1.82 0 00-1.8-.97z" class="cls-3"/>
  <path d="M175.75 184.83a1.4 1.4 0 00-.52.38A143.29 143.29 0 00164.41 199a1.35 1.35 0 00-.26.73 1.65 1.65 0 00.6 1.32 1.83 1.83 0 002 .31 1.27 1.27 0 00.48-.41 139.23 139.23 0 0110.67-13.54 1.67 1.67 0 00-.2-1.92 1.81 1.81 0 00-1.95-.66z" class="cls-2"/>
  <path d="M197.23 180.49a1.95 1.95 0 002 2.31 1.1 1.1 0 00.53-.23c1.5-1.14 2.94-2.34 4.44-3.45a1.13 1.13 0 00.42-.56 1.75 1.75 0 00-.17-1.39 1.83 1.83 0 00-1.73-1 1.19 1.19 0 00-.55.21c-1.55 1.14-3 2.38-4.56 3.55a1.19 1.19 0 00-.38.56z" class="cls-3"/>
  <path d="M189.57 156.52a1.53 1.53 0 00-.64.28c-1.43 1-2.75 2.08-4.11 3.13s-2.75 2.09-4 3.26a1.52 1.52 0 00-.48.69 1.73 1.73 0 00.18 1.48 1.75 1.75 0 001.9.78 1.47 1.47 0 00.6-.33c1.24-1.14 2.61-2.13 3.92-3.18s2.62-2.12 4-3.06a1.62 1.62 0 00.53-.63 1.79 1.79 0 00-.06-1.48 1.73 1.73 0 00-1.84-.94zm-31.72 34.88a1.65 1.65 0 001.88-.59 143.63 143.63 0 0116.72-19.06A1.75 1.75 0 00176 169a1.65 1.65 0 00-2 .25 148.47 148.47 0 00-17.12 19.52 1.73 1.73 0 00.97 2.63zm23.34 8.31a1.41 1.41 0 001.73-.3 130.7 130.7 0 0112.73-13.26 1.69 1.69 0 00-.5-2.58 1.48 1.48 0 00-1.81 0 133.87 133.87 0 00-13.09 13.64 1.73 1.73 0 00.94 2.5zm-4.72 2.35c-1.19 1.74-2.49 3.41-3.63 5.19a1.73 1.73 0 001.18 2.39 1.43 1.43 0 001.7-.47c1.11-1.73 2.37-3.35 3.53-5a1.72 1.72 0 00-1-2.43 1.44 1.44 0 00-1.78.32zM146 246.15a1.66 1.66 0 01-1.65-1.75c0 .06-.06.12-.08.19l-.82 3.63-.65 3.67c-.5 2.43-.75 4.91-1.07 7.37a1.67 1.67 0 002.07 1.72 1.57 1.57 0 001.36-1.31c.32-2.4.56-4.81 1.05-7.18l.63-3.58.81-3.53v-.18a1.72 1.72 0 01-1.65.95z" class="cls-2"/>
  <path d="M145.76 243.43a1.55 1.55 0 00-1.4 1 1.66 1.66 0 001.65 1.75 1.43 1.43 0 10-.25-2.72z" class="cls-2"/>
  <path d="M145.76 243.43a1.55 1.55 0 00-1.4 1 1.66 1.66 0 001.65 1.75 1.43 1.43 0 10-.25-2.72zm3.94-9.75a1.56 1.56 0 001.58-1 130.09 130.09 0 015.42-13.44 1.75 1.75 0 00-1.44-2.31 1.49 1.49 0 00-1.69.83 131.74 131.74 0 00-5.57 13.8 1.71 1.71 0 001.7 2.12zm6.22 40.69c.09-2.92.08-5.84.39-8.74.07-.91-1-1.71-2.18-1.52a1.41 1.41 0 00-1.27 1.25c-.31 3-.31 6-.41 9 0 .94 1.13 1.66 2.29 1.35a1.51 1.51 0 001.18-1.34z" class="cls-2"/>
  <path d="M131 249.62a152 152 0 00-2.23 25.57 1.75 1.75 0 002.32 1.59 1.62 1.62 0 001.14-1.59 149 149 0 012.18-25 1.73 1.73 0 00-2-2 1.66 1.66 0 00-1.41 1.43z" class="cls-3"/>
  <path d="M138.12 229.13a14.7 14.7 0 011.51.67 145.14 145.14 0 0113.48-29.15 1.73 1.73 0 00-3-1.81 149.13 149.13 0 00-14.35 31.36 1.46 1.46 0 00-.06.65 1.79 1.79 0 012.42-1.72z" class="cls-2"/>
  <path d="M135.75 230.85a1.7 1.7 0 001.73 1.56 1.73 1.73 0 001.63-1.15c.16-.49.35-1 .52-1.46a14.7 14.7 0 00-1.51-.67 1.79 1.79 0 00-2.37 1.72z" class="cls-2"/>
  <path d="M135.75 230.85a1.7 1.7 0 001.73 1.56 1.73 1.73 0 001.63-1.15c.16-.49.35-1 .52-1.46a14.7 14.7 0 00-1.51-.67 1.79 1.79 0 00-2.37 1.72z" class="cls-2"/>
  <path d="M155.45 248c-.45 1.73-.75 3.49-1 5.25s-.65 3.51-.83 5.29a1.7 1.7 0 002.09 1.63A1.44 1.44 0 00157 259c.17-1.73.49-3.43.81-5.14s.58-3.42 1-5.09c.2-.88-.7-1.83-1.93-1.81a1.45 1.45 0 00-1.43 1.04z" class="cls-3"/>
  <path d="M163.42 224.27a112.61 112.61 0 00-6 16.26c-.26.9.6 1.88 1.82 1.92a1.45 1.45 0 001.5-.95 110.12 110.12 0 015.87-15.79 1.74 1.74 0 00-1.53-2.17 1.42 1.42 0 00-1.66.73zm99.81-71.35c-1.49.1-3 .37-4.45.54s-3 .36-4.43.66a1.71 1.71 0 00-.92 2.49 1.45 1.45 0 001.5.93c1.42-.3 2.86-.49 4.3-.65s2.87-.42 4.32-.52a1.69 1.69 0 001.13-2.36 1.5 1.5 0 00-1.45-1.09zm-16.05 6.2a1.71 1.71 0 00.77-2.52 1.45 1.45 0 00-1.58-.85 121.69 121.69 0 00-33 13.23 1.67 1.67 0 000 2.63 1.46 1.46 0 001.74.36 118.56 118.56 0 0132-12.85zm172.65 63.15l2.16 6.38c.66 2.14 1.24 4.31 1.86 6.47a1.85 1.85 0 001.6 1.35 1.72 1.72 0 001.75-2.25c-.64-2.2-1.23-4.42-1.91-6.62l-2.2-6.52a1.8 1.8 0 00-1.73-1.21 1.74 1.74 0 00-1.53 2.4zm7.46 29.14A163.84 163.84 0 01429 273.2a1.82 1.82 0 001.23 1.7 1.7 1.7 0 002.23-1.74 168 168 0 00-1.78-22.28 1.84 1.84 0 00-1.47-1.52 1.73 1.73 0 00-1.92 2.05zm-18.9-33.53a1.75 1.75 0 00-1.49 2.36 137.05 137.05 0 017.57 24.16 1.73 1.73 0 003.38-.75 141 141 0 00-7.75-24.75 1.61 1.61 0 00-1.71-1.02zm-18.64 25.03a1.48 1.48 0 001.51 1c1.23 0 2.08-1 1.83-1.89a112.5 112.5 0 00-6.45-17.7 1.44 1.44 0 00-1.62-.73c-1.2.24-1.9 1.35-1.53 2.17a108.74 108.74 0 016.26 17.15zm4.05 12.91c1.23.11 2.18-.77 2-1.7-.37-2.07-.69-4.16-1.23-6.2a1.45 1.45 0 00-1.45-1c-1.22 0-2.13.93-1.93 1.81.52 2 .83 4 1.2 6a1.48 1.48 0 001.41 1.09zm-12.05-91.93c1.65 1.52 3.22 3.13 4.75 4.78a1.73 1.73 0 102.51-2.39c-1.57-1.68-3.17-3.33-4.86-4.88s-3.29-3.2-5.06-4.67a1.75 1.75 0 00-2.81.59 1.78 1.78 0 00.51 2c1.73 1.44 3.33 3.03 4.96 4.57zm-61.83-36.36c2.53.75 5 1.67 7.53 2.5a1.74 1.74 0 101.19-3.26c-2.58-.84-5.12-1.78-7.72-2.56a1.74 1.74 0 10-1 3.32zM345 137.71A143.73 143.73 0 01363.72 149a1.73 1.73 0 102-2.83 147.78 147.78 0 00-19.11-11.56 1.73 1.73 0 00-2.56 1.25 1.79 1.79 0 00.95 1.85zm66.22 61.74a11.75 11.75 0 01-1.56.66c2.68 4.76 5 9.7 7.23 14.69a1.74 1.74 0 002.75.71 1.81 1.81 0 00.44-2.06 164.93 164.93 0 00-8.05-16.2 1.85 1.85 0 00-.38-.41 1.75 1.75 0 01-.43 2.61z" class="cls-2"/>
  <path d="M409.19 196.89A1.77 1.77 0 00409 199c.22.38.42.77.64 1.15a11.75 11.75 0 001.56-.66 1.75 1.75 0 00.43-2.61 1.67 1.67 0 00-2.44.01z" class="cls-2"/>
  <path d="M409.19 196.89A1.77 1.77 0 00409 199c.22.38.42.77.64 1.15a11.75 11.75 0 001.56-.66 1.75 1.75 0 00.43-2.61 1.67 1.67 0 00-2.44.01zm-98.45-73.37a.89.89 0 01-.08.17 1.3 1.3 0 00.08-.17zm-1.15 1.04h-.1c-.04 0 .06.01.1 0zm.71-.4l-.12.11z" class="cls-2"/>
  <path d="M309.44 121.21c-.53-.12-1.07-.2-1.6-.31a157 157 0 00-28.91-3.4 1.73 1.73 0 00-1.77 2.23 1.79 1.79 0 001.68 1.23 154.36 154.36 0 0129.84 3.63 1.71 1.71 0 00.81 0h.1a1.91 1.91 0 00.59-.29l.12-.11a1.89 1.89 0 00.36-.47.89.89 0 00.08-.17 1.63 1.63 0 00.12-.77 1.79 1.79 0 00-1.42-1.57z" class="cls-3"/>
  <path d="M213.23 130.81v-.08.08zm1.03-1.18a1.8 1.8 0 012.35.94 11.7 11.7 0 01.45 1.61c2-.79 4-1.6 6-2.3a1.73 1.73 0 00.87-2.7 1.81 1.81 0 00-2-.56c-2.56.89-5 2-7.58 2.93a1.79 1.79 0 00-.86.79 1.73 1.73 0 01.77-.71z" class="cls-2"/>
  <path d="M213.61 132.33a1.8 1.8 0 002 .41l1.42-.56a11.7 11.7 0 00-.45-1.61 1.8 1.8 0 00-2.35-.94 1.73 1.73 0 00-.81.7 1.9 1.9 0 00-.21.4v.08a1.67 1.67 0 00.4 1.52z" class="cls-2"/>
  <path d="M213.61 132.33a1.8 1.8 0 002 .41l1.42-.56a11.7 11.7 0 00-.45-1.61 1.8 1.8 0 00-2.35-.94 1.73 1.73 0 00-.81.7 1.9 1.9 0 00-.21.4v.08a1.67 1.67 0 00.4 1.52zm26.24-7.39a149.6 149.6 0 0121.56-3.45 1.74 1.74 0 001.53-2.4 1.8 1.8 0 00-1.82-1 150.67 150.67 0 00-22.05 3.53 1.73 1.73 0 00-1.16 2.61 1.79 1.79 0 001.94.71z" class="cls-2"/>
  <path d="M178.5 154.9a157.5 157.5 0 0130.05-19 1.74 1.74 0 00.91-2.3 1.82 1.82 0 00-2.41-.82 160.67 160.67 0 00-30.73 19.41 1.74 1.74 0 00-.34 2.47 1.82 1.82 0 002.52.24z" class="cls-3"/>
  <path d="M379.41 190.61a1.33 1.33 0 00-.62-.45 1.67 1.67 0 00-1.43.19 1.85 1.85 0 00-.88 1.84 1.29 1.29 0 00.26.57 137.59 137.59 0 019.85 13.91 1.47 1.47 0 00.57.51 1.73 1.73 0 001.43 0 1.83 1.83 0 001.14-1.7 1.28 1.28 0 00-.22-.6 142.07 142.07 0 00-10.1-14.27zm-7.28-8.26c-1.17-1.23-2.33-2.49-3.59-3.64a1.4 1.4 0 00-.69-.36 1.77 1.77 0 00-1.41.37 1.81 1.81 0 00-.64 1.92 1.23 1.23 0 00.35.52c1.23 1.12 2.35 2.35 3.5 3.55s2.32 2.38 3.38 3.67a1.29 1.29 0 00.63.41 1.77 1.77 0 001.43-.24 1.79 1.79 0 00.81-1.86 1.31 1.31 0 00-.3-.57c-1.09-1.32-2.29-2.53-3.47-3.77zM356.17 168a1.35 1.35 0 00-.72-.29 1.72 1.72 0 00-1.35.54 1.82 1.82 0 00-.4 2 1.26 1.26 0 00.39.5l3.92 3.07 3.77 3.26a1.29 1.29 0 00.7.32 1.76 1.76 0 001.39-.43 1.71 1.71 0 00.57-1.92 1.33 1.33 0 00-.38-.52l-3.87-3.35zm23.63 49.74a1.86 1.86 0 001.41 0 1.78 1.78 0 001.22-1.57 1.14 1.14 0 00-.16-.57c-1-1.65-1.87-3.37-2.92-5a1.21 1.21 0 00-.55-.47 1.78 1.78 0 00-1.42.08 1.87 1.87 0 00-1.12 1.64 1.12 1.12 0 00.18.54c1 1.57 1.87 3.24 2.84 4.85a1.09 1.09 0 00.52.5zm8.01-33.49a1.76 1.76 0 00-.85 1.88 1.44 1.44 0 00.3.62c2.14 2.6 4 5.39 6 8.13a.73.73 0 00.09.08 1.68 1.68 0 011-2.39 1.7 1.7 0 011.81.45v-.06c-2-2.8-3.95-5.66-6.14-8.32a1.53 1.53 0 00-.67-.51 1.66 1.66 0 00-1.54.12z" class="cls-2"/>
  <path d="M394.3 192.57a1.68 1.68 0 00-1 2.39 1.56 1.56 0 00.53.46 1.66 1.66 0 001.46 0 1.77 1.77 0 001-1.81 1.39 1.39 0 00-.24-.59 1.7 1.7 0 00-1.75-.45z" class="cls-2"/>
  <path d="M394.3 192.57a1.68 1.68 0 00-1 2.39 1.56 1.56 0 00.53.46 1.66 1.66 0 001.46 0 1.77 1.77 0 001-1.81 1.39 1.39 0 00-.24-.59 1.7 1.7 0 00-1.75-.45z" class="cls-2"/>
  <path d="M366.49 160.89a1.72 1.72 0 00-2.41.31 1.7 1.7 0 00.24 2.39 145.24 145.24 0 0118.28 17.57 1.73 1.73 0 002.61-2.28 148 148 0 00-18.72-17.99z" class="cls-3"/>
  <path d="M376.08 207.67a1.4 1.4 0 00.23-1.77 124.22 124.22 0 00-11.85-14.73 1.7 1.7 0 00-2.58.59 1.44 1.44 0 00.05 1.77 120.94 120.94 0 0111.52 14.32 1.72 1.72 0 002.63-.18zm-23.63-26.24a1.4 1.4 0 00-.31-1.75c-1.69-1.27-3.27-2.69-5-3.86a1.71 1.71 0 00-2.43 1.07 1.45 1.45 0 00.39 1.73c1.71 1.14 3.24 2.52 4.89 3.75a1.76 1.76 0 002.46-.94zm-65.57-40.18a1.71 1.71 0 00-1.66 2.16 1.53 1.53 0 001.35 1.29 127.42 127.42 0 0141 10.49 1.7 1.7 0 002.25-1.48A1.56 1.56 0 00329 152a130.3 130.3 0 00-42.11-10.77zm106.5 75.34a1.54 1.54 0 00-.41 1.81 130.13 130.13 0 0111.83 40.67 1.74 1.74 0 002.45 1.19 1.53 1.53 0 001-1.6 133.88 133.88 0 00-12.15-41.76 1.73 1.73 0 00-2.72-.31zm-135.17-74.81a131.34 131.34 0 00-44.41 13.71 1.69 1.69 0 00-.26 2.69 1.56 1.56 0 001.84.39 127.7 127.7 0 0143.26-13.35 1.73 1.73 0 001.17-2.45 1.54 1.54 0 00-1.6-.99zm21.58 12.98a1.4 1.4 0 001.27 1.2c2.91.28 5.84.34 8.71.8.9.11 1.75-.88 1.61-2.1a1.44 1.44 0 00-1.18-1.34c-2.95-.47-6-.54-8.94-.82a1.75 1.75 0 00-1.47 2.26zm3.08-22.37a142.35 142.35 0 0124.77 3.61 1.76 1.76 0 002.08-1.86 1.65 1.65 0 00-1.29-1.51 145.67 145.67 0 00-25.38-3.66 1.73 1.73 0 00-1.71 2.22 1.67 1.67 0 001.53 1.2zm77.44 25.94A1.68 1.68 0 00360 156a142.24 142.24 0 00-30.21-16.62 1.73 1.73 0 00-1.3 3.21 139.61 139.61 0 0129.5 16.22 1.72 1.72 0 002.32-.48zM207.9 147a1.69 1.69 0 01.69-2.29c-2 1-4 2.05-6 3.22-2.13 1.19-4.22 2.42-6.25 3.78a1.72 1.72 0 00-.11 2.78 1.67 1.67 0 002 .14c2-1.32 4-2.53 6.1-3.69s4.14-2.31 6.26-3.38a1.35 1.35 0 00.28-.25c-.24.15-.46.33-.72.47a1.72 1.72 0 01-2.25-.78z" class="cls-2"/>
  <path d="M211 144.77a1.63 1.63 0 00-1.95-.32l-.47.24a1.69 1.69 0 00-.69 2.29 1.72 1.72 0 002.28.78c.26-.14.48-.32.72-.47a1.74 1.74 0 00.11-2.52z" class="cls-2"/>
  <path d="M211 144.77a1.63 1.63 0 00-1.95-.32l-.47.24a1.69 1.69 0 00-.69 2.29 1.72 1.72 0 002.28.78c.26-.14.48-.32.72-.47a1.74 1.74 0 00.11-2.52zm64.42-14.87a1.59 1.59 0 00-1.61-1.16 149.35 149.35 0 00-34.23 4.31 1.71 1.71 0 00-1 2.6 1.73 1.73 0 001.83.77 146.25 146.25 0 0133.42-4.22 1.76 1.76 0 001.59-2.3zM296 157.7c2.37.36 4.7.91 7 1.46.88.2 1.84-.7 1.84-1.92a1.4 1.4 0 00-1-1.44c-2.39-.57-4.79-1.14-7.23-1.51a1.69 1.69 0 00-1.71 2 1.45 1.45 0 001.1 1.41zm40.58 14.89a1.34 1.34 0 01-.49 0 1.34 1.34 0 00.49 0zm1.18-.74a2.39 2.39 0 01-.22.23 1.61 1.61 0 00.22-.23zm-.53.49a1.57 1.57 0 01-.42.18 1.57 1.57 0 00.42-.18zm-1.32.17a1.24 1.24 0 01-.54-.44 1.72 1.72 0 01.05-1.8 11.14 11.14 0 00.75-1.56 120.46 120.46 0 00-16-7.73 1.69 1.69 0 00-2.08 1.63 1.46 1.46 0 00.8 1.59c2.65 1 5.15 2.23 7.74 3.34 2.48 1.33 5 2.5 7.44 4l1.68 1s.12-.05.16-.03z" class="cls-2"/>
  <path d="M335.37 172.07a1.24 1.24 0 00.54.44h.18a1.34 1.34 0 00.49 0l.23-.07a1.57 1.57 0 00.42-.18 1.86 1.86 0 00.31-.26 2.39 2.39 0 00.22-.23 2.18 2.18 0 00.35-.66 1.38 1.38 0 00-.55-1.68c-.46-.28-.93-.53-1.39-.8a11.14 11.14 0 01-.75 1.56 1.72 1.72 0 00-.05 1.88z" class="cls-2"/>
  <path d="M335.37 172.07a1.24 1.24 0 00.54.44h.18a1.34 1.34 0 00.49 0l.23-.07a1.57 1.57 0 00.42-.18 1.86 1.86 0 00.31-.26 2.39 2.39 0 00.22-.23 2.18 2.18 0 00.35-.66 1.38 1.38 0 00-.55-1.68c-.46-.28-.93-.53-1.39-.8a11.14 11.14 0 01-.75 1.56 1.72 1.72 0 00-.05 1.88zm-200.03 66.17a1.75 1.75 0 002.13-1.15 1.73 1.73 0 00-3.34-.92 1.68 1.68 0 001.21 2.07z" class="cls-2"/>
  <path d="M154.06 196.12a1.68 1.68 0 002.34-.45 1.72 1.72 0 00-.48-2.35 1.69 1.69 0 00-2.39.42 1.73 1.73 0 00.53 2.38z" class="cls-3"/>
  <path d="M132.4 243.16a1.69 1.69 0 001.31 2 1.75 1.75 0 002.07-1.27 1.73 1.73 0 00-3.38-.75zm30.34-38.41a1.68 1.68 0 00-2.31.4 1.74 1.74 0 002.95 1.8 1.61 1.61 0 00-.64-2.2zm-3.33 5.62a1.56 1.56 0 10-1.48 2.71 1.64 1.64 0 002.23-.54 1.62 1.62 0 00-.75-2.17z" class="cls-2"/>
  <path d="M170.23 214.8a1.58 1.58 0 002.19-.34 1.64 1.64 0 00-.79-2.1 1.55 1.55 0 00-2.19.34 1.61 1.61 0 00.79 2.1z" class="cls-4"/>
  <path d="M169.56 219.59a1.65 1.65 0 00-.9-2.06 1.55 1.55 0 00-2.16.45 1.77 1.77 0 003.06 1.61zm37.71-44.73a1.66 1.66 0 002.14.68 1.59 1.59 0 00.23-2.2 1.62 1.62 0 00-2.14-.69 1.55 1.55 0 00-.23 2.21zm61.94-22.36c-.79 0-1.38.88-1.33 1.82a1.61 1.61 0 001.49 1.64 1.57 1.57 0 001.33-1.76 1.63 1.63 0 00-1.49-1.7zm5.79-.15a1.65 1.65 0 00-1.41 1.78 1.43 1.43 0 102.82 0 1.64 1.64 0 00-1.41-1.78zm35.14 6.93a1.56 1.56 0 00-.87-2 1.59 1.59 0 00-1.83 1.28 1.61 1.61 0 00.87 2 1.64 1.64 0 001.83-1.28zm5.36 1.77a1.56 1.56 0 00-.77-2.08 1.59 1.59 0 00-1.89 1.19 1.43 1.43 0 102.66.89zm38.69 22.64a1.6 1.6 0 00-.09 2.22 1.66 1.66 0 002.22-.38 1.54 1.54 0 00.08-2.21 1.6 1.6 0 00-2.21.37zm-11.53-8.91a1.55 1.55 0 00-.23-2.21 1.62 1.62 0 00-2.14.69 1.6 1.6 0 00.23 2.21 1.66 1.66 0 002.14-.69zm15.72 12.73a1.6 1.6 0 00-.19 2.21 1.66 1.66 0 002.24-.27 1.55 1.55 0 00.18-2.21 1.61 1.61 0 00-2.23.27zm25.19 34.29a1.57 1.57 0 00.9-2 1.77 1.77 0 00-3.09 1.56 1.62 1.62 0 002.19.44zm-173.91-60.03a1.66 1.66 0 00.46-2.27 1.55 1.55 0 10-2.67 1.54 1.67 1.67 0 002.21.73z" class="cls-2"/>
  <path d="M204.16 165.14a1.67 1.67 0 00.36-2.29 1.65 1.65 0 00-2.24-.62 1.61 1.61 0 00-.36 2.28 1.68 1.68 0 002.24.63z" class="cls-7"/>
  <path d="M274.38 142.51a1.62 1.62 0 00-1.58-1.69 1.75 1.75 0 00.06 3.47 1.71 1.71 0 001.52-1.78zm-7.98 2.03a1.69 1.69 0 001.42-1.85 1.6 1.6 0 00-1.65-1.6 1.74 1.74 0 00.23 3.45zm12.97-.2a1.7 1.7 0 001.61-1.7 1.62 1.62 0 00-1.49-1.76 1.74 1.74 0 00-.12 3.46zm54.95 10.23a1.3 1.3 0 00-.69-.14 1.35 1.35 0 01.7.15z" class="cls-2"/>
  <path d="M334.32 154.57a1.3 1.3 0 00-.69-.14 1.35 1.35 0 01.7.15zm-2.14.86a1.76 1.76 0 00-.18.67 2.15 2.15 0 01.28-.82c-.03.06-.08.09-.1.15z" class="cls-2"/>
  <path d="M332.18 155.43a1.76 1.76 0 00-.18.67 2.15 2.15 0 01.28-.82c-.03.06-.08.09-.1.15zm.72-.77a1.61 1.61 0 01.67-.22 1.61 1.61 0 00-.67.22z" class="cls-2"/>
  <path d="M332.9 154.66a1.61 1.61 0 01.67-.22 1.61 1.61 0 00-.67.22zm-.58.57a2 2 0 01.53-.54 1.82 1.82 0 00-.53.54z" class="cls-2"/>
  <path d="M332.32 155.23a2 2 0 01.53-.54 1.82 1.82 0 00-.53.54z" class="cls-2"/>
  <path d="M332.78 157.68a1.64 1.64 0 002.14-.85 1.67 1.67 0 00-.59-2.25 1.35 1.35 0 00-.7-.15h-.06a1.61 1.61 0 00-.67.22 2 2 0 00-.53.54v.05a2.15 2.15 0 00-.28.82 1.6 1.6 0 00.69 1.62z" class="cls-2"/>
  <path d="M332.78 157.68a1.64 1.64 0 002.14-.85 1.67 1.67 0 00-.59-2.25 1.35 1.35 0 00-.7-.15h-.06a1.61 1.61 0 00-.67.22 2 2 0 00-.53.54v.05a2.15 2.15 0 00-.28.82 1.6 1.6 0 00.69 1.62zm13.51 5.66a1.67 1.67 0 00-.38-2.31 1.6 1.6 0 00-2.21.64 1.7 1.7 0 00.38 2.3 1.63 1.63 0 002.21-.63zm2.58 1.66a1.7 1.7 0 00.28 2.31 1.63 1.63 0 002.24-.53 1.66 1.66 0 00-.27-2.32 1.6 1.6 0 00-2.25.54zm41.59 45.06a1.61 1.61 0 00-.75 2.16 1.66 1.66 0 002.24.53 1.64 1.64 0 00.8-2.19 1.67 1.67 0 00-2.29-.5zm-158.68-74.84a1.73 1.73 0 00-1.09 2.18 1.7 1.7 0 002.11 1.13 1.67 1.67 0 001.1-2.11 1.73 1.73 0 00-2.12-1.2zm-7.78 4.53a1.68 1.68 0 103.16-1.14 1.75 1.75 0 00-2.19-1.09 1.73 1.73 0 00-.97 2.23zm96.2-2.06a1.68 1.68 0 103.19 1.08 1.68 1.68 0 10-3.19-1.08zm-5.67.07a1.73 1.73 0 002.09-1.21 1.68 1.68 0 10-3.23-.92 1.73 1.73 0 001.14 2.13zm86.96 67.32a1.72 1.72 0 00-.71 2.29 1.69 1.69 0 002.29.68 1.74 1.74 0 00.76-2.32 1.7 1.7 0 00-2.34-.65z" class="cls-2"/>
  <path d="M404.71 211.25a1.72 1.72 0 00-.81 2.25 1.67 1.67 0 002.25.79A1.73 1.73 0 00407 212a1.71 1.71 0 00-2.29-.75z" class="cls-8"/>
  <path d="M418.32 256.74a1.7 1.7 0 00-1.51 1.86 1.76 1.76 0 001.94 1.47 1.65 1.65 0 001.5-1.86 1.72 1.72 0 00-1.93-1.47z" class="cls-7"/>
  <path d="M419 263.67a1.71 1.71 0 00-1.6 1.79 1.76 1.76 0 001.86 1.57 1.68 1.68 0 001.6-1.8 1.72 1.72 0 00-1.86-1.56z" class="cls-5"/>
  <path d="M417.26 249.69a1.71 1.71 0 00-1.42 1.94 1.77 1.77 0 002 1.37 1.66 1.66 0 001.41-1.94 1.72 1.72 0 00-1.99-1.37zm-287.07-32.04a1.76 1.76 0 002.26-1 1.81 1.81 0 00-.93-2.34 1.73 1.73 0 00-2.27 1 1.79 1.79 0 00.94 2.34zm3.13-7.36a1.76 1.76 0 002.31-.92 1.83 1.83 0 00-.79-2.38 1.74 1.74 0 00-2.34.91 1.81 1.81 0 00.82 2.39zm16.41-24.89a1.81 1.81 0 00-.36-2.49 1.82 1.82 0 00-2.1 3 1.79 1.79 0 002.46-.51zm18.76-21.65a1.79 1.79 0 00.11-2.5 1.81 1.81 0 00-2.62 2.5 1.8 1.8 0 002.51 0z" class="cls-2"/>
  <path d="M171 159.06a1.81 1.81 0 002.51.11 1.73 1.73 0 10-2.28-2.6 1.74 1.74 0 00-.23 2.49z" class="cls-8"/>
  <path d="M231.54 127.15a1.73 1.73 0 10-1-3.32 1.73 1.73 0 00-1.26 2.15 1.82 1.82 0 002.26 1.17zm38.6-6.15a1.8 1.8 0 001.76-1.78 1.77 1.77 0 00-1.87-1.68 1.75 1.75 0 00-1.76 1.77 1.82 1.82 0 001.87 1.69zm63.2 11.34a1.81 1.81 0 002.34-.93 1.73 1.73 0 00-1-2.27 1.79 1.79 0 00-2.34.94 1.76 1.76 0 001 2.26zm5.82 2.54a1.8 1.8 0 002.37-.83 1.75 1.75 0 00-.93-2.32 1.73 1.73 0 10-1.44 3.15zM393.63 174a1.81 1.81 0 00-2.37-2.74 1.81 1.81 0 002.37 2.74zm4.06 5a1.79 1.79 0 00.23-2.51 1.74 1.74 0 00-2.47-.35 1.82 1.82 0 00-.23 2.52 1.78 1.78 0 002.47.34z" class="cls-2"/>
  <path d="M401.58 184.19a1.8 1.8 0 00.35-2.51 1.74 1.74 0 00-2.47-.43 1.82 1.82 0 00-.32 2.49 1.76 1.76 0 002.44.45z" class="cls-4"/>
  <path d="M405.23 189.48a1.81 1.81 0 00-2-3 1.82 1.82 0 002 3zm20.55 53.78a1.8 1.8 0 002.05 1.42 1.76 1.76 0 001.34-2.13 1.8 1.8 0 00-2.1-1.41 1.75 1.75 0 00-1.29 2.12zm-52.95-89.53a1.81 1.81 0 00-2.85-2.24 1.81 1.81 0 002.85 2.24z" class="cls-2"/>
</svg>
