<svg id="Layer_1" data-name="Layer 1" xmlns="http://www.w3.org/2000/svg" viewBox="0 0 186.4 82"><title>ziprecruiter</title><path d="M136.94,33.05a2,2,0,0,1,4,0,2,2,0,0,1-4,0Z" fill="#31383c"/><path d="M140.28,37.12a.15.15,0,0,1,.15.15v12a.15.15,0,0,1-.15.15h-2.74a.15.15,0,0,1-.15-.15V37.23a.15.15,0,0,1,.15-.15Z" fill="#31383c"/><path d="M38.24,46.47l9.6-12.2a.08.08,0,0,0,0-.1l-.07,0H38.52a.15.15,0,0,1-.15-.15h0V31.36a.15.15,0,0,1,.13-.16H52.22a.16.16,0,0,1,.15.16h0v2.71a.13.13,0,0,1,0,.12L42.7,46.39a.07.07,0,0,0,0,.1,0,0,0,0,0,.06,0h9.5a.16.16,0,0,1,.15.16h0v2.65a.15.15,0,0,1-.15.15H38.36a.16.16,0,0,1-.16-.15h0V46.59A.56.56,0,0,1,38.24,46.47Z" fill="#31383c"/><path d="M74.91,31.36a.16.16,0,0,1,.15-.16h5.71c5.24,0,7.28,1.92,7.28,5.24a4.79,4.79,0,0,1-4.06,5,0,0,0,0,0,0,.07h0l4.54,7.78a.12.12,0,0,1-.06.16H84.86a.19.19,0,0,1-.16-.1l-4.14-7.58a.11.11,0,0,0-.1-.06H78.24a.07.07,0,0,0-.08.08v7.49a.16.16,0,0,1-.16.15H75.07a.16.16,0,0,1-.16-.15Zm6,7.58c2.37,0,3.94-.55,3.94-2.53C84.84,34.73,83.72,34,81,34H78.24a.08.08,0,0,0-.08.07v4.81a.08.08,0,0,0,.08.07Z" fill="#31383c"/><path d="M111.5,40.69a.14.14,0,0,1-.21,0,3.63,3.63,0,0,0-2.47-1.13A3.44,3.44,0,0,0,105.37,43c0,.11,0,.21,0,.31A3.46,3.46,0,0,0,111.3,46a.17.17,0,0,1,.23,0h0l1.84,2a.15.15,0,0,1,0,.21h0A6.45,6.45,0,0,1,109,49.84c-3.13,0-6.72-2-6.72-6.5s3.36-6.5,6.72-6.5a6.21,6.21,0,0,1,4.37,1.76.17.17,0,0,1,0,.23Z" fill="#31383c"/><path d="M91.75,44.36a.08.08,0,0,0-.08.08h0A3.57,3.57,0,0,0,95,47.29a3.85,3.85,0,0,0,3.24-1.58.13.13,0,0,1,.2,0h0l2,1.49a.16.16,0,0,1,0,.22h0a6.73,6.73,0,0,1-11.86-4.15,6.35,6.35,0,0,1,6.16-6.51h.37c3.37,0,6,2.81,6,6.72v.74a.15.15,0,0,1-.15.15h0ZM97.91,42A.1.1,0,0,0,98,42a3.06,3.06,0,0,0-3-2.87A3.16,3.16,0,0,0,91.67,42a.1.1,0,0,0,.07.09h6.17Z" fill="#31383c"/><path d="M155.17,44.36a.07.07,0,0,0-.08.08h0a3.56,3.56,0,0,0,3.32,2.84,3.83,3.83,0,0,0,3.18-1.56.13.13,0,0,1,.2,0h0l2,1.49a.16.16,0,0,1,0,.22h0a6.73,6.73,0,0,1-11.84-4.15,6.33,6.33,0,0,1,6.14-6.51h.39c3.36,0,6,2.81,6,6.72v.72a.15.15,0,0,1-.15.15ZM161.33,42a.09.09,0,0,0,.08-.08h0a3.06,3.06,0,0,0-3-2.87A3.13,3.13,0,0,0,155.1,42a.08.08,0,0,0,0,.09h6.19Z" fill="#31383c"/><path d="M115.12,37.12h2.44a.14.14,0,0,1,.14.13l.37,1.83h0c1.3-2.55,4.38-2.16,4.64-2.11.07,0,.12.08.12.23v2.39a.14.14,0,0,1-.13.15h0a6.49,6.49,0,0,0-1.08-.12c-2,0-3.42,1.8-3.56,4.25v5.45a.16.16,0,0,1-.16.15h-2.79a.15.15,0,0,1-.15-.15h0V37.23a.16.16,0,0,1,.18-.12Z" fill="#31383c"/><path d="M166.26,37.12h2.43a.15.15,0,0,1,.16.13h0l.36,1.83h0c1.3-2.55,4.39-2.16,4.64-2.11.07,0,.12.08.12.23v2.39a.13.13,0,0,1-.13.15h0a6.61,6.61,0,0,0-1.09-.12c-2,0-3.42,1.8-3.56,4.25v5.45a.16.16,0,0,1-.16.15h-2.79a.15.15,0,0,1-.15-.15V37.23A.15.15,0,0,1,166.26,37.12Z" fill="#31383c"/><path d="M142.08,39.56V37.23a.15.15,0,0,1,.15-.15h2.32a.08.08,0,0,0,.08-.07V34.75a.15.15,0,0,1,.1-.14l2.79-1a.16.16,0,0,1,.19.1.07.07,0,0,1,0,.05V37a.08.08,0,0,0,.08.07H151a.15.15,0,0,1,.15.15v2.31a.15.15,0,0,1-.15.15H147.8s-.08,0-.08.08v5.34c0,1.08.18,2,1.72,2a4,4,0,0,0,1.53-.28.11.11,0,0,1,.14.06.09.09,0,0,1,0,.05v2.27a.18.18,0,0,1-.11.17,6.63,6.63,0,0,1-2.34.37,4.27,4.27,0,0,1-3-.9c-.55-.55-1-1.36-1-3.48V39.79s0-.07-.08-.08h-2.32A.14.14,0,0,1,142.08,39.56Z" fill="#31383c"/><path d="M129.62,47.1a2.14,2.14,0,0,1-2.3-2,.92.92,0,0,1,0-.16V37.23a.15.15,0,0,0-.15-.15h-2.79a.15.15,0,0,0-.15.15h0v7.36a5.07,5.07,0,0,0,5,5.19h.48A5.09,5.09,0,0,0,135,45c0-.14,0-.27,0-.41V37.23a.15.15,0,0,0-.15-.15h-2.79a.15.15,0,0,0-.15.15V45a2.16,2.16,0,0,1-2.17,2.14Z" fill="#31383c"/><path d="M63.05,48a.05.05,0,0,1,.1,0,5.42,5.42,0,0,0,4.18,1.85c3,0,6-2.34,6-6.51,0-4.4-3-6.5-6.09-6.5A5,5,0,0,0,63,38.91.06.06,0,0,1,63,39a.05.05,0,0,1-.05-.05l-.34-1.67a.14.14,0,0,0-.15-.11h-2.3a.15.15,0,0,0-.15.13V55.19a.16.16,0,0,0,.14.17h2.79a.16.16,0,0,0,.16-.16h0ZM67,47a3.49,3.49,0,0,1-3.63-3.34,2.28,2.28,0,0,1,0-.37,3.5,3.5,0,0,1,3.26-3.72c.12,0,.25,0,.37,0a3.39,3.39,0,0,1,3.37,3.42c0,.1,0,.2,0,.3A3.43,3.43,0,0,1,67.21,47H67Z" fill="#31383c"/><path d="M54,33.05a1.87,1.87,0,0,1,1.89-1.85H56A1.91,1.91,0,0,1,58,33v.1a1.91,1.91,0,0,1-2,1.87H56A1.9,1.9,0,0,1,54,33.08Z" fill="#31383c"/><path d="M57.36,37.12a.16.16,0,0,1,.16.15h0v12a.16.16,0,0,1-.16.15H54.58a.15.15,0,0,1-.15-.15V37.23a.15.15,0,0,1,.15-.15h0Z" fill="#31383c"/><path d="M30.26,33.72a1.23,1.23,0,0,0-.76,0l-1,.34V24.4a.9.9,0,0,0-.9-.9H13.93a.9.9,0,0,0-.9.9v9.67l-1-.34a1.27,1.27,0,0,0-.77,0c-.37.09-1.24.46-1.24,2v8.07a1.62,1.62,0,0,0,1.61,1.49h3.45a4,4,0,0,0,2.79,1.24h0a2.92,2.92,0,0,0,1.75,2.62v2.24a.07.07,0,0,1-.07.07,19.91,19.91,0,0,0-8.78,2.23A1.51,1.51,0,0,0,10.11,55v1.77a1.13,1.13,0,1,0,1.41-1.16.07.07,0,0,1-.07-.07v-.65a.46.46,0,0,1,.25-.4c1.3-.72,4.64-1.08,7.15-1.21h.74a.08.08,0,0,1,.07.07c.14,2,.34,3.77.41,4.84H20c-.45,0-.82.5-.82,1.14s.36,1.15.82,1.15h1.57c.44,0,.81-.51.81-1.15s-.37-1.14-.81-1.14h-.1s.27-2.79.41-4.84a.08.08,0,0,1,.07-.07h.74c2.51.13,5.85.49,7.15,1.21a.46.46,0,0,1,.25.4v.64a.07.07,0,0,1-.07.07,1.15,1.15,0,0,0,.25,2.26,1.16,1.16,0,0,0,1.17-1.1V55a1.54,1.54,0,0,0-.65-1.37A19.91,19.91,0,0,0,22,51.41a.07.07,0,0,1-.07-.07V49.08a2.88,2.88,0,0,0,1.75-2.61h0a4,4,0,0,0,2.76-1.22h3.45a1.61,1.61,0,0,0,1.61-1.48V35.68C31.5,34.18,30.68,33.81,30.26,33.72ZM13,42.06,11.4,43.27a.05.05,0,0,1-.08,0h0V35.68c0-.29,0-.7.22-.65l1.39.47a.12.12,0,0,1,.08.11Zm17,1.21-1.6-1.21V35.61a.12.12,0,0,1,.08-.11L29.91,35c.19,0,.22.36.22.65v7.54s0,.06-.07.05h0Z" fill="#b8d637" fill-rule="evenodd"/><path d="M174.27,35.3a1.63,1.63,0,0,1,.14-.72,1.87,1.87,0,0,1,1-1,1.8,1.8,0,0,1,1.44,0,2,2,0,0,1,.59.4,1.85,1.85,0,0,1-2,3,2,2,0,0,1-.59-.4,2.16,2.16,0,0,1-.39-.59A1.63,1.63,0,0,1,174.27,35.3Zm.32,0a1.48,1.48,0,0,0,.12.59,1.37,1.37,0,0,0,.33.49,1.31,1.31,0,0,0,.48.32,1.43,1.43,0,0,0,1.19,0,1.42,1.42,0,0,0,.81-.81,1.6,1.6,0,0,0,0-1.18,1.42,1.42,0,0,0-.81-.81,1.54,1.54,0,0,0-1.19,0,1.31,1.31,0,0,0-.48.32,1.46,1.46,0,0,0-.33.49,1.52,1.52,0,0,0-.12.59Z" fill="#31383c"/><path d="M175.38,34.24H176c.61,0,.84.23.84.61a.55.55,0,0,1-.47.58h0l.52.9h-.42l-.49-.88h-.22v.87h-.34Zm.69.88c.28,0,.46-.06.46-.3s-.13-.27-.45-.27h-.28v.54h.31Z" fill="#31383c"/></svg>