<svg data-name="Layer 1" xmlns="http://www.w3.org/2000/svg" viewBox="0 0 32 32"><circle cx="16" cy="16" r="14.58" fill="#c1edd5"/><path d="M16.89 19.33l5.56-5.67a3.27 3.27 0 000-4.57 3 3 0 00-4.21-.15l-.15.15a3.2 3.2 0 00-.51.75 3.24 3.24 0 00-.52-.75A3 3 0 0012.85 9a.93.93 0 00-.14.14 3.33 3.33 0 000 4.57L16 17.05" fill="none" stroke="#09b859" stroke-linecap="round" stroke-linejoin="round" stroke-width=".54"/><path d="M17.29 19.8h3.32c1.81 0 2 1 2 1l-7.15 2.9a2.16 2.16 0 01-1.76-.07l-3.58-1.82" fill="none" stroke="#47ca83" stroke-linecap="round" stroke-linejoin="round" stroke-width=".54"/><path d="M10.12 17.3h.5a3.87 3.87 0 013 1.5h2a2.14 2.14 0 012 2h-4.5" fill="none" stroke="#84dcac" stroke-linecap="round" stroke-linejoin="round" stroke-width=".54"/><path stroke-width=".54" stroke="#09b859" stroke-linecap="round" stroke-linejoin="round" fill="none" d="M8.12 16.3h2v6.49h-2z"/><path fill="none" d="M7.85 7.87h15.8v16.26H7.85z"/><path fill="none" d="M7.85 7.87h15.8v16.26H7.85z"/><path fill="none" d="M-85.86-70.54h99.73v99.73h-99.73z"/></svg>