<svg data-name="Layer 1" xmlns="http://www.w3.org/2000/svg" viewBox="0 0 32 32"><defs><clipPath id="a"><path fill="none" d="M9.11 7.13h13.77v17.74H9.11z"/></clipPath></defs><circle cx="16" cy="16" r="14.58" fill="#dfecfb"/><g clip-path="url(#a)"><path stroke-width=".56" stroke="#0e6ffa" stroke-linecap="round" stroke-linejoin="round" fill="none" d="M16 7.41h4.62v2.64H16z"/></g><path fill="none" stroke="#0e6ffa" stroke-linecap="round" stroke-linejoin="round" stroke-width=".56" d="M16 10.06v2.64"/><path fill="none" stroke="#87b7fd" stroke-linecap="round" stroke-linejoin="round" stroke-width=".56" d="M21.24 17.98H10.76"/><path fill="none" stroke="#4a93fb" stroke-linecap="round" stroke-miterlimit="10" stroke-width=".56" d="M16.37 17.98h-5.61"/><g clip-path="url(#a)"><path fill="none" stroke="#4a93fb" stroke-linecap="round" stroke-miterlimit="10" stroke-width=".56" d="M13.36 21.94v2.65"/></g><path fill="none" stroke="#87b7fd" stroke-linecap="round" stroke-linejoin="round" stroke-width=".56" d="M13.36 21.94v1.48"/><g clip-path="url(#a)" fill="none" stroke-linecap="round" stroke-width=".56"><path stroke="#4a93fb" stroke-miterlimit="10" d="M16 21.94v2.65M18.64 21.94v2.65"/><path d="M10.72 24.59v-5.95c0-3.28 2.36-5.94 5.28-5.94s5.28 2.66 5.28 5.94v5.95" stroke="#0e6ffa" stroke-linejoin="round"/><path stroke="#87b7fd" stroke-linejoin="round" d="M16 23.11v1.48M18.64 21.92v1.47"/><path stroke="#0e6ffa" stroke-linejoin="round" d="M9.4 24.59h13.2"/></g><path fill="none" d="M9.11 7.13h13.77v17.74H9.11z"/><path fill="none" d="M-43.96-70.54h99.73v99.73h-99.73z"/></svg>