<svg class="icon" id="covid-19-icon" xmlns="http://www.w3.org/2000/svg" viewBox="0 0 216 216">
  <style>
    .cl_base{fill:#0e6ffa}.cl_lightest{fill:#87b7fd}.cl_lighter{fill:#4a93fb}.cl_accent_1{fill:#f1613c}.cl_accent_2{fill:#8d2cc6}.cl_accent_3{fill:#09b859}.cl_accent_4{fill:#ffcd05}
  </style>
  <g class="covid-19">
    <g class="outer-circ">
      <path d="M 34.8 58.3 c -0.3 0 -0.7 -0.1 -1 -0.3 c -0.8 -0.6 -1 -1.6 -0.4 -2.4 c 1.9 -2.7 3.9 -5.3 6 -7.8 c 0.6 -0.7 1.7 -0.9 2.5 -0.2 c 0.7 0.6 0.9 1.7 0.2 2.5 c -2 2.5 -4 5 -5.8 7.6 c -0.4 0.4 -0.9 0.6 -1.5 0.6 z" class="cl_accent_4"/>
      <path d="M 38.9 166.9 c -0.5 0 -1 -0.2 -1.4 -0.6 c -17.9 -22 -24.7 -50.5 -18.5 -78.1 c 1.9 -8.4 4.9 -16.5 9 -24 c 0.5 -0.8 1.5 -1.2 2.4 -0.7 c 0.8 0.5 1.2 1.5 0.7 2.4 c -3.9 7.2 -6.9 15 -8.7 23.1 c -6 26.6 0.5 54 17.8 75.2 c 0.6 0.7 0.5 1.8 -0.2 2.5 c -0.3 0.1 -0.7 0.2 -1.1 0.2 z" class="cl_base"/>
      <path d="M 54.8 182.1 c -0.4 0 -0.7 -0.1 -1 -0.3 c -3.3 -2.5 -6.5 -5.2 -9.4 -8.1 c -0.7 -0.7 -0.7 -1.8 0 -2.5 s 1.8 -0.7 2.5 0 c 2.8 2.8 5.9 5.4 9.1 7.8 c 0.8 0.6 0.9 1.7 0.4 2.4 c -0.6 0.5 -1.1 0.7 -1.6 0.7 z" class="cl_accent_3"/>
      <path d="M 162.6 181.8 c -0.5 0 -1.1 -0.2 -1.4 -0.7 c -0.6 -0.8 -0.4 -1.9 0.3 -2.4 c 1.6 -1.2 3.1 -2.5 4.5 -3.9 c 0.7 -0.7 1.8 -0.7 2.5 0 s 0.7 1.8 0 2.5 c -1.5 1.5 -3.2 2.9 -4.9 4.2 c -0.3 0.1 -0.6 0.3 -1 0.3 z" class="cl_accent_2"/>
      <path d="M 108.8 200 c -6.7 0 -13.5 -0.7 -20.3 -2.3 c -9.3 -2.1 -18.2 -5.6 -26.4 -10.4 c -0.8 -0.5 -1.1 -1.6 -0.6 -2.4 c 0.5 -0.8 1.6 -1.1 2.4 -0.6 c 7.9 4.6 16.4 8 25.4 10 c 23.1 5.2 46.8 1 66.8 -11.7 c 0.8 -0.5 1.9 -0.3 2.4 0.5 s 0.3 1.9 -0.5 2.4 c -15 9.6 -32 14.5 -49.2 14.5 z" class="cl_base"/>
      <path d="M 172.9 172.9 c -0.4 0 -0.9 -0.2 -1.2 -0.5 c -0.7 -0.7 -0.7 -1.8 0 -2.5 c 11.4 -11.7 19.4 -26.3 23 -42.4 c 1.9 -8.4 2.5 -17 1.9 -25.6 c -0.1 -1 0.7 -1.8 1.6 -1.9 c 1 -0.1 1.8 0.7 1.9 1.6 c 0.6 8.9 0 17.8 -2 26.6 c -3.7 16.7 -12 31.9 -23.9 44.1 c -0.3 0.4 -0.8 0.6 -1.3 0.6 z" class="cl_base"/>
      <g>
        <path d="M 196.7 91.8 c -0.8 0 -1.5 -0.6 -1.7 -1.4 c -0.9 -4.2 -2.1 -8.5 -3.6 -12.5 c -0.3 -0.9 0.1 -1.9 1 -2.2 c 0.9 -0.3 1.9 0.1 2.2 1 c 1.6 4.2 2.8 8.6 3.7 13 c 0.2 0.9 -0.4 1.9 -1.4 2.1 h -0.2 z" class="cl_accent_1"/>
        <path d="M 196.7 91.8 c -0.8 0 -1.5 -0.6 -1.7 -1.4 c -0.9 -4.2 -2.1 -8.5 -3.6 -12.5 c -0.3 -0.9 0.1 -1.9 1 -2.2 c 0.9 -0.3 1.9 0.1 2.2 1 c 1.6 4.2 2.8 8.6 3.7 13 c 0.2 0.9 -0.4 1.9 -1.4 2.1 h -0.2 z" class="cl_accent_1"/>
      </g>
      <g>
        <path d="M 189.7 71.1 c -0.7 0 -1.3 -0.4 -1.6 -1 c -11.8 -24.5 -33.8 -42 -60.3 -48 c -25 -5.6 -51.2 -0.1 -71.8 15.2 c -2.4 1.8 -4.8 3.7 -7 5.7 c -0.7 0.7 -1.8 0.6 -2.5 -0.1 s -0.6 -1.8 0.1 -2.5 c 2.3 -2.1 4.8 -4.1 7.3 -6 c 21.4 -15.9 48.7 -21.6 74.7 -15.8 c 27.6 6.2 50.4 24.4 62.7 49.9 c 0.4 0.9 0.1 1.9 -0.8 2.3 c -0.3 0.2 -0.5 0.3 -0.8 0.3 z" class="cl_base"/>
        <path d="M 189.7 71.1 c -0.7 0 -1.3 -0.4 -1.6 -1 c -11.8 -24.5 -33.8 -42 -60.3 -48 c -25 -5.6 -51.2 -0.1 -71.8 15.2 c -2.4 1.8 -4.8 3.7 -7 5.7 c -0.7 0.7 -1.8 0.6 -2.5 -0.1 s -0.6 -1.8 0.1 -2.5 c 2.3 -2.1 4.8 -4.1 7.3 -6 c 21.4 -15.9 48.7 -21.6 74.7 -15.8 c 27.6 6.2 50.4 24.4 62.7 49.9 c 0.4 0.9 0.1 1.9 -0.8 2.3 c -0.3 0.2 -0.5 0.3 -0.8 0.3 z" class="cl_base"/>
      </g>
    </g>
    <g class="inner-element">
  <path class="cl_base" d="M108 175.4c-5.1 0-9.3-4.2-9.3-9.3v-5.5c0-5.1-2.9-9.6-7.7-11.5-4.7-2-10-.9-13.6 2.7l-3.9 3.9c-3.6 3.3-9.1 3.3-12.7.1-3.8-3.5-4-9.4-.5-13.2l3.9-4c3.6-3.6 4.7-8.8 2.7-13.6-2-4.7-6.4-7.7-11.5-7.7h-5.8c-2.5 0-4.8-1.1-6.5-2.9s-2.7-4.1-2.6-6.6c0-2.5 1.1-4.8 2.9-6.5 1.8-1.7 4.1-2.7 6.6-2.6h5.5c5.1 0 9.6-2.9 11.5-7.7 2-4.7.9-10-2.7-13.6l-3.9-3.9c-3.4-3.6-3.4-9.2 0-12.8 1.7-1.8 4-2.9 6.5-3 2.5-.1 4.9.8 6.7 2.5l3.9 3.9c3.6 3.6 8.8 4.7 13.6 2.7 4.7-2 7.7-6.4 7.7-11.5v-5.5c0-5.1 4.2-9.3 9.3-9.3 2.5 0 4.8 1 6.6 2.7 1.8 1.8 2.7 4.1 2.7 6.6v5.5c0 5.1 2.9 9.6 7.7 11.5 4.7 2 10 .9 13.6-2.7l3.9-3.9c3.6-3.4 9.2-3.4 12.7-.1 1.8 1.7 2.9 4 3 6.5.1 2.5-.8 4.9-2.5 6.7l-3.9 3.9c-3.6 3.6-4.7 8.8-2.7 13.6 2 4.7 6.4 7.7 11.5 7.7h5.8c5.1.1 9.2 4.4 9.1 9.5-.1 5.1-4.4 9.2-9.5 9.1h-5.5c-5.1 0-9.6 3-11.5 7.7-2 4.7-.9 10 2.7 13.6l3.9 3.9c3.3 3.6 3.3 9.1.1 12.7-3.5 3.8-9.4 4-13.2.5l-4-3.9c-3.6-3.6-8.8-4.7-13.6-2.7-4.7 2-7.7 6.4-7.7 11.5v5.5c0 5.3-4.2 9.5-9.3 9.5zM86.1 144c2.2 0 4.3.4 6.4 1.3 6.3 2.6 10.2 8.5 10.2 15.3v5.5c0 2.9 2.3 5.2 5.2 5.2s5.2-2.3 5.2-5.2v-5.5c0-6.8 3.9-12.7 10.2-15.3 6.3-2.6 13.2-1.2 18.1 3.6l3.9 3.9c2.1 1.9 5.4 1.8 7.3-.4 1.8-2 1.8-5.1 0-7.1l-3.8-3.8c-4.8-4.8-6.2-11.8-3.6-18.1 2.6-6.3 8.5-10.2 15.3-10.2h5.5c2.9.1 5.3-2.2 5.3-5.1.1-2.9-2.2-5.3-5.1-5.3h-.2v-1.6 1.6h-5.5c-6.8 0-12.7-3.9-15.3-10.2-2.6-6.3-1.2-13.2 3.6-18.1l3.9-3.9c.9-1 1.4-2.3 1.3-3.7-.1-1.4-.6-2.7-1.7-3.6-2-1.9-5.1-1.9-7.1 0l-3.8 3.8c-4.8 4.8-11.8 6.2-18.1 3.6-6.3-2.6-10.2-8.5-10.2-15.3v-5.5c0-2.9-2.3-5.2-5.2-5.2-2.9 0-5.2 2.3-5.2 5.2v5.5c0 6.8-3.9 12.7-10.2 15.3-6.3 2.6-13.2 1.2-18.1-3.6l-3.9-3.9c-2-1.9-5.3-1.8-7.3.3-1.9 2-1.9 5.1 0 7.1l3.8 3.8c4.8 4.8 6.2 11.8 3.6 18.1-2.6 6.3-8.5 10.2-15.3 10.2h-5.5c-1.4 0-2.7.5-3.7 1.5s-1.6 2.3-1.6 3.7c0 1.4.5 2.7 1.5 3.7s2.3 1.6 3.7 1.6h5.7c6.8 0 12.7 3.9 15.3 10.2 2.6 6.3 1.2 13.2-3.6 18.1l-3.9 3.9c-1.9 2.1-1.8 5.4.4 7.3 2 1.8 5.1 1.8 7.1 0l3.8-3.8c3.2-3.2 7.3-4.9 11.6-4.9z"/>
  <path class="cl_lighter" d="M99.8 114.1c-7.9 0-14.3-6.4-14.3-14.3s6.4-14.3 14.3-14.3 14.3 6.4 14.3 14.3-6.4 14.3-14.3 14.3zm0-24.5c-5.6 0-10.2 4.6-10.2 10.2S94.2 110 99.8 110s10.2-4.6 10.2-10.2-4.5-10.2-10.2-10.2z"/>
  <path class="cl_lightest" d="M150.3 142.1c-.5 0-1.1-.2-1.5-.6-4.8-4.8-6.2-11.8-3.6-18.1 2.6-6.3 8.5-10.2 15.3-10.2h5.5c2.9.1 5.3-2.2 5.3-5.1.1-2.9-2.2-5.3-5.1-5.3h-5.7c-6.8 0-12.7-3.9-15.3-10.2-2.6-6.3-1.2-13.2 3.6-18.1l3.9-3.9c.9-1 1.4-2.3 1.3-3.7-.1-1.4-.6-2.7-1.7-3.6-2-1.9-5.1-1.9-7.1 0l-3.8 3.8c-4.8 4.8-11.8 6.2-18.1 3.6-6.3-2.6-10.2-8.5-10.2-15.3v-5.5c0-2.9-2.3-5.2-5.2-5.2-1.1 0-2.1-.9-2.1-2.1 0-1.1.9-2.1 2.1-2.1 5.1 0 9.3 4.2 9.3 9.3v5.5c0 5.1 2.9 9.6 7.7 11.5 4.7 2 10 .9 13.6-2.7l3.9-3.9c3.6-3.4 9.2-3.4 12.7-.1 1.8 1.7 2.9 4 3 6.5.1 2.5-.8 4.9-2.5 6.7l-3.9 3.9c-3.6 3.6-4.7 8.8-2.7 13.6 2 4.7 6.4 7.7 11.5 7.7h5.8c5.1.1 9.2 4.4 9.1 9.5-.1 5.1-4.4 9.2-9.5 9.1h-5.5c-5.1 0-9.6 3-11.5 7.7-2 4.7-.9 10 2.7 13.6.8.8.8 2.1 0 2.9-.2.6-.8.8-1.3.8z"/>
  <path class="cl_lighter" d="M67.1 158.2c-2.3 0-4.5-.8-6.3-2.4-3.8-3.5-4-9.4-.5-13.2l3.9-4c3.6-3.6 4.7-8.8 2.7-13.6-2-4.7-6.4-7.7-11.5-7.7h-5.8c-1.1 0-2-.9-2-2.1 0-1.1.9-2 2.1-2h5.7c6.8 0 12.7 3.9 15.3 10.2 2.6 6.3 1.2 13.2-3.6 18.1l-3.9 3.9c-1.9 2.1-1.8 5.4.4 7.3 2 1.8 5.1 1.8 7.1 0l3.8-3.8c.8-.8 2.1-.8 2.9 0 .8.8.8 2.1 0 2.9l-3.9 3.9c-1.8 1.6-4.1 2.5-6.4 2.5z"/>
  <path class="cl_lightest" d="M120.3 123.7c-4.5 0-8.2-3.7-8.2-8.2 0-4.5 3.7-8.2 8.2-8.2 4.5 0 8.2 3.7 8.2 8.2-.1 4.6-3.7 8.2-8.2 8.2zm0-12.2c-2.2 0-4.1 1.8-4.1 4.1s1.8 4.1 4.1 4.1c2.2 0 4.1-1.8 4.1-4.1s-1.9-4.1-4.1-4.1z"/>
  <path class="cl_base" d="M114.1 117.6c-1.1 0-2.1-.9-2.1-2.1 0-4.5 3.7-8.2 8.2-8.2 1.1 0 2.1.9 2.1 2.1 0 1.1-.9 2.1-2.1 2.1-2.2 0-4.1 1.8-4.1 4.1.1 1.1-.8 2-2 2z"/>
  <path class="cl_lightest" d="M99.8 114.1c-7.9 0-14.3-6.4-14.3-14.3 0-1.1.9-2.1 2.1-2.1 1.1 0 2.1.9 2.1 2.1 0 5.6 4.6 10.2 10.2 10.2 1.1 0 2.1.9 2.1 2.1s-1 2-2.2 2z"/>
    <path class="cl_lighter" d="M102.8 130.5c-1.1 0-2.2-.3-3.2-.8-1.6-.9-2.8-2.3-3.4-4.1-.5-1.8-.4-3.6.5-5.3.9-1.6 2.3-2.8 4.1-3.4 1.8-.5 3.6-.4 5.3.5 3.4 1.8 4.7 6 2.9 9.4-1.3 2.4-3.7 3.7-6.2 3.7zm.1-9.7c-.3 0-.6 0-.8.1-.7.2-1.3.7-1.7 1.4-.4.7-.4 1.4-.2 2.1.2.7.7 1.3 1.4 1.7 1.4.7 3.1.2 3.8-1.2.4-.7.4-1.4.2-2.1-.2-.7-.7-1.3-1.4-1.7-.4-.2-.9-.3-1.3-.3z"/>
  </g>
  </g>
</svg>


