<svg data-name="Layer 1" xmlns="http://www.w3.org/2000/svg" viewBox="0 0 32 32"><circle cx="16" cy="16" r="14.58" fill="#e2caf1"/><path d="M10.05 12.38h0a1.59 1.59 0 111.58-1.59 1.59 1.59 0 01-1.58 1.59z" fill="none" stroke="#8d2cc6" stroke-linecap="round" stroke-linejoin="round" stroke-width=".5"/><path d="M11.24 24.29H8.86l-.4-4.37-1.19-.4V16a1.59 1.59 0 011.59-1.59h2.38a1.6 1.6 0 011.36.77" fill="none" stroke="#c696e3" stroke-linecap="round" stroke-linejoin="round" stroke-width=".5"/><path d="M22 12.38h0a1.59 1.59 0 10-1.58-1.59A1.59 1.59 0 0022 12.38z" fill="none" stroke="#8d2cc6" stroke-linecap="round" stroke-linejoin="round" stroke-width=".5"/><path d="M20.76 24.29h2.38l.4-4.37 1.19-.4V16a1.59 1.59 0 00-1.59-1.59h-2.38a1.6 1.6 0 00-1.36.77" fill="none" stroke="#c696e3" stroke-linecap="round" stroke-linejoin="round" stroke-width=".5"/><path d="M16 12.78h0a2.39 2.39 0 112.38-2.39A2.38 2.38 0 0116 12.78z" fill="none" stroke="#8d2cc6" stroke-linecap="round" stroke-linejoin="round" stroke-width=".5"/><path d="M7.27 19.52V16a1.59 1.59 0 011.59-1.59h2.38a1.6 1.6 0 011.36.77M19.4 15.13a1.6 1.6 0 011.36-.77h2.39A1.59 1.59 0 0124.73 16v3.57" fill="none" stroke="#aa61d4" stroke-linecap="round" stroke-linejoin="round" stroke-width=".5"/><path d="M18 25.48h-4l-.4-4.77-1.6-.39v-4a1.59 1.59 0 011.59-1.59h4.76A1.59 1.59 0 0120 16.35v4l-1.59.39z" fill="none" stroke="#8d2cc6" stroke-linecap="round" stroke-linejoin="round" stroke-width=".5"/><path fill="none" d="M7.02 7.76h17.96v17.96H7.02z"/><path fill="none" d="M7.02 7.76h17.96v17.96H7.02z"/></svg>