<svg id="Layer_1" data-name="Layer 1" xmlns="http://www.w3.org/2000/svg" viewBox="0 0 186.4 82"><path d="M46.55,17.54l1.89,3.51,3.21-2.33,1.07,3.85L56.37,21l.2,4,3.9-.69-.69,3.93,3.95.2-1.54,3.68L66,33.2l-2.32,3.25,3.48,1.91L64.2,41l3,2.64-3.48,1.91L66,48.8l-3.82,1.08,1.54,3.68-3.95.2.69,3.93L56.57,57l-.2,4-3.65-1.56-1.07,3.85L48.44,61l-1.89,3.51-2.62-3-2.62,3L39.41,61,36.2,63.28l-1.07-3.85L31.48,61l-.19-4-3.9.69.69-3.93-4-.2,1.54-3.68L21.85,48.8l2.31-3.25-3.48-1.91,3-2.64-3-2.64,3.48-1.91L21.85,33.2l3.81-1.08-1.54-3.68,4-.2-.69-3.93,3.9.69.19-4,3.65,1.56,1.07-3.85,3.21,2.33,1.9-3.51,2.62,3Z" fill="#127df2"/><path d="M54.11,53.29H49.78L38.44,38.51V53.29H33.17V29.23h4.69l11,14.32V29.23h5.26ZM50.46,51.9h2.27V30.61H50.24v17l-13.06-17H34.56V51.9h2.49V34.42Z" fill="#fff"/><path d="M139.74,34.87a1.13,1.13,0,1,0,0,2.26h0A1.12,1.12,0,0,0,140.87,36a1.13,1.13,0,0,0-1.13-1.13Zm-.84,15.71h1.67V39.35H138.9V50.58Zm-7.28-8.33v-2.9H130V50.58h1.67V45.4c0-2.61,1.53-4.57,3.43-4.57a3.48,3.48,0,0,1,1.66.36l.22-1.66a2.83,2.83,0,0,0-1.55-.38,4.23,4.23,0,0,0-3.76,3.1Zm12.45-1.49h7.18l-7.44,8.75v1.07h9.72V49.17h-7.47l7.47-8.76V39.35h-9.46v1.41Zm13.13,3.58c.22-2.19,1.7-3.82,3.65-3.82,2.24,0,3.41,1.78,3.59,3.82Zm8.93.7c0-3.28-1.91-5.93-5.23-5.93A5.54,5.54,0,0,0,155.51,45v0a5.58,5.58,0,0,0,5.6,5.84,4.63,4.63,0,0,0,4.71-3.67L164.38,47a3.13,3.13,0,0,1-3.27,2.42,3.92,3.92,0,0,1-3.91-3.8h8.91a4.61,4.61,0,0,0,0-.54Zm-41.71,1.75c-.2,1.6-1.8,2.7-3.73,2.7-1.52,0-2.83-.82-2.83-2.24v0c0-1.41,1.18-2.32,3.28-2.32a11.56,11.56,0,0,1,3.28.47ZM126,48.54v-5c0-3-1.61-4.54-4.6-4.54a4.7,4.7,0,0,0-4.71,3.25l1.47.28a3.26,3.26,0,0,1,3.27-2.21,2.73,2.73,0,0,1,3,3v.89a11.66,11.66,0,0,0-3.45-.48c-2.85,0-4.8,1.26-4.8,3.63v0c0,2.3,2.11,3.5,4.19,3.5a4.92,4.92,0,0,0,4.06-1.94l0-.15a2.17,2.17,0,0,0,2.06,2.09,1.82,1.82,0,0,0,1.57-.72v-.92a2.38,2.38,0,0,1-1.07.31.88.88,0,0,1-1-.94h0ZM103.6,45a4.15,4.15,0,0,1-4.13,4.32A4.21,4.21,0,0,1,95.33,45v0a4.14,4.14,0,0,1,4.1-4.34A4.24,4.24,0,0,1,103.6,45V45Zm-4.13-5.91A5.81,5.81,0,0,0,93.61,45V45a5.75,5.75,0,0,0,5.82,5.82A5.83,5.83,0,0,0,105.31,45v0a5.77,5.77,0,0,0-5.84-5.82ZM88.61,47.56,79,35.37H77.43V50.58H79.1V38.11l9.82,12.47h1.37V35.37H88.61ZM110.5,36h-1.23l-.17,1.5a1.76,1.76,0,0,1-1.83,1.89v1.48h1.56V47.6A2.86,2.86,0,0,0,112,50.77a4.27,4.27,0,0,0,2-.47V48.86a3.57,3.57,0,0,1-1.63.39,1.66,1.66,0,0,1-1.89-1.87V40.83h3.56V39.35H110.5Z" fill="#127df2" fill-rule="evenodd"/><path d="M161.11,51a5.79,5.79,0,0,1-5.79-6,5.77,5.77,0,0,1,5.58-6.08c3.19,0,5.42,2.52,5.42,6.12a5.06,5.06,0,0,1,0,.56l0,.17h-8.86a3.72,3.72,0,0,0,3.69,3.42,3,3,0,0,0,3.09-2.28l.05-.16,1.81.26-.06.21A4.79,4.79,0,0,1,161.11,51ZM160.9,39.3c-3,0-5.2,2.43-5.2,5.65a5.43,5.43,0,0,0,5.41,5.7,4.42,4.42,0,0,0,4.47-3.33l-1.07-.15a3.28,3.28,0,0,1-3.4,2.4,4.11,4.11,0,0,1-4.09-4l0-.21h8.93c0-.11,0-.21,0-.35C165.94,41.61,163.91,39.3,160.9,39.3ZM99.43,51a6.06,6.06,0,1,1,6.07-6.1A5.95,5.95,0,0,1,99.43,51Zm0-11.73A5.68,5.68,0,1,0,105.12,45,5.61,5.61,0,0,0,99.47,39.3ZM126.53,51a2.27,2.27,0,0,1-2.15-1.78,5.06,5.06,0,0,1-4,1.78c-2.18,0-4.38-1.27-4.38-3.69s1.91-3.86,5-3.86a11.73,11.73,0,0,1,3.26.42v-.64a2.52,2.52,0,0,0-2.77-2.78,3.09,3.09,0,0,0-3.1,2.09l0,.15-1.83-.36.06-.2a4.92,4.92,0,0,1,4.89-3.38c3.09,0,4.79,1.68,4.79,4.73v5c0,.5.27.76.81.76a2.37,2.37,0,0,0,1-.28l.28-.17v1.32l0,0A2,2,0,0,1,126.53,51Zm-2.24-2.33.36,0c.19,1.19.91,1.93,1.88,1.93a1.64,1.64,0,0,0,1.39-.61v-.54a2.59,2.59,0,0,1-.89.2,1.07,1.07,0,0,1-1.19-1.13V43.49c0-2.85-1.53-4.36-4.41-4.36A4.52,4.52,0,0,0,117,42.05l1.1.21a3.43,3.43,0,0,1,3.39-2.18,2.9,2.9,0,0,1,3.15,3.16v1.14l-.24-.07a11.52,11.52,0,0,0-3.4-.47c-2.89,0-4.61,1.28-4.61,3.44s2,3.35,4,3.35a4.7,4.7,0,0,0,3.89-1.84ZM112,51a3,3,0,0,1-3.36-3.36V41h-1.56V39.17h.17c1.09-.08,1.56-.57,1.67-1.72l.18-1.67h1.59v3.39h3.56V41h-3.56v6.36c0,1.15.54,1.68,1.7,1.68a3.39,3.39,0,0,0,1.55-.37l.27-.13v1.85l-.1.05A4.44,4.44,0,0,1,112,51Zm-4.54-10.32H109v7a2.67,2.67,0,0,0,3,3,4.12,4.12,0,0,0,1.83-.4v-1a3.63,3.63,0,0,1-1.44.29,1.85,1.85,0,0,1-2.08-2.06V40.64h3.56v-1.1h-3.56V36.15h-.87l-.15,1.33a1.91,1.91,0,0,1-1.83,2Zm46.26,10.13h-10.1V49.44l0,0L150.84,41h-7V39.16h9.84v1.32L146.48,49h7.24ZM144,50.39h9.34v-1h-7.69l7.69-9v-.8h-9.08v1h7.4l-7.66,9Zm-3.24.38h-2V39.16h2Zm-1.67-.38h1.29V39.54h-1.29Zm-7.28.38h-2.05V39.16h2.05v2.18A4.12,4.12,0,0,1,135.38,39a3.08,3.08,0,0,1,1.65.4l.1.07-.27,2-.23-.11a3.35,3.35,0,0,0-1.58-.34c-1.82,0-3.24,1.93-3.24,4.38Zm-1.67-.38h1.29v-5c0-2.67,1.59-4.76,3.62-4.76a3.78,3.78,0,0,1,1.5.27l.17-1.28a2.69,2.69,0,0,0-1.34-.29,4,4,0,0,0-3.58,3l-.37-.06V39.54h-1.29Zm-39.66.38H88.83l-.06-.08-9.48-12V50.77H77.24V35.18h1.89L88.42,47V35.18h2.06ZM89,50.39H90.1V35.56H88.8V48.11L79,35.56H77.62V50.39h1.29V37.56Zm31.68-.71c-1.78,0-3-1-3-2.43,0-1.61,1.3-2.55,3.47-2.55a11.61,11.61,0,0,1,3.33.48l.14,0v1.59C124.4,48.47,122.75,49.68,120.69,49.68Zm.45-4.6c-1.93,0-3.09.79-3.09,2.13s1.37,2.09,2.64,2.09c1.86,0,3.35-1.06,3.54-2.52V45.5A11.73,11.73,0,0,0,121.14,45.08ZM99.47,49.53A4.4,4.4,0,0,1,95.14,45a4.33,4.33,0,0,1,4.29-4.57A4.43,4.43,0,0,1,103.79,45V45A4.32,4.32,0,0,1,99.47,49.53Zm0-8.75a4,4,0,0,0-3.92,4.15,4,4,0,0,0,4,4.22A4,4,0,0,0,103.41,45V45A4,4,0,0,0,99.43,40.78Zm65.21,3.75H157l0-.2c.23-2.36,1.81-4,3.83-4s3.57,1.57,3.77,4Zm-7.22-.38h6.8c-.2-1.7-1.18-3.44-3.37-3.44A3.63,3.63,0,0,0,157.42,44.15Zm-17.68-6.83a1.32,1.32,0,1,1,0-2.64h0a1.32,1.32,0,0,1,0,2.64Zm0-2.26a.94.94,0,1,0,.95.94.95.95,0,0,0-.95-.94Z" fill="#127df2"/></svg>