<?xml version="1.0" encoding="utf-8"?>
<!-- Generator: Adobe Illustrator 21.1.0, SVG Export Plug-In . SVG Version: 6.00 Build 0)  -->
<svg version="1.1" id="Layer_1" xmlns="http://www.w3.org/2000/svg" xmlns:xlink="http://www.w3.org/1999/xlink" x="0px" y="0px"
	 viewBox="0 0 186.4 82" style="enable-background:new 0 0 186.4 82;" xml:space="preserve">
<style type="text/css">
	.st0{fill:#00A0EE;}
</style>
<path class="st0" d="M102.9,25.6c-0.1-1,0.8-2,1.9-2.1c0.8,0,1.6,0,2.3,0c0,9.1,0,18.3,0,27.4c0,0.3,0,0.5-0.1,0.8
	c-1.4,0-2.8,0-4.2,0c0-0.6,0-1.2,0-1.8c-1.7,1.3-3.8,2.3-6,2.4c-3.2,0.3-6.4-0.7-8.8-2.9c-2.4-2.1-3.9-5.3-3.8-8.6
	c0-2.4,0.8-4.8,2.2-6.7c1.9-2.6,5-4.3,8.2-4.5c2.9-0.3,5.9,0.7,8.2,2.5C102.9,29.9,102.9,27.8,102.9,25.6 M94.1,34.2
	c-2.7,0.7-4.9,3.2-5.2,6c-0.3,2,0.5,4.2,1.9,5.7c1.4,1.5,3.4,2.3,5.5,2.2c2.1-0.1,4-1.2,5.3-2.8c0.9-1.2,1.4-2.7,1.4-4.2
	c0.1-2.4-1.2-4.8-3.3-6C98.1,34,96,33.6,94.1,34.2z"/>
<path class="st0" d="M175.1,23.6c1-0.2,2-0.1,2.9,0.5c1.2,0.7,2,2.1,1.9,3.5c0,1.1-0.5,2.2-1.3,2.9c-1.1,1-2.7,1.3-4.1,0.8
	c-1.6-0.6-2.6-2.2-2.5-3.9C172,25.6,173.4,23.9,175.1,23.6 M175.1,24.1c-1.8,0.4-3,2.4-2.5,4.1c0.3,1.6,2,2.9,3.7,2.7
	c1.3-0.1,2.5-1,2.9-2.2c0.5-1.2,0.2-2.8-0.8-3.7C177.6,24.2,176.3,23.8,175.1,24.1z"/>
<path class="st0" d="M174.5,25.2c0.8,0,1.6-0.1,2.3,0.1c0.9,0.2,1.2,1.4,0.7,2.1c-0.2,0.3-0.6,0.5-0.9,0.7c0.4,0.6,0.8,1.2,1.2,1.7
	c-0.3,0-0.5,0-0.8,0c-0.4-0.6-0.7-1.2-1.1-1.7c-0.3-0.1-0.6,0-0.8-0.1c0,0.6,0,1.2,0,1.8c-0.2,0-0.5,0-0.6,0
	C174.5,28.2,174.4,26.7,174.5,25.2 M175.1,25.7c0,0.6,0,1.1,0,1.7c0.6-0.1,1.5,0.2,1.9-0.4c0.4-0.5-0.1-1.2-0.7-1.3
	C175.9,25.7,175.5,25.7,175.1,25.7z"/>
<path class="st0" d="M11.2,32.1c2.2-1.8,5.1-2.7,7.9-2.5c2.9,0.2,5.8,1.6,7.7,3.8c1.6,1.8,2.6,4.1,2.8,6.5c0.3,3-0.6,6.1-2.6,8.4
	c-1.9,2.3-4.8,3.8-7.8,4c-2.9,0.3-5.9-0.7-8.1-2.5c0,2.2,0,4.4,0,6.5c0,1-0.8,1.9-1.8,2.1c-0.8,0-1.6,0-2.4,0c0-9.4,0-18.8,0-28.2
	c1.4,0,2.8,0,4.2,0C11.2,30.9,11.2,31.5,11.2,32.1 M16.7,34.1c-1.7,0.4-3.3,1.4-4.3,2.8c-1.3,1.7-1.7,4-1.1,6
	c0.5,1.9,1.9,3.6,3.7,4.5c1.6,0.8,3.6,1,5.3,0.4c2.2-0.7,4-2.6,4.6-4.9c0.8-2.6-0.2-5.6-2.3-7.3C21,34.2,18.8,33.6,16.7,34.1z"/>
<path class="st0" d="M35.6,33c2-2,4.7-3.3,7.5-3.4c2.8-0.2,5.6,0.8,7.8,2.5c0-0.6,0-1.2,0-1.8c1.4,0,2.8,0,4.2,0
	c0,7.1,0,14.3,0,21.4c-1.4,0-2.8,0-4.1,0c-0.2-0.6-0.1-1.2-0.1-1.8c-2.2,1.8-5.1,2.7-7.9,2.5c-2.8-0.2-5.5-1.5-7.4-3.5
	c-1.9-1.9-3-4.6-3.2-7.3C32.2,38.5,33.4,35.3,35.6,33 M42.5,34.1c-3.4,0.7-5.9,4.1-5.5,7.6c0.2,1.9,1.2,3.8,2.8,5
	c1.7,1.3,4.1,1.8,6.2,1.2c2.2-0.6,4.1-2.4,4.8-4.6c1-2.8-0.1-6.1-2.5-7.8C46.6,34.1,44.5,33.6,42.5,34.1z"/>
<path class="st0" d="M68.6,29.7c2.3-0.3,4.6,0.2,6.6,1.2c3.8,1.9,6.2,6.1,6.1,10.3c0,3.5,0,7,0,10.4c-1.5,0-3,0-4.6,0
	c0-3.6,0-7.2,0-10.8c0-2.6-1.6-5-4-6.1c-1.8-0.8-3.9-0.8-5.7,0c-1.9,0.9-3.3,2.6-3.8,4.6c-0.3,1.1-0.2,2.2-0.2,3.2c0,3,0,6,0,9
	c-1.5,0-3,0-4.6,0c-0.1-3.5,0-7.1,0-10.6c0-2.3,0.6-4.5,1.9-6.4C62.3,31.9,65.3,30,68.6,29.7z"/>
<path class="st0" d="M119.6,29.8c2.3-0.4,4.6-0.1,6.7,0.9c2.5,1.1,4.5,3.2,5.6,5.7c1.3,2.9,1.3,6.3,0.1,9.2c-1.1,2.7-3.4,4.9-6.1,6
	c-1.7,0.7-3.7,1-5.5,0.8c-2.8-0.2-5.5-1.6-7.4-3.7c-1.7-1.9-2.7-4.4-2.9-7c-0.2-2.9,0.8-5.8,2.6-7.9
	C114.5,31.6,116.9,30.2,119.6,29.8 M119.9,34.4c-2.7,0.6-4.9,3.1-5.2,5.9c-0.4,2.8,1.3,5.8,3.9,6.9c1.6,0.8,3.5,0.8,5.2,0.2
	c2-0.7,3.7-2.5,4.2-4.6c0.3-0.8,0.2-1.7,0.2-2.6c-0.2-2.3-1.8-4.4-3.9-5.4C123,34.2,121.4,34,119.9,34.4z"/>
<path class="st0" d="M138.3,33.3c2.3-2.6,5.9-3.6,9.3-3.7c0,1.5,0,3.1,0,4.6c-1.9,0-4,0.5-5.4,1.9c-1.3,1.2-1.8,3-1.8,4.7
	c0,3.7,0,7.3,0,11c-1.5,0-3,0-4.6,0c0-3.7,0-7.3,0-11C135.7,38.1,136.5,35.3,138.3,33.3z"/>
<path class="st0" d="M150.6,34.1c1.8-2.4,4.6-4,7.5-4.3c3.1-0.4,6.2,0.5,8.7,2.4c0-0.6,0-1.2,0-1.8c1.4,0,2.8,0,4.2,0
	c0,7.1,0,14.3,0,21.4c-1.4,0-2.8,0-4.2,0c0-0.6,0-1.2,0-1.8c-2.2,1.8-5.1,2.7-7.9,2.5c-2.3-0.1-4.5-1-6.3-2.4
	c-2.4-1.8-4-4.7-4.3-7.6C147.9,39.4,148.7,36.4,150.6,34.1 M158.4,34.1c-3,0.6-5.3,3.3-5.5,6.3c-0.2,2.2,0.7,4.5,2.4,5.9
	c1.7,1.5,4.1,2.1,6.3,1.6c1.7-0.4,3.3-1.5,4.3-3c1-1.6,1.4-3.5,1-5.3c-0.4-2-1.8-3.7-3.5-4.7C161.7,34,160,33.7,158.4,34.1z"/>
</svg>
