<svg version="1.1" viewBox="0.0 0.0 600.0 371.0" fill="none" stroke="none" stroke-linecap="square" stroke-miterlimit="10" width="600" height="371" xmlns:xlink="http://www.w3.org/1999/xlink" xmlns="http://www.w3.org/2000/svg"><path fill="#ffffff" d="M0 0L600.0 0L600.0 371.0L0 371.0L0 0Z" fill-rule="nonzero"/><path stroke="#333333" stroke-width="1.0" stroke-linecap="butt" d="M75.5 301.5L581.5 301.5" fill-rule="nonzero"/><path stroke="#cccccc" stroke-width="1.0" stroke-linecap="butt" d="M75.5 209.5L581.5 209.5" fill-rule="nonzero"/><path stroke="#cccccc" stroke-width="1.0" stroke-linecap="butt" d="M75.5 117.5L581.5 117.5" fill-rule="nonzero"/><path stroke="#cccccc" stroke-width="1.0" stroke-linecap="butt" d="M75.5 25.5L581.5 25.5" fill-rule="nonzero"/><clipPath id="id_0"><path d="M75.55 25.05L581.45 25.05L581.45 301.45L75.55 301.45L75.55 25.05Z" clip-rule="nonzero"/></clipPath><path stroke="#000000" stroke-width="2.0" stroke-linecap="butt" stroke-opacity="0.0" clip-path="url(#id_0)" d="M192.0 301.0L116.0 301.0L116.0 301.0L192.0 301.0Z" fill-rule="nonzero"/><path fill="#0e6ffa" clip-path="url(#id_0)" d="M192.0 301.0L116.0 301.0L116.0 301.0L192.0 301.0Z" fill-rule="nonzero"/><path stroke="#000000" stroke-width="2.0" stroke-linecap="butt" stroke-opacity="0.0" clip-path="url(#id_0)" d="M308.0 301.0L232.0 301.0L232.0 301.0L308.0 301.0Z" fill-rule="nonzero"/><path fill="#0e6ffa" clip-path="url(#id_0)" d="M308.0 301.0L232.0 301.0L232.0 301.0L308.0 301.0Z" fill-rule="nonzero"/><path stroke="#000000" stroke-width="2.0" stroke-linecap="butt" stroke-opacity="0.0" clip-path="url(#id_0)" d="M425.0 301.0L349.0 301.0L349.0 82.0C349.0 80.89543 349.89542 80.0 351.0 80.0L423.0 80.0C424.10458 80.0 425.0 80.89543 425.0 82.0Z" fill-rule="nonzero"/><path fill="#0e6ffa" clip-path="url(#id_0)" d="M425.0 301.0L349.0 301.0L349.0 82.0C349.0 80.89543 349.89542 80.0 351.0 80.0L423.0 80.0C424.10458 80.0 425.0 80.89543 425.0 82.0Z" fill-rule="nonzero"/><path stroke="#000000" stroke-width="2.0" stroke-linecap="butt" stroke-opacity="0.0" clip-path="url(#id_0)" d="M541.0 301.0L465.0 301.0L465.0 33.0C465.0 31.89543 465.89542 31.0 467.0 31.0L539.0 31.0C540.10455 31.0 541.0 31.89543 541.0 33.0Z" fill-rule="nonzero"/><path fill="#0e6ffa" clip-path="url(#id_0)" d="M541.0 301.0L465.0 301.0L465.0 33.0C465.0 31.89543 465.89542 31.0 467.0 31.0L539.0 31.0C540.10455 31.0 541.0 31.89543 541.0 33.0Z" fill-rule="nonzero"/><path stroke="#ffffff" stroke-width="3.0" stroke-linejoin="round" stroke-linecap="round" d="M152.32812 282.91876Q152.32812 284.6844 151.59375 285.6375Q150.85938 286.575 149.45312 286.575Q148.04688 286.575 147.3125 285.65314Q146.57812 284.73126 146.5625 283.0125L146.5625 281.4344Q146.5625 279.65314 147.29688 278.73126Q148.04688 277.79376 149.4375 277.79376Q150.82812 277.79376 151.5625 278.71564Q152.3125 279.6375 152.32812 281.35626L152.32812 282.91876ZM150.625 281.2Q150.625 280.1375 150.32812 279.65314Q150.04688 279.16876 149.4375 279.16876Q148.84375 279.16876 148.54688 279.6375Q148.26562 280.09064 148.25 281.075L148.25 283.1375Q148.25 284.1844 148.53125 284.7Q148.8125 285.2 149.45312 285.2Q150.0625 285.2 150.34375 284.71564Q150.625 284.23126 150.625 283.23126L150.625 281.2ZM153.5625 279.5594Q153.5625 278.77814 154.0625 278.29376Q154.57812 277.79376 155.40625 277.79376Q156.23438 277.79376 156.75 278.27814Q157.26562 278.7625 157.26562 279.59064L157.26562 280.0125Q157.26562 280.79376 156.75 281.27814Q156.23438 281.7625 155.42188 281.7625Q154.57812 281.7625 154.0625 281.27814Q153.5625 280.79376 153.5625 279.98126L153.5625 279.5594ZM154.6875 280.0125Q154.6875 280.35626 154.89062 280.575Q155.09375 280.79376 155.42188 280.79376Q155.75 280.79376 155.9375 280.575Q156.125 280.35626 156.125 279.9969L156.125 279.5594Q156.125 279.2 155.9375 278.9969Q155.75 278.77814 155.40625 278.77814Q155.07812 278.77814 154.875 278.9969Q154.6875 279.2 154.6875 279.575L154.6875 280.0125ZM157.64062 284.35626Q157.64062 283.5594 158.15625 283.09064Q158.67188 282.60626 159.48438 282.60626Q160.3125 282.60626 160.82812 283.09064Q161.34375 283.5594 161.34375 284.3875L161.34375 284.8094Q161.34375 285.60626 160.84375 286.09064Q160.34375 286.575 159.5 286.575Q158.65625 286.575 158.14062 286.09064Q157.64062 285.59064 157.64062 284.79376L157.64062 284.35626ZM158.76562 284.8094Q158.76562 285.1375 158.96875 285.3719Q159.1875 285.59064 159.5 285.59064Q160.21875 285.59064 160.21875 284.8094L160.21875 284.35626Q160.21875 284.0125 160.01562 283.79376Q159.8125 283.575 159.48438 283.575Q159.15625 283.575 158.95312 283.79376Q158.76562 284.0125 158.76562 284.3719L158.76562 284.8094ZM155.75 285.8094L154.92188 285.3719L159.09375 278.7L159.92188 279.1375L155.75 285.8094Z" fill-rule="nonzero"/><path fill="#211551" d="M152.32812 282.91876Q152.32812 284.6844 151.59375 285.6375Q150.85938 286.575 149.45312 286.575Q148.04688 286.575 147.3125 285.65314Q146.57812 284.73126 146.5625 283.0125L146.5625 281.4344Q146.5625 279.65314 147.29688 278.73126Q148.04688 277.79376 149.4375 277.79376Q150.82812 277.79376 151.5625 278.71564Q152.3125 279.6375 152.32812 281.35626L152.32812 282.91876ZM150.625 281.2Q150.625 280.1375 150.32812 279.65314Q150.04688 279.16876 149.4375 279.16876Q148.84375 279.16876 148.54688 279.6375Q148.26562 280.09064 148.25 281.075L148.25 283.1375Q148.25 284.1844 148.53125 284.7Q148.8125 285.2 149.45312 285.2Q150.0625 285.2 150.34375 284.71564Q150.625 284.23126 150.625 283.23126L150.625 281.2ZM153.5625 279.5594Q153.5625 278.77814 154.0625 278.29376Q154.57812 277.79376 155.40625 277.79376Q156.23438 277.79376 156.75 278.27814Q157.26562 278.7625 157.26562 279.59064L157.26562 280.0125Q157.26562 280.79376 156.75 281.27814Q156.23438 281.7625 155.42188 281.7625Q154.57812 281.7625 154.0625 281.27814Q153.5625 280.79376 153.5625 279.98126L153.5625 279.5594ZM154.6875 280.0125Q154.6875 280.35626 154.89062 280.575Q155.09375 280.79376 155.42188 280.79376Q155.75 280.79376 155.9375 280.575Q156.125 280.35626 156.125 279.9969L156.125 279.5594Q156.125 279.2 155.9375 278.9969Q155.75 278.77814 155.40625 278.77814Q155.07812 278.77814 154.875 278.9969Q154.6875 279.2 154.6875 279.575L154.6875 280.0125ZM157.64062 284.35626Q157.64062 283.5594 158.15625 283.09064Q158.67188 282.60626 159.48438 282.60626Q160.3125 282.60626 160.82812 283.09064Q161.34375 283.5594 161.34375 284.3875L161.34375 284.8094Q161.34375 285.60626 160.84375 286.09064Q160.34375 286.575 159.5 286.575Q158.65625 286.575 158.14062 286.09064Q157.64062 285.59064 157.64062 284.79376L157.64062 284.35626ZM158.76562 284.8094Q158.76562 285.1375 158.96875 285.3719Q159.1875 285.59064 159.5 285.59064Q160.21875 285.59064 160.21875 284.8094L160.21875 284.35626Q160.21875 284.0125 160.01562 283.79376Q159.8125 283.575 159.48438 283.575Q159.15625 283.575 158.95312 283.79376Q158.76562 284.0125 158.76562 284.3719L158.76562 284.8094ZM155.75 285.8094L154.92188 285.3719L159.09375 278.7L159.92188 279.1375L155.75 285.8094Z" fill-rule="nonzero"/><path stroke="#ffffff" stroke-width="3.0" stroke-linejoin="round" stroke-linecap="round" d="M268.32812 282.91876Q268.32812 284.6844 267.59375 285.6375Q266.85938 286.575 265.45312 286.575Q264.04688 286.575 263.3125 285.65314Q262.57812 284.73126 262.5625 283.0125L262.5625 281.4344Q262.5625 279.65314 263.29688 278.73126Q264.04688 277.79376 265.4375 277.79376Q266.82812 277.79376 267.5625 278.71564Q268.3125 279.6375 268.32812 281.35626L268.32812 282.91876ZM266.625 281.2Q266.625 280.1375 266.32812 279.65314Q266.04688 279.16876 265.4375 279.16876Q264.84375 279.16876 264.54688 279.6375Q264.26562 280.09064 264.25 281.075L264.25 283.1375Q264.25 284.1844 264.53125 284.7Q264.8125 285.2 265.45312 285.2Q266.0625 285.2 266.34375 284.71564Q266.625 284.23126 266.625 283.23126L266.625 281.2ZM269.5625 279.5594Q269.5625 278.77814 270.0625 278.29376Q270.57812 277.79376 271.40625 277.79376Q272.23438 277.79376 272.75 278.27814Q273.26562 278.7625 273.26562 279.59064L273.26562 280.0125Q273.26562 280.79376 272.75 281.27814Q272.23438 281.7625 271.42188 281.7625Q270.57812 281.7625 270.0625 281.27814Q269.5625 280.79376 269.5625 279.98126L269.5625 279.5594ZM270.6875 280.0125Q270.6875 280.35626 270.89062 280.575Q271.09375 280.79376 271.42188 280.79376Q271.75 280.79376 271.9375 280.575Q272.125 280.35626 272.125 279.9969L272.125 279.5594Q272.125 279.2 271.9375 278.9969Q271.75 278.77814 271.40625 278.77814Q271.07812 278.77814 270.875 278.9969Q270.6875 279.2 270.6875 279.575L270.6875 280.0125ZM273.64062 284.35626Q273.64062 283.5594 274.15625 283.09064Q274.67188 282.60626 275.48438 282.60626Q276.3125 282.60626 276.82812 283.09064Q277.34375 283.5594 277.34375 284.3875L277.34375 284.8094Q277.34375 285.60626 276.84375 286.09064Q276.34375 286.575 275.5 286.575Q274.65625 286.575 274.14062 286.09064Q273.64062 285.59064 273.64062 284.79376L273.64062 284.35626ZM274.76562 284.8094Q274.76562 285.1375 274.96875 285.3719Q275.1875 285.59064 275.5 285.59064Q276.21875 285.59064 276.21875 284.8094L276.21875 284.35626Q276.21875 284.0125 276.01562 283.79376Q275.8125 283.575 275.48438 283.575Q275.15625 283.575 274.95312 283.79376Q274.76562 284.0125 274.76562 284.3719L274.76562 284.8094ZM271.75 285.8094L270.92188 285.3719L275.09375 278.7L275.92188 279.1375L271.75 285.8094Z" fill-rule="nonzero"/><path fill="#211551" d="M268.32812 282.91876Q268.32812 284.6844 267.59375 285.6375Q266.85938 286.575 265.45312 286.575Q264.04688 286.575 263.3125 285.65314Q262.57812 284.73126 262.5625 283.0125L262.5625 281.4344Q262.5625 279.65314 263.29688 278.73126Q264.04688 277.79376 265.4375 277.79376Q266.82812 277.79376 267.5625 278.71564Q268.3125 279.6375 268.32812 281.35626L268.32812 282.91876ZM266.625 281.2Q266.625 280.1375 266.32812 279.65314Q266.04688 279.16876 265.4375 279.16876Q264.84375 279.16876 264.54688 279.6375Q264.26562 280.09064 264.25 281.075L264.25 283.1375Q264.25 284.1844 264.53125 284.7Q264.8125 285.2 265.45312 285.2Q266.0625 285.2 266.34375 284.71564Q266.625 284.23126 266.625 283.23126L266.625 281.2ZM269.5625 279.5594Q269.5625 278.77814 270.0625 278.29376Q270.57812 277.79376 271.40625 277.79376Q272.23438 277.79376 272.75 278.27814Q273.26562 278.7625 273.26562 279.59064L273.26562 280.0125Q273.26562 280.79376 272.75 281.27814Q272.23438 281.7625 271.42188 281.7625Q270.57812 281.7625 270.0625 281.27814Q269.5625 280.79376 269.5625 279.98126L269.5625 279.5594ZM270.6875 280.0125Q270.6875 280.35626 270.89062 280.575Q271.09375 280.79376 271.42188 280.79376Q271.75 280.79376 271.9375 280.575Q272.125 280.35626 272.125 279.9969L272.125 279.5594Q272.125 279.2 271.9375 278.9969Q271.75 278.77814 271.40625 278.77814Q271.07812 278.77814 270.875 278.9969Q270.6875 279.2 270.6875 279.575L270.6875 280.0125ZM273.64062 284.35626Q273.64062 283.5594 274.15625 283.09064Q274.67188 282.60626 275.48438 282.60626Q276.3125 282.60626 276.82812 283.09064Q277.34375 283.5594 277.34375 284.3875L277.34375 284.8094Q277.34375 285.60626 276.84375 286.09064Q276.34375 286.575 275.5 286.575Q274.65625 286.575 274.14062 286.09064Q273.64062 285.59064 273.64062 284.79376L273.64062 284.35626ZM274.76562 284.8094Q274.76562 285.1375 274.96875 285.3719Q275.1875 285.59064 275.5 285.59064Q276.21875 285.59064 276.21875 284.8094L276.21875 284.35626Q276.21875 284.0125 276.01562 283.79376Q275.8125 283.575 275.48438 283.575Q275.15625 283.575 274.95312 283.79376Q274.76562 284.0125 274.76562 284.3719L274.76562 284.8094ZM271.75 285.8094L270.92188 285.3719L275.09375 278.7L275.92188 279.1375L271.75 285.8094Z" fill-rule="nonzero"/><path stroke="#ffffff" stroke-width="3.0" stroke-linejoin="round" stroke-linecap="round" d="M380.1875 65.33L378.5 65.33L378.5 58.79875L376.48438 59.42375L376.48438 58.04875L380.01562 56.783127L380.1875 56.783127L380.1875 65.33ZM388.92188 65.33L383.07812 65.33L383.07812 64.17375L385.84375 61.220627Q386.40625 60.61125 386.67188 60.1425Q386.95312 59.67375 386.95312 59.2675Q386.95312 58.689377 386.65625 58.376877Q386.375 58.04875 385.84375 58.04875Q385.26562 58.04875 384.9375 58.439377Q384.60938 58.83 384.60938 59.48625L382.90625 59.48625Q382.90625 58.705 383.28125 58.064377Q383.65625 57.408127 384.32812 57.04875Q385.01562 56.67375 385.875 56.67375Q387.1875 56.67375 387.92188 57.314377Q388.65625 57.939377 388.65625 59.095627Q388.65625 59.73625 388.32812 60.3925Q388.0 61.04875 387.20312 61.92375L385.26562 63.970627L388.92188 63.970627L388.92188 65.33ZM390.0625 58.439377Q390.0625 57.658127 390.5625 57.17375Q391.07812 56.67375 391.90625 56.67375Q392.73438 56.67375 393.25 57.158127Q393.76562 57.6425 393.76562 58.470627L393.76562 58.8925Q393.76562 59.67375 393.25 60.158127Q392.73438 60.6425 391.92188 60.6425Q391.07812 60.6425 390.5625 60.158127Q390.0625 59.67375 390.0625 58.86125L390.0625 58.439377ZM391.1875 58.8925Q391.1875 59.23625 391.39062 59.455Q391.59375 59.67375 391.92188 59.67375Q392.25 59.67375 392.4375 59.455Q392.625 59.23625 392.625 58.876877L392.625 58.439377Q392.625 58.08 392.4375 57.876877Q392.25 57.658127 391.90625 57.658127Q391.57812 57.658127 391.375 57.876877Q391.1875 58.08 391.1875 58.455L391.1875 58.8925ZM394.14062 63.23625Q394.14062 62.439377 394.65625 61.970627Q395.17188 61.48625 395.98438 61.48625Q396.8125 61.48625 397.32812 61.970627Q397.84375 62.439377 397.84375 63.2675L397.84375 63.689377Q397.84375 64.48625 397.34375 64.97063Q396.84375 65.455 396.0 65.455Q395.15625 65.455 394.64062 64.97063Q394.14062 64.47063 394.14062 63.67375L394.14062 63.23625ZM395.26562 63.689377Q395.26562 64.0175 395.46875 64.25188Q395.6875 64.47063 396.0 64.47063Q396.71875 64.47063 396.71875 63.689377L396.71875 63.23625Q396.71875 62.8925 396.51562 62.67375Q396.3125 62.455 395.98438 62.455Q395.65625 62.455 395.45312 62.67375Q395.26562 62.8925 395.26562 63.251877L395.26562 63.689377ZM392.25 64.68938L391.42188 64.25188L395.59375 57.58L396.42188 58.0175L392.25 64.68938Z" fill-rule="nonzero"/><path fill="#211551" d="M380.1875 65.33L378.5 65.33L378.5 58.79875L376.48438 59.42375L376.48438 58.04875L380.01562 56.783127L380.1875 56.783127L380.1875 65.33ZM388.92188 65.33L383.07812 65.33L383.07812 64.17375L385.84375 61.220627Q386.40625 60.61125 386.67188 60.1425Q386.95312 59.67375 386.95312 59.2675Q386.95312 58.689377 386.65625 58.376877Q386.375 58.04875 385.84375 58.04875Q385.26562 58.04875 384.9375 58.439377Q384.60938 58.83 384.60938 59.48625L382.90625 59.48625Q382.90625 58.705 383.28125 58.064377Q383.65625 57.408127 384.32812 57.04875Q385.01562 56.67375 385.875 56.67375Q387.1875 56.67375 387.92188 57.314377Q388.65625 57.939377 388.65625 59.095627Q388.65625 59.73625 388.32812 60.3925Q388.0 61.04875 387.20312 61.92375L385.26562 63.970627L388.92188 63.970627L388.92188 65.33ZM390.0625 58.439377Q390.0625 57.658127 390.5625 57.17375Q391.07812 56.67375 391.90625 56.67375Q392.73438 56.67375 393.25 57.158127Q393.76562 57.6425 393.76562 58.470627L393.76562 58.8925Q393.76562 59.67375 393.25 60.158127Q392.73438 60.6425 391.92188 60.6425Q391.07812 60.6425 390.5625 60.158127Q390.0625 59.67375 390.0625 58.86125L390.0625 58.439377ZM391.1875 58.8925Q391.1875 59.23625 391.39062 59.455Q391.59375 59.67375 391.92188 59.67375Q392.25 59.67375 392.4375 59.455Q392.625 59.23625 392.625 58.876877L392.625 58.439377Q392.625 58.08 392.4375 57.876877Q392.25 57.658127 391.90625 57.658127Q391.57812 57.658127 391.375 57.876877Q391.1875 58.08 391.1875 58.455L391.1875 58.8925ZM394.14062 63.23625Q394.14062 62.439377 394.65625 61.970627Q395.17188 61.48625 395.98438 61.48625Q396.8125 61.48625 397.32812 61.970627Q397.84375 62.439377 397.84375 63.2675L397.84375 63.689377Q397.84375 64.48625 397.34375 64.97063Q396.84375 65.455 396.0 65.455Q395.15625 65.455 394.64062 64.97063Q394.14062 64.47063 394.14062 63.67375L394.14062 63.23625ZM395.26562 63.689377Q395.26562 64.0175 395.46875 64.25188Q395.6875 64.47063 396.0 64.47063Q396.71875 64.47063 396.71875 63.689377L396.71875 63.23625Q396.71875 62.8925 396.51562 62.67375Q396.3125 62.455 395.98438 62.455Q395.65625 62.455 395.45312 62.67375Q395.26562 62.8925 395.26562 63.251877L395.26562 63.689377ZM392.25 64.68938L391.42188 64.25188L395.59375 57.58L396.42188 58.0175L392.25 64.68938Z" fill-rule="nonzero"/><path stroke="#ffffff" stroke-width="3.0" stroke-linejoin="round" stroke-linecap="round" d="M496.1875 16.1308L494.5 16.1308L494.5 9.59955L492.48438 10.22455L492.48438 8.84955L496.01562 7.583925L496.1875 7.583925L496.1875 16.1308ZM499.32812 11.927675L499.82812 7.59955L504.60938 7.59955L504.60938 9.0058L501.21875 9.0058L501.0 10.84955Q501.60938 10.521425 502.28125 10.521425Q503.5 10.521425 504.1875 11.28705Q504.89062 12.03705 504.89062 13.396425Q504.89062 14.22455 504.53125 14.8808Q504.1875 15.521425 503.53125 15.896425Q502.89062 16.2558 502.0 16.2558Q501.23438 16.2558 500.5625 15.9433Q499.90625 15.615175 499.51562 15.052675Q499.14062 14.490175 499.10938 13.7558L500.79688 13.7558Q500.84375 14.28705 501.15625 14.583925Q501.48438 14.8808 502.0 14.8808Q502.57812 14.8808 502.875 14.47455Q503.1875 14.052675 503.1875 13.302675Q503.1875 12.5683 502.82812 12.1933Q502.48438 11.802675 501.82812 11.802675Q501.21875 11.802675 500.84375 12.115175L500.6875 12.271425L499.32812 11.927675ZM506.0625 9.240175Q506.0625 8.458925 506.5625 7.97455Q507.07812 7.47455 507.90625 7.47455Q508.73438 7.47455 509.25 7.958925Q509.76562 8.4433 509.76562 9.271425L509.76562 9.6933Q509.76562 10.47455 509.25 10.958925Q508.73438 11.4433 507.92188 11.4433Q507.07812 11.4433 506.5625 10.958925Q506.0625 10.47455 506.0625 9.66205L506.0625 9.240175ZM507.1875 9.6933Q507.1875 10.03705 507.39062 10.2558Q507.59375 10.47455 507.92188 10.47455Q508.25 10.47455 508.4375 10.2558Q508.625 10.03705 508.625 9.677675L508.625 9.240175Q508.625 8.8808 508.4375 8.677675Q508.25 8.458925 507.90625 8.458925Q507.57812 8.458925 507.375 8.677675Q507.1875 8.8808 507.1875 9.2558L507.1875 9.6933ZM510.14062 14.03705Q510.14062 13.240175 510.65625 12.771425Q511.17188 12.28705 511.98438 12.28705Q512.8125 12.28705 513.3281 12.771425Q513.84375 13.240175 513.84375 14.0683L513.84375 14.490175Q513.84375 15.28705 513.34375 15.771425Q512.84375 16.2558 512.0 16.2558Q511.15625 16.2558 510.64062 15.771425Q510.14062 15.271425 510.14062 14.47455L510.14062 14.03705ZM511.26562 14.490175Q511.26562 14.8183 511.46875 15.052675Q511.6875 15.271425 512.0 15.271425Q512.71875 15.271425 512.71875 14.490175L512.71875 14.03705Q512.71875 13.6933 512.5156 13.47455Q512.3125 13.2558 511.98438 13.2558Q511.65625 13.2558 511.45312 13.47455Q511.26562 13.6933 511.26562 14.052675L511.26562 14.490175ZM508.25 15.490175L507.42188 15.052675L511.59375 8.3808L512.4219 8.8183L508.25 15.490175Z" fill-rule="nonzero"/><path fill="#211551" d="M496.1875 16.1308L494.5 16.1308L494.5 9.59955L492.48438 10.22455L492.48438 8.84955L496.01562 7.5839252L496.1875 7.5839252L496.1875 16.1308ZM499.32812 11.927675L499.82812 7.5995502L504.60938 7.5995502L504.60938 9.0058L501.21875 9.0058L501.0 10.84955Q501.60938 10.521425 502.28125 10.521425Q503.5 10.521425 504.1875 11.28705Q504.89062 12.03705 504.89062 13.396425Q504.89062 14.22455 504.53125 14.8808Q504.1875 15.521425 503.53125 15.896425Q502.89062 16.2558 502.0 16.2558Q501.23438 16.2558 500.5625 15.9433Q499.90625 15.615175 499.51562 15.052675Q499.14062 14.490175 499.10938 13.7558L500.79688 13.7558Q500.84375 14.28705 501.15625 14.583925Q501.48438 14.8808 502.0 14.8808Q502.57812 14.8808 502.875 14.47455Q503.1875 14.052675 503.1875 13.302675Q503.1875 12.5683 502.82812 12.1933Q502.48438 11.802675 501.82812 11.802675Q501.21875 11.802675 500.84375 12.115175L500.6875 12.271425L499.32812 11.927675ZM506.0625 9.240175Q506.0625 8.458925 506.5625 7.9745502Q507.07812 7.4745502 507.90625 7.4745502Q508.73438 7.4745502 509.25 7.9589252Q509.76562 8.4433 509.76562 9.271425L509.76562 9.6933Q509.76562 10.47455 509.25 10.958925Q508.73438 11.4433 507.92188 11.4433Q507.07812 11.4433 506.5625 10.958925Q506.0625 10.47455 506.0625 9.66205L506.0625 9.240175ZM507.1875 9.6933Q507.1875 10.03705 507.39062 10.2558Q507.59375 10.47455 507.92188 10.47455Q508.25 10.47455 508.4375 10.2558Q508.625 10.03705 508.625 9.677675L508.625 9.240175Q508.625 8.8808 508.4375 8.677675Q508.25 8.458925 507.90625 8.458925Q507.57812 8.458925 507.375 8.677675Q507.1875 8.8808 507.1875 9.2558L507.1875 9.6933ZM510.14062 14.03705Q510.14062 13.240175 510.65625 12.771425Q511.17188 12.28705 511.98438 12.28705Q512.8125 12.28705 513.3281 12.771425Q513.84375 13.240175 513.84375 14.0683L513.84375 14.490175Q513.84375 15.28705 513.34375 15.771425Q512.84375 16.2558 512.0 16.2558Q511.15625 16.2558 510.64062 15.771425Q510.14062 15.271425 510.14062 14.47455L510.14062 14.03705ZM511.26562 14.490175Q511.26562 14.8183 511.46875 15.052675Q511.6875 15.271425 512.0 15.271425Q512.71875 15.271425 512.71875 14.490175L512.71875 14.03705Q512.71875 13.6933 512.5156 13.47455Q512.3125 13.2558 511.98438 13.2558Q511.65625 13.2558 511.45312 13.47455Q511.26562 13.6933 511.26562 14.052675L511.26562 14.490175ZM508.25 15.490175L507.42188 15.052675L511.59375 8.3808L512.4219 8.8183L508.25 15.490175Z" fill-rule="nonzero"/><path fill="#211551" d="M303.26562 345.3719Q303.26562 346.575 302.875 347.46564Q302.48438 348.34064 301.79688 348.8719L303.21875 349.98126L302.09375 350.98126L300.28125 349.5125Q299.96875 349.575 299.64062 349.575Q298.57812 349.575 297.73438 349.0594Q296.90625 348.54376 296.45312 347.60626Q296.0 346.65314 296.0 345.41876L296.0 344.9969Q296.0 343.7469 296.45312 342.79376Q296.90625 341.825 297.73438 341.3094Q298.5625 340.79376 299.625 340.79376Q300.6875 340.79376 301.51562 341.3094Q302.34375 341.825 302.79688 342.79376Q303.26562 343.7469 303.26562 344.9969L303.26562 345.3719ZM301.48438 344.9969Q301.48438 343.65314 301.0 342.95Q300.51562 342.2469 299.625 342.2469Q298.73438 342.2469 298.25 342.95Q297.78125 343.6375 297.78125 344.96564L297.78125 345.3719Q297.78125 346.6844 298.25 347.40314Q298.73438 348.1219 299.64062 348.1219Q300.51562 348.1219 300.98438 347.4344Q301.46875 346.73126 301.48438 345.40314L301.48438 344.9969ZM307.95312 348.8094Q307.32812 349.575 306.21875 349.575Q305.1875 349.575 304.65625 348.98126Q304.125 348.3875 304.10938 347.2625L304.10938 343.10626L305.79688 343.10626L305.79688 347.2Q305.79688 348.2 306.70312 348.2Q307.5625 348.2 307.89062 347.59064L307.89062 343.10626L309.59375 343.10626L309.59375 349.45L308.0 349.45L307.95312 348.8094ZM314.82812 349.45Q314.70312 349.21564 314.65625 348.8875Q314.04688 349.575 313.0625 349.575Q312.125 349.575 311.51562 349.02814Q310.90625 348.48126 310.90625 347.66876Q310.90625 346.65314 311.64062 346.1219Q312.39062 345.575 313.8125 345.575L314.57812 345.575L314.57812 345.21564Q314.57812 344.77814 314.35938 344.5125Q314.14062 344.2469 313.64062 344.2469Q313.21875 344.2469 312.96875 344.45Q312.73438 344.65314 312.73438 345.0125L311.04688 345.0125Q311.04688 344.46564 311.375 343.9969Q311.71875 343.52814 312.34375 343.2625Q312.96875 342.9969 313.73438 342.9969Q314.90625 342.9969 315.59375 343.59064Q316.28125 344.16876 316.28125 345.23126L316.28125 347.98126Q316.29688 348.8875 316.53125 349.35626L316.53125 349.45L314.82812 349.45ZM313.42188 348.27814Q313.79688 348.27814 314.10938 348.10626Q314.4375 347.9344 314.57812 347.65314L314.57812 346.5594L313.95312 346.5594Q312.6875 346.5594 312.59375 347.45L312.59375 347.54376Q312.59375 347.85626 312.8125 348.075Q313.03125 348.27814 313.42188 348.27814ZM320.71875 344.7Q320.375 344.65314 320.10938 344.65314Q319.14062 344.65314 318.84375 345.29376L318.84375 349.45L317.15625 349.45L317.15625 343.10626L318.75 343.10626L318.79688 343.8719Q319.3125 342.9969 320.20312 342.9969Q320.48438 342.9969 320.73438 343.075L320.71875 344.7ZM323.17188 341.54376L323.17188 343.10626L324.26562 343.10626L324.26562 344.35626L323.17188 344.35626L323.17188 347.5125Q323.17188 347.8719 323.3125 348.02814Q323.45312 348.16876 323.82812 348.16876Q324.10938 348.16876 324.32812 348.1375L324.32812 349.41876Q323.82812 349.575 323.29688 349.575Q321.51562 349.575 321.48438 347.7625L321.48438 344.35626L320.5625 344.35626L320.5625 343.10626L321.48438 343.10626L321.48438 341.54376L323.17188 341.54376ZM328.0625 349.575Q326.67188 349.575 325.79688 348.71564Q324.92188 347.85626 324.92188 346.4344L324.92188 346.2625Q324.92188 345.3094 325.28125 344.5594Q325.65625 343.8094 326.32812 343.40314Q327.01562 342.9969 327.875 342.9969Q329.1875 342.9969 329.92188 343.825Q330.67188 344.6375 330.67188 346.1375L330.67188 346.825L326.64062 346.825Q326.71875 347.45 327.125 347.825Q327.54688 348.2 328.1875 348.2Q329.15625 348.2 329.70312 347.4969L330.54688 348.41876Q330.15625 348.96564 329.5 349.27814Q328.85938 349.575 328.0625 349.575ZM327.875 344.35626Q327.375 344.35626 327.0625 344.7Q326.75 345.04376 326.65625 345.66876L329.01562 345.66876L329.01562 345.54376Q329.0 344.98126 328.70312 344.66876Q328.42188 344.35626 327.875 344.35626ZM334.71875 344.7Q334.375 344.65314 334.10938 344.65314Q333.14062 344.65314 332.84375 345.29376L332.84375 349.45L331.15625 349.45L331.15625 343.10626L332.75 343.10626L332.79688 343.8719Q333.3125 342.9969 334.20312 342.9969Q334.48438 342.9969 334.73438 343.075L334.71875 344.7ZM335.6875 350.1844L334.42188 350.1844L337.5625 340.91876L338.82812 340.91876L335.6875 350.1844ZM342.20312 344.7625L343.98438 340.91876L345.90625 340.91876L343.09375 346.35626L343.09375 349.45L341.3125 349.45L341.3125 346.35626L338.51562 340.91876L340.4375 340.91876L342.20312 344.7625ZM349.0625 349.575Q347.67188 349.575 346.79688 348.71564Q345.92188 347.85626 345.92188 346.4344L345.92188 346.2625Q345.92188 345.3094 346.28125 344.5594Q346.65625 343.8094 347.32812 343.40314Q348.01562 342.9969 348.875 342.9969Q350.1875 342.9969 350.92188 343.825Q351.67188 344.6375 351.67188 346.1375L351.67188 346.825L347.64062 346.825Q347.71875 347.45 348.125 347.825Q348.54688 348.2 349.1875 348.2Q350.15625 348.2 350.70312 347.4969L351.54688 348.41876Q351.15625 348.96564 350.5 349.27814Q349.85938 349.575 349.0625 349.575ZM348.875 344.35626Q348.375 344.35626 348.0625 344.7Q347.75 345.04376 347.65625 345.66876L350.01562 345.66876L350.01562 345.54376Q350.0 344.98126 349.70312 344.66876Q349.42188 344.35626 348.875 344.35626ZM355.82812 349.45Q355.70312 349.21564 355.65625 348.8875Q355.04688 349.575 354.0625 349.575Q353.125 349.575 352.51562 349.02814Q351.90625 348.48126 351.90625 347.66876Q351.90625 346.65314 352.64062 346.1219Q353.39062 345.575 354.8125 345.575L355.57812 345.575L355.57812 345.21564Q355.57812 344.77814 355.35938 344.5125Q355.14062 344.2469 354.64062 344.2469Q354.21875 344.2469 353.96875 344.45Q353.73438 344.65314 353.73438 345.0125L352.04688 345.0125Q352.04688 344.46564 352.375 343.9969Q352.71875 343.52814 353.34375 343.2625Q353.96875 342.9969 354.73438 342.9969Q355.90625 342.9969 356.59375 343.59064Q357.28125 344.16876 357.28125 345.23126L357.28125 347.98126Q357.29688 348.8875 357.53125 349.35626L357.53125 349.45L355.82812 349.45ZM354.42188 348.27814Q354.79688 348.27814 355.10938 348.10626Q355.4375 347.9344 355.57812 347.65314L355.57812 346.5594L354.95312 346.5594Q353.6875 346.5594 353.59375 347.45L353.59375 347.54376Q353.59375 347.85626 353.8125 348.075Q354.03125 348.27814 354.42188 348.27814ZM361.71875 344.7Q361.375 344.65314 361.10938 344.65314Q360.14062 344.65314 359.84375 345.29376L359.84375 349.45L358.15625 349.45L358.15625 343.10626L359.75 343.10626L359.79688 343.8719Q360.3125 342.9969 361.20312 342.9969Q361.48438 342.9969 361.73438 343.075L361.71875 344.7Z" fill-rule="nonzero"/><path fill="#211551" d="M27.425013 208.07812L27.425013 209.48438L30.550013 209.48438L30.550013 211.23438L22.018763 211.23438L22.018763 208.0625Q22.018763 206.5625 22.690638 205.75Q23.362513 204.92188 24.596888 204.92188Q25.471888 204.92188 26.050013 205.29688Q26.628138 205.67188 26.987513 206.4375L30.471888 204.59375L30.550013 204.59375L30.550013 206.48438L27.425013 208.07812ZM26.003138 209.48438L26.003138 208.0625Q26.003138 207.40625 25.675013 207.04688Q25.331263 206.67188 24.737513 206.67188Q24.128138 206.67188 23.784388 207.01562Q23.440638 207.35938 23.440638 208.0625L23.440638 209.48438L26.003138 209.48438ZM30.550013 201.5625L30.550013 203.26562L24.206263 203.26562L24.206263 201.5625L30.550013 201.5625ZM22.565638 203.35938Q22.190638 203.35938 21.940638 203.10938Q21.690638 202.84375 21.690638 202.40625Q21.690638 201.98438 21.940638 201.73438Q22.190638 201.46875 22.565638 201.46875Q22.956263 201.46875 23.206263 201.73438Q23.440638 201.98438 23.440638 202.42188Q23.440638 202.84375 23.206263 203.10938Q22.956263 203.35938 22.565638 203.35938ZM28.800013 196.92188Q28.487513 196.92188 28.315638 197.23438Q28.128138 197.53125 27.987513 198.20312Q27.518763 200.46875 26.065638 200.46875Q25.221888 200.46875 24.659388 199.78125Q24.096888 199.07812 24.096888 197.9375Q24.096888 196.73438 24.659388 196.01562Q25.221888 195.28125 26.143763 195.28125L26.143763 196.98438Q25.768763 196.98438 25.534388 197.21875Q25.300013 197.45312 25.300013 197.95312Q25.300013 198.375 25.503138 198.60938Q25.690638 198.84375 25.987513 198.84375Q26.268763 198.84375 26.440638 198.57812Q26.612513 198.3125 26.737513 197.6875Q26.862513 197.04688 27.018763 196.60938Q27.518763 195.26562 28.721888 195.26562Q29.596888 195.26562 30.143763 196.01562Q30.675013 196.75 30.675013 197.9375Q30.675013 198.73438 30.393763 199.35938Q30.096888 199.96875 29.612513 200.32812Q29.112513 200.67188 28.534388 200.67188L28.534388 199.0625Q28.987513 199.04688 29.237513 198.73438Q29.471888 198.42188 29.471888 197.90625Q29.471888 197.40625 29.284388 197.17188Q29.096888 196.92188 28.800013 196.92188ZM28.003138 192.04688L28.612513 192.65625L30.550013 192.65625L30.550013 194.34375L21.550013 194.34375L21.550013 192.65625L26.534388 192.65625L26.112513 192.32812L24.206263 190.70312L24.206263 188.67188L26.846888 190.96875L30.550013 188.46875L30.550013 190.42188L28.003138 192.04688ZM27.550013 183.48438L30.550013 183.48438L30.550013 185.23438L22.018763 185.23438L22.018763 181.90625Q22.018763 180.95312 22.378138 180.21875Q22.721888 179.48438 23.378138 179.09375Q24.018763 178.70312 24.846888 178.70312Q26.096888 178.70312 26.831263 179.5625Q27.550013 180.42188 27.550013 181.9375L27.550013 183.48438ZM26.112513 183.48438L26.112513 181.90625Q26.112513 181.21875 25.784388 180.85938Q25.456263 180.48438 24.846888 180.48438Q24.221888 180.48438 23.846888 180.85938Q23.456263 181.21875 23.440638 181.875L23.440638 183.48438L26.112513 183.48438ZM30.675013 174.4375Q30.675013 175.82812 29.815638 176.70312Q28.956263 177.57812 27.534388 177.57812L27.362513 177.57812Q26.409388 177.57812 25.659388 177.21875Q24.909388 176.84375 24.503138 176.17188Q24.096888 175.48438 24.096888 174.625Q24.096888 173.3125 24.925013 172.57812Q25.737513 171.82812 27.237513 171.82812L27.925013 171.82812L27.925013 175.85938Q28.550013 175.78125 28.925013 175.375Q29.300013 174.95312 29.300013 174.3125Q29.300013 173.34375 28.596888 172.79688L29.518763 171.95312Q30.065638 172.34375 30.378138 173.0Q30.675013 173.64062 30.675013 174.4375ZM25.456263 174.625Q25.456263 175.125 25.800013 175.4375Q26.143763 175.75 26.768763 175.84375L26.768763 173.48438L26.643763 173.48438Q26.081263 173.5 25.768763 173.79688Q25.456263 174.07812 25.456263 174.625ZM25.800013 167.78125Q25.753138 168.125 25.753138 168.39062Q25.753138 169.35938 26.393763 169.65625L30.550013 169.65625L30.550013 171.34375L24.206263 171.34375L24.206263 169.75L24.971888 169.70312Q24.096888 169.1875 24.096888 168.29688Q24.096888 168.01562 24.175013 167.76562L25.800013 167.78125ZM29.300013 164.71875Q29.300013 164.25 29.050013 163.95312Q28.784388 163.65625 28.362513 163.64062L28.362513 162.0625Q29.003138 162.0625 29.550013 162.40625Q30.081263 162.75 30.378138 163.35938Q30.675013 163.95312 30.675013 164.6875Q30.675013 166.04688 29.815638 166.82812Q28.940638 167.60938 27.409388 167.60938L27.300013 167.60938Q25.831263 167.60938 24.971888 166.82812Q24.096888 166.04688 24.096888 164.6875Q24.096888 163.5 24.768763 162.78125Q25.440638 162.0625 26.565638 162.0625L26.565638 163.64062Q26.081263 163.65625 25.768763 163.95312Q25.456263 164.25 25.456263 164.71875Q25.456263 165.3125 25.893763 165.625Q26.331263 165.92188 27.284388 165.92188L27.471888 165.92188Q28.440638 165.92188 28.878138 165.625Q29.300013 165.32812 29.300013 164.71875ZM30.675013 158.4375Q30.675013 159.82812 29.815638 160.70312Q28.956263 161.57812 27.534388 161.57812L27.362513 161.57812Q26.409388 161.57812 25.659388 161.21875Q24.909388 160.84375 24.503138 160.17188Q24.096888 159.48438 24.096888 158.625Q24.096888 157.3125 24.925013 156.57812Q25.737513 155.82812 27.237513 155.82812L27.925013 155.82812L27.925013 159.85938Q28.550013 159.78125 28.925013 159.375Q29.300013 158.95312 29.300013 158.3125Q29.300013 157.34375 28.596888 156.79688L29.518763 155.95312Q30.065638 156.34375 30.378138 157.0Q30.675013 157.64062 30.675013 158.4375ZM25.456263 158.625Q25.456263 159.125 25.800013 159.4375Q26.143763 159.75 26.768763 159.84375L26.768763 157.48438L26.643763 157.48438Q26.081263 157.5 25.768763 157.79688Q25.456263 158.07812 25.456263 158.625ZM24.206263 153.79688L24.940638 153.73438Q24.096888 153.0625 24.096888 151.92188Q24.096888 150.90625 24.690638 150.42188Q25.268763 149.92188 26.456263 149.90625L30.550013 149.90625L30.550013 151.60938L26.487513 151.60938Q25.956263 151.60938 25.721888 151.84375Q25.471888 152.07812 25.471888 152.625Q25.471888 153.32812 26.081263 153.6875L30.550013 153.6875L30.550013 155.39062L24.206263 155.39062L24.206263 153.79688ZM22.643763 146.32812L24.206263 146.32812L24.206263 145.23438L25.456263 145.23438L25.456263 146.32812L28.612513 146.32812Q28.971888 146.32812 29.128138 146.1875Q29.268763 146.04688 29.268763 145.67188Q29.268763 145.39062 29.237513 145.17188L30.518763 145.17188Q30.675013 145.67188 30.675013 146.20312Q30.675013 147.98438 28.862513 148.01562L25.456263 148.01562L25.456263 148.9375L24.206263 148.9375L24.206263 148.01562L22.643763 148.01562L22.643763 146.32812ZM30.550013 140.67188Q30.315638 140.79688 29.987513 140.84375Q30.675013 141.45312 30.675013 142.4375Q30.675013 143.375 30.128138 143.98438Q29.581263 144.59375 28.768763 144.59375Q27.753138 144.59375 27.221888 143.85938Q26.675013 143.10938 26.675013 141.6875L26.675013 140.92188L26.315638 140.92188Q25.878138 140.92188 25.612513 141.14062Q25.346888 141.35938 25.346888 141.85938Q25.346888 142.28125 25.550013 142.53125Q25.753138 142.76562 26.112513 142.76562L26.112513 144.45312Q25.565638 144.45312 25.096888 144.125Q24.628138 143.78125 24.362513 143.15625Q24.096888 142.53125 24.096888 141.76562Q24.096888 140.59375 24.690638 139.90625Q25.268763 139.21875 26.331263 139.21875L29.081263 139.21875Q29.987513 139.20312 30.456263 138.96875L30.550013 138.96875L30.550013 140.67188ZM29.378138 142.07812Q29.378138 141.70312 29.206263 141.39062Q29.034388 141.0625 28.753138 140.92188L27.659388 140.92188L27.659388 141.54688Q27.659388 142.8125 28.550013 142.90625L28.643763 142.90625Q28.956263 142.90625 29.175013 142.6875Q29.378138 142.46875 29.378138 142.07812ZM27.331263 138.59375Q25.878138 138.59375 24.987513 137.90625Q24.096888 137.20312 24.096888 136.03125Q24.096888 134.98438 24.800013 134.40625L24.206263 134.32812L24.206263 132.79688L30.331263 132.79688Q31.175013 132.79688 31.784388 133.1875Q32.409386 133.5625 32.721886 134.25Q33.05001 134.92188 33.05001 135.84375Q33.05001 136.54688 32.76876 137.21875Q32.48751 137.875 32.05001 138.20312L31.018763 137.45312Q31.721888 136.82812 31.721888 135.92188Q31.721888 135.25 31.362513 134.875Q31.003138 134.5 30.346888 134.5L30.003138 134.5Q30.675013 135.07812 30.675013 136.04688Q30.675013 137.1875 29.784388 137.89062Q28.878138 138.59375 27.409388 138.59375L27.331263 138.59375ZM27.456263 136.90625Q28.315638 136.90625 28.815638 136.5625Q29.300013 136.20312 29.300013 135.60938Q29.300013 134.82812 28.721888 134.5L26.050013 134.5Q25.471888 134.84375 25.471888 135.59375Q25.471888 136.20312 25.971888 136.5625Q26.471888 136.90625 27.456263 136.90625ZM30.675013 128.4375Q30.675013 129.82812 29.815638 130.70312Q28.956263 131.57812 27.534388 131.57812L27.362513 131.57812Q26.409388 131.57812 25.659388 131.21875Q24.909388 130.84375 24.503138 130.17188Q24.096888 129.48438 24.096888 128.625Q24.096888 127.3125 24.925013 126.578125Q25.737513 125.828125 27.237513 125.828125L27.925013 125.828125L27.925013 129.85938Q28.550013 129.78125 28.925013 129.375Q29.300013 128.95312 29.300013 128.3125Q29.300013 127.34375 28.596888 126.796875L29.518763 125.953125Q30.065638 126.34375 30.378138 127.0Q30.675013 127.640625 30.675013 128.4375ZM25.456263 128.625Q25.456263 129.125 25.800013 129.4375Q26.143763 129.75 26.768763 129.84375L26.768763 127.484375L26.643763 127.484375Q26.081263 127.5 25.768763 127.796875Q25.456263 128.07812 25.456263 128.625Z" fill-rule="nonzero"/><path fill="#211551" d="M62.596874 301.91876Q62.596874 303.4969 62.05 304.27814Q61.51875 305.04376 60.3625 305.04376Q59.221874 305.04376 58.675 304.29376Q58.128124 303.54376 58.1125 302.04376L58.1125 300.84064Q58.1125 299.2625 58.64375 298.5125Q59.190624 297.7469 60.346874 297.7469Q61.503124 297.7469 62.034374 298.48126Q62.58125 299.21564 62.596874 300.7469L62.596874 301.91876ZM61.690624 300.6844Q61.690624 299.52814 61.3625 299.0125Q61.05 298.48126 60.346874 298.48126Q59.659374 298.48126 59.33125 299.0125Q59.01875 299.52814 59.01875 300.60626L59.01875 302.0594Q59.01875 303.21564 59.346874 303.7625Q59.690624 304.3094 60.3625 304.3094Q61.034374 304.3094 61.346874 303.79376Q61.675 303.27814 61.690624 302.16876L61.690624 300.6844ZM64.06563 299.2Q64.06563 298.575 64.47188 298.15314Q64.87813 297.73126 65.51875 297.73126Q66.175 297.73126 66.56563 298.15314Q66.97188 298.575 66.97188 299.23126L66.97188 299.59064Q66.97188 300.23126 66.56563 300.6375Q66.15938 301.04376 65.53438 301.04376Q64.89375 301.04376 64.47188 300.6375Q64.06563 300.23126 64.06563 299.54376L64.06563 299.2ZM64.7375 299.59064Q64.7375 299.96564 64.94063 300.21564Q65.15938 300.45 65.53438 300.45Q65.87813 300.45 66.08125 300.21564Q66.3 299.98126 66.3 299.5594L66.3 299.2Q66.3 298.825 66.08125 298.575Q65.87813 298.325 65.51875 298.325Q65.15938 298.325 64.94063 298.575Q64.7375 298.825 64.7375 299.23126L64.7375 299.59064ZM67.51875 303.2Q67.51875 302.5594 67.925 302.15314Q68.34688 301.7469 68.97188 301.7469Q69.6125 301.7469 70.01875 302.15314Q70.44063 302.5594 70.44063 303.2469L70.44063 303.59064Q70.44063 304.23126 70.03438 304.65314Q69.62813 305.0594 68.9875 305.0594Q68.3625 305.0594 67.94063 304.65314Q67.51875 304.23126 67.51875 303.5594L67.51875 303.2ZM68.20625 303.59064Q68.20625 303.96564 68.40938 304.21564Q68.62813 304.46564 68.9875 304.46564Q69.34688 304.46564 69.55 304.23126Q69.76875 303.98126 69.76875 303.575L69.76875 303.2Q69.76875 302.825 69.55 302.575Q69.33125 302.325 68.9875 302.325Q68.62813 302.325 68.40938 302.575Q68.20625 302.8094 68.20625 303.23126L68.20625 303.59064ZM65.7375 304.41876L65.22188 304.09064L68.69063 298.52814L69.20625 298.85626L65.7375 304.41876Z" fill-rule="nonzero"/><path fill="#211551" d="M58.55 209.25417L58.925 205.70729L62.565624 205.70729L62.565624 206.53542L59.690624 206.53542L59.471874 208.47292Q59.9875 208.17604 60.659374 208.17604Q61.628124 208.17604 62.190624 208.81667Q62.76875 209.45729 62.76875 210.55104Q62.76875 211.64479 62.175 212.28542Q61.58125 212.91042 60.51875 212.91042Q59.58125 212.91042 58.971874 212.39479Q58.378124 211.86354 58.3 210.94167L59.159374 210.94167Q59.2375 211.55104 59.58125 211.86354Q59.940624 212.17604 60.51875 212.17604Q61.14375 212.17604 61.503124 211.75417Q61.8625 211.31667 61.8625 210.56667Q61.8625 209.84792 61.471874 209.42604Q61.096874 208.98854 60.440624 208.98854Q59.8625 208.98854 59.51875 209.23854L59.284374 209.44167L58.55 209.25417ZM64.06563 207.06667Q64.06563 206.44167 64.47188 206.01979Q64.87813 205.59792 65.51875 205.59792Q66.175 205.59792 66.56563 206.01979Q66.97188 206.44167 66.97188 207.09792L66.97188 207.45729Q66.97188 208.09792 66.56563 208.50417Q66.15938 208.91042 65.53438 208.91042Q64.89375 208.91042 64.47188 208.50417Q64.06563 208.09792 64.06563 207.41042L64.06563 207.06667ZM64.7375 207.45729Q64.7375 207.83229 64.94063 208.08229Q65.15938 208.31667 65.53438 208.31667Q65.87813 208.31667 66.08125 208.08229Q66.3 207.84792 66.3 207.42604L66.3 207.06667Q66.3 206.69167 66.08125 206.44167Q65.87813 206.19167 65.51875 206.19167Q65.15938 206.19167 64.94063 206.44167Q64.7375 206.69167 64.7375 207.09792L64.7375 207.45729ZM67.51875 211.06667Q67.51875 210.42604 67.925 210.01979Q68.34688 209.61354 68.97188 209.61354Q69.6125 209.61354 70.01875 210.01979Q70.44063 210.42604 70.44063 211.11354L70.44063 211.45729Q70.44063 212.09792 70.03438 212.51979Q69.62813 212.92604 68.9875 212.92604Q68.3625 212.92604 67.94063 212.51979Q67.51875 212.09792 67.51875 211.42604L67.51875 211.06667ZM68.20625 211.45729Q68.20625 211.83229 68.40938 212.08229Q68.62813 212.33229 68.9875 212.33229Q69.34688 212.33229 69.55 212.09792Q69.76875 211.84792 69.76875 211.44167L69.76875 211.06667Q69.76875 210.69167 69.55 210.44167Q69.33125 210.19167 68.9875 210.19167Q68.62813 210.19167 68.40938 210.44167Q68.20625 210.67604 68.20625 211.09792L68.20625 211.45729ZM65.7375 212.28542L65.22188 211.95729L68.69063 206.39479L69.20625 206.72292L65.7375 212.28542Z" fill-rule="nonzero"/><path fill="#211551" d="M55.1125 120.683334L54.20625 120.683334L54.20625 114.66771L52.378124 115.32396L52.378124 114.51146L54.971874 113.54271L55.1125 113.54271L55.1125 120.683334ZM62.596874 117.652084Q62.596874 119.23021 62.05 120.01146Q61.51875 120.777084 60.3625 120.777084Q59.221874 120.777084 58.675 120.027084Q58.128124 119.277084 58.1125 117.777084L58.1125 116.57396Q58.1125 114.995834 58.64375 114.245834Q59.190624 113.48021 60.346874 113.48021Q61.503124 113.48021 62.034374 114.214584Q62.58125 114.94896 62.596874 116.48021L62.596874 117.652084ZM61.690624 116.41771Q61.690624 115.26146 61.3625 114.745834Q61.05 114.214584 60.346874 114.214584Q59.659374 114.214584 59.33125 114.745834Q59.01875 115.26146 59.01875 116.339584L59.01875 117.79271Q59.01875 118.94896 59.346874 119.495834Q59.690624 120.04271 60.3625 120.04271Q61.034374 120.04271 61.346874 119.527084Q61.675 119.01146 61.690624 117.902084L61.690624 116.41771ZM64.06563 114.933334Q64.06563 114.308334 64.47188 113.88646Q64.87813 113.464584 65.51875 113.464584Q66.175 113.464584 66.56563 113.88646Q66.97188 114.308334 66.97188 114.964584L66.97188 115.32396Q66.97188 115.964584 66.56563 116.370834Q66.15938 116.777084 65.53438 116.777084Q64.89375 116.777084 64.47188 116.370834Q64.06563 115.964584 64.06563 115.277084L64.06563 114.933334ZM64.7375 115.32396Q64.7375 115.69896 64.94063 115.94896Q65.15938 116.183334 65.53438 116.183334Q65.87813 116.183334 66.08125 115.94896Q66.3 115.714584 66.3 115.29271L66.3 114.933334Q66.3 114.558334 66.08125 114.308334Q65.87813 114.058334 65.51875 114.058334Q65.15938 114.058334 64.94063 114.308334Q64.7375 114.558334 64.7375 114.964584L64.7375 115.32396ZM67.51875 118.933334Q67.51875 118.29271 67.925 117.88646Q68.34688 117.48021 68.97188 117.48021Q69.6125 117.48021 70.01875 117.88646Q70.44063 118.29271 70.44063 118.98021L70.44063 119.32396Q70.44063 119.964584 70.03438 120.38646Q69.62813 120.79271 68.9875 120.79271Q68.3625 120.79271 67.94063 120.38646Q67.51875 119.964584 67.51875 119.29271L67.51875 118.933334ZM68.20625 119.32396Q68.20625 119.69896 68.40938 119.94896Q68.62813 120.19896 68.9875 120.19896Q69.34688 120.19896 69.55 119.964584Q69.76875 119.714584 69.76875 119.308334L69.76875 118.933334Q69.76875 118.558334 69.55 118.308334Q69.33125 118.058334 68.9875 118.058334Q68.62813 118.058334 68.40938 118.308334Q68.20625 118.54271 68.20625 118.964584L68.20625 119.32396ZM65.7375 120.152084L65.22188 119.82396L68.69063 114.26146L69.20625 114.589584L65.7375 120.152084Z" fill-rule="nonzero"/><path fill="#211551" d="M55.1125 28.55L54.20625 28.55L54.20625 22.534374L52.378124 23.190624L52.378124 22.378124L54.971874 21.409374L55.1125 21.409374L55.1125 28.55ZM58.55 24.9875L58.925 21.440624L62.565624 21.440624L62.565624 22.26875L59.690624 22.26875L59.471874 24.20625Q59.9875 23.909374 60.659374 23.909374Q61.628124 23.909374 62.190624 24.55Q62.76875 25.190624 62.76875 26.284374Q62.76875 27.378124 62.175 28.01875Q61.58125 28.64375 60.51875 28.64375Q59.58125 28.64375 58.971874 28.128124Q58.378124 27.596874 58.3 26.675L59.159374 26.675Q59.2375 27.284374 59.58125 27.596874Q59.940624 27.909374 60.51875 27.909374Q61.14375 27.909374 61.503124 27.4875Q61.8625 27.05 61.8625 26.3Q61.8625 25.58125 61.471874 25.159374Q61.096874 24.721874 60.440624 24.721874Q59.8625 24.721874 59.51875 24.971874L59.284374 25.175L58.55 24.9875ZM64.06563 22.8Q64.06563 22.175 64.47188 21.753124Q64.87813 21.33125 65.51875 21.33125Q66.175 21.33125 66.56563 21.753124Q66.97188 22.175 66.97188 22.83125L66.97188 23.190624Q66.97188 23.83125 66.56563 24.2375Q66.15938 24.64375 65.53438 24.64375Q64.89375 24.64375 64.47188 24.2375Q64.06563 23.83125 64.06563 23.14375L64.06563 22.8ZM64.7375 23.190624Q64.7375 23.565624 64.94063 23.815624Q65.15938 24.05 65.53438 24.05Q65.87813 24.05 66.08125 23.815624Q66.3 23.58125 66.3 23.159374L66.3 22.8Q66.3 22.425 66.08125 22.175Q65.87813 21.925 65.51875 21.925Q65.15938 21.925 64.94063 22.175Q64.7375 22.425 64.7375 22.83125L64.7375 23.190624ZM67.51875 26.8Q67.51875 26.159374 67.925 25.753124Q68.34688 25.346874 68.97188 25.346874Q69.6125 25.346874 70.01875 25.753124Q70.44063 26.159374 70.44063 26.846874L70.44063 27.190624Q70.44063 27.83125 70.03438 28.253124Q69.62813 28.659374 68.9875 28.659374Q68.3625 28.659374 67.94063 28.253124Q67.51875 27.83125 67.51875 27.159374L67.51875 26.8ZM68.20625 27.190624Q68.20625 27.565624 68.40938 27.815624Q68.62813 28.065624 68.9875 28.065624Q69.34688 28.065624 69.55 27.83125Q69.76875 27.58125 69.76875 27.175L69.76875 26.8Q69.76875 26.425 69.55 26.175Q69.33125 25.925 68.9875 25.925Q68.62813 25.925 68.40938 26.175Q68.20625 26.409374 68.20625 26.83125L68.20625 27.190624ZM65.7375 28.01875L65.22188 27.690624L68.69063 22.128124L69.20625 22.45625L65.7375 28.01875Z" fill-rule="nonzero"/><path fill="#211551" d="M140.80173 313.1219Q140.80173 314.15314 140.4736 314.90314Q140.14548 315.6375 139.56735 316.0594L140.83298 317.0594L140.19235 317.65314L138.69235 316.46564Q138.3486 316.54376 137.95798 316.54376Q137.11423 316.54376 136.45798 316.1375Q135.81735 315.71564 135.45798 314.96564Q135.0986 314.2 135.08298 313.1844L135.08298 312.66876Q135.08298 311.65314 135.44235 310.8719Q135.80173 310.075 136.44235 309.66876Q137.0986 309.2469 137.94235 309.2469Q138.80173 309.2469 139.44235 309.66876Q140.0986 310.075 140.44235 310.85626Q140.80173 311.6375 140.80173 312.66876L140.80173 313.1219ZM139.86423 312.66876Q139.86423 311.40314 139.36423 310.73126Q138.86423 310.04376 137.94235 310.04376Q137.05173 310.04376 136.5361 310.73126Q136.0361 311.40314 136.02048 312.60626L136.02048 313.1219Q136.02048 314.34064 136.52048 315.04376Q137.0361 315.7469 137.94235 315.7469Q138.86423 315.7469 139.3486 315.09064Q139.8486 314.4344 139.86423 313.2L139.86423 312.66876ZM143.45798 312.45L144.12985 312.45Q144.77048 312.45 145.12985 312.1219Q145.50485 311.79376 145.50485 311.23126Q145.50485 309.98126 144.25485 309.98126Q143.67673 309.98126 143.31735 310.325Q142.9736 310.65314 142.9736 311.2L142.06735 311.2Q142.06735 310.35626 142.69235 309.8094Q143.31735 309.2469 144.25485 309.2469Q145.27048 309.2469 145.83298 309.77814Q146.4111 310.3094 146.4111 311.2469Q146.4111 311.71564 146.11423 312.15314Q145.81735 312.59064 145.2861 312.8094Q145.87985 312.98126 146.19235 313.41876Q146.52048 313.84064 146.52048 314.46564Q146.52048 315.41876 145.89548 315.98126Q145.27048 316.54376 144.27048 316.54376Q143.27048 316.54376 142.62985 316.0125Q142.00485 315.46564 142.00485 314.575L142.92673 314.575Q142.92673 315.1375 143.2861 315.48126Q143.64548 315.8094 144.27048 315.8094Q144.92673 315.8094 145.27048 315.46564Q145.61423 315.1219 145.61423 314.48126Q145.61423 313.8719 145.2236 313.54376Q144.8486 313.2 144.12985 313.2L143.45798 313.2L143.45798 312.45ZM154.80173 316.45L150.14548 316.45L150.14548 315.79376L152.5986 313.0594Q153.14548 312.45 153.3486 312.0594Q153.56735 311.66876 153.56735 311.2469Q153.56735 310.7 153.2236 310.34064Q152.89548 309.98126 152.33298 309.98126Q151.6611 309.98126 151.2861 310.3719Q150.9111 310.7469 150.9111 311.4344L150.00485 311.4344Q150.00485 310.45 150.62985 309.85626Q151.27048 309.2469 152.33298 309.2469Q153.31735 309.2469 153.89548 309.7625Q154.4736 310.27814 154.4736 311.15314Q154.4736 312.2 153.12985 313.65314L151.23923 315.71564L154.80173 315.71564L154.80173 316.45ZM160.5986 313.41876Q160.5986 314.9969 160.05173 315.77814Q159.52048 316.54376 158.36423 316.54376Q157.2236 316.54376 156.67673 315.79376Q156.12985 315.04376 156.11423 313.54376L156.11423 312.34064Q156.11423 310.7625 156.64548 310.0125Q157.19235 309.2469 158.3486 309.2469Q159.50485 309.2469 160.0361 309.98126Q160.58298 310.71564 160.5986 312.2469L160.5986 313.41876ZM159.69235 312.1844Q159.69235 311.02814 159.36423 310.5125Q159.05173 309.98126 158.3486 309.98126Q157.6611 309.98126 157.33298 310.5125Q157.02048 311.02814 157.02048 312.10626L157.02048 313.5594Q157.02048 314.71564 157.3486 315.2625Q157.69235 315.8094 158.36423 315.8094Q159.0361 315.8094 159.3486 315.29376Q159.67673 314.77814 159.69235 313.66876L159.69235 312.1844ZM165.11423 316.45L164.20798 316.45L164.20798 310.4344L162.37985 311.09064L162.37985 310.27814L164.9736 309.3094L165.11423 309.3094L165.11423 316.45ZM171.5986 313.325Q171.31735 313.66876 170.92673 313.8719Q170.5361 314.075 170.06735 314.075Q169.45798 314.075 168.98923 313.77814Q168.5361 313.46564 168.2861 312.91876Q168.0361 312.3719 168.0361 311.7Q168.0361 310.9969 168.30173 310.41876Q168.58298 309.84064 169.08298 309.54376Q169.58298 309.2469 170.23923 309.2469Q171.30173 309.2469 171.9111 310.04376Q172.52048 310.825 172.52048 312.1844L172.52048 312.45Q172.52048 314.52814 171.69235 315.48126Q170.87985 316.4344 169.2236 316.45L169.0361 316.45L169.0361 315.7L169.23923 315.7Q170.3486 315.66876 170.94235 315.10626Q171.55173 314.54376 171.5986 313.325ZM170.20798 313.325Q170.6611 313.325 171.0361 313.04376Q171.42673 312.7625 171.61423 312.35626L171.61423 311.9969Q171.61423 311.10626 171.2236 310.5594Q170.83298 309.9969 170.25485 309.9969Q169.64548 309.9969 169.2861 310.45Q168.92673 310.90314 168.92673 311.65314Q168.92673 312.3875 169.27048 312.85626Q169.62985 313.325 170.20798 313.325Z" fill-rule="nonzero"/><path fill="#211551" d="M257.1006 313.1219Q257.1006 314.15314 256.77246 314.90314Q256.44434 315.6375 255.8662 316.0594L257.13184 317.0594L256.4912 317.65314L254.9912 316.46564Q254.64745 316.54376 254.25682 316.54376Q253.41307 316.54376 252.75682 316.1375Q252.1162 315.71564 251.75682 314.96564Q251.39745 314.2 251.38182 313.1844L251.38182 312.66876Q251.38182 311.65314 251.7412 310.8719Q252.10057 310.075 252.7412 309.66876Q253.39745 309.2469 254.2412 309.2469Q255.10057 309.2469 255.7412 309.66876Q256.39746 310.075 256.7412 310.85626Q257.1006 311.6375 257.1006 312.66876L257.1006 313.1219ZM256.1631 312.66876Q256.1631 311.40314 255.66307 310.73126Q255.16307 310.04376 254.2412 310.04376Q253.35057 310.04376 252.83495 310.73126Q252.33495 311.40314 252.31932 312.60626L252.31932 313.1219Q252.31932 314.34064 252.81932 315.04376Q253.33495 315.7469 254.2412 315.7469Q255.16307 315.7469 255.64745 315.09064Q256.14746 314.4344 256.1631 313.2L256.1631 312.66876ZM262.25684 314.0594L263.2412 314.0594L263.2412 314.79376L262.25684 314.79376L262.25684 316.45L261.3506 316.45L261.3506 314.79376L258.1162 314.79376L258.1162 314.2625L261.2881 309.34064L262.25684 309.34064L262.25684 314.0594ZM259.13184 314.0594L261.3506 314.0594L261.3506 310.575L261.2412 310.77814L259.13184 314.0594ZM271.1006 316.45L266.44434 316.45L266.44434 315.79376L268.89746 313.0594Q269.44434 312.45 269.64746 312.0594Q269.8662 311.66876 269.8662 311.2469Q269.8662 310.7 269.52246 310.34064Q269.19434 309.98126 268.63184 309.98126Q267.95996 309.98126 267.58496 310.3719Q267.20996 310.7469 267.20996 311.4344L266.3037 311.4344Q266.3037 310.45 266.9287 309.85626Q267.56934 309.2469 268.63184 309.2469Q269.6162 309.2469 270.19434 309.7625Q270.77246 310.27814 270.77246 311.15314Q270.77246 312.2 269.4287 313.65314L267.5381 315.71564L271.1006 315.71564L271.1006 316.45ZM276.89746 313.41876Q276.89746 314.9969 276.3506 315.77814Q275.81934 316.54376 274.6631 316.54376Q273.52246 316.54376 272.9756 315.79376Q272.4287 315.04376 272.4131 313.54376L272.4131 312.34064Q272.4131 310.7625 272.94434 310.0125Q273.4912 309.2469 274.64746 309.2469Q275.8037 309.2469 276.33496 309.98126Q276.88184 310.71564 276.89746 312.2469L276.89746 313.41876ZM275.9912 312.1844Q275.9912 311.02814 275.6631 310.5125Q275.3506 309.98126 274.64746 309.98126Q273.95996 309.98126 273.63184 310.5125Q273.31934 311.02814 273.31934 312.10626L273.31934 313.5594Q273.31934 314.71564 273.64746 315.2625Q273.9912 315.8094 274.6631 315.8094Q275.33496 315.8094 275.64746 315.29376Q275.9756 314.77814 275.9912 313.66876L275.9912 312.1844ZM281.4131 316.45L280.50684 316.45L280.50684 310.4344L278.6787 311.09064L278.6787 310.27814L281.27246 309.3094L281.4131 309.3094L281.4131 316.45ZM287.89746 313.325Q287.6162 313.66876 287.2256 313.8719Q286.83496 314.075 286.3662 314.075Q285.75684 314.075 285.2881 313.77814Q284.83496 313.46564 284.58496 312.91876Q284.33496 312.3719 284.33496 311.7Q284.33496 310.9969 284.6006 310.41876Q284.88184 309.84064 285.38184 309.54376Q285.88184 309.2469 286.5381 309.2469Q287.6006 309.2469 288.20996 310.04376Q288.81934 310.825 288.81934 312.1844L288.81934 312.45Q288.81934 314.52814 287.9912 315.48126Q287.1787 316.4344 285.52246 316.45L285.33496 316.45L285.33496 315.7L285.5381 315.7Q286.64746 315.66876 287.2412 315.10626Q287.8506 314.54376 287.89746 313.325ZM286.50684 313.325Q286.95996 313.325 287.33496 313.04376Q287.7256 312.7625 287.9131 312.35626L287.9131 311.9969Q287.9131 311.10626 287.52246 310.5594Q287.13184 309.9969 286.5537 309.9969Q285.94434 309.9969 285.58496 310.45Q285.2256 310.90314 285.2256 311.65314Q285.2256 312.3875 285.56934 312.85626Q285.9287 313.325 286.50684 313.325Z" fill-rule="nonzero"/><path fill="#211551" d="M373.3994 313.1219Q373.3994 314.15314 373.0713 314.90314Q372.74316 315.6375 372.16504 316.0594L373.43066 317.0594L372.79004 317.65314L371.29004 316.46564Q370.9463 316.54376 370.55566 316.54376Q369.7119 316.54376 369.05566 316.1375Q368.41504 315.71564 368.05566 314.96564Q367.6963 314.2 367.68066 313.1844L367.68066 312.66876Q367.68066 311.65314 368.04004 310.8719Q368.3994 310.075 369.04004 309.66876Q369.6963 309.2469 370.54004 309.2469Q371.3994 309.2469 372.04004 309.66876Q372.6963 310.075 373.04004 310.85626Q373.3994 311.6375 373.3994 312.66876L373.3994 313.1219ZM372.4619 312.66876Q372.4619 311.40314 371.9619 310.73126Q371.4619 310.04376 370.54004 310.04376Q369.6494 310.04376 369.1338 310.73126Q368.6338 311.40314 368.61816 312.60626L368.61816 313.1219Q368.61816 314.34064 369.11816 315.04376Q369.6338 315.7469 370.54004 315.7469Q371.4619 315.7469 371.9463 315.09064Q372.4463 314.4344 372.4619 313.2L372.4619 312.66876ZM377.7119 316.45L376.80566 316.45L376.80566 310.4344L374.97754 311.09064L374.97754 310.27814L377.5713 309.3094L377.7119 309.3094L377.7119 316.45ZM387.3994 316.45L382.74316 316.45L382.74316 315.79376L385.1963 313.0594Q385.74316 312.45 385.9463 312.0594Q386.16504 311.66876 386.16504 311.2469Q386.16504 310.7 385.8213 310.34064Q385.49316 309.98126 384.93066 309.98126Q384.2588 309.98126 383.8838 310.3719Q383.5088 310.7469 383.5088 311.4344L382.60254 311.4344Q382.60254 310.45 383.22754 309.85626Q383.86816 309.2469 384.93066 309.2469Q385.91504 309.2469 386.49316 309.7625Q387.0713 310.27814 387.0713 311.15314Q387.0713 312.2 385.72754 313.65314L383.8369 315.71564L387.3994 315.71564L387.3994 316.45ZM393.1963 313.41876Q393.1963 314.9969 392.6494 315.77814Q392.11816 316.54376 390.9619 316.54376Q389.8213 316.54376 389.2744 315.79376Q388.72754 315.04376 388.7119 313.54376L388.7119 312.34064Q388.7119 310.7625 389.24316 310.0125Q389.79004 309.2469 390.9463 309.2469Q392.10254 309.2469 392.6338 309.98126Q393.18066 310.71564 393.1963 312.2469L393.1963 313.41876ZM392.29004 312.1844Q392.29004 311.02814 391.9619 310.5125Q391.6494 309.98126 390.9463 309.98126Q390.2588 309.98126 389.93066 310.5125Q389.61816 311.02814 389.61816 312.10626L389.61816 313.5594Q389.61816 314.71564 389.9463 315.2625Q390.29004 315.8094 390.9619 315.8094Q391.6338 315.8094 391.9463 315.29376Q392.2744 314.77814 392.29004 313.66876L392.29004 312.1844ZM399.3994 316.45L394.74316 316.45L394.74316 315.79376L397.1963 313.0594Q397.74316 312.45 397.9463 312.0594Q398.16504 311.66876 398.16504 311.2469Q398.16504 310.7 397.8213 310.34064Q397.49316 309.98126 396.93066 309.98126Q396.2588 309.98126 395.8838 310.3719Q395.5088 310.7469 395.5088 311.4344L394.60254 311.4344Q394.60254 310.45 395.22754 309.85626Q395.86816 309.2469 396.93066 309.2469Q397.91504 309.2469 398.49316 309.7625Q399.0713 310.27814 399.0713 311.15314Q399.0713 312.2 397.72754 313.65314L395.8369 315.71564L399.3994 315.71564L399.3994 316.45ZM405.1963 313.41876Q405.1963 314.9969 404.6494 315.77814Q404.11816 316.54376 402.9619 316.54376Q401.8213 316.54376 401.2744 315.79376Q400.72754 315.04376 400.7119 313.54376L400.7119 312.34064Q400.7119 310.7625 401.24316 310.0125Q401.79004 309.2469 402.9463 309.2469Q404.10254 309.2469 404.6338 309.98126Q405.18066 310.71564 405.1963 312.2469L405.1963 313.41876ZM404.29004 312.1844Q404.29004 311.02814 403.9619 310.5125Q403.6494 309.98126 402.9463 309.98126Q402.2588 309.98126 401.93066 310.5125Q401.61816 311.02814 401.61816 312.10626L401.61816 313.5594Q401.61816 314.71564 401.9463 315.2625Q402.29004 315.8094 402.9619 315.8094Q403.6338 315.8094 403.9463 315.29376Q404.2744 314.77814 404.29004 313.66876L404.29004 312.1844Z" fill-rule="nonzero"/><path fill="#211551" d="M489.69827 313.1219Q489.69827 314.15314 489.37015 314.90314Q489.04202 315.6375 488.4639 316.0594L489.72952 317.0594L489.0889 317.65314L487.5889 316.46564Q487.24515 316.54376 486.85452 316.54376Q486.01077 316.54376 485.35452 316.1375Q484.7139 315.71564 484.35452 314.96564Q483.99515 314.2 483.97952 313.1844L483.97952 312.66876Q483.97952 311.65314 484.3389 310.8719Q484.69827 310.075 485.3389 309.66876Q485.99515 309.2469 486.8389 309.2469Q487.69827 309.2469 488.3389 309.66876Q488.99515 310.075 489.3389 310.85626Q489.69827 311.6375 489.69827 312.66876L489.69827 313.1219ZM488.76077 312.66876Q488.76077 311.40314 488.26077 310.73126Q487.76077 310.04376 486.8389 310.04376Q485.94827 310.04376 485.43265 310.73126Q484.93265 311.40314 484.91702 312.60626L484.91702 313.1219Q484.91702 314.34064 485.41702 315.04376Q485.93265 315.7469 486.8389 315.7469Q487.76077 315.7469 488.24515 315.09064Q488.74515 314.4344 488.76077 313.2L488.76077 312.66876ZM495.69827 316.45L491.04202 316.45L491.04202 315.79376L493.49515 313.0594Q494.04202 312.45 494.24515 312.0594Q494.4639 311.66876 494.4639 311.2469Q494.4639 310.7 494.12015 310.34064Q493.79202 309.98126 493.22952 309.98126Q492.55765 309.98126 492.18265 310.3719Q491.80765 310.7469 491.80765 311.4344L490.9014 311.4344Q490.9014 310.45 491.5264 309.85626Q492.16702 309.2469 493.22952 309.2469Q494.2139 309.2469 494.79202 309.7625Q495.37015 310.27814 495.37015 311.15314Q495.37015 312.2 494.0264 313.65314L492.13577 315.71564L495.69827 315.71564L495.69827 316.45ZM503.69827 316.45L499.04202 316.45L499.04202 315.79376L501.49515 313.0594Q502.04202 312.45 502.24515 312.0594Q502.4639 311.66876 502.4639 311.2469Q502.4639 310.7 502.12015 310.34064Q501.79202 309.98126 501.22952 309.98126Q500.55765 309.98126 500.18265 310.3719Q499.80765 310.7469 499.80765 311.4344L498.9014 311.4344Q498.9014 310.45 499.5264 309.85626Q500.16702 309.2469 501.22952 309.2469Q502.2139 309.2469 502.79202 309.7625Q503.37015 310.27814 503.37015 311.15314Q503.37015 312.2 502.0264 313.65314L500.13577 315.71564L503.69827 315.71564L503.69827 316.45ZM509.49515 313.41876Q509.49515 314.9969 508.94827 315.77814Q508.41702 316.54376 507.26077 316.54376Q506.12015 316.54376 505.57327 315.79376Q505.0264 315.04376 505.01077 313.54376L505.01077 312.34064Q505.01077 310.7625 505.54202 310.0125Q506.0889 309.2469 507.24515 309.2469Q508.4014 309.2469 508.93265 309.98126Q509.47952 310.71564 509.49515 312.2469L509.49515 313.41876ZM508.5889 312.1844Q508.5889 311.02814 508.26077 310.5125Q507.94827 309.98126 507.24515 309.98126Q506.55765 309.98126 506.22952 310.5125Q505.91702 311.02814 505.91702 312.10626L505.91702 313.5594Q505.91702 314.71564 506.24515 315.2625Q506.5889 315.8094 507.26077 315.8094Q507.93265 315.8094 508.24515 315.29376Q508.57327 314.77814 508.5889 313.66876L508.5889 312.1844ZM515.69824 316.45L511.04202 316.45L511.04202 315.79376L513.4951 313.0594Q514.042 312.45 514.2451 312.0594Q514.46387 311.66876 514.46387 311.2469Q514.46387 310.7 514.1201 310.34064Q513.792 309.98126 513.2295 309.98126Q512.5576 309.98126 512.1826 310.3719Q511.80765 310.7469 511.80765 311.4344L510.9014 311.4344Q510.9014 310.45 511.5264 309.85626Q512.167 309.2469 513.2295 309.2469Q514.21387 309.2469 514.792 309.7625Q515.3701 310.27814 515.3701 311.15314Q515.3701 312.2 514.02637 313.65314L512.13574 315.71564L515.69824 315.71564L515.69824 316.45ZM521.4951 313.41876Q521.4951 314.9969 520.94824 315.77814Q520.417 316.54376 519.26074 316.54376Q518.1201 316.54376 517.57324 315.79376Q517.02637 315.04376 517.01074 313.54376L517.01074 312.34064Q517.01074 310.7625 517.542 310.0125Q518.08887 309.2469 519.2451 309.2469Q520.40137 309.2469 520.9326 309.98126Q521.4795 310.71564 521.4951 312.2469L521.4951 313.41876ZM520.58887 312.1844Q520.58887 311.02814 520.26074 310.5125Q519.94824 309.98126 519.2451 309.98126Q518.5576 309.98126 518.2295 310.5125Q517.917 311.02814 517.917 312.10626L517.917 313.5594Q517.917 314.71564 518.2451 315.2625Q518.58887 315.8094 519.26074 315.8094Q519.9326 315.8094 520.2451 315.29376Q520.57324 314.77814 520.58887 313.66876L520.58887 312.1844Z" fill-rule="nonzero"/></svg>