<svg data-name="Layer 1" xmlns="http://www.w3.org/2000/svg" viewBox="0 0 186.4 82"><path d="M39.29 40.66a2.31 2.31 0 102.13 2.47.57.57 0 000-.13 2.22 2.22 0 00-2.08-2.34zm-7.64 0a2.31 2.31 0 102.13 2.47.57.57 0 000-.13 2.22 2.22 0 00-2.08-2.34z" fill="#7289da"/><path d="M49.46 23.25h-28a4.3 4.3 0 00-4.29 4.29v28.05a4.3 4.3 0 004.29 4.29h23.69L44 56.05l2.68 2.47 2.53 2.32 4.53 3.92V27.54a4.33 4.33 0 00-4.28-4.29zm-8.08 27.11s-.75-.9-1.38-1.68a6.54 6.54 0 003.79-2.47 11.94 11.94 0 01-2.41 1.24 15 15 0 01-3 .9 14.53 14.53 0 01-5.42 0 15.76 15.76 0 01-3.08-.9 10.62 10.62 0 01-1.53-.71l-.18-.1h-.09c-.37-.21-.58-.36-.58-.36a6.51 6.51 0 003.66 2.45c-.63.8-1.4 1.72-1.4 1.72-4.63-.15-6.39-3.16-6.39-3.16a27.53 27.53 0 013-12.1A10.41 10.41 0 0132.23 33l.21.25A13.69 13.69 0 0027 36s.46-.25 1.24-.58A16.07 16.07 0 0132.93 34h.35a17.71 17.71 0 0110.53 2 13.66 13.66 0 00-5.21-2.63l.29-.34a10.34 10.34 0 015.86 2.18 27.53 27.53 0 013 12.1 7.7 7.7 0 01-6.39 3.14zM73 32.21h-7V40l4.63 4.16V36.6h2.47c1.57 0 2.34.76 2.34 2v5.8c0 1.21-.73 2-2.34 2H66v4.42h7c3.73 0 7.22-1.85 7.22-6.12v-6.23c-.01-4.36-3.5-6.26-7.22-6.26zm36.41 12.49v-6.4c0-2.3 4.14-2.83 5.4-.52l3.83-1.55a6.9 6.9 0 00-6.53-4.23c-3.73 0-7.41 2.15-7.41 6.34v6.4c0 4.23 3.68 6.35 7.33 6.35a7.47 7.47 0 006.69-4.17l-4.1-1.92c-1 2.57-5.21 1.94-5.21-.3zm-12.66-5.52c-1.45-.32-2.41-.84-2.47-1.74.08-2.16 3.41-2.24 5.36-.17l3.07-2.36a7.62 7.62 0 00-6.34-3c-3.41 0-6.72 1.92-6.72 5.56s2.72 5.45 5.72 5.91c1.52.21 3.22.81 3.18 1.86-.13 2-4.23 1.88-6.09-.38l-3 2.79A8.15 8.15 0 0095.78 51c3.42 0 7.21-2 7.35-5.57.21-4.54-3.1-5.69-6.4-6.3zm-14 11.61h4.69V32.21h-4.72zm79.06-18.58h-6.95V40l4.63 4.16V36.6H162c1.57 0 2.34.76 2.34 2v5.8c0 1.21-.73 2-2.34 2h-7.12v4.42h7c3.72 0 7.22-1.85 7.22-6.12v-6.23c-.06-4.36-3.56-6.26-7.28-6.26zM127.68 32c-3.85 0-7.68 2.09-7.68 6.38v6.34c0 4.25 3.85 6.39 7.72 6.39s7.69-2.14 7.69-6.39v-6.38c0-4.27-3.88-6.34-7.73-6.34zm3 12.72c0 1.34-1.51 2-3 2s-3-.65-3-2v-6.38c0-1.36 1.46-2.09 2.93-2.09s3.08.65 3.08 2.09zm21.53-6.34c-.1-4.35-3.07-6.11-6.9-6.11h-7.41v18.55h4.75v-5.91h.84l4.31 5.91h5.86l-5.07-6.39c2.24-.71 3.64-2.66 3.64-6.09zm-6.82 2.51h-2.76V36.6h2.76a2.13 2.13 0 01.31 4.25h-.29z" fill="#7289da"/></svg>