<svg xmlns="http://www.w3.org/2000/svg" viewBox="0 0 160 160"><circle cx="80" cy="80" r="80" fill="#fdefeb" data-name="Layer 2"/><g data-name="Layer 1"><path d="M121.85 115.66c-4.13 0-2 .62-3.84-2.5l2-2c2.29-2.29-1.18-5.77-3.47-3.47l-2 2c-3.12-1.84-2.49.32-2.49-3.84 0-3.24-4.91-3.24-4.91 0 0 4.14.62 2-2.5 3.84l-2-2c-2.29-2.29-5.77 1.17-3.47 3.47l2 2c-1.84 3.13.32 2.5-3.84 2.5-3.24 0-3.24 4.91 0 4.91 4.14 0 2-.62 3.84 2.5l-2 2c-2.3 2.3 1.18 5.76 3.47 3.47 3-3 1-1.86 4.48-.94v2.8c0 3.24 4.91 3.24 4.91 0v-2.8c3.51-.92 1.53-2 4.48.94a2.45 2.45 0 003.47-3.47l-2-2c1.85-3.13-.32-2.5 3.84-2.5a2.46 2.46 0 00.03-4.91zM109.59 123a4.91 4.91 0 114.91-4.91 4.91 4.91 0 01-4.91 4.91z" fill="#b8bcc2"/><path d="M75.26 32.28c0 .41-.37.2 2.45.06V47.1A31.91 31.91 0 0064 51.41a9.49 9.49 0 013.09 3.88 26.43 26.43 0 0110.66-3.24v12.33a14 14 0 014.91 0V52a26.63 26.63 0 0114.74 6.16l-8.73 8.73a14.6 14.6 0 013.49 3.48l24.42-24.43a2.46 2.46 0 000-3.48 51.17 51.17 0 00-34-15v-4.98c0-3.25-4.91-3.24-4.91 0v5c-1.19.06-2.38.15-3.58.3a9.71 9.71 0 011.17 4.5zm36 12l-10.38 10.4a31.44 31.44 0 00-18.26-7.56V32.4a46.13 46.13 0 0128.65 11.89z" fill="#f5896d"/><circle cx="80.17" cy="78.88" r="9.81" fill="#f1613c"/><circle cx="40.93" cy="108.31" r="4.9" fill="#f8b09e"/><circle cx="58.09" cy="59.26" r="4.9" fill="#ce472a"/><circle cx="65.45" cy="32.28" r="4.9" fill="#fbd7ce"/><path d="M136.57 76.43H94.66a13.68 13.68 0 010 4.9H107a27 27 0 01-24.4 24.4V93.37a13.73 13.73 0 01-4.91 0v12.36a27 27 0 01-24.4-24.4h12.38a13.68 13.68 0 010-4.9H53.31a26 26 0 011.92-7.8A9.94 9.94 0 0151 66a32 32 0 00-2.57 10.4H33.66a46.51 46.51 0 0123.92-38.28 9.81 9.81 0 01-1.86-4.59 51.57 51.57 0 00-27 42.9h-5a2.45 2.45 0 000 4.9h5a51.16 51.16 0 005.15 20.13 9.93 9.93 0 014.19-2.55 46.88 46.88 0 01-4.44-17.58h14.79a31.87 31.87 0 0029.3 29.3v14.73a46.81 46.81 0 01-28.57-11.71 9.72 9.72 0 01-3.6 3.31 51.59 51.59 0 0032.17 13.3v5c0 3.24 4.91 3.24 4.91 0v-5a51.4 51.4 0 008.58-1.11 2.46 2.46 0 00-1-4.81 47.81 47.81 0 01-7.55 1v-14.71a31.87 31.87 0 0029.3-29.3h14.77a46 46 0 01-5 18.77c-1.49 2.87 2.88 5.11 4.36 2.24a50.75 50.75 0 005.59-21h5a2.45 2.45 0 00-.1-4.91z" fill="#f1613c"/></g></svg>