<svg xmlns="http://www.w3.org/2000/svg" viewBox="0 0 160 160"><circle cx="80" cy="80" r="80" fill="#ebfff1" data-name="Layer 2"/><g data-name="Layer 1" fill="none" stroke-linecap="round" stroke-linejoin="round" stroke-width="3"><path stroke="#2dd473" d="M45.5 99.5v-18h20M45.5 52.5v18h20M116.5 52.5v18h-20M116.5 99.5v-18h-20"/><circle cx="40.5" cy="52.5" r="5" stroke="#60ffa0"/><circle cx="27.5" cy="76.5" r="5" stroke="#60ffa0"/><circle cx="40.5" cy="99.5" r="5" stroke="#60ffa0"/><circle cx="121.5" cy="52.5" r="5" stroke="#60ffa0"/><circle cx="121.5" cy="99.5" r="5" stroke="#60ffa0"/><path stroke="#2dd473" d="M65.5 76.5h-32"/><circle cx="134.5" cy="74.5" r="5" stroke="#60ffa0"/><path stroke="#2dd473" d="M96.5 76.5h32"/><g data-name="smart phone"><path stroke="#99ffb8" d="M55.81 106.23h50.02M55.81 46.8h50.02M84.61 115.55a3.06 3.06 0 11-3.06-3.07 3.06 3.06 0 013.06 3.07z"/><rect x="55.5" y="35.5" width="50.64" height="89.71" rx="8.49" stroke="#2bbb66"/></g><path stroke="#99ffb8" d="M67.5 63.5h27v27h-27z"/></g></svg>