<svg xmlns="http://www.w3.org/2000/svg" viewBox="0 0 160 160"><circle cx="80" cy="80" r="80" fill="#f9f4fc" data-name="Layer 2"/><g data-name="Layer 1" fill="none" stroke-linecap="round" stroke-linejoin="round" stroke-width="4"><path d="M116.79 64.71h-.4A22.55 22.55 0 0085 48.48a22.54 22.54 0 00-41.89 16.23h-.5a22.53 22.53 0 100 45.05h74.18a22.53 22.53 0 100-45.05z" stroke="#8d2cc6"/><path d="M90.41 91.27h0a14.06 14.06 0 01-21.42 0h0a14.07 14.07 0 01-3.36-9.12V63.53l14.07-6 14.07 6v18.62a14.07 14.07 0 01-3.36 9.12z" stroke="#aa61d4"/><path stroke="#e2caf1" d="M79.7 85.02v-7.04"/><circle cx="79.7" cy="74.37" r="3.43" stroke="#c696e3"/></g></svg>