<svg id="Layer_1" data-name="Layer 1" xmlns="http://www.w3.org/2000/svg" viewBox="0 0 186.4 82"><path d="M28.62,33.43v2.13a.22.22,0,0,1-.21.23H19.24v4.35h7.55a.22.22,0,0,1,.23.21v2.16a.22.22,0,0,1-.21.23H19.24v6.44a.22.22,0,0,1-.21.23H16.71a.22.22,0,0,1-.23-.21V33.43a.22.22,0,0,1,.2-.24H28.39a.22.22,0,0,1,.23.21Z" fill="#677b8c"/><path d="M42.44,42.55c-.85-2.34-1.79-4.68-2.75-6.81h-.54c-1,2.13-1.91,4.47-2.76,6.81Zm4.85,6.86H44.77a.25.25,0,0,1-.27-.21c-.34-1.33-.74-2.73-1.21-4.14H35.54c-.46,1.41-.86,2.81-1.19,4.14a.25.25,0,0,1-.27.21H31.65c-.16,0-.25-.09-.21-.25A107.93,107.93,0,0,1,37.37,33.5a.47.47,0,0,1,.46-.31h3.29a.45.45,0,0,1,.45.31A105.24,105.24,0,0,1,47.5,49.16C47.5,49.32,47.5,49.41,47.29,49.41Z" fill="#677b8c"/><path d="M51.44,41.44c0-5,3.31-8.55,8-8.55h.34a7.21,7.21,0,0,1,6.48,3.69c.08.14.06.25-.08.32l-2,1a.3.3,0,0,1-.4-.09v0a4.29,4.29,0,0,0-4-2.27h-.35c-3,0-5,2.37-5,5.8s2,5.74,5,5.74h.35a4.75,4.75,0,0,0,4-1.67.3.3,0,0,1,.38-.08l2.1,1a.22.22,0,0,1,.12.16.36.36,0,0,1-.07.18,7.61,7.61,0,0,1-6.43,3h-.35c-4.81,0-8-3.3-8-8.27Z" fill="#677b8c"/><path d="M84.75,47.05v2.13a.22.22,0,0,1-.21.23H72.36a.22.22,0,0,1-.24-.2V33.43a.23.23,0,0,1,.22-.24h12a.22.22,0,0,1,.23.21v2.16a.22.22,0,0,1-.21.23h-9.5V40h7.67a.22.22,0,0,1,.23.21v2.13a.22.22,0,0,1-.21.23H74.88v4.24h9.64a.22.22,0,0,1,.23.21v0Z" fill="#677b8c"/><path d="M102.87,44.72c0-1.51-1-2.19-3.19-2.19H94.23v4.36h5.45C101.91,46.89,102.87,46.24,102.87,44.72Zm-4-9H94.23v4.35h4.68c2.09,0,3-.68,3-2.17s-1-2.18-3-2.18ZM105.69,45c0,2.84-2.17,4.45-6,4.45h-8a.22.22,0,0,1-.23-.21V33.43a.22.22,0,0,1,.2-.24H99c3.74,0,5.78,1.49,5.78,4.2a3.4,3.4,0,0,1-2.73,3.5c2.57.54,3.68,2.08,3.68,4.07Z" fill="#677b8c"/><path d="M119.23,47.07c3.33,0,5.43-2.28,5.43-5.77s-2.1-5.77-5.43-5.77h-.34c-3.33,0-5.42,2.29-5.42,5.77s2.09,5.77,5.42,5.77Zm-8.68-5.77c0-4.89,3.24-8.41,8.34-8.41h.34c5.1,0,8.34,3.52,8.34,8.41s-3.24,8.41-8.34,8.41h-.34C113.79,49.71,110.55,46.19,110.55,41.3Z" fill="#677b8c"/><path d="M141,47.07c3.33,0,5.43-2.28,5.43-5.77s-2.1-5.77-5.43-5.77h-.34c-3.33,0-5.42,2.29-5.42,5.77s2.09,5.77,5.42,5.77Zm-8.68-5.77c0-4.89,3.24-8.41,8.34-8.41H141c5.1,0,8.35,3.52,8.35,8.41s-3.25,8.41-8.35,8.41h-.34C135.56,49.71,132.32,46.19,132.32,41.3Z" fill="#677b8c"/><path d="M169.29,49.41h-3a.45.45,0,0,1-.41-.2,63.36,63.36,0,0,0-6.68-6.73h-1.35v6.7a.22.22,0,0,1-.21.23h-2.31a.22.22,0,0,1-.23-.21V33.43a.22.22,0,0,1,.2-.24h2.32a.22.22,0,0,1,.23.21v6.42h1.37a49.9,49.9,0,0,0,6.05-6.45.38.38,0,0,1,.35-.18h2.82c.14,0,.21.07.21.17a.3.3,0,0,1-.08.17,58.56,58.56,0,0,1-7.24,7.53,69.8,69.8,0,0,1,8.07,8.06c.13.15.06.29-.12.29Z" fill="#677b8c"/></svg>