<svg id="14626033-a656-4302-8548-b1ce57b3e0fc" data-name="Layer 1" xmlns="http://www.w3.org/2000/svg" xmlns:xlink="http://www.w3.org/1999/xlink" viewBox="0 0 186.4 82"><defs><symbol id="cbb89f57-fb91-49bd-aa81-e8c7729d7380" data-name="lyft" viewBox="0 0 177.14 128.94"><path d="M52.87,128.94c-1.16-.13-2.33-.25-3.49-.41a40.52,40.52,0,0,1-14.17-4.68c-1.21-.67-2.4-1.37-3.61-2a1,1,0,0,1-.59-1q0-10.31,0-20.62c0-.18,0-.36.06-.7l1.51.79a48,48,0,0,0,14.21,5.28c5.69,1,10.75-.45,14.75-4.87,1.79-2,4.08-6.64,4.29-8.91-.31.14-.57.24-.81.38A25.52,25.52,0,0,1,54.9,95.5c-5.9.52-11.25-.83-15.79-4.85A23.66,23.66,0,0,1,31.3,75.21a42,42,0,0,1-.3-5q0-20.72,0-41.45c0-1.08,0-1.08,1-1.08H56.53c1.06,0,1.06,0,1.06,1.07q0,16.92,0,33.84A29.32,29.32,0,0,0,57.86,67a3.7,3.7,0,0,0,5.65,2.64,3.09,3.09,0,0,0,1.3-1.6,11.65,11.65,0,0,0,.51-3.32c0-6.94,0-13.88,0-20.83q0-7.61,0-15.22c0-1,0-1,1-1q12.42,0,24.84,0c.63,0,.89.15.89.84,0,20.57,0,41.15-.06,61.72a41,41,0,0,1-4.24,18.45,35.81,35.81,0,0,1-7.13,9.53,35.84,35.84,0,0,1-18.41,10c-1.69.33-3.42.45-5.14.67-.2,0-.4.09-.6.13Z" fill="#ec196f"/><path d="M0,1.89H25.74c.94,0,.95,0,.95,1q0,29.06,0,58.13c0,4.66-.08,9.32,0,14a26.25,26.25,0,0,0,3.7,13.24,21.79,21.79,0,0,0,4.19,5l1.08.94c-1.1.58-2,1.12-3,1.55a26.87,26.87,0,0,1-9.81,2.69A20,20,0,0,1,8.78,93.9C3.61,89.62,1,84,.27,77.43.19,76.7.09,76,0,75.24Z" fill="#ec196f"/><path d="M96.33,64.53c0-10-.12-20.07,0-30.1a39.35,39.35,0,0,1,5.52-20.05A27.06,27.06,0,0,1,118.38,1.82a46.71,46.71,0,0,1,24.35-.4c11.45,3,18.62,10.29,21.83,21.59.33,1.17.56,2.38.84,3.57s-.07,1.06,1.32,1.06c2.26,0,4.52,0,6.78,0,.65,0,.88.18.88.86q0,12.9,0,25.81c0,.64-.22.84-.84.84-2.51,0-5,0-7.54,0-.87,0-1,0-.88.89a53.35,53.35,0,0,0,.74,6.3c1,4.58,3.54,6.68,8.23,7.09.78.07,1.56.14,2.35.14.55,0,.73.21.71.74,0,.71,0,1.43,0,2.14q0,11.62,0,23.25c0,1.11,0,1.09-1.15,1.13a35.14,35.14,0,0,1-18.41-4.12c-8.65-4.64-14.36-11.6-16.73-21.21a53.82,53.82,0,0,1-1.47-12.82q0-13.32,0-26.64A4,4,0,0,0,137,28.21c-4.06-2.12-11.24-1.53-13.76,5.15a16.54,16.54,0,0,0-1.09,5.88q0,1.49,0,3c0,.9,0,.91.94.91,3.34,0,6.69,0,10,0,1.91,0,1.66-.24,1.66,1.65q0,11.52,0,23c0,1,0,1-1,1H123.11c-.92,0-.93,0-.94.92,0,2.67,0,5.35-.11,8-.35,6.85-3.67,11.85-9.69,15.07a30.88,30.88,0,0,1-12.63,3.27c-.87.06-1.75.06-2.62.13-.63.05-.79-.22-.78-.8,0-3.64,0-7.29,0-10.93q0-10,0-20Z" fill="#ec196f"/></symbol></defs><title>lyft</title><use width="177.14" height="128.94" transform="translate(57 15) scale(0.41 0.41)" xlink:href="#cbb89f57-fb91-49bd-aa81-e8c7729d7380"/></svg>