<svg id="a84d86ee-f0f3-4c66-82c7-475215fe5d49" data-name="Layer 1" xmlns="http://www.w3.org/2000/svg" xmlns:xlink="http://www.w3.org/1999/xlink" width="186.4" height="82" viewBox="0 0 186.4 82"><defs><symbol id="2edf3e1a-0342-49fe-ae15-3012ab5657f1" data-name="monster" viewBox="0 0 282.27 47.03"><polygon points="0.27 0.78 21.25 21.61 43.03 0 43.03 46.87 33.26 46.87 33.14 23.15 21.83 36.27 10.31 23.89 10.11 46.87 0 46.87 0.27 0.78" fill="#87499b"/><path d="M268.11,28.32,282.27,46.2c-4.38,0-8,.08-11.59-.08-.62,0-1.27-1-1.78-1.68-3.13-4-6.22-8-9.34-12-.69-.88-1.46-1.7-2.64-3V46H247.2V2.71c6.26,0,12.41-.49,18.44.14,5.63.59,9.75,5.22,10.67,10.37,1.05,5.87-1.15,10.64-6.46,14ZM256.74,15.74c0,4.54,0,4.54,3.79,4.52,4.45,0,6.33-1.35,6.27-4.43s-2.06-4.46-6.06-4.47S256.73,11.35,256.74,15.74Z" fill="#87499b"/><path d="M91.74,27.69A19.07,19.07,0,0,1,72.66,46.87C61.48,46.8,52.79,38.4,52.81,27.69A19.19,19.19,0,0,1,72.33,8.22C83.57,8.28,91.77,16.5,91.74,27.69ZM72.21,37.46a9.71,9.71,0,0,0,10-10.06,9.79,9.79,0,1,0-19.57.31A9.61,9.61,0,0,0,72.21,37.46Z" fill="#87499b"/><path d="M133.93,47l-22.8-18.82V46h-9.25V8.27L124.56,27l0-18.74h8.71Z" fill="#87499b"/><path d="M235.41,8.77v9l-13.55-.09v5.43H233c0,2.68,0,8.88,0,8.88L221.85,32v5.26l14.18,0V46H212.27l0-37.32Z" fill="#87499b"/><path d="M168.44,12.19l-4.24,6.5a61.94,61.94,0,0,0-7.48-1.23,3.1,3.1,0,0,0-2.46,1.79,3.43,3.43,0,0,0,1.7,2.59c1.94,1.06,4.13,1.64,6.14,2.58,5.55,2.61,8.17,7.34,7.19,12.81-.94,5.26-5.72,9.23-11.59,9.6a19.2,19.2,0,0,1-15.29-5.52l4.6-6.75a68.36,68.36,0,0,0,6.52,2.93,8,8,0,0,0,4,.14,2.88,2.88,0,0,0,1.86-1.88,2.82,2.82,0,0,0-1.31-2.21,52.82,52.82,0,0,0-5.49-2.48c-6.54-2.8-9.28-7.3-8.13-13.36,1.06-5.6,6.06-9.26,12.72-9.31C161.24,8.35,165,9.07,168.44,12.19Z" fill="#87499b"/><polygon points="184.39 45.97 184.37 17.8 176.21 17.78 176.21 8.73 202.48 8.73 202.48 17.78 194.25 17.78 194.25 45.97 184.39 45.97" fill="#87499b"/></symbol></defs><title>monster</title><use width="282.27" height="47.03" transform="translate(35 32) scale(0.41 0.4)" xlink:href="#2edf3e1a-0342-49fe-ae15-3012ab5657f1"/></svg>