<svg id="Layer_1" data-name="Layer 1" xmlns="http://www.w3.org/2000/svg" viewBox="0 0 186.4 82"><title>zenefits</title><path d="M50.46,33.57a7.52,7.52,0,0,0-7.23,4.61,12.65,12.65,0,0,0-.87,5v.24c0,7.4,3.77,9.93,8.64,9.93a9.45,9.45,0,0,0,7.07-3.08.14.14,0,0,0,0-.2h0L55.75,48a.13.13,0,0,0-.2,0,5.75,5.75,0,0,1-4.47,1.89c-3.19,0-4.84-2-4.84-5.32H58.37a.15.15,0,0,0,.15-.13l0-2.9C58.55,36.83,55.57,33.57,50.46,33.57Zm4.37,7.78H46.31V41a3.7,3.7,0,0,1,.48-2,4.14,4.14,0,0,1,3.78-1.85A4.06,4.06,0,0,1,54.3,39a3.71,3.71,0,0,1,.53,2Z" style="fill:#ff5745"/><path d="M88.44,33.57a7.52,7.52,0,0,0-7.23,4.61,12.65,12.65,0,0,0-.87,5v.24c0,7.4,3.77,9.93,8.64,9.93a9.45,9.45,0,0,0,7.07-3.08.14.14,0,0,0,0-.2h0L93.73,48a.13.13,0,0,0-.2,0,5.75,5.75,0,0,1-4.47,1.89c-3.18,0-4.84-2-4.84-5.32H96.35a.15.15,0,0,0,.15-.13l0-2.9C96.53,36.83,93.56,33.57,88.44,33.57Zm4.37,7.78H84.29V41a3.7,3.7,0,0,1,.49-2,4.14,4.14,0,0,1,3.77-1.85A4.08,4.08,0,0,1,92.29,39a3.8,3.8,0,0,1,.52,2Z" style="fill:#ff5745"/><path d="M25.32,33.94v3.23a.14.14,0,0,0,.14.14h8.88l-9.47,15.6a.14.14,0,0,0,0,.2l.08,0h15.6a.15.15,0,0,0,.14-.14V49.76a.14.14,0,0,0-.14-.14H31.31L40.75,34a.15.15,0,0,0,0-.2l-.08,0H25.46a.14.14,0,0,0-.14.14Z" style="fill:#ff5745"/><path d="M127.06,28.82h-3.43a.15.15,0,0,0-.15.14v4.85h-2.54a.14.14,0,0,0-.14.14v3.23a.14.14,0,0,0,.14.14h2.54V47.43c0,4.2,3,5.84,6.39,5.84h.75a.14.14,0,0,0,.14-.14v-3.3a.15.15,0,0,0-.15-.14H130c-1.88-.08-2.83-1.06-2.83-3.3V37.31H131a.14.14,0,0,0,.14-.14V33.94a.14.14,0,0,0-.14-.14h-3.78V29A.15.15,0,0,0,127.06,28.82Z" style="fill:#ff5745"/><path d="M145.61,43.39a14.13,14.13,0,0,0-5.49-1.79c-3.1-.53-3.48-1.12-3.45-2.34a1.83,1.83,0,0,1,1-1.65,5.22,5.22,0,0,1,3-.46,5.34,5.34,0,0,1,3.49,1.59.13.13,0,0,0,.19,0h0l2.33-2.11a.13.13,0,0,0,0-.19h0A6.37,6.37,0,0,0,145.09,35a8.75,8.75,0,0,0-2.31-1,10.9,10.9,0,0,0-2.78-.38,9.61,9.61,0,0,0-3.63.66,6,6,0,0,0-2.12,1.5A5,5,0,0,0,133.11,38a6.26,6.26,0,0,0,.11,3,4.74,4.74,0,0,0,1,1.79c1.38,1.51,3.53,1.93,5.66,2.31,1.44.26,4,.37,4,2.36s-2.39,2.53-4,2.53a6.29,6.29,0,0,1-4.66-1.95.15.15,0,0,0-.2,0l-2.28,2.07a.14.14,0,0,0,0,.2,10.08,10.08,0,0,0,7.4,3c3.71,0,7.22-1.8,7.42-5.64A4.55,4.55,0,0,0,145.61,43.39Z" style="fill:#ff5745"/><circle cx="115.95" cy="27.51" r="2.63" style="fill:#ff5745"/><path d="M105.15,33.81V31.13a2.78,2.78,0,0,1,3-2.79,17.76,17.76,0,0,1,2.42.14.13.13,0,0,0,.15-.11,0,0,0,0,0,0,0v-3.2a.14.14,0,0,0-.12-.14,12.79,12.79,0,0,0-2.39-.21h-.35c-3.77,0-6.45,2.11-6.45,6v3H98.55a.13.13,0,0,0-.14.13v3.23a.14.14,0,0,0,.14.14h2.87V53a.15.15,0,0,0,.15.14H105a.14.14,0,0,0,.14-.14V37.31h8.94V53a.14.14,0,0,0,.14.14h3.44a.14.14,0,0,0,.14-.14V33.94a.14.14,0,0,0-.14-.14Z" style="fill:#ff5745"/><path d="M75.05,35.31a7,7,0,0,0-5-1.74,6.75,6.75,0,0,0-4,1,6.22,6.22,0,0,0-.75.58l-.18.16V33.94a.14.14,0,0,0-.14-.14H61.62a.14.14,0,0,0-.14.14V53a.14.14,0,0,0,.14.14h3.44A.14.14,0,0,0,65.2,53V40.35A3.07,3.07,0,0,1,66.76,38a6.14,6.14,0,0,1,3.81-.51,3.61,3.61,0,0,1,3.07,3.66V53a.14.14,0,0,0,.14.14h3.44a.14.14,0,0,0,.14-.14V41.1A7.53,7.53,0,0,0,75.05,35.31Z" style="fill:#ff5745"/><path d="M158,21.84v1.82l-11.3,5.91V27.76l4.5-2.35-4.5-1.13V22.63l6.63,1.67L155.88,23l-9.18-2.31V19ZM146.7,33.37,158,36.21V34.56l-9.18-2.31,2.54-1.33L158,32.59V30.94l-4.5-1.13,4.5-2.35v-1.8l-11.3,5.9Z" style="fill:#ff5745"/></svg>