<svg id="b36d219d-b9d5-4497-81a1-f5fe9d21aa7c" data-name="Layer 1" xmlns="http://www.w3.org/2000/svg" xmlns:xlink="http://www.w3.org/1999/xlink" width="186.4" height="82" viewBox="0 0 186.4 82"><defs><symbol id="715feeb3-2c4a-4210-b077-cd8b415fae9d" data-name="netflix" viewBox="0 0 195.82 52.58"><path d="M8.17,51.47l-8,1.09C-.07,51.6-.06,1,.19.08H7.8L18.34,29.27a.79.79,0,0,0,.18,0,.1.1,0,0,0,.06-.06,1.07,1.07,0,0,0,0-.2c0-.1,0-.2,0-.3q0-14.06,0-28.13a1.61,1.61,0,0,1,0-.2.53.53,0,0,1,0-.1l0-.09A51.32,51.32,0,0,1,26.59.12c.23.75.27,48.09,0,49.2l-8.82,1L8.44,23.44l-.24,0c-.07,1.14,0,2.28,0,3.42s0,2.35,0,3.53,0,2.29,0,3.43V51.47Z" fill="#e31e26"/><path d="M166.68.09h8.82l5.27,13.54H181L186.84.08h8.93c-.15.4-.26.74-.39,1.06-3.14,7.28-6.23,14.58-9.45,21.82a4.66,4.66,0,0,0-.05,4c3.23,8.15,6.37,16.33,9.54,24.5.13.33.24.67.41,1.14l-9.31-1.26L180.56,36h-.21l-6,13.87L165.78,49c.19-.46.31-.8.45-1.13q4.78-11.1,9.59-22.2a2.16,2.16,0,0,0,0-1.81q-4.42-11.31-8.78-22.63C166.94.86,166.83.52,166.68.09Z" fill="#e31e26"/><path d="M43,27.4V39.74l14.38-1a47.08,47.08,0,0,1,.05,8L34.84,48.47V.08H57.42a42.07,42.07,0,0,1,0,8.1H43V19.29H54.1c0,2.68,0,5.28,0,8Z" fill="#e31e26"/><path d="M93.93.08H116.7V8.18H102v10.7c3.7,0,7.35,0,11.07,0v8c-3.67,0-7.34,0-11.13,0V45.64H94C93.76,44.83,93.72,1.25,93.93.08Z" fill="#e31e26"/><path d="M71.61,46.17v-38H63.07v-8c.74-.2,24.16-.24,25.3,0v8H79.78c0,6.39,0,12.66,0,18.94s0,12.48,0,18.8Z" fill="#e31e26"/><path d="M122.17,46V.07h8.09c.12,2.53,0,5.07.05,7.61s0,5.11,0,7.66V30.56c0,2.55,0,5.1,0,7.78l14.07.81v8Z" fill="#e31e26"/><path d="M151.4.07h7.91l.09.11s.05.05.06.08a3.37,3.37,0,0,1,.06.5q0,23.6,0,47.19a2.17,2.17,0,0,1-.11.42c-2.64-.17-5.29-.4-8-.65Z" fill="#e31e26"/></symbol></defs><title>netflix</title><use width="195.82" height="52.58" transform="translate(51 30) scale(0.43 0.44)" xlink:href="#715feeb3-2c4a-4210-b077-cd8b415fae9d"/></svg>