<?xml version="1.0" encoding="utf-8"?>
<!-- Generator: Adobe Illustrator 23.0.3, SVG Export Plug-In . SVG Version: 6.00 Build 0)  -->
<svg version="1.1" id="Layer_1" xmlns="http://www.w3.org/2000/svg" xmlns:xlink="http://www.w3.org/1999/xlink" x="0px" y="0px"
	 viewBox="0 0 36.5 11.4" style="enable-background:new 0 0 36.5 11.4;" xml:space="preserve">
<style type="text/css">
	.st0{fill:#FFFFFF;}
</style>
<g>
	<path class="st0" d="M6.2,5.6C6,5.3,5.8,5.1,5.8,4.6V3c0-0.7,0-1.3-0.5-1.8c-0.4-0.4-1-0.5-1.5-0.5c-1,0-2.1,0.4-2.3,1.6
		c0,0.1,0.1,0.2,0.2,0.2l1,0.1c0.1,0,0.2-0.1,0.2-0.2C3,2,3.3,1.8,3.7,1.8c0.2,0,0.5,0.1,0.6,0.3c0.1,0.2,0.1,0.5,0.1,0.8V3
		C3.8,3.1,3,3.1,2.4,3.4C1.7,3.7,1.3,4.3,1.3,5.1c0,1.1,0.7,1.6,1.6,1.6c0.7,0,1.2-0.2,1.7-0.8c0.2,0.3,0.2,0.4,0.6,0.7
		c0.1,0,0.2,0,0.2,0l0,0C5.6,6.4,6,6,6.2,5.9C6.3,5.8,6.3,5.7,6.2,5.6L6.2,5.6z M4.3,4c0,0.4,0,0.7-0.2,1.1C4,5.4,3.7,5.6,3.4,5.6
		C3,5.6,2.8,5.3,2.8,4.8c0-0.9,0.8-1.1,1.6-1.1L4.3,4L4.3,4z M7,6.4V1c0-0.1,0.1-0.2,0.2-0.2h1c0.1,0,0.2,0.1,0.2,0.2v0.7l0,0
		c0.3-0.7,0.7-1,1.4-1s1.1,0.3,1.4,1c0.3-0.7,0.8-1,1.4-1c0.4,0,0.9,0.2,1.2,0.6C14.1,1.8,14,2.4,14,3v3.4c0,0.1-0.1,0.2-0.2,0.2h-1
		c-0.1,0-0.2-0.1-0.2-0.2V3.6c0-0.2,0-0.8,0-1c-0.1-0.4-0.3-0.5-0.6-0.5s-0.5,0.2-0.6,0.4c-0.1,0.3-0.1,0.7-0.1,1v2.9
		c0,0.1-0.1,0.2-0.2,0.2h-1c-0.1,0-0.2-0.1-0.2-0.2V3.6C9.9,3,10,2.1,9.3,2.1C8.5,2.1,8.6,3,8.6,3.6v2.8c0,0.1-0.1,0.2-0.2,0.2h-1
		C7.1,6.6,7,6.5,7,6.4L7,6.4z M22.2,8.6c-2,1.4-4.8,2.2-7.3,2.2c-3.4,0-6.5-1.3-8.9-3.4C5.8,7.2,6,7,6.2,7.1
		c2.5,1.5,5.6,2.3,8.9,2.3c2.2,0,4.6-0.5,6.8-1.4C22.2,8,22.5,8.4,22.2,8.6L22.2,8.6z M24.7,5.4v0.8c0,0.1-0.1,0.2-0.2,0.2
		c-1.1-0.6-2.5-0.6-3.6,0c-0.1,0.1-0.2-0.1-0.2-0.2V5.4c0-0.1,0-0.3,0.1-0.5l2.1-3H21c-0.1,0-0.2-0.1-0.2-0.2V1
		c0-0.1,0.1-0.2,0.2-0.2h3.4c0.1,0,0.2,0.1,0.2,0.2v0.7c0,0.1-0.1,0.3-0.3,0.5l-1.8,2.5c0.7,0,1.4,0.1,2,0.4
		C24.6,5.2,24.7,5.3,24.7,5.4L24.7,5.4z M18,2.9C17.4,3,16.6,3,16,3.3c-0.7,0.3-1.1,0.9-1.1,1.7c0,1.1,0.7,1.6,1.6,1.6
		c0.7,0,1.2-0.2,1.7-0.8c0.2,0.3,0.3,0.4,0.6,0.7c0.1,0,0.2,0,0.2,0l0,0c0.2-0.2,0.6-0.5,0.8-0.7c0.1-0.1,0.1-0.2,0-0.3
		c-0.2-0.3-0.4-0.5-0.4-1V3c0-0.7,0-1.3-0.5-1.8c-0.4-0.4-1.1-0.5-1.6-0.5c-1,0-2.1,0.4-2.3,1.6c0,0.1,0.1,0.2,0.2,0.2l1,0.1
		c0.1,0,0.2-0.1,0.2-0.2c0.1-0.4,0.4-0.6,0.8-0.6c0.2,0,0.5,0.1,0.6,0.3C18.1,2.3,18,2.6,18,2.8V2.9z M18,4c0,0.4,0,0.7-0.2,1.1
		c-0.2,0.3-0.4,0.5-0.7,0.5c-0.4,0-0.6-0.3-0.6-0.8c0-0.9,0.8-1.1,1.6-1.1L18,4L18,4z M27.6,0.7c-1.5,0-2.4,1.3-2.4,3s0.8,3,2.4,3
		c1.5,0,2.4-1.3,2.4-2.9C29.9,2,29.1,0.7,27.6,0.7L27.6,0.7z M27.6,5.6c-0.8,0-0.8-1.4-0.8-2.1s0.1-1.7,0.8-1.7
		c0.3,0,0.6,0.1,0.7,0.5s0.2,1,0.2,1.4C28.4,4.4,28.4,5.6,27.6,5.6L27.6,5.6z M34.7,1.3C35,1.8,35,2.5,35,3v3.4
		c0,0.1-0.1,0.2-0.2,0.2h-1c-0.1,0-0.2-0.1-0.2-0.2V3.5c0-0.6,0.1-1.4-0.7-1.4c-0.3,0-0.5,0.2-0.6,0.4c-0.1,0.3-0.2,0.7-0.2,1v2.9
		c0,0.1-0.1,0.2-0.2,0.2h-1c-0.1,0-0.2-0.1-0.2-0.2V1c0-0.1,0.1-0.2,0.2-0.2h1c0.1,0,0.2,0.1,0.2,0.1v0.8l0,0
		c0.3-0.7,0.7-1.1,1.4-1.1C34,0.7,34.4,0.9,34.7,1.3L34.7,1.3z M23.8,7c0.2,0.3-0.1,2.1-1.1,3c-0.2,0.1-0.3,0.1-0.2-0.1
		C22.7,9.3,23.3,8,23,7.7c-0.2-0.3-1.7-0.2-2.3-0.1c-0.2,0-0.2-0.1-0.1-0.3C21.8,6.6,23.6,6.8,23.8,7L23.8,7z"/>
</g>
</svg>
