<?xml version="1.0" encoding="utf-8"?>
<!-- Generator: Adobe Illustrator 23.0.3, SVG Export Plug-In . SVG Version: 6.00 Build 0)  -->
<svg version="1.1" id="Layer_1" xmlns="http://www.w3.org/2000/svg" xmlns:xlink="http://www.w3.org/1999/xlink" x="0px" y="0px"
	 viewBox="0 0 186.4 82" style="enable-background:new 0 0 186.4 82;" xml:space="preserve">
<title>fiverr</title>
<path d="M54.3,31.6c2.2,0,4-1.8,4-4s-1.8-4-4-4c-2.2,0-4,1.8-4,4C50.3,29.8,52.1,31.5,54.3,31.6C54.3,31.6,54.3,31.6,54.3,31.6z"/>
<path d="M58.5,34.2H40.1V33c0-2.4,2.4-2.4,3.6-2.4c0.7,0,1.4,0,2,0.1v-6.6c-1-0.1-2-0.2-2.9-0.2c-3.9,0-11,1.1-11,9.2v1h-3.4v6h3.4
	V53h-3.1v6h15.1v-6h-3.7V40.2h10.1V53H47v6h14.6v-6h-3.2V34.2z"/>
<path d="M89.8,34.2H76.6v6h2.2L76,49.2c-0.3,1.1-0.6,2.2-0.7,3.3h-0.2c-0.1-1.1-0.3-2.2-0.7-3.3l-2.8-8.9h2.2v-6H60.6v6h2.8L70.3,59
	h9.8L87,40.2h2.8V34.2z"/>
<path d="M114.2,45.6c0-6.9-4.1-12-11.6-12c-8,0-12.9,5.7-12.9,13c0,6.6,4.8,13,13.6,13c3.8,0.1,7.6-1.1,10.7-3.5l-3-5.8
	c-2.1,1.4-4.5,2.2-7,2.4c-2.8,0.2-5.3-1.8-5.8-4.6h15.8C114.1,48.1,114.2,46.4,114.2,45.6z M98.5,43.5c0.4-1.9,1.6-3.7,4-3.7
	c1.8,0,3.1,1.7,3.1,3.7H98.5z"/>
<path d="M157.5,33.8c-3.7,0-6.8,2.8-7.9,6.2h-0.1c0.1-0.4,0.1-0.8,0.1-1.3v-1.3c0-2.3-1.2-3.2-3.5-3.2h-7.9v6h2.3
	c0.5-0.1,1,0.3,1.1,0.8c0,0.1,0,0.1,0,0.2V53h-3.4v6h15.1v-6h-3.4v-3.6c0-4.5,2.2-7.5,6.8-7.5c0.6,0,1.1,0,1.7,0.1v-8.2
	C158,33.8,157.8,33.8,157.5,33.8z"/>
<path d="M127.5,39.9L127.5,39.9c0-0.4,0-0.8,0-1.3v-1.3c0-2.3-1.2-3.2-3.5-3.2h-7.9v6h2.3c0.5-0.1,1,0.3,1.1,0.9c0,0.1,0,0.1,0,0.2
	V53h-3.4v6h15.1v-6h-3.4v-3.6c0-4.5,2.2-7.5,6.8-7.5c0.6,0,1.1,0,1.7,0.1v-8.2c-0.3-0.1-0.6-0.1-1-0.1
	C131.7,33.8,128.5,36.6,127.5,39.9z"/>
</svg>
