<?xml version="1.0" encoding="utf-8"?>
<!-- Generator: Adobe Illustrator 23.0.3, SVG Export Plug-In . SVG Version: 6.00 Build 0)  -->
<svg version="1.1" id="Layer_1" xmlns="http://www.w3.org/2000/svg" xmlns:xlink="http://www.w3.org/1999/xlink" x="0px" y="0px"
	 viewBox="0 0 186.4 82" style="enable-background:new 0 0 186.4 82;" xml:space="preserve">
<style type="text/css">
	.st0{fill-rule:evenodd;clip-rule:evenodd;fill:#2164F3;}
</style>
<title>indeed</title>
<path class="st0" d="M159.2,27.9c-0.5-0.6-1.2-0.9-2-0.8c-0.8,0-1.5,0.3-2,0.9c-0.5,0.8-0.8,1.7-0.7,2.6V39c-0.9-1.1-2-1.9-3.3-2.6
	c-0.8-0.4-1.6-0.6-2.4-0.7c-0.6-0.1-1.1-0.1-1.7-0.1c-2.6-0.1-5.1,1-6.8,3c-1.7,2-2.6,4.7-2.6,8.3c0,1.6,0.2,3.1,0.7,4.7
	c0.4,1.4,1,2.6,1.9,3.7c0.8,1,1.8,1.9,3,2.5c1.2,0.6,2.5,0.9,3.8,0.8c0.6,0,1.2-0.1,1.8-0.2c0.4-0.1,0.7-0.1,1.1-0.3
	c0.9-0.3,1.7-0.7,2.4-1.3c0.8-0.6,1.6-1.3,2.3-2.1v0.5c-0.1,0.9,0.2,1.7,0.8,2.4c1,1.1,2.7,1.1,3.8,0.1c0,0,0.1-0.1,0.1-0.1
	c0.5-0.7,0.8-1.6,0.7-2.4V30.3C159.9,29.5,159.7,28.6,159.2,27.9 M153.5,51c-0.4,1-1.1,1.8-2,2.4c-0.8,0.5-1.8,0.8-2.7,0.8l0,0
	c-1,0-1.9-0.3-2.7-0.8c-0.9-0.6-1.6-1.4-2-2.3c-0.5-1.2-0.7-2.6-0.7-3.9c0-1.3,0.2-2.6,0.7-3.8c0.4-1,1-1.9,1.9-2.5
	c0.8-0.6,1.8-0.9,2.8-0.8h0.1c1,0,1.9,0.3,2.7,0.8c0.9,0.6,1.6,1.5,2,2.5c0.5,1.2,0.8,2.6,0.7,3.9c0.1,1.4-0.2,2.7-0.7,4"/>
<path class="st0" d="M136,51.2c-0.4-0.3-0.9-0.5-1.4-0.5c-0.4,0-0.9,0.1-1.2,0.4c-0.7,0.7-1.3,1.2-1.7,1.6c-0.5,0.4-1,0.8-1.5,1.1
	c-0.5,0.3-1,0.6-1.6,0.7c-0.6,0.2-1.2,0.2-1.9,0.2c-0.1,0-0.3,0-0.4,0c-0.8,0-1.6-0.3-2.3-0.7c-0.9-0.5-1.6-1.3-2-2.2
	c-0.5-1-0.8-2.2-0.8-3.4h11.1c1.2,0.1,2.4-0.2,3.4-0.6c0.8-0.4,1.2-1.4,1.2-2.8c0-1.6-0.4-3.1-1.2-4.5c-0.8-1.5-2.1-2.8-3.6-3.6
	c-1.7-1-3.7-1.5-5.7-1.4h-0.2c-1.5,0-3,0.3-4.5,0.8c-1.3,0.5-2.5,1.3-3.5,2.3c-1,1.1-1.7,2.3-2.2,3.7c-0.5,1.5-0.8,3.1-0.7,4.7
	c0,3.6,1,6.3,3,8.4c2,2.1,4.6,3,7.9,3.1c0.2,0,0.4,0,0.6,0c1.4,0,2.8-0.2,4.2-0.6c1.1-0.4,2.1-0.9,3-1.6c0.7-0.5,1.3-1.2,1.8-2
	c0.4-0.5,0.6-1.1,0.6-1.8C136.6,52.1,136.4,51.6,136,51.2 M122.8,40.9c0.9-1,2.2-1.5,3.5-1.4l0,0c1.3-0.1,2.6,0.5,3.6,1.4
	c1,1.2,1.6,2.8,1.6,4.3h-10.2C121.2,43.6,121.8,42.1,122.8,40.9"/>
<path class="st0" d="M111.9,50.8c-0.4,0-0.9,0.1-1.2,0.4c-0.7,0.7-1.3,1.2-1.7,1.6c-0.5,0.4-0.9,0.8-1.4,1.1
	c-0.5,0.3-1.1,0.6-1.6,0.7c-0.6,0.2-1.2,0.2-1.9,0.2c-0.1,0-0.3,0-0.4,0c-0.8,0-1.6-0.3-2.3-0.7c-0.9-0.5-1.6-1.3-2-2.2
	c-0.5-1-0.8-2.2-0.8-3.4h11.1c1.2,0,2.4-0.2,3.4-0.6c0.8-0.4,1.2-1.4,1.2-2.8c0-1.6-0.4-3.1-1.2-4.5c-0.8-1.5-2.1-2.8-3.6-3.6
	c-1.7-1-3.7-1.5-5.7-1.4h-0.2c-1.5,0-3,0.3-4.5,0.8c-1.3,0.5-2.5,1.3-3.5,2.3c-1,1.1-1.7,2.3-2.2,3.7c-0.5,1.5-0.8,3.1-0.7,4.7
	c0,3.6,1,6.3,3,8.4s4.5,3,7.9,3.1c0.2,0,0.4,0,0.6,0c1.4,0,2.8-0.2,4.2-0.6c1.1-0.4,2.1-0.9,3-1.6c0.7-0.5,1.3-1.2,1.8-2
	c0.4-0.5,0.6-1.1,0.6-1.8c0-0.5-0.2-1-0.5-1.3C112.9,50.9,112.4,50.7,111.9,50.8 M100.1,40.9c0.9-1,2.2-1.5,3.5-1.4l0,0
	c1.3-0.1,2.6,0.5,3.6,1.4c1,1.2,1.6,2.8,1.6,4.3H98.5C98.5,43.6,99.1,42.1,100.1,40.9"/>
<path class="st0" d="M36.7,54.8V41.3c0.4,0,0.8,0.1,1.1,0.1c1.8,0,3.5-0.5,5-1.4v14.8c0.1,1-0.2,2-0.8,2.8c-0.6,0.6-1.4,1-2.3,0.9
	c-0.8,0-1.6-0.3-2.2-1C36.9,56.8,36.6,55.8,36.7,54.8"/>
<path class="st0" d="M89.9,27.9c-0.5-0.6-1.2-0.9-2-0.8c-0.8,0-1.5,0.3-2,0.9c-0.5,0.8-0.8,1.7-0.7,2.6V39c-0.9-1.1-2-1.9-3.3-2.6
	c-0.8-0.4-1.6-0.6-2.4-0.7c-0.6-0.1-1.1-0.1-1.7-0.1c-2.6-0.1-5.1,1-6.8,3c-1.7,2-2.6,4.7-2.6,8.3c0,1.6,0.2,3.1,0.6,4.7
	c0.4,1.4,1,2.6,1.9,3.7c0.8,1,1.8,1.9,3,2.5c1.2,0.6,2.5,0.9,3.8,0.8c0.6,0,1.2-0.1,1.8-0.2c0.4-0.1,0.7-0.1,1.1-0.3
	c0.9-0.3,1.7-0.7,2.4-1.3c0.8-0.6,1.6-1.3,2.3-2.1v0.5c-0.1,0.9,0.2,1.7,0.7,2.4c1,1.1,2.7,1.1,3.7,0.1c0,0,0.1-0.1,0.1-0.1
	c0.5-0.7,0.8-1.6,0.7-2.4V30.3C90.7,29.5,90.4,28.6,89.9,27.9 M84.3,51c-0.4,1-1.1,1.8-2,2.4c-0.8,0.5-1.7,0.8-2.7,0.8l0,0
	c-1,0-1.9-0.3-2.7-0.8c-0.9-0.6-1.6-1.4-2-2.3c-0.5-1.2-0.8-2.6-0.7-3.9c0-1.3,0.2-2.6,0.7-3.8c0.4-1,1-1.9,1.9-2.5
	c0.8-0.6,1.8-0.9,2.8-0.8h0.1c1,0,1.9,0.3,2.7,0.8c0.9,0.6,1.6,1.5,2,2.5c0.5,1.2,0.8,2.6,0.7,3.9c0,1.4-0.2,2.7-0.7,4"/>
<path class="st0" d="M51.9,38.6v0.7c0.9-1.2,2-2.2,3.3-2.9c1.3-0.6,2.7-0.9,4.1-0.9c1.4,0,2.8,0.3,4,1c1.1,0.6,2.1,1.6,2.6,2.8
	c0.4,0.7,0.6,1.5,0.7,2.3c0.1,1,0.2,2,0.2,3.1v10.5c0.1,0.9-0.2,1.9-0.8,2.6c-0.5,0.6-1.3,0.9-2,0.8c-0.8,0-1.5-0.3-2.1-0.9
	c-0.6-0.7-0.8-1.6-0.8-2.5v-9.4c0.1-1.5-0.2-2.9-0.8-4.3c-0.5-1-1.6-1.5-3.1-1.5c-1,0-2,0.3-2.8,0.9c-0.9,0.6-1.5,1.5-1.8,2.5
	c-0.3,1.6-0.5,3.1-0.4,4.7v7c0.1,0.9-0.2,1.9-0.8,2.6c-0.5,0.6-1.3,0.9-2.1,0.8c-0.8,0-1.5-0.3-2-0.9c-0.6-0.7-0.8-1.6-0.8-2.5V38.7
	c-0.1-0.9,0.2-1.7,0.7-2.4c0.5-0.6,1.2-0.9,1.9-0.8c0.5,0,0.9,0.1,1.3,0.4c0.4,0.2,0.8,0.6,1,1.1C51.8,37.4,51.9,38,51.9,38.6"/>
<path class="st0" d="M36.7,22.4c3.8-1.4,8.2-1.3,11.4,1.5c0.7,0.6,1.2,1.3,1.6,2.1c0.3,1.1-1.2-0.1-1.4-0.3c-1-0.7-2.1-1.3-3.3-1.7
	c-6.4-2-12.5,1.6-16.3,7.2c-1.5,2.4-2.7,5.1-3.4,7.9c-0.1,0.3-0.2,0.7-0.3,1c-0.2,0.3-0.1-0.8-0.1-0.8c0.1-1.2,0.4-2.4,0.7-3.5
	C27.3,29.8,31.2,24.7,36.7,22.4"/>
<path class="st0" d="M41.7,37.4c-2.3,1.2-5.1,0.2-6.3-2c-1.2-2.3-0.2-5.1,2-6.3c2.3-1.2,5.1-0.2,6.3,2c0,0,0,0,0,0
	C44.9,33.5,44,36.2,41.7,37.4C41.7,37.4,41.7,37.4,41.7,37.4"/>
</svg>
