<svg xmlns="http://www.w3.org/2000/svg" viewBox="0 0 288 288"><path fill="#9CBE30" d="M148 154.6c-.5.5-19.6 25.9-64.6 19.1-36.2-5.8-49.4-26-51.9-26.4 3-3.9 30.4-25.9 62.2-25.4 31.3 1 54.3 18.6 54.3 18.6h20c-16.1-4.9-35.7-13.7-44.5-33.2-7.8-18.1-6.4-28.8-9.8-44 0 0 36.2-2.9 64.1 15.1 25.4 16.7 39.6 60.6 40.1 62.2h15.6L230 62.2l19.6.5c-3.5 20.5 1 167.3 0 167.3-1.9.5-18.6 1.4-20-2.4 0 0 3.9-71.9 4.4-73.3h-15.1c0 1-1.4 41.5-32.3 63.1s-75.3 15.1-75.3 15.1c5.4-8.3 0-17.1 15.6-41.1 10.3-15.9 24.7-28.7 41.6-37.2-1.4.4-20 .4-20.5.4zm-83.6-10.2c3.4.5 15.1 15.6 36.2 17.6 23 2.4 30.8-9.3 31.3-9.3 0-1.4-18.6-21.5-39.1-21.5-14.2.4-28.4 13.2-28.4 13.2zm134 13.1c-5.4 0-27.4 1.9-42.1 20-15.1 19.1-14.7 34.2-18.1 37.7 2.9 1 33.7 3.9 46.9-16.1 8.3-12.3 12.9-26.7 13.3-41.6zm-20.5-63c-17.1-18.6-34.2-15.6-37.2-15.1 1.4.5 2.9 32.8 21 49.9 12.2 11.3 37.2 7.3 37.2 7.3s-4.4-24-21-42.1z"/></svg>