<svg xmlns="http://www.w3.org/2000/svg" viewBox="0 0 300 300"><path fill="#E53238" d="M61.3 122.9c-16.9 0-31 7.2-31 28.8 0 17.1 9.4 27.9 31.4 27.9 25.8 0 27.5-17 27.5-17H76.6s-2.7 9.2-15.7 9.2c-10.6 0-18.3-7.2-18.3-17.3h47.8v-6.3c0-9.9-6.3-25.3-29.1-25.3zm-.5 8.1c10.1 0 17 6.2 17 15.5H42.9c0-9.8 9-15.5 17.9-15.5z"/><path fill="#0064D2" d="M90.4 102v66.8c0 3.8-.2 9.1-.2 9.1h11.9s.4-3.8.4-7.3c0 0 5.9 9.2 22 9.2 16.9 0 28.4-11.7 28.4-28.5 0-15.7-10.5-28.2-28.4-28.2-16.7 0-21.8 9-21.8 9v-30H90.4zm31 29.4c11.5 0 18.8 8.5 18.8 19.9 0 12.2-8.4 20.3-18.7 20.3-12.2 0-18.8-9.6-18.8-20.1-.1-10 5.8-20.1 18.7-20.1z"/><path fill="#F5AF02" d="M182.4 122.9c-25.4 0-27.1 13.9-27.1 16.1H168s.6-8.1 13.5-8.1c8.4 0 14.9 3.8 14.9 11.2v2.6h-14.9c-19.6 0-30.1 5.8-30.1 17.4 0 11.5 9.6 17.7 22.6 17.7 17.7 0 23.4-9.8 23.4-9.8 0 3.9.3 7.7.3 7.7h11.4s-.4-4.8-.4-7.8v-26.3c-.1-17-14-20.7-26.3-20.7zm14 29.7v3.5c0 4.6-2.8 15.9-19.3 15.9-9 0-12.9-4.6-12.9-9.7-.1-9.6 13-9.7 32.2-9.7z"/><path fill="#86B817" d="M201.8 125.2H216l20.4 40.9 20.4-40.9h12.9L232.6 198h-13.5l10.7-20.3-28-52.5z"/></svg>