<svg xmlns="http://www.w3.org/2000/svg" viewBox="0 0 533.5 544.3"><path fill="#4285F4" d="M476 277.1c0-14.5-1.2-29.1-3.7-43.4H270.9v82.2h115.3c-4.8 26.5-20.2 50-42.7 64.9v53.3h68.8c40.5-37.2 63.7-92.1 63.7-157z"/><path fill="#34A853" d="M270.9 485.6c57.6 0 106.1-18.9 141.5-51.5l-68.8-53.3c-19.1 13-43.9 20.4-72.6 20.4-55.7 0-102.9-37.6-119.9-88.1h-71v55c36.3 72 110.1 117.5 190.8 117.5z"/><path fill="#FBBC04" d="M151.1 313.1c-8.9-26.5-8.9-55.2 0-81.7v-55H80.2c-30.3 60.3-30.3 131.4 0 191.7l70.9-55z"/><path fill="#EA4335" d="M270.9 143.1c30.4-.5 59.9 11 81.9 32l61-61C375.2 78 324 58 270.9 58.7c-80.7 0-154.5 45.5-190.8 117.7l70.9 55c16.9-50.7 64.2-88.3 119.9-88.3z"/></svg>