<?xml version="1.0" encoding="utf-8"?>
<!-- Generator: Adobe Illustrator 24.0.3, SVG Export Plug-In . SVG Version: 6.00 Build 0)  -->
<svg version="1.1" id="Layer_1" xmlns="http://www.w3.org/2000/svg" xmlns:xlink="http://www.w3.org/1999/xlink" x="0px" y="0px"
	 viewBox="0 0 600 600" style="enable-background:new 0 0 600 600;" xml:space="preserve">
<style type="text/css">
	.st0{fill:#F63440;}
</style>
<path class="st0" d="M417.7,238.9h-21c-1.2,0-1.8,1.2-1.8,1.8v45.7h-21v-45.7c0-1.2-1.2-1.8-1.8-1.8h-21c-1.2,0-1.8,1.2-1.8,1.8V358
	c0,1.2,1.2,1.8,1.8,1.8h21c1.2,0,1.8-1.2,1.8-1.8v-46.9h21V358c0,1.2,1.2,1.8,1.8,1.8h21c1.2,0,1.8-1.2,1.8-1.8V240.7
	C419.5,240.1,418.9,238.9,417.7,238.9 M240.7,238.9h-21c-1.2,0-1.8,0.6-1.8,1.8v83.1c0,4.2-1.2,7.2-3,9.6c-1.8,2.4-4.2,3-7.2,3
	c-2.9,0-5.4-1.2-7.2-3c-1.8-2.4-3-5.4-3-9.6v-83.1c0-1.2-1.2-1.8-1.8-1.8h-21c-1.2,0-1.8,0.6-1.8,1.8v83.7c0,10.8,2.4,21,9,27.7
	c6.6,6.6,15.6,10.2,25.9,10.2c10.8,0,19.9-3.6,25.9-10.2c6.6-6.6,9-16.2,9-27.7v-83.7C242.6,240.1,242,238.9,240.7,238.9
	 M34.9,237.1c-10.8,0-19.9,3.6-25.9,10.2c-6.6,6.6-9,16.2-9,27.7v50c0,10.8,2.4,21,9,27.7c6.6,6.6,15.6,10.2,25.9,10.2
	c10.8,0,19.9-3.6,25.9-10.2c6.6-6.6,9-16.2,9-27.7v-27.6c0-1.2-1.2-2.4-2.4-2.4H36.7c-1.2,0-2.4,1.2-2.4,2.4v20.5
	c0,1.2,1.2,2.4,2.4,2.4h7.9v4.8c0,4.2-1.2,7.9-3,10.2c-1.8,2.4-4.2,3-7.2,3c-2.9,0-5.4-1.2-7.2-3c-1.8-2.4-3-6-3-10.2v-49.4
	c0-4.2,1.2-7.9,3-10.2c1.8-2.4,4.2-3,7.2-3c2.9,0,5.4,1.2,7.2,3c1.8,2.4,3,6,3,10.2v4.8c0,1.2,1.2,1.8,1.8,1.8h21
	c1.2,0,1.8-0.6,1.8-1.8v-4.8c0-10.8-2.4-21-9-27.7C54.8,240.6,45.1,237.1,34.9,237.1 M305.7,332.7c-1.8,2.4-4.2,3-7.9,3h-12v-25.4
	h12c3,0,5.4,1.2,7.2,3c1.8,2.4,3,5.4,3,9C308.2,327.3,307.6,330.2,305.7,332.7z M285.8,263.5h10.8c3,0,5.4,0.6,7.2,3
	c1.8,1.8,2.4,4.8,2.4,8.5s-0.6,6.6-2.4,9c-1.8,1.8-4.2,3-6.6,3h-10.8v-23.5C286.4,263.5,285.8,263.5,285.8,263.5z M320.7,297.9
	c3.6-3.6,10.2-12,10.2-22.9c0-12.7-4.8-20.5-8.5-24.7c-6.6-7.2-15.6-10.8-25.9-10.8h-32.9c-1.2,0-1.8,1.2-1.8,1.8v117.4
	c0,1.2,1.2,1.8,1.8,1.8h34.9c10.8,0,21-4.2,27.7-12.7c3.6-4.8,7.9-12.7,7.9-24.7C333.4,308.7,324.4,300.2,320.7,297.9L320.7,297.9z
	 M129.4,286.4c-1.8,2.4-4.8,3.6-8.5,3.6h-10.2v-26.4h10.2c3.6,0,6.6,1.2,8.5,3.6c2.4,2.4,3,5.4,3,9.6S131.9,283.9,129.4,286.4
	L129.4,286.4z M142.7,308c2.4-1.8,4.2-3,6-5.4c4.2-4.8,9.6-13.3,9.6-26.5c0-12.7-4.8-21-9.6-25.9c-6-7.2-15-10.8-25.3-11.4H88.5
	c-1.2,0-1.8,1.2-1.8,1.8V358c0,1.2,1.2,1.8,1.8,1.8h21c1.2,0,1.8-1.2,1.8-1.8v-43.4h7.2l13.3,44.5c0,0.6,1.2,1.2,1.8,1.2h22.2
	c0.6,0,1.2-0.6,1.8-0.6c0.6,0,0.6-1.2,0.6-1.8L142.7,308L142.7,308z M571.1,332.7c-1.8,2.4-4.2,3-7.9,3h-12v-25.4h12
	c3,0,5.4,1.2,7.2,3c1.8,2.4,3,5.4,3,9C574.1,327.3,573,330.2,571.1,332.7L571.1,332.7z M551.8,263.5h10.8c3,0,5.4,0.6,7.2,3
	c1.8,1.8,2.4,4.8,2.4,8.5s-0.6,6.6-2.4,9c-1.8,1.8-4.2,3-6.6,3h-10.8v-23.5H551.8z M586.7,297.9c3.6-3.6,10.2-12,10.2-22.9
	c0-12.7-4.8-20.5-8.5-24.7c-6.6-7.2-15.6-10.8-25.9-10.8h-33.2c-1.2,0-1.8,1.2-1.8,1.8v117.4c0,1.2,1.2,1.8,1.8,1.8h35.1
	c10.8,0,21-4.2,27.7-12.7c3.6-4.8,7.9-12.7,7.9-24.7C598.8,308.7,589.8,300.2,586.7,297.9L586.7,297.9z M506.1,238.9h-21
	c-1.2,0-1.8,0.6-1.8,1.8v83.1c0,4.2-1.2,7.2-3,9.6s-4.2,3-7.2,3c-2.9,0-5.4-1.2-7.2-3c-1.8-2.4-3-5.4-3-9.6v-83.1
	c0-1.2-1.2-1.8-1.8-1.8H440c-1.2,0-1.8,0.6-1.8,1.8v83.7c0,10.8,2.4,21,9,27.7c6.6,6.6,15.6,10.2,25.9,10.2
	c10.8,0,19.9-3.6,25.9-10.2c6.6-6.6,9-16.2,9-27.7v-83.7C508.6,240.1,507.4,238.9,506.1,238.9"/>
</svg>
