<svg xmlns="http://www.w3.org/2000/svg" xmlns:xlink="http://www.w3.org/1999/xlink" viewBox="0 0 300 300"><symbol id="c" viewBox="-111.9 -39.2 223.8 78.3"><path fill="#142A4F" d="M-32.3 14.1c-.3-.1-.7-.1-1-.1h-23.1c-1 0-1 0-1.4.9-2.5 6.7-4.9 13.3-7.3 20-.1.2-.1.5-.2.9.4 0 .8.1 1.1.1h8.6v1.9h-21v-1.9c.3 0 .7-.1 1-.1h6.9c1.1 0 1.1 0 1.4-1l7.3-20 19.5-53.4.3-.6h1.5l19.9 51.1c-2.4.1-4.7 0-7 0h-6.8l.3 2.2zm-24.4-2.4c1.1.3 22.9.3 23.7 0 0-.2-.1-.4-.1-.6-3.8-10.6-7.6-21.2-11.5-31.8-5.8-15.9 0 0-.1 0h-.2s-11.8 32.5-11.8 32.4zm61.3.1c-.4 0-.7.1-1 .1h-9.5c-1 0-1 0-1.2-1-2.3-9.6-1.4-19.6 2.3-28.7 2.4-6.1 6.4-11.4 11.6-15.3 4.3-3.3 9.5-5.3 14.9-5.8 4.1-.4 8.3.1 12.2 1.4 2.3.8 4.6 1.3 7 1.6 1.3.2 2.6-.1 3.7-.8.8-.5 1.3-1.3 1.7-2.1h1.9c.1.2.1.5.1.7v22c0 .2 0 .4-.1.6-.6.2-1.3.3-1.9.1-.1-.8-.1-1.6-.2-2.4C44.9-30.6 33.8-37.2 24.4-37c-2 0-4 .3-5.9.8-4.3 1.2-7.9 4.3-9.7 8.4-1.8 3.7-2.9 7.7-3.5 11.7-1.4 9-1.6 18.1-.7 27.2v.7zm-116.5-47v-2h31v1.9c-3.2.2-6.3 0-9.6.1-.1 1.8 0 3.5 0 5.3v41.7c-3.9.3-7.8.3-11.7.1 0-.4-.1-.8-.1-1.2V-35c-1.1-.1-2.1-.1-3.2-.1h-3.2l-3.2-.1zm223.8 1.5c-.1.2-.2.5-.4.7-3.3 5.5-6.7 11-10 16.4-.4.6-1 1.1-1.7 1.3-3.9 1.2-7.9 2.5-11.8 3.7-.7.2-1.3.7-1.5 1.4-5.6 15.3-11.2 30.3-16.8 45.4-.2.6-.5 1.1-.9 1.6 0-.2-.1-.4-.1-.6V3.9c0-.6.3-1.1.7-1.5 6.9-5.9 13.8-11.9 20.7-17.8L111-33.1l.9-.6z"/><path fill="#142A4F" d="M-32.3 14.1c.4 0 .8-.1 1.2-.1H-19c1 0 1 0 1.4 1 2.6 6.5 5.1 12.9 7.6 19.4l.2.5c.4 1 .4 1 1.4 1h5.8v1.9c-.7.1-30.4.1-31.4 0v-1.9h9.8c-.1-.3-.1-.6-.2-.9-2.5-6.8-5-13.5-7.5-20.2-.1-.4-.3-.6-.4-.7zm26-.1H4.8c.2.8.3 1.6.4 2.4.6 4 1.7 8 3.4 11.7 1.4 3.3 3.9 6 7.1 7.6 2.2 1 4.6 1.6 7 1.7 4.4.4 8.8-.4 12.8-2.2C42.1 32 46 26.6 47.6 19.5c.3-1.6.5-3.2.6-4.8 0-.3.1-.5.1-.9h1.9V39h-2c-1.3-2.4-4.1-3.6-6.8-2.9-1 .2-2 .6-3 .9-2.3.6-4.6 1.3-6.9 1.9-.5.1-1.1.2-1.6.2h-8.7c-1.8 0-3.5-.3-5.2-.8C10 36.4 4.7 32.8.8 27.8-2.3 24-4.6 19.7-6.1 15c0-.3-.1-.6-.2-1zm-96 0h11.8v21.7c1 .1 2.1.2 3.2.1h6.4v2s0 .1-.1.1c-.2 0-.4.1-.6.1h-29.9c-.1 0-.3-.1-.4-.1v-2c3.2-.2 6.3 0 9.6-.1 0-.5.1-.9.1-1.3l-.1-20.5z"/><path fill="#FBED21" d="M101.1-15.6L69.2 37h-.1c.4-1.2.9-2.4 1.3-3.6l3.4-9.3c1-2.7 2-5.3 3-7.9 1.1-3 2.2-6 3.4-9L83.6-2c1.1-2.8 2.1-5.6 3.1-8.5.1-.5.5-.8 1-1 3.5-1.1 6.9-2.2 10.4-3.2.8-.2 1.5-.5 2.3-.8.1.1.3.1.7-.1zM-59 11.9c-.3.7-.5 1.3-.7 1.9 0 .1-.2.2-.3.2h-41.6c-.7 0-.7 0-.7-.7 0-1.5 0-1.5 1.4-1.5h41.1l.8.1zm26.2 0h37c.4 0 .6.1.6.5s.1.8.2 1.2c0 .3-.1.4-.4.4h-36.2c-.5 0-.7-.2-.8-.6s-.2-1-.4-1.5z"/></symbol><defs><path id="a" d="M38.4 111H261v77.9H38.4z"/></defs><clipPath id="b"><use xlink:href="#a" overflow="visible"/></clipPath><g clip-path="url(#b)"><use xlink:href="#c" width="223.8" height="78.3" x="-111.9" y="-39.2" transform="translate(149.685 149.948) scale(.9948)" overflow="visible"/></g></svg>