<svg xmlns="http://www.w3.org/2000/svg" viewBox="0 0 288 288"><path fill-rule="evenodd" clip-rule="evenodd" fill="#2164F3" d="M139.7 240.3v-88.2c2.5.3 5 .3 7.4.3 11.6 0 22.9-3 32.9-9v96.9c0 8.4-1.9 14.4-5.7 18.4s-9.1 6.3-14.6 6.1c-5.5.2-10.7-2.2-14.4-6.3-3.6-3.9-5.5-10-5.6-18.2m.3-211.5c25-9 53.3-8.5 74.7 9.9 4 3.7 8.5 8.4 10.3 13.9 2.2 7-7.6-.7-8.9-1.7-6.7-4.6-14-8.3-21.7-11-42-13-81.7 10.4-106.4 46.8-10.4 16-17 32.9-22.5 51.5-.4 2.3-1.2 4.4-2.2 6.4-1 2-.4-5.6-.4-5.7.9-7.6 2.3-15.1 4.3-22.5 11.4-39.5 36.5-72.5 72.8-87.6"/><path fill-rule="evenodd" clip-rule="evenodd" fill="#2164F3" d="M172.4 127c-15 7.6-33.2 1.7-40.9-13.3s-1.7-33.2 13.3-40.9c15-7.6 33.2-1.7 40.9 13.3 7.7 14.9 1.7 33.1-13.1 40.8 0 .1-.1.1-.2.1"/></svg>