<svg viewBox="0 0 300 300" xmlns="http://www.w3.org/2000/svg"><path d="M38.763 70.769H72.03v89.28c0 14.129 6.463 22.546 11.573 26.153-5.409 4.81-21.944 9.017-34.269-1.203-7.265-6.025-10.571-15.932-10.571-25.25zm207.903 74.163v-9.383h10.145v-32.914h-11.142c-4.277-19.762-21.871-34.571-42.911-34.571-24.239 0-43.889 19.65-43.889 43.889v76.867c6.906.971 15.132-.12 22.133-5.924 7.265-6.027 10.57-15.931 10.57-25.252v-2.831h16.614v-32.916h-16.614v-9.944h.039c0-6.156 4.99-11.146 11.147-11.146 6.155 0 11.164 4.99 11.164 11.146v32.979c0 24.239 19.67 43.888 43.909 43.888v-32.742c-6.155 0-11.165-4.991-11.165-11.146zm-125.993-42.297v48.306c0 2.743-2.274 4.966-5.082 4.966s-5.083-2.223-5.083-4.966v-48.306H77.591v56.813c0 10.22 3.465 23.147 19.239 27.355 15.791 4.213 24.951-4.509 24.951-4.509-.835 5.746-6.248 9.955-14.965 10.857-6.595.682-15.029-1.502-19.237-3.307v30.1c10.72 3.162 22.061 4.184 33.159 2.03 20.14-3.908 32.851-20.741 32.851-43.137v-76.202z" fill="#EA0B8C" fill-rule="evenodd"/></svg>