<svg xmlns="http://www.w3.org/2000/svg" viewBox="0 0 288 288"><path fill="#2298D5" d="M96.1 235.6c-.8 5.2-1.7 10.4-2.5 15.5-.7 4.8 1.4 7.3 6.2 7.3h35.8c4.5.2 8.4-2.9 9.1-7.4 1.3-7.3 2.4-14.7 3.6-22 1.4-8.7 2.8-17.5 4.2-26.3.2-2.8 1.9-5.3 4.4-6.5 1.9-.9 4.1-1.4 6.2-1.4 10.7 0 21.2-.6 31.5-3.6 12.9-3.7 23.8-10.3 31.7-21.2 10.9-15.1 15.4-32.3 14.7-50.8-.4-13.2-6.1-24.3-18-31.2l-.6-.4s-5.3 22.8-11.3 33.5c-9.4 16.6-23.9 26.7-42.2 31.8-9.6 2.5-19.4 3.7-29.4 3.7-6.8 0-13.7.2-20.5 0-6.8-.2-11.1 3.5-12.1 10.4-3 19.1-6 38.4-9.1 57.6-.4 2.7-.9 5.3-1.5 8.1l-.2 2.9z"/><path d="M53 233h.2c6.7-.1 13.5-.1 20.2-.1-6.8-.1-13.6 0-20.4.1z"/><path fill="#263A82" d="M169.1 153.2c18.3-5 32.8-15.2 42.2-31.8 8.3-14.6 12.6-31.1 12.1-47.9-.4-14.9-7.3-26.3-20-34.2-8.8-5.4-18.7-7.5-28.8-8.7l-2.2-.2c-5.7-.6-11.4-.9-17.1-.9H87.7c-1.2 0-2.3.2-3.5.6-4 1.2-7 4.6-7.5 8.7-.5 3.1-1 6.1-1.5 9.2-2.2 13.8-4.4 27.5-6.6 41.2-2.1 13-4.2 26-6.2 39-1.9 12.4-4 24.7-5.9 37.1l-5.9 37.1-3.6 23c-.8 5.3 2.8 7.7 6.6 7.7 6.8-.1 13.7-.1 20.5-.1h22.4c.5-2.8 1-5.3 1.4-8 3-19.1 6.1-38.7 9.1-57.9 1.1-6.8 5.4-10.4 12-10.4h.7c2.5 0 5 .1 7.6.1h12.6c9.8.2 19.7-1.1 29.2-3.6z"/><path fill="#232C66" d="M107.8 163.8c0-.6 9.2-54.8 12.6-75.1.7-4.4 4.5-7.6 8.9-7.6h56.9c13.6.2 26.2 1.4 36.4 6.7-10.8 67.3-58.2 70.7-102.8 69.3-6.6-.2-10.4 2.4-12 6.7z"/></svg>