<svg xmlns="http://www.w3.org/2000/svg" viewBox="0 0 288 288"><path fill="#231F20" d="M252.5 131.3c-8.9-13.9-27.5-17.9-41.4-8.9-2.4 1.6-4.6 3.4-6.5 5.7l-10.7-8c2.6-1.1 8.3-3.5 8.6-5.1.2-.9-2.6-1.5-7-1.8l20-18.3c.2-.2.2-.3.1-.5l-5.1-9.7c-.1-.2-.3-.2-.5-.2l-20.8 19.1c-6.2 0-17.3.8-20.5-1.1-5.1-3.2-5.7-7.9-7.5-9.6-1.8-1.7-3.9-1.9-4.5-3.4 0-.1 0-.2.1-.2 1-.2 6.5-1.8 7.7-5.6 1.2-3.9-1.3-9-1.7-9.8v-.2l5.7-5.1c.1-.1.1-.2 0-.2h-.1l-8.6.9-.2-.1c-.7-.8-4-4.5-10.7-1.7-8.1 3.4-6.6 10.3-6.6 10.3 1.1 7.2 3.6 8.7 7.7 11.1.1 0 .2.2 0 .2-2.6 2.2-29.2 24-53.8 32.5-.2.1-.4.3-.2.6.1.2.2.2.2.2 7.1 3.1 28.4 1.5 34.7-2.2.1-.1.2 0 .2.1v.1c-.7 2.6-4.4 18 1.5 22.8l.3.2-7.9 5.6c-.9.7-1.1 1.9-.5 2.8.4.6 1.1.9 1.8.8l4.1-.4c2.6-.2 5.1-1.4 7-3.3l1.3-1.3 11.5 8.5-1.3 12.1c-16.5-.9-30.5 11.7-31.4 28.2-.9 16.5 11.7 30.5 28.2 31.4s30.5-11.7 31.4-28.2c.3-5.5-.9-11-3.5-15.8l3-1.9c3 2.7 7.5 2.5 10.2-.5 1.7-1.8 2.3-4.4 1.6-6.8l12.1-3.5a2 2 0 001.4-2.3l-.1-.4c-.2-.9-1.1-1.6-2-1.5h-10.3l-.2-.1-3.1-7 6.1-36.2 9.9 7.4c-8.9 13.9-4.8 32.3 9.1 41.1 13.9 8.9 32.3 4.8 41.1-9.1 6.3-9.4 6.3-21.9.1-31.7zm-82.2-22.4l14-.2 1.8 3.4c-3.2.1-6.6.4-9.9.8-2.4.2-5.2-2.8-6.1-3.7-.1 0-.2-.1-.2-.2s.1-.2.2-.2.1 0 .2.1zm-21 22.2c1.2-2 8-13.4 8.9-17.2 0-.1.1-.2.2-.2h.1c4.5 5.2 14.1 8.4 14.8 8.6h.2l12.3-3.8 2.8 2-12.9 11.7c-1.4-1.2-3.1-2-5-2.2-7.5-1-19 .7-21.1 1.1-.1.2-.3.2-.3 0 0 0 0-.2.1-.2l-.1.2zm31.6 38.4c-.8.1-1.6.3-2.4.7l-8.8-6.7v-.2l4.5-9.2c.1-.1.2-.1.2 0h.1l7.2 11.3-.8 4.1zm-18.6-10.1l-6-4.5 11.6-10.6-5.6 15.1zm0-15.5l-9.3 8.6-9.4-7c6.2 0 12.5-.6 18.7-1.6zm-7.8 14.8l6.1 4.6-.7 2c-.5 1.5.2 3 1.6 3.5l12.9 4.7.4.2c-.6 1.5-.7 3-.2 4.6l-2.9 1.9c-4.4-6.1-11.1-10.3-18.5-11.7l1.3-9.8zm-1.8 16.1c5.7 1.1 10.7 4.3 14.1 8.9l-16.5 10.4 2.4-19.3zm7.8 43.2c-11 7-25.7 3.9-32.7-7.1-7-11-3.9-25.7 7.1-32.7 4-2.6 8.8-3.9 13.6-3.8l-3 23.6c-.1 1.1.7 2 1.8 2.2.4 0 .8-.1 1.2-.2l20.1-12.8c5.7 10.8 2.2 24.1-8.1 30.8zm17.2-77.6c.2-1.8-.1-3.4-.6-5.1l10.9-10-4.7 27.7-5.6-12.6zm62.8 26.8c-10.9 7.2-25.5 4.2-32.7-6.7-5.2-7.8-5.2-17.8-.2-25.7l18.8 14c.7.5 1.6.5 2.3.1.2-.2.4-.3.6-.5.7-.9.5-2.1-.4-2.8l-18.8-14c1.5-1.7 3.2-3.1 5.1-4.3 10.4-7.9 25.2-5.8 33.1 4.6 7.9 10.4 5.8 25.2-4.6 33.1-.7.6-1.6 1.1-2.4 1.6-.2.2-.6.4-.9.6h.1z"/><path fill="#231F20" d="M180.4 98.5l7 .4c.3 0 .7-.1.9-.3l17.1-16.1c.1-.2.1-.3 0-.4-.1-.1-.1-.1-.2-.1l-6.7-.4c-.5 0-1 .2-1.3.5l-16.9 15.8c-.2.1-.2.3.1.6-.3 0-.1 0 0 0zM89.6 199.2l-10.9 6.6-10.4-8.4 3.3 13-10.7 7 13 1.4 3.8 12.9 4.8-12.1 13 .8-10.1-8.9 4.2-12.3zm12.8-46.8L91.5 159l-10.4-8.4 3.3 13-10.7 7.1 13 1.4 3.9 12.9 4.8-12.1 13 .8-10-8.9 4-12.4zm-51.1 25.1l4.3-12.3-11 6.6-10.3-8.5 3.3 13-10.7 7.1 13 1.4 3.9 12.9 4.7-12.1 13 .8-10.2-8.9z"/></svg>