<svg xmlns="http://www.w3.org/2000/svg" viewBox="0 0 288 288"><circle fill="#FF4500" cx="144" cy="144.2" r="110"/><path fill="#FFF" d="M236.5 144.2c0-11.2-9-20.2-20.2-20.2-5.3 0-10.3 2-14.1 5.7-13.8-10-32.9-16.4-54.1-17.2l9.2-43.4 30.1 6.4c.4 8 7.3 14.1 15.2 13.7 8-.4 14.1-7.3 13.7-15.2s-7.3-14.1-15.2-13.7c-5.3.3-10 3.4-12.3 8.2l-33.5-7.2c-1.9-.4-3.8.9-4.2 2.8l-10.3 48.4c-21.6.6-40.9 7.1-54.9 17.2-8.1-7.7-20.9-7.4-28.6.6-7.7 8.1-7.4 20.9.6 28.6 1.6 1.6 3.5 2.8 5.6 3.8-.3 2-.5 4.1-.5 6.1 0 31.1 36.2 56.4 81 56.4s81-25.2 81-56.4c0-2-.2-4.1-.5-6.1 7.2-3.2 12-10.5 12-18.5zM97.7 158.7c0-8 6.5-14.5 14.4-14.5 8 0 14.5 6.5 14.5 14.4s-6.5 14.5-14.4 14.5c-8 0-14.4-6.4-14.5-14.4zm80.7 38.1c-9.9 9.9-28.8 10.6-34.3 10.6s-24.5-.8-34.3-10.6c-1.5-1.5-1.5-3.8 0-5.3s3.8-1.5 5.3 0c6.2 6.2 19.5 8.5 29 8.5s22.8-2.2 29-8.5c1.5-1.5 3.8-1.5 5.3 0 1.4 1.5 1.4 3.9 0 5.3zm-2.6-23.7c-8 0-14.5-6.5-14.5-14.5s6.5-14.5 14.5-14.5 14.5 6.5 14.5 14.5-6.5 14.5-14.5 14.5z"/></svg>