<?xml version="1.0" encoding="utf-8"?>
<!-- Generator: Adobe Illustrator 24.0.3, SVG Export Plug-In . SVG Version: 6.00 Build 0)  -->
<svg version="1.1" id="Layer_1" xmlns="http://www.w3.org/2000/svg" xmlns:xlink="http://www.w3.org/1999/xlink" x="0px" y="0px"
	 viewBox="0 0 300 300" style="enable-background:new 0 0 300 300;" xml:space="preserve">
<style type="text/css">
	.st0{fill:#221F20;}
</style>
<symbol  id="snapchat" viewBox="-125.3 -29.7 250.5 59.4">
	<path class="st0" d="M-124.5,14.3c0-4-0.4-8.5-0.7-12c-0.1-0.8,0.5-1.5,1.2-1.6h0.1c0.7-0.1,1.4,0.3,1.6,1.1c0.4,1.8,1.1,3.5,2.1,5
		c2.1,3.7,6,6,10.3,6.1c4.7,0,8.1-3.3,8.1-7.4c0-3.8-3.1-5.4-9.2-7.7c-1.8-0.8-3.6-1.4-5.4-2.2c-2.5-1.2-8.3-3.9-8.3-11.5
		c0-8.4,6.8-13.4,15.4-13.4c2.8,0,5.5,0.5,8.1,1.7c0.7,0.3,1.4,0.1,1.8-0.5l0.5-0.8c0.4-0.7,1.3-0.9,2-0.5c0.4,0.2,0.6,0.7,0.7,1.1
		c0.3,3.5,0.7,7.1,1.1,10.5c0.4,0.7,0.2,1.6-0.6,2c-0.7,0.4-1.6,0.2-2-0.6c-0.1-0.1-0.1-0.2-0.1-0.3c0-0.1-0.1-0.3-0.1-0.4
		c-0.5-1.5-1.2-3-2.1-4.3c-2-2.8-4.8-4.7-8.2-4.7c-3.7-0.1-6.8,2.8-7,6.5c0,3.3,3,4.8,4.3,5.4c2.7,1.3,5.5,2.2,8.2,3.3
		c4.5,1.8,10.6,4.4,10.6,12.6s-6.4,14.8-16.7,14.8c-3.6,0.1-7.2-0.9-10.3-2.8c-0.7-0.4-1.6-0.2-2,0.4c0,0,0,0,0,0l0,0l-0.6,0.9
		c-0.2,0.4-0.7,0.7-1.1,0.7h-0.1c-0.8,0.1-1.5-0.5-1.6-1.3c0,0,0,0,0,0C-124.5,14.4-124.5,14.4-124.5,14.3 M-90.8,14
		c0-0.6,0.4-1.1,1-1.2c0.9-0.2,2.1-0.6,2.2-1.8c0.2-1.4,0.2-5.2,0.2-6.1c0-2.2-0.1-5.7-0.1-7.9c0-3.1-1-4-2.5-4.4
		c-0.5-0.1-0.9-0.6-0.9-1.2v-0.1c0-0.6,0.4-1.1,1-1.2c3.5-0.7,6.9-1.6,10.2-2.7c0.7-0.2,1.4,0.1,1.6,0.8l0,0
		c0.1,0.2,0.1,0.3,0.2,0.5c0.2,0.7,0.9,1,1.5,0.9c0,0,0,0,0,0c0.1,0,0.2-0.1,0.3-0.1c2.3-1.5,5-2.3,7.8-2.4c2.4,0,4.7,0.7,6.6,2
		c3,2.1,3.5,5.3,3.8,8.7v5.5c0,0.9-0.1,5.8-0.1,6.8c0,1.6,0.4,2.5,2.5,2.9c0.6,0.1,1,0.6,1,1.2c0,0.7-0.5,1.2-1.2,1.2h-0.1
		c-1.8-0.1-4.4-0.2-8.8-0.2c-2.5,0-3.8,0.1-5.1,0.2c-0.7,0.1-1.3-0.5-1.4-1.2v-0.4c0-0.6,0.4-1.1,0.9-1.2c1.8-0.5,2-1.4,2-5.1
		l-0.1-9.7c-0.1-3-0.2-6.4-4.2-6.4c-1.5,0-3,0.6-4.2,1.6c-0.3,0.2-0.5,0.6-0.5,1.1C-77-2.9-77,5.9-77,8.7s0.5,3.6,2,4
		c0.5,0.2,0.9,0.6,0.9,1.2V14c0,0.7-0.6,1.3-1.3,1.3h-0.1c-2.1-0.1-4.8-0.2-9.9-0.2c-2,0-3.1,0.1-4.1,0.2c-0.7,0.1-1.3-0.4-1.4-1.1
		L-90.8,14L-90.8,14z M-36.8,3.7c0-0.7-0.6-1.3-1.2-1.3c0,0,0,0,0,0c-0.1,0-0.2,0-0.3,0c-2.1,0.5-4.9,1.7-4.9,5
		c0,1.7,0.9,3.5,3.2,3.5c1,0,1.9-0.3,2.7-0.9c0.3-0.2,0.5-0.6,0.6-1L-36.8,3.7z M-22.5,10.8c0.5,0.4,0.6,1.2,0.2,1.8l-0.1,0.1
		c-3,3-5.9,3.6-7.6,3.6c-1.7,0-3.3-0.6-4.6-1.5c-0.4-0.3-0.8-0.7-1.2-1.2c-0.4-0.5-1.2-0.7-1.7-0.3c-2.7,1.9-5.9,2.9-9.1,3.1
		c-5.7,0-7.1-3.8-7.1-6.1c0-7.1,10.9-10,15.8-10.9c0.6-0.1,1-0.6,1-1.2c0.1-1.7,0-3.3-0.2-5c-0.7-2.2-3.2-2.2-3.5-2.2
		c-1.6-0.1-3.1,1-3.5,2.6c-0.2,0.8-0.2,1.7-0.4,2.5c-0.4,1.8-2,3-3.8,3c-1.9,0.1-3.6-1.3-3.7-3.3c0-0.1,0-0.2,0-0.3
		c0-4.6,8.5-8.3,16.2-8.3c5.3,0,9.2,1.7,9.2,6.9l-0.1,13.8c-0.1,1-0.1,3.5,1.5,3.5c0.4,0,0.8-0.2,1.1-0.5
		C-23.6,10.4-23,10.4-22.5,10.8L-22.5,10.8z"/>
	<path class="st0" d="M-5.1,12.1c4.6,0,6.3-6.4,6.3-10.6C1.2-3-0.7-8.9-5.3-8.9c-4.2,0-4.2,4.3-4.2,5.6S-9.3,5-9.3,6.6
		C-9.3,8.6-9.3,12.1-5.1,12.1z M-19.6-2.6c0.1-4.7-0.6-5.9-2.7-6.4c-0.5-0.2-0.9-0.6-0.9-1.2v-0.3c0-0.6,0.4-1.1,1-1.2
		c3.6-0.5,7.3-1.2,10.8-2.2c0.6-0.2,1.3,0.2,1.4,0.8c0,0,0,0,0,0.1c0.1,0.3,0.1,0.6,0.2,1.1c0.1,0.6,0.7,1.1,1.3,1c0,0,0,0,0,0
		c0.1,0,0.3-0.1,0.4-0.2c2.3-1.6,5.1-2.4,7.9-2.4c7.5,0,12.1,6.5,12.1,13.3c0,9.4-6.6,15.9-14.4,15.9c-1.8,0-3.7-0.4-5.3-1.2
		c-0.6-0.3-1.3-0.1-1.6,0.5c0,0,0,0,0,0c-0.1,0.2-0.2,0.4-0.2,0.6v7.2c0,2.4,0.2,4.2,2.7,4.7c0.6,0.1,1,0.6,1,1.2
		c0,0.7-0.5,1.2-1.2,1.2l0,0c-3.1-0.1-6.1-0.1-9.2-0.2c-2.3,0-3.8,0-5.8,0.1c-0.7,0-1.2-0.5-1.2-1.1v-0.2c0-0.6,0.4-1.1,1-1.2
		c2.3-0.4,2.5-1.7,2.5-3.4c0.1-1.2,0.1-4.8,0.1-6.2L-19.6-2.6z M44.6,15.3c-2.5-0.2-4.2-0.2-10.8-0.2c-3.6,0-5,0-7.2,0.2
		c-0.8,0.1-1.4-0.5-1.5-1.3c0-0.7,0.5-1.4,1.2-1.5C29.8,12,30,10.8,30,2.9v-19.7c-0.1-4.7-0.1-6.1-0.6-7c-0.5-1.1-1.2-1.4-3.1-1.7
		c-0.7-0.1-1.2-0.7-1.2-1.4c0-0.8,0.6-1.4,1.4-1.5c0,0,0.1,0,0.1,0c3.5,0.1,7,0.1,10.4,0.1c3.5,0,5.7-0.1,7.7-0.1
		c0.8-0.1,1.5,0.5,1.5,1.3c0.1,0.8-0.5,1.5-1.3,1.5c0,0,0,0-0.1,0c-3.7,0.5-3.7,1.6-3.7,9.8l0.1,19.2c0.1,6.5,0.2,6.9,0.9,7.9
		c0.7,0.7,1.6,1.1,2.6,1.1c0.7,0.1,1.2,0.7,1.2,1.4c0,0.8-0.6,1.4-1.4,1.4H44.6z M46.6,14c0-0.6,0.4-1.1,1.1-1.2
		c0.9-0.2,2.1-0.6,2.2-1.8c0.2-1.4,0.2-5.2,0.2-6.1C50.1,2.7,50-0.8,50-3c0-3.1-1-4-2.5-4.4C47-7.5,46.6-8,46.6-8.6v-0.1
		c0-0.6,0.4-1.1,1.1-1.2c3.5-0.7,6.9-1.6,10.2-2.7c0.7-0.2,1.4,0.1,1.6,0.8l0,0c0,0.2,0.1,0.3,0.1,0.5c0.2,0.7,0.9,1.1,1.6,0.9
		c0.1,0,0.2-0.1,0.3-0.1c2.3-1.5,5-2.3,7.8-2.4c2.4,0,4.7,0.7,6.6,2c3,2.1,3.5,5.3,3.8,8.7c0,0,0,0.1,0,0.1v5.3
		c0,0.9-0.1,5.8-0.1,6.8c0,1.6,0.4,2.5,2.5,2.9c0.6,0.1,1,0.6,1,1.2c0,0.7-0.6,1.2-1.3,1.2h-0.1c-1.8-0.1-4.4-0.2-8.8-0.2
		c-2.5,0-3.8,0.1-5.1,0.2c-0.7,0.1-1.3-0.4-1.4-1.1c0,0,0,0,0,0c0,0,0-0.1,0-0.1v-0.3c0-0.6,0.4-1.1,0.9-1.2c1.8-0.5,2-1.4,2-5.1
		l-0.1-9.7c-0.1-3-0.2-6.4-4.2-6.4c-1.5,0-3,0.6-4.2,1.6c-0.3,0.2-0.5,0.6-0.5,1.1c0.1,3.1,0.1,11.9,0.1,14.7s0.5,3.6,2,4
		c0.5,0.2,0.9,0.6,0.9,1.2V14c0,0.7-0.6,1.3-1.3,1.3H62c-2.1-0.1-4.8-0.2-9.9-0.2c-1.4,0-2.8,0-4.1,0.2c-0.7,0.1-1.3-0.4-1.4-1.1
		c0,0,0,0,0,0C46.6,14.1,46.6,14,46.6,14L46.6,14z M111.1,8.6c0.7,0.5,0.9,1.5,0.4,2.2c0,0.1-0.1,0.1-0.2,0.2
		c-3.4,3.4-8.1,5.3-12.9,5.4C89.5,16.3,83,10.2,83,1.7c0-8.9,7.6-14.6,16.8-14.6c6.1,0,11.8,2.7,11.8,7.1c-0.1,2.1-1.8,3.9-3.9,3.9
		c-1,0-2-0.4-2.7-1.1c-0.6-0.5-0.7-0.8-1.9-3.5c-0.6-1.2-1.8-3.3-3.7-3.3c-3.6,0-4.6,6.1-4.6,9.2c0,7,4,11.7,8.3,11.7
		c2.2-0.1,4.3-1,5.9-2.5C109.6,8.2,110.5,8.1,111.1,8.6 M119.6,5.1c3.1,0,5.6,2.5,5.6,5.6s-2.5,5.6-5.6,5.6s-5.6-2.5-5.6-5.6
		S116.5,5.2,119.6,5.1L119.6,5.1"/>
</symbol>
<title>snap</title>
<g>
	<defs>
		<rect id="SVGID_1_" x="5.4" y="117.6" width="289.2" height="68.6"/>
	</defs>
	<clipPath id="SVGID_2_">
		<use xlink:href="#SVGID_1_"  style="overflow:visible;"/>
	</clipPath>
	<g transform="matrix(1 0 0 1 0 1.525879e-05)" style="clip-path:url(#SVGID_2_);">
		
			<use xlink:href="#snapchat"  width="250.5" height="59.4" x="-125.3" y="-29.7" transform="matrix(1.1547 0 0 1.1547 149.9429 151.6875)" style="overflow:visible;"/>
	</g>
</g>
</svg>
