<?xml version="1.0" encoding="utf-8"?>
<svg viewBox="0 0 288 288" xmlns="http://www.w3.org/2000/svg">
  <path fill="#1DB954" d="M 143.721 1.151 C 64.796 1.431 1.011 65.496 1.152 144.279 C 1.432 223.204 65.497 286.988 144.281 286.848 C 223.066 286.708 286.849 222.643 286.849 143.999 C 286.709 64.934 222.644 1.151 143.721 1.151 Z M 209.327 207.223 C 206.804 211.428 201.197 212.69 197.131 210.167 C 163.486 189.559 121.15 184.934 71.385 196.428 C 66.618 197.69 61.852 194.745 60.591 189.98 C 59.328 185.213 62.272 180.448 67.039 179.186 C 67.179 179.186 67.179 179.186 67.319 179.045 C 121.852 166.569 168.673 171.896 206.243 195.027 C 210.589 197.409 211.85 203.016 209.327 207.223 Z M 226.85 168.252 C 223.626 173.438 216.757 175.121 211.57 171.896 C 173.019 148.204 114.421 141.476 69.001 155.214 C 63.114 157.177 56.945 153.952 54.983 148.065 C 53.02 142.177 56.245 136.009 62.132 134.046 C 62.272 133.906 62.412 133.906 62.693 133.906 C 114.702 118.205 179.328 125.776 223.626 152.971 C 228.393 156.196 230.075 163.065 226.85 168.252 Z M 228.252 127.737 C 182.131 100.401 106.15 97.878 61.993 111.196 C 54.843 113.298 47.553 109.374 45.31 102.224 C 43.207 95.074 47.132 87.785 54.281 85.542 C 104.888 70.261 188.86 73.205 242.131 104.607 C 248.439 108.392 250.542 116.663 246.756 122.831 C 242.971 129.14 234.7 131.243 228.533 127.458 L 228.252 127.737 Z" style=""/>
</svg>