<svg xmlns="http://www.w3.org/2000/svg" viewBox="0 0 288 288"><path fill="#00BF6F" d="M220.8 153.9c-1.9 0-3.8.3-5.6.7-7.1-27.8-29.7-49-58-54-1.2-.2-2.4-.4-3.7-.6.2-6.9.5-14.9 10.7-22.1l-1.6-4S142.8 80 140.5 97c-1-4.6-10.2-10.3-14.8-11.5l-2.3 3.7c4.1 2.5 6.9 6.7 7.5 11.4-28.2 5.1-50.9 26.2-58 54-12.6-3.2-25.5 4.6-28.6 17.3-3.2 12.7 4.6 25.6 17.3 28.8 4.8 1.2 9.9.9 14.5-.9 2 5.1 4.6 9.9 7.7 14.4l19.7-13.3-.1-.2c-5.5-7.7-8.7-16.9-9-26.4-.6-10.8 2.1-21.5 9-27.9 14.2-12.2 29.8-6.6 39.5 5h2.6c9.7-11.6 25.2-17.1 39.5-5 6.9 6.3 9.5 17.1 9 27.9-.4 9.5-3.4 18.7-9 26.5l-.1.2 19.7 13.3c3.1-4.5 5.7-9.3 7.7-14.4 12.2 4.8 26-1.2 30.7-13.5 4.8-12.2-1.2-26-13.5-30.7-2.9-1.2-5.8-1.8-8.7-1.8zm-154 30.8c-3.9 0-7-3.1-7-7s3.1-7 7-7c1.4 0 2.8.4 4 1.2.1 3.7.3 7.4.7 11-1.3 1.2-2.9 1.8-4.7 1.8zm154.5 0c-1.7 0-3.4-.7-4.7-1.8.4-3.6.7-7.3.7-11 3.2-2.2 7.5-1.3 9.7 1.9 2.2 3.2 1.3 7.5-1.9 9.7-1.1.8-2.4 1.2-3.8 1.2z"/></svg>