<svg xmlns="http://www.w3.org/2000/svg" viewBox="0 0 288 288"><path fill="#231F1F" d="M0 0h288v288H0V0z"/><path fill="#FFF" d="M60.9 133h11.6v28.2h5.9V133h11.7v-6.1H60.9v6.1zm61.7 15.1c0 3-.7 4.9-2.2 6.1-1.5 1.2-3.4 1.6-6.5 1.6-3.8 0-6.4-.7-7.9-2.3-1.5-1.5-1.6-3.2-1.6-5.5v-21.1h-6V148c0 2.8.2 5.4 2 8.1 1.1 1.7 4.7 5.7 12.8 5.7 3.4 0 9.6-.6 12.9-5 2.3-3 2.4-5.5 2.4-8.8v-21h-6v21.1h.1zm46.4-10.2c0-6.3-4.3-11-10.9-11h-20v34.3h6v-12.4h11.3l6.9 12.4h6.7l-7.2-12.8c4.7-1.4 7.2-5.6 7.2-10.5m-10.8 4.8h-13.9V133h14c3.3 0 4.9 2 4.9 4.7-.1 2-1 5-5 5m35.7-16.7c-10.1 0-18.2 7.9-18.2 17.6-.4 10.1 7.5 18.6 17.6 18.9 10.1.4 18.6-7.5 18.9-17.6s-7.5-18.6-17.6-18.9h-.7m8.6 26.4c-2.3 2.3-5.4 3.4-8.6 3.4s-6.3-1.3-8.6-3.4c-2.3-2.1-3.7-5.2-3.7-8.4-.1-3.3 1.3-6.4 3.5-8.7 4.9-4.5 12.4-4.5 17.4-.1 2.3 2.2 3.7 5.2 3.7 8.5-.1 3.4-1.5 6.5-3.7 8.7"/><path fill="#FFF" d="M227.1 110.5l-1.3-1.7c-.4-.5-.8-.9-1.2-1.3-2.3-2.2-5.4-3.4-8.6-3.4H35.2v80.1H216c3.2 0 6.3-1.3 8.6-3.4.4-.4.8-.9 1.2-1.3v-.1l26.9-35.2-25.6-33.7zm-5.8 65.1c-.2.2-.4.5-.6.7-1.3 1.2-2.9 1.8-4.5 1.8H41v-68.2h175c1.7 0 3.4.6 4.5 1.8.2.2.5.5.6.7l7.4 9.7 16.8 21.8-24 31.7z"/></svg>