<?xml version="1.0" encoding="utf-8"?>
<svg viewBox="0 0 288 288" xmlns="http://www.w3.org/2000/svg">
  <path d="M 45.49 208.441 C 66.52 210.609 87.623 204.467 104.319 191.244 C 103.395 190.811 102.4 190.594 101.406 190.594 C 93.037 189.8 85.129 186.335 78.812 180.696 C 74.051 176.505 70.286 171.231 67.871 165.378 C 67.444 164.367 67.16 163.355 66.592 162.127 L 68.297 162.127 C 73.057 162.85 77.959 162.705 82.72 161.621 L 83.572 161.405 C 83.856 161.332 83.785 161.26 83.928 161.115 C 83.431 160.754 82.862 160.465 82.294 160.392 C 77.746 159.092 73.483 156.997 69.647 154.179 C 60.481 147.604 54.443 137.561 52.809 126.29 C 52.595 124.628 52.453 122.966 52.382 121.304 C 52.382 120.726 52.453 120.148 52.524 119.642 C 57.853 122.604 63.821 124.194 69.86 124.339 C 57.782 114.585 51.813 102.085 52.737 86.261 C 53.021 80.843 55.721 72.1 58.208 69.065 C 58.705 69.571 59.203 70.077 59.629 70.582 C 62.115 73.4 64.602 76.29 67.231 78.964 C 78.812 90.524 92.596 99.484 107.871 105.264 C 117.462 108.949 127.551 111.261 137.782 112.128 C 138.919 112.201 140.127 112.273 141.264 112.345 C 141.548 112.273 141.761 112.201 142.045 112.128 C 141.833 110.322 141.619 108.587 141.477 106.782 C 140.696 99.989 141.69 93.053 144.39 86.767 C 150.003 73.617 159.595 65.236 173.236 61.984 C 185.669 59.094 197.108 61.984 207.269 70.005 C 208.405 70.872 209.4 71.811 210.394 72.823 C 211.176 73.834 212.455 74.196 213.663 73.834 C 219.346 72.534 224.888 70.582 230.146 68.126 C 231.993 67.187 233.912 66.175 235.759 65.236 C 236.185 65.019 236.682 64.802 237.464 64.442 C 236.043 68.993 233.84 73.256 230.928 77.013 C 228.086 80.698 224.675 83.877 220.91 86.551 C 221.549 87.201 222.26 86.912 222.757 86.84 C 228.796 85.9 234.693 84.239 240.377 81.854 L 242.793 80.843 C 242.366 81.565 242.153 81.998 241.869 82.36 C 237.038 89.441 231.069 95.726 224.32 101.001 C 223.183 101.796 222.473 103.169 222.615 104.614 C 223.254 125.494 218.423 145.003 209.187 163.499 C 202.863 176.216 194.337 187.704 183.964 197.386 C 169.186 211.258 150.855 220.724 131.104 224.626 C 125.349 225.709 119.523 226.504 113.626 226.865 C 109.931 227.227 106.308 227.082 102.684 227.082 C 99.7 227.01 96.788 226.72 93.874 226.288 C 82.648 224.986 71.636 222.025 61.263 217.4 C 56.005 215.088 50.961 212.414 46.059 209.308 C 45.774 209.164 45.49 208.874 45.206 208.657 L 45.49 208.441 Z" fill="#5fa7dc" style=""/>
</svg>