<?xml version="1.0" encoding="utf-8"?>
<svg version="1.1" id="Layer_1" x="0" y="0" viewBox="0 0 288 288" xmlns="http://www.w3.org/2000/svg">
  <style>.st1{fill:#fff}</style>
  <path fill="#010202" d="M0 0h288v288H0z"/>
  <path class="st1" d="M 44.468 160.745 C 45.378 163.143 46.701 165.377 48.438 167.196 C 50.092 169.016 52.16 170.421 54.393 171.331 C 56.791 172.324 59.355 172.737 61.919 172.737 C 64.483 172.737 66.964 172.241 69.28 171.249 C 71.513 170.339 73.58 168.933 75.317 167.113 C 77.054 165.294 78.46 163.061 79.287 160.662 C 80.279 158.016 80.776 155.204 80.693 152.309 L 80.693 105.085 L 92.189 105.085 L 92.189 181.835 L 80.858 181.835 L 80.858 174.722 C 78.295 177.451 75.234 179.519 71.844 181.008 C 68.287 182.414 64.483 183.158 60.678 183.075 C 56.791 183.075 52.821 182.414 49.182 180.925 C 45.709 179.602 42.566 177.534 39.92 174.805 C 37.273 172.076 35.123 168.85 33.717 165.294 C 32.145 161.407 31.401 157.271 31.484 153.054 L 31.484 105.002 L 43.062 105.002 L 43.062 152.309 C 42.98 155.204 43.476 158.099 44.468 160.745 Z M 112.038 105.002 L 112.038 132.956 C 114.602 130.392 117.579 128.325 120.887 126.836 C 124.361 125.347 128.083 124.52 131.887 124.603 C 135.857 124.603 139.744 125.347 143.383 126.919 C 150.413 129.896 156.037 135.437 158.932 142.467 C 160.503 146.106 161.247 149.911 161.247 153.881 C 161.247 157.768 160.503 161.655 158.932 165.211 C 157.443 168.685 155.293 171.827 152.646 174.474 C 149.999 177.121 146.774 179.271 143.3 180.76 C 139.661 182.331 135.774 183.075 131.804 183.075 C 128 183.075 124.278 182.331 120.805 180.842 C 117.497 179.354 114.436 177.286 111.873 174.722 L 111.873 181.752 L 101.038 181.752 L 101.038 104.919 L 112.038 105.002 Z M 113.361 161.572 C 114.354 163.888 115.677 165.955 117.497 167.775 C 119.233 169.512 121.384 170.918 123.699 171.91 C 126.098 172.985 128.662 173.482 131.225 173.482 C 133.789 173.482 136.353 172.985 138.669 171.91 C 140.985 170.918 143.052 169.512 144.789 167.775 C 146.526 165.955 147.932 163.888 148.924 161.572 C 149.999 159.174 150.496 156.61 150.496 153.963 C 150.496 151.317 149.999 148.753 148.924 146.354 C 147.932 144.039 146.526 141.971 144.789 140.152 C 143.052 138.415 140.985 137.009 138.669 136.016 C 131.474 133.039 123.12 134.61 117.579 140.152 C 115.842 141.888 114.354 144.039 113.444 146.354 C 112.452 148.753 111.873 151.399 111.873 153.963 C 111.873 156.527 112.369 159.174 113.361 161.572 Z M 167.616 142.633 C 169.021 139.159 171.089 136.016 173.653 133.37 C 181.923 125.017 194.495 122.453 205.329 126.919 C 208.637 128.325 211.697 130.392 214.178 133.039 C 216.742 135.686 218.727 138.828 219.968 142.302 C 221.374 146.024 222.035 149.911 222.035 153.881 L 222.035 157.437 L 176.548 157.437 C 176.878 159.67 177.623 161.82 178.781 163.722 C 179.856 165.625 181.262 167.361 182.916 168.767 C 184.57 170.173 186.472 171.331 188.54 172.076 C 190.69 172.903 192.923 173.316 195.156 173.316 C 201.607 173.399 207.645 170.339 211.284 165.046 L 219.306 171 C 213.682 178.692 204.667 183.158 195.156 182.993 C 191.162 182.996 187.205 182.238 183.495 180.76 C 179.939 179.354 176.796 177.286 174.066 174.557 C 171.42 171.91 169.27 168.767 167.781 165.294 C 164.721 158.099 164.638 149.911 167.616 142.633 Z M 183.081 138.249 C 179.939 140.896 177.788 144.618 176.878 148.587 L 210.953 148.587 C 210.126 144.535 207.975 140.896 204.833 138.249 C 198.547 133.122 189.45 133.122 183.081 138.249 Z M 242.877 139.573 C 240.561 142.137 239.403 145.61 239.403 149.993 L 239.403 181.752 L 228.321 181.752 L 228.321 125.844 L 239.32 125.844 L 239.32 132.708 C 240.644 130.475 242.546 128.656 244.779 127.332 C 247.177 125.926 249.989 125.265 252.719 125.347 L 256.523 125.347 L 256.523 135.603 L 251.892 135.603 C 248.418 135.603 245.11 137.009 242.877 139.573 Z" style=""/>
</svg>