<svg xmlns="http://www.w3.org/2000/svg" viewBox="0 0 288 288"><path fill="#353535" d="M0 0h288v288H0V0z"/><path fill-rule="evenodd" clip-rule="evenodd" fill="#B2E522" d="M192 102.2c-1.3-.3-2.7-.3-3.8.2l-5.2 1.7V55.5c0-2.5-2-4.5-4.5-4.5h-68.7c-2.5 0-4.5 2-4.5 4.5v48.6l-5.2-1.7c-1.3-.4-2.6-.5-3.8-.2-1.9.5-6.2 2.4-6.2 9.9v39.8c0 .3 0 .6.1.8.5 3.4 2.9 7.5 8.1 7.5h17.3c1.8 2 6.1 5.6 14 6.2.1 5.7 3.6 10.9 8.9 13.1v11.3c0 .2-.1.3-.3.3-24.2 1-39.8 8.7-44.2 11.2-2.7 1.6-3.3 4.8-3.3 6.8v8.9c.1 3.1 2.7 5.6 5.9 5.5 3-.1 5.4-2.4 5.6-5.5.1-2.8-1.7-5.2-4.4-5.9-.1-.1-.3-.2-.3-.3v-3.2c0-.8.5-1.6 1.2-2 6.6-3.6 23.3-5.5 36.1-6.1 1.6-.1 3.1-.1 3.8 0 .2 0 .3.1.3.3.7 10.3 1.7 18.9 2 24.3h-.5c-2.2 0-4.1 2.5-4.1 5.7s1.9 5.7 4.1 5.7h7.8c2.2 0 4.1-2.5 4.1-5.7s-1.9-5.7-4.1-5.7h-.5s1.4-14 2-24.3c0-.2.1-.3.3-.3.6 0 2.2-.1 3.8 0 12.6.6 29.4 2.5 36.1 6.1.8.4 1.2 1.2 1.2 2v3.2c0 .2-.1.3-.3.3-2.7.6-4.5 3.1-4.4 5.9.2 3 2.6 5.3 5.6 5.5 3.1.1 5.8-2.4 5.9-5.5v-8.9c0-2.2-.5-5.3-3.3-6.8-4.5-2.5-20-10.2-44.2-11.2-.2 0-.3-.1-.3-.3v-11.3c5.3-2.2 8.7-7.4 8.9-13.1 8-.6 12.2-4.2 14-6.2h17.4c5.2 0 7.6-4.1 8.1-7.5 0-.3.1-.6.1-.8v-39.6c-.3-7.8-4.7-9.7-6.6-10.1zm-86.9 41.9l-8 6.1c-.1.1-.3.1-.4-.1-.1-.1-.1-.1-.1-.2V112c0-1.5.2-3.6 1-3.3l7 2.4c.2.1.4.3.4.6v32.4h.1zm85.8 6.1l-8-6.1v-32.4c0-.3.1-.5.4-.6l7-2.4c.9-.3 1 1.8 1 3.3v38c0 .1-.1.3-.3.3.1 0 0 0-.1-.1z"/></svg>